<?xml version="1.0" encoding="UTF-8" standalone="no"?>
<!DOCTYPE svg PUBLIC "-//W3C//DTD SVG 1.1//EN"
 "http://www.w3.org/Graphics/SVG/1.1/DTD/svg11.dtd">
<!-- Generated by graphviz version 9.0.0 (20230911.1827)
 -->
<!-- Title: DatabaseHandler::initDatabase Pages: 1 -->
<svg width="658pt" height="40pt"
 viewBox="0.00 0.00 657.75 40.00" xmlns="http://www.w3.org/2000/svg" xmlns:xlink="http://www.w3.org/1999/xlink">
<g id="graph0" class="graph" transform="scale(1 1) rotate(0) translate(4 36)">
<title>DatabaseHandler::initDatabase</title>
<!-- Node1 -->
<g id="Node000001" class="node">
<title>Node1</title>
<g id="a_Node000001"><a xlink:title=" ">
<polygon fill="#999999" stroke="#666666" points="649.75,-26 499.5,-26 499.5,-6 649.75,-6 649.75,-26"/>
<text text-anchor="middle" x="574.62" y="-12.5" font-family="Helvetica,sans-Serif" font-size="10.00">DatabaseHandler::initDatabase</text>
</a>
</g>
</g>
<!-- Node2 -->
<g id="Node000002" class="node">
<title>Node2</title>
<g id="a_Node000002"><a xlink:href="../../df/d32/class_object_handler.html#a92adb8ba08335d950b4f59a1f83dc3d6" target="_top" xlink:title=" ">
<polygon fill="white" stroke="#666666" points="463.5,-32 326,-32 326,0 463.5,0 463.5,-32"/>
<text text-anchor="start" x="334" y="-18.5" font-family="Helvetica,sans-Serif" font-size="10.00">ObjectHandler::initDatabase</text>
<text text-anchor="middle" x="394.75" y="-6.5" font-family="Helvetica,sans-Serif" font-size="10.00">Object</text>
</a>
</g>
</g>
<!-- Node1&#45;&gt;Node2 -->
<g id="edge1_Node000001_Node000002" class="edge">
<title>Node1&#45;&gt;Node2</title>
<g id="a_edge1_Node000001_Node000002"><a xlink:title=" ">
<path fill="none" stroke="#63b8ff" d="M487.89,-16C479.84,-16 471.75,-16 463.9,-16"/>
<polygon fill="#63b8ff" stroke="#63b8ff" points="487.71,-19.5 497.71,-16 487.71,-12.5 487.71,-19.5"/>
</a>
</g>
</g>
<!-- Node3 -->
<g id="Node000003" class="node">
<title>Node3</title>
<g id="a_Node000003"><a xlink:href="../../d6/d5d/class_dev_window.html#a2aa91ebfb3fac512e407c89b9ffff1ec" target="_top" xlink:title=" ">
<polygon fill="white" stroke="#666666" points="290,-26 163.75,-26 163.75,-6 290,-6 290,-26"/>
<text text-anchor="middle" x="226.88" y="-12.5" font-family="Helvetica,sans-Serif" font-size="10.00">DevWindow::initDatabase</text>
</a>
</g>
</g>
<!-- Node2&#45;&gt;Node3 -->
<g id="edge2_Node000002_Node000003" class="edge">
<title>Node2&#45;&gt;Node3</title>
<g id="a_edge2_Node000002_Node000003"><a xlink:title=" ">
<path fill="none" stroke="#63b8ff" d="M314.45,-16C306.37,-16 298.24,-16 290.38,-16"/>
<polygon fill="#63b8ff" stroke="#63b8ff" points="314.29,-19.5 324.29,-16 314.29,-12.5 314.29,-19.5"/>
</a>
</g>
</g>
<!-- Node4 -->
<g id="Node000004" class="node">
<title>Node4</title>
<g id="a_Node000004"><a xlink:href="../../d6/d5d/class_dev_window.html#a9bfb7fe4688b2a94807581db270502ff" target="_top" xlink:title=" ">
<polygon fill="white" stroke="#666666" points="127.75,-32 0,-32 0,0 127.75,0 127.75,-32"/>
<text text-anchor="start" x="8" y="-18.5" font-family="Helvetica,sans-Serif" font-size="10.00">DevWindow::on_btnInitDB</text>
<text text-anchor="middle" x="63.88" y="-6.5" font-family="Helvetica,sans-Serif" font-size="10.00">_clicked</text>
</a>
</g>
</g>
<!-- Node3&#45;&gt;Node4 -->
<g id="edge3_Node000003_Node000004" class="edge">
<title>Node3&#45;&gt;Node4</title>
<g id="a_edge3_Node000003_Node000004"><a xlink:title=" ">
<path fill="none" stroke="#63b8ff" d="M152.27,-16C144.17,-16 135.98,-16 128.02,-16"/>
<polygon fill="#63b8ff" stroke="#63b8ff" points="152.11,-19.5 162.11,-16 152.11,-12.5 152.11,-19.5"/>
</a>
</g>
</g>
</g>
</svg>
