<?xml version="1.0" encoding="UTF-8" standalone="no"?>
<!DOCTYPE svg PUBLIC "-//W3C//DTD SVG 1.1//EN"
 "http://www.w3.org/Graphics/SVG/1.1/DTD/svg11.dtd">
<!-- Generated by graphviz version 9.0.0 (20230911.1827)
 -->
<!-- Title: DatabaseHandler::getActiveDatabase Pages: 1 -->
<svg width="656pt" height="166pt"
 viewBox="0.00 0.00 656.25 166.00" xmlns="http://www.w3.org/2000/svg" xmlns:xlink="http://www.w3.org/1999/xlink">
<g id="graph0" class="graph" transform="scale(1 1) rotate(0) translate(4 162)">
<title>DatabaseHandler::getActiveDatabase</title>
<!-- Node1 -->
<g id="Node000001" class="node">
<title>Node1</title>
<g id="a_Node000001"><a xlink:title=" ">
<polygon fill="#999999" stroke="#666666" points="648.25,-98 512.25,-98 512.25,-66 648.25,-66 648.25,-98"/>
<text text-anchor="start" x="520.25" y="-84.5" font-family="Helvetica,sans-Serif" font-size="10.00">DatabaseHandler::getActive</text>
<text text-anchor="middle" x="580.25" y="-72.5" font-family="Helvetica,sans-Serif" font-size="10.00">Database</text>
</a>
</g>
</g>
<!-- Node2 -->
<g id="Node000002" class="node">
<title>Node2</title>
<g id="a_Node000002"><a xlink:href="../../d6/d5d/class_dev_window.html#a7da394c44e1c71d58f2f9a3b1e22d85f" target="_top" xlink:title=" ">
<polygon fill="white" stroke="#666666" points="476.25,-144 339.5,-144 339.5,-124 476.25,-124 476.25,-144"/>
<text text-anchor="middle" x="407.88" y="-130.5" font-family="Helvetica,sans-Serif" font-size="10.00">DevWindow::closeDatabase</text>
</a>
</g>
</g>
<!-- Node1&#45;&gt;Node2 -->
<g id="edge1_Node000001_Node000002" class="edge">
<title>Node1&#45;&gt;Node2</title>
<g id="a_edge1_Node000001_Node000002"><a xlink:title=" ">
<path fill="none" stroke="#63b8ff" d="M514.4,-101.79C490.15,-109.19 463.57,-117.31 443.15,-123.54"/>
<polygon fill="#63b8ff" stroke="#63b8ff" points="515.35,-105.16 523.89,-98.89 513.31,-98.47 515.35,-105.16"/>
</a>
</g>
</g>
<!-- Node4 -->
<g id="Node000004" class="node">
<title>Node4</title>
<g id="a_Node000004"><a xlink:href="../../df/d32/class_object_handler.html#abfd81a99d24bd756ea432965edff7593" target="_top" xlink:title=" ">
<polygon fill="white" stroke="#666666" points="469.5,-98 346.25,-98 346.25,-66 469.5,-66 469.5,-98"/>
<text text-anchor="start" x="354.25" y="-84.5" font-family="Helvetica,sans-Serif" font-size="10.00">ObjectHandler::getActive</text>
<text text-anchor="middle" x="407.88" y="-72.5" font-family="Helvetica,sans-Serif" font-size="10.00">Database</text>
</a>
</g>
</g>
<!-- Node1&#45;&gt;Node4 -->
<g id="edge3_Node000001_Node000004" class="edge">
<title>Node1&#45;&gt;Node4</title>
<g id="a_edge3_Node000001_Node000004"><a xlink:title=" ">
<path fill="none" stroke="#63b8ff" d="M500.43,-82C490.18,-82 479.81,-82 469.91,-82"/>
<polygon fill="#63b8ff" stroke="#63b8ff" points="500.4,-85.5 510.4,-82 500.4,-78.5 500.4,-85.5"/>
</a>
</g>
</g>
<!-- Node7 -->
<g id="Node000007" class="node">
<title>Node7</title>
<g id="a_Node000007"><a xlink:href="../../d6/d5d/class_dev_window.html#a2aa91ebfb3fac512e407c89b9ffff1ec" target="_top" xlink:title=" ">
<polygon fill="white" stroke="#666666" points="296.75,-20 170.5,-20 170.5,0 296.75,0 296.75,-20"/>
<text text-anchor="middle" x="233.62" y="-6.5" font-family="Helvetica,sans-Serif" font-size="10.00">DevWindow::initDatabase</text>
</a>
</g>
</g>
<!-- Node1&#45;&gt;Node7 -->
<g id="edge7_Node000001_Node000007" class="edge">
<title>Node1&#45;&gt;Node7</title>
<g id="a_edge7_Node000001_Node000007"><a xlink:title=" ">
<path fill="none" stroke="#63b8ff" d="M502.35,-62.92C493.56,-60.87 484.72,-58.85 476.25,-57 413.62,-43.32 341.43,-29.53 292.39,-20.46"/>
<polygon fill="#63b8ff" stroke="#63b8ff" points="501.41,-66.3 511.94,-65.2 503.02,-59.49 501.41,-66.3"/>
</a>
</g>
</g>
<!-- Node3 -->
<g id="Node000003" class="node">
<title>Node3</title>
<g id="a_Node000003"><a xlink:href="../../d6/d5d/class_dev_window.html#a5af0e44d3c6fff78f8a62cf26380f595" target="_top" xlink:title=" ">
<polygon fill="white" stroke="#666666" points="303.5,-158 163.75,-158 163.75,-126 303.5,-126 303.5,-158"/>
<text text-anchor="start" x="171.75" y="-144.5" font-family="Helvetica,sans-Serif" font-size="10.00">DevWindow::on_btnCloseDB</text>
<text text-anchor="middle" x="233.62" y="-132.5" font-family="Helvetica,sans-Serif" font-size="10.00">_clicked</text>
</a>
</g>
</g>
<!-- Node2&#45;&gt;Node3 -->
<g id="edge2_Node000002_Node000003" class="edge">
<title>Node2&#45;&gt;Node3</title>
<g id="a_edge2_Node000002_Node000003"><a xlink:title=" ">
<path fill="none" stroke="#63b8ff" d="M328.04,-137.66C320.01,-138.03 311.91,-138.41 304,-138.78"/>
<polygon fill="#63b8ff" stroke="#63b8ff" points="327.95,-141.17 337.78,-137.21 327.63,-134.18 327.95,-141.17"/>
</a>
</g>
</g>
<!-- Node5 -->
<g id="Node000005" class="node">
<title>Node5</title>
<g id="a_Node000005"><a xlink:href="../../df/d32/class_object_handler.html#a0db21cc39e1879a9e0c86b56973a4195" target="_top" xlink:title=" ">
<polygon fill="white" stroke="#666666" points="293.38,-108 173.88,-108 173.88,-76 293.38,-76 293.38,-108"/>
<text text-anchor="start" x="181.88" y="-94.5" font-family="Helvetica,sans-Serif" font-size="10.00">ObjectHandler::initTable</text>
<text text-anchor="middle" x="233.62" y="-82.5" font-family="Helvetica,sans-Serif" font-size="10.00">Object</text>
</a>
</g>
</g>
<!-- Node4&#45;&gt;Node5 -->
<g id="edge4_Node000004_Node000005" class="edge">
<title>Node4&#45;&gt;Node5</title>
<g id="a_edge4_Node000004_Node000005"><a xlink:title=" ">
<path fill="none" stroke="#63b8ff" d="M334.78,-86.19C321.08,-86.98 306.89,-87.8 293.65,-88.57"/>
<polygon fill="#63b8ff" stroke="#63b8ff" points="334.85,-89.69 344.64,-85.61 334.45,-82.7 334.85,-89.69"/>
</a>
</g>
</g>
<!-- Node6 -->
<g id="Node000006" class="node">
<title>Node6</title>
<g id="a_Node000006"><a xlink:href="../../d6/d5d/class_dev_window.html#a9bfb7fe4688b2a94807581db270502ff" target="_top" xlink:title=" ">
<polygon fill="white" stroke="#666666" points="127.75,-64 0,-64 0,-32 127.75,-32 127.75,-64"/>
<text text-anchor="start" x="8" y="-50.5" font-family="Helvetica,sans-Serif" font-size="10.00">DevWindow::on_btnInitDB</text>
<text text-anchor="middle" x="63.88" y="-38.5" font-family="Helvetica,sans-Serif" font-size="10.00">_clicked</text>
</a>
</g>
</g>
<!-- Node4&#45;&gt;Node6 -->
<g id="edge6_Node000004_Node000006" class="edge">
<title>Node4&#45;&gt;Node6</title>
<g id="a_edge6_Node000004_Node000006"><a xlink:title=" ">
<path fill="none" stroke="#63b8ff" d="M334.76,-70.93C324.28,-69.5 313.62,-68.14 303.5,-67 244.13,-60.34 176.2,-55.17 128.03,-51.91"/>
<polygon fill="#63b8ff" stroke="#63b8ff" points="334.12,-74.37 344.51,-72.29 335.09,-67.44 334.12,-74.37"/>
</a>
</g>
</g>
<!-- Node5&#45;&gt;Node6 -->
<g id="edge5_Node000005_Node000006" class="edge">
<title>Node5&#45;&gt;Node6</title>
<g id="a_edge5_Node000005_Node000006"><a xlink:title=" ">
<path fill="none" stroke="#63b8ff" d="M162.55,-73.62C151.01,-70.59 139.1,-67.47 127.75,-64.49"/>
<polygon fill="#63b8ff" stroke="#63b8ff" points="161.46,-76.95 172.02,-76.1 163.23,-70.18 161.46,-76.95"/>
</a>
</g>
</g>
<!-- Node7&#45;&gt;Node6 -->
<g id="edge8_Node000007_Node000006" class="edge">
<title>Node7&#45;&gt;Node6</title>
<g id="a_edge8_Node000007_Node000006"><a xlink:title=" ">
<path fill="none" stroke="#63b8ff" d="M175.47,-22.95C160.18,-26.41 143.56,-30.18 127.96,-33.71"/>
<polygon fill="#63b8ff" stroke="#63b8ff" points="175.89,-26.44 184.87,-20.82 174.34,-19.61 175.89,-26.44"/>
</a>
</g>
</g>
</g>
</svg>
