<?xml version="1.0" encoding="UTF-8" standalone="no"?>
<!DOCTYPE svg PUBLIC "-//W3C//DTD SVG 1.1//EN"
 "http://www.w3.org/Graphics/SVG/1.1/DTD/svg11.dtd">
<!-- Generated by graphviz version 9.0.0 (20230911.1827)
 -->
<!-- Title: AposFrontend::DevWindow::on_clearCommandAfterExecute_stateChanged Pages: 1 -->
<svg xmlns:xlink="http://www.w3.org/1999/xlink" width="505pt"
 height="68pt" viewBox="0.00 0.00 505.25 68.00" xmlns="http://www.w3.org/2000/svg">
<g id="graph0" class="graph" transform="scale(1 1) rotate(0) translate(4 64)">
<title>AposFrontend::DevWindow::on_clearCommandAfterExecute_stateChanged</title>
<!-- Node1 -->
<g id="Node000001" class="node">
<title>Node1</title>
<g id="a_Node000001"><a xlink:title="Slot for the &#39;clearCommandAfterExecute&#39; state change event.">
<polygon fill="#999999" stroke="#666666" points="159.25,-44 0,-44 0,0 159.25,0 159.25,-44"/>
<text text-anchor="start" x="8" y="-30.5" font-family="Helvetica,sans-Serif" font-size="10.00">AposFrontend::DevWindow</text>
<text text-anchor="start" x="8" y="-18.5" font-family="Helvetica,sans-Serif" font-size="10.00">::on_clearCommandAfterExecute</text>
<text text-anchor="middle" x="79.62" y="-6.5" font-family="Helvetica,sans-Serif" font-size="10.00">_stateChanged</text>
</a>
</g>
</g>
<!-- Node2 -->
<g id="Node000002" class="node">
<title>Node2</title>
<g id="a_Node000002"><a xlink:href="../../d6/de4/group___ui-_functions.html#ga967ec97cb7b88eeb89c2ef45f68763a6" target="_top" xlink:title="Checks a checkbox.">
<polygon fill="white" stroke="#666666" points="328.25,-60 195.25,-60 195.25,-28 328.25,-28 328.25,-60"/>
<text text-anchor="start" x="203.25" y="-46.5" font-family="Helvetica,sans-Serif" font-size="10.00">AposFrontend::DevWindow</text>
<text text-anchor="middle" x="261.75" y="-34.5" font-family="Helvetica,sans-Serif" font-size="10.00">::checkCheckbox</text>
</a>
</g>
</g>
<!-- Node1&#45;&gt;Node2 -->
<g id="edge1_Node000001_Node000002" class="edge">
<title>Node1&#45;&gt;Node2</title>
<g id="a_edge1_Node000001_Node000002"><a xlink:title=" ">
<path fill="none" stroke="#63b8ff" d="M159.63,-31.65C167.66,-32.63 175.81,-33.63 183.82,-34.6"/>
<polygon fill="#63b8ff" stroke="#63b8ff" points="183.17,-38.05 193.52,-35.79 184.02,-31.1 183.17,-38.05"/>
</a>
</g>
</g>
<!-- Node3 -->
<g id="Node000003" class="node">
<title>Node3</title>
<g id="a_Node000003"><a xlink:href="../../dc/dc2/class_apos_frontend_1_1_dev_window.html#a6e2ecb7e3fd65aefc8ed62fc9f1519e9" target="_top" xlink:title="Logs an event with a type and a message.">
<polygon fill="white" stroke="#666666" points="497.25,-38 364.25,-38 364.25,-6 497.25,-6 497.25,-38"/>
<text text-anchor="start" x="372.25" y="-24.5" font-family="Helvetica,sans-Serif" font-size="10.00">AposFrontend::DevWindow</text>
<text text-anchor="middle" x="430.75" y="-12.5" font-family="Helvetica,sans-Serif" font-size="10.00">::logEvent</text>
</a>
</g>
</g>
<!-- Node1&#45;&gt;Node3 -->
<g id="edge3_Node000001_Node000003" class="edge">
<title>Node1&#45;&gt;Node3</title>
<g id="a_edge3_Node000001_Node000003"><a xlink:title=" ">
<path fill="none" stroke="#63b8ff" d="M159.55,-19.66C171.51,-19.39 183.7,-19.15 195.25,-19 254.36,-18.23 269.15,-18.13 328.25,-19 336.1,-19.12 344.29,-19.28 352.46,-19.48"/>
<polygon fill="#63b8ff" stroke="#63b8ff" points="352.36,-22.98 362.45,-19.73 352.54,-15.98 352.36,-22.98"/>
</a>
</g>
</g>
<!-- Node2&#45;&gt;Node3 -->
<g id="edge2_Node000002_Node000003" class="edge">
<title>Node2&#45;&gt;Node3</title>
<g id="a_edge2_Node000002_Node000003"><a xlink:title=" ">
<path fill="none" stroke="#63b8ff" d="M328.27,-35.37C336.22,-34.32 344.4,-33.24 352.5,-32.18"/>
<polygon fill="#63b8ff" stroke="#63b8ff" points="352.91,-35.65 362.37,-30.88 351.99,-28.71 352.91,-35.65"/>
</a>
</g>
</g>
</g>
</svg>
