<?xml version="1.0" encoding="UTF-8" standalone="no"?>
<!DOCTYPE svg PUBLIC "-//W3C//DTD SVG 1.1//EN"
 "http://www.w3.org/Graphics/SVG/1.1/DTD/svg11.dtd">
<!-- Generated by graphviz version 9.0.0 (20230911.1827)
 -->
<!-- Title: AposFrontend::DevWindow::initDbClicked Pages: 1 -->
<svg width="479pt" height="178pt"
 viewBox="0.00 0.00 479.00 178.00" xmlns="http://www.w3.org/2000/svg" xmlns:xlink="http://www.w3.org/1999/xlink">
<g id="graph0" class="graph" transform="scale(1 1) rotate(0) translate(4 174)">
<title>AposFrontend::DevWindow::initDbClicked</title>
<!-- Node1 -->
<g id="Node000001" class="node">
<title>Node1</title>
<g id="a_Node000001"><a xlink:title="Slot for the &#39;InitDB&#39; button click event.">
<polygon fill="#999999" stroke="#666666" points="133,-104 0,-104 0,-72 133,-72 133,-104"/>
<text text-anchor="start" x="8" y="-90.5" font-family="Helvetica,sans-Serif" font-size="10.00">AposFrontend::DevWindow</text>
<text text-anchor="middle" x="66.5" y="-78.5" font-family="Helvetica,sans-Serif" font-size="10.00">::initDbClicked</text>
</a>
</g>
</g>
<!-- Node2 -->
<g id="Node000002" class="node">
<title>Node2</title>
<g id="a_Node000002"><a xlink:href="../../d6/de4/group___ui-_functions.html#gad74b5ca7c247820a938dbdf20f1e8f8c" target="_top" xlink:title="Enables or disables the buttons.">
<polygon fill="white" stroke="#666666" points="302,-170 169,-170 169,-138 302,-138 302,-170"/>
<text text-anchor="start" x="177" y="-156.5" font-family="Helvetica,sans-Serif" font-size="10.00">AposFrontend::DevWindow</text>
<text text-anchor="middle" x="235.5" y="-144.5" font-family="Helvetica,sans-Serif" font-size="10.00">::enableButtons</text>
</a>
</g>
</g>
<!-- Node1&#45;&gt;Node2 -->
<g id="edge1_Node000001_Node000002" class="edge">
<title>Node1&#45;&gt;Node2</title>
<g id="a_edge1_Node000001_Node000002"><a xlink:title=" ">
<path fill="none" stroke="#63b8ff" d="M109.21,-104.48C131.41,-113.26 158.92,-124.13 182.51,-133.45"/>
<polygon fill="#63b8ff" stroke="#63b8ff" points="181.04,-136.63 191.62,-137.06 183.61,-130.12 181.04,-136.63"/>
</a>
</g>
</g>
<!-- Node3 -->
<g id="Node000003" class="node">
<title>Node3</title>
<g id="a_Node000003"><a xlink:href="../../dc/dc2/class_apos_frontend_1_1_dev_window.html#a6e2ecb7e3fd65aefc8ed62fc9f1519e9" target="_top" xlink:title="Logs an event with a type and a message.">
<polygon fill="white" stroke="#666666" points="471,-126 338,-126 338,-94 471,-94 471,-126"/>
<text text-anchor="start" x="346" y="-112.5" font-family="Helvetica,sans-Serif" font-size="10.00">AposFrontend::DevWindow</text>
<text text-anchor="middle" x="404.5" y="-100.5" font-family="Helvetica,sans-Serif" font-size="10.00">::logEvent</text>
</a>
</g>
</g>
<!-- Node1&#45;&gt;Node3 -->
<g id="edge5_Node000001_Node000003" class="edge">
<title>Node1&#45;&gt;Node3</title>
<g id="a_edge5_Node000001_Node000003"><a xlink:title=" ">
<path fill="none" stroke="#63b8ff" d="M133.48,-92.32C188.85,-95.95 268,-101.13 326.3,-104.95"/>
<polygon fill="#63b8ff" stroke="#63b8ff" points="325.95,-108.43 336.16,-105.59 326.41,-101.44 325.95,-108.43"/>
</a>
</g>
</g>
<!-- Node4 -->
<g id="Node000004" class="node">
<title>Node4</title>
<g id="a_Node000004"><a xlink:href="../../dd/d44/group___database-_functions.html#gaf776a9f414cca86d16ff2c25566459e0" target="_top" xlink:title="Initializes the database.">
<polygon fill="white" stroke="#666666" points="302,-82 169,-82 169,-50 302,-50 302,-82"/>
<text text-anchor="start" x="177" y="-68.5" font-family="Helvetica,sans-Serif" font-size="10.00">AposFrontend::DevWindow</text>
<text text-anchor="middle" x="235.5" y="-56.5" font-family="Helvetica,sans-Serif" font-size="10.00">::initDatabase</text>
</a>
</g>
</g>
<!-- Node1&#45;&gt;Node4 -->
<g id="edge3_Node000001_Node000004" class="edge">
<title>Node1&#45;&gt;Node4</title>
<g id="a_edge3_Node000001_Node000004"><a xlink:title=" ">
<path fill="none" stroke="#63b8ff" d="M133.02,-79.37C140.97,-78.32 149.15,-77.24 157.25,-76.18"/>
<polygon fill="#63b8ff" stroke="#63b8ff" points="157.66,-79.65 167.12,-74.88 156.74,-72.71 157.66,-79.65"/>
</a>
</g>
</g>
<!-- Node5 -->
<g id="Node000005" class="node">
<title>Node5</title>
<g id="a_Node000005"><a xlink:href="../../dd/d44/group___database-_functions.html#ga9f30984f5b6e7ee6061ea5107c79eb33" target="_top" xlink:title="Sets the model views.">
<polygon fill="white" stroke="#666666" points="302,-32 169,-32 169,0 302,0 302,-32"/>
<text text-anchor="start" x="177" y="-18.5" font-family="Helvetica,sans-Serif" font-size="10.00">AposFrontend::DevWindow</text>
<text text-anchor="middle" x="235.5" y="-6.5" font-family="Helvetica,sans-Serif" font-size="10.00">::setModelViews</text>
</a>
</g>
</g>
<!-- Node1&#45;&gt;Node5 -->
<g id="edge6_Node000001_Node000005" class="edge">
<title>Node1&#45;&gt;Node5</title>
<g id="a_edge6_Node000001_Node000005"><a xlink:title=" ">
<path fill="none" stroke="#63b8ff" d="M101.53,-71.53C121.12,-62.23 146.28,-50.58 169,-41 172.53,-39.51 176.18,-38.01 179.87,-36.53"/>
<polygon fill="#63b8ff" stroke="#63b8ff" points="180.88,-39.89 188.89,-32.95 178.3,-33.38 180.88,-39.89"/>
</a>
</g>
</g>
<!-- Node2&#45;&gt;Node3 -->
<g id="edge2_Node000002_Node000003" class="edge">
<title>Node2&#45;&gt;Node3</title>
<g id="a_edge2_Node000002_Node000003"><a xlink:title=" ">
<path fill="none" stroke="#63b8ff" d="M298.68,-137.62C308.94,-134.91 319.65,-132.09 330.15,-129.33"/>
<polygon fill="#63b8ff" stroke="#63b8ff" points="330.74,-132.79 339.52,-126.86 328.96,-126.02 330.74,-132.79"/>
</a>
</g>
</g>
<!-- Node4&#45;&gt;Node3 -->
<g id="edge4_Node000004_Node000003" class="edge">
<title>Node4&#45;&gt;Node3</title>
<g id="a_edge4_Node000004_Node000003"><a xlink:title=" ">
<path fill="none" stroke="#63b8ff" d="M298.68,-82.38C308.94,-85.09 319.65,-87.91 330.15,-90.67"/>
<polygon fill="#63b8ff" stroke="#63b8ff" points="328.96,-93.98 339.52,-93.14 330.74,-87.21 328.96,-93.98"/>
</a>
</g>
</g>
</g>
</svg>
