<?xml version="1.0" encoding="UTF-8" standalone="no"?>
<!DOCTYPE svg PUBLIC "-//W3C//DTD SVG 1.1//EN"
 "http://www.w3.org/Graphics/SVG/1.1/DTD/svg11.dtd">
<!-- Generated by graphviz version 9.0.0 (20230911.1827)
 -->
<!-- Title: AposFrontend::DevWindow::on_btnAdd_clicked Pages: 1 -->
<svg xmlns:xlink="http://www.w3.org/1999/xlink" width="479pt"
 height="112pt" viewBox="0.00 0.00 479.00 112.00" xmlns="http://www.w3.org/2000/svg">
<g id="graph0" class="graph" transform="scale(1 1) rotate(0) translate(4 108)">
<title>AposFrontend::DevWindow::on_btnAdd_clicked</title>
<!-- Node1 -->
<g id="Node000001" class="node">
<title>Node1</title>
<g id="a_Node000001"><a xlink:title="Slot for the &#39;Add&#39; button click event.">
<polygon fill="#999999" stroke="#666666" points="133,-54 0,-54 0,-22 133,-22 133,-54"/>
<text text-anchor="start" x="8" y="-40.5" font-family="Helvetica,sans-Serif" font-size="10.00">AposFrontend::DevWindow</text>
<text text-anchor="middle" x="66.5" y="-28.5" font-family="Helvetica,sans-Serif" font-size="10.00">::on_btnAdd_clicked</text>
</a>
</g>
</g>
<!-- Node2 -->
<g id="Node000002" class="node">
<title>Node2</title>
<g id="a_Node000002"><a xlink:href="../../d6/de4/group___ui-_functions.html#gaa5f72842768883e8c2e29a8a54c74fe4" target="_top" xlink:title="Assigns the inputs.">
<polygon fill="white" stroke="#666666" points="302,-104 169,-104 169,-72 302,-72 302,-104"/>
<text text-anchor="start" x="177" y="-90.5" font-family="Helvetica,sans-Serif" font-size="10.00">AposFrontend::DevWindow</text>
<text text-anchor="middle" x="235.5" y="-78.5" font-family="Helvetica,sans-Serif" font-size="10.00">::assignInputs</text>
</a>
</g>
</g>
<!-- Node1&#45;&gt;Node2 -->
<g id="edge1_Node000001_Node000002" class="edge">
<title>Node1&#45;&gt;Node2</title>
<g id="a_edge1_Node000001_Node000002"><a xlink:title=" ">
<path fill="none" stroke="#63b8ff" d="M122.18,-54.37C136.96,-58.8 153.1,-63.63 168.43,-68.22"/>
<polygon fill="#63b8ff" stroke="#63b8ff" points="167.38,-71.56 177.96,-71.07 169.38,-64.85 167.38,-71.56"/>
</a>
</g>
</g>
<!-- Node3 -->
<g id="Node000003" class="node">
<title>Node3</title>
<g id="a_Node000003"><a xlink:href="../../d6/de4/group___ui-_functions.html#ga03c2171905116230d3f05e1cdebb9b06" target="_top" xlink:title="Clears the inputs.">
<polygon fill="white" stroke="#666666" points="302,-54 169,-54 169,-22 302,-22 302,-54"/>
<text text-anchor="start" x="177" y="-40.5" font-family="Helvetica,sans-Serif" font-size="10.00">AposFrontend::DevWindow</text>
<text text-anchor="middle" x="235.5" y="-28.5" font-family="Helvetica,sans-Serif" font-size="10.00">::clearInputs</text>
</a>
</g>
</g>
<!-- Node1&#45;&gt;Node3 -->
<g id="edge2_Node000001_Node000003" class="edge">
<title>Node1&#45;&gt;Node3</title>
<g id="a_edge2_Node000001_Node000003"><a xlink:title=" ">
<path fill="none" stroke="#63b8ff" d="M133.02,-38C140.97,-38 149.15,-38 157.25,-38"/>
<polygon fill="#63b8ff" stroke="#63b8ff" points="157.1,-41.5 167.1,-38 157.1,-34.5 157.1,-41.5"/>
</a>
</g>
</g>
<!-- Node4 -->
<g id="Node000004" class="node">
<title>Node4</title>
<g id="a_Node000004"><a xlink:href="../../dc/dc2/class_apos_frontend_1_1_dev_window.html#a6e2ecb7e3fd65aefc8ed62fc9f1519e9" target="_top" xlink:title="Logs an event with a type and a message.">
<polygon fill="white" stroke="#666666" points="471,-32 338,-32 338,0 471,0 471,-32"/>
<text text-anchor="start" x="346" y="-18.5" font-family="Helvetica,sans-Serif" font-size="10.00">AposFrontend::DevWindow</text>
<text text-anchor="middle" x="404.5" y="-6.5" font-family="Helvetica,sans-Serif" font-size="10.00">::logEvent</text>
</a>
</g>
</g>
<!-- Node1&#45;&gt;Node4 -->
<g id="edge4_Node000001_Node000004" class="edge">
<title>Node1&#45;&gt;Node4</title>
<g id="a_edge4_Node000001_Node000004"><a xlink:title=" ">
<path fill="none" stroke="#63b8ff" d="M123.96,-21.54C138.5,-18 154.23,-14.79 169,-13 221.17,-6.67 280.33,-7.49 326.19,-9.85"/>
<polygon fill="#63b8ff" stroke="#63b8ff" points="325.86,-13.34 336.03,-10.4 326.24,-6.35 325.86,-13.34"/>
</a>
</g>
</g>
<!-- Node3&#45;&gt;Node4 -->
<g id="edge3_Node000003_Node000004" class="edge">
<title>Node3&#45;&gt;Node4</title>
<g id="a_edge3_Node000003_Node000004"><a xlink:title=" ">
<path fill="none" stroke="#63b8ff" d="M302.02,-29.37C309.97,-28.32 318.15,-27.24 326.25,-26.18"/>
<polygon fill="#63b8ff" stroke="#63b8ff" points="326.66,-29.65 336.12,-24.88 325.74,-22.71 326.66,-29.65"/>
</a>
</g>
</g>
</g>
</svg>
