<?xml version="1.0" encoding="UTF-8" standalone="no"?>
<!DOCTYPE svg PUBLIC "-//W3C//DTD SVG 1.1//EN"
 "http://www.w3.org/Graphics/SVG/1.1/DTD/svg11.dtd">
<!-- Generated by graphviz version 9.0.0 (20230911.1827)
 -->
<!-- Title: AposFrontend::DevWindow::clearInputsAfterInsertStateChanged Pages: 1 -->
<svg width="483pt" height="68pt"
 viewBox="0.00 0.00 482.75 68.00" xmlns="http://www.w3.org/2000/svg" xmlns:xlink="http://www.w3.org/1999/xlink">
<g id="graph0" class="graph" transform="scale(1 1) rotate(0) translate(4 64)">
<title>AposFrontend::DevWindow::clearInputsAfterInsertStateChanged</title>
<!-- Node1 -->
<g id="Node000001" class="node">
<title>Node1</title>
<g id="a_Node000001"><a xlink:title="Slot for the &#39;clearInputsAfterInsert&#39; state change event.">
<polygon fill="#999999" stroke="#666666" points="136.75,-44 0,-44 0,0 136.75,0 136.75,-44"/>
<text text-anchor="start" x="8" y="-30.5" font-family="Helvetica,sans-Serif" font-size="10.00">AposFrontend::DevWindow</text>
<text text-anchor="start" x="8" y="-18.5" font-family="Helvetica,sans-Serif" font-size="10.00">::clearInputsAfterInsertState</text>
<text text-anchor="middle" x="68.38" y="-6.5" font-family="Helvetica,sans-Serif" font-size="10.00">Changed</text>
</a>
</g>
</g>
<!-- Node2 -->
<g id="Node000002" class="node">
<title>Node2</title>
<g id="a_Node000002"><a xlink:href="../../d6/de4/group___ui-_functions.html#ga967ec97cb7b88eeb89c2ef45f68763a6" target="_top" xlink:title="Checks a checkbox.">
<polygon fill="white" stroke="#666666" points="305.75,-60 172.75,-60 172.75,-28 305.75,-28 305.75,-60"/>
<text text-anchor="start" x="180.75" y="-46.5" font-family="Helvetica,sans-Serif" font-size="10.00">AposFrontend::DevWindow</text>
<text text-anchor="middle" x="239.25" y="-34.5" font-family="Helvetica,sans-Serif" font-size="10.00">::checkCheckbox</text>
</a>
</g>
</g>
<!-- Node1&#45;&gt;Node2 -->
<g id="edge1_Node000001_Node000002" class="edge">
<title>Node1&#45;&gt;Node2</title>
<g id="a_edge1_Node000001_Node000002"><a xlink:title=" ">
<path fill="none" stroke="#63b8ff" d="M137.09,-30.82C145.01,-31.85 153.14,-32.91 161.17,-33.96"/>
<polygon fill="#63b8ff" stroke="#63b8ff" points="160.57,-37.41 170.94,-35.23 161.48,-30.47 160.57,-37.41"/>
</a>
</g>
</g>
<!-- Node3 -->
<g id="Node000003" class="node">
<title>Node3</title>
<g id="a_Node000003"><a xlink:href="../../dc/dc2/class_apos_frontend_1_1_dev_window.html#a6e2ecb7e3fd65aefc8ed62fc9f1519e9" target="_top" xlink:title="Logs an event with a type and a message.">
<polygon fill="white" stroke="#666666" points="474.75,-38 341.75,-38 341.75,-6 474.75,-6 474.75,-38"/>
<text text-anchor="start" x="349.75" y="-24.5" font-family="Helvetica,sans-Serif" font-size="10.00">AposFrontend::DevWindow</text>
<text text-anchor="middle" x="408.25" y="-12.5" font-family="Helvetica,sans-Serif" font-size="10.00">::logEvent</text>
</a>
</g>
</g>
<!-- Node1&#45;&gt;Node3 -->
<g id="edge3_Node000001_Node000003" class="edge">
<title>Node1&#45;&gt;Node3</title>
<g id="a_edge3_Node000001_Node000003"><a xlink:title=" ">
<path fill="none" stroke="#63b8ff" d="M137.21,-19.75C149.05,-19.44 161.26,-19.17 172.75,-19 231.85,-18.14 246.65,-18.13 305.75,-19 313.6,-19.12 321.79,-19.28 329.96,-19.48"/>
<polygon fill="#63b8ff" stroke="#63b8ff" points="329.86,-22.98 339.95,-19.73 330.04,-15.98 329.86,-22.98"/>
</a>
</g>
</g>
<!-- Node2&#45;&gt;Node3 -->
<g id="edge2_Node000002_Node000003" class="edge">
<title>Node2&#45;&gt;Node3</title>
<g id="a_edge2_Node000002_Node000003"><a xlink:title=" ">
<path fill="none" stroke="#63b8ff" d="M305.77,-35.37C313.72,-34.32 321.9,-33.24 330,-32.18"/>
<polygon fill="#63b8ff" stroke="#63b8ff" points="330.41,-35.65 339.87,-30.88 329.49,-28.71 330.41,-35.65"/>
</a>
</g>
</g>
</g>
</svg>
