<?xml version="1.0" encoding="UTF-8" standalone="no"?>
<!DOCTYPE svg PUBLIC "-//W3C//DTD SVG 1.1//EN"
 "http://www.w3.org/Graphics/SVG/1.1/DTD/svg11.dtd">
<!-- Generated by graphviz version 9.0.0 (20230911.1827)
 -->
<!-- Title: AposFrontend::DevWindow::updateTableClicked Pages: 1 -->
<svg xmlns:xlink="http://www.w3.org/1999/xlink" width="310pt"
 height="90pt" viewBox="0.00 0.00 310.00 90.00" xmlns="http://www.w3.org/2000/svg">
<g id="graph0" class="graph" transform="scale(1 1) rotate(0) translate(4 86)">
<title>AposFrontend::DevWindow::updateTableClicked</title>
<!-- Node1 -->
<g id="Node000001" class="node">
<title>Node1</title>
<g id="a_Node000001"><a xlink:title="Slot for the &#39;Update&#39; button click event.">
<polygon fill="#999999" stroke="#666666" points="133,-57 0,-57 0,-25 133,-25 133,-57"/>
<text text-anchor="start" x="8" y="-43.5" font-family="Helvetica,sans-Serif" font-size="10.00">AposFrontend::DevWindow</text>
<text text-anchor="middle" x="66.5" y="-31.5" font-family="Helvetica,sans-Serif" font-size="10.00">::updateTableClicked</text>
</a>
</g>
</g>
<!-- Node2 -->
<g id="Node000002" class="node">
<title>Node2</title>
<g id="a_Node000002"><a xlink:href="../../dc/dc2/class_apos_frontend_1_1_dev_window.html#a6e2ecb7e3fd65aefc8ed62fc9f1519e9" target="_top" xlink:title="Logs an event with a type and a message.">
<polygon fill="white" stroke="#666666" points="302,-82 169,-82 169,-50 302,-50 302,-82"/>
<text text-anchor="start" x="177" y="-68.5" font-family="Helvetica,sans-Serif" font-size="10.00">AposFrontend::DevWindow</text>
<text text-anchor="middle" x="235.5" y="-56.5" font-family="Helvetica,sans-Serif" font-size="10.00">::logEvent</text>
</a>
</g>
</g>
<!-- Node1&#45;&gt;Node2 -->
<g id="edge1_Node000001_Node000002" class="edge">
<title>Node1&#45;&gt;Node2</title>
<g id="a_edge1_Node000001_Node000002"><a xlink:title=" ">
<path fill="none" stroke="#63b8ff" d="M133.02,-50.81C140.97,-52 149.15,-53.22 157.25,-54.44"/>
<polygon fill="#63b8ff" stroke="#63b8ff" points="156.71,-57.89 167.12,-55.91 157.75,-50.97 156.71,-57.89"/>
</a>
</g>
</g>
<!-- Node3 -->
<g id="Node000003" class="node">
<title>Node3</title>
<g id="a_Node000003"><a xlink:href="../../dd/d44/group___database-_functions.html#ga9f30984f5b6e7ee6061ea5107c79eb33" target="_top" xlink:title="Sets the model views.">
<polygon fill="white" stroke="#666666" points="302,-32 169,-32 169,0 302,0 302,-32"/>
<text text-anchor="start" x="177" y="-18.5" font-family="Helvetica,sans-Serif" font-size="10.00">AposFrontend::DevWindow</text>
<text text-anchor="middle" x="235.5" y="-6.5" font-family="Helvetica,sans-Serif" font-size="10.00">::setModelViews</text>
</a>
</g>
</g>
<!-- Node1&#45;&gt;Node3 -->
<g id="edge2_Node000001_Node000003" class="edge">
<title>Node1&#45;&gt;Node3</title>
<g id="a_edge2_Node000001_Node000003"><a xlink:title=" ">
<path fill="none" stroke="#63b8ff" d="M133.02,-31.19C140.97,-30 149.15,-28.78 157.25,-27.56"/>
<polygon fill="#63b8ff" stroke="#63b8ff" points="157.75,-31.03 167.12,-26.09 156.71,-24.11 157.75,-31.03"/>
</a>
</g>
</g>
</g>
</svg>
