<?xml version="1.0" encoding="UTF-8" standalone="no"?>
<!DOCTYPE svg PUBLIC "-//W3C//DTD SVG 1.1//EN"
 "http://www.w3.org/Graphics/SVG/1.1/DTD/svg11.dtd">
<!-- Generated by graphviz version 9.0.0 (20230911.1827)
 -->
<!-- Title: AposFrontend::DevWindow::clearCommandAfterExecuteStateChanged Pages: 1 -->
<svg width="513pt" height="52pt"
 viewBox="0.00 0.00 512.75 52.00" xmlns="http://www.w3.org/2000/svg" xmlns:xlink="http://www.w3.org/1999/xlink">
<g id="graph0" class="graph" transform="scale(1 1) rotate(0) translate(4 48)">
<title>AposFrontend::DevWindow::clearCommandAfterExecuteStateChanged</title>
<!-- Node1 -->
<g id="Node000001" class="node">
<title>Node1</title>
<g id="a_Node000001"><a xlink:title="Slot for the &#39;clearCommandAfterExecute&#39; state change event.">
<polygon fill="#999999" stroke="#666666" points="504.75,-44 338,-44 338,0 504.75,0 504.75,-44"/>
<text text-anchor="start" x="346" y="-30.5" font-family="Helvetica,sans-Serif" font-size="10.00">AposFrontend::DevWindow</text>
<text text-anchor="start" x="346" y="-18.5" font-family="Helvetica,sans-Serif" font-size="10.00">::clearCommandAfterExecuteState</text>
<text text-anchor="middle" x="421.38" y="-6.5" font-family="Helvetica,sans-Serif" font-size="10.00">Changed</text>
</a>
</g>
</g>
<!-- Node2 -->
<g id="Node000002" class="node">
<title>Node2</title>
<g id="a_Node000002"><a xlink:href="../../dc/dc2/class_apos_frontend_1_1_dev_window.html#a23ebf9d4eb49ee75ff31618f545b8f98" target="_top" xlink:title=" ">
<polygon fill="white" stroke="#666666" points="302,-38 169,-38 169,-6 302,-6 302,-38"/>
<text text-anchor="start" x="177" y="-24.5" font-family="Helvetica,sans-Serif" font-size="10.00">AposFrontend::DevWindow</text>
<text text-anchor="middle" x="235.5" y="-12.5" font-family="Helvetica,sans-Serif" font-size="10.00">::devConnectUi</text>
</a>
</g>
</g>
<!-- Node1&#45;&gt;Node2 -->
<g id="edge1_Node000001_Node000002" class="edge">
<title>Node1&#45;&gt;Node2</title>
<g id="a_edge1_Node000001_Node000002"><a xlink:title=" ">
<path fill="none" stroke="#63b8ff" d="M326.19,-22C318.12,-22 310.08,-22 302.3,-22"/>
<polygon fill="#63b8ff" stroke="#63b8ff" points="326.07,-25.5 336.07,-22 326.07,-18.5 326.07,-25.5"/>
</a>
</g>
</g>
<!-- Node3 -->
<g id="Node000003" class="node">
<title>Node3</title>
<g id="a_Node000003"><a xlink:href="../../d3/dbc/group___constructructors-_destructors.html#gafa7c4dab5fd2d00d38e0b3f3929978e7" target="_top" xlink:title="Constructor for the DevWindow class.">
<polygon fill="white" stroke="#666666" points="133,-38 0,-38 0,-6 133,-6 133,-38"/>
<text text-anchor="start" x="8" y="-24.5" font-family="Helvetica,sans-Serif" font-size="10.00">AposFrontend::DevWindow</text>
<text text-anchor="middle" x="66.5" y="-12.5" font-family="Helvetica,sans-Serif" font-size="10.00">::DevWindow</text>
</a>
</g>
</g>
<!-- Node2&#45;&gt;Node3 -->
<g id="edge2_Node000002_Node000003" class="edge">
<title>Node2&#45;&gt;Node3</title>
<g id="a_edge2_Node000002_Node000003"><a xlink:title=" ">
<path fill="none" stroke="#63b8ff" d="M157.62,-22C149.52,-22 141.34,-22 133.38,-22"/>
<polygon fill="#63b8ff" stroke="#63b8ff" points="157.46,-25.5 167.46,-22 157.46,-18.5 157.46,-25.5"/>
</a>
</g>
</g>
</g>
</svg>
