<?xml version="1.0" encoding="UTF-8" standalone="no"?>
<!DOCTYPE svg PUBLIC "-//W3C//DTD SVG 1.1//EN"
 "http://www.w3.org/Graphics/SVG/1.1/DTD/svg11.dtd">
<!-- Generated by graphviz version 9.0.0 (20230911.1827)
 -->
<!-- Title: AposFrontend::DevWindow::clearCommandAfterExecuteStateChanged Pages: 1 -->
<svg width="513pt" height="68pt"
 viewBox="0.00 0.00 512.75 68.00" xmlns="http://www.w3.org/2000/svg" xmlns:xlink="http://www.w3.org/1999/xlink">
<g id="graph0" class="graph" transform="scale(1 1) rotate(0) translate(4 64)">
<title>AposFrontend::DevWindow::clearCommandAfterExecuteStateChanged</title>
<!-- Node1 -->
<g id="Node000001" class="node">
<title>Node1</title>
<g id="a_Node000001"><a xlink:title="Slot for the &#39;clearCommandAfterExecute&#39; state change event.">
<polygon fill="#999999" stroke="#666666" points="166.75,-44 0,-44 0,0 166.75,0 166.75,-44"/>
<text text-anchor="start" x="8" y="-30.5" font-family="Helvetica,sans-Serif" font-size="10.00">AposFrontend::DevWindow</text>
<text text-anchor="start" x="8" y="-18.5" font-family="Helvetica,sans-Serif" font-size="10.00">::clearCommandAfterExecuteState</text>
<text text-anchor="middle" x="83.38" y="-6.5" font-family="Helvetica,sans-Serif" font-size="10.00">Changed</text>
</a>
</g>
</g>
<!-- Node2 -->
<g id="Node000002" class="node">
<title>Node2</title>
<g id="a_Node000002"><a xlink:href="../../d6/de4/group___ui-_functions.html#ga967ec97cb7b88eeb89c2ef45f68763a6" target="_top" xlink:title="Checks a checkbox.">
<polygon fill="white" stroke="#666666" points="335.75,-60 202.75,-60 202.75,-28 335.75,-28 335.75,-60"/>
<text text-anchor="start" x="210.75" y="-46.5" font-family="Helvetica,sans-Serif" font-size="10.00">AposFrontend::DevWindow</text>
<text text-anchor="middle" x="269.25" y="-34.5" font-family="Helvetica,sans-Serif" font-size="10.00">::checkCheckbox</text>
</a>
</g>
</g>
<!-- Node1&#45;&gt;Node2 -->
<g id="edge1_Node000001_Node000002" class="edge">
<title>Node1&#45;&gt;Node2</title>
<g id="a_edge1_Node000001_Node000002"><a xlink:title=" ">
<path fill="none" stroke="#63b8ff" d="M167.17,-31.91C175.11,-32.86 183.14,-33.82 191.03,-34.76"/>
<polygon fill="#63b8ff" stroke="#63b8ff" points="190.6,-38.23 200.94,-35.95 191.43,-31.28 190.6,-38.23"/>
</a>
</g>
</g>
<!-- Node3 -->
<g id="Node000003" class="node">
<title>Node3</title>
<g id="a_Node000003"><a xlink:href="../../dc/dc2/class_apos_frontend_1_1_dev_window.html#a6e2ecb7e3fd65aefc8ed62fc9f1519e9" target="_top" xlink:title="Logs an event with a type and a message.">
<polygon fill="white" stroke="#666666" points="504.75,-38 371.75,-38 371.75,-6 504.75,-6 504.75,-38"/>
<text text-anchor="start" x="379.75" y="-24.5" font-family="Helvetica,sans-Serif" font-size="10.00">AposFrontend::DevWindow</text>
<text text-anchor="middle" x="438.25" y="-12.5" font-family="Helvetica,sans-Serif" font-size="10.00">::logEvent</text>
</a>
</g>
</g>
<!-- Node1&#45;&gt;Node3 -->
<g id="edge3_Node000001_Node000003" class="edge">
<title>Node1&#45;&gt;Node3</title>
<g id="a_edge3_Node000001_Node000003"><a xlink:title=" ">
<path fill="none" stroke="#63b8ff" d="M167.16,-19.63C179.1,-19.37 191.24,-19.15 202.75,-19 261.86,-18.25 276.65,-18.13 335.75,-19 343.6,-19.12 351.79,-19.28 359.96,-19.48"/>
<polygon fill="#63b8ff" stroke="#63b8ff" points="359.86,-22.98 369.95,-19.73 360.04,-15.98 359.86,-22.98"/>
</a>
</g>
</g>
<!-- Node2&#45;&gt;Node3 -->
<g id="edge2_Node000002_Node000003" class="edge">
<title>Node2&#45;&gt;Node3</title>
<g id="a_edge2_Node000002_Node000003"><a xlink:title=" ">
<path fill="none" stroke="#63b8ff" d="M335.77,-35.37C343.72,-34.32 351.9,-33.24 360,-32.18"/>
<polygon fill="#63b8ff" stroke="#63b8ff" points="360.41,-35.65 369.87,-30.88 359.49,-28.71 360.41,-35.65"/>
</a>
</g>
</g>
</g>
</svg>
