<?xml version="1.0" encoding="UTF-8" standalone="no"?>
<!DOCTYPE svg PUBLIC "-//W3C//DTD SVG 1.1//EN"
 "http://www.w3.org/Graphics/SVG/1.1/DTD/svg11.dtd">
<!-- Generated by graphviz version 9.0.0 (20230911.1827)
 -->
<!-- Title: AposFrontend::SettingsWindow::applyClicked Pages: 1 -->
<svg width="351pt" height="90pt"
 viewBox="0.00 0.00 350.50 90.00" xmlns="http://www.w3.org/2000/svg" xmlns:xlink="http://www.w3.org/1999/xlink">
<g id="graph0" class="graph" transform="scale(1 1) rotate(0) translate(4 86)">
<title>AposFrontend::SettingsWindow::applyClicked</title>
<!-- Node1 -->
<g id="Node000001" class="node">
<title>Node1</title>
<g id="a_Node000001"><a xlink:title="Slot for the &#39;Apply&#39; button click event.">
<polygon fill="#999999" stroke="#666666" points="153.25,-57 0,-57 0,-25 153.25,-25 153.25,-57"/>
<text text-anchor="start" x="8" y="-43.5" font-family="Helvetica,sans-Serif" font-size="10.00">AposFrontend::SettingsWindow</text>
<text text-anchor="middle" x="76.62" y="-31.5" font-family="Helvetica,sans-Serif" font-size="10.00">::applyClicked</text>
</a>
</g>
</g>
<!-- Node2 -->
<g id="Node000002" class="node">
<title>Node2</title>
<g id="a_Node000002"><a xlink:href="../../d7/d58/group___signal-_funtions.html#gaa502afe63303465922a81ff95f482b8e" target="_top" xlink:title="Signal for applying settings.">
<polygon fill="white" stroke="#666666" points="342.5,-82 189.25,-82 189.25,-50 342.5,-50 342.5,-82"/>
<text text-anchor="start" x="197.25" y="-68.5" font-family="Helvetica,sans-Serif" font-size="10.00">AposFrontend::SettingsWindow</text>
<text text-anchor="middle" x="265.88" y="-56.5" font-family="Helvetica,sans-Serif" font-size="10.00">::appliedSettings</text>
</a>
</g>
</g>
<!-- Node1&#45;&gt;Node2 -->
<g id="edge1_Node000001_Node000002" class="edge">
<title>Node1&#45;&gt;Node2</title>
<g id="a_edge1_Node000001_Node000002"><a xlink:title=" ">
<path fill="none" stroke="#63b8ff" d="M153.52,-51.13C161.44,-52.19 169.54,-53.27 177.58,-54.34"/>
<polygon fill="#63b8ff" stroke="#63b8ff" points="177,-57.8 187.37,-55.65 177.93,-50.86 177,-57.8"/>
</a>
</g>
</g>
<!-- Node3 -->
<g id="Node000003" class="node">
<title>Node3</title>
<g id="a_Node000003"><a xlink:href="../../de/dc6/group___initialization.html#ga49b8895cc4133ac81bd799854b3515b6" target="_top" xlink:title="Installs the application&#39;s translator.">
<polygon fill="white" stroke="#666666" points="342.5,-32 189.25,-32 189.25,0 342.5,0 342.5,-32"/>
<text text-anchor="start" x="197.25" y="-18.5" font-family="Helvetica,sans-Serif" font-size="10.00">AposFrontend::SettingsWindow</text>
<text text-anchor="middle" x="265.88" y="-6.5" font-family="Helvetica,sans-Serif" font-size="10.00">::installTranslator</text>
</a>
</g>
</g>
<!-- Node1&#45;&gt;Node3 -->
<g id="edge2_Node000001_Node000003" class="edge">
<title>Node1&#45;&gt;Node3</title>
<g id="a_edge2_Node000001_Node000003"><a xlink:title=" ">
<path fill="none" stroke="#63b8ff" d="M153.52,-30.87C161.44,-29.81 169.54,-28.73 177.58,-27.66"/>
<polygon fill="#63b8ff" stroke="#63b8ff" points="177.93,-31.14 187.37,-26.35 177,-24.2 177.93,-31.14"/>
</a>
</g>
</g>
</g>
</svg>
