<?xml version="1.0" encoding="UTF-8" standalone="no"?>
<!DOCTYPE svg PUBLIC "-//W3C//DTD SVG 1.1//EN"
 "http://www.w3.org/Graphics/SVG/1.1/DTD/svg11.dtd">
<!-- Generated by graphviz version 9.0.0 (20230911.1827)
 -->
<!-- Title: AposFrontend::DevWindow::on_btnCloseDB_clicked Pages: 1 -->
<svg xmlns:xlink="http://www.w3.org/1999/xlink" width="479pt"
 height="140pt" viewBox="0.00 0.00 479.00 140.00" xmlns="http://www.w3.org/2000/svg">
<g id="graph0" class="graph" transform="scale(1 1) rotate(0) translate(4 136)">
<title>AposFrontend::DevWindow::on_btnCloseDB_clicked</title>
<!-- Node1 -->
<g id="Node000001" class="node">
<title>Node1</title>
<g id="a_Node000001"><a xlink:title="Slot for the &#39;CloseDB&#39; button click event.">
<polygon fill="#999999" stroke="#666666" points="133,-82 0,-82 0,-50 133,-50 133,-82"/>
<text text-anchor="start" x="8" y="-68.5" font-family="Helvetica,sans-Serif" font-size="10.00">AposFrontend::DevWindow</text>
<text text-anchor="middle" x="66.5" y="-56.5" font-family="Helvetica,sans-Serif" font-size="10.00">::on_btnCloseDB_clicked</text>
</a>
</g>
</g>
<!-- Node2 -->
<g id="Node000002" class="node">
<title>Node2</title>
<g id="a_Node000002"><a xlink:href="../../dd/d44/group___database-_functions.html#gaab8300a6ed941015a4c5e1d1c68335e3" target="_top" xlink:title="Closes the database.">
<polygon fill="white" stroke="#666666" points="302,-132 169,-132 169,-100 302,-100 302,-132"/>
<text text-anchor="start" x="177" y="-118.5" font-family="Helvetica,sans-Serif" font-size="10.00">AposFrontend::DevWindow</text>
<text text-anchor="middle" x="235.5" y="-106.5" font-family="Helvetica,sans-Serif" font-size="10.00">::closeDatabase</text>
</a>
</g>
</g>
<!-- Node1&#45;&gt;Node2 -->
<g id="edge1_Node000001_Node000002" class="edge">
<title>Node1&#45;&gt;Node2</title>
<g id="a_edge1_Node000001_Node000002"><a xlink:title=" ">
<path fill="none" stroke="#63b8ff" d="M122.18,-82.37C136.96,-86.8 153.1,-91.63 168.43,-96.22"/>
<polygon fill="#63b8ff" stroke="#63b8ff" points="167.38,-99.56 177.96,-99.07 169.38,-92.85 167.38,-99.56"/>
</a>
</g>
</g>
<!-- Node4 -->
<g id="Node000004" class="node">
<title>Node4</title>
<g id="a_Node000004"><a xlink:href="../../d6/de4/group___ui-_functions.html#gad74b5ca7c247820a938dbdf20f1e8f8c" target="_top" xlink:title="Enables or disables the buttons.">
<polygon fill="white" stroke="#666666" points="302,-82 169,-82 169,-50 302,-50 302,-82"/>
<text text-anchor="start" x="177" y="-68.5" font-family="Helvetica,sans-Serif" font-size="10.00">AposFrontend::DevWindow</text>
<text text-anchor="middle" x="235.5" y="-56.5" font-family="Helvetica,sans-Serif" font-size="10.00">::enableButtons</text>
</a>
</g>
</g>
<!-- Node1&#45;&gt;Node4 -->
<g id="edge3_Node000001_Node000004" class="edge">
<title>Node1&#45;&gt;Node4</title>
<g id="a_edge3_Node000001_Node000004"><a xlink:title=" ">
<path fill="none" stroke="#63b8ff" d="M133.02,-66C140.97,-66 149.15,-66 157.25,-66"/>
<polygon fill="#63b8ff" stroke="#63b8ff" points="157.1,-69.5 167.1,-66 157.1,-62.5 157.1,-69.5"/>
</a>
</g>
</g>
<!-- Node5 -->
<g id="Node000005" class="node">
<title>Node5</title>
<g id="a_Node000005"><a xlink:href="../../dd/d44/group___database-_functions.html#ga9f30984f5b6e7ee6061ea5107c79eb33" target="_top" xlink:title="Sets the model views.">
<polygon fill="white" stroke="#666666" points="302,-32 169,-32 169,0 302,0 302,-32"/>
<text text-anchor="start" x="177" y="-18.5" font-family="Helvetica,sans-Serif" font-size="10.00">AposFrontend::DevWindow</text>
<text text-anchor="middle" x="235.5" y="-6.5" font-family="Helvetica,sans-Serif" font-size="10.00">::setModelViews</text>
</a>
</g>
</g>
<!-- Node1&#45;&gt;Node5 -->
<g id="edge5_Node000001_Node000005" class="edge">
<title>Node1&#45;&gt;Node5</title>
<g id="a_edge5_Node000001_Node000005"><a xlink:title=" ">
<path fill="none" stroke="#63b8ff" d="M122.18,-49.63C136.96,-45.2 153.1,-40.37 168.43,-35.78"/>
<polygon fill="#63b8ff" stroke="#63b8ff" points="169.38,-39.15 177.96,-32.93 167.38,-32.44 169.38,-39.15"/>
</a>
</g>
</g>
<!-- Node3 -->
<g id="Node000003" class="node">
<title>Node3</title>
<g id="a_Node000003"><a xlink:href="../../dc/dc2/class_apos_frontend_1_1_dev_window.html#a6e2ecb7e3fd65aefc8ed62fc9f1519e9" target="_top" xlink:title="Logs an event with a type and a message.">
<polygon fill="white" stroke="#666666" points="471,-107 338,-107 338,-75 471,-75 471,-107"/>
<text text-anchor="start" x="346" y="-93.5" font-family="Helvetica,sans-Serif" font-size="10.00">AposFrontend::DevWindow</text>
<text text-anchor="middle" x="404.5" y="-81.5" font-family="Helvetica,sans-Serif" font-size="10.00">::logEvent</text>
</a>
</g>
</g>
<!-- Node2&#45;&gt;Node3 -->
<g id="edge2_Node000002_Node000003" class="edge">
<title>Node2&#45;&gt;Node3</title>
<g id="a_edge2_Node000002_Node000003"><a xlink:title=" ">
<path fill="none" stroke="#63b8ff" d="M302.02,-106.19C309.97,-105 318.15,-103.78 326.25,-102.56"/>
<polygon fill="#63b8ff" stroke="#63b8ff" points="326.75,-106.03 336.12,-101.09 325.71,-99.11 326.75,-106.03"/>
</a>
</g>
</g>
<!-- Node4&#45;&gt;Node3 -->
<g id="edge4_Node000004_Node000003" class="edge">
<title>Node4&#45;&gt;Node3</title>
<g id="a_edge4_Node000004_Node000003"><a xlink:title=" ">
<path fill="none" stroke="#63b8ff" d="M302.02,-75.81C309.97,-77 318.15,-78.22 326.25,-79.44"/>
<polygon fill="#63b8ff" stroke="#63b8ff" points="325.71,-82.89 336.12,-80.91 326.75,-75.97 325.71,-82.89"/>
</a>
</g>
</g>
</g>
</svg>
