<?xml version="1.0" encoding="UTF-8" standalone="no"?>
<!DOCTYPE svg PUBLIC "-//W3C//DTD SVG 1.1//EN"
 "http://www.w3.org/Graphics/SVG/1.1/DTD/svg11.dtd">
<!-- Generated by graphviz version 9.0.0 (20230911.1827)
 -->
<!-- Title: AposFrontend::DevWindow::on_clearInputsAfterInsert_stateChanged Pages: 1 -->
<svg xmlns:xlink="http://www.w3.org/1999/xlink" width="479pt"
 height="68pt" viewBox="0.00 0.00 479.00 68.00" xmlns="http://www.w3.org/2000/svg">
<g id="graph0" class="graph" transform="scale(1 1) rotate(0) translate(4 64)">
<title>AposFrontend::DevWindow::on_clearInputsAfterInsert_stateChanged</title>
<!-- Node1 -->
<g id="Node000001" class="node">
<title>Node1</title>
<g id="a_Node000001"><a xlink:title="Slot for the &#39;clearInputsAfterInsert&#39; state change event.">
<polygon fill="#999999" stroke="#666666" points="133,-44 0,-44 0,0 133,0 133,-44"/>
<text text-anchor="start" x="8" y="-30.5" font-family="Helvetica,sans-Serif" font-size="10.00">AposFrontend::DevWindow</text>
<text text-anchor="start" x="8" y="-18.5" font-family="Helvetica,sans-Serif" font-size="10.00">::on_clearInputsAfterInsert</text>
<text text-anchor="middle" x="66.5" y="-6.5" font-family="Helvetica,sans-Serif" font-size="10.00">_stateChanged</text>
</a>
</g>
</g>
<!-- Node2 -->
<g id="Node000002" class="node">
<title>Node2</title>
<g id="a_Node000002"><a xlink:href="../../d6/de4/group___ui-_functions.html#ga967ec97cb7b88eeb89c2ef45f68763a6" target="_top" xlink:title="Checks a checkbox.">
<polygon fill="white" stroke="#666666" points="302,-60 169,-60 169,-28 302,-28 302,-60"/>
<text text-anchor="start" x="177" y="-46.5" font-family="Helvetica,sans-Serif" font-size="10.00">AposFrontend::DevWindow</text>
<text text-anchor="middle" x="235.5" y="-34.5" font-family="Helvetica,sans-Serif" font-size="10.00">::checkCheckbox</text>
</a>
</g>
</g>
<!-- Node1&#45;&gt;Node2 -->
<g id="edge1_Node000001_Node000002" class="edge">
<title>Node1&#45;&gt;Node2</title>
<g id="a_edge1_Node000001_Node000002"><a xlink:title=" ">
<path fill="none" stroke="#63b8ff" d="M133.02,-30.63C140.97,-31.68 149.15,-32.76 157.25,-33.82"/>
<polygon fill="#63b8ff" stroke="#63b8ff" points="156.74,-37.29 167.12,-35.12 157.66,-30.35 156.74,-37.29"/>
</a>
</g>
</g>
<!-- Node3 -->
<g id="Node000003" class="node">
<title>Node3</title>
<g id="a_Node000003"><a xlink:href="../../dc/dc2/class_apos_frontend_1_1_dev_window.html#a6e2ecb7e3fd65aefc8ed62fc9f1519e9" target="_top" xlink:title="Logs an event with a type and a message.">
<polygon fill="white" stroke="#666666" points="471,-38 338,-38 338,-6 471,-6 471,-38"/>
<text text-anchor="start" x="346" y="-24.5" font-family="Helvetica,sans-Serif" font-size="10.00">AposFrontend::DevWindow</text>
<text text-anchor="middle" x="404.5" y="-12.5" font-family="Helvetica,sans-Serif" font-size="10.00">::logEvent</text>
</a>
</g>
</g>
<!-- Node1&#45;&gt;Node3 -->
<g id="edge3_Node000001_Node000003" class="edge">
<title>Node1&#45;&gt;Node3</title>
<g id="a_edge3_Node000001_Node000003"><a xlink:title=" ">
<path fill="none" stroke="#63b8ff" d="M133.29,-19.77C145.17,-19.45 157.45,-19.17 169,-19 228.1,-18.13 242.9,-18.13 302,-19 309.85,-19.12 318.04,-19.28 326.21,-19.48"/>
<polygon fill="#63b8ff" stroke="#63b8ff" points="326.11,-22.98 336.2,-19.73 326.29,-15.98 326.11,-22.98"/>
</a>
</g>
</g>
<!-- Node2&#45;&gt;Node3 -->
<g id="edge2_Node000002_Node000003" class="edge">
<title>Node2&#45;&gt;Node3</title>
<g id="a_edge2_Node000002_Node000003"><a xlink:title=" ">
<path fill="none" stroke="#63b8ff" d="M302.02,-35.37C309.97,-34.32 318.15,-33.24 326.25,-32.18"/>
<polygon fill="#63b8ff" stroke="#63b8ff" points="326.66,-35.65 336.12,-30.88 325.74,-28.71 326.66,-35.65"/>
</a>
</g>
</g>
</g>
</svg>
