<?xml version="1.0" encoding="UTF-8" standalone="no"?>
<!DOCTYPE svg PUBLIC "-//W3C//DTD SVG 1.1//EN"
 "http://www.w3.org/Graphics/SVG/1.1/DTD/svg11.dtd">
<!-- Generated by graphviz version 9.0.0 (20230911.1827)
 -->
<!-- Title: AposFrontend::SettingsWindow::applyAndCloseClicked Pages: 1 -->
<svg width="540pt" height="115pt"
 viewBox="0.00 0.00 539.75 115.00" xmlns="http://www.w3.org/2000/svg" xmlns:xlink="http://www.w3.org/1999/xlink">
<g id="graph0" class="graph" transform="scale(1 1) rotate(0) translate(4 111)">
<title>AposFrontend::SettingsWindow::applyAndCloseClicked</title>
<!-- Node1 -->
<g id="Node000001" class="node">
<title>Node1</title>
<g id="a_Node000001"><a xlink:title=" ">
<polygon fill="#999999" stroke="#666666" points="153.25,-57 0,-57 0,-25 153.25,-25 153.25,-57"/>
<text text-anchor="start" x="8" y="-43.5" font-family="Helvetica,sans-Serif" font-size="10.00">AposFrontend::SettingsWindow</text>
<text text-anchor="middle" x="76.62" y="-31.5" font-family="Helvetica,sans-Serif" font-size="10.00">::applyAndCloseClicked</text>
</a>
</g>
</g>
<!-- Node2 -->
<g id="Node000002" class="node">
<title>Node2</title>
<g id="a_Node000002"><a xlink:href="../../d8/d33/group___slot-_functions.html#gaf8c51b81640606727dea981bd3ede5ff" target="_top" xlink:title="Slot for the &#39;Apply&#39; button click event.">
<polygon fill="white" stroke="#666666" points="342.5,-82 189.25,-82 189.25,-50 342.5,-50 342.5,-82"/>
<text text-anchor="start" x="197.25" y="-68.5" font-family="Helvetica,sans-Serif" font-size="10.00">AposFrontend::SettingsWindow</text>
<text text-anchor="middle" x="265.88" y="-56.5" font-family="Helvetica,sans-Serif" font-size="10.00">::applyClicked</text>
</a>
</g>
</g>
<!-- Node1&#45;&gt;Node2 -->
<g id="edge1_Node000001_Node000002" class="edge">
<title>Node1&#45;&gt;Node2</title>
<g id="a_edge1_Node000001_Node000002"><a xlink:title=" ">
<path fill="none" stroke="#63b8ff" d="M153.52,-51.13C161.44,-52.19 169.54,-53.27 177.58,-54.34"/>
<polygon fill="#63b8ff" stroke="#63b8ff" points="177,-57.8 187.37,-55.65 177.93,-50.86 177,-57.8"/>
</a>
</g>
</g>
<!-- Node5 -->
<g id="Node000005" class="node">
<title>Node5</title>
<g id="a_Node000005"><a xlink:href="../../d8/d33/group___slot-_functions.html#ga561c502efb9484c99cb1d337cf1bf90a" target="_top" xlink:title="Slot for the &#39;Close&#39; button click event.">
<polygon fill="white" stroke="#666666" points="342.5,-32 189.25,-32 189.25,0 342.5,0 342.5,-32"/>
<text text-anchor="start" x="197.25" y="-18.5" font-family="Helvetica,sans-Serif" font-size="10.00">AposFrontend::SettingsWindow</text>
<text text-anchor="middle" x="265.88" y="-6.5" font-family="Helvetica,sans-Serif" font-size="10.00">::closeClicked</text>
</a>
</g>
</g>
<!-- Node1&#45;&gt;Node5 -->
<g id="edge4_Node000001_Node000005" class="edge">
<title>Node1&#45;&gt;Node5</title>
<g id="a_edge4_Node000001_Node000005"><a xlink:title=" ">
<path fill="none" stroke="#63b8ff" d="M153.52,-30.87C161.44,-29.81 169.54,-28.73 177.58,-27.66"/>
<polygon fill="#63b8ff" stroke="#63b8ff" points="177.93,-31.14 187.37,-26.35 177,-24.2 177.93,-31.14"/>
</a>
</g>
</g>
<!-- Node3 -->
<g id="Node000003" class="node">
<title>Node3</title>
<g id="a_Node000003"><a xlink:href="../../d7/d58/group___signal-_funtions.html#gaa502afe63303465922a81ff95f482b8e" target="_top" xlink:title="Signal for applying settings.">
<polygon fill="white" stroke="#666666" points="531.75,-107 378.5,-107 378.5,-75 531.75,-75 531.75,-107"/>
<text text-anchor="start" x="386.5" y="-93.5" font-family="Helvetica,sans-Serif" font-size="10.00">AposFrontend::SettingsWindow</text>
<text text-anchor="middle" x="455.12" y="-81.5" font-family="Helvetica,sans-Serif" font-size="10.00">::appliedSettings</text>
</a>
</g>
</g>
<!-- Node2&#45;&gt;Node3 -->
<g id="edge2_Node000002_Node000003" class="edge">
<title>Node2&#45;&gt;Node3</title>
<g id="a_edge2_Node000002_Node000003"><a xlink:title=" ">
<path fill="none" stroke="#63b8ff" d="M342.77,-76.13C350.69,-77.19 358.79,-78.27 366.83,-79.34"/>
<polygon fill="#63b8ff" stroke="#63b8ff" points="366.25,-82.8 376.62,-80.65 367.18,-75.86 366.25,-82.8"/>
</a>
</g>
</g>
<!-- Node4 -->
<g id="Node000004" class="node">
<title>Node4</title>
<g id="a_Node000004"><a xlink:href="../../de/dc6/group___initialization.html#ga49b8895cc4133ac81bd799854b3515b6" target="_top" xlink:title="Installs the application&#39;s translator.">
<polygon fill="white" stroke="#666666" points="531.75,-57 378.5,-57 378.5,-25 531.75,-25 531.75,-57"/>
<text text-anchor="start" x="386.5" y="-43.5" font-family="Helvetica,sans-Serif" font-size="10.00">AposFrontend::SettingsWindow</text>
<text text-anchor="middle" x="455.12" y="-31.5" font-family="Helvetica,sans-Serif" font-size="10.00">::installTranslator</text>
</a>
</g>
</g>
<!-- Node2&#45;&gt;Node4 -->
<g id="edge3_Node000002_Node000004" class="edge">
<title>Node2&#45;&gt;Node4</title>
<g id="a_edge3_Node000002_Node000004"><a xlink:title=" ">
<path fill="none" stroke="#63b8ff" d="M342.77,-55.87C350.69,-54.81 358.79,-53.73 366.83,-52.66"/>
<polygon fill="#63b8ff" stroke="#63b8ff" points="367.18,-56.14 376.62,-51.35 366.25,-49.2 367.18,-56.14"/>
</a>
</g>
</g>
</g>
</svg>
