<?xml version="1.0" encoding="UTF-8" standalone="no"?>
<!DOCTYPE svg PUBLIC "-//W3C//DTD SVG 1.1//EN"
 "http://www.w3.org/Graphics/SVG/1.1/DTD/svg11.dtd">
<!-- Generated by graphviz version 9.0.0 (20230911.1827)
 -->
<!-- Title: AposFrontend::SettingsWindow::settingsConnectUi Pages: 1 -->
<svg width="730pt" height="187pt"
 viewBox="0.00 0.00 729.75 187.00" xmlns="http://www.w3.org/2000/svg" xmlns:xlink="http://www.w3.org/1999/xlink">
<g id="graph0" class="graph" transform="scale(1 1) rotate(0) translate(4 183)">
<title>AposFrontend::SettingsWindow::settingsConnectUi</title>
<!-- Node1 -->
<g id="Node000001" class="node">
<title>Node1</title>
<g id="a_Node000001"><a xlink:title=" ">
<polygon fill="#999999" stroke="#666666" points="153.25,-98 0,-98 0,-66 153.25,-66 153.25,-98"/>
<text text-anchor="start" x="8" y="-84.5" font-family="Helvetica,sans-Serif" font-size="10.00">AposFrontend::SettingsWindow</text>
<text text-anchor="middle" x="76.62" y="-72.5" font-family="Helvetica,sans-Serif" font-size="10.00">::settingsConnectUi</text>
</a>
</g>
</g>
<!-- Node2 -->
<g id="Node000002" class="node">
<title>Node2</title>
<g id="a_Node000002"><a xlink:href="../../d2/df6/class_apos_frontend_1_1_settings_window.html#aa6da7c10b8630bef5645e16d93989327" target="_top" xlink:title=" ">
<polygon fill="white" stroke="#666666" points="342.88,-120 189.62,-120 189.62,-88 342.88,-88 342.88,-120"/>
<text text-anchor="start" x="197.62" y="-106.5" font-family="Helvetica,sans-Serif" font-size="10.00">AposFrontend::SettingsWindow</text>
<text text-anchor="middle" x="266.25" y="-94.5" font-family="Helvetica,sans-Serif" font-size="10.00">::applyAndCloseClicked</text>
</a>
</g>
</g>
<!-- Node1&#45;&gt;Node2 -->
<g id="edge1_Node000001_Node000002" class="edge">
<title>Node1&#45;&gt;Node2</title>
<g id="a_edge1_Node000001_Node000002"><a xlink:title=" ">
<path fill="none" stroke="#63b8ff" d="M153.67,-90.92C161.68,-91.86 169.87,-92.82 177.99,-93.77"/>
<polygon fill="#63b8ff" stroke="#63b8ff" points="177.56,-97.24 187.9,-94.93 178.38,-90.29 177.56,-97.24"/>
</a>
</g>
</g>
<!-- Node3 -->
<g id="Node000003" class="node">
<title>Node3</title>
<g id="a_Node000003"><a xlink:href="../../d8/d33/group___slot-_functions.html#gaf8c51b81640606727dea981bd3ede5ff" target="_top" xlink:title="Slot for the &#39;Apply&#39; button click event.">
<polygon fill="white" stroke="#666666" points="532.5,-154 379.25,-154 379.25,-122 532.5,-122 532.5,-154"/>
<text text-anchor="start" x="387.25" y="-140.5" font-family="Helvetica,sans-Serif" font-size="10.00">AposFrontend::SettingsWindow</text>
<text text-anchor="middle" x="455.88" y="-128.5" font-family="Helvetica,sans-Serif" font-size="10.00">::applyClicked</text>
</a>
</g>
</g>
<!-- Node1&#45;&gt;Node3 -->
<g id="edge6_Node000001_Node000003" class="edge">
<title>Node1&#45;&gt;Node3</title>
<g id="a_edge6_Node000001_Node000003"><a xlink:title=" ">
<path fill="none" stroke="#63b8ff" d="M107.9,-98.32C129.81,-109.22 160.5,-122.69 189.25,-129 247.82,-141.86 315.38,-143.99 367.71,-142.96"/>
<polygon fill="#63b8ff" stroke="#63b8ff" points="367.55,-146.46 377.46,-142.72 367.38,-139.46 367.55,-146.46"/>
</a>
</g>
</g>
<!-- Node6 -->
<g id="Node000006" class="node">
<title>Node6</title>
<g id="a_Node000006"><a xlink:href="../../d8/d33/group___slot-_functions.html#ga561c502efb9484c99cb1d337cf1bf90a" target="_top" xlink:title="Slot for the &#39;Close&#39; button click event.">
<polygon fill="white" stroke="#666666" points="532.5,-95 379.25,-95 379.25,-63 532.5,-63 532.5,-95"/>
<text text-anchor="start" x="387.25" y="-81.5" font-family="Helvetica,sans-Serif" font-size="10.00">AposFrontend::SettingsWindow</text>
<text text-anchor="middle" x="455.88" y="-69.5" font-family="Helvetica,sans-Serif" font-size="10.00">::closeClicked</text>
</a>
</g>
</g>
<!-- Node1&#45;&gt;Node6 -->
<g id="edge7_Node000001_Node000006" class="edge">
<title>Node1&#45;&gt;Node6</title>
<g id="a_edge7_Node000001_Node000006"><a xlink:title=" ">
<path fill="none" stroke="#63b8ff" d="M153.58,-79.68C165.51,-79.4 177.72,-79.15 189.25,-79 248.73,-78.2 315.71,-78.21 367.53,-78.41"/>
<polygon fill="#63b8ff" stroke="#63b8ff" points="367.49,-81.91 377.5,-78.45 367.52,-74.91 367.49,-81.91"/>
</a>
</g>
</g>
<!-- Node7 -->
<g id="Node000007" class="node">
<title>Node7</title>
<g id="a_Node000007"><a xlink:href="../../d8/d33/group___slot-_functions.html#gac3ddae8dd71cc05c8149e6f605f6e058" target="_top" xlink:title="Slot for the &#39;Language&#39; combo box index change event.">
<polygon fill="white" stroke="#666666" points="343.25,-32 189.25,-32 189.25,0 343.25,0 343.25,-32"/>
<text text-anchor="start" x="197.25" y="-18.5" font-family="Helvetica,sans-Serif" font-size="10.00">AposFrontend::SettingsWindow</text>
<text text-anchor="middle" x="266.25" y="-6.5" font-family="Helvetica,sans-Serif" font-size="10.00">::languageCurrentIndexChanged</text>
</a>
</g>
</g>
<!-- Node1&#45;&gt;Node7 -->
<g id="edge8_Node000001_Node000007" class="edge">
<title>Node1&#45;&gt;Node7</title>
<g id="a_edge8_Node000001_Node000007"><a xlink:title=" ">
<path fill="none" stroke="#63b8ff" d="M124.49,-65.52C149.77,-56.62 181.18,-45.57 207.91,-36.17"/>
<polygon fill="#63b8ff" stroke="#63b8ff" points="208.96,-39.51 217.23,-32.89 206.64,-32.91 208.96,-39.51"/>
</a>
</g>
</g>
<!-- Node2&#45;&gt;Node3 -->
<g id="edge2_Node000002_Node000003" class="edge">
<title>Node2&#45;&gt;Node3</title>
<g id="a_edge2_Node000002_Node000003"><a xlink:title=" ">
<path fill="none" stroke="#63b8ff" d="M343.29,-117.78C351.39,-119.25 359.68,-120.75 367.89,-122.24"/>
<polygon fill="#63b8ff" stroke="#63b8ff" points="367.07,-125.65 377.54,-123.99 368.32,-118.76 367.07,-125.65"/>
</a>
</g>
</g>
<!-- Node2&#45;&gt;Node6 -->
<g id="edge5_Node000002_Node000006" class="edge">
<title>Node2&#45;&gt;Node6</title>
<g id="a_edge5_Node000002_Node000006"><a xlink:title=" ">
<path fill="none" stroke="#63b8ff" d="M343.29,-93.87C351.39,-92.79 359.68,-91.68 367.89,-90.59"/>
<polygon fill="#63b8ff" stroke="#63b8ff" points="368.08,-94.1 377.53,-89.31 367.15,-87.16 368.08,-94.1"/>
</a>
</g>
</g>
<!-- Node4 -->
<g id="Node000004" class="node">
<title>Node4</title>
<g id="a_Node000004"><a xlink:href="../../d7/d58/group___signal-_funtions.html#gaa502afe63303465922a81ff95f482b8e" target="_top" xlink:title="Signal for applying settings.">
<polygon fill="white" stroke="#666666" points="721.75,-179 568.5,-179 568.5,-147 721.75,-147 721.75,-179"/>
<text text-anchor="start" x="576.5" y="-165.5" font-family="Helvetica,sans-Serif" font-size="10.00">AposFrontend::SettingsWindow</text>
<text text-anchor="middle" x="645.12" y="-153.5" font-family="Helvetica,sans-Serif" font-size="10.00">::appliedSettings</text>
</a>
</g>
</g>
<!-- Node3&#45;&gt;Node4 -->
<g id="edge3_Node000003_Node000004" class="edge">
<title>Node3&#45;&gt;Node4</title>
<g id="a_edge3_Node000003_Node000004"><a xlink:title=" ">
<path fill="none" stroke="#63b8ff" d="M532.77,-148.13C540.69,-149.19 548.79,-150.27 556.83,-151.34"/>
<polygon fill="#63b8ff" stroke="#63b8ff" points="556.25,-154.8 566.62,-152.65 557.18,-147.86 556.25,-154.8"/>
</a>
</g>
</g>
<!-- Node5 -->
<g id="Node000005" class="node">
<title>Node5</title>
<g id="a_Node000005"><a xlink:href="../../de/dc6/group___initialization.html#ga49b8895cc4133ac81bd799854b3515b6" target="_top" xlink:title="Installs the application&#39;s translator.">
<polygon fill="white" stroke="#666666" points="721.75,-129 568.5,-129 568.5,-97 721.75,-97 721.75,-129"/>
<text text-anchor="start" x="576.5" y="-115.5" font-family="Helvetica,sans-Serif" font-size="10.00">AposFrontend::SettingsWindow</text>
<text text-anchor="middle" x="645.12" y="-103.5" font-family="Helvetica,sans-Serif" font-size="10.00">::installTranslator</text>
</a>
</g>
</g>
<!-- Node3&#45;&gt;Node5 -->
<g id="edge4_Node000003_Node000005" class="edge">
<title>Node3&#45;&gt;Node5</title>
<g id="a_edge4_Node000003_Node000005"><a xlink:title=" ">
<path fill="none" stroke="#63b8ff" d="M532.77,-127.87C540.69,-126.81 548.79,-125.73 556.83,-124.66"/>
<polygon fill="#63b8ff" stroke="#63b8ff" points="557.18,-128.14 566.62,-123.35 556.25,-121.2 557.18,-128.14"/>
</a>
</g>
</g>
</g>
</svg>
