<?xml version="1.0" encoding="UTF-8" standalone="no"?>
<!DOCTYPE svg PUBLIC "-//W3C//DTD SVG 1.1//EN"
 "http://www.w3.org/Graphics/SVG/1.1/DTD/svg11.dtd">
<!-- Generated by graphviz version 9.0.0 (20230911.1827)
 -->
<!-- Title: AposFrontend::SettingsWindow::applyAndCloseClicked Pages: 1 -->
<svg width="540pt" height="40pt"
 viewBox="0.00 0.00 539.75 40.00" xmlns="http://www.w3.org/2000/svg" xmlns:xlink="http://www.w3.org/1999/xlink">
<g id="graph0" class="graph" transform="scale(1 1) rotate(0) translate(4 36)">
<title>AposFrontend::SettingsWindow::applyAndCloseClicked</title>
<!-- Node1 -->
<g id="Node000001" class="node">
<title>Node1</title>
<g id="a_Node000001"><a xlink:title=" ">
<polygon fill="#999999" stroke="#666666" points="531.75,-32 378.5,-32 378.5,0 531.75,0 531.75,-32"/>
<text text-anchor="start" x="386.5" y="-18.5" font-family="Helvetica,sans-Serif" font-size="10.00">AposFrontend::SettingsWindow</text>
<text text-anchor="middle" x="455.12" y="-6.5" font-family="Helvetica,sans-Serif" font-size="10.00">::applyAndCloseClicked</text>
</a>
</g>
</g>
<!-- Node2 -->
<g id="Node000002" class="node">
<title>Node2</title>
<g id="a_Node000002"><a xlink:href="../../d2/df6/class_apos_frontend_1_1_settings_window.html#a501fb0a911cfa4a4b24a2c58ed59428f" target="_top" xlink:title=" ">
<polygon fill="white" stroke="#666666" points="342.5,-32 189.25,-32 189.25,0 342.5,0 342.5,-32"/>
<text text-anchor="start" x="197.25" y="-18.5" font-family="Helvetica,sans-Serif" font-size="10.00">AposFrontend::SettingsWindow</text>
<text text-anchor="middle" x="265.88" y="-6.5" font-family="Helvetica,sans-Serif" font-size="10.00">::settingsConnectUi</text>
</a>
</g>
</g>
<!-- Node1&#45;&gt;Node2 -->
<g id="edge1_Node000001_Node000002" class="edge">
<title>Node1&#45;&gt;Node2</title>
<g id="a_edge1_Node000001_Node000002"><a xlink:title=" ">
<path fill="none" stroke="#63b8ff" d="M366.94,-16C358.9,-16 350.8,-16 342.87,-16"/>
<polygon fill="#63b8ff" stroke="#63b8ff" points="366.72,-19.5 376.72,-16 366.72,-12.5 366.72,-19.5"/>
</a>
</g>
</g>
<!-- Node3 -->
<g id="Node000003" class="node">
<title>Node3</title>
<g id="a_Node000003"><a xlink:href="../../d3/dbc/group___constructructors-_destructors.html#ga4d0c5f6c403b96a7ce7f2c31dc7864eb" target="_top" xlink:title="Constructor for the SettingsWindow class.">
<polygon fill="white" stroke="#666666" points="153.25,-32 0,-32 0,0 153.25,0 153.25,-32"/>
<text text-anchor="start" x="8" y="-18.5" font-family="Helvetica,sans-Serif" font-size="10.00">AposFrontend::SettingsWindow</text>
<text text-anchor="middle" x="76.62" y="-6.5" font-family="Helvetica,sans-Serif" font-size="10.00">::SettingsWindow</text>
</a>
</g>
</g>
<!-- Node2&#45;&gt;Node3 -->
<g id="edge2_Node000002_Node000003" class="edge">
<title>Node2&#45;&gt;Node3</title>
<g id="a_edge2_Node000002_Node000003"><a xlink:title=" ">
<path fill="none" stroke="#63b8ff" d="M177.69,-16C169.65,-16 161.55,-16 153.62,-16"/>
<polygon fill="#63b8ff" stroke="#63b8ff" points="177.47,-19.5 187.47,-16 177.47,-12.5 177.47,-19.5"/>
</a>
</g>
</g>
</g>
</svg>
