<?xml version="1.0" encoding="UTF-8" standalone="no"?>
<!DOCTYPE svg PUBLIC "-//W3C//DTD SVG 1.1//EN"
 "http://www.w3.org/Graphics/SVG/1.1/DTD/svg11.dtd">
<!-- Generated by graphviz version 9.0.0 (20230911.1827)
 -->
<!-- Title: ObjectHandler::getDbHandler Pages: 1 -->
<svg width="499pt" height="154pt"
 viewBox="0.00 0.00 499.25 154.00" xmlns="http://www.w3.org/2000/svg" xmlns:xlink="http://www.w3.org/1999/xlink">
<g id="graph0" class="graph" transform="scale(1 1) rotate(0) translate(4 150)">
<title>ObjectHandler::getDbHandler</title>
<!-- Node1 -->
<g id="Node000001" class="node">
<title>Node1</title>
<g id="a_Node000001"><a xlink:title=" ">
<polygon fill="#999999" stroke="#666666" points="491.25,-89 349.25,-89 349.25,-69 491.25,-69 491.25,-89"/>
<text text-anchor="middle" x="420.25" y="-75.5" font-family="Helvetica,sans-Serif" font-size="10.00">ObjectHandler::getDbHandler</text>
</a>
</g>
</g>
<!-- Node2 -->
<g id="Node000002" class="node">
<title>Node2</title>
<g id="a_Node000002"><a xlink:href="../../d6/d5d/class_dev_window.html#a7da394c44e1c71d58f2f9a3b1e22d85f" target="_top" xlink:title=" ">
<polygon fill="white" stroke="#666666" points="312.88,-146 176.12,-146 176.12,-126 312.88,-126 312.88,-146"/>
<text text-anchor="middle" x="244.5" y="-132.5" font-family="Helvetica,sans-Serif" font-size="10.00">DevWindow::closeDatabase</text>
</a>
</g>
</g>
<!-- Node1&#45;&gt;Node2 -->
<g id="edge1_Node000001_Node000002" class="edge">
<title>Node1&#45;&gt;Node2</title>
<g id="a_edge1_Node000001_Node000002"><a xlink:title=" ">
<path fill="none" stroke="#63b8ff" d="M376.59,-92.99C345.96,-103.04 305.32,-116.37 277.46,-125.52"/>
<polygon fill="#63b8ff" stroke="#63b8ff" points="377.53,-96.37 385.94,-89.93 375.35,-89.72 377.53,-96.37"/>
</a>
</g>
</g>
<!-- Node3 -->
<g id="Node000003" class="node">
<title>Node3</title>
<g id="a_Node000003"><a xlink:href="../../d6/d5d/class_dev_window.html#a5af0e44d3c6fff78f8a62cf26380f595" target="_top" xlink:title=" ">
<polygon fill="white" stroke="#666666" points="139.75,-139 0,-139 0,-107 139.75,-107 139.75,-139"/>
<text text-anchor="start" x="8" y="-125.5" font-family="Helvetica,sans-Serif" font-size="10.00">DevWindow::on_btnCloseDB</text>
<text text-anchor="middle" x="69.88" y="-113.5" font-family="Helvetica,sans-Serif" font-size="10.00">_clicked</text>
</a>
</g>
</g>
<!-- Node1&#45;&gt;Node3 -->
<g id="edge5_Node000001_Node000003" class="edge">
<title>Node1&#45;&gt;Node3</title>
<g id="a_edge5_Node000001_Node000003"><a xlink:title=" ">
<path fill="none" stroke="#63b8ff" d="M337.42,-89.34C277.43,-96.91 196.88,-107.09 140.08,-114.26"/>
<polygon fill="#63b8ff" stroke="#63b8ff" points="337.77,-92.82 347.25,-88.09 336.89,-85.87 337.77,-92.82"/>
</a>
</g>
</g>
<!-- Node4 -->
<g id="Node000004" class="node">
<title>Node4</title>
<g id="a_Node000004"><a xlink:href="../../d6/d5d/class_dev_window.html#a2aa91ebfb3fac512e407c89b9ffff1ec" target="_top" xlink:title=" ">
<polygon fill="white" stroke="#666666" points="307.62,-70 181.38,-70 181.38,-50 307.62,-50 307.62,-70"/>
<text text-anchor="middle" x="244.5" y="-56.5" font-family="Helvetica,sans-Serif" font-size="10.00">DevWindow::initDatabase</text>
</a>
</g>
</g>
<!-- Node1&#45;&gt;Node4 -->
<g id="edge3_Node000001_Node000004" class="edge">
<title>Node1&#45;&gt;Node4</title>
<g id="a_edge3_Node000001_Node000004"><a xlink:title=" ">
<path fill="none" stroke="#63b8ff" d="M337.62,-70.07C327.63,-68.98 317.56,-67.88 307.91,-66.83"/>
<polygon fill="#63b8ff" stroke="#63b8ff" points="337,-73.53 347.33,-71.13 337.76,-66.57 337,-73.53"/>
</a>
</g>
</g>
<!-- Node6 -->
<g id="Node000006" class="node">
<title>Node6</title>
<g id="a_Node000006"><a xlink:href="../../d6/d5d/class_dev_window.html#ac5cf1fa72fa3b7eb8044a0e099add694" target="_top" xlink:title=" ">
<polygon fill="white" stroke="#666666" points="313.25,-32 175.75,-32 175.75,0 313.25,0 313.25,-32"/>
<text text-anchor="start" x="183.75" y="-18.5" font-family="Helvetica,sans-Serif" font-size="10.00">DevWindow::on_btnExecute</text>
<text text-anchor="middle" x="244.5" y="-6.5" font-family="Helvetica,sans-Serif" font-size="10.00">_clicked</text>
</a>
</g>
</g>
<!-- Node1&#45;&gt;Node6 -->
<g id="edge6_Node000001_Node000006" class="edge">
<title>Node1&#45;&gt;Node6</title>
<g id="a_edge6_Node000001_Node000006"><a xlink:title=" ">
<path fill="none" stroke="#63b8ff" d="M379.79,-64.69C353.36,-55.11 318.48,-42.46 290.9,-32.46"/>
<polygon fill="#63b8ff" stroke="#63b8ff" points="378.54,-67.96 389.14,-68.08 380.93,-61.38 378.54,-67.96"/>
</a>
</g>
</g>
<!-- Node2&#45;&gt;Node3 -->
<g id="edge2_Node000002_Node000003" class="edge">
<title>Node2&#45;&gt;Node3</title>
<g id="a_edge2_Node000002_Node000003"><a xlink:title=" ">
<path fill="none" stroke="#63b8ff" d="M164.4,-130.04C156.29,-129.43 148.1,-128.82 140.11,-128.21"/>
<polygon fill="#63b8ff" stroke="#63b8ff" points="164.03,-133.52 174.26,-130.79 164.55,-126.54 164.03,-133.52"/>
</a>
</g>
</g>
<!-- Node5 -->
<g id="Node000005" class="node">
<title>Node5</title>
<g id="a_Node000005"><a xlink:href="../../d6/d5d/class_dev_window.html#a9bfb7fe4688b2a94807581db270502ff" target="_top" xlink:title=" ">
<polygon fill="white" stroke="#666666" points="133.75,-76 6,-76 6,-44 133.75,-44 133.75,-76"/>
<text text-anchor="start" x="14" y="-62.5" font-family="Helvetica,sans-Serif" font-size="10.00">DevWindow::on_btnInitDB</text>
<text text-anchor="middle" x="69.88" y="-50.5" font-family="Helvetica,sans-Serif" font-size="10.00">_clicked</text>
</a>
</g>
</g>
<!-- Node4&#45;&gt;Node5 -->
<g id="edge4_Node000004_Node000005" class="edge">
<title>Node4&#45;&gt;Node5</title>
<g id="a_edge4_Node000004_Node000005"><a xlink:title=" ">
<path fill="none" stroke="#63b8ff" d="M169.86,-60C157.91,-60 145.64,-60 133.98,-60"/>
<polygon fill="#63b8ff" stroke="#63b8ff" points="169.66,-63.5 179.66,-60 169.66,-56.5 169.66,-63.5"/>
</a>
</g>
</g>
</g>
</svg>
