<?xml version="1.0" encoding="UTF-8" standalone="no"?>
<!DOCTYPE svg PUBLIC "-//W3C//DTD SVG 1.1//EN"
 "http://www.w3.org/Graphics/SVG/1.1/DTD/svg11.dtd">
<!-- Generated by graphviz version 9.0.0 (20230911.1827)
 -->
<!-- Title: ObjectHandler::getTableHandler Pages: 1 -->
<svg width="350pt" height="190pt"
 viewBox="0.00 0.00 349.75 190.00" xmlns="http://www.w3.org/2000/svg" xmlns:xlink="http://www.w3.org/1999/xlink">
<g id="graph0" class="graph" transform="scale(1 1) rotate(0) translate(4 186)">
<title>ObjectHandler::getTableHandler</title>
<!-- Node1 -->
<g id="Node000001" class="node">
<title>Node1</title>
<g id="a_Node000001"><a xlink:title=" ">
<polygon fill="#999999" stroke="#666666" points="341.75,-101 188.5,-101 188.5,-81 341.75,-81 341.75,-101"/>
<text text-anchor="middle" x="265.12" y="-87.5" font-family="Helvetica,sans-Serif" font-size="10.00">ObjectHandler::getTableHandler</text>
</a>
</g>
</g>
<!-- Node2 -->
<g id="Node000002" class="node">
<title>Node2</title>
<g id="a_Node000002"><a xlink:href="../../d6/d5d/class_dev_window.html#ac3155195f2dfd5b46d676100d4b0f2bd" target="_top" xlink:title=" ">
<polygon fill="white" stroke="#666666" points="135.62,-182 16.88,-182 16.88,-150 135.62,-150 135.62,-182"/>
<text text-anchor="start" x="24.88" y="-168.5" font-family="Helvetica,sans-Serif" font-size="10.00">DevWindow::on_btnAdd</text>
<text text-anchor="middle" x="76.25" y="-156.5" font-family="Helvetica,sans-Serif" font-size="10.00">_clicked</text>
</a>
</g>
</g>
<!-- Node1&#45;&gt;Node2 -->
<g id="edge1_Node000001_Node000002" class="edge">
<title>Node1&#45;&gt;Node2</title>
<g id="a_edge1_Node000001_Node000002"><a xlink:title=" ">
<path fill="none" stroke="#63b8ff" d="M232.42,-106.22C210.27,-116.61 179.88,-130.35 152.5,-141 144.93,-143.94 136.85,-146.86 128.9,-149.6"/>
<polygon fill="#63b8ff" stroke="#63b8ff" points="233.66,-109.51 241.21,-102.07 230.68,-103.18 233.66,-109.51"/>
</a>
</g>
</g>
<!-- Node3 -->
<g id="Node000003" class="node">
<title>Node3</title>
<g id="a_Node000003"><a xlink:href="../../d6/d5d/class_dev_window.html#a9bfb7fe4688b2a94807581db270502ff" target="_top" xlink:title=" ">
<polygon fill="white" stroke="#666666" points="140.12,-132 12.38,-132 12.38,-100 140.12,-100 140.12,-132"/>
<text text-anchor="start" x="20.38" y="-118.5" font-family="Helvetica,sans-Serif" font-size="10.00">DevWindow::on_btnInitDB</text>
<text text-anchor="middle" x="76.25" y="-106.5" font-family="Helvetica,sans-Serif" font-size="10.00">_clicked</text>
</a>
</g>
</g>
<!-- Node1&#45;&gt;Node3 -->
<g id="edge2_Node000001_Node000003" class="edge">
<title>Node1&#45;&gt;Node3</title>
<g id="a_edge2_Node000001_Node000003"><a xlink:title=" ">
<path fill="none" stroke="#63b8ff" d="M176.87,-102.67C164.56,-104.32 152.1,-105.99 140.35,-107.56"/>
<polygon fill="#63b8ff" stroke="#63b8ff" points="177.17,-106.16 186.62,-101.37 176.24,-99.23 177.17,-106.16"/>
</a>
</g>
</g>
<!-- Node4 -->
<g id="Node000004" class="node">
<title>Node4</title>
<g id="a_Node000004"><a xlink:href="../../d6/d5d/class_dev_window.html#af26a0e01b5d56697ce01cc2d18a042d2" target="_top" xlink:title=" ">
<polygon fill="white" stroke="#666666" points="152.5,-82 0,-82 0,-50 152.5,-50 152.5,-82"/>
<text text-anchor="start" x="8" y="-68.5" font-family="Helvetica,sans-Serif" font-size="10.00">DevWindow::on_btnSelectTable</text>
<text text-anchor="middle" x="76.25" y="-56.5" font-family="Helvetica,sans-Serif" font-size="10.00">_clicked</text>
</a>
</g>
</g>
<!-- Node1&#45;&gt;Node4 -->
<g id="edge3_Node000001_Node000004" class="edge">
<title>Node1&#45;&gt;Node4</title>
<g id="a_edge3_Node000001_Node000004"><a xlink:title=" ">
<path fill="none" stroke="#63b8ff" d="M176.86,-79.33C168.85,-78.25 160.78,-77.17 152.89,-76.12"/>
<polygon fill="#63b8ff" stroke="#63b8ff" points="176.24,-82.77 186.62,-80.63 177.17,-75.84 176.24,-82.77"/>
</a>
</g>
</g>
<!-- Node5 -->
<g id="Node000005" class="node">
<title>Node5</title>
<g id="a_Node000005"><a xlink:href="../../d6/d5d/class_dev_window.html#a3737796c404ea1c942cca38ef6fc4a7d" target="_top" xlink:title=" ">
<polygon fill="white" stroke="#666666" points="142.38,-32 10.12,-32 10.12,0 142.38,0 142.38,-32"/>
<text text-anchor="start" x="18.12" y="-18.5" font-family="Helvetica,sans-Serif" font-size="10.00">DevWindow::on_btnUpdate</text>
<text text-anchor="middle" x="76.25" y="-6.5" font-family="Helvetica,sans-Serif" font-size="10.00">_clicked</text>
</a>
</g>
</g>
<!-- Node1&#45;&gt;Node5 -->
<g id="edge4_Node000001_Node000005" class="edge">
<title>Node1&#45;&gt;Node5</title>
<g id="a_edge4_Node000001_Node000005"><a xlink:title=" ">
<path fill="none" stroke="#63b8ff" d="M232.42,-75.78C210.27,-65.39 179.88,-51.65 152.5,-41 144.93,-38.06 136.85,-35.14 128.9,-32.4"/>
<polygon fill="#63b8ff" stroke="#63b8ff" points="230.68,-78.82 241.21,-79.93 233.66,-72.49 230.68,-78.82"/>
</a>
</g>
</g>
</g>
</svg>
