<?xml version="1.0" encoding="UTF-8" standalone="no"?>
<!DOCTYPE svg PUBLIC "-//W3C//DTD SVG 1.1//EN"
 "http://www.w3.org/Graphics/SVG/1.1/DTD/svg11.dtd">
<!-- Generated by graphviz version 9.0.0 (20230911.1827)
 -->
<!-- Title: ObjectHandler::initTableObject Pages: 1 -->
<svg width="505pt" height="140pt"
 viewBox="0.00 0.00 505.25 140.00" xmlns="http://www.w3.org/2000/svg" xmlns:xlink="http://www.w3.org/1999/xlink">
<g id="graph0" class="graph" transform="scale(1 1) rotate(0) translate(4 136)">
<title>ObjectHandler::initTableObject</title>
<!-- Node1 -->
<g id="Node000001" class="node">
<title>Node1</title>
<g id="a_Node000001"><a xlink:title=" ">
<polygon fill="#999999" stroke="#666666" points="119.5,-82 0,-82 0,-50 119.5,-50 119.5,-82"/>
<text text-anchor="start" x="8" y="-68.5" font-family="Helvetica,sans-Serif" font-size="10.00">ObjectHandler::initTable</text>
<text text-anchor="middle" x="59.75" y="-56.5" font-family="Helvetica,sans-Serif" font-size="10.00">Object</text>
</a>
</g>
</g>
<!-- Node2 -->
<g id="Node000002" class="node">
<title>Node2</title>
<g id="a_Node000002"><a xlink:href="../../dd/d68/class_table_handler.html#ad44dcf46ff59d328b5344b81ce5edb2f" target="_top" xlink:title=" ">
<polygon fill="white" stroke="#666666" points="294.5,-132 155.5,-132 155.5,-100 294.5,-100 294.5,-132"/>
<text text-anchor="start" x="163.5" y="-118.5" font-family="Helvetica,sans-Serif" font-size="10.00">TableHandler::generateTable</text>
<text text-anchor="middle" x="225" y="-106.5" font-family="Helvetica,sans-Serif" font-size="10.00">Model</text>
</a>
</g>
</g>
<!-- Node1&#45;&gt;Node2 -->
<g id="edge1_Node000001_Node000002" class="edge">
<title>Node1&#45;&gt;Node2</title>
<g id="a_edge1_Node000001_Node000002"><a xlink:title=" ">
<path fill="none" stroke="#63b8ff" d="M114.2,-82.37C128.65,-86.8 144.43,-91.63 159.41,-96.22"/>
<polygon fill="#63b8ff" stroke="#63b8ff" points="158.11,-99.48 168.7,-99.06 160.16,-92.79 158.11,-99.48"/>
</a>
</g>
</g>
<!-- Node3 -->
<g id="Node000003" class="node">
<title>Node3</title>
<g id="a_Node000003"><a xlink:href="../../df/d32/class_object_handler.html#abfd81a99d24bd756ea432965edff7593" target="_top" xlink:title=" ">
<polygon fill="white" stroke="#666666" points="286.62,-82 163.38,-82 163.38,-50 286.62,-50 286.62,-82"/>
<text text-anchor="start" x="171.38" y="-68.5" font-family="Helvetica,sans-Serif" font-size="10.00">ObjectHandler::getActive</text>
<text text-anchor="middle" x="225" y="-56.5" font-family="Helvetica,sans-Serif" font-size="10.00">Database</text>
</a>
</g>
</g>
<!-- Node1&#45;&gt;Node3 -->
<g id="edge2_Node000001_Node000003" class="edge">
<title>Node1&#45;&gt;Node3</title>
<g id="a_edge2_Node000001_Node000003"><a xlink:title=" ">
<path fill="none" stroke="#63b8ff" d="M119.69,-66C130.02,-66 140.87,-66 151.52,-66"/>
<polygon fill="#63b8ff" stroke="#63b8ff" points="151.44,-69.5 161.44,-66 151.44,-62.5 151.44,-69.5"/>
</a>
</g>
</g>
<!-- Node5 -->
<g id="Node000005" class="node">
<title>Node5</title>
<g id="a_Node000005"><a xlink:href="../../df/d32/class_object_handler.html#a36034a0611e57dd6862f61e87aaad808" target="_top" xlink:title=" ">
<polygon fill="white" stroke="#666666" points="286.62,-32 163.38,-32 163.38,0 286.62,0 286.62,-32"/>
<text text-anchor="start" x="171.38" y="-18.5" font-family="Helvetica,sans-Serif" font-size="10.00">ObjectHandler::getActive</text>
<text text-anchor="middle" x="225" y="-6.5" font-family="Helvetica,sans-Serif" font-size="10.00">TableName</text>
</a>
</g>
</g>
<!-- Node1&#45;&gt;Node5 -->
<g id="edge4_Node000001_Node000005" class="edge">
<title>Node1&#45;&gt;Node5</title>
<g id="a_edge4_Node000001_Node000005"><a xlink:title=" ">
<path fill="none" stroke="#63b8ff" d="M114.2,-49.63C128.65,-45.2 144.43,-40.37 159.41,-35.78"/>
<polygon fill="#63b8ff" stroke="#63b8ff" points="160.16,-39.21 168.7,-32.94 158.11,-32.52 160.16,-39.21"/>
</a>
</g>
</g>
<!-- Node4 -->
<g id="Node000004" class="node">
<title>Node4</title>
<g id="a_Node000004"><a xlink:href="../../d5/da6/class_database_handler.html#a30ba97d90e6c706d53db0616138dde3e" target="_top" xlink:title=" ">
<polygon fill="white" stroke="#666666" points="481.88,-82 345.88,-82 345.88,-50 481.88,-50 481.88,-82"/>
<text text-anchor="start" x="353.88" y="-68.5" font-family="Helvetica,sans-Serif" font-size="10.00">DatabaseHandler::getActive</text>
<text text-anchor="middle" x="413.88" y="-56.5" font-family="Helvetica,sans-Serif" font-size="10.00">Database</text>
</a>
</g>
</g>
<!-- Node3&#45;&gt;Node4 -->
<g id="edge3_Node000003_Node000004" class="edge">
<title>Node3&#45;&gt;Node4</title>
<g id="a_edge3_Node000003_Node000004"><a xlink:title=" ">
<path fill="none" stroke="#63b8ff" d="M286.93,-66C302.02,-66 318.39,-66 334.19,-66"/>
<polygon fill="#63b8ff" stroke="#63b8ff" points="334.05,-69.5 344.05,-66 334.05,-62.5 334.05,-69.5"/>
</a>
</g>
</g>
<!-- Node6 -->
<g id="Node000006" class="node">
<title>Node6</title>
<g id="a_Node000006"><a xlink:href="../../dd/d68/class_table_handler.html#a45e72d50638a51b19a1262b134483195" target="_top" xlink:title=" ">
<polygon fill="white" stroke="#666666" points="497.25,-26 330.5,-26 330.5,-6 497.25,-6 497.25,-26"/>
<text text-anchor="middle" x="413.88" y="-12.5" font-family="Helvetica,sans-Serif" font-size="10.00">TableHandler::getActiveTableName</text>
</a>
</g>
</g>
<!-- Node5&#45;&gt;Node6 -->
<g id="edge5_Node000005_Node000006" class="edge">
<title>Node5&#45;&gt;Node6</title>
<g id="a_edge5_Node000005_Node000006"><a xlink:title=" ">
<path fill="none" stroke="#63b8ff" d="M286.93,-16C297.21,-16 308.08,-16 318.97,-16"/>
<polygon fill="#63b8ff" stroke="#63b8ff" points="318.78,-19.5 328.78,-16 318.78,-12.5 318.78,-19.5"/>
</a>
</g>
</g>
</g>
</svg>
