<?xml version="1.0" encoding="UTF-8" standalone="no"?>
<!DOCTYPE svg PUBLIC "-//W3C//DTD SVG 1.1//EN"
 "http://www.w3.org/Graphics/SVG/1.1/DTD/svg11.dtd">
<!-- Generated by graphviz version 9.0.0 (20230911.1827)
 -->
<!-- Title: ObjectHandler::getActiveDatabase Pages: 1 -->
<svg width="451pt" height="62pt"
 viewBox="0.00 0.00 450.50 62.00" xmlns="http://www.w3.org/2000/svg" xmlns:xlink="http://www.w3.org/1999/xlink">
<g id="graph0" class="graph" transform="scale(1 1) rotate(0) translate(4 58)">
<title>ObjectHandler::getActiveDatabase</title>
<!-- Node1 -->
<g id="Node000001" class="node">
<title>Node1</title>
<g id="a_Node000001"><a xlink:title=" ">
<polygon fill="#999999" stroke="#666666" points="442.5,-32 319.25,-32 319.25,0 442.5,0 442.5,-32"/>
<text text-anchor="start" x="327.25" y="-18.5" font-family="Helvetica,sans-Serif" font-size="10.00">ObjectHandler::getActive</text>
<text text-anchor="middle" x="380.88" y="-6.5" font-family="Helvetica,sans-Serif" font-size="10.00">Database</text>
</a>
</g>
</g>
<!-- Node2 -->
<g id="Node000002" class="node">
<title>Node2</title>
<g id="a_Node000002"><a xlink:href="../../df/d32/class_object_handler.html#a0db21cc39e1879a9e0c86b56973a4195" target="_top" xlink:title=" ">
<polygon fill="white" stroke="#666666" points="283.25,-54 163.75,-54 163.75,-22 283.25,-22 283.25,-54"/>
<text text-anchor="start" x="171.75" y="-40.5" font-family="Helvetica,sans-Serif" font-size="10.00">ObjectHandler::initTable</text>
<text text-anchor="middle" x="223.5" y="-28.5" font-family="Helvetica,sans-Serif" font-size="10.00">Object</text>
</a>
</g>
</g>
<!-- Node1&#45;&gt;Node2 -->
<g id="edge1_Node000001_Node000002" class="edge">
<title>Node1&#45;&gt;Node2</title>
<g id="a_edge1_Node000001_Node000002"><a xlink:title=" ">
<path fill="none" stroke="#63b8ff" d="M307.59,-26.23C299.53,-27.38 291.38,-28.53 283.51,-29.65"/>
<polygon fill="#63b8ff" stroke="#63b8ff" points="308,-29.71 317.41,-24.84 307.02,-22.78 308,-29.71"/>
</a>
</g>
</g>
<!-- Node3 -->
<g id="Node000003" class="node">
<title>Node3</title>
<g id="a_Node000003"><a xlink:href="../../d6/d5d/class_dev_window.html#a9bfb7fe4688b2a94807581db270502ff" target="_top" xlink:title=" ">
<polygon fill="white" stroke="#666666" points="127.75,-32 0,-32 0,0 127.75,0 127.75,-32"/>
<text text-anchor="start" x="8" y="-18.5" font-family="Helvetica,sans-Serif" font-size="10.00">DevWindow::on_btnInitDB</text>
<text text-anchor="middle" x="63.88" y="-6.5" font-family="Helvetica,sans-Serif" font-size="10.00">_clicked</text>
</a>
</g>
</g>
<!-- Node1&#45;&gt;Node3 -->
<g id="edge3_Node000001_Node000003" class="edge">
<title>Node1&#45;&gt;Node3</title>
<g id="a_edge3_Node000001_Node000003"><a xlink:title=" ">
<path fill="none" stroke="#63b8ff" d="M307.36,-13.51C299.23,-13.3 291.06,-13.12 283.25,-13 230.15,-12.18 216.86,-12.19 163.75,-13 152.24,-13.17 139.99,-13.46 128.16,-13.79"/>
<polygon fill="#63b8ff" stroke="#63b8ff" points="307.2,-17 317.29,-13.78 307.39,-10 307.2,-17"/>
</a>
</g>
</g>
<!-- Node2&#45;&gt;Node3 -->
<g id="edge2_Node000002_Node000003" class="edge">
<title>Node2&#45;&gt;Node3</title>
<g id="a_edge2_Node000002_Node000003"><a xlink:title=" ">
<path fill="none" stroke="#63b8ff" d="M152.13,-28.18C144.1,-27.06 135.96,-25.92 128.04,-24.82"/>
<polygon fill="#63b8ff" stroke="#63b8ff" points="151.47,-31.62 161.86,-29.54 152.44,-24.69 151.47,-31.62"/>
</a>
</g>
</g>
</g>
</svg>
