<?xml version="1.0" encoding="UTF-8" standalone="no"?>
<!DOCTYPE svg PUBLIC "-//W3C//DTD SVG 1.1//EN"
 "http://www.w3.org/Graphics/SVG/1.1/DTD/svg11.dtd">
<!-- Generated by graphviz version 9.0.0 (20230911.1827)
 -->
<!-- Title: TranslatableWindow::retranslateUi Pages: 1 -->
<svg width="693pt" height="40pt"
 viewBox="0.00 0.00 693.00 40.00" xmlns="http://www.w3.org/2000/svg" xmlns:xlink="http://www.w3.org/1999/xlink">
<g id="graph0" class="graph" transform="scale(1 1) rotate(0) translate(4 36)">
<title>TranslatableWindow::retranslateUi</title>
<!-- Node1 -->
<g id="Node000001" class="node">
<title>Node1</title>
<g id="a_Node000001"><a xlink:title=" ">
<polygon fill="#999999" stroke="#666666" points="685,-32 582,-32 582,0 685,0 685,-32"/>
<text text-anchor="start" x="590" y="-18.5" font-family="Helvetica,sans-Serif" font-size="10.00">TranslatableWindow</text>
<text text-anchor="middle" x="633.5" y="-6.5" font-family="Helvetica,sans-Serif" font-size="10.00">::retranslateUi</text>
</a>
</g>
</g>
<!-- Node2 -->
<g id="Node000002" class="node">
<title>Node2</title>
<g id="a_Node000002"><a xlink:href="../../d5/d61/class_window_handler.html#ab585fdb0adaf982cb5f8212bf31b423e" target="_top" xlink:title=" ">
<polygon fill="white" stroke="#666666" points="546,-26 377.75,-26 377.75,-6 546,-6 546,-26"/>
<text text-anchor="middle" x="461.88" y="-12.5" font-family="Helvetica,sans-Serif" font-size="10.00">WindowHandler::changeLanguages</text>
</a>
</g>
</g>
<!-- Node1&#45;&gt;Node2 -->
<g id="edge1_Node000001_Node000002" class="edge">
<title>Node1&#45;&gt;Node2</title>
<g id="a_edge1_Node000001_Node000002"><a xlink:title=" ">
<path fill="none" stroke="#63b8ff" d="M570.12,-16C562.39,-16 554.39,-16 546.4,-16"/>
<polygon fill="#63b8ff" stroke="#63b8ff" points="570.09,-19.5 580.09,-16 570.09,-12.5 570.09,-19.5"/>
</a>
</g>
</g>
<!-- Node3 -->
<g id="Node000003" class="node">
<title>Node3</title>
<g id="a_Node000003"><a xlink:href="../../d5/d61/class_window_handler.html#a52436f8ef1145f13f153e49ab8a194ed" target="_top" xlink:title=" ">
<polygon fill="white" stroke="#666666" points="341.75,-26 193,-26 193,-6 341.75,-6 341.75,-26"/>
<text text-anchor="middle" x="267.38" y="-12.5" font-family="Helvetica,sans-Serif" font-size="10.00">WindowHandler::applySettings</text>
</a>
</g>
</g>
<!-- Node2&#45;&gt;Node3 -->
<g id="edge2_Node000002_Node000003" class="edge">
<title>Node2&#45;&gt;Node3</title>
<g id="a_edge2_Node000002_Node000003"><a xlink:title=" ">
<path fill="none" stroke="#63b8ff" d="M366.01,-16C358.02,-16 350.02,-16 342.22,-16"/>
<polygon fill="#63b8ff" stroke="#63b8ff" points="365.77,-19.5 375.77,-16 365.77,-12.5 365.77,-19.5"/>
</a>
</g>
</g>
<!-- Node4 -->
<g id="Node000004" class="node">
<title>Node4</title>
<g id="a_Node000004"><a xlink:href="../../d5/d61/class_window_handler.html#adf32b0851c5df8d24cc2c74775e4b94d" target="_top" xlink:title=" ">
<polygon fill="white" stroke="#666666" points="157,-26 0,-26 0,-6 157,-6 157,-26"/>
<text text-anchor="middle" x="78.5" y="-12.5" font-family="Helvetica,sans-Serif" font-size="10.00">WindowHandler::WindowHandler</text>
</a>
</g>
</g>
<!-- Node3&#45;&gt;Node4 -->
<g id="edge3_Node000003_Node000004" class="edge">
<title>Node3&#45;&gt;Node4</title>
<g id="a_edge3_Node000003_Node000004"><a xlink:title=" ">
<path fill="none" stroke="#63b8ff" d="M181.06,-16C173.19,-16 165.23,-16 157.43,-16"/>
<polygon fill="#63b8ff" stroke="#63b8ff" points="181,-19.5 191,-16 181,-12.5 181,-19.5"/>
</a>
</g>
</g>
</g>
</svg>
