<?xml version="1.0" encoding="UTF-8" standalone="no"?>
<!DOCTYPE svg PUBLIC "-//W3C//DTD SVG 1.1//EN"
 "http://www.w3.org/Graphics/SVG/1.1/DTD/svg11.dtd">
<!-- Generated by graphviz version 9.0.0 (20230911.1827)
 -->
<!-- Title: WindowHandler::showDevWindow Pages: 1 -->
<svg width="354pt" height="166pt"
 viewBox="0.00 0.00 354.25 166.00" xmlns="http://www.w3.org/2000/svg" xmlns:xlink="http://www.w3.org/1999/xlink">
<g id="graph0" class="graph" transform="scale(1 1) rotate(0) translate(4 162)">
<title>WindowHandler::showDevWindow</title>
<!-- Node1 -->
<g id="Node000001" class="node">
<title>Node1</title>
<g id="a_Node000001"><a xlink:title=" ">
<polygon fill="#999999" stroke="#666666" points="162.25,-98 0,-98 0,-78 162.25,-78 162.25,-98"/>
<text text-anchor="middle" x="81.12" y="-84.5" font-family="Helvetica,sans-Serif" font-size="10.00">WindowHandler::showDevWindow</text>
</a>
</g>
</g>
<!-- Node2 -->
<g id="Node000002" class="node">
<title>Node2</title>
<g id="a_Node000002"><a xlink:href="../../d6/d5d/class_dev_window.html#aa64f163f03e0190606cd9692d2beec28" target="_top" xlink:title=" ">
<polygon fill="white" stroke="#666666" points="336.88,-158 207.62,-158 207.62,-138 336.88,-138 336.88,-158"/>
<text text-anchor="middle" x="272.25" y="-144.5" font-family="Helvetica,sans-Serif" font-size="10.00">DevWindow::openSettings</text>
</a>
</g>
</g>
<!-- Node1&#45;&gt;Node2 -->
<g id="edge1_Node000001_Node000002" class="edge">
<title>Node1&#45;&gt;Node2</title>
<g id="a_edge1_Node000001_Node000002"><a xlink:title=" ">
<path fill="none" stroke="#63b8ff" d="M109.59,-98.44C132.99,-107.15 167.58,-119.61 198.25,-129 204.51,-130.92 211.1,-132.81 217.67,-134.61"/>
<polygon fill="#63b8ff" stroke="#63b8ff" points="216.59,-137.95 227.16,-137.16 218.41,-131.19 216.59,-137.95"/>
</a>
</g>
</g>
<!-- Node3 -->
<g id="Node000003" class="node">
<title>Node3</title>
<g id="a_Node000003"><a xlink:href="../../d6/d5d/class_dev_window.html#a879985fff5798387b606f6c209322f95" target="_top" xlink:title=" ">
<polygon fill="white" stroke="#666666" points="345.88,-120 198.62,-120 198.62,-100 345.88,-100 345.88,-120"/>
<text text-anchor="middle" x="272.25" y="-106.5" font-family="Helvetica,sans-Serif" font-size="10.00">DevWindow::returnToLauncher</text>
</a>
</g>
</g>
<!-- Node1&#45;&gt;Node3 -->
<g id="edge2_Node000001_Node000003" class="edge">
<title>Node1&#45;&gt;Node3</title>
<g id="a_edge2_Node000001_Node000003"><a xlink:title=" ">
<path fill="none" stroke="#63b8ff" d="M162.61,-97.36C170.67,-98.3 178.87,-99.25 186.97,-100.2"/>
<polygon fill="#63b8ff" stroke="#63b8ff" points="186.49,-103.66 196.83,-101.34 187.3,-96.71 186.49,-103.66"/>
</a>
</g>
</g>
<!-- Node4 -->
<g id="Node000004" class="node">
<title>Node4</title>
<g id="a_Node000004"><a xlink:href="../../d5/d61/class_window_handler.html#a7991c67765fc79b3049e249a7ee97434" target="_top" xlink:title=" ">
<polygon fill="white" stroke="#666666" points="344,-82 200.5,-82 200.5,-50 344,-50 344,-82"/>
<text text-anchor="start" x="208.5" y="-68.5" font-family="Helvetica,sans-Serif" font-size="10.00">WindowHandler::showLaunch</text>
<text text-anchor="middle" x="272.25" y="-56.5" font-family="Helvetica,sans-Serif" font-size="10.00">Window</text>
</a>
</g>
</g>
<!-- Node1&#45;&gt;Node4 -->
<g id="edge3_Node000001_Node000004" class="edge">
<title>Node1&#45;&gt;Node4</title>
<g id="a_edge3_Node000001_Node000004"><a xlink:title=" ">
<path fill="none" stroke="#63b8ff" d="M162.61,-78.64C171.27,-77.63 180.1,-76.6 188.79,-75.59"/>
<polygon fill="#63b8ff" stroke="#63b8ff" points="189.08,-79.08 198.61,-74.45 188.27,-72.13 189.08,-79.08"/>
</a>
</g>
</g>
<!-- Node5 -->
<g id="Node000005" class="node">
<title>Node5</title>
<g id="a_Node000005"><a xlink:href="../../d5/d61/class_window_handler.html#a1c119c52aff2591e273bd3b06a7b9270" target="_top" xlink:title=" ">
<polygon fill="white" stroke="#666666" points="346.25,-32 198.25,-32 198.25,0 346.25,0 346.25,-32"/>
<text text-anchor="start" x="206.25" y="-18.5" font-family="Helvetica,sans-Serif" font-size="10.00">WindowHandler::showSettings</text>
<text text-anchor="middle" x="272.25" y="-6.5" font-family="Helvetica,sans-Serif" font-size="10.00">Window</text>
</a>
</g>
</g>
<!-- Node1&#45;&gt;Node5 -->
<g id="edge4_Node000001_Node000005" class="edge">
<title>Node1&#45;&gt;Node5</title>
<g id="a_edge4_Node000001_Node000005"><a xlink:title=" ">
<path fill="none" stroke="#63b8ff" d="M106.89,-77.52C130.3,-67.72 166.46,-52.87 198.25,-41 202.56,-39.39 207.02,-37.77 211.52,-36.16"/>
<polygon fill="#63b8ff" stroke="#63b8ff" points="212.34,-39.58 220.61,-32.95 210.01,-32.98 212.34,-39.58"/>
</a>
</g>
</g>
</g>
</svg>
