<?xml version="1.0" encoding="UTF-8" standalone="no"?>
<!DOCTYPE svg PUBLIC "-//W3C//DTD SVG 1.1//EN"
 "http://www.w3.org/Graphics/SVG/1.1/DTD/svg11.dtd">
<!-- Generated by graphviz version 9.0.0 (20230911.1827)
 -->
<!-- Title: LauncherWindow::openSettings Pages: 1 -->
<svg width="354pt" height="78pt"
 viewBox="0.00 0.00 354.25 78.00" xmlns="http://www.w3.org/2000/svg" xmlns:xlink="http://www.w3.org/1999/xlink">
<g id="graph0" class="graph" transform="scale(1 1) rotate(0) translate(4 74)">
<title>LauncherWindow::openSettings</title>
<!-- Node1 -->
<g id="Node000001" class="node">
<title>Node1</title>
<g id="a_Node000001"><a xlink:title=" ">
<polygon fill="#999999" stroke="#666666" points="346.25,-42 193,-42 193,-22 346.25,-22 346.25,-42"/>
<text text-anchor="middle" x="269.62" y="-28.5" font-family="Helvetica,sans-Serif" font-size="10.00">LauncherWindow::openSettings</text>
</a>
</g>
</g>
<!-- Node2 -->
<g id="Node000002" class="node">
<title>Node2</title>
<g id="a_Node000002"><a xlink:href="../../dd/d74/class_launcher_window.html#a843ea8d2cb731d1f73d17dafb72055f8" target="_top" xlink:title=" ">
<polygon fill="white" stroke="#666666" points="131.88,-70 25.13,-70 25.13,-38 131.88,-38 131.88,-70"/>
<text text-anchor="start" x="33.12" y="-56.5" font-family="Helvetica,sans-Serif" font-size="10.00">LauncherWindow::on</text>
<text text-anchor="middle" x="78.5" y="-44.5" font-family="Helvetica,sans-Serif" font-size="10.00">_pushButton_clicked</text>
</a>
</g>
</g>
<!-- Node1&#45;&gt;Node2 -->
<g id="edge1_Node000001_Node000002" class="edge">
<title>Node1&#45;&gt;Node2</title>
<g id="a_edge1_Node000001_Node000002"><a xlink:title=" ">
<path fill="none" stroke="#63b8ff" d="M181.53,-42.13C164.7,-44.09 147.55,-46.08 132.24,-47.87"/>
<polygon fill="#63b8ff" stroke="#63b8ff" points="181.49,-45.66 191.01,-41.03 180.68,-38.71 181.49,-45.66"/>
</a>
</g>
</g>
<!-- Node3 -->
<g id="Node000003" class="node">
<title>Node3</title>
<g id="a_Node000003"><a xlink:href="../../d5/d61/class_window_handler.html#adf32b0851c5df8d24cc2c74775e4b94d" target="_top" xlink:title=" ">
<polygon fill="white" stroke="#666666" points="157,-20 0,-20 0,0 157,0 157,-20"/>
<text text-anchor="middle" x="78.5" y="-6.5" font-family="Helvetica,sans-Serif" font-size="10.00">WindowHandler::WindowHandler</text>
</a>
</g>
</g>
<!-- Node1&#45;&gt;Node3 -->
<g id="edge2_Node000001_Node000003" class="edge">
<title>Node1&#45;&gt;Node3</title>
<g id="a_edge2_Node000001_Node000003"><a xlink:title=" ">
<path fill="none" stroke="#63b8ff" d="M181.28,-21.84C173.28,-20.91 165.21,-19.97 157.3,-19.05"/>
<polygon fill="#63b8ff" stroke="#63b8ff" points="180.68,-25.29 191.01,-22.97 181.49,-18.34 180.68,-25.29"/>
</a>
</g>
</g>
</g>
</svg>
