<?xml version="1.0" encoding="UTF-8" standalone="no"?>
<!DOCTYPE svg PUBLIC "-//W3C//DTD SVG 1.1//EN"
 "http://www.w3.org/Graphics/SVG/1.1/DTD/svg11.dtd">
<!-- Generated by graphviz version 9.0.0 (20230911.1827)
 -->
<!-- Title: LauncherWindow::openDevWindow Pages: 1 -->
<svg width="369pt" height="78pt"
 viewBox="0.00 0.00 368.50 78.00" xmlns="http://www.w3.org/2000/svg" xmlns:xlink="http://www.w3.org/1999/xlink">
<g id="graph0" class="graph" transform="scale(1 1) rotate(0) translate(4 74)">
<title>LauncherWindow::openDevWindow</title>
<!-- Node1 -->
<g id="Node000001" class="node">
<title>Node1</title>
<g id="a_Node000001"><a xlink:title=" ">
<polygon fill="#999999" stroke="#666666" points="360.5,-42 193,-42 193,-22 360.5,-22 360.5,-42"/>
<text text-anchor="middle" x="276.75" y="-28.5" font-family="Helvetica,sans-Serif" font-size="10.00">LauncherWindow::openDevWindow</text>
</a>
</g>
</g>
<!-- Node2 -->
<g id="Node000002" class="node">
<title>Node2</title>
<g id="a_Node000002"><a xlink:href="../../dd/d74/class_launcher_window.html#ae42dca7038ff6eed7d35701fdd858e42" target="_top" xlink:title=" ">
<polygon fill="white" stroke="#666666" points="131.88,-70 25.13,-70 25.13,-38 131.88,-38 131.88,-70"/>
<text text-anchor="start" x="33.12" y="-56.5" font-family="Helvetica,sans-Serif" font-size="10.00">LauncherWindow::on</text>
<text text-anchor="middle" x="78.5" y="-44.5" font-family="Helvetica,sans-Serif" font-size="10.00">_inShowDev_clicked</text>
</a>
</g>
</g>
<!-- Node1&#45;&gt;Node2 -->
<g id="edge1_Node000001_Node000002" class="edge">
<title>Node1&#45;&gt;Node2</title>
<g id="a_edge1_Node000001_Node000002"><a xlink:title=" ">
<path fill="none" stroke="#63b8ff" d="M181.42,-42.57C164.46,-44.48 147.35,-46.39 132.12,-48.1"/>
<polygon fill="#63b8ff" stroke="#63b8ff" points="181.47,-46.09 191.02,-41.5 180.69,-39.13 181.47,-46.09"/>
</a>
</g>
</g>
<!-- Node3 -->
<g id="Node000003" class="node">
<title>Node3</title>
<g id="a_Node000003"><a xlink:href="../../d5/d61/class_window_handler.html#adf32b0851c5df8d24cc2c74775e4b94d" target="_top" xlink:title=" ">
<polygon fill="white" stroke="#666666" points="157,-20 0,-20 0,0 157,0 157,-20"/>
<text text-anchor="middle" x="78.5" y="-6.5" font-family="Helvetica,sans-Serif" font-size="10.00">WindowHandler::WindowHandler</text>
</a>
</g>
</g>
<!-- Node1&#45;&gt;Node3 -->
<g id="edge2_Node000001_Node000003" class="edge">
<title>Node1&#45;&gt;Node3</title>
<g id="a_edge2_Node000001_Node000003"><a xlink:title=" ">
<path fill="none" stroke="#63b8ff" d="M181.21,-21.4C173.18,-20.5 165.12,-19.6 157.24,-18.71"/>
<polygon fill="#63b8ff" stroke="#63b8ff" points="180.69,-24.87 191.02,-22.5 181.47,-17.91 180.69,-24.87"/>
</a>
</g>
</g>
</g>
</svg>
