<?xml version="1.0" encoding="UTF-8" standalone="no"?>
<!DOCTYPE svg PUBLIC "-//W3C//DTD SVG 1.1//EN"
 "http://www.w3.org/Graphics/SVG/1.1/DTD/svg11.dtd">
<!-- Generated by graphviz version 9.0.0 (20230911.1827)
 -->
<!-- Title: AposFrontend::DevWindow::setModelViews Pages: 1 -->
<svg xmlns:xlink="http://www.w3.org/1999/xlink" width="315pt"
 height="190pt" viewBox="0.00 0.00 315.25 190.00" xmlns="http://www.w3.org/2000/svg">
<g id="graph0" class="graph" transform="scale(1 1) rotate(0) translate(4 186)">
<title>AposFrontend::DevWindow::setModelViews</title>
<!-- Node1 -->
<g id="Node000001" class="node">
<title>Node1</title>
<g id="a_Node000001"><a xlink:title="Sets the model views.">
<polygon fill="#999999" stroke="#666666" points="307.25,-107 174.25,-107 174.25,-75 307.25,-75 307.25,-107"/>
<text text-anchor="start" x="182.25" y="-93.5" font-family="Helvetica,sans-Serif" font-size="10.00">AposFrontend::DevWindow</text>
<text text-anchor="middle" x="240.75" y="-81.5" font-family="Helvetica,sans-Serif" font-size="10.00">::setModelViews</text>
</a>
</g>
</g>
<!-- Node2 -->
<g id="Node000002" class="node">
<title>Node2</title>
<g id="a_Node000002"><a xlink:href="../../d8/d33/group___slot-_functions.html#ga5dd5707ecd06a83a2f7d3c9f631583a1" target="_top" xlink:title="Slot for the &#39;CloseDB&#39; button click event.">
<polygon fill="white" stroke="#666666" points="135.62,-182 2.62,-182 2.62,-150 135.62,-150 135.62,-182"/>
<text text-anchor="start" x="10.62" y="-168.5" font-family="Helvetica,sans-Serif" font-size="10.00">AposFrontend::DevWindow</text>
<text text-anchor="middle" x="69.12" y="-156.5" font-family="Helvetica,sans-Serif" font-size="10.00">::closeDBClicked</text>
</a>
</g>
</g>
<!-- Node1&#45;&gt;Node2 -->
<g id="edge1_Node000001_Node000002" class="edge">
<title>Node1&#45;&gt;Node2</title>
<g id="a_edge1_Node000001_Node000002"><a xlink:title=" ">
<path fill="none" stroke="#63b8ff" d="M198.58,-112.51C180.31,-121.74 158.42,-132.36 138.25,-141 131.42,-143.93 124.12,-146.83 116.92,-149.57"/>
<polygon fill="#63b8ff" stroke="#63b8ff" points="199.93,-115.76 207.26,-108.1 196.76,-109.52 199.93,-115.76"/>
</a>
</g>
</g>
<!-- Node3 -->
<g id="Node000003" class="node">
<title>Node3</title>
<g id="a_Node000003"><a xlink:href="../../d8/d33/group___slot-_functions.html#ga94f1bcb3a0d4ff36c4651a7d22bbc4ff" target="_top" xlink:title="Slot for the &#39;InitDB&#39; button click event.">
<polygon fill="white" stroke="#666666" points="135.62,-132 2.62,-132 2.62,-100 135.62,-100 135.62,-132"/>
<text text-anchor="start" x="10.62" y="-118.5" font-family="Helvetica,sans-Serif" font-size="10.00">AposFrontend::DevWindow</text>
<text text-anchor="middle" x="69.12" y="-106.5" font-family="Helvetica,sans-Serif" font-size="10.00">::initDbClicked</text>
</a>
</g>
</g>
<!-- Node1&#45;&gt;Node3 -->
<g id="edge2_Node000001_Node000003" class="edge">
<title>Node1&#45;&gt;Node3</title>
<g id="a_edge2_Node000001_Node000003"><a xlink:title=" ">
<path fill="none" stroke="#63b8ff" d="M162.92,-102.32C153.96,-103.64 144.88,-104.98 136.09,-106.28"/>
<polygon fill="#63b8ff" stroke="#63b8ff" points="163.29,-105.81 172.67,-100.89 162.27,-98.88 163.29,-105.81"/>
</a>
</g>
</g>
<!-- Node4 -->
<g id="Node000004" class="node">
<title>Node4</title>
<g id="a_Node000004"><a xlink:href="../../d8/d33/group___slot-_functions.html#ga4951eac56d47f5a30f113cbb58a1acdf" target="_top" xlink:title="Slot for the &#39;SelectTable&#39; button click event.">
<polygon fill="white" stroke="#666666" points="138.25,-82 0,-82 0,-50 138.25,-50 138.25,-82"/>
<text text-anchor="start" x="8" y="-68.5" font-family="Helvetica,sans-Serif" font-size="10.00">AposFrontend::DevWindow</text>
<text text-anchor="middle" x="69.12" y="-56.5" font-family="Helvetica,sans-Serif" font-size="10.00">::selectTableClicked</text>
</a>
</g>
</g>
<!-- Node1&#45;&gt;Node4 -->
<g id="edge3_Node000001_Node000004" class="edge">
<title>Node1&#45;&gt;Node4</title>
<g id="a_edge3_Node000001_Node000004"><a xlink:title=" ">
<path fill="none" stroke="#63b8ff" d="M162.84,-79.67C154.77,-78.47 146.59,-77.27 138.62,-76.09"/>
<polygon fill="#63b8ff" stroke="#63b8ff" points="162.27,-83.12 172.67,-81.11 163.29,-76.19 162.27,-83.12"/>
</a>
</g>
</g>
<!-- Node5 -->
<g id="Node000005" class="node">
<title>Node5</title>
<g id="a_Node000005"><a xlink:href="../../d8/d33/group___slot-_functions.html#gac0dcf66680758b82204e93424b06ebff" target="_top" xlink:title="Slot for the &#39;Update&#39; button click event.">
<polygon fill="white" stroke="#666666" points="135.62,-32 2.62,-32 2.62,0 135.62,0 135.62,-32"/>
<text text-anchor="start" x="10.62" y="-18.5" font-family="Helvetica,sans-Serif" font-size="10.00">AposFrontend::DevWindow</text>
<text text-anchor="middle" x="69.12" y="-6.5" font-family="Helvetica,sans-Serif" font-size="10.00">::updateTableClicked</text>
</a>
</g>
</g>
<!-- Node1&#45;&gt;Node5 -->
<g id="edge4_Node000001_Node000005" class="edge">
<title>Node1&#45;&gt;Node5</title>
<g id="a_edge4_Node000001_Node000005"><a xlink:title=" ">
<path fill="none" stroke="#63b8ff" d="M198.58,-69.49C180.31,-60.26 158.42,-49.64 138.25,-41 131.42,-38.07 124.12,-35.17 116.92,-32.43"/>
<polygon fill="#63b8ff" stroke="#63b8ff" points="196.76,-72.48 207.26,-73.9 199.93,-66.24 196.76,-72.48"/>
</a>
</g>
</g>
</g>
</svg>
