<?xml version="1.0" encoding="UTF-8" standalone="no"?>
<!DOCTYPE svg PUBLIC "-//W3C//DTD SVG 1.1//EN"
 "http://www.w3.org/Graphics/SVG/1.1/DTD/svg11.dtd">
<!-- Generated by graphviz version 9.0.0 (20230911.1827)
 -->
<!-- Title: AposFrontend::DevWindow::setModelViews Pages: 1 -->
<svg width="648pt" height="190pt"
 viewBox="0.00 0.00 648.00 190.00" xmlns="http://www.w3.org/2000/svg" xmlns:xlink="http://www.w3.org/1999/xlink">
<g id="graph0" class="graph" transform="scale(1 1) rotate(0) translate(4 186)">
<title>AposFrontend::DevWindow::setModelViews</title>
<!-- Node1 -->
<g id="Node000001" class="node">
<title>Node1</title>
<g id="a_Node000001"><a xlink:title="Sets the model views.">
<polygon fill="#999999" stroke="#666666" points="640,-107 507,-107 507,-75 640,-75 640,-107"/>
<text text-anchor="start" x="515" y="-93.5" font-family="Helvetica,sans-Serif" font-size="10.00">AposFrontend::DevWindow</text>
<text text-anchor="middle" x="573.5" y="-81.5" font-family="Helvetica,sans-Serif" font-size="10.00">::setModelViews</text>
</a>
</g>
</g>
<!-- Node2 -->
<g id="Node000002" class="node">
<title>Node2</title>
<g id="a_Node000002"><a xlink:href="../../d8/d33/group___slot-_functions.html#gae146dd428f1022b7a3870f48d7ae7ed8" target="_top" xlink:title="Slot for the &#39;CloseDB&#39; button click event.">
<polygon fill="white" stroke="#666666" points="471,-182 338,-182 338,-150 471,-150 471,-182"/>
<text text-anchor="start" x="346" y="-168.5" font-family="Helvetica,sans-Serif" font-size="10.00">AposFrontend::DevWindow</text>
<text text-anchor="middle" x="404.5" y="-156.5" font-family="Helvetica,sans-Serif" font-size="10.00">::closeDbClicked</text>
</a>
</g>
</g>
<!-- Node1&#45;&gt;Node2 -->
<g id="edge1_Node000001_Node000002" class="edge">
<title>Node1&#45;&gt;Node2</title>
<g id="a_edge1_Node000001_Node000002"><a xlink:title=" ">
<path fill="none" stroke="#63b8ff" d="M531.28,-112.39C513,-121.59 491.11,-132.23 471,-141 464.31,-143.92 457.15,-146.84 450.12,-149.61"/>
<polygon fill="#63b8ff" stroke="#63b8ff" points="532.62,-115.63 539.96,-107.99 529.46,-109.39 532.62,-115.63"/>
</a>
</g>
</g>
<!-- Node5 -->
<g id="Node000005" class="node">
<title>Node5</title>
<g id="a_Node000005"><a xlink:href="../../d8/d33/group___slot-_functions.html#ga14d5f4db38883d800bb6f1df2c25d079" target="_top" xlink:title="Slot for the &#39;InitDB&#39; button click event.">
<polygon fill="white" stroke="#666666" points="471,-132 338,-132 338,-100 471,-100 471,-132"/>
<text text-anchor="start" x="346" y="-118.5" font-family="Helvetica,sans-Serif" font-size="10.00">AposFrontend::DevWindow</text>
<text text-anchor="middle" x="404.5" y="-106.5" font-family="Helvetica,sans-Serif" font-size="10.00">::initDbClicked</text>
</a>
</g>
</g>
<!-- Node1&#45;&gt;Node5 -->
<g id="edge4_Node000001_Node000005" class="edge">
<title>Node1&#45;&gt;Node5</title>
<g id="a_edge4_Node000001_Node000005"><a xlink:title=" ">
<path fill="none" stroke="#63b8ff" d="M495.62,-102.51C487.52,-103.72 479.34,-104.95 471.38,-106.14"/>
<polygon fill="#63b8ff" stroke="#63b8ff" points="496.11,-105.98 505.48,-101.03 495.07,-99.05 496.11,-105.98"/>
</a>
</g>
</g>
<!-- Node6 -->
<g id="Node000006" class="node">
<title>Node6</title>
<g id="a_Node000006"><a xlink:href="../../d8/d33/group___slot-_functions.html#ga1890e27f325371c72977a5b6485817ca" target="_top" xlink:title="Slot for the &#39;SelectTable&#39; button click event.">
<polygon fill="white" stroke="#666666" points="471,-82 338,-82 338,-50 471,-50 471,-82"/>
<text text-anchor="start" x="346" y="-68.5" font-family="Helvetica,sans-Serif" font-size="10.00">AposFrontend::DevWindow</text>
<text text-anchor="middle" x="404.5" y="-56.5" font-family="Helvetica,sans-Serif" font-size="10.00">::selectTableClicked</text>
</a>
</g>
</g>
<!-- Node1&#45;&gt;Node6 -->
<g id="edge6_Node000001_Node000006" class="edge">
<title>Node1&#45;&gt;Node6</title>
<g id="a_edge6_Node000001_Node000006"><a xlink:title=" ">
<path fill="none" stroke="#63b8ff" d="M495.62,-79.49C487.52,-78.28 479.34,-77.05 471.38,-75.86"/>
<polygon fill="#63b8ff" stroke="#63b8ff" points="495.07,-82.95 505.48,-80.97 496.11,-76.02 495.07,-82.95"/>
</a>
</g>
</g>
<!-- Node7 -->
<g id="Node000007" class="node">
<title>Node7</title>
<g id="a_Node000007"><a xlink:href="../../d8/d33/group___slot-_functions.html#ga6b20717bf1ad767e3aa3878bb5723f44" target="_top" xlink:title="Slot for the &#39;Update&#39; button click event.">
<polygon fill="white" stroke="#666666" points="471,-32 338,-32 338,0 471,0 471,-32"/>
<text text-anchor="start" x="346" y="-18.5" font-family="Helvetica,sans-Serif" font-size="10.00">AposFrontend::DevWindow</text>
<text text-anchor="middle" x="404.5" y="-6.5" font-family="Helvetica,sans-Serif" font-size="10.00">::updateTableClicked</text>
</a>
</g>
</g>
<!-- Node1&#45;&gt;Node7 -->
<g id="edge8_Node000001_Node000007" class="edge">
<title>Node1&#45;&gt;Node7</title>
<g id="a_edge8_Node000001_Node000007"><a xlink:title=" ">
<path fill="none" stroke="#63b8ff" d="M531.28,-69.61C513,-60.41 491.11,-49.77 471,-41 464.31,-38.08 457.15,-35.16 450.12,-32.39"/>
<polygon fill="#63b8ff" stroke="#63b8ff" points="529.46,-72.61 539.96,-74.01 532.62,-66.37 529.46,-72.61"/>
</a>
</g>
</g>
<!-- Node3 -->
<g id="Node000003" class="node">
<title>Node3</title>
<g id="a_Node000003"><a xlink:href="../../dc/dc2/class_apos_frontend_1_1_dev_window.html#a23ebf9d4eb49ee75ff31618f545b8f98" target="_top" xlink:title=" ">
<polygon fill="white" stroke="#666666" points="302,-107 169,-107 169,-75 302,-75 302,-107"/>
<text text-anchor="start" x="177" y="-93.5" font-family="Helvetica,sans-Serif" font-size="10.00">AposFrontend::DevWindow</text>
<text text-anchor="middle" x="235.5" y="-81.5" font-family="Helvetica,sans-Serif" font-size="10.00">::devConnectUi</text>
</a>
</g>
</g>
<!-- Node2&#45;&gt;Node3 -->
<g id="edge2_Node000002_Node000003" class="edge">
<title>Node2&#45;&gt;Node3</title>
<g id="a_edge2_Node000002_Node000003"><a xlink:title=" ">
<path fill="none" stroke="#63b8ff" d="M348.31,-145.36C344.81,-143.92 341.35,-142.46 338,-141 314.05,-130.56 287.59,-117.47 267.69,-107.3"/>
<polygon fill="#63b8ff" stroke="#63b8ff" points="346.89,-148.56 357.48,-149.04 349.5,-142.07 346.89,-148.56"/>
</a>
</g>
</g>
<!-- Node4 -->
<g id="Node000004" class="node">
<title>Node4</title>
<g id="a_Node000004"><a xlink:href="../../d3/dbc/group___constructructors-_destructors.html#gafa7c4dab5fd2d00d38e0b3f3929978e7" target="_top" xlink:title="Constructor for the DevWindow class.">
<polygon fill="white" stroke="#666666" points="133,-107 0,-107 0,-75 133,-75 133,-107"/>
<text text-anchor="start" x="8" y="-93.5" font-family="Helvetica,sans-Serif" font-size="10.00">AposFrontend::DevWindow</text>
<text text-anchor="middle" x="66.5" y="-81.5" font-family="Helvetica,sans-Serif" font-size="10.00">::DevWindow</text>
</a>
</g>
</g>
<!-- Node3&#45;&gt;Node4 -->
<g id="edge3_Node000003_Node000004" class="edge">
<title>Node3&#45;&gt;Node4</title>
<g id="a_edge3_Node000003_Node000004"><a xlink:title=" ">
<path fill="none" stroke="#63b8ff" d="M157.62,-91C149.52,-91 141.34,-91 133.38,-91"/>
<polygon fill="#63b8ff" stroke="#63b8ff" points="157.46,-94.5 167.46,-91 157.46,-87.5 157.46,-94.5"/>
</a>
</g>
</g>
<!-- Node5&#45;&gt;Node3 -->
<g id="edge5_Node000005_Node000003" class="edge">
<title>Node5&#45;&gt;Node3</title>
<g id="a_edge5_Node000005_Node000003"><a xlink:title=" ">
<path fill="none" stroke="#63b8ff" d="M326.62,-104.49C318.52,-103.28 310.34,-102.05 302.38,-100.86"/>
<polygon fill="#63b8ff" stroke="#63b8ff" points="326.07,-107.95 336.48,-105.97 327.11,-101.02 326.07,-107.95"/>
</a>
</g>
</g>
<!-- Node6&#45;&gt;Node3 -->
<g id="edge7_Node000006_Node000003" class="edge">
<title>Node6&#45;&gt;Node3</title>
<g id="a_edge7_Node000006_Node000003"><a xlink:title=" ">
<path fill="none" stroke="#63b8ff" d="M326.62,-77.51C318.52,-78.72 310.34,-79.95 302.38,-81.14"/>
<polygon fill="#63b8ff" stroke="#63b8ff" points="327.11,-80.98 336.48,-76.03 326.07,-74.05 327.11,-80.98"/>
</a>
</g>
</g>
<!-- Node7&#45;&gt;Node3 -->
<g id="edge9_Node000007_Node000003" class="edge">
<title>Node7&#45;&gt;Node3</title>
<g id="a_edge9_Node000007_Node000003"><a xlink:title=" ">
<path fill="none" stroke="#63b8ff" d="M348.31,-36.64C344.81,-38.08 341.35,-39.54 338,-41 314.05,-51.44 287.59,-64.53 267.69,-74.7"/>
<polygon fill="#63b8ff" stroke="#63b8ff" points="349.5,-39.93 357.48,-32.96 346.89,-33.44 349.5,-39.93"/>
</a>
</g>
</g>
</g>
</svg>
