<?xml version="1.0" encoding="UTF-8" standalone="no"?>
<!DOCTYPE svg PUBLIC "-//W3C//DTD SVG 1.1//EN"
 "http://www.w3.org/Graphics/SVG/1.1/DTD/svg11.dtd">
<!-- Generated by graphviz version 9.0.0 (20230911.1827)
 -->
<!-- Title: C:/Users/Clean/Documents/Projekte/Apos&#45;DatabaseManager/Project/classes/frontendClasses/settingswindow.hpp Pages: 1 -->
<svg width="525pt" height="312pt"
 viewBox="0.00 0.00 525.25 312.00" xmlns="http://www.w3.org/2000/svg" xmlns:xlink="http://www.w3.org/1999/xlink">
<g id="graph0" class="graph" transform="scale(1 1) rotate(0) translate(4 308)">
<title>C:/Users/Clean/Documents/Projekte/Apos&#45;DatabaseManager/Project/classes/frontendClasses/settingswindow.hpp</title>
<!-- Node1 -->
<g id="Node000001" class="node">
<title>Node1</title>
<g id="a_Node000001"><a xlink:title="Header file for the SettingsWindow class.">
<polygon fill="#999999" stroke="#666666" points="291.25,-304 129,-304 129,-248 291.25,-248 291.25,-304"/>
<text text-anchor="start" x="137" y="-290.5" font-family="Helvetica,sans-Serif" font-size="10.00">C:/Users/Clean/Documents</text>
<text text-anchor="start" x="137" y="-278.5" font-family="Helvetica,sans-Serif" font-size="10.00">/Projekte/Apos&#45;DatabaseManager</text>
<text text-anchor="start" x="137" y="-266.5" font-family="Helvetica,sans-Serif" font-size="10.00">/Project/classes/frontendClasses</text>
<text text-anchor="middle" x="210.12" y="-254.5" font-family="Helvetica,sans-Serif" font-size="10.00">/settingswindow.hpp</text>
</a>
</g>
</g>
<!-- Node2 -->
<g id="Node000002" class="node">
<title>Node2</title>
<g id="a_Node000002"><a xlink:title=" ">
<polygon fill="#e0e0e0" stroke="#999999" points="54.25,-212 0,-212 0,-192 54.25,-192 54.25,-212"/>
<text text-anchor="middle" x="27.12" y="-198.5" font-family="Helvetica,sans-Serif" font-size="10.00">QWidget</text>
</a>
</g>
</g>
<!-- Node1&#45;&gt;Node2 -->
<g id="edge1_Node000001_Node000002" class="edge">
<title>Node1&#45;&gt;Node2</title>
<g id="a_edge1_Node000001_Node000002"><a xlink:title=" ">
<path fill="none" stroke="#63b8ff" d="M140.42,-247.57C113.46,-236.97 83.82,-225.31 61.62,-216.57"/>
<polygon fill="#63b8ff" stroke="#63b8ff" points="63.05,-213.37 52.46,-212.97 60.49,-219.89 63.05,-213.37"/>
</a>
</g>
</g>
<!-- Node3 -->
<g id="Node000003" class="node">
<title>Node3</title>
<g id="a_Node000003"><a xlink:title=" ">
<polygon fill="#e0e0e0" stroke="#999999" points="265.75,-20 214.5,-20 214.5,0 265.75,0 265.75,-20"/>
<text text-anchor="middle" x="240.12" y="-6.5" font-family="Helvetica,sans-Serif" font-size="10.00">QDebug</text>
</a>
</g>
</g>
<!-- Node1&#45;&gt;Node3 -->
<g id="edge2_Node000001_Node000003" class="edge">
<title>Node1&#45;&gt;Node3</title>
<g id="a_edge2_Node000001_Node000003"><a xlink:title=" ">
<path fill="none" stroke="#63b8ff" d="M151.82,-247.53C137.24,-238.14 122.97,-226.31 113.12,-212 90.74,-179.49 84.17,-159.64 101.12,-124 123.37,-77.25 175.47,-43.51 209.18,-25.64"/>
<polygon fill="#63b8ff" stroke="#63b8ff" points="210.77,-28.76 218.08,-21.08 207.58,-22.53 210.77,-28.76"/>
</a>
</g>
</g>
<!-- Node4 -->
<g id="Node000004" class="node">
<title>Node4</title>
<g id="a_Node000004"><a xlink:href="../../d5/dcc/objecthandler_8hpp.html" target="_top" xlink:title="Header file for the ObjectHandler class.">
<polygon fill="white" stroke="#666666" points="298.38,-212 121.88,-212 121.88,-192 298.38,-192 298.38,-212"/>
<text text-anchor="middle" x="210.12" y="-198.5" font-family="Helvetica,sans-Serif" font-size="10.00">../backendClasses/objecthandler.hpp</text>
</a>
</g>
</g>
<!-- Node1&#45;&gt;Node4 -->
<g id="edge3_Node000001_Node000004" class="edge">
<title>Node1&#45;&gt;Node4</title>
<g id="a_edge3_Node000001_Node000004"><a xlink:title=" ">
<path fill="none" stroke="#63b8ff" d="M210.12,-247.78C210.12,-239.82 210.12,-231.25 210.12,-223.76"/>
<polygon fill="#63b8ff" stroke="#63b8ff" points="213.63,-223.99 210.13,-213.99 206.63,-223.99 213.63,-223.99"/>
</a>
</g>
</g>
<!-- Node9 -->
<g id="Node000009" class="node">
<title>Node9</title>
<g id="a_Node000009"><a xlink:href="../../d7/dfa/translatablewindow_8hpp.html" target="_top" xlink:title="Header file for the TranslatableWindow class.">
<polygon fill="white" stroke="#666666" points="433.38,-212 316.88,-212 316.88,-192 433.38,-192 433.38,-212"/>
<text text-anchor="middle" x="375.12" y="-198.5" font-family="Helvetica,sans-Serif" font-size="10.00">translatablewindow.hpp</text>
</a>
</g>
</g>
<!-- Node1&#45;&gt;Node9 -->
<g id="edge14_Node000001_Node000009" class="edge">
<title>Node1&#45;&gt;Node9</title>
<g id="a_edge14_Node000001_Node000009"><a xlink:title=" ">
<path fill="none" stroke="#63b8ff" d="M272.98,-247.57C296.95,-237.11 323.28,-225.63 343.2,-216.93"/>
<polygon fill="#63b8ff" stroke="#63b8ff" points="344.4,-220.23 352.16,-213.02 341.6,-213.81 344.4,-220.23"/>
</a>
</g>
</g>
<!-- Node10 -->
<g id="Node000010" class="node">
<title>Node10</title>
<g id="a_Node000010"><a xlink:title=" ">
<polygon fill="#e0e0e0" stroke="#999999" points="517.25,-212 451,-212 451,-192 517.25,-192 517.25,-212"/>
<text text-anchor="middle" x="484.12" y="-198.5" font-family="Helvetica,sans-Serif" font-size="10.00">QTranslator</text>
</a>
</g>
</g>
<!-- Node1&#45;&gt;Node10 -->
<g id="edge15_Node000001_Node000010" class="edge">
<title>Node1&#45;&gt;Node10</title>
<g id="a_edge15_Node000001_Node000010"><a xlink:title=" ">
<path fill="none" stroke="#63b8ff" d="M291.59,-253.59C340.08,-240.85 399.74,-225.17 439.69,-214.68"/>
<polygon fill="#63b8ff" stroke="#63b8ff" points="440.41,-218.11 449.19,-212.18 438.63,-211.34 440.41,-218.11"/>
</a>
</g>
</g>
<!-- Node4&#45;&gt;Node3 -->
<g id="edge5_Node000004_Node000003" class="edge">
<title>Node4&#45;&gt;Node3</title>
<g id="a_edge5_Node000004_Node000003"><a xlink:title=" ">
<path fill="none" stroke="#63b8ff" d="M209.24,-191.63C207.3,-168.26 203.89,-105.68 217.12,-56 219.52,-47.01 223.88,-37.75 228.16,-29.98"/>
<polygon fill="#63b8ff" stroke="#63b8ff" points="231.11,-31.87 233.18,-21.48 225.08,-28.31 231.11,-31.87"/>
</a>
</g>
</g>
<!-- Node5 -->
<g id="Node000005" class="node">
<title>Node5</title>
<g id="a_Node000005"><a xlink:title=" ">
<polygon fill="#e0e0e0" stroke="#999999" points="181.88,-150 110.38,-150 110.38,-130 181.88,-130 181.88,-150"/>
<text text-anchor="middle" x="146.12" y="-136.5" font-family="Helvetica,sans-Serif" font-size="10.00">QApplication</text>
</a>
</g>
</g>
<!-- Node4&#45;&gt;Node5 -->
<g id="edge4_Node000004_Node000005" class="edge">
<title>Node4&#45;&gt;Node5</title>
<g id="a_edge4_Node000004_Node000005"><a xlink:title=" ">
<path fill="none" stroke="#63b8ff" d="M200.12,-191.62C190.49,-182.59 175.69,-168.72 164.02,-157.78"/>
<polygon fill="#63b8ff" stroke="#63b8ff" points="166.64,-155.43 156.95,-151.15 161.85,-160.54 166.64,-155.43"/>
</a>
</g>
</g>
<!-- Node6 -->
<g id="Node000006" class="node">
<title>Node6</title>
<g id="a_Node000006"><a xlink:title=" ">
<polygon fill="#e0e0e0" stroke="#999999" points="422.5,-20 381.75,-20 381.75,0 422.5,0 422.5,-20"/>
<text text-anchor="middle" x="402.12" y="-6.5" font-family="Helvetica,sans-Serif" font-size="10.00">QtSql</text>
</a>
</g>
</g>
<!-- Node4&#45;&gt;Node6 -->
<g id="edge6_Node000004_Node000006" class="edge">
<title>Node4&#45;&gt;Node6</title>
<g id="a_edge6_Node000004_Node000006"><a xlink:title=" ">
<path fill="none" stroke="#63b8ff" d="M298.75,-193.1C348.89,-186.59 404.6,-175.21 420.12,-156 449.4,-119.79 427.44,-60.96 412.67,-30.57"/>
<polygon fill="#63b8ff" stroke="#63b8ff" points="415.84,-29.07 408.17,-21.76 409.6,-32.26 415.84,-29.07"/>
</a>
</g>
</g>
<!-- Node7 -->
<g id="Node000007" class="node">
<title>Node7</title>
<g id="a_Node000007"><a xlink:href="../../de/d60/databasehandler_8hpp.html" target="_top" xlink:title="Header file for the DatabaseHandler class.">
<polygon fill="white" stroke="#666666" points="335.62,-88 226.62,-88 226.62,-56 335.62,-56 335.62,-88"/>
<text text-anchor="start" x="234.62" y="-74.5" font-family="Helvetica,sans-Serif" font-size="10.00">../databaseClasses</text>
<text text-anchor="middle" x="281.12" y="-62.5" font-family="Helvetica,sans-Serif" font-size="10.00">/databasehandler.hpp</text>
</a>
</g>
</g>
<!-- Node4&#45;&gt;Node7 -->
<g id="edge7_Node000004_Node000007" class="edge">
<title>Node4&#45;&gt;Node7</title>
<g id="a_edge7_Node000004_Node000007"><a xlink:title=" ">
<path fill="none" stroke="#63b8ff" d="M215.23,-191.79C225.99,-172.39 251.32,-126.74 267.25,-98.01"/>
<polygon fill="#63b8ff" stroke="#63b8ff" points="270.13,-100.04 271.92,-89.6 264.01,-96.64 270.13,-100.04"/>
</a>
</g>
</g>
<!-- Node8 -->
<g id="Node000008" class="node">
<title>Node8</title>
<g id="a_Node000008"><a xlink:href="../../df/d46/tablehandler_8hpp.html" target="_top" xlink:title="Header file for the TableHandler class.">
<polygon fill="white" stroke="#666666" points="411.12,-156 311.12,-156 311.12,-124 411.12,-124 411.12,-156"/>
<text text-anchor="start" x="319.12" y="-142.5" font-family="Helvetica,sans-Serif" font-size="10.00">../databaseClasses</text>
<text text-anchor="middle" x="361.12" y="-130.5" font-family="Helvetica,sans-Serif" font-size="10.00">/tablehandler.hpp</text>
</a>
</g>
</g>
<!-- Node4&#45;&gt;Node8 -->
<g id="edge10_Node000004_Node000008" class="edge">
<title>Node4&#45;&gt;Node8</title>
<g id="a_edge10_Node000004_Node000008"><a xlink:title=" ">
<path fill="none" stroke="#63b8ff" d="M233.72,-191.62C254.5,-183.37 285.44,-171.07 311.63,-160.67"/>
<polygon fill="#63b8ff" stroke="#63b8ff" points="312.73,-163.99 320.73,-157.05 310.15,-157.49 312.73,-163.99"/>
</a>
</g>
</g>
<!-- Node7&#45;&gt;Node3 -->
<g id="edge8_Node000007_Node000003" class="edge">
<title>Node7&#45;&gt;Node3</title>
<g id="a_edge8_Node000007_Node000003"><a xlink:title=" ">
<path fill="none" stroke="#63b8ff" d="M270.57,-55.55C265.17,-47.65 258.56,-37.97 252.88,-29.66"/>
<polygon fill="#63b8ff" stroke="#63b8ff" points="255.94,-27.94 247.41,-21.66 250.16,-31.89 255.94,-27.94"/>
</a>
</g>
</g>
<!-- Node7&#45;&gt;Node6 -->
<g id="edge9_Node000007_Node000006" class="edge">
<title>Node7&#45;&gt;Node6</title>
<g id="a_edge9_Node000007_Node000006"><a xlink:title=" ">
<path fill="none" stroke="#63b8ff" d="M312.29,-55.55C331.02,-46.26 354.7,-34.52 373.04,-25.42"/>
<polygon fill="#63b8ff" stroke="#63b8ff" points="374.39,-28.66 381.8,-21.08 371.28,-22.39 374.39,-28.66"/>
</a>
</g>
</g>
<!-- Node8&#45;&gt;Node3 -->
<g id="edge11_Node000008_Node000003" class="edge">
<title>Node8&#45;&gt;Node3</title>
<g id="a_edge11_Node000008_Node000003"><a xlink:title=" ">
<path fill="none" stroke="#63b8ff" d="M362.22,-123.77C362.7,-105.65 360.78,-75.43 345.12,-56 328.31,-35.12 299.98,-23.75 276.98,-17.66"/>
<polygon fill="#63b8ff" stroke="#63b8ff" points="277.87,-14.28 267.34,-15.36 276.25,-21.08 277.87,-14.28"/>
</a>
</g>
</g>
<!-- Node8&#45;&gt;Node6 -->
<g id="edge12_Node000008_Node000006" class="edge">
<title>Node8&#45;&gt;Node6</title>
<g id="a_edge12_Node000008_Node000006"><a xlink:title=" ">
<path fill="none" stroke="#63b8ff" d="M366.26,-123.85C369.67,-113.72 374.23,-100.08 378.12,-88 384.36,-68.65 391.25,-46.48 396.03,-30.92"/>
<polygon fill="#63b8ff" stroke="#63b8ff" points="399.34,-32.06 398.93,-21.47 392.65,-30.01 399.34,-32.06"/>
</a>
</g>
</g>
<!-- Node8&#45;&gt;Node7 -->
<g id="edge13_Node000008_Node000007" class="edge">
<title>Node8&#45;&gt;Node7</title>
<g id="a_edge13_Node000008_Node000007"><a xlink:title=" ">
<path fill="none" stroke="#63b8ff" d="M342.57,-123.69C332.45,-115.34 319.72,-104.84 308.48,-95.56"/>
<polygon fill="#63b8ff" stroke="#63b8ff" points="310.96,-93.08 301.02,-89.42 306.51,-98.48 310.96,-93.08"/>
</a>
</g>
</g>
</g>
</svg>
