<?xml version="1.0" encoding="UTF-8" standalone="no"?>
<!DOCTYPE svg PUBLIC "-//W3C//DTD SVG 1.1//EN"
 "http://www.w3.org/Graphics/SVG/1.1/DTD/svg11.dtd">
<!-- Generated by graphviz version 9.0.0 (20230911.1827)
 -->
<!-- Title: C:/Users/Clean/Documents/Projekte/Apos&#45;DatabaseManager/Project/classes/databaseClasses/tablehandler.cpp Pages: 1 -->
<svg width="229pt" height="232pt"
 viewBox="0.00 0.00 228.88 232.00" xmlns="http://www.w3.org/2000/svg" xmlns:xlink="http://www.w3.org/1999/xlink">
<g id="graph0" class="graph" transform="scale(1 1) rotate(0) translate(4 228)">
<title>C:/Users/Clean/Documents/Projekte/Apos&#45;DatabaseManager/Project/classes/databaseClasses/tablehandler.cpp</title>
<!-- Node1 -->
<g id="Node000001" class="node">
<title>Node1</title>
<g id="a_Node000001"><a xlink:title="Source file for the TableHandler class.">
<polygon fill="#999999" stroke="#666666" points="220.88,-224 56.38,-224 56.38,-168 220.88,-168 220.88,-224"/>
<text text-anchor="start" x="64.38" y="-210.5" font-family="Helvetica,sans-Serif" font-size="10.00">C:/Users/Clean/Documents</text>
<text text-anchor="start" x="64.38" y="-198.5" font-family="Helvetica,sans-Serif" font-size="10.00">/Projekte/Apos&#45;DatabaseManager</text>
<text text-anchor="start" x="64.38" y="-186.5" font-family="Helvetica,sans-Serif" font-size="10.00">/Project/classes/databaseClasses</text>
<text text-anchor="middle" x="138.62" y="-174.5" font-family="Helvetica,sans-Serif" font-size="10.00">/tablehandler.cpp</text>
</a>
</g>
</g>
<!-- Node2 -->
<g id="Node000002" class="node">
<title>Node2</title>
<g id="a_Node000002"><a xlink:href="../../df/d46/tablehandler_8hpp.html" target="_top" xlink:title="Header file for the TableHandler class.">
<polygon fill="white" stroke="#666666" points="142.25,-132 55,-132 55,-112 142.25,-112 142.25,-132"/>
<text text-anchor="middle" x="98.62" y="-118.5" font-family="Helvetica,sans-Serif" font-size="10.00">tablehandler.hpp</text>
</a>
</g>
</g>
<!-- Node1&#45;&gt;Node2 -->
<g id="edge1_Node000001_Node000002" class="edge">
<title>Node1&#45;&gt;Node2</title>
<g id="a_edge1_Node000001_Node000002"><a xlink:title=" ">
<path fill="none" stroke="#63b8ff" d="M123.5,-167.78C118.81,-159.34 113.74,-150.2 109.4,-142.4"/>
<polygon fill="#63b8ff" stroke="#63b8ff" points="112.54,-140.84 104.62,-133.8 106.42,-144.24 112.54,-140.84"/>
</a>
</g>
</g>
<!-- Node6 -->
<g id="Node000006" class="node">
<title>Node6</title>
<g id="a_Node000006"><a xlink:title=" ">
<polygon fill="#e0e0e0" stroke="#999999" points="199.25,-132 160,-132 160,-112 199.25,-112 199.25,-132"/>
<text text-anchor="middle" x="179.62" y="-118.5" font-family="Helvetica,sans-Serif" font-size="10.00">utility</text>
</a>
</g>
</g>
<!-- Node1&#45;&gt;Node6 -->
<g id="edge7_Node000001_Node000006" class="edge">
<title>Node1&#45;&gt;Node6</title>
<g id="a_edge7_Node000001_Node000006"><a xlink:title=" ">
<path fill="none" stroke="#63b8ff" d="M154.13,-167.78C158.93,-159.34 164.13,-150.2 168.58,-142.4"/>
<polygon fill="#63b8ff" stroke="#63b8ff" points="171.57,-144.21 173.48,-133.79 165.49,-140.75 171.57,-144.21"/>
</a>
</g>
</g>
<!-- Node3 -->
<g id="Node000003" class="node">
<title>Node3</title>
<g id="a_Node000003"><a xlink:title=" ">
<polygon fill="#e0e0e0" stroke="#999999" points="51.25,-20 0,-20 0,0 51.25,0 51.25,-20"/>
<text text-anchor="middle" x="25.62" y="-6.5" font-family="Helvetica,sans-Serif" font-size="10.00">QDebug</text>
</a>
</g>
</g>
<!-- Node2&#45;&gt;Node3 -->
<g id="edge2_Node000002_Node000003" class="edge">
<title>Node2&#45;&gt;Node3</title>
<g id="a_edge2_Node000002_Node000003"><a xlink:title=" ">
<path fill="none" stroke="#63b8ff" d="M78.32,-111.56C64.32,-103.97 46.51,-91.94 36.62,-76 28.39,-62.73 25.81,-45.15 25.2,-31.62"/>
<polygon fill="#63b8ff" stroke="#63b8ff" points="28.7,-31.64 25.1,-21.67 21.7,-31.7 28.7,-31.64"/>
</a>
</g>
</g>
<!-- Node4 -->
<g id="Node000004" class="node">
<title>Node4</title>
<g id="a_Node000004"><a xlink:title=" ">
<polygon fill="#e0e0e0" stroke="#999999" points="159,-20 118.25,-20 118.25,0 159,0 159,-20"/>
<text text-anchor="middle" x="138.62" y="-6.5" font-family="Helvetica,sans-Serif" font-size="10.00">QtSql</text>
</a>
</g>
</g>
<!-- Node2&#45;&gt;Node4 -->
<g id="edge3_Node000002_Node000004" class="edge">
<title>Node2&#45;&gt;Node4</title>
<g id="a_edge3_Node000002_Node000004"><a xlink:title=" ">
<path fill="none" stroke="#63b8ff" d="M120.69,-111.55C134.92,-104.15 152.29,-92.35 160.62,-76 168.23,-61.09 160.86,-42.98 152.67,-29.66"/>
<polygon fill="#63b8ff" stroke="#63b8ff" points="155.57,-27.7 147.04,-21.41 149.79,-31.65 155.57,-27.7"/>
</a>
</g>
</g>
<!-- Node5 -->
<g id="Node000005" class="node">
<title>Node5</title>
<g id="a_Node000005"><a xlink:href="../../de/d60/databasehandler_8hpp.html" target="_top" xlink:title="Header file for the DatabaseHandler class.">
<polygon fill="white" stroke="#666666" points="151.62,-76 45.62,-76 45.62,-56 151.62,-56 151.62,-76"/>
<text text-anchor="middle" x="98.62" y="-62.5" font-family="Helvetica,sans-Serif" font-size="10.00">databasehandler.hpp</text>
</a>
</g>
</g>
<!-- Node2&#45;&gt;Node5 -->
<g id="edge4_Node000002_Node000005" class="edge">
<title>Node2&#45;&gt;Node5</title>
<g id="a_edge4_Node000002_Node000005"><a xlink:title=" ">
<path fill="none" stroke="#63b8ff" d="M98.62,-111.59C98.62,-105.01 98.62,-95.96 98.62,-87.73"/>
<polygon fill="#63b8ff" stroke="#63b8ff" points="102.13,-87.81 98.63,-77.81 95.13,-87.81 102.13,-87.81"/>
</a>
</g>
</g>
<!-- Node5&#45;&gt;Node3 -->
<g id="edge5_Node000005_Node000003" class="edge">
<title>Node5&#45;&gt;Node3</title>
<g id="a_edge5_Node000005_Node000003"><a xlink:title=" ">
<path fill="none" stroke="#63b8ff" d="M85.91,-55.59C75.23,-47.7 59.75,-36.24 47.14,-26.92"/>
<polygon fill="#63b8ff" stroke="#63b8ff" points="49.53,-24.33 39.41,-21.2 45.37,-29.96 49.53,-24.33"/>
</a>
</g>
</g>
<!-- Node5&#45;&gt;Node4 -->
<g id="edge6_Node000005_Node000004" class="edge">
<title>Node5&#45;&gt;Node4</title>
<g id="a_edge6_Node000005_Node000004"><a xlink:title=" ">
<path fill="none" stroke="#63b8ff" d="M105.59,-55.59C110.93,-48.39 118.45,-38.23 124.97,-29.43"/>
<polygon fill="#63b8ff" stroke="#63b8ff" points="127.7,-31.63 130.84,-21.51 122.07,-27.47 127.7,-31.63"/>
</a>
</g>
</g>
</g>
</svg>
