<?xml version="1.0" encoding="UTF-8" standalone="no"?>
<!DOCTYPE svg PUBLIC "-//W3C//DTD SVG 1.1//EN"
 "http://www.w3.org/Graphics/SVG/1.1/DTD/svg11.dtd">
<!-- Generated by graphviz version 9.0.0 (20230911.1827)
 -->
<!-- Title: C:/Users/Clean/Documents/Projekte/Apos&#45;DatabaseManager/Project/classes/databaseClasses/tablehandler.cpp Pages: 1 -->
<svg width="173pt" height="176pt"
 viewBox="0.00 0.00 172.50 176.00" xmlns="http://www.w3.org/2000/svg" xmlns:xlink="http://www.w3.org/1999/xlink">
<g id="graph0" class="graph" transform="scale(1 1) rotate(0) translate(4 172)">
<title>C:/Users/Clean/Documents/Projekte/Apos&#45;DatabaseManager/Project/classes/databaseClasses/tablehandler.cpp</title>
<!-- Node1 -->
<g id="Node000001" class="node">
<title>Node1</title>
<g id="a_Node000001"><a xlink:title=" ">
<polygon fill="#999999" stroke="#666666" points="164.5,-168 0,-168 0,-112 164.5,-112 164.5,-168"/>
<text text-anchor="start" x="8" y="-154.5" font-family="Helvetica,sans-Serif" font-size="10.00">C:/Users/Clean/Documents</text>
<text text-anchor="start" x="8" y="-142.5" font-family="Helvetica,sans-Serif" font-size="10.00">/Projekte/Apos&#45;DatabaseManager</text>
<text text-anchor="start" x="8" y="-130.5" font-family="Helvetica,sans-Serif" font-size="10.00">/Project/classes/databaseClasses</text>
<text text-anchor="middle" x="82.25" y="-118.5" font-family="Helvetica,sans-Serif" font-size="10.00">/tablehandler.cpp</text>
</a>
</g>
</g>
<!-- Node2 -->
<g id="Node000002" class="node">
<title>Node2</title>
<g id="a_Node000002"><a xlink:href="../../df/d46/tablehandler_8hpp.html" target="_top" xlink:title=" ">
<polygon fill="white" stroke="#666666" points="125.88,-76 38.62,-76 38.62,-56 125.88,-56 125.88,-76"/>
<text text-anchor="middle" x="82.25" y="-62.5" font-family="Helvetica,sans-Serif" font-size="10.00">tablehandler.hpp</text>
</a>
</g>
</g>
<!-- Node1&#45;&gt;Node2 -->
<g id="edge1_Node000001_Node000002" class="edge">
<title>Node1&#45;&gt;Node2</title>
<g id="a_edge1_Node000001_Node000002"><a xlink:title=" ">
<path fill="none" stroke="#63b8ff" d="M82.25,-111.78C82.25,-103.82 82.25,-95.25 82.25,-87.76"/>
<polygon fill="#63b8ff" stroke="#63b8ff" points="85.75,-87.99 82.25,-77.99 78.75,-87.99 85.75,-87.99"/>
</a>
</g>
</g>
<!-- Node3 -->
<g id="Node000003" class="node">
<title>Node3</title>
<g id="a_Node000003"><a xlink:title=" ">
<polygon fill="#e0e0e0" stroke="#999999" points="75.88,-20 24.62,-20 24.62,0 75.88,0 75.88,-20"/>
<text text-anchor="middle" x="50.25" y="-6.5" font-family="Helvetica,sans-Serif" font-size="10.00">QDebug</text>
</a>
</g>
</g>
<!-- Node2&#45;&gt;Node3 -->
<g id="edge2_Node000002_Node000003" class="edge">
<title>Node2&#45;&gt;Node3</title>
<g id="a_edge2_Node000002_Node000003"><a xlink:title=" ">
<path fill="none" stroke="#63b8ff" d="M76.68,-55.59C72.5,-48.55 66.65,-38.67 61.51,-30"/>
<polygon fill="#63b8ff" stroke="#63b8ff" points="64.64,-28.42 56.53,-21.6 58.62,-31.99 64.64,-28.42"/>
</a>
</g>
</g>
<!-- Node4 -->
<g id="Node000004" class="node">
<title>Node4</title>
<g id="a_Node000004"><a xlink:title=" ">
<polygon fill="#e0e0e0" stroke="#999999" points="134.62,-20 93.88,-20 93.88,0 134.62,0 134.62,-20"/>
<text text-anchor="middle" x="114.25" y="-6.5" font-family="Helvetica,sans-Serif" font-size="10.00">QtSql</text>
</a>
</g>
</g>
<!-- Node2&#45;&gt;Node4 -->
<g id="edge3_Node000002_Node000004" class="edge">
<title>Node2&#45;&gt;Node4</title>
<g id="a_edge3_Node000002_Node000004"><a xlink:title=" ">
<path fill="none" stroke="#63b8ff" d="M87.82,-55.59C92,-48.55 97.85,-38.67 102.99,-30"/>
<polygon fill="#63b8ff" stroke="#63b8ff" points="105.88,-31.99 107.97,-21.6 99.86,-28.42 105.88,-31.99"/>
</a>
</g>
</g>
</g>
</svg>
