<?xml version="1.0" encoding="UTF-8" standalone="no"?>
<!DOCTYPE svg PUBLIC "-//W3C//DTD SVG 1.1//EN"
 "http://www.w3.org/Graphics/SVG/1.1/DTD/svg11.dtd">
<!-- Generated by graphviz version 9.0.0 (20230911.1827)
 -->
<!-- Title: C:/Users/Clean/Documents/Projekte/Apos&#45;DatabaseManager/Project/classes/frontendClasses/translatablewindow.hpp Pages: 1 -->
<svg width="748pt" height="340pt"
 viewBox="0.00 0.00 747.62 340.00" xmlns="http://www.w3.org/2000/svg" xmlns:xlink="http://www.w3.org/1999/xlink">
<g id="graph0" class="graph" transform="scale(1 1) rotate(0) translate(4 336)">
<title>C:/Users/Clean/Documents/Projekte/Apos&#45;DatabaseManager/Project/classes/frontendClasses/translatablewindow.hpp</title>
<!-- Node1 -->
<g id="Node000001" class="node">
<title>Node1</title>
<g id="a_Node000001"><a xlink:title=" ">
<polygon fill="#999999" stroke="#666666" points="379.62,-332 217.37,-332 217.37,-276 379.62,-276 379.62,-332"/>
<text text-anchor="start" x="225.37" y="-318.5" font-family="Helvetica,sans-Serif" font-size="10.00">C:/Users/Clean/Documents</text>
<text text-anchor="start" x="225.37" y="-306.5" font-family="Helvetica,sans-Serif" font-size="10.00">/Projekte/Apos&#45;DatabaseManager</text>
<text text-anchor="start" x="225.37" y="-294.5" font-family="Helvetica,sans-Serif" font-size="10.00">/Project/classes/frontendClasses</text>
<text text-anchor="middle" x="298.5" y="-282.5" font-family="Helvetica,sans-Serif" font-size="10.00">/translatablewindow.hpp</text>
</a>
</g>
</g>
<!-- Node2 -->
<g id="Node000002" class="node">
<title>Node2</title>
<g id="a_Node000002"><a xlink:href="../../d5/d65/devwindow_8hpp.html" target="_top" xlink:title=" ">
<polygon fill="white" stroke="#666666" points="199.62,-240 37.37,-240 37.37,-184 199.62,-184 199.62,-240"/>
<text text-anchor="start" x="45.37" y="-226.5" font-family="Helvetica,sans-Serif" font-size="10.00">C:/Users/Clean/Documents</text>
<text text-anchor="start" x="45.37" y="-214.5" font-family="Helvetica,sans-Serif" font-size="10.00">/Projekte/Apos&#45;DatabaseManager</text>
<text text-anchor="start" x="45.37" y="-202.5" font-family="Helvetica,sans-Serif" font-size="10.00">/Project/classes/frontendClasses</text>
<text text-anchor="middle" x="118.5" y="-190.5" font-family="Helvetica,sans-Serif" font-size="10.00">/devwindow.hpp</text>
</a>
</g>
</g>
<!-- Node1&#45;&gt;Node2 -->
<g id="edge1_Node000001_Node000002" class="edge">
<title>Node1&#45;&gt;Node2</title>
<g id="a_edge1_Node000001_Node000002"><a xlink:title=" ">
<path fill="none" stroke="#63b8ff" d="M233.41,-270.46C213.76,-260.63 192.38,-249.94 173.46,-240.48"/>
<polygon fill="#63b8ff" stroke="#63b8ff" points="231.65,-273.49 242.16,-274.83 234.78,-267.23 231.65,-273.49"/>
</a>
</g>
</g>
<!-- Node5 -->
<g id="Node000005" class="node">
<title>Node5</title>
<g id="a_Node000005"><a xlink:href="../../d0/d1d/windowhandler_8cpp.html" target="_top" xlink:title=" ">
<polygon fill="white" stroke="#666666" points="235.62,-56 73.37,-56 73.37,0 235.62,0 235.62,-56"/>
<text text-anchor="start" x="81.37" y="-42.5" font-family="Helvetica,sans-Serif" font-size="10.00">C:/Users/Clean/Documents</text>
<text text-anchor="start" x="81.37" y="-30.5" font-family="Helvetica,sans-Serif" font-size="10.00">/Projekte/Apos&#45;DatabaseManager</text>
<text text-anchor="start" x="81.37" y="-18.5" font-family="Helvetica,sans-Serif" font-size="10.00">/Project/classes/frontendClasses</text>
<text text-anchor="middle" x="154.5" y="-6.5" font-family="Helvetica,sans-Serif" font-size="10.00">/windowhandler.cpp</text>
</a>
</g>
</g>
<!-- Node1&#45;&gt;Node5 -->
<g id="edge13_Node000001_Node000005" class="edge">
<title>Node1&#45;&gt;Node5</title>
<g id="a_edge13_Node000001_Node000005"><a xlink:title=" ">
<path fill="none" stroke="#63b8ff" d="M205.72,-293.59C136.6,-284.44 50.53,-267.77 28.5,-240 -12.39,-188.47 -6.08,-147.95 28.5,-92 38.91,-75.15 55.35,-62.65 72.96,-53.45"/>
<polygon fill="#63b8ff" stroke="#63b8ff" points="205.22,-297.06 215.59,-294.86 206.12,-290.11 205.22,-297.06"/>
</a>
</g>
</g>
<!-- Node7 -->
<g id="Node000007" class="node">
<title>Node7</title>
<g id="a_Node000007"><a xlink:href="../../d2/d3e/launcherwindow_8hpp.html" target="_top" xlink:title=" ">
<polygon fill="white" stroke="#666666" points="379.62,-240 217.37,-240 217.37,-184 379.62,-184 379.62,-240"/>
<text text-anchor="start" x="225.37" y="-226.5" font-family="Helvetica,sans-Serif" font-size="10.00">C:/Users/Clean/Documents</text>
<text text-anchor="start" x="225.37" y="-214.5" font-family="Helvetica,sans-Serif" font-size="10.00">/Projekte/Apos&#45;DatabaseManager</text>
<text text-anchor="start" x="225.37" y="-202.5" font-family="Helvetica,sans-Serif" font-size="10.00">/Project/classes/frontendClasses</text>
<text text-anchor="middle" x="298.5" y="-190.5" font-family="Helvetica,sans-Serif" font-size="10.00">/launcherwindow.hpp</text>
</a>
</g>
</g>
<!-- Node1&#45;&gt;Node7 -->
<g id="edge6_Node000001_Node000007" class="edge">
<title>Node1&#45;&gt;Node7</title>
<g id="a_edge6_Node000001_Node000007"><a xlink:title=" ">
<path fill="none" stroke="#63b8ff" d="M298.5,-264.09C298.5,-256.08 298.5,-247.81 298.5,-240.32"/>
<polygon fill="#63b8ff" stroke="#63b8ff" points="295,-263.99 298.5,-273.99 302,-263.99 295,-263.99"/>
</a>
</g>
</g>
<!-- Node9 -->
<g id="Node000009" class="node">
<title>Node9</title>
<g id="a_Node000009"><a xlink:href="../../df/db5/settingswindow_8hpp.html" target="_top" xlink:title=" ">
<polygon fill="white" stroke="#666666" points="559.62,-240 397.37,-240 397.37,-184 559.62,-184 559.62,-240"/>
<text text-anchor="start" x="405.37" y="-226.5" font-family="Helvetica,sans-Serif" font-size="10.00">C:/Users/Clean/Documents</text>
<text text-anchor="start" x="405.37" y="-214.5" font-family="Helvetica,sans-Serif" font-size="10.00">/Projekte/Apos&#45;DatabaseManager</text>
<text text-anchor="start" x="405.37" y="-202.5" font-family="Helvetica,sans-Serif" font-size="10.00">/Project/classes/frontendClasses</text>
<text text-anchor="middle" x="478.5" y="-190.5" font-family="Helvetica,sans-Serif" font-size="10.00">/settingswindow.hpp</text>
</a>
</g>
</g>
<!-- Node1&#45;&gt;Node9 -->
<g id="edge9_Node000001_Node000009" class="edge">
<title>Node1&#45;&gt;Node9</title>
<g id="a_edge9_Node000001_Node000009"><a xlink:title=" ">
<path fill="none" stroke="#63b8ff" d="M363.58,-270.46C383.24,-260.63 404.61,-249.94 423.54,-240.48"/>
<polygon fill="#63b8ff" stroke="#63b8ff" points="362.21,-267.23 354.84,-274.83 365.35,-273.49 362.21,-267.23"/>
</a>
</g>
</g>
<!-- Node11 -->
<g id="Node000011" class="node">
<title>Node11</title>
<g id="a_Node000011"><a xlink:href="../../d0/d45/translatablewindow_8cpp.html" target="_top" xlink:title=" ">
<polygon fill="white" stroke="#666666" points="739.62,-240 577.37,-240 577.37,-184 739.62,-184 739.62,-240"/>
<text text-anchor="start" x="585.37" y="-226.5" font-family="Helvetica,sans-Serif" font-size="10.00">C:/Users/Clean/Documents</text>
<text text-anchor="start" x="585.37" y="-214.5" font-family="Helvetica,sans-Serif" font-size="10.00">/Projekte/Apos&#45;DatabaseManager</text>
<text text-anchor="start" x="585.37" y="-202.5" font-family="Helvetica,sans-Serif" font-size="10.00">/Project/classes/frontendClasses</text>
<text text-anchor="middle" x="658.5" y="-190.5" font-family="Helvetica,sans-Serif" font-size="10.00">/translatablewindow.cpp</text>
</a>
</g>
</g>
<!-- Node1&#45;&gt;Node11 -->
<g id="edge12_Node000001_Node000011" class="edge">
<title>Node1&#45;&gt;Node11</title>
<g id="a_edge12_Node000001_Node000011"><a xlink:title=" ">
<path fill="none" stroke="#63b8ff" d="M390.99,-282.91C443.29,-271.18 509.77,-255.65 568.5,-240 571.34,-239.24 574.22,-238.46 577.13,-237.66"/>
<polygon fill="#63b8ff" stroke="#63b8ff" points="390.53,-279.43 381.53,-285.03 392.05,-286.26 390.53,-279.43"/>
</a>
</g>
</g>
<!-- Node3 -->
<g id="Node000003" class="node">
<title>Node3</title>
<g id="a_Node000003"><a xlink:href="../../d1/d87/devwindow_8cpp.html" target="_top" xlink:title=" ">
<polygon fill="white" stroke="#666666" points="199.62,-148 37.37,-148 37.37,-92 199.62,-92 199.62,-148"/>
<text text-anchor="start" x="45.37" y="-134.5" font-family="Helvetica,sans-Serif" font-size="10.00">C:/Users/Clean/Documents</text>
<text text-anchor="start" x="45.37" y="-122.5" font-family="Helvetica,sans-Serif" font-size="10.00">/Projekte/Apos&#45;DatabaseManager</text>
<text text-anchor="start" x="45.37" y="-110.5" font-family="Helvetica,sans-Serif" font-size="10.00">/Project/classes/frontendClasses</text>
<text text-anchor="middle" x="118.5" y="-98.5" font-family="Helvetica,sans-Serif" font-size="10.00">/devwindow.cpp</text>
</a>
</g>
</g>
<!-- Node2&#45;&gt;Node3 -->
<g id="edge2_Node000002_Node000003" class="edge">
<title>Node2&#45;&gt;Node3</title>
<g id="a_edge2_Node000002_Node000003"><a xlink:title=" ">
<path fill="none" stroke="#63b8ff" d="M118.5,-172.09C118.5,-164.08 118.5,-155.81 118.5,-148.32"/>
<polygon fill="#63b8ff" stroke="#63b8ff" points="115,-171.99 118.5,-181.99 122,-171.99 115,-171.99"/>
</a>
</g>
</g>
<!-- Node4 -->
<g id="Node000004" class="node">
<title>Node4</title>
<g id="a_Node000004"><a xlink:href="../../da/d25/windowhandler_8hpp.html" target="_top" xlink:title=" ">
<polygon fill="white" stroke="#666666" points="559.62,-148 397.37,-148 397.37,-92 559.62,-92 559.62,-148"/>
<text text-anchor="start" x="405.37" y="-134.5" font-family="Helvetica,sans-Serif" font-size="10.00">C:/Users/Clean/Documents</text>
<text text-anchor="start" x="405.37" y="-122.5" font-family="Helvetica,sans-Serif" font-size="10.00">/Projekte/Apos&#45;DatabaseManager</text>
<text text-anchor="start" x="405.37" y="-110.5" font-family="Helvetica,sans-Serif" font-size="10.00">/Project/classes/frontendClasses</text>
<text text-anchor="middle" x="478.5" y="-98.5" font-family="Helvetica,sans-Serif" font-size="10.00">/windowhandler.hpp</text>
</a>
</g>
</g>
<!-- Node2&#45;&gt;Node4 -->
<g id="edge3_Node000002_Node000004" class="edge">
<title>Node2&#45;&gt;Node4</title>
<g id="a_edge3_Node000002_Node000004"><a xlink:title=" ">
<path fill="none" stroke="#63b8ff" d="M210.8,-183.53C289.63,-164.51 312.74,-166.9 388.5,-148 391.35,-147.29 394.24,-146.55 397.16,-145.78"/>
<polygon fill="#63b8ff" stroke="#63b8ff" points="210.18,-180.08 201.31,-185.86 211.85,-186.88 210.18,-180.08"/>
</a>
</g>
</g>
<!-- Node4&#45;&gt;Node5 -->
<g id="edge4_Node000004_Node000005" class="edge">
<title>Node4&#45;&gt;Node5</title>
<g id="a_edge4_Node000004_Node000005"><a xlink:title=" ">
<path fill="none" stroke="#63b8ff" d="M386.03,-91.32C330.84,-75.7 278.12,-61.5 235.88,-50.3"/>
<polygon fill="#63b8ff" stroke="#63b8ff" points="385.06,-94.69 395.64,-94.05 386.97,-87.95 385.06,-94.69"/>
</a>
</g>
</g>
<!-- Node6 -->
<g id="Node000006" class="node">
<title>Node6</title>
<g id="a_Node000006"><a xlink:href="../../df/d0a/main_8cpp.html" target="_top" xlink:title=" ">
<polygon fill="white" stroke="#666666" points="559.62,-50 397.37,-50 397.37,-6 559.62,-6 559.62,-50"/>
<text text-anchor="start" x="405.37" y="-36.5" font-family="Helvetica,sans-Serif" font-size="10.00">C:/Users/Clean/Documents</text>
<text text-anchor="start" x="405.37" y="-24.5" font-family="Helvetica,sans-Serif" font-size="10.00">/Projekte/Apos&#45;DatabaseManager</text>
<text text-anchor="middle" x="478.5" y="-12.5" font-family="Helvetica,sans-Serif" font-size="10.00">/Project/source/main.cpp</text>
</a>
</g>
</g>
<!-- Node4&#45;&gt;Node6 -->
<g id="edge5_Node000004_Node000006" class="edge">
<title>Node4&#45;&gt;Node6</title>
<g id="a_edge5_Node000004_Node000006"><a xlink:title=" ">
<path fill="none" stroke="#63b8ff" d="M478.5,-80.23C478.5,-69.98 478.5,-59.28 478.5,-50.33"/>
<polygon fill="#63b8ff" stroke="#63b8ff" points="475,-79.99 478.5,-89.99 482,-79.99 475,-79.99"/>
</a>
</g>
</g>
<!-- Node7&#45;&gt;Node4 -->
<g id="edge8_Node000007_Node000004" class="edge">
<title>Node7&#45;&gt;Node4</title>
<g id="a_edge8_Node000007_Node000004"><a xlink:title=" ">
<path fill="none" stroke="#63b8ff" d="M363.58,-178.46C383.24,-168.63 404.61,-157.94 423.54,-148.48"/>
<polygon fill="#63b8ff" stroke="#63b8ff" points="362.21,-175.23 354.84,-182.83 365.35,-181.49 362.21,-175.23"/>
</a>
</g>
</g>
<!-- Node8 -->
<g id="Node000008" class="node">
<title>Node8</title>
<g id="a_Node000008"><a xlink:href="../../d5/d17/launcherwindow_8cpp.html" target="_top" xlink:title=" ">
<polygon fill="white" stroke="#666666" points="379.62,-148 217.37,-148 217.37,-92 379.62,-92 379.62,-148"/>
<text text-anchor="start" x="225.37" y="-134.5" font-family="Helvetica,sans-Serif" font-size="10.00">C:/Users/Clean/Documents</text>
<text text-anchor="start" x="225.37" y="-122.5" font-family="Helvetica,sans-Serif" font-size="10.00">/Projekte/Apos&#45;DatabaseManager</text>
<text text-anchor="start" x="225.37" y="-110.5" font-family="Helvetica,sans-Serif" font-size="10.00">/Project/classes/frontendClasses</text>
<text text-anchor="middle" x="298.5" y="-98.5" font-family="Helvetica,sans-Serif" font-size="10.00">/launcherwindow.cpp</text>
</a>
</g>
</g>
<!-- Node7&#45;&gt;Node8 -->
<g id="edge7_Node000007_Node000008" class="edge">
<title>Node7&#45;&gt;Node8</title>
<g id="a_edge7_Node000007_Node000008"><a xlink:title=" ">
<path fill="none" stroke="#63b8ff" d="M298.5,-172.09C298.5,-164.08 298.5,-155.81 298.5,-148.32"/>
<polygon fill="#63b8ff" stroke="#63b8ff" points="295,-171.99 298.5,-181.99 302,-171.99 295,-171.99"/>
</a>
</g>
</g>
<!-- Node9&#45;&gt;Node4 -->
<g id="edge11_Node000009_Node000004" class="edge">
<title>Node9&#45;&gt;Node4</title>
<g id="a_edge11_Node000009_Node000004"><a xlink:title=" ">
<path fill="none" stroke="#63b8ff" d="M478.5,-172.09C478.5,-164.08 478.5,-155.81 478.5,-148.32"/>
<polygon fill="#63b8ff" stroke="#63b8ff" points="475,-171.99 478.5,-181.99 482,-171.99 475,-171.99"/>
</a>
</g>
</g>
<!-- Node10 -->
<g id="Node000010" class="node">
<title>Node10</title>
<g id="a_Node000010"><a xlink:href="../../db/da0/settingswindow_8cpp.html" target="_top" xlink:title=" ">
<polygon fill="white" stroke="#666666" points="739.62,-148 577.37,-148 577.37,-92 739.62,-92 739.62,-148"/>
<text text-anchor="start" x="585.37" y="-134.5" font-family="Helvetica,sans-Serif" font-size="10.00">C:/Users/Clean/Documents</text>
<text text-anchor="start" x="585.37" y="-122.5" font-family="Helvetica,sans-Serif" font-size="10.00">/Projekte/Apos&#45;DatabaseManager</text>
<text text-anchor="start" x="585.37" y="-110.5" font-family="Helvetica,sans-Serif" font-size="10.00">/Project/classes/frontendClasses</text>
<text text-anchor="middle" x="658.5" y="-98.5" font-family="Helvetica,sans-Serif" font-size="10.00">/settingswindow.cpp</text>
</a>
</g>
</g>
<!-- Node9&#45;&gt;Node10 -->
<g id="edge10_Node000009_Node000010" class="edge">
<title>Node9&#45;&gt;Node10</title>
<g id="a_edge10_Node000009_Node000010"><a xlink:title=" ">
<path fill="none" stroke="#63b8ff" d="M543.58,-178.46C563.24,-168.63 584.61,-157.94 603.54,-148.48"/>
<polygon fill="#63b8ff" stroke="#63b8ff" points="542.21,-175.23 534.84,-182.83 545.35,-181.49 542.21,-175.23"/>
</a>
</g>
</g>
</g>
</svg>
