<?xml version="1.0" encoding="UTF-8" standalone="no"?>
<!DOCTYPE svg PUBLIC "-//W3C//DTD SVG 1.1//EN"
 "http://www.w3.org/Graphics/SVG/1.1/DTD/svg11.dtd">
<!-- Generated by graphviz version 9.0.0 (20230911.1827)
 -->
<!-- Title: AposFrontend::SettingsWindow Pages: 1 -->
<svg width="216pt" height="96pt"
 viewBox="0.00 0.00 215.75 96.00" xmlns="http://www.w3.org/2000/svg" xmlns:xlink="http://www.w3.org/1999/xlink">
<g id="graph0" class="graph" transform="scale(1 1) rotate(0) translate(4 92)">
<title>AposFrontend::SettingsWindow</title>
<!-- Node1 -->
<g id="Node000001" class="node">
<title>Node1</title>
<g id="a_Node000001"><a xlink:title="Provides the user interface for the settings window.">
<polygon fill="#999999" stroke="#666666" points="159.75,-20 6.5,-20 6.5,0 159.75,0 159.75,-20"/>
<text text-anchor="middle" x="83.12" y="-6.5" font-family="Helvetica,sans-Serif" font-size="10.00">AposFrontend::SettingsWindow</text>
</a>
</g>
</g>
<!-- Node2 -->
<g id="Node000002" class="node">
<title>Node2</title>
<g id="a_Node000002"><a xlink:title=" ">
<polygon fill="white" stroke="#666666" points="54.25,-82 0,-82 0,-62 54.25,-62 54.25,-82"/>
<text text-anchor="middle" x="27.12" y="-68.5" font-family="Helvetica,sans-Serif" font-size="10.00">QWidget</text>
</a>
</g>
</g>
<!-- Node2&#45;&gt;Node1 -->
<g id="edge1_Node000001_Node000002" class="edge">
<title>Node2&#45;&gt;Node1</title>
<g id="a_edge1_Node000001_Node000002"><a xlink:title=" ">
<path fill="none" stroke="#63b8ff" d="M43.69,-53.25C53.85,-42.36 66.44,-28.88 74.62,-20.11"/>
<polygon fill="#63b8ff" stroke="#63b8ff" points="41.17,-50.82 36.91,-60.52 46.29,-55.6 41.17,-50.82"/>
</a>
</g>
</g>
<!-- Node3 -->
<g id="Node000003" class="node">
<title>Node3</title>
<g id="a_Node000003"><a xlink:href="../../da/dfc/class_apos_frontend_1_1_translatable_window.html" target="_top" xlink:title="An abstract base class that provides a function for retranslating the user interface.">
<polygon fill="white" stroke="#666666" points="207.75,-88 72.5,-88 72.5,-56 207.75,-56 207.75,-88"/>
<text text-anchor="start" x="80.5" y="-74.5" font-family="Helvetica,sans-Serif" font-size="10.00">AposFrontend::Translatable</text>
<text text-anchor="middle" x="140.12" y="-62.5" font-family="Helvetica,sans-Serif" font-size="10.00">Window</text>
</a>
</g>
</g>
<!-- Node3&#45;&gt;Node1 -->
<g id="edge2_Node000001_Node000003" class="edge">
<title>Node3&#45;&gt;Node1</title>
<g id="a_edge2_Node000001_Node000003"><a xlink:title=" ">
<path fill="none" stroke="#63b8ff" d="M117.58,-47.27C108.65,-37.87 98.9,-27.61 92.06,-20.41"/>
<polygon fill="#63b8ff" stroke="#63b8ff" points="114.98,-49.61 124.4,-54.45 120.05,-44.79 114.98,-49.61"/>
</a>
</g>
</g>
</g>
</svg>
