<?xml version="1.0" encoding="UTF-8" standalone="no"?>
<!DOCTYPE svg PUBLIC "-//W3C//DTD SVG 1.1//EN"
 "http://www.w3.org/Graphics/SVG/1.1/DTD/svg11.dtd">
<!-- Generated by graphviz version 9.0.0 (20230911.1827)
 -->
<!-- Title: C:/Users/Clean/Documents/Projekte/Apos&#45;DatabaseManager/Project/classes/frontendClasses/settingswindow.cpp Pages: 1 -->
<svg xmlns:xlink="http://www.w3.org/1999/xlink" width="525pt"
 height="368pt" viewBox="0.00 0.00 525.25 368.00" xmlns="http://www.w3.org/2000/svg">
<g id="graph0" class="graph" transform="scale(1 1) rotate(0) translate(4 364)">
<title>C:/Users/Clean/Documents/Projekte/Apos&#45;DatabaseManager/Project/classes/frontendClasses/settingswindow.cpp</title>
<!-- Node1 -->
<g id="Node000001" class="node">
<title>Node1</title>
<g id="a_Node000001"><a xlink:title="Source file for the SettingsWindow class.">
<polygon fill="#999999" stroke="#666666" points="379.25,-360 217,-360 217,-304 379.25,-304 379.25,-360"/>
<text text-anchor="start" x="225" y="-346.5" font-family="Helvetica,sans-Serif" font-size="10.00">C:/Users/Clean/Documents</text>
<text text-anchor="start" x="225" y="-334.5" font-family="Helvetica,sans-Serif" font-size="10.00">/Projekte/Apos&#45;DatabaseManager</text>
<text text-anchor="start" x="225" y="-322.5" font-family="Helvetica,sans-Serif" font-size="10.00">/Project/classes/frontendClasses</text>
<text text-anchor="middle" x="298.12" y="-310.5" font-family="Helvetica,sans-Serif" font-size="10.00">/settingswindow.cpp</text>
</a>
</g>
</g>
<!-- Node2 -->
<g id="Node000002" class="node">
<title>Node2</title>
<g id="a_Node000002"><a xlink:href="../../df/db5/settingswindow_8hpp.html" target="_top" xlink:title="Header file for the SettingsWindow class.">
<polygon fill="white" stroke="#666666" points="260.5,-268 159.75,-268 159.75,-248 260.5,-248 260.5,-268"/>
<text text-anchor="middle" x="210.12" y="-254.5" font-family="Helvetica,sans-Serif" font-size="10.00">settingswindow.hpp</text>
</a>
</g>
</g>
<!-- Node1&#45;&gt;Node2 -->
<g id="edge1_Node000001_Node000002" class="edge">
<title>Node1&#45;&gt;Node2</title>
<g id="a_edge1_Node000001_Node000002"><a xlink:title=" ">
<path fill="none" stroke="#63b8ff" d="M264.6,-303.57C253.12,-294.18 240.63,-283.95 230.5,-275.67"/>
<polygon fill="#63b8ff" stroke="#63b8ff" points="232.76,-273 222.8,-269.37 228.33,-278.41 232.76,-273"/>
</a>
</g>
</g>
<!-- Node12 -->
<g id="Node000012" class="node">
<title>Node12</title>
<g id="a_Node000012"><a xlink:title=" ">
<polygon fill="#e0e0e0" stroke="#999999" points="317.75,-268 278.5,-268 278.5,-248 317.75,-248 317.75,-268"/>
<text text-anchor="middle" x="298.12" y="-254.5" font-family="Helvetica,sans-Serif" font-size="10.00">utility</text>
</a>
</g>
</g>
<!-- Node1&#45;&gt;Node12 -->
<g id="edge17_Node000001_Node000012" class="edge">
<title>Node1&#45;&gt;Node12</title>
<g id="a_edge17_Node000001_Node000012"><a xlink:title=" ">
<path fill="none" stroke="#63b8ff" d="M298.12,-303.78C298.12,-295.82 298.12,-287.25 298.12,-279.76"/>
<polygon fill="#63b8ff" stroke="#63b8ff" points="301.63,-279.99 298.13,-269.99 294.63,-279.99 301.63,-279.99"/>
</a>
</g>
</g>
<!-- Node13 -->
<g id="Node000013" class="node">
<title>Node13</title>
<g id="a_Node000013"><a xlink:title=" ">
<polygon fill="#e0e0e0" stroke="#999999" points="438.62,-268 335.62,-268 335.62,-248 438.62,-248 438.62,-268"/>
<text text-anchor="middle" x="387.12" y="-254.5" font-family="Helvetica,sans-Serif" font-size="10.00">ui_settingswindow.h</text>
</a>
</g>
</g>
<!-- Node1&#45;&gt;Node13 -->
<g id="edge18_Node000001_Node000013" class="edge">
<title>Node1&#45;&gt;Node13</title>
<g id="a_edge18_Node000001_Node000013"><a xlink:title=" ">
<path fill="none" stroke="#63b8ff" d="M332.03,-303.57C343.76,-294.08 356.54,-283.74 366.83,-275.42"/>
<polygon fill="#63b8ff" stroke="#63b8ff" points="368.74,-278.38 374.31,-269.37 364.33,-272.94 368.74,-278.38"/>
</a>
</g>
</g>
<!-- Node3 -->
<g id="Node000003" class="node">
<title>Node3</title>
<g id="a_Node000003"><a xlink:title=" ">
<polygon fill="#e0e0e0" stroke="#999999" points="54.25,-212 0,-212 0,-192 54.25,-192 54.25,-212"/>
<text text-anchor="middle" x="27.12" y="-198.5" font-family="Helvetica,sans-Serif" font-size="10.00">QWidget</text>
</a>
</g>
</g>
<!-- Node2&#45;&gt;Node3 -->
<g id="edge2_Node000002_Node000003" class="edge">
<title>Node2&#45;&gt;Node3</title>
<g id="a_edge2_Node000002_Node000003"><a xlink:title=" ">
<path fill="none" stroke="#63b8ff" d="M178.25,-247.59C146.78,-238.31 98.66,-224.11 65.2,-214.23"/>
<polygon fill="#63b8ff" stroke="#63b8ff" points="66.49,-210.97 55.91,-211.49 64.51,-217.68 66.49,-210.97"/>
</a>
</g>
</g>
<!-- Node4 -->
<g id="Node000004" class="node">
<title>Node4</title>
<g id="a_Node000004"><a xlink:title=" ">
<polygon fill="#e0e0e0" stroke="#999999" points="265.75,-20 214.5,-20 214.5,0 265.75,0 265.75,-20"/>
<text text-anchor="middle" x="240.12" y="-6.5" font-family="Helvetica,sans-Serif" font-size="10.00">QDebug</text>
</a>
</g>
</g>
<!-- Node2&#45;&gt;Node4 -->
<g id="edge3_Node000002_Node000004" class="edge">
<title>Node2&#45;&gt;Node4</title>
<g id="a_edge3_Node000002_Node000004"><a xlink:title=" ">
<path fill="none" stroke="#63b8ff" d="M170.32,-247.63C150.32,-240.93 127.37,-229.84 113.12,-212 88.5,-181.15 84.17,-159.64 101.12,-124 123.37,-77.25 175.47,-43.51 209.18,-25.64"/>
<polygon fill="#63b8ff" stroke="#63b8ff" points="210.77,-28.76 218.08,-21.08 207.58,-22.53 210.77,-28.76"/>
</a>
</g>
</g>
<!-- Node5 -->
<g id="Node000005" class="node">
<title>Node5</title>
<g id="a_Node000005"><a xlink:href="../../d5/dcc/objecthandler_8hpp.html" target="_top" xlink:title="Header file for the ObjectHandler class.">
<polygon fill="white" stroke="#666666" points="298.38,-212 121.88,-212 121.88,-192 298.38,-192 298.38,-212"/>
<text text-anchor="middle" x="210.12" y="-198.5" font-family="Helvetica,sans-Serif" font-size="10.00">../backendClasses/objecthandler.hpp</text>
</a>
</g>
</g>
<!-- Node2&#45;&gt;Node5 -->
<g id="edge4_Node000002_Node000005" class="edge">
<title>Node2&#45;&gt;Node5</title>
<g id="a_edge4_Node000002_Node000005"><a xlink:title=" ">
<path fill="none" stroke="#63b8ff" d="M210.12,-247.59C210.12,-241.01 210.12,-231.96 210.12,-223.73"/>
<polygon fill="#63b8ff" stroke="#63b8ff" points="213.63,-223.81 210.13,-213.81 206.63,-223.81 213.63,-223.81"/>
</a>
</g>
</g>
<!-- Node10 -->
<g id="Node000010" class="node">
<title>Node10</title>
<g id="a_Node000010"><a xlink:href="../../d7/dfa/translatablewindow_8hpp.html" target="_top" xlink:title="Header file for the TranslatableWindow class.">
<polygon fill="white" stroke="#666666" points="433.38,-212 316.88,-212 316.88,-192 433.38,-192 433.38,-212"/>
<text text-anchor="middle" x="375.12" y="-198.5" font-family="Helvetica,sans-Serif" font-size="10.00">translatablewindow.hpp</text>
</a>
</g>
</g>
<!-- Node2&#45;&gt;Node10 -->
<g id="edge15_Node000002_Node000010" class="edge">
<title>Node2&#45;&gt;Node10</title>
<g id="a_edge15_Node000002_Node000010"><a xlink:title=" ">
<path fill="none" stroke="#63b8ff" d="M238.87,-247.59C265.56,-238.86 305.54,-225.77 335.3,-216.03"/>
<polygon fill="#63b8ff" stroke="#63b8ff" points="336.31,-219.39 344.72,-212.95 334.13,-212.73 336.31,-219.39"/>
</a>
</g>
</g>
<!-- Node11 -->
<g id="Node000011" class="node">
<title>Node11</title>
<g id="a_Node000011"><a xlink:title=" ">
<polygon fill="#e0e0e0" stroke="#999999" points="517.25,-212 451,-212 451,-192 517.25,-192 517.25,-212"/>
<text text-anchor="middle" x="484.12" y="-198.5" font-family="Helvetica,sans-Serif" font-size="10.00">QTranslator</text>
</a>
</g>
</g>
<!-- Node2&#45;&gt;Node11 -->
<g id="edge16_Node000002_Node000011" class="edge">
<title>Node2&#45;&gt;Node11</title>
<g id="a_edge16_Node000002_Node000011"><a xlink:title=" ">
<path fill="none" stroke="#63b8ff" d="M260.42,-247.54C304.97,-239.09 372.07,-226.21 439.42,-212.52"/>
<polygon fill="#63b8ff" stroke="#63b8ff" points="440.08,-215.96 449.18,-210.53 438.69,-209.1 440.08,-215.96"/>
</a>
</g>
</g>
<!-- Node5&#45;&gt;Node4 -->
<g id="edge6_Node000005_Node000004" class="edge">
<title>Node5&#45;&gt;Node4</title>
<g id="a_edge6_Node000005_Node000004"><a xlink:title=" ">
<path fill="none" stroke="#63b8ff" d="M209.24,-191.63C207.3,-168.26 203.89,-105.68 217.12,-56 219.52,-47.01 223.88,-37.75 228.16,-29.98"/>
<polygon fill="#63b8ff" stroke="#63b8ff" points="231.11,-31.87 233.18,-21.48 225.08,-28.31 231.11,-31.87"/>
</a>
</g>
</g>
<!-- Node6 -->
<g id="Node000006" class="node">
<title>Node6</title>
<g id="a_Node000006"><a xlink:title=" ">
<polygon fill="#e0e0e0" stroke="#999999" points="181.88,-150 110.38,-150 110.38,-130 181.88,-130 181.88,-150"/>
<text text-anchor="middle" x="146.12" y="-136.5" font-family="Helvetica,sans-Serif" font-size="10.00">QApplication</text>
</a>
</g>
</g>
<!-- Node5&#45;&gt;Node6 -->
<g id="edge5_Node000005_Node000006" class="edge">
<title>Node5&#45;&gt;Node6</title>
<g id="a_edge5_Node000005_Node000006"><a xlink:title=" ">
<path fill="none" stroke="#63b8ff" d="M200.12,-191.62C190.49,-182.59 175.69,-168.72 164.02,-157.78"/>
<polygon fill="#63b8ff" stroke="#63b8ff" points="166.64,-155.43 156.95,-151.15 161.85,-160.54 166.64,-155.43"/>
</a>
</g>
</g>
<!-- Node7 -->
<g id="Node000007" class="node">
<title>Node7</title>
<g id="a_Node000007"><a xlink:title=" ">
<polygon fill="#e0e0e0" stroke="#999999" points="422.5,-20 381.75,-20 381.75,0 422.5,0 422.5,-20"/>
<text text-anchor="middle" x="402.12" y="-6.5" font-family="Helvetica,sans-Serif" font-size="10.00">QtSql</text>
</a>
</g>
</g>
<!-- Node5&#45;&gt;Node7 -->
<g id="edge7_Node000005_Node000007" class="edge">
<title>Node5&#45;&gt;Node7</title>
<g id="a_edge7_Node000005_Node000007"><a xlink:title=" ">
<path fill="none" stroke="#63b8ff" d="M298.75,-193.1C348.89,-186.59 404.6,-175.21 420.12,-156 449.4,-119.79 427.44,-60.96 412.67,-30.57"/>
<polygon fill="#63b8ff" stroke="#63b8ff" points="415.84,-29.07 408.17,-21.76 409.6,-32.26 415.84,-29.07"/>
</a>
</g>
</g>
<!-- Node8 -->
<g id="Node000008" class="node">
<title>Node8</title>
<g id="a_Node000008"><a xlink:href="../../de/d60/databasehandler_8hpp.html" target="_top" xlink:title="Header file for the DatabaseHandler class.">
<polygon fill="white" stroke="#666666" points="335.62,-88 226.62,-88 226.62,-56 335.62,-56 335.62,-88"/>
<text text-anchor="start" x="234.62" y="-74.5" font-family="Helvetica,sans-Serif" font-size="10.00">../databaseClasses</text>
<text text-anchor="middle" x="281.12" y="-62.5" font-family="Helvetica,sans-Serif" font-size="10.00">/databasehandler.hpp</text>
</a>
</g>
</g>
<!-- Node5&#45;&gt;Node8 -->
<g id="edge8_Node000005_Node000008" class="edge">
<title>Node5&#45;&gt;Node8</title>
<g id="a_edge8_Node000005_Node000008"><a xlink:title=" ">
<path fill="none" stroke="#63b8ff" d="M215.23,-191.79C225.99,-172.39 251.32,-126.74 267.25,-98.01"/>
<polygon fill="#63b8ff" stroke="#63b8ff" points="270.13,-100.04 271.92,-89.6 264.01,-96.64 270.13,-100.04"/>
</a>
</g>
</g>
<!-- Node9 -->
<g id="Node000009" class="node">
<title>Node9</title>
<g id="a_Node000009"><a xlink:href="../../df/d46/tablehandler_8hpp.html" target="_top" xlink:title="Header file for the TableHandler class.">
<polygon fill="white" stroke="#666666" points="411.12,-156 311.12,-156 311.12,-124 411.12,-124 411.12,-156"/>
<text text-anchor="start" x="319.12" y="-142.5" font-family="Helvetica,sans-Serif" font-size="10.00">../databaseClasses</text>
<text text-anchor="middle" x="361.12" y="-130.5" font-family="Helvetica,sans-Serif" font-size="10.00">/tablehandler.hpp</text>
</a>
</g>
</g>
<!-- Node5&#45;&gt;Node9 -->
<g id="edge11_Node000005_Node000009" class="edge">
<title>Node5&#45;&gt;Node9</title>
<g id="a_edge11_Node000005_Node000009"><a xlink:title=" ">
<path fill="none" stroke="#63b8ff" d="M233.72,-191.62C254.5,-183.37 285.44,-171.07 311.63,-160.67"/>
<polygon fill="#63b8ff" stroke="#63b8ff" points="312.73,-163.99 320.73,-157.05 310.15,-157.49 312.73,-163.99"/>
</a>
</g>
</g>
<!-- Node8&#45;&gt;Node4 -->
<g id="edge9_Node000008_Node000004" class="edge">
<title>Node8&#45;&gt;Node4</title>
<g id="a_edge9_Node000008_Node000004"><a xlink:title=" ">
<path fill="none" stroke="#63b8ff" d="M270.57,-55.55C265.17,-47.65 258.56,-37.97 252.88,-29.66"/>
<polygon fill="#63b8ff" stroke="#63b8ff" points="255.94,-27.94 247.41,-21.66 250.16,-31.89 255.94,-27.94"/>
</a>
</g>
</g>
<!-- Node8&#45;&gt;Node7 -->
<g id="edge10_Node000008_Node000007" class="edge">
<title>Node8&#45;&gt;Node7</title>
<g id="a_edge10_Node000008_Node000007"><a xlink:title=" ">
<path fill="none" stroke="#63b8ff" d="M312.29,-55.55C331.02,-46.26 354.7,-34.52 373.04,-25.42"/>
<polygon fill="#63b8ff" stroke="#63b8ff" points="374.39,-28.66 381.8,-21.08 371.28,-22.39 374.39,-28.66"/>
</a>
</g>
</g>
<!-- Node9&#45;&gt;Node4 -->
<g id="edge12_Node000009_Node000004" class="edge">
<title>Node9&#45;&gt;Node4</title>
<g id="a_edge12_Node000009_Node000004"><a xlink:title=" ">
<path fill="none" stroke="#63b8ff" d="M362.22,-123.77C362.7,-105.65 360.78,-75.43 345.12,-56 328.31,-35.12 299.98,-23.75 276.98,-17.66"/>
<polygon fill="#63b8ff" stroke="#63b8ff" points="277.87,-14.28 267.34,-15.36 276.25,-21.08 277.87,-14.28"/>
</a>
</g>
</g>
<!-- Node9&#45;&gt;Node7 -->
<g id="edge13_Node000009_Node000007" class="edge">
<title>Node9&#45;&gt;Node7</title>
<g id="a_edge13_Node000009_Node000007"><a xlink:title=" ">
<path fill="none" stroke="#63b8ff" d="M366.26,-123.85C369.67,-113.72 374.23,-100.08 378.12,-88 384.36,-68.65 391.25,-46.48 396.03,-30.92"/>
<polygon fill="#63b8ff" stroke="#63b8ff" points="399.34,-32.06 398.93,-21.47 392.65,-30.01 399.34,-32.06"/>
</a>
</g>
</g>
<!-- Node9&#45;&gt;Node8 -->
<g id="edge14_Node000009_Node000008" class="edge">
<title>Node9&#45;&gt;Node8</title>
<g id="a_edge14_Node000009_Node000008"><a xlink:title=" ">
<path fill="none" stroke="#63b8ff" d="M342.57,-123.69C332.45,-115.34 319.72,-104.84 308.48,-95.56"/>
<polygon fill="#63b8ff" stroke="#63b8ff" points="310.96,-93.08 301.02,-89.42 306.51,-98.48 310.96,-93.08"/>
</a>
</g>
</g>
</g>
</svg>
