<?xml version="1.0" encoding="UTF-8" standalone="no"?>
<!DOCTYPE svg PUBLIC "-//W3C//DTD SVG 1.1//EN"
 "http://www.w3.org/Graphics/SVG/1.1/DTD/svg11.dtd">
<!-- Generated by graphviz version 9.0.0 (20230911.1827)
 -->
<!-- Title: C:/Users/Clean/Documents/Projekte/Apos&#45;DatabaseManager/Project/classes/backendClasses/startuphandler.cpp Pages: 1 -->
<svg width="581pt" height="300pt"
 viewBox="0.00 0.00 580.67 300.00" xmlns="http://www.w3.org/2000/svg" xmlns:xlink="http://www.w3.org/1999/xlink">
<g id="graph0" class="graph" transform="scale(1 1) rotate(0) translate(4 296)">
<title>C:/Users/Clean/Documents/Projekte/Apos&#45;DatabaseManager/Project/classes/backendClasses/startuphandler.cpp</title>
<!-- Node1 -->
<g id="Node000001" class="node">
<title>Node1</title>
<g id="a_Node000001"><a xlink:title=" ">
<polygon fill="#999999" stroke="#666666" points="489.67,-292 327.42,-292 327.42,-236 489.67,-236 489.67,-292"/>
<text text-anchor="start" x="335.42" y="-278.5" font-family="Helvetica,sans-Serif" font-size="10.00">C:/Users/Clean/Documents</text>
<text text-anchor="start" x="335.42" y="-266.5" font-family="Helvetica,sans-Serif" font-size="10.00">/Projekte/Apos&#45;DatabaseManager</text>
<text text-anchor="start" x="335.42" y="-254.5" font-family="Helvetica,sans-Serif" font-size="10.00">/Project/classes/backendClasses</text>
<text text-anchor="middle" x="408.55" y="-242.5" font-family="Helvetica,sans-Serif" font-size="10.00">/startuphandler.cpp</text>
</a>
</g>
</g>
<!-- Node2 -->
<g id="Node000002" class="node">
<title>Node2</title>
<g id="a_Node000002"><a xlink:href="../../d3/d89/startuphandler_8hpp.html" target="_top" xlink:title=" ">
<polygon fill="white" stroke="#666666" points="456.67,-200 360.42,-200 360.42,-180 456.67,-180 456.67,-200"/>
<text text-anchor="middle" x="408.55" y="-186.5" font-family="Helvetica,sans-Serif" font-size="10.00">startuphandler.hpp</text>
</a>
</g>
</g>
<!-- Node1&#45;&gt;Node2 -->
<g id="edge1_Node000001_Node000002" class="edge">
<title>Node1&#45;&gt;Node2</title>
<g id="a_edge1_Node000001_Node000002"><a xlink:title=" ">
<path fill="none" stroke="#63b8ff" d="M408.55,-235.78C408.55,-227.82 408.55,-219.25 408.55,-211.76"/>
<polygon fill="#63b8ff" stroke="#63b8ff" points="412.05,-211.99 408.55,-201.99 405.05,-211.99 412.05,-211.99"/>
</a>
</g>
</g>
<!-- Node3 -->
<g id="Node000003" class="node">
<title>Node3</title>
<g id="a_Node000003"><a xlink:title=" ">
<polygon fill="#e0e0e0" stroke="#999999" points="64.17,-20 12.92,-20 12.92,0 64.17,0 64.17,-20"/>
<text text-anchor="middle" x="38.55" y="-6.5" font-family="Helvetica,sans-Serif" font-size="10.00">QDebug</text>
</a>
</g>
</g>
<!-- Node2&#45;&gt;Node3 -->
<g id="edge2_Node000002_Node000003" class="edge">
<title>Node2&#45;&gt;Node3</title>
<g id="a_edge2_Node000002_Node000003"><a xlink:title=" ">
<path fill="none" stroke="#63b8ff" d="M360.26,-184.35C262.79,-173.83 48.15,-144.63 5.55,-88 -8.17,-69.76 7.33,-44.95 21.38,-28.47"/>
<polygon fill="#63b8ff" stroke="#63b8ff" points="23.68,-31.14 27.83,-21.39 18.51,-26.43 23.68,-31.14"/>
</a>
</g>
</g>
<!-- Node4 -->
<g id="Node000004" class="node">
<title>Node4</title>
<g id="a_Node000004"><a xlink:title=" ">
<polygon fill="#e0e0e0" stroke="#999999" points="306.92,-20 266.17,-20 266.17,0 306.92,0 306.92,-20"/>
<text text-anchor="middle" x="286.55" y="-6.5" font-family="Helvetica,sans-Serif" font-size="10.00">QtSql</text>
</a>
</g>
</g>
<!-- Node2&#45;&gt;Node4 -->
<g id="edge3_Node000002_Node000004" class="edge">
<title>Node2&#45;&gt;Node4</title>
<g id="a_edge3_Node000002_Node000004"><a xlink:title=" ">
<path fill="none" stroke="#63b8ff" d="M408,-179.51C406.19,-156.01 398.59,-94.29 367.55,-56 354.66,-40.11 334.6,-28.91 317.66,-21.65"/>
<polygon fill="#63b8ff" stroke="#63b8ff" points="319.08,-18.45 308.49,-18 316.49,-24.95 319.08,-18.45"/>
</a>
</g>
</g>
<!-- Node5 -->
<g id="Node000005" class="node">
<title>Node5</title>
<g id="a_Node000005"><a xlink:title=" ">
<polygon fill="#e0e0e0" stroke="#999999" points="488.55,-144 436.55,-144 436.55,-124 488.55,-124 488.55,-144"/>
<text text-anchor="middle" x="462.55" y="-130.5" font-family="Helvetica,sans-Serif" font-size="10.00">QLocale</text>
</a>
</g>
</g>
<!-- Node2&#45;&gt;Node5 -->
<g id="edge4_Node000002_Node000005" class="edge">
<title>Node2&#45;&gt;Node5</title>
<g id="a_edge4_Node000002_Node000005"><a xlink:title=" ">
<path fill="none" stroke="#63b8ff" d="M417.95,-179.59C425.46,-172.08 436.19,-161.35 445.24,-152.3"/>
<polygon fill="#63b8ff" stroke="#63b8ff" points="447.58,-154.91 452.18,-145.37 442.63,-149.96 447.58,-154.91"/>
</a>
</g>
</g>
<!-- Node6 -->
<g id="Node000006" class="node">
<title>Node6</title>
<g id="a_Node000006"><a xlink:title=" ">
<polygon fill="#e0e0e0" stroke="#999999" points="572.67,-144 506.42,-144 506.42,-124 572.67,-124 572.67,-144"/>
<text text-anchor="middle" x="539.55" y="-130.5" font-family="Helvetica,sans-Serif" font-size="10.00">QTranslator</text>
</a>
</g>
</g>
<!-- Node2&#45;&gt;Node6 -->
<g id="edge5_Node000002_Node000006" class="edge">
<title>Node2&#45;&gt;Node6</title>
<g id="a_edge5_Node000002_Node000006"><a xlink:title=" ">
<path fill="none" stroke="#63b8ff" d="M431.36,-179.59C452,-171.09 482.63,-158.46 506.04,-148.81"/>
<polygon fill="#63b8ff" stroke="#63b8ff" points="507.24,-152.1 515.15,-145.06 504.57,-145.63 507.24,-152.1"/>
</a>
</g>
</g>
<!-- Node7 -->
<g id="Node000007" class="node">
<title>Node7</title>
<g id="a_Node000007"><a xlink:href="../../d5/dcc/objecthandler_8hpp.html" target="_top" xlink:title=" ">
<polygon fill="white" stroke="#666666" points="300.8,-144 208.3,-144 208.3,-124 300.8,-124 300.8,-144"/>
<text text-anchor="middle" x="254.55" y="-130.5" font-family="Helvetica,sans-Serif" font-size="10.00">objecthandler.hpp</text>
</a>
</g>
</g>
<!-- Node2&#45;&gt;Node7 -->
<g id="edge6_Node000002_Node000007" class="edge">
<title>Node2&#45;&gt;Node7</title>
<g id="a_edge6_Node000002_Node000007"><a xlink:title=" ">
<path fill="none" stroke="#63b8ff" d="M381.72,-179.59C356.92,-170.9 319.82,-157.89 292.08,-148.16"/>
<polygon fill="#63b8ff" stroke="#63b8ff" points="293.6,-144.99 283.01,-144.98 291.29,-151.59 293.6,-144.99"/>
</a>
</g>
</g>
<!-- Node7&#45;&gt;Node3 -->
<g id="edge8_Node000007_Node000003" class="edge">
<title>Node7&#45;&gt;Node3</title>
<g id="a_edge8_Node000007_Node000003"><a xlink:title=" ">
<path fill="none" stroke="#63b8ff" d="M207.92,-131.05C145.41,-127.35 39.5,-116.88 15.55,-88 1.75,-71.37 13.07,-46.68 24.15,-29.77"/>
<polygon fill="#63b8ff" stroke="#63b8ff" points="27,-31.81 29.93,-21.62 21.29,-27.76 27,-31.81"/>
</a>
</g>
</g>
<!-- Node7&#45;&gt;Node4 -->
<g id="edge9_Node000007_Node000004" class="edge">
<title>Node7&#45;&gt;Node4</title>
<g id="a_edge9_Node000007_Node000004"><a xlink:title=" ">
<path fill="none" stroke="#63b8ff" d="M299.7,-123.55C319.14,-117 340.01,-106.07 351.55,-88 359.2,-76.01 358.15,-68.6 351.55,-56 344.26,-42.09 330.5,-31.63 317.51,-24.3"/>
<polygon fill="#63b8ff" stroke="#63b8ff" points="319.24,-21.26 308.75,-19.79 316.04,-27.48 319.24,-21.26"/>
</a>
</g>
</g>
<!-- Node8 -->
<g id="Node000008" class="node">
<title>Node8</title>
<g id="a_Node000008"><a xlink:title=" ">
<polygon fill="#e0e0e0" stroke="#999999" points="342.3,-82 270.8,-82 270.8,-62 342.3,-62 342.3,-82"/>
<text text-anchor="middle" x="306.55" y="-68.5" font-family="Helvetica,sans-Serif" font-size="10.00">QApplication</text>
</a>
</g>
</g>
<!-- Node7&#45;&gt;Node8 -->
<g id="edge7_Node000007_Node000008" class="edge">
<title>Node7&#45;&gt;Node8</title>
<g id="a_edge7_Node000007_Node000008"><a xlink:title=" ">
<path fill="none" stroke="#63b8ff" d="M262.67,-123.62C270.27,-114.86 281.82,-101.53 291.16,-90.75"/>
<polygon fill="#63b8ff" stroke="#63b8ff" points="293.75,-93.11 297.66,-83.26 288.46,-88.52 293.75,-93.11"/>
</a>
</g>
</g>
<!-- Node9 -->
<g id="Node000009" class="node">
<title>Node9</title>
<g id="a_Node000009"><a xlink:href="../../de/d60/databasehandler_8hpp.html" target="_top" xlink:title=" ">
<polygon fill="white" stroke="#666666" points="134.05,-88 25.05,-88 25.05,-56 134.05,-56 134.05,-88"/>
<text text-anchor="start" x="33.05" y="-74.5" font-family="Helvetica,sans-Serif" font-size="10.00">../databaseClasses</text>
<text text-anchor="middle" x="79.55" y="-62.5" font-family="Helvetica,sans-Serif" font-size="10.00">/databasehandler.hpp</text>
</a>
</g>
</g>
<!-- Node7&#45;&gt;Node9 -->
<g id="edge10_Node000007_Node000009" class="edge">
<title>Node7&#45;&gt;Node9</title>
<g id="a_edge10_Node000007_Node000009"><a xlink:title=" ">
<path fill="none" stroke="#63b8ff" d="M227.2,-123.62C202.7,-115.22 165.98,-102.64 135.3,-92.12"/>
<polygon fill="#63b8ff" stroke="#63b8ff" points="136.75,-88.91 126.16,-88.98 134.48,-95.54 136.75,-88.91"/>
</a>
</g>
</g>
<!-- Node10 -->
<g id="Node000010" class="node">
<title>Node10</title>
<g id="a_Node000010"><a xlink:href="../../df/d46/tablehandler_8hpp.html" target="_top" xlink:title=" ">
<polygon fill="white" stroke="#666666" points="252.55,-88 152.55,-88 152.55,-56 252.55,-56 252.55,-88"/>
<text text-anchor="start" x="160.55" y="-74.5" font-family="Helvetica,sans-Serif" font-size="10.00">../databaseClasses</text>
<text text-anchor="middle" x="202.55" y="-62.5" font-family="Helvetica,sans-Serif" font-size="10.00">/tablehandler.hpp</text>
</a>
</g>
</g>
<!-- Node7&#45;&gt;Node10 -->
<g id="edge13_Node000007_Node000010" class="edge">
<title>Node7&#45;&gt;Node10</title>
<g id="a_edge13_Node000007_Node000010"><a xlink:title=" ">
<path fill="none" stroke="#63b8ff" d="M246.42,-123.62C240.19,-116.43 231.3,-106.17 223.14,-96.77"/>
<polygon fill="#63b8ff" stroke="#63b8ff" points="225.85,-94.55 216.66,-89.28 220.56,-99.13 225.85,-94.55"/>
</a>
</g>
</g>
<!-- Node9&#45;&gt;Node3 -->
<g id="edge11_Node000009_Node000003" class="edge">
<title>Node9&#45;&gt;Node3</title>
<g id="a_edge11_Node000009_Node000003"><a xlink:title=" ">
<path fill="none" stroke="#63b8ff" d="M68.99,-55.55C63.59,-47.65 56.98,-37.97 51.3,-29.66"/>
<polygon fill="#63b8ff" stroke="#63b8ff" points="54.36,-27.94 45.83,-21.66 48.58,-31.89 54.36,-27.94"/>
</a>
</g>
</g>
<!-- Node9&#45;&gt;Node4 -->
<g id="edge12_Node000009_Node000004" class="edge">
<title>Node9&#45;&gt;Node4</title>
<g id="a_edge12_Node000009_Node000004"><a xlink:title=" ">
<path fill="none" stroke="#63b8ff" d="M132.85,-55.55C171.48,-44.35 222.4,-29.59 254.82,-20.2"/>
<polygon fill="#63b8ff" stroke="#63b8ff" points="255.78,-23.56 264.41,-17.42 253.83,-16.84 255.78,-23.56"/>
</a>
</g>
</g>
<!-- Node10&#45;&gt;Node3 -->
<g id="edge14_Node000010_Node000003" class="edge">
<title>Node10&#45;&gt;Node3</title>
<g id="a_edge14_Node000010_Node000003"><a xlink:title=" ">
<path fill="none" stroke="#63b8ff" d="M160.31,-55.55C133.86,-45.87 100.12,-33.53 74.86,-24.29"/>
<polygon fill="#63b8ff" stroke="#63b8ff" points="76.28,-21.08 65.68,-20.93 73.87,-27.65 76.28,-21.08"/>
</a>
</g>
</g>
<!-- Node10&#45;&gt;Node4 -->
<g id="edge15_Node000010_Node000004" class="edge">
<title>Node10&#45;&gt;Node4</title>
<g id="a_edge15_Node000010_Node000004"><a xlink:title=" ">
<path fill="none" stroke="#63b8ff" d="M224.18,-55.55C236.45,-46.78 251.79,-35.83 264.18,-26.97"/>
<polygon fill="#63b8ff" stroke="#63b8ff" points="266.04,-29.95 272.14,-21.29 261.97,-24.25 266.04,-29.95"/>
</a>
</g>
</g>
</g>
</svg>
