<?xml version="1.0" encoding="UTF-8" standalone="no"?>
<!DOCTYPE svg PUBLIC "-//W3C//DTD SVG 1.1//EN"
 "http://www.w3.org/Graphics/SVG/1.1/DTD/svg11.dtd">
<!-- Generated by graphviz version 9.0.0 (20230911.1827)
 -->
<!-- Title: C:/Users/Clean/Documents/Projekte/Apos&#45;DatabaseManager/Project/classes/databaseClasses/tablehandler.hpp Pages: 1 -->
<svg width="1146pt" height="432pt"
 viewBox="0.00 0.00 1146.25 432.00" xmlns="http://www.w3.org/2000/svg" xmlns:xlink="http://www.w3.org/1999/xlink">
<g id="graph0" class="graph" transform="scale(1 1) rotate(0) translate(4 428)">
<title>C:/Users/Clean/Documents/Projekte/Apos&#45;DatabaseManager/Project/classes/databaseClasses/tablehandler.hpp</title>
<!-- Node1 -->
<g id="Node000001" class="node">
<title>Node1</title>
<g id="a_Node000001"><a xlink:title=" ">
<polygon fill="#999999" stroke="#666666" points="689.38,-424 524.88,-424 524.88,-368 689.38,-368 689.38,-424"/>
<text text-anchor="start" x="532.88" y="-410.5" font-family="Helvetica,sans-Serif" font-size="10.00">C:/Users/Clean/Documents</text>
<text text-anchor="start" x="532.88" y="-398.5" font-family="Helvetica,sans-Serif" font-size="10.00">/Projekte/Apos&#45;DatabaseManager</text>
<text text-anchor="start" x="532.88" y="-386.5" font-family="Helvetica,sans-Serif" font-size="10.00">/Project/classes/databaseClasses</text>
<text text-anchor="middle" x="607.12" y="-374.5" font-family="Helvetica,sans-Serif" font-size="10.00">/tablehandler.hpp</text>
</a>
</g>
</g>
<!-- Node2 -->
<g id="Node000002" class="node">
<title>Node2</title>
<g id="a_Node000002"><a xlink:href="../../d5/dcc/objecthandler_8hpp.html" target="_top" xlink:title=" ">
<polygon fill="white" stroke="#666666" points="598.25,-332 436,-332 436,-276 598.25,-276 598.25,-332"/>
<text text-anchor="start" x="444" y="-318.5" font-family="Helvetica,sans-Serif" font-size="10.00">C:/Users/Clean/Documents</text>
<text text-anchor="start" x="444" y="-306.5" font-family="Helvetica,sans-Serif" font-size="10.00">/Projekte/Apos&#45;DatabaseManager</text>
<text text-anchor="start" x="444" y="-294.5" font-family="Helvetica,sans-Serif" font-size="10.00">/Project/classes/backendClasses</text>
<text text-anchor="middle" x="517.12" y="-282.5" font-family="Helvetica,sans-Serif" font-size="10.00">/objecthandler.hpp</text>
</a>
</g>
</g>
<!-- Node1&#45;&gt;Node2 -->
<g id="edge1_Node000001_Node000002" class="edge">
<title>Node1&#45;&gt;Node2</title>
<g id="a_edge1_Node000001_Node000002"><a xlink:title=" ">
<path fill="none" stroke="#63b8ff" d="M571.55,-359.42C562.53,-350.4 552.98,-340.86 544.45,-332.32"/>
<polygon fill="#63b8ff" stroke="#63b8ff" points="569.02,-361.84 578.56,-366.44 573.97,-356.89 569.02,-361.84"/>
</a>
</g>
</g>
<!-- Node15 -->
<g id="Node000015" class="node">
<title>Node15</title>
<g id="a_Node000015"><a xlink:href="../../df/d10/tablehandler_8cpp.html" target="_top" xlink:title=" ">
<polygon fill="white" stroke="#666666" points="780.38,-332 615.88,-332 615.88,-276 780.38,-276 780.38,-332"/>
<text text-anchor="start" x="623.88" y="-318.5" font-family="Helvetica,sans-Serif" font-size="10.00">C:/Users/Clean/Documents</text>
<text text-anchor="start" x="623.88" y="-306.5" font-family="Helvetica,sans-Serif" font-size="10.00">/Projekte/Apos&#45;DatabaseManager</text>
<text text-anchor="start" x="623.88" y="-294.5" font-family="Helvetica,sans-Serif" font-size="10.00">/Project/classes/databaseClasses</text>
<text text-anchor="middle" x="698.12" y="-282.5" font-family="Helvetica,sans-Serif" font-size="10.00">/tablehandler.cpp</text>
</a>
</g>
</g>
<!-- Node1&#45;&gt;Node15 -->
<g id="edge19_Node000001_Node000015" class="edge">
<title>Node1&#45;&gt;Node15</title>
<g id="a_edge19_Node000001_Node000015"><a xlink:title=" ">
<path fill="none" stroke="#63b8ff" d="M643.1,-359.42C652.22,-350.4 661.87,-340.86 670.5,-332.32"/>
<polygon fill="#63b8ff" stroke="#63b8ff" points="640.65,-356.92 636,-366.44 645.57,-361.9 640.65,-356.92"/>
</a>
</g>
</g>
<!-- Node3 -->
<g id="Node000003" class="node">
<title>Node3</title>
<g id="a_Node000003"><a xlink:href="../../d1/d58/objecthandler_8cpp.html" target="_top" xlink:title=" ">
<polygon fill="white" stroke="#666666" points="162.25,-240 0,-240 0,-184 162.25,-184 162.25,-240"/>
<text text-anchor="start" x="8" y="-226.5" font-family="Helvetica,sans-Serif" font-size="10.00">C:/Users/Clean/Documents</text>
<text text-anchor="start" x="8" y="-214.5" font-family="Helvetica,sans-Serif" font-size="10.00">/Projekte/Apos&#45;DatabaseManager</text>
<text text-anchor="start" x="8" y="-202.5" font-family="Helvetica,sans-Serif" font-size="10.00">/Project/classes/backendClasses</text>
<text text-anchor="middle" x="81.12" y="-190.5" font-family="Helvetica,sans-Serif" font-size="10.00">/objecthandler.cpp</text>
</a>
</g>
</g>
<!-- Node2&#45;&gt;Node3 -->
<g id="edge2_Node000002_Node000003" class="edge">
<title>Node2&#45;&gt;Node3</title>
<g id="a_edge2_Node000002_Node000003"><a xlink:title=" ">
<path fill="none" stroke="#63b8ff" d="M424.48,-288.31C355.62,-276.81 259.56,-259.52 176.12,-240 171.7,-238.97 167.17,-237.85 162.61,-236.7"/>
<polygon fill="#63b8ff" stroke="#63b8ff" points="423.79,-291.74 434.23,-289.93 424.94,-284.84 423.79,-291.74"/>
</a>
</g>
</g>
<!-- Node4 -->
<g id="Node000004" class="node">
<title>Node4</title>
<g id="a_Node000004"><a xlink:href="../../d3/d89/startuphandler_8hpp.html" target="_top" xlink:title=" ">
<polygon fill="white" stroke="#666666" points="418.25,-240 256,-240 256,-184 418.25,-184 418.25,-240"/>
<text text-anchor="start" x="264" y="-226.5" font-family="Helvetica,sans-Serif" font-size="10.00">C:/Users/Clean/Documents</text>
<text text-anchor="start" x="264" y="-214.5" font-family="Helvetica,sans-Serif" font-size="10.00">/Projekte/Apos&#45;DatabaseManager</text>
<text text-anchor="start" x="264" y="-202.5" font-family="Helvetica,sans-Serif" font-size="10.00">/Project/classes/backendClasses</text>
<text text-anchor="middle" x="337.12" y="-190.5" font-family="Helvetica,sans-Serif" font-size="10.00">/startuphandler.hpp</text>
</a>
</g>
</g>
<!-- Node2&#45;&gt;Node4 -->
<g id="edge3_Node000002_Node000004" class="edge">
<title>Node2&#45;&gt;Node4</title>
<g id="a_edge3_Node000002_Node000004"><a xlink:title=" ">
<path fill="none" stroke="#63b8ff" d="M452.04,-270.46C432.39,-260.63 411.01,-249.94 392.08,-240.48"/>
<polygon fill="#63b8ff" stroke="#63b8ff" points="450.28,-273.49 460.79,-274.83 453.41,-267.23 450.28,-273.49"/>
</a>
</g>
</g>
<!-- Node6 -->
<g id="Node000006" class="node">
<title>Node6</title>
<g id="a_Node000006"><a xlink:href="../../df/d0a/main_8cpp.html" target="_top" xlink:title=" ">
<polygon fill="white" stroke="#666666" points="489.25,-50 327,-50 327,-6 489.25,-6 489.25,-50"/>
<text text-anchor="start" x="335" y="-36.5" font-family="Helvetica,sans-Serif" font-size="10.00">C:/Users/Clean/Documents</text>
<text text-anchor="start" x="335" y="-24.5" font-family="Helvetica,sans-Serif" font-size="10.00">/Projekte/Apos&#45;DatabaseManager</text>
<text text-anchor="middle" x="408.12" y="-12.5" font-family="Helvetica,sans-Serif" font-size="10.00">/Project/source/main.cpp</text>
</a>
</g>
</g>
<!-- Node2&#45;&gt;Node6 -->
<g id="edge18_Node000002_Node000006" class="edge">
<title>Node2&#45;&gt;Node6</title>
<g id="a_edge18_Node000002_Node000006"><a xlink:title=" ">
<path fill="none" stroke="#63b8ff" d="M424.75,-290.62C357.55,-279.96 273.84,-262.69 247.12,-240 213.41,-211.36 217.73,-191.39 209.12,-148 204.28,-123.59 194.42,-112.08 209.12,-92 236,-55.31 284.35,-39.45 326.66,-32.82"/>
<polygon fill="#63b8ff" stroke="#63b8ff" points="423.9,-294.03 434.31,-292.11 424.97,-287.11 423.9,-294.03"/>
</a>
</g>
</g>
<!-- Node7 -->
<g id="Node000007" class="node">
<title>Node7</title>
<g id="a_Node000007"><a xlink:href="../../d5/d65/devwindow_8hpp.html" target="_top" xlink:title=" ">
<polygon fill="white" stroke="#666666" points="598.25,-240 436,-240 436,-184 598.25,-184 598.25,-240"/>
<text text-anchor="start" x="444" y="-226.5" font-family="Helvetica,sans-Serif" font-size="10.00">C:/Users/Clean/Documents</text>
<text text-anchor="start" x="444" y="-214.5" font-family="Helvetica,sans-Serif" font-size="10.00">/Projekte/Apos&#45;DatabaseManager</text>
<text text-anchor="start" x="444" y="-202.5" font-family="Helvetica,sans-Serif" font-size="10.00">/Project/classes/frontendClasses</text>
<text text-anchor="middle" x="517.12" y="-190.5" font-family="Helvetica,sans-Serif" font-size="10.00">/devwindow.hpp</text>
</a>
</g>
</g>
<!-- Node2&#45;&gt;Node7 -->
<g id="edge6_Node000002_Node000007" class="edge">
<title>Node2&#45;&gt;Node7</title>
<g id="a_edge6_Node000002_Node000007"><a xlink:title=" ">
<path fill="none" stroke="#63b8ff" d="M517.12,-264.09C517.12,-256.08 517.12,-247.81 517.12,-240.32"/>
<polygon fill="#63b8ff" stroke="#63b8ff" points="513.63,-263.99 517.13,-273.99 520.63,-263.99 513.63,-263.99"/>
</a>
</g>
</g>
<!-- Node9 -->
<g id="Node000009" class="node">
<title>Node9</title>
<g id="a_Node000009"><a xlink:href="../../da/d25/windowhandler_8hpp.html" target="_top" xlink:title=" ">
<polygon fill="white" stroke="#666666" points="778.25,-148 616,-148 616,-92 778.25,-92 778.25,-148"/>
<text text-anchor="start" x="624" y="-134.5" font-family="Helvetica,sans-Serif" font-size="10.00">C:/Users/Clean/Documents</text>
<text text-anchor="start" x="624" y="-122.5" font-family="Helvetica,sans-Serif" font-size="10.00">/Projekte/Apos&#45;DatabaseManager</text>
<text text-anchor="start" x="624" y="-110.5" font-family="Helvetica,sans-Serif" font-size="10.00">/Project/classes/frontendClasses</text>
<text text-anchor="middle" x="697.12" y="-98.5" font-family="Helvetica,sans-Serif" font-size="10.00">/windowhandler.hpp</text>
</a>
</g>
</g>
<!-- Node2&#45;&gt;Node9 -->
<g id="edge17_Node000002_Node000009" class="edge">
<title>Node2&#45;&gt;Node9</title>
<g id="a_edge17_Node000002_Node000009"><a xlink:title=" ">
<path fill="none" stroke="#63b8ff" d="M572.34,-269.11C584.47,-260.4 596.78,-250.5 607.12,-240 628.24,-218.58 627.09,-208.07 645.12,-184 654.06,-172.08 664.41,-159.34 673.51,-148.46"/>
<polygon fill="#63b8ff" stroke="#63b8ff" points="570.57,-266.08 564.37,-274.66 574.57,-271.82 570.57,-266.08"/>
</a>
</g>
</g>
<!-- Node11 -->
<g id="Node000011" class="node">
<title>Node11</title>
<g id="a_Node000011"><a xlink:href="../../d2/d3e/launcherwindow_8hpp.html" target="_top" xlink:title=" ">
<polygon fill="white" stroke="#666666" points="816.25,-240 654,-240 654,-184 816.25,-184 816.25,-240"/>
<text text-anchor="start" x="662" y="-226.5" font-family="Helvetica,sans-Serif" font-size="10.00">C:/Users/Clean/Documents</text>
<text text-anchor="start" x="662" y="-214.5" font-family="Helvetica,sans-Serif" font-size="10.00">/Projekte/Apos&#45;DatabaseManager</text>
<text text-anchor="start" x="662" y="-202.5" font-family="Helvetica,sans-Serif" font-size="10.00">/Project/classes/frontendClasses</text>
<text text-anchor="middle" x="735.12" y="-190.5" font-family="Helvetica,sans-Serif" font-size="10.00">/launcherwindow.hpp</text>
</a>
</g>
</g>
<!-- Node2&#45;&gt;Node11 -->
<g id="edge11_Node000002_Node000011" class="edge">
<title>Node2&#45;&gt;Node11</title>
<g id="a_edge11_Node000002_Node000011"><a xlink:title=" ">
<path fill="none" stroke="#63b8ff" d="M594.31,-271.13C618.56,-261.12 645.12,-250.16 668.57,-240.48"/>
<polygon fill="#63b8ff" stroke="#63b8ff" points="593.02,-267.88 585.12,-274.93 595.69,-274.35 593.02,-267.88"/>
</a>
</g>
</g>
<!-- Node13 -->
<g id="Node000013" class="node">
<title>Node13</title>
<g id="a_Node000013"><a xlink:href="../../df/db5/settingswindow_8hpp.html" target="_top" xlink:title=" ">
<polygon fill="white" stroke="#666666" points="996.25,-240 834,-240 834,-184 996.25,-184 996.25,-240"/>
<text text-anchor="start" x="842" y="-226.5" font-family="Helvetica,sans-Serif" font-size="10.00">C:/Users/Clean/Documents</text>
<text text-anchor="start" x="842" y="-214.5" font-family="Helvetica,sans-Serif" font-size="10.00">/Projekte/Apos&#45;DatabaseManager</text>
<text text-anchor="start" x="842" y="-202.5" font-family="Helvetica,sans-Serif" font-size="10.00">/Project/classes/frontendClasses</text>
<text text-anchor="middle" x="915.12" y="-190.5" font-family="Helvetica,sans-Serif" font-size="10.00">/settingswindow.hpp</text>
</a>
</g>
</g>
<!-- Node2&#45;&gt;Node13 -->
<g id="edge14_Node000002_Node000013" class="edge">
<title>Node2&#45;&gt;Node13</title>
<g id="a_edge14_Node000002_Node000013"><a xlink:title=" ">
<path fill="none" stroke="#63b8ff" d="M609.45,-275.59C704.81,-254.41 732.91,-261.35 825.12,-240 827.99,-239.34 830.89,-238.63 833.81,-237.9"/>
<polygon fill="#63b8ff" stroke="#63b8ff" points="608.89,-272.13 599.91,-277.76 610.44,-278.96 608.89,-272.13"/>
</a>
</g>
</g>
<!-- Node5 -->
<g id="Node000005" class="node">
<title>Node5</title>
<g id="a_Node000005"><a xlink:href="../../d3/dc6/startuphandler_8cpp.html" target="_top" xlink:title=" ">
<polygon fill="white" stroke="#666666" points="380.25,-148 218,-148 218,-92 380.25,-92 380.25,-148"/>
<text text-anchor="start" x="226" y="-134.5" font-family="Helvetica,sans-Serif" font-size="10.00">C:/Users/Clean/Documents</text>
<text text-anchor="start" x="226" y="-122.5" font-family="Helvetica,sans-Serif" font-size="10.00">/Projekte/Apos&#45;DatabaseManager</text>
<text text-anchor="start" x="226" y="-110.5" font-family="Helvetica,sans-Serif" font-size="10.00">/Project/classes/backendClasses</text>
<text text-anchor="middle" x="299.12" y="-98.5" font-family="Helvetica,sans-Serif" font-size="10.00">/startuphandler.cpp</text>
</a>
</g>
</g>
<!-- Node4&#45;&gt;Node5 -->
<g id="edge4_Node000004_Node000005" class="edge">
<title>Node4&#45;&gt;Node5</title>
<g id="a_edge4_Node000004_Node000005"><a xlink:title=" ">
<path fill="none" stroke="#63b8ff" d="M321.05,-172.92C317.56,-164.66 313.93,-156.08 310.66,-148.32"/>
<polygon fill="#63b8ff" stroke="#63b8ff" points="317.81,-174.26 324.93,-182.11 324.26,-171.54 317.81,-174.26"/>
</a>
</g>
</g>
<!-- Node4&#45;&gt;Node6 -->
<g id="edge5_Node000004_Node000006" class="edge">
<title>Node4&#45;&gt;Node6</title>
<g id="a_edge5_Node000004_Node000006"><a xlink:title=" ">
<path fill="none" stroke="#63b8ff" d="M372.2,-175.06C378.73,-166.72 384.84,-157.49 389.12,-148 403.59,-115.97 407.25,-74.73 408.06,-50.16"/>
<polygon fill="#63b8ff" stroke="#63b8ff" points="369.67,-172.63 365.98,-182.56 375.06,-177.1 369.67,-172.63"/>
</a>
</g>
</g>
<!-- Node8 -->
<g id="Node000008" class="node">
<title>Node8</title>
<g id="a_Node000008"><a xlink:href="../../d1/d87/devwindow_8cpp.html" target="_top" xlink:title=" ">
<polygon fill="white" stroke="#666666" points="598.25,-148 436,-148 436,-92 598.25,-92 598.25,-148"/>
<text text-anchor="start" x="444" y="-134.5" font-family="Helvetica,sans-Serif" font-size="10.00">C:/Users/Clean/Documents</text>
<text text-anchor="start" x="444" y="-122.5" font-family="Helvetica,sans-Serif" font-size="10.00">/Projekte/Apos&#45;DatabaseManager</text>
<text text-anchor="start" x="444" y="-110.5" font-family="Helvetica,sans-Serif" font-size="10.00">/Project/classes/frontendClasses</text>
<text text-anchor="middle" x="517.12" y="-98.5" font-family="Helvetica,sans-Serif" font-size="10.00">/devwindow.cpp</text>
</a>
</g>
</g>
<!-- Node7&#45;&gt;Node8 -->
<g id="edge7_Node000007_Node000008" class="edge">
<title>Node7&#45;&gt;Node8</title>
<g id="a_edge7_Node000007_Node000008"><a xlink:title=" ">
<path fill="none" stroke="#63b8ff" d="M517.12,-172.09C517.12,-164.08 517.12,-155.81 517.12,-148.32"/>
<polygon fill="#63b8ff" stroke="#63b8ff" points="513.63,-171.99 517.13,-181.99 520.63,-171.99 513.63,-171.99"/>
</a>
</g>
</g>
<!-- Node7&#45;&gt;Node9 -->
<g id="edge8_Node000007_Node000009" class="edge">
<title>Node7&#45;&gt;Node9</title>
<g id="a_edge8_Node000007_Node000009"><a xlink:title=" ">
<path fill="none" stroke="#63b8ff" d="M582.21,-178.46C601.86,-168.63 623.24,-157.94 642.17,-148.48"/>
<polygon fill="#63b8ff" stroke="#63b8ff" points="580.84,-175.23 573.46,-182.83 583.97,-181.49 580.84,-175.23"/>
</a>
</g>
</g>
<!-- Node9&#45;&gt;Node6 -->
<g id="edge10_Node000009_Node000006" class="edge">
<title>Node9&#45;&gt;Node6</title>
<g id="a_edge10_Node000009_Node000006"><a xlink:title=" ">
<path fill="none" stroke="#63b8ff" d="M604.91,-90.28C563.43,-77.37 515.32,-62.38 477.05,-50.47"/>
<polygon fill="#63b8ff" stroke="#63b8ff" points="603.82,-93.61 614.41,-93.24 605.9,-86.93 603.82,-93.61"/>
</a>
</g>
</g>
<!-- Node10 -->
<g id="Node000010" class="node">
<title>Node10</title>
<g id="a_Node000010"><a xlink:href="../../d0/d1d/windowhandler_8cpp.html" target="_top" xlink:title=" ">
<polygon fill="white" stroke="#666666" points="778.25,-56 616,-56 616,0 778.25,0 778.25,-56"/>
<text text-anchor="start" x="624" y="-42.5" font-family="Helvetica,sans-Serif" font-size="10.00">C:/Users/Clean/Documents</text>
<text text-anchor="start" x="624" y="-30.5" font-family="Helvetica,sans-Serif" font-size="10.00">/Projekte/Apos&#45;DatabaseManager</text>
<text text-anchor="start" x="624" y="-18.5" font-family="Helvetica,sans-Serif" font-size="10.00">/Project/classes/frontendClasses</text>
<text text-anchor="middle" x="697.12" y="-6.5" font-family="Helvetica,sans-Serif" font-size="10.00">/windowhandler.cpp</text>
</a>
</g>
</g>
<!-- Node9&#45;&gt;Node10 -->
<g id="edge9_Node000009_Node000010" class="edge">
<title>Node9&#45;&gt;Node10</title>
<g id="a_edge9_Node000009_Node000010"><a xlink:title=" ">
<path fill="none" stroke="#63b8ff" d="M697.12,-80.09C697.12,-72.08 697.12,-63.81 697.12,-56.32"/>
<polygon fill="#63b8ff" stroke="#63b8ff" points="693.63,-79.99 697.13,-89.99 700.63,-79.99 693.63,-79.99"/>
</a>
</g>
</g>
<!-- Node11&#45;&gt;Node9 -->
<g id="edge13_Node000011_Node000009" class="edge">
<title>Node11&#45;&gt;Node9</title>
<g id="a_edge13_Node000011_Node000009"><a xlink:title=" ">
<path fill="none" stroke="#63b8ff" d="M719.05,-172.92C715.56,-164.66 711.93,-156.08 708.66,-148.32"/>
<polygon fill="#63b8ff" stroke="#63b8ff" points="715.81,-174.26 722.93,-182.11 722.26,-171.54 715.81,-174.26"/>
</a>
</g>
</g>
<!-- Node12 -->
<g id="Node000012" class="node">
<title>Node12</title>
<g id="a_Node000012"><a xlink:href="../../d5/d17/launcherwindow_8cpp.html" target="_top" xlink:title=" ">
<polygon fill="white" stroke="#666666" points="958.25,-148 796,-148 796,-92 958.25,-92 958.25,-148"/>
<text text-anchor="start" x="804" y="-134.5" font-family="Helvetica,sans-Serif" font-size="10.00">C:/Users/Clean/Documents</text>
<text text-anchor="start" x="804" y="-122.5" font-family="Helvetica,sans-Serif" font-size="10.00">/Projekte/Apos&#45;DatabaseManager</text>
<text text-anchor="start" x="804" y="-110.5" font-family="Helvetica,sans-Serif" font-size="10.00">/Project/classes/frontendClasses</text>
<text text-anchor="middle" x="877.12" y="-98.5" font-family="Helvetica,sans-Serif" font-size="10.00">/launcherwindow.cpp</text>
</a>
</g>
</g>
<!-- Node11&#45;&gt;Node12 -->
<g id="edge12_Node000011_Node000012" class="edge">
<title>Node11&#45;&gt;Node12</title>
<g id="a_edge12_Node000011_Node000012"><a xlink:title=" ">
<path fill="none" stroke="#63b8ff" d="M787.8,-177.62C803.02,-167.97 819.45,-157.56 834.01,-148.32"/>
<polygon fill="#63b8ff" stroke="#63b8ff" points="786.35,-174.39 779.78,-182.7 790.1,-180.3 786.35,-174.39"/>
</a>
</g>
</g>
<!-- Node13&#45;&gt;Node9 -->
<g id="edge16_Node000013_Node000009" class="edge">
<title>Node13&#45;&gt;Node9</title>
<g id="a_edge16_Node000013_Node000009"><a xlink:title=" ">
<path fill="none" stroke="#63b8ff" d="M837.94,-179.13C813.69,-169.12 787.13,-158.16 763.68,-148.48"/>
<polygon fill="#63b8ff" stroke="#63b8ff" points="836.56,-182.35 847.13,-182.93 839.23,-175.88 836.56,-182.35"/>
</a>
</g>
</g>
<!-- Node14 -->
<g id="Node000014" class="node">
<title>Node14</title>
<g id="a_Node000014"><a xlink:href="../../db/da0/settingswindow_8cpp.html" target="_top" xlink:title=" ">
<polygon fill="white" stroke="#666666" points="1138.25,-148 976,-148 976,-92 1138.25,-92 1138.25,-148"/>
<text text-anchor="start" x="984" y="-134.5" font-family="Helvetica,sans-Serif" font-size="10.00">C:/Users/Clean/Documents</text>
<text text-anchor="start" x="984" y="-122.5" font-family="Helvetica,sans-Serif" font-size="10.00">/Projekte/Apos&#45;DatabaseManager</text>
<text text-anchor="start" x="984" y="-110.5" font-family="Helvetica,sans-Serif" font-size="10.00">/Project/classes/frontendClasses</text>
<text text-anchor="middle" x="1057.12" y="-98.5" font-family="Helvetica,sans-Serif" font-size="10.00">/settingswindow.cpp</text>
</a>
</g>
</g>
<!-- Node13&#45;&gt;Node14 -->
<g id="edge15_Node000013_Node000014" class="edge">
<title>Node13&#45;&gt;Node14</title>
<g id="a_edge15_Node000013_Node000014"><a xlink:title=" ">
<path fill="none" stroke="#63b8ff" d="M967.8,-177.62C983.02,-167.97 999.45,-157.56 1014.01,-148.32"/>
<polygon fill="#63b8ff" stroke="#63b8ff" points="966.35,-174.39 959.78,-182.7 970.1,-180.3 966.35,-174.39"/>
</a>
</g>
</g>
</g>
</svg>
