<?xml version="1.0" encoding="UTF-8" standalone="no"?>
<!DOCTYPE svg PUBLIC "-//W3C//DTD SVG 1.1//EN"
 "http://www.w3.org/Graphics/SVG/1.1/DTD/svg11.dtd">
<!-- Generated by graphviz version 9.0.0 (20230911.1827)
 -->
<!-- Title: C:/Users/Clean/Documents/Projekte/Apos&#45;DatabaseManager/Project/classes/databaseClasses/tablehandler.hpp Pages: 1 -->
<svg xmlns:xlink="http://www.w3.org/1999/xlink" width="999pt"
 height="432pt" viewBox="0.00 0.00 999.25 432.00" xmlns="http://www.w3.org/2000/svg">
<g id="graph0" class="graph" transform="scale(1 1) rotate(0) translate(4 428)">
<title>C:/Users/Clean/Documents/Projekte/Apos&#45;DatabaseManager/Project/classes/databaseClasses/tablehandler.hpp</title>
<!-- Node1 -->
<g id="Node000001" class="node">
<title>Node1</title>
<g id="a_Node000001"><a xlink:title="Header file for the TableHandler class.">
<polygon fill="#999999" stroke="#666666" points="667.38,-424 502.88,-424 502.88,-368 667.38,-368 667.38,-424"/>
<text text-anchor="start" x="510.88" y="-410.5" font-family="Helvetica,sans-Serif" font-size="10.00">C:/Users/Clean/Documents</text>
<text text-anchor="start" x="510.88" y="-398.5" font-family="Helvetica,sans-Serif" font-size="10.00">/Projekte/Apos&#45;DatabaseManager</text>
<text text-anchor="start" x="510.88" y="-386.5" font-family="Helvetica,sans-Serif" font-size="10.00">/Project/classes/databaseClasses</text>
<text text-anchor="middle" x="585.12" y="-374.5" font-family="Helvetica,sans-Serif" font-size="10.00">/tablehandler.hpp</text>
</a>
</g>
</g>
<!-- Node2 -->
<g id="Node000002" class="node">
<title>Node2</title>
<g id="a_Node000002"><a xlink:href="../../d5/dcc/objecthandler_8hpp.html" target="_top" xlink:title="Header file for the ObjectHandler class.">
<polygon fill="white" stroke="#666666" points="576.25,-332 414,-332 414,-276 576.25,-276 576.25,-332"/>
<text text-anchor="start" x="422" y="-318.5" font-family="Helvetica,sans-Serif" font-size="10.00">C:/Users/Clean/Documents</text>
<text text-anchor="start" x="422" y="-306.5" font-family="Helvetica,sans-Serif" font-size="10.00">/Projekte/Apos&#45;DatabaseManager</text>
<text text-anchor="start" x="422" y="-294.5" font-family="Helvetica,sans-Serif" font-size="10.00">/Project/classes/backendClasses</text>
<text text-anchor="middle" x="495.12" y="-282.5" font-family="Helvetica,sans-Serif" font-size="10.00">/objecthandler.hpp</text>
</a>
</g>
</g>
<!-- Node1&#45;&gt;Node2 -->
<g id="edge1_Node000001_Node000002" class="edge">
<title>Node1&#45;&gt;Node2</title>
<g id="a_edge1_Node000001_Node000002"><a xlink:title=" ">
<path fill="none" stroke="#63b8ff" d="M549.55,-359.42C540.53,-350.4 530.98,-340.86 522.45,-332.32"/>
<polygon fill="#63b8ff" stroke="#63b8ff" points="547.02,-361.84 556.56,-366.44 551.97,-356.89 547.02,-361.84"/>
</a>
</g>
</g>
<!-- Node15 -->
<g id="Node000015" class="node">
<title>Node15</title>
<g id="a_Node000015"><a xlink:href="../../df/d10/tablehandler_8cpp.html" target="_top" xlink:title="Source file for the TableHandler class.">
<polygon fill="white" stroke="#666666" points="758.38,-332 593.88,-332 593.88,-276 758.38,-276 758.38,-332"/>
<text text-anchor="start" x="601.88" y="-318.5" font-family="Helvetica,sans-Serif" font-size="10.00">C:/Users/Clean/Documents</text>
<text text-anchor="start" x="601.88" y="-306.5" font-family="Helvetica,sans-Serif" font-size="10.00">/Projekte/Apos&#45;DatabaseManager</text>
<text text-anchor="start" x="601.88" y="-294.5" font-family="Helvetica,sans-Serif" font-size="10.00">/Project/classes/databaseClasses</text>
<text text-anchor="middle" x="676.12" y="-282.5" font-family="Helvetica,sans-Serif" font-size="10.00">/tablehandler.cpp</text>
</a>
</g>
</g>
<!-- Node1&#45;&gt;Node15 -->
<g id="edge18_Node000001_Node000015" class="edge">
<title>Node1&#45;&gt;Node15</title>
<g id="a_edge18_Node000001_Node000015"><a xlink:title=" ">
<path fill="none" stroke="#63b8ff" d="M621.1,-359.42C630.22,-350.4 639.87,-340.86 648.5,-332.32"/>
<polygon fill="#63b8ff" stroke="#63b8ff" points="618.65,-356.92 614,-366.44 623.57,-361.9 618.65,-356.92"/>
</a>
</g>
</g>
<!-- Node3 -->
<g id="Node000003" class="node">
<title>Node3</title>
<g id="a_Node000003"><a xlink:href="../../d1/d58/objecthandler_8cpp.html" target="_top" xlink:title="Source file for the ObjectHandler class.">
<polygon fill="white" stroke="#666666" points="162.25,-240 0,-240 0,-184 162.25,-184 162.25,-240"/>
<text text-anchor="start" x="8" y="-226.5" font-family="Helvetica,sans-Serif" font-size="10.00">C:/Users/Clean/Documents</text>
<text text-anchor="start" x="8" y="-214.5" font-family="Helvetica,sans-Serif" font-size="10.00">/Projekte/Apos&#45;DatabaseManager</text>
<text text-anchor="start" x="8" y="-202.5" font-family="Helvetica,sans-Serif" font-size="10.00">/Project/classes/backendClasses</text>
<text text-anchor="middle" x="81.12" y="-190.5" font-family="Helvetica,sans-Serif" font-size="10.00">/objecthandler.cpp</text>
</a>
</g>
</g>
<!-- Node2&#45;&gt;Node3 -->
<g id="edge2_Node000002_Node000003" class="edge">
<title>Node2&#45;&gt;Node3</title>
<g id="a_edge2_Node000002_Node000003"><a xlink:title=" ">
<path fill="none" stroke="#63b8ff" d="M402.69,-287.55C337.59,-276.05 248.57,-259.1 171.12,-240 168.27,-239.3 165.38,-238.56 162.46,-237.8"/>
<polygon fill="#63b8ff" stroke="#63b8ff" points="401.8,-290.95 412.26,-289.23 403.01,-284.05 401.8,-290.95"/>
</a>
</g>
</g>
<!-- Node4 -->
<g id="Node000004" class="node">
<title>Node4</title>
<g id="a_Node000004"><a xlink:href="../../d3/d89/startuphandler_8hpp.html" target="_top" xlink:title="Header file for the StartupHandler class.">
<polygon fill="white" stroke="#666666" points="342.25,-240 180,-240 180,-184 342.25,-184 342.25,-240"/>
<text text-anchor="start" x="188" y="-226.5" font-family="Helvetica,sans-Serif" font-size="10.00">C:/Users/Clean/Documents</text>
<text text-anchor="start" x="188" y="-214.5" font-family="Helvetica,sans-Serif" font-size="10.00">/Projekte/Apos&#45;DatabaseManager</text>
<text text-anchor="start" x="188" y="-202.5" font-family="Helvetica,sans-Serif" font-size="10.00">/Project/classes/backendClasses</text>
<text text-anchor="middle" x="261.12" y="-190.5" font-family="Helvetica,sans-Serif" font-size="10.00">/startuphandler.hpp</text>
</a>
</g>
</g>
<!-- Node2&#45;&gt;Node4 -->
<g id="edge3_Node000002_Node000004" class="edge">
<title>Node2&#45;&gt;Node4</title>
<g id="a_edge3_Node000002_Node000004"><a xlink:title=" ">
<path fill="none" stroke="#63b8ff" d="M412.97,-271.4C386.75,-261.32 357.96,-250.25 332.57,-240.48"/>
<polygon fill="#63b8ff" stroke="#63b8ff" points="411.64,-274.64 422.23,-274.96 414.16,-268.11 411.64,-274.64"/>
</a>
</g>
</g>
<!-- Node7 -->
<g id="Node000007" class="node">
<title>Node7</title>
<g id="a_Node000007"><a xlink:href="../../d5/d65/devwindow_8hpp.html" target="_top" xlink:title="Header file for the DevWindow class.">
<polygon fill="white" stroke="#666666" points="522.25,-240 360,-240 360,-184 522.25,-184 522.25,-240"/>
<text text-anchor="start" x="368" y="-226.5" font-family="Helvetica,sans-Serif" font-size="10.00">C:/Users/Clean/Documents</text>
<text text-anchor="start" x="368" y="-214.5" font-family="Helvetica,sans-Serif" font-size="10.00">/Projekte/Apos&#45;DatabaseManager</text>
<text text-anchor="start" x="368" y="-202.5" font-family="Helvetica,sans-Serif" font-size="10.00">/Project/classes/frontendClasses</text>
<text text-anchor="middle" x="441.12" y="-190.5" font-family="Helvetica,sans-Serif" font-size="10.00">/devwindow.hpp</text>
</a>
</g>
</g>
<!-- Node2&#45;&gt;Node7 -->
<g id="edge6_Node000002_Node000007" class="edge">
<title>Node2&#45;&gt;Node7</title>
<g id="a_edge6_Node000002_Node000007"><a xlink:title=" ">
<path fill="none" stroke="#63b8ff" d="M472.78,-265.76C467.67,-257.24 462.33,-248.34 457.52,-240.32"/>
<polygon fill="#63b8ff" stroke="#63b8ff" points="469.7,-267.44 477.85,-274.21 475.71,-263.83 469.7,-267.44"/>
</a>
</g>
</g>
<!-- Node9 -->
<g id="Node000009" class="node">
<title>Node9</title>
<g id="a_Node000009"><a xlink:href="../../da/d25/windowhandler_8hpp.html" target="_top" xlink:title="Header file for the WindowHandler class.">
<polygon fill="white" stroke="#666666" points="631.25,-148 469,-148 469,-92 631.25,-92 631.25,-148"/>
<text text-anchor="start" x="477" y="-134.5" font-family="Helvetica,sans-Serif" font-size="10.00">C:/Users/Clean/Documents</text>
<text text-anchor="start" x="477" y="-122.5" font-family="Helvetica,sans-Serif" font-size="10.00">/Projekte/Apos&#45;DatabaseManager</text>
<text text-anchor="start" x="477" y="-110.5" font-family="Helvetica,sans-Serif" font-size="10.00">/Project/classes/frontendClasses</text>
<text text-anchor="middle" x="550.12" y="-98.5" font-family="Helvetica,sans-Serif" font-size="10.00">/windowhandler.hpp</text>
</a>
</g>
</g>
<!-- Node2&#45;&gt;Node9 -->
<g id="edge17_Node000002_Node000009" class="edge">
<title>Node2&#45;&gt;Node9</title>
<g id="a_edge17_Node000002_Node000009"><a xlink:title=" ">
<path fill="none" stroke="#63b8ff" d="M519.43,-265.55C523.9,-257.38 528.09,-248.6 531.12,-240 541.83,-209.61 546.53,-172.72 548.58,-148.15"/>
<polygon fill="#63b8ff" stroke="#63b8ff" points="516.42,-263.78 514.47,-274.19 522.48,-267.27 516.42,-263.78"/>
</a>
</g>
</g>
<!-- Node11 -->
<g id="Node000011" class="node">
<title>Node11</title>
<g id="a_Node000011"><a xlink:href="../../d2/d3e/launcherwindow_8hpp.html" target="_top" xlink:title="Header file for the LauncherWindow class.">
<polygon fill="white" stroke="#666666" points="740.25,-240 578,-240 578,-184 740.25,-184 740.25,-240"/>
<text text-anchor="start" x="586" y="-226.5" font-family="Helvetica,sans-Serif" font-size="10.00">C:/Users/Clean/Documents</text>
<text text-anchor="start" x="586" y="-214.5" font-family="Helvetica,sans-Serif" font-size="10.00">/Projekte/Apos&#45;DatabaseManager</text>
<text text-anchor="start" x="586" y="-202.5" font-family="Helvetica,sans-Serif" font-size="10.00">/Project/classes/frontendClasses</text>
<text text-anchor="middle" x="659.12" y="-190.5" font-family="Helvetica,sans-Serif" font-size="10.00">/launcherwindow.hpp</text>
</a>
</g>
</g>
<!-- Node2&#45;&gt;Node11 -->
<g id="edge11_Node000002_Node000011" class="edge">
<title>Node2&#45;&gt;Node11</title>
<g id="a_edge11_Node000002_Node000011"><a xlink:title=" ">
<path fill="none" stroke="#63b8ff" d="M554.92,-270.19C572.69,-260.43 591.97,-249.86 609.05,-240.48"/>
<polygon fill="#63b8ff" stroke="#63b8ff" points="553.63,-266.9 546.55,-274.78 557,-273.04 553.63,-266.9"/>
</a>
</g>
</g>
<!-- Node13 -->
<g id="Node000013" class="node">
<title>Node13</title>
<g id="a_Node000013"><a xlink:href="../../df/db5/settingswindow_8hpp.html" target="_top" xlink:title="Header file for the SettingsWindow class.">
<polygon fill="white" stroke="#666666" points="920.25,-240 758,-240 758,-184 920.25,-184 920.25,-240"/>
<text text-anchor="start" x="766" y="-226.5" font-family="Helvetica,sans-Serif" font-size="10.00">C:/Users/Clean/Documents</text>
<text text-anchor="start" x="766" y="-214.5" font-family="Helvetica,sans-Serif" font-size="10.00">/Projekte/Apos&#45;DatabaseManager</text>
<text text-anchor="start" x="766" y="-202.5" font-family="Helvetica,sans-Serif" font-size="10.00">/Project/classes/frontendClasses</text>
<text text-anchor="middle" x="839.12" y="-190.5" font-family="Helvetica,sans-Serif" font-size="10.00">/settingswindow.hpp</text>
</a>
</g>
</g>
<!-- Node2&#45;&gt;Node13 -->
<g id="edge14_Node000002_Node000013" class="edge">
<title>Node2&#45;&gt;Node13</title>
<g id="a_edge14_Node000002_Node000013"><a xlink:title=" ">
<path fill="none" stroke="#63b8ff" d="M587.46,-275.48C659.31,-257.36 680.28,-257.86 749.12,-240 751.97,-239.26 754.85,-238.5 757.77,-237.71"/>
<polygon fill="#63b8ff" stroke="#63b8ff" points="586.77,-272.05 577.95,-277.92 588.5,-278.83 586.77,-272.05"/>
</a>
</g>
</g>
<!-- Node5 -->
<g id="Node000005" class="node">
<title>Node5</title>
<g id="a_Node000005"><a xlink:href="../../d3/dc6/startuphandler_8cpp.html" target="_top" xlink:title="Source file for the StartupHandler class.">
<polygon fill="white" stroke="#666666" points="233.25,-148 71,-148 71,-92 233.25,-92 233.25,-148"/>
<text text-anchor="start" x="79" y="-134.5" font-family="Helvetica,sans-Serif" font-size="10.00">C:/Users/Clean/Documents</text>
<text text-anchor="start" x="79" y="-122.5" font-family="Helvetica,sans-Serif" font-size="10.00">/Projekte/Apos&#45;DatabaseManager</text>
<text text-anchor="start" x="79" y="-110.5" font-family="Helvetica,sans-Serif" font-size="10.00">/Project/classes/backendClasses</text>
<text text-anchor="middle" x="152.12" y="-98.5" font-family="Helvetica,sans-Serif" font-size="10.00">/startuphandler.cpp</text>
</a>
</g>
</g>
<!-- Node4&#45;&gt;Node5 -->
<g id="edge4_Node000004_Node000005" class="edge">
<title>Node4&#45;&gt;Node5</title>
<g id="a_edge4_Node000004_Node000005"><a xlink:title=" ">
<path fill="none" stroke="#63b8ff" d="M219.03,-176.25C207.82,-166.99 195.87,-157.12 185.22,-148.32"/>
<polygon fill="#63b8ff" stroke="#63b8ff" points="216.72,-178.88 226.66,-182.54 221.18,-173.48 216.72,-178.88"/>
</a>
</g>
</g>
<!-- Node6 -->
<g id="Node000006" class="node">
<title>Node6</title>
<g id="a_Node000006"><a xlink:href="../../df/d0a/main_8cpp.html" target="_top" xlink:title="Main entry point for the application.">
<polygon fill="white" stroke="#666666" points="396.25,-50 234,-50 234,-6 396.25,-6 396.25,-50"/>
<text text-anchor="start" x="242" y="-36.5" font-family="Helvetica,sans-Serif" font-size="10.00">C:/Users/Clean/Documents</text>
<text text-anchor="start" x="242" y="-24.5" font-family="Helvetica,sans-Serif" font-size="10.00">/Projekte/Apos&#45;DatabaseManager</text>
<text text-anchor="middle" x="315.12" y="-12.5" font-family="Helvetica,sans-Serif" font-size="10.00">/Project/source/main.cpp</text>
</a>
</g>
</g>
<!-- Node4&#45;&gt;Node6 -->
<g id="edge5_Node000004_Node000006" class="edge">
<title>Node4&#45;&gt;Node6</title>
<g id="a_edge5_Node000004_Node000006"><a xlink:title=" ">
<path fill="none" stroke="#63b8ff" d="M263.85,-172.52C266.35,-148.8 271.12,-118.05 280.12,-92 285.19,-77.34 293.56,-62.1 300.85,-50.28"/>
<polygon fill="#63b8ff" stroke="#63b8ff" points="260.37,-172.09 262.9,-182.38 267.34,-172.75 260.37,-172.09"/>
</a>
</g>
</g>
<!-- Node8 -->
<g id="Node000008" class="node">
<title>Node8</title>
<g id="a_Node000008"><a xlink:href="../../d1/d87/devwindow_8cpp.html" target="_top" xlink:title="Source file for the DevWindow class.">
<polygon fill="white" stroke="#666666" points="451.25,-148 289,-148 289,-92 451.25,-92 451.25,-148"/>
<text text-anchor="start" x="297" y="-134.5" font-family="Helvetica,sans-Serif" font-size="10.00">C:/Users/Clean/Documents</text>
<text text-anchor="start" x="297" y="-122.5" font-family="Helvetica,sans-Serif" font-size="10.00">/Projekte/Apos&#45;DatabaseManager</text>
<text text-anchor="start" x="297" y="-110.5" font-family="Helvetica,sans-Serif" font-size="10.00">/Project/classes/frontendClasses</text>
<text text-anchor="middle" x="370.12" y="-98.5" font-family="Helvetica,sans-Serif" font-size="10.00">/devwindow.cpp</text>
</a>
</g>
</g>
<!-- Node7&#45;&gt;Node8 -->
<g id="edge7_Node000007_Node000008" class="edge">
<title>Node7&#45;&gt;Node8</title>
<g id="a_edge7_Node000007_Node000008"><a xlink:title=" ">
<path fill="none" stroke="#63b8ff" d="M412.4,-174.59C405.48,-165.82 398.21,-156.6 391.68,-148.32"/>
<polygon fill="#63b8ff" stroke="#63b8ff" points="409.56,-176.64 418.5,-182.32 415.05,-172.3 409.56,-176.64"/>
</a>
</g>
</g>
<!-- Node7&#45;&gt;Node9 -->
<g id="edge8_Node000007_Node000009" class="edge">
<title>Node7&#45;&gt;Node9</title>
<g id="a_edge8_Node000007_Node000009"><a xlink:title=" ">
<path fill="none" stroke="#63b8ff" d="M483.22,-176.25C494.43,-166.99 506.38,-157.12 517.03,-148.32"/>
<polygon fill="#63b8ff" stroke="#63b8ff" points="481.07,-173.48 475.59,-182.54 485.53,-178.88 481.07,-173.48"/>
</a>
</g>
</g>
<!-- Node9&#45;&gt;Node6 -->
<g id="edge10_Node000009_Node000006" class="edge">
<title>Node9&#45;&gt;Node6</title>
<g id="a_edge10_Node000009_Node000006"><a xlink:title=" ">
<path fill="none" stroke="#63b8ff" d="M467.68,-87.42C435.76,-75.2 400.04,-61.52 371.19,-50.47"/>
<polygon fill="#63b8ff" stroke="#63b8ff" points="466.34,-90.66 476.93,-90.97 468.84,-84.12 466.34,-90.66"/>
</a>
</g>
</g>
<!-- Node10 -->
<g id="Node000010" class="node">
<title>Node10</title>
<g id="a_Node000010"><a xlink:href="../../d0/d1d/windowhandler_8cpp.html" target="_top" xlink:title="Source file for the WindowHandler class.">
<polygon fill="white" stroke="#666666" points="631.25,-56 469,-56 469,0 631.25,0 631.25,-56"/>
<text text-anchor="start" x="477" y="-42.5" font-family="Helvetica,sans-Serif" font-size="10.00">C:/Users/Clean/Documents</text>
<text text-anchor="start" x="477" y="-30.5" font-family="Helvetica,sans-Serif" font-size="10.00">/Projekte/Apos&#45;DatabaseManager</text>
<text text-anchor="start" x="477" y="-18.5" font-family="Helvetica,sans-Serif" font-size="10.00">/Project/classes/frontendClasses</text>
<text text-anchor="middle" x="550.12" y="-6.5" font-family="Helvetica,sans-Serif" font-size="10.00">/windowhandler.cpp</text>
</a>
</g>
</g>
<!-- Node9&#45;&gt;Node10 -->
<g id="edge9_Node000009_Node000010" class="edge">
<title>Node9&#45;&gt;Node10</title>
<g id="a_edge9_Node000009_Node000010"><a xlink:title=" ">
<path fill="none" stroke="#63b8ff" d="M550.12,-80.09C550.12,-72.08 550.12,-63.81 550.12,-56.32"/>
<polygon fill="#63b8ff" stroke="#63b8ff" points="546.63,-79.99 550.13,-89.99 553.63,-79.99 546.63,-79.99"/>
</a>
</g>
</g>
<!-- Node11&#45;&gt;Node9 -->
<g id="edge13_Node000011_Node000009" class="edge">
<title>Node11&#45;&gt;Node9</title>
<g id="a_edge13_Node000011_Node000009"><a xlink:title=" ">
<path fill="none" stroke="#63b8ff" d="M617.03,-176.25C605.82,-166.99 593.87,-157.12 583.22,-148.32"/>
<polygon fill="#63b8ff" stroke="#63b8ff" points="614.72,-178.88 624.66,-182.54 619.18,-173.48 614.72,-178.88"/>
</a>
</g>
</g>
<!-- Node12 -->
<g id="Node000012" class="node">
<title>Node12</title>
<g id="a_Node000012"><a xlink:href="../../d5/d17/launcherwindow_8cpp.html" target="_top" xlink:title="Source file for the LauncherWindow class.">
<polygon fill="white" stroke="#666666" points="811.25,-148 649,-148 649,-92 811.25,-92 811.25,-148"/>
<text text-anchor="start" x="657" y="-134.5" font-family="Helvetica,sans-Serif" font-size="10.00">C:/Users/Clean/Documents</text>
<text text-anchor="start" x="657" y="-122.5" font-family="Helvetica,sans-Serif" font-size="10.00">/Projekte/Apos&#45;DatabaseManager</text>
<text text-anchor="start" x="657" y="-110.5" font-family="Helvetica,sans-Serif" font-size="10.00">/Project/classes/frontendClasses</text>
<text text-anchor="middle" x="730.12" y="-98.5" font-family="Helvetica,sans-Serif" font-size="10.00">/launcherwindow.cpp</text>
</a>
</g>
</g>
<!-- Node11&#45;&gt;Node12 -->
<g id="edge12_Node000011_Node000012" class="edge">
<title>Node11&#45;&gt;Node12</title>
<g id="a_edge12_Node000011_Node000012"><a xlink:title=" ">
<path fill="none" stroke="#63b8ff" d="M687.85,-174.59C694.77,-165.82 702.04,-156.6 708.57,-148.32"/>
<polygon fill="#63b8ff" stroke="#63b8ff" points="685.2,-172.3 681.75,-182.32 690.69,-176.64 685.2,-172.3"/>
</a>
</g>
</g>
<!-- Node13&#45;&gt;Node9 -->
<g id="edge16_Node000013_Node000009" class="edge">
<title>Node13&#45;&gt;Node9</title>
<g id="a_edge16_Node000013_Node000009"><a xlink:title=" ">
<path fill="none" stroke="#63b8ff" d="M747.03,-182.32C709.93,-170.77 667.49,-157.55 631.54,-146.35"/>
<polygon fill="#63b8ff" stroke="#63b8ff" points="745.82,-185.61 756.41,-185.24 747.9,-178.93 745.82,-185.61"/>
</a>
</g>
</g>
<!-- Node14 -->
<g id="Node000014" class="node">
<title>Node14</title>
<g id="a_Node000014"><a xlink:href="../../db/da0/settingswindow_8cpp.html" target="_top" xlink:title="Source file for the SettingsWindow class.">
<polygon fill="white" stroke="#666666" points="991.25,-148 829,-148 829,-92 991.25,-92 991.25,-148"/>
<text text-anchor="start" x="837" y="-134.5" font-family="Helvetica,sans-Serif" font-size="10.00">C:/Users/Clean/Documents</text>
<text text-anchor="start" x="837" y="-122.5" font-family="Helvetica,sans-Serif" font-size="10.00">/Projekte/Apos&#45;DatabaseManager</text>
<text text-anchor="start" x="837" y="-110.5" font-family="Helvetica,sans-Serif" font-size="10.00">/Project/classes/frontendClasses</text>
<text text-anchor="middle" x="910.12" y="-98.5" font-family="Helvetica,sans-Serif" font-size="10.00">/settingswindow.cpp</text>
</a>
</g>
</g>
<!-- Node13&#45;&gt;Node14 -->
<g id="edge15_Node000013_Node000014" class="edge">
<title>Node13&#45;&gt;Node14</title>
<g id="a_edge15_Node000013_Node000014"><a xlink:title=" ">
<path fill="none" stroke="#63b8ff" d="M867.85,-174.59C874.77,-165.82 882.04,-156.6 888.57,-148.32"/>
<polygon fill="#63b8ff" stroke="#63b8ff" points="865.2,-172.3 861.75,-182.32 870.69,-176.64 865.2,-172.3"/>
</a>
</g>
</g>
</g>
</svg>
