<?xml version="1.0" encoding="UTF-8" standalone="no"?>
<!DOCTYPE svg PUBLIC "-//W3C//DTD SVG 1.1//EN"
 "http://www.w3.org/Graphics/SVG/1.1/DTD/svg11.dtd">
<!-- Generated by graphviz version 9.0.0 (20230911.1827)
 -->
<!-- Title: TableHandler::generateTableModel Pages: 1 -->
<svg width="499pt" height="190pt"
 viewBox="0.00 0.00 499.25 190.00" xmlns="http://www.w3.org/2000/svg" xmlns:xlink="http://www.w3.org/1999/xlink">
<g id="graph0" class="graph" transform="scale(1 1) rotate(0) translate(4 186)">
<title>TableHandler::generateTableModel</title>
<!-- Node1 -->
<g id="Node000001" class="node">
<title>Node1</title>
<g id="a_Node000001"><a xlink:title=" ">
<polygon fill="#999999" stroke="#666666" points="491.25,-107 352.25,-107 352.25,-75 491.25,-75 491.25,-107"/>
<text text-anchor="start" x="360.25" y="-93.5" font-family="Helvetica,sans-Serif" font-size="10.00">TableHandler::generateTable</text>
<text text-anchor="middle" x="421.75" y="-81.5" font-family="Helvetica,sans-Serif" font-size="10.00">Model</text>
</a>
</g>
</g>
<!-- Node2 -->
<g id="Node000002" class="node">
<title>Node2</title>
<g id="a_Node000002"><a xlink:href="../../df/d32/class_object_handler.html#a0db21cc39e1879a9e0c86b56973a4195" target="_top" xlink:title=" ">
<polygon fill="white" stroke="#666666" points="299.75,-182 180.25,-182 180.25,-150 299.75,-150 299.75,-182"/>
<text text-anchor="start" x="188.25" y="-168.5" font-family="Helvetica,sans-Serif" font-size="10.00">ObjectHandler::initTable</text>
<text text-anchor="middle" x="240" y="-156.5" font-family="Helvetica,sans-Serif" font-size="10.00">Object</text>
</a>
</g>
</g>
<!-- Node1&#45;&gt;Node2 -->
<g id="edge1_Node000001_Node000002" class="edge">
<title>Node1&#45;&gt;Node2</title>
<g id="a_edge1_Node000001_Node000002"><a xlink:title=" ">
<path fill="none" stroke="#63b8ff" d="M379.12,-112.4C360.18,-121.75 337.34,-132.49 316.25,-141 308.85,-143.99 300.93,-146.9 293.12,-149.63"/>
<polygon fill="#63b8ff" stroke="#63b8ff" points="380.46,-115.64 387.84,-108.05 377.33,-109.38 380.46,-115.64"/>
</a>
</g>
</g>
<!-- Node4 -->
<g id="Node000004" class="node">
<title>Node4</title>
<g id="a_Node000004"><a xlink:href="../../df/d32/class_object_handler.html#a730600ee7de2764e336ab5dd5b98f1bc" target="_top" xlink:title=" ">
<polygon fill="white" stroke="#666666" points="299.75,-132 180.25,-132 180.25,-100 299.75,-100 299.75,-132"/>
<text text-anchor="start" x="188.25" y="-118.5" font-family="Helvetica,sans-Serif" font-size="10.00">ObjectHandler::initTable</text>
<text text-anchor="middle" x="240" y="-106.5" font-family="Helvetica,sans-Serif" font-size="10.00">Object</text>
</a>
</g>
</g>
<!-- Node1&#45;&gt;Node4 -->
<g id="edge3_Node000001_Node000004" class="edge">
<title>Node1&#45;&gt;Node4</title>
<g id="a_edge3_Node000001_Node000004"><a xlink:title=" ">
<path fill="none" stroke="#63b8ff" d="M340.47,-102.17C326.9,-104.05 313.04,-105.98 300.14,-107.78"/>
<polygon fill="#63b8ff" stroke="#63b8ff" points="340.85,-105.65 350.27,-100.8 339.88,-98.71 340.85,-105.65"/>
</a>
</g>
</g>
<!-- Node5 -->
<g id="Node000005" class="node">
<title>Node5</title>
<g id="a_Node000005"><a xlink:href="../../d6/d5d/class_dev_window.html#af26a0e01b5d56697ce01cc2d18a042d2" target="_top" xlink:title=" ">
<polygon fill="white" stroke="#666666" points="316.25,-82 163.75,-82 163.75,-50 316.25,-50 316.25,-82"/>
<text text-anchor="start" x="171.75" y="-68.5" font-family="Helvetica,sans-Serif" font-size="10.00">DevWindow::on_btnSelectTable</text>
<text text-anchor="middle" x="240" y="-56.5" font-family="Helvetica,sans-Serif" font-size="10.00">_clicked</text>
</a>
</g>
</g>
<!-- Node1&#45;&gt;Node5 -->
<g id="edge4_Node000001_Node000005" class="edge">
<title>Node1&#45;&gt;Node5</title>
<g id="a_edge4_Node000001_Node000005"><a xlink:title=" ">
<path fill="none" stroke="#63b8ff" d="M340.61,-79.85C332.65,-78.75 324.59,-77.63 316.68,-76.53"/>
<polygon fill="#63b8ff" stroke="#63b8ff" points="339.88,-83.29 350.27,-81.2 340.85,-76.35 339.88,-83.29"/>
</a>
</g>
</g>
<!-- Node6 -->
<g id="Node000006" class="node">
<title>Node6</title>
<g id="a_Node000006"><a xlink:href="../../d6/d5d/class_dev_window.html#a3737796c404ea1c942cca38ef6fc4a7d" target="_top" xlink:title=" ">
<polygon fill="white" stroke="#666666" points="306.12,-32 173.88,-32 173.88,0 306.12,0 306.12,-32"/>
<text text-anchor="start" x="181.88" y="-18.5" font-family="Helvetica,sans-Serif" font-size="10.00">DevWindow::on_btnUpdate</text>
<text text-anchor="middle" x="240" y="-6.5" font-family="Helvetica,sans-Serif" font-size="10.00">_clicked</text>
</a>
</g>
</g>
<!-- Node1&#45;&gt;Node6 -->
<g id="edge5_Node000001_Node000006" class="edge">
<title>Node1&#45;&gt;Node6</title>
<g id="a_edge5_Node000001_Node000006"><a xlink:title=" ">
<path fill="none" stroke="#63b8ff" d="M379.12,-69.6C360.18,-60.25 337.34,-49.51 316.25,-41 308.85,-38.01 300.93,-35.1 293.12,-32.37"/>
<polygon fill="#63b8ff" stroke="#63b8ff" points="377.33,-72.62 387.84,-73.95 380.46,-66.36 377.33,-72.62"/>
</a>
</g>
</g>
<!-- Node3 -->
<g id="Node000003" class="node">
<title>Node3</title>
<g id="a_Node000003"><a xlink:href="../../d6/d5d/class_dev_window.html#a9bfb7fe4688b2a94807581db270502ff" target="_top" xlink:title=" ">
<polygon fill="white" stroke="#666666" points="127.75,-182 0,-182 0,-150 127.75,-150 127.75,-182"/>
<text text-anchor="start" x="8" y="-168.5" font-family="Helvetica,sans-Serif" font-size="10.00">DevWindow::on_btnInitDB</text>
<text text-anchor="middle" x="63.88" y="-156.5" font-family="Helvetica,sans-Serif" font-size="10.00">_clicked</text>
</a>
</g>
</g>
<!-- Node2&#45;&gt;Node3 -->
<g id="edge2_Node000002_Node000003" class="edge">
<title>Node2&#45;&gt;Node3</title>
<g id="a_edge2_Node000002_Node000003"><a xlink:title=" ">
<path fill="none" stroke="#63b8ff" d="M168.92,-166C155.47,-166 141.46,-166 128.24,-166"/>
<polygon fill="#63b8ff" stroke="#63b8ff" points="168.54,-169.5 178.54,-166 168.54,-162.5 168.54,-169.5"/>
</a>
</g>
</g>
</g>
</svg>
