<?xml version="1.0" encoding="UTF-8" standalone="no"?>
<!DOCTYPE svg PUBLIC "-//W3C//DTD SVG 1.1//EN"
 "http://www.w3.org/Graphics/SVG/1.1/DTD/svg11.dtd">
<!-- Generated by graphviz version 9.0.0 (20230911.1827)
 -->
<!-- Title: StartupHandler::startUp Pages: 1 -->
<svg width="304pt" height="78pt"
 viewBox="0.00 0.00 304.00 78.00" xmlns="http://www.w3.org/2000/svg" xmlns:xlink="http://www.w3.org/1999/xlink">
<g id="graph0" class="graph" transform="scale(1 1) rotate(0) translate(4 74)">
<title>StartupHandler::startUp</title>
<!-- Node1 -->
<g id="Node000001" class="node">
<title>Node1</title>
<g id="a_Node000001"><a xlink:title=" ">
<polygon fill="#999999" stroke="#666666" points="118,-42 0,-42 0,-22 118,-22 118,-42"/>
<text text-anchor="middle" x="59" y="-28.5" font-family="Helvetica,sans-Serif" font-size="10.00">StartupHandler::startUp</text>
</a>
</g>
</g>
<!-- Node2 -->
<g id="Node000002" class="node">
<title>Node2</title>
<g id="a_Node000002"><a xlink:href="../../df/d1b/class_startup_handler.html#a45aefa30358b6ca46e4c36cd012ba6be" target="_top" xlink:title=" ">
<polygon fill="white" stroke="#666666" points="288.88,-70 161.12,-70 161.12,-38 288.88,-38 288.88,-70"/>
<text text-anchor="start" x="169.12" y="-56.5" font-family="Helvetica,sans-Serif" font-size="10.00">StartupHandler::initObject</text>
<text text-anchor="middle" x="225" y="-44.5" font-family="Helvetica,sans-Serif" font-size="10.00">Handler</text>
</a>
</g>
</g>
<!-- Node1&#45;&gt;Node2 -->
<g id="edge1_Node000001_Node000002" class="edge">
<title>Node1&#45;&gt;Node2</title>
<g id="a_edge1_Node000001_Node000002"><a xlink:title=" ">
<path fill="none" stroke="#63b8ff" d="M118.28,-39.82C128.42,-41.18 139.1,-42.61 149.6,-44.02"/>
<polygon fill="#63b8ff" stroke="#63b8ff" points="149.02,-47.47 159.4,-45.33 149.95,-40.54 149.02,-47.47"/>
</a>
</g>
</g>
<!-- Node3 -->
<g id="Node000003" class="node">
<title>Node3</title>
<g id="a_Node000003"><a xlink:href="../../df/d1b/class_startup_handler.html#a57a55def03eb37544d8373663d08c053" target="_top" xlink:title=" ">
<polygon fill="white" stroke="#666666" points="296,-20 154,-20 154,0 296,0 296,-20"/>
<text text-anchor="middle" x="225" y="-6.5" font-family="Helvetica,sans-Serif" font-size="10.00">StartupHandler::initTranslator</text>
</a>
</g>
</g>
<!-- Node1&#45;&gt;Node3 -->
<g id="edge2_Node000001_Node000003" class="edge">
<title>Node1&#45;&gt;Node3</title>
<g id="a_edge2_Node000001_Node000003"><a xlink:title=" ">
<path fill="none" stroke="#63b8ff" d="M118.28,-24.18C126.04,-23.14 134.11,-22.06 142.18,-20.98"/>
<polygon fill="#63b8ff" stroke="#63b8ff" points="142.6,-24.45 152.05,-19.65 141.67,-17.51 142.6,-24.45"/>
</a>
</g>
</g>
</g>
</svg>
