<?xml version="1.0" encoding="UTF-8" standalone="no"?>
<!DOCTYPE svg PUBLIC "-//W3C//DTD SVG 1.1//EN"
 "http://www.w3.org/Graphics/SVG/1.1/DTD/svg11.dtd">
<!-- Generated by graphviz version 9.0.0 (20230911.1827)
 -->
<!-- Title: C:/Users/Clean/Documents/Projekte/Apos&#45;DatabaseManager/Project/classes/databaseClasses/tablehandler.hpp Pages: 1 -->
<svg width="189pt" height="176pt"
 viewBox="0.00 0.00 188.88 176.00" xmlns="http://www.w3.org/2000/svg" xmlns:xlink="http://www.w3.org/1999/xlink">
<g id="graph0" class="graph" transform="scale(1 1) rotate(0) translate(4 172)">
<title>C:/Users/Clean/Documents/Projekte/Apos&#45;DatabaseManager/Project/classes/databaseClasses/tablehandler.hpp</title>
<!-- Node1 -->
<g id="Node000001" class="node">
<title>Node1</title>
<g id="a_Node000001"><a xlink:title="Header file for the TableHandler class.">
<polygon fill="#999999" stroke="#666666" points="180.88,-168 16.38,-168 16.38,-112 180.88,-112 180.88,-168"/>
<text text-anchor="start" x="24.38" y="-154.5" font-family="Helvetica,sans-Serif" font-size="10.00">C:/Users/Clean/Documents</text>
<text text-anchor="start" x="24.38" y="-142.5" font-family="Helvetica,sans-Serif" font-size="10.00">/Projekte/Apos&#45;DatabaseManager</text>
<text text-anchor="start" x="24.38" y="-130.5" font-family="Helvetica,sans-Serif" font-size="10.00">/Project/classes/databaseClasses</text>
<text text-anchor="middle" x="98.62" y="-118.5" font-family="Helvetica,sans-Serif" font-size="10.00">/tablehandler.hpp</text>
</a>
</g>
</g>
<!-- Node2 -->
<g id="Node000002" class="node">
<title>Node2</title>
<g id="a_Node000002"><a xlink:title=" ">
<polygon fill="#e0e0e0" stroke="#999999" points="51.25,-20 0,-20 0,0 51.25,0 51.25,-20"/>
<text text-anchor="middle" x="25.62" y="-6.5" font-family="Helvetica,sans-Serif" font-size="10.00">QDebug</text>
</a>
</g>
</g>
<!-- Node1&#45;&gt;Node2 -->
<g id="edge1_Node000001_Node000002" class="edge">
<title>Node1&#45;&gt;Node2</title>
<g id="a_edge1_Node000001_Node000002"><a xlink:title=" ">
<path fill="none" stroke="#63b8ff" d="M64.42,-111.62C53.94,-101.51 43.4,-89.25 36.62,-76 29.6,-62.25 26.92,-44.95 25.96,-31.65"/>
<polygon fill="#63b8ff" stroke="#63b8ff" points="29.47,-31.73 25.55,-21.89 22.48,-32.03 29.47,-31.73"/>
</a>
</g>
</g>
<!-- Node3 -->
<g id="Node000003" class="node">
<title>Node3</title>
<g id="a_Node000003"><a xlink:title=" ">
<polygon fill="#e0e0e0" stroke="#999999" points="159,-20 118.25,-20 118.25,0 159,0 159,-20"/>
<text text-anchor="middle" x="138.62" y="-6.5" font-family="Helvetica,sans-Serif" font-size="10.00">QtSql</text>
</a>
</g>
</g>
<!-- Node1&#45;&gt;Node3 -->
<g id="edge2_Node000001_Node000003" class="edge">
<title>Node1&#45;&gt;Node3</title>
<g id="a_edge2_Node000001_Node000003"><a xlink:title=" ">
<path fill="none" stroke="#63b8ff" d="M134.79,-111.6C145.14,-101.64 155.1,-89.49 160.62,-76 166.9,-60.69 159.89,-42.86 152.16,-29.75"/>
<polygon fill="#63b8ff" stroke="#63b8ff" points="155.28,-28.12 146.88,-21.66 149.42,-31.95 155.28,-28.12"/>
</a>
</g>
</g>
<!-- Node4 -->
<g id="Node000004" class="node">
<title>Node4</title>
<g id="a_Node000004"><a xlink:href="../../de/d60/databasehandler_8hpp.html" target="_top" xlink:title="Header file for the DatabaseHandler class.">
<polygon fill="white" stroke="#666666" points="151.62,-76 45.62,-76 45.62,-56 151.62,-56 151.62,-76"/>
<text text-anchor="middle" x="98.62" y="-62.5" font-family="Helvetica,sans-Serif" font-size="10.00">databasehandler.hpp</text>
</a>
</g>
</g>
<!-- Node1&#45;&gt;Node4 -->
<g id="edge3_Node000001_Node000004" class="edge">
<title>Node1&#45;&gt;Node4</title>
<g id="a_edge3_Node000001_Node000004"><a xlink:title=" ">
<path fill="none" stroke="#63b8ff" d="M98.62,-111.78C98.62,-103.82 98.62,-95.25 98.62,-87.76"/>
<polygon fill="#63b8ff" stroke="#63b8ff" points="102.13,-87.99 98.63,-77.99 95.13,-87.99 102.13,-87.99"/>
</a>
</g>
</g>
<!-- Node4&#45;&gt;Node2 -->
<g id="edge4_Node000004_Node000002" class="edge">
<title>Node4&#45;&gt;Node2</title>
<g id="a_edge4_Node000004_Node000002"><a xlink:title=" ">
<path fill="none" stroke="#63b8ff" d="M85.91,-55.59C75.23,-47.7 59.75,-36.24 47.14,-26.92"/>
<polygon fill="#63b8ff" stroke="#63b8ff" points="49.53,-24.33 39.41,-21.2 45.37,-29.96 49.53,-24.33"/>
</a>
</g>
</g>
<!-- Node4&#45;&gt;Node3 -->
<g id="edge5_Node000004_Node000003" class="edge">
<title>Node4&#45;&gt;Node3</title>
<g id="a_edge5_Node000004_Node000003"><a xlink:title=" ">
<path fill="none" stroke="#63b8ff" d="M105.59,-55.59C110.93,-48.39 118.45,-38.23 124.97,-29.43"/>
<polygon fill="#63b8ff" stroke="#63b8ff" points="127.7,-31.63 130.84,-21.51 122.07,-27.47 127.7,-31.63"/>
</a>
</g>
</g>
</g>
</svg>
