<?xml version="1.0" encoding="UTF-8" standalone="no"?>
<!DOCTYPE svg PUBLIC "-//W3C//DTD SVG 1.1//EN"
 "http://www.w3.org/Graphics/SVG/1.1/DTD/svg11.dtd">
<!-- Generated by graphviz version 9.0.0 (20230911.1827)
 -->
<!-- Title: TableHandler::getActiveTableName Pages: 1 -->
<svg width="653pt" height="90pt"
 viewBox="0.00 0.00 653.25 90.00" xmlns="http://www.w3.org/2000/svg" xmlns:xlink="http://www.w3.org/1999/xlink">
<g id="graph0" class="graph" transform="scale(1 1) rotate(0) translate(4 86)">
<title>TableHandler::getActiveTableName</title>
<!-- Node1 -->
<g id="Node000001" class="node">
<title>Node1</title>
<g id="a_Node000001"><a xlink:title=" ">
<polygon fill="#999999" stroke="#666666" points="645.25,-51 478.5,-51 478.5,-31 645.25,-31 645.25,-51"/>
<text text-anchor="middle" x="561.88" y="-37.5" font-family="Helvetica,sans-Serif" font-size="10.00">TableHandler::getActiveTableName</text>
</a>
</g>
</g>
<!-- Node2 -->
<g id="Node000002" class="node">
<title>Node2</title>
<g id="a_Node000002"><a xlink:href="../../df/d32/class_object_handler.html#a36034a0611e57dd6862f61e87aaad808" target="_top" xlink:title=" ">
<polygon fill="white" stroke="#666666" points="442.5,-57 319.25,-57 319.25,-25 442.5,-25 442.5,-57"/>
<text text-anchor="start" x="327.25" y="-43.5" font-family="Helvetica,sans-Serif" font-size="10.00">ObjectHandler::getActive</text>
<text text-anchor="middle" x="380.88" y="-31.5" font-family="Helvetica,sans-Serif" font-size="10.00">TableName</text>
</a>
</g>
</g>
<!-- Node1&#45;&gt;Node2 -->
<g id="edge1_Node000001_Node000002" class="edge">
<title>Node1&#45;&gt;Node2</title>
<g id="a_edge1_Node000001_Node000002"><a xlink:title=" ">
<path fill="none" stroke="#63b8ff" d="M466.72,-41C458.62,-41 450.56,-41 442.83,-41"/>
<polygon fill="#63b8ff" stroke="#63b8ff" points="466.67,-44.5 476.67,-41 466.67,-37.5 466.67,-44.5"/>
</a>
</g>
</g>
<!-- Node3 -->
<g id="Node000003" class="node">
<title>Node3</title>
<g id="a_Node000003"><a xlink:href="../../df/d32/class_object_handler.html#a0db21cc39e1879a9e0c86b56973a4195" target="_top" xlink:title=" ">
<polygon fill="white" stroke="#666666" points="283.25,-82 163.75,-82 163.75,-50 283.25,-50 283.25,-82"/>
<text text-anchor="start" x="171.75" y="-68.5" font-family="Helvetica,sans-Serif" font-size="10.00">ObjectHandler::initTable</text>
<text text-anchor="middle" x="223.5" y="-56.5" font-family="Helvetica,sans-Serif" font-size="10.00">Object</text>
</a>
</g>
</g>
<!-- Node2&#45;&gt;Node3 -->
<g id="edge2_Node000002_Node000003" class="edge">
<title>Node2&#45;&gt;Node3</title>
<g id="a_edge2_Node000002_Node000003"><a xlink:title=" ">
<path fill="none" stroke="#63b8ff" d="M307.59,-52.63C299.53,-53.93 291.38,-55.24 283.51,-56.51"/>
<polygon fill="#63b8ff" stroke="#63b8ff" points="308.1,-56.09 317.42,-51.05 306.99,-49.18 308.1,-56.09"/>
</a>
</g>
</g>
<!-- Node5 -->
<g id="Node000005" class="node">
<title>Node5</title>
<g id="a_Node000005"><a xlink:href="../../d6/d5d/class_dev_window.html#ac3155195f2dfd5b46d676100d4b0f2bd" target="_top" xlink:title=" ">
<polygon fill="white" stroke="#666666" points="282.88,-32 164.12,-32 164.12,0 282.88,0 282.88,-32"/>
<text text-anchor="start" x="172.12" y="-18.5" font-family="Helvetica,sans-Serif" font-size="10.00">DevWindow::on_btnAdd</text>
<text text-anchor="middle" x="223.5" y="-6.5" font-family="Helvetica,sans-Serif" font-size="10.00">_clicked</text>
</a>
</g>
</g>
<!-- Node2&#45;&gt;Node5 -->
<g id="edge4_Node000002_Node000005" class="edge">
<title>Node2&#45;&gt;Node5</title>
<g id="a_edge4_Node000002_Node000005"><a xlink:title=" ">
<path fill="none" stroke="#63b8ff" d="M307.79,-29.4C299.57,-28.08 291.27,-26.74 283.25,-25.45"/>
<polygon fill="#63b8ff" stroke="#63b8ff" points="306.99,-32.82 317.42,-30.95 308.1,-25.91 306.99,-32.82"/>
</a>
</g>
</g>
<!-- Node4 -->
<g id="Node000004" class="node">
<title>Node4</title>
<g id="a_Node000004"><a xlink:href="../../d6/d5d/class_dev_window.html#a9bfb7fe4688b2a94807581db270502ff" target="_top" xlink:title=" ">
<polygon fill="white" stroke="#666666" points="127.75,-82 0,-82 0,-50 127.75,-50 127.75,-82"/>
<text text-anchor="start" x="8" y="-68.5" font-family="Helvetica,sans-Serif" font-size="10.00">DevWindow::on_btnInitDB</text>
<text text-anchor="middle" x="63.88" y="-56.5" font-family="Helvetica,sans-Serif" font-size="10.00">_clicked</text>
</a>
</g>
</g>
<!-- Node3&#45;&gt;Node4 -->
<g id="edge3_Node000003_Node000004" class="edge">
<title>Node3&#45;&gt;Node4</title>
<g id="a_edge3_Node000003_Node000004"><a xlink:title=" ">
<path fill="none" stroke="#63b8ff" d="M151.85,-66C143.92,-66 135.87,-66 128.04,-66"/>
<polygon fill="#63b8ff" stroke="#63b8ff" points="151.84,-69.5 161.84,-66 151.84,-62.5 151.84,-69.5"/>
</a>
</g>
</g>
</g>
</svg>
