<?xml version="1.0" encoding="UTF-8" standalone="no"?>
<!DOCTYPE svg PUBLIC "-//W3C//DTD SVG 1.1//EN"
 "http://www.w3.org/Graphics/SVG/1.1/DTD/svg11.dtd">
<!-- Generated by graphviz version 9.0.0 (20230911.1827)
 -->
<!-- Title: TableHandler::getTableModel Pages: 1 -->
<svg width="338pt" height="140pt"
 viewBox="0.00 0.00 337.75 140.00" xmlns="http://www.w3.org/2000/svg" xmlns:xlink="http://www.w3.org/1999/xlink">
<g id="graph0" class="graph" transform="scale(1 1) rotate(0) translate(4 136)">
<title>TableHandler::getTableModel</title>
<!-- Node1 -->
<g id="Node000001" class="node">
<title>Node1</title>
<g id="a_Node000001"><a xlink:title=" ">
<polygon fill="#999999" stroke="#666666" points="329.75,-76 188.5,-76 188.5,-56 329.75,-56 329.75,-76"/>
<text text-anchor="middle" x="259.12" y="-62.5" font-family="Helvetica,sans-Serif" font-size="10.00">TableHandler::getTableModel</text>
</a>
</g>
</g>
<!-- Node2 -->
<g id="Node000002" class="node">
<title>Node2</title>
<g id="a_Node000002"><a xlink:href="../../d6/d5d/class_dev_window.html#a9bfb7fe4688b2a94807581db270502ff" target="_top" xlink:title=" ">
<polygon fill="white" stroke="#666666" points="140.12,-132 12.38,-132 12.38,-100 140.12,-100 140.12,-132"/>
<text text-anchor="start" x="20.38" y="-118.5" font-family="Helvetica,sans-Serif" font-size="10.00">DevWindow::on_btnInitDB</text>
<text text-anchor="middle" x="76.25" y="-106.5" font-family="Helvetica,sans-Serif" font-size="10.00">_clicked</text>
</a>
</g>
</g>
<!-- Node1&#45;&gt;Node2 -->
<g id="edge1_Node000001_Node000002" class="edge">
<title>Node1&#45;&gt;Node2</title>
<g id="a_edge1_Node000001_Node000002"><a xlink:title=" ">
<path fill="none" stroke="#63b8ff" d="M209.3,-79.5C186.98,-85.67 160.33,-93.03 136.83,-99.53"/>
<polygon fill="#63b8ff" stroke="#63b8ff" points="210.04,-82.92 218.75,-76.88 208.18,-76.18 210.04,-82.92"/>
</a>
</g>
</g>
<!-- Node3 -->
<g id="Node000003" class="node">
<title>Node3</title>
<g id="a_Node000003"><a xlink:href="../../d6/d5d/class_dev_window.html#af26a0e01b5d56697ce01cc2d18a042d2" target="_top" xlink:title=" ">
<polygon fill="white" stroke="#666666" points="152.5,-82 0,-82 0,-50 152.5,-50 152.5,-82"/>
<text text-anchor="start" x="8" y="-68.5" font-family="Helvetica,sans-Serif" font-size="10.00">DevWindow::on_btnSelectTable</text>
<text text-anchor="middle" x="76.25" y="-56.5" font-family="Helvetica,sans-Serif" font-size="10.00">_clicked</text>
</a>
</g>
</g>
<!-- Node1&#45;&gt;Node3 -->
<g id="edge2_Node000001_Node000003" class="edge">
<title>Node1&#45;&gt;Node3</title>
<g id="a_edge2_Node000001_Node000003"><a xlink:title=" ">
<path fill="none" stroke="#63b8ff" d="M176.72,-66C168.82,-66 160.83,-66 153,-66"/>
<polygon fill="#63b8ff" stroke="#63b8ff" points="176.68,-69.5 186.68,-66 176.68,-62.5 176.68,-69.5"/>
</a>
</g>
</g>
<!-- Node4 -->
<g id="Node000004" class="node">
<title>Node4</title>
<g id="a_Node000004"><a xlink:href="../../d6/d5d/class_dev_window.html#a3737796c404ea1c942cca38ef6fc4a7d" target="_top" xlink:title=" ">
<polygon fill="white" stroke="#666666" points="142.38,-32 10.12,-32 10.12,0 142.38,0 142.38,-32"/>
<text text-anchor="start" x="18.12" y="-18.5" font-family="Helvetica,sans-Serif" font-size="10.00">DevWindow::on_btnUpdate</text>
<text text-anchor="middle" x="76.25" y="-6.5" font-family="Helvetica,sans-Serif" font-size="10.00">_clicked</text>
</a>
</g>
</g>
<!-- Node1&#45;&gt;Node4 -->
<g id="edge3_Node000001_Node000004" class="edge">
<title>Node1&#45;&gt;Node4</title>
<g id="a_edge3_Node000001_Node000004"><a xlink:title=" ">
<path fill="none" stroke="#63b8ff" d="M209.3,-52.5C186.98,-46.33 160.33,-38.97 136.83,-32.47"/>
<polygon fill="#63b8ff" stroke="#63b8ff" points="208.18,-55.82 218.75,-55.12 210.04,-49.08 208.18,-55.82"/>
</a>
</g>
</g>
</g>
</svg>
