<?xml version="1.0" encoding="UTF-8" standalone="no"?>
<!DOCTYPE svg PUBLIC "-//W3C//DTD SVG 1.1//EN"
 "http://www.w3.org/Graphics/SVG/1.1/DTD/svg11.dtd">
<!-- Generated by graphviz version 9.0.0 (20230911.1827)
 -->
<!-- Title: SettingsWindow Pages: 1 -->
<svg width="332pt" height="164pt"
 viewBox="0.00 0.00 332.12 164.00" xmlns="http://www.w3.org/2000/svg" xmlns:xlink="http://www.w3.org/1999/xlink">
<g id="graph0" class="graph" transform="scale(1 1) rotate(0) translate(4 160)">
<title>SettingsWindow</title>
<!-- Node1 -->
<g id="Node000001" class="node">
<title>Node1</title>
<g id="a_Node000001"><a xlink:title=" ">
<polygon fill="#999999" stroke="#666666" points="167.38,-20 80.88,-20 80.88,0 167.38,0 167.38,-20"/>
<text text-anchor="middle" x="124.12" y="-6.5" font-family="Helvetica,sans-Serif" font-size="10.00">SettingsWindow</text>
</a>
</g>
</g>
<!-- Node2 -->
<g id="Node000002" class="node">
<title>Node2</title>
<g id="a_Node000002"><a xlink:title=" ">
<polygon fill="white" stroke="#666666" points="54.25,-88 0,-88 0,-68 54.25,-68 54.25,-88"/>
<text text-anchor="middle" x="27.12" y="-74.5" font-family="Helvetica,sans-Serif" font-size="10.00">QWidget</text>
</a>
</g>
</g>
<!-- Node2&#45;&gt;Node1 -->
<g id="edge1_Node000001_Node000002" class="edge">
<title>Node2&#45;&gt;Node1</title>
<g id="a_edge1_Node000001_Node000002"><a xlink:title=" ">
<path fill="none" stroke="#63b8ff" d="M50.32,-61.22C69,-48.51 94.63,-31.07 110.25,-20.44"/>
<polygon fill="#63b8ff" stroke="#63b8ff" points="48.57,-58.17 42.27,-66.69 52.51,-63.96 48.57,-58.17"/>
</a>
</g>
</g>
<!-- Node3 -->
<g id="Node000003" class="node">
<title>Node3</title>
<g id="a_Node000003"><a xlink:href="../../d5/dbe/class_translatable_window.html" target="_top" xlink:title=" ">
<polygon fill="white" stroke="#666666" points="175.62,-88 72.62,-88 72.62,-68 175.62,-68 175.62,-88"/>
<text text-anchor="middle" x="124.12" y="-74.5" font-family="Helvetica,sans-Serif" font-size="10.00">TranslatableWindow</text>
</a>
</g>
</g>
<!-- Node3&#45;&gt;Node1 -->
<g id="edge2_Node000001_Node000003" class="edge">
<title>Node3&#45;&gt;Node1</title>
<g id="a_edge2_Node000001_Node000003"><a xlink:title=" ">
<path fill="none" stroke="#63b8ff" d="M124.12,-56.28C124.12,-44.27 124.12,-29.74 124.12,-20.44"/>
<polygon fill="#63b8ff" stroke="#63b8ff" points="120.63,-56.03 124.13,-66.03 127.63,-56.03 120.63,-56.03"/>
</a>
</g>
</g>
<!-- Node4 -->
<g id="Node000004" class="node">
<title>Node4</title>
<g id="a_Node000004"><a xlink:href="../../df/d32/class_object_handler.html" target="_top" xlink:title=" ">
<polygon fill="white" stroke="#666666" points="270.88,-88 193.38,-88 193.38,-68 270.88,-68 270.88,-88"/>
<text text-anchor="middle" x="232.12" y="-74.5" font-family="Helvetica,sans-Serif" font-size="10.00">ObjectHandler</text>
</a>
</g>
</g>
<!-- Node4&#45;&gt;Node1 -->
<g id="edge3_Node000001_Node000004" class="edge">
<title>Node4&#45;&gt;Node1</title>
<g id="a_edge3_Node000001_Node000004"><a xlink:title=" ">
<path fill="none" stroke="#9a32cd" stroke-dasharray="5,2" d="M206.87,-61.57C186.03,-48.83 157.12,-31.16 139.57,-20.44"/>
<polygon fill="#9a32cd" stroke="#9a32cd" points="205,-64.53 215.36,-66.75 208.65,-58.55 205,-64.53"/>
</a>
</g>
<text text-anchor="middle" x="219.25" y="-40.5" font-family="Helvetica,sans-Serif" font-size="10.00" fill="grey"> objectHandler</text>
</g>
<!-- Node5 -->
<g id="Node000005" class="node">
<title>Node5</title>
<g id="a_Node000005"><a xlink:href="../../d5/da6/class_database_handler.html" target="_top" xlink:title=" ">
<polygon fill="white" stroke="#666666" points="228.25,-156 138,-156 138,-136 228.25,-136 228.25,-156"/>
<text text-anchor="middle" x="183.12" y="-142.5" font-family="Helvetica,sans-Serif" font-size="10.00">DatabaseHandler</text>
</a>
</g>
</g>
<!-- Node5&#45;&gt;Node4 -->
<g id="edge4_Node000004_Node000005" class="edge">
<title>Node5&#45;&gt;Node4</title>
<g id="a_edge4_Node000004_Node000005"><a xlink:title=" ">
<path fill="none" stroke="#9a32cd" stroke-dasharray="5,2" d="M196.85,-126.52C206.04,-114.13 217.77,-98.33 225.12,-88.44"/>
<polygon fill="#9a32cd" stroke="#9a32cd" points="194.2,-124.21 191.05,-134.33 199.82,-128.39 194.2,-124.21"/>
</a>
</g>
<text text-anchor="middle" x="234.38" y="-108.5" font-family="Helvetica,sans-Serif" font-size="10.00" fill="grey"> dbHandler</text>
</g>
<!-- Node6 -->
<g id="Node000006" class="node">
<title>Node6</title>
<g id="a_Node000006"><a xlink:href="../../dd/d68/class_table_handler.html" target="_top" xlink:title=" ">
<polygon fill="white" stroke="#666666" points="318.25,-156 246,-156 246,-136 318.25,-136 318.25,-156"/>
<text text-anchor="middle" x="282.12" y="-142.5" font-family="Helvetica,sans-Serif" font-size="10.00">TableHandler</text>
</a>
</g>
</g>
<!-- Node6&#45;&gt;Node4 -->
<g id="edge5_Node000004_Node000006" class="edge">
<title>Node6&#45;&gt;Node4</title>
<g id="a_edge5_Node000004_Node000006"><a xlink:title=" ">
<path fill="none" stroke="#9a32cd" stroke-dasharray="5,2" d="M272.59,-125.53C269.05,-119.06 264.76,-111.99 260.12,-106 255.17,-99.59 248.7,-93.26 243.24,-88.34"/>
<polygon fill="#9a32cd" stroke="#9a32cd" points="269.37,-126.92 277.07,-134.2 275.59,-123.71 269.37,-126.92"/>
</a>
</g>
<text text-anchor="middle" x="295.62" y="-108.5" font-family="Helvetica,sans-Serif" font-size="10.00" fill="grey"> tableHandler</text>
</g>
</g>
</svg>
