<?xml version="1.0" encoding="UTF-8" standalone="no"?>
<!DOCTYPE svg PUBLIC "-//W3C//DTD SVG 1.1//EN"
 "http://www.w3.org/Graphics/SVG/1.1/DTD/svg11.dtd">
<!-- Generated by graphviz version 9.0.0 (20230911.1827)
 -->
<!-- Title: C:/Users/Clean/Documents/Projekte/Apos&#45;DatabaseManager/Project/classes/backendClasses/objecthandler.cpp Pages: 1 -->
<svg width="344pt" height="312pt"
 viewBox="0.00 0.00 343.71 312.00" xmlns="http://www.w3.org/2000/svg" xmlns:xlink="http://www.w3.org/1999/xlink">
<g id="graph0" class="graph" transform="scale(1 1) rotate(0) translate(4 308)">
<title>C:/Users/Clean/Documents/Projekte/Apos&#45;DatabaseManager/Project/classes/backendClasses/objecthandler.cpp</title>
<!-- Node1 -->
<g id="Node000001" class="node">
<title>Node1</title>
<g id="a_Node000001"><a xlink:title="Source file for the ObjectHandler class.">
<polygon fill="#999999" stroke="#666666" points="263.88,-304 101.62,-304 101.62,-248 263.88,-248 263.88,-304"/>
<text text-anchor="start" x="109.62" y="-290.5" font-family="Helvetica,sans-Serif" font-size="10.00">C:/Users/Clean/Documents</text>
<text text-anchor="start" x="109.62" y="-278.5" font-family="Helvetica,sans-Serif" font-size="10.00">/Projekte/Apos&#45;DatabaseManager</text>
<text text-anchor="start" x="109.62" y="-266.5" font-family="Helvetica,sans-Serif" font-size="10.00">/Project/classes/backendClasses</text>
<text text-anchor="middle" x="182.75" y="-254.5" font-family="Helvetica,sans-Serif" font-size="10.00">/objecthandler.cpp</text>
</a>
</g>
</g>
<!-- Node2 -->
<g id="Node000002" class="node">
<title>Node2</title>
<g id="a_Node000002"><a xlink:href="../../d5/dcc/objecthandler_8hpp.html" target="_top" xlink:title="Header file for the ObjectHandler class.">
<polygon fill="white" stroke="#666666" points="229,-212 136.5,-212 136.5,-192 229,-192 229,-212"/>
<text text-anchor="middle" x="182.75" y="-198.5" font-family="Helvetica,sans-Serif" font-size="10.00">objecthandler.hpp</text>
</a>
</g>
</g>
<!-- Node1&#45;&gt;Node2 -->
<g id="edge1_Node000001_Node000002" class="edge">
<title>Node1&#45;&gt;Node2</title>
<g id="a_edge1_Node000001_Node000002"><a xlink:title=" ">
<path fill="none" stroke="#63b8ff" d="M182.75,-247.78C182.75,-239.82 182.75,-231.25 182.75,-223.76"/>
<polygon fill="#63b8ff" stroke="#63b8ff" points="186.25,-223.99 182.75,-213.99 179.25,-223.99 186.25,-223.99"/>
</a>
</g>
</g>
<!-- Node3 -->
<g id="Node000003" class="node">
<title>Node3</title>
<g id="a_Node000003"><a xlink:title=" ">
<polygon fill="#e0e0e0" stroke="#999999" points="71.5,-150 0,-150 0,-130 71.5,-130 71.5,-150"/>
<text text-anchor="middle" x="35.75" y="-136.5" font-family="Helvetica,sans-Serif" font-size="10.00">QApplication</text>
</a>
</g>
</g>
<!-- Node2&#45;&gt;Node3 -->
<g id="edge2_Node000002_Node000003" class="edge">
<title>Node2&#45;&gt;Node3</title>
<g id="a_edge2_Node000002_Node000003"><a xlink:title=" ">
<path fill="none" stroke="#63b8ff" d="M159.78,-191.62C135.4,-181.67 96.64,-165.85 68.94,-154.55"/>
<polygon fill="#63b8ff" stroke="#63b8ff" points="70.54,-151.42 59.96,-150.88 67.89,-157.9 70.54,-151.42"/>
</a>
</g>
</g>
<!-- Node4 -->
<g id="Node000004" class="node">
<title>Node4</title>
<g id="a_Node000004"><a xlink:title=" ">
<polygon fill="#e0e0e0" stroke="#999999" points="208.38,-20 157.12,-20 157.12,0 208.38,0 208.38,-20"/>
<text text-anchor="middle" x="182.75" y="-6.5" font-family="Helvetica,sans-Serif" font-size="10.00">QDebug</text>
</a>
</g>
</g>
<!-- Node2&#45;&gt;Node4 -->
<g id="edge3_Node000002_Node000004" class="edge">
<title>Node2&#45;&gt;Node4</title>
<g id="a_edge3_Node000002_Node000004"><a xlink:title=" ">
<path fill="none" stroke="#63b8ff" d="M175.38,-191.75C161.24,-173.32 130.71,-130.17 119.75,-88 116.17,-74.24 113.24,-68.65 119.75,-56 126.38,-43.11 138.6,-33.1 150.53,-25.83"/>
<polygon fill="#63b8ff" stroke="#63b8ff" points="151.99,-29.02 159.02,-21.09 148.58,-22.9 151.99,-29.02"/>
</a>
</g>
</g>
<!-- Node5 -->
<g id="Node000005" class="node">
<title>Node5</title>
<g id="a_Node000005"><a xlink:title=" ">
<polygon fill="#e0e0e0" stroke="#999999" points="324.12,-20 283.38,-20 283.38,0 324.12,0 324.12,-20"/>
<text text-anchor="middle" x="303.75" y="-6.5" font-family="Helvetica,sans-Serif" font-size="10.00">QtSql</text>
</a>
</g>
</g>
<!-- Node2&#45;&gt;Node5 -->
<g id="edge4_Node000002_Node000005" class="edge">
<title>Node2&#45;&gt;Node5</title>
<g id="a_edge4_Node000002_Node000005"><a xlink:title=" ">
<path fill="none" stroke="#63b8ff" d="M229.3,-199.39C260.97,-195.56 300.79,-184.82 321.75,-156 349.14,-118.35 328,-60.15 313.84,-30.22"/>
<polygon fill="#63b8ff" stroke="#63b8ff" points="317.13,-28.98 309.55,-21.59 310.87,-32.1 317.13,-28.98"/>
</a>
</g>
</g>
<!-- Node6 -->
<g id="Node000006" class="node">
<title>Node6</title>
<g id="a_Node000006"><a xlink:href="../../de/d60/databasehandler_8hpp.html" target="_top" xlink:title="Header file for the DatabaseHandler class.">
<polygon fill="white" stroke="#666666" points="237.25,-88 128.25,-88 128.25,-56 237.25,-56 237.25,-88"/>
<text text-anchor="start" x="136.25" y="-74.5" font-family="Helvetica,sans-Serif" font-size="10.00">../databaseClasses</text>
<text text-anchor="middle" x="182.75" y="-62.5" font-family="Helvetica,sans-Serif" font-size="10.00">/databasehandler.hpp</text>
</a>
</g>
</g>
<!-- Node2&#45;&gt;Node6 -->
<g id="edge5_Node000002_Node000006" class="edge">
<title>Node2&#45;&gt;Node6</title>
<g id="a_edge5_Node000002_Node000006"><a xlink:title=" ">
<path fill="none" stroke="#63b8ff" d="M182.75,-191.79C182.75,-172.73 182.75,-128.33 182.75,-99.54"/>
<polygon fill="#63b8ff" stroke="#63b8ff" points="186.25,-99.79 182.75,-89.79 179.25,-99.79 186.25,-99.79"/>
</a>
</g>
</g>
<!-- Node7 -->
<g id="Node000007" class="node">
<title>Node7</title>
<g id="a_Node000007"><a xlink:href="../../df/d46/tablehandler_8hpp.html" target="_top" xlink:title="Header file for the TableHandler class.">
<polygon fill="white" stroke="#666666" points="312.75,-156 212.75,-156 212.75,-124 312.75,-124 312.75,-156"/>
<text text-anchor="start" x="220.75" y="-142.5" font-family="Helvetica,sans-Serif" font-size="10.00">../databaseClasses</text>
<text text-anchor="middle" x="262.75" y="-130.5" font-family="Helvetica,sans-Serif" font-size="10.00">/tablehandler.hpp</text>
</a>
</g>
</g>
<!-- Node2&#45;&gt;Node7 -->
<g id="edge8_Node000002_Node000007" class="edge">
<title>Node2&#45;&gt;Node7</title>
<g id="a_edge8_Node000002_Node000007"><a xlink:title=" ">
<path fill="none" stroke="#63b8ff" d="M195.25,-191.62C205.36,-184.04 220.02,-173.05 233.1,-163.24"/>
<polygon fill="#63b8ff" stroke="#63b8ff" points="235.14,-166.08 241.04,-157.28 230.94,-160.48 235.14,-166.08"/>
</a>
</g>
</g>
<!-- Node6&#45;&gt;Node4 -->
<g id="edge6_Node000006_Node000004" class="edge">
<title>Node6&#45;&gt;Node4</title>
<g id="a_edge6_Node000006_Node000004"><a xlink:title=" ">
<path fill="none" stroke="#63b8ff" d="M182.75,-55.55C182.75,-48.34 182.75,-39.66 182.75,-31.88"/>
<polygon fill="#63b8ff" stroke="#63b8ff" points="186.25,-31.92 182.75,-21.92 179.25,-31.92 186.25,-31.92"/>
</a>
</g>
</g>
<!-- Node6&#45;&gt;Node5 -->
<g id="edge7_Node000006_Node000005" class="edge">
<title>Node6&#45;&gt;Node5</title>
<g id="a_edge7_Node000006_Node000005"><a xlink:title=" ">
<path fill="none" stroke="#63b8ff" d="M213.91,-55.55C232.64,-46.26 256.32,-34.52 274.67,-25.42"/>
<polygon fill="#63b8ff" stroke="#63b8ff" points="276.02,-28.66 283.42,-21.08 272.91,-22.39 276.02,-28.66"/>
</a>
</g>
</g>
<!-- Node7&#45;&gt;Node4 -->
<g id="edge9_Node000007_Node000004" class="edge">
<title>Node7&#45;&gt;Node4</title>
<g id="a_edge9_Node000007_Node000004"><a xlink:title=" ">
<path fill="none" stroke="#63b8ff" d="M263.13,-123.66C262.85,-105.98 260.14,-76.7 246.75,-56 238.62,-43.44 225.64,-33.35 213.48,-25.94"/>
<polygon fill="#63b8ff" stroke="#63b8ff" points="215.34,-22.97 204.91,-21.09 211.89,-29.06 215.34,-22.97"/>
</a>
</g>
</g>
<!-- Node7&#45;&gt;Node5 -->
<g id="edge10_Node000007_Node000005" class="edge">
<title>Node7&#45;&gt;Node5</title>
<g id="a_edge10_Node000007_Node000005"><a xlink:title=" ">
<path fill="none" stroke="#63b8ff" d="M267.89,-123.85C271.3,-113.72 275.85,-100.08 279.75,-88 285.99,-68.65 292.87,-46.48 297.66,-30.92"/>
<polygon fill="#63b8ff" stroke="#63b8ff" points="300.97,-32.06 300.56,-21.47 294.28,-30.01 300.97,-32.06"/>
</a>
</g>
</g>
<!-- Node7&#45;&gt;Node6 -->
<g id="edge11_Node000007_Node000006" class="edge">
<title>Node7&#45;&gt;Node6</title>
<g id="a_edge11_Node000007_Node000006"><a xlink:title=" ">
<path fill="none" stroke="#63b8ff" d="M244.2,-123.69C234.07,-115.34 221.34,-104.84 210.1,-95.56"/>
<polygon fill="#63b8ff" stroke="#63b8ff" points="212.59,-93.08 202.65,-89.42 208.14,-98.48 212.59,-93.08"/>
</a>
</g>
</g>
</g>
</svg>
