<?xml version="1.0" encoding="UTF-8" standalone="no"?>
<!DOCTYPE svg PUBLIC "-//W3C//DTD SVG 1.1//EN"
 "http://www.w3.org/Graphics/SVG/1.1/DTD/svg11.dtd">
<!-- Generated by graphviz version 9.0.0 (20230911.1827)
 -->
<!-- Title: C:/Users/Clean/Documents/Projekte/Apos&#45;DatabaseManager/Project/classes/backendClasses/objecthandler.cpp Pages: 1 -->
<svg width="379pt" height="244pt"
 viewBox="0.00 0.00 378.65 244.00" xmlns="http://www.w3.org/2000/svg" xmlns:xlink="http://www.w3.org/1999/xlink">
<g id="graph0" class="graph" transform="scale(1 1) rotate(0) translate(4 240)">
<title>C:/Users/Clean/Documents/Projekte/Apos&#45;DatabaseManager/Project/classes/backendClasses/objecthandler.cpp</title>
<!-- Node1 -->
<g id="Node000001" class="node">
<title>Node1</title>
<g id="a_Node000001"><a xlink:title=" ">
<polygon fill="#999999" stroke="#666666" points="258.88,-236 96.62,-236 96.62,-180 258.88,-180 258.88,-236"/>
<text text-anchor="start" x="104.62" y="-222.5" font-family="Helvetica,sans-Serif" font-size="10.00">C:/Users/Clean/Documents</text>
<text text-anchor="start" x="104.62" y="-210.5" font-family="Helvetica,sans-Serif" font-size="10.00">/Projekte/Apos&#45;DatabaseManager</text>
<text text-anchor="start" x="104.62" y="-198.5" font-family="Helvetica,sans-Serif" font-size="10.00">/Project/classes/backendClasses</text>
<text text-anchor="middle" x="177.75" y="-186.5" font-family="Helvetica,sans-Serif" font-size="10.00">/objecthandler.cpp</text>
</a>
</g>
</g>
<!-- Node2 -->
<g id="Node000002" class="node">
<title>Node2</title>
<g id="a_Node000002"><a xlink:href="../../d5/dcc/objecthandler_8hpp.html" target="_top" xlink:title=" ">
<polygon fill="white" stroke="#666666" points="224,-144 131.5,-144 131.5,-124 224,-124 224,-144"/>
<text text-anchor="middle" x="177.75" y="-130.5" font-family="Helvetica,sans-Serif" font-size="10.00">objecthandler.hpp</text>
</a>
</g>
</g>
<!-- Node1&#45;&gt;Node2 -->
<g id="edge1_Node000001_Node000002" class="edge">
<title>Node1&#45;&gt;Node2</title>
<g id="a_edge1_Node000001_Node000002"><a xlink:title=" ">
<path fill="none" stroke="#63b8ff" d="M177.75,-179.78C177.75,-171.82 177.75,-163.25 177.75,-155.76"/>
<polygon fill="#63b8ff" stroke="#63b8ff" points="181.25,-155.99 177.75,-145.99 174.25,-155.99 181.25,-155.99"/>
</a>
</g>
</g>
<!-- Node3 -->
<g id="Node000003" class="node">
<title>Node3</title>
<g id="a_Node000003"><a xlink:title=" ">
<polygon fill="#e0e0e0" stroke="#999999" points="71.5,-82 0,-82 0,-62 71.5,-62 71.5,-82"/>
<text text-anchor="middle" x="35.75" y="-68.5" font-family="Helvetica,sans-Serif" font-size="10.00">QApplication</text>
</a>
</g>
</g>
<!-- Node2&#45;&gt;Node3 -->
<g id="edge2_Node000002_Node000003" class="edge">
<title>Node2&#45;&gt;Node3</title>
<g id="a_edge2_Node000002_Node000003"><a xlink:title=" ">
<path fill="none" stroke="#63b8ff" d="M155.56,-123.62C132.12,-113.72 94.9,-97.99 68.17,-86.7"/>
<polygon fill="#63b8ff" stroke="#63b8ff" points="69.75,-83.57 59.18,-82.9 67.03,-90.01 69.75,-83.57"/>
</a>
</g>
</g>
<!-- Node4 -->
<g id="Node000004" class="node">
<title>Node4</title>
<g id="a_Node000004"><a xlink:title=" ">
<polygon fill="#e0e0e0" stroke="#999999" points="203.38,-20 152.12,-20 152.12,0 203.38,0 203.38,-20"/>
<text text-anchor="middle" x="177.75" y="-6.5" font-family="Helvetica,sans-Serif" font-size="10.00">QDebug</text>
</a>
</g>
</g>
<!-- Node2&#45;&gt;Node4 -->
<g id="edge3_Node000002_Node000004" class="edge">
<title>Node2&#45;&gt;Node4</title>
<g id="a_edge3_Node000002_Node000004"><a xlink:title=" ">
<path fill="none" stroke="#63b8ff" d="M157.31,-123.61C143.65,-116.11 126.75,-104.16 118.75,-88 112.44,-75.25 112.44,-68.75 118.75,-56 124.94,-43.5 136.45,-33.52 147.67,-26.17"/>
<polygon fill="#63b8ff" stroke="#63b8ff" points="149.24,-29.31 156.02,-21.17 145.64,-23.31 149.24,-29.31"/>
</a>
</g>
</g>
<!-- Node5 -->
<g id="Node000005" class="node">
<title>Node5</title>
<g id="a_Node000005"><a xlink:title=" ">
<polygon fill="#e0e0e0" stroke="#999999" points="321.12,-20 280.38,-20 280.38,0 321.12,0 321.12,-20"/>
<text text-anchor="middle" x="300.75" y="-6.5" font-family="Helvetica,sans-Serif" font-size="10.00">QtSql</text>
</a>
</g>
</g>
<!-- Node2&#45;&gt;Node5 -->
<g id="edge4_Node000002_Node000005" class="edge">
<title>Node2&#45;&gt;Node5</title>
<g id="a_edge4_Node000002_Node000005"><a xlink:title=" ">
<path fill="none" stroke="#63b8ff" d="M224.48,-128.3C274.06,-122.23 347.6,-109.77 364.75,-88 373.55,-76.83 371.3,-68.62 364.75,-56 357.64,-42.3 344.23,-31.9 331.52,-24.57"/>
<polygon fill="#63b8ff" stroke="#63b8ff" points="333.42,-21.61 322.94,-20.04 330.16,-27.8 333.42,-21.61"/>
</a>
</g>
</g>
<!-- Node6 -->
<g id="Node000006" class="node">
<title>Node6</title>
<g id="a_Node000006"><a xlink:href="../../de/d60/databasehandler_8hpp.html" target="_top" xlink:title=" ">
<polygon fill="white" stroke="#666666" points="355.25,-88 246.25,-88 246.25,-56 355.25,-56 355.25,-88"/>
<text text-anchor="start" x="254.25" y="-74.5" font-family="Helvetica,sans-Serif" font-size="10.00">../databaseClasses</text>
<text text-anchor="middle" x="300.75" y="-62.5" font-family="Helvetica,sans-Serif" font-size="10.00">/databasehandler.hpp</text>
</a>
</g>
</g>
<!-- Node2&#45;&gt;Node6 -->
<g id="edge5_Node000002_Node000006" class="edge">
<title>Node2&#45;&gt;Node6</title>
<g id="a_edge5_Node000002_Node000006"><a xlink:title=" ">
<path fill="none" stroke="#63b8ff" d="M196.97,-123.62C213.5,-115.56 237.93,-103.64 258.94,-93.4"/>
<polygon fill="#63b8ff" stroke="#63b8ff" points="260.42,-96.57 267.87,-89.04 257.35,-90.28 260.42,-96.57"/>
</a>
</g>
</g>
<!-- Node7 -->
<g id="Node000007" class="node">
<title>Node7</title>
<g id="a_Node000007"><a xlink:href="../../df/d46/tablehandler_8hpp.html" target="_top" xlink:title=" ">
<polygon fill="white" stroke="#666666" points="227.75,-88 127.75,-88 127.75,-56 227.75,-56 227.75,-88"/>
<text text-anchor="start" x="135.75" y="-74.5" font-family="Helvetica,sans-Serif" font-size="10.00">../databaseClasses</text>
<text text-anchor="middle" x="177.75" y="-62.5" font-family="Helvetica,sans-Serif" font-size="10.00">/tablehandler.hpp</text>
</a>
</g>
</g>
<!-- Node2&#45;&gt;Node7 -->
<g id="edge8_Node000002_Node000007" class="edge">
<title>Node2&#45;&gt;Node7</title>
<g id="a_edge8_Node000002_Node000007"><a xlink:title=" ">
<path fill="none" stroke="#63b8ff" d="M177.75,-123.62C177.75,-117.1 177.75,-108.05 177.75,-99.4"/>
<polygon fill="#63b8ff" stroke="#63b8ff" points="181.25,-99.65 177.75,-89.65 174.25,-99.65 181.25,-99.65"/>
</a>
</g>
</g>
<!-- Node6&#45;&gt;Node4 -->
<g id="edge6_Node000006_Node000004" class="edge">
<title>Node6&#45;&gt;Node4</title>
<g id="a_edge6_Node000006_Node000004"><a xlink:title=" ">
<path fill="none" stroke="#63b8ff" d="M269.07,-55.55C250.03,-46.26 225.96,-34.52 207.31,-25.42"/>
<polygon fill="#63b8ff" stroke="#63b8ff" points="208.92,-22.31 198.4,-21.07 205.85,-28.6 208.92,-22.31"/>
</a>
</g>
</g>
<!-- Node6&#45;&gt;Node5 -->
<g id="edge7_Node000006_Node000005" class="edge">
<title>Node6&#45;&gt;Node5</title>
<g id="a_edge7_Node000006_Node000005"><a xlink:title=" ">
<path fill="none" stroke="#63b8ff" d="M300.75,-55.55C300.75,-48.34 300.75,-39.66 300.75,-31.88"/>
<polygon fill="#63b8ff" stroke="#63b8ff" points="304.25,-31.92 300.75,-21.92 297.25,-31.92 304.25,-31.92"/>
</a>
</g>
</g>
<!-- Node7&#45;&gt;Node4 -->
<g id="edge9_Node000007_Node000004" class="edge">
<title>Node7&#45;&gt;Node4</title>
<g id="a_edge9_Node000007_Node000004"><a xlink:title=" ">
<path fill="none" stroke="#63b8ff" d="M177.75,-55.55C177.75,-48.34 177.75,-39.66 177.75,-31.88"/>
<polygon fill="#63b8ff" stroke="#63b8ff" points="181.25,-31.92 177.75,-21.92 174.25,-31.92 181.25,-31.92"/>
</a>
</g>
</g>
<!-- Node7&#45;&gt;Node5 -->
<g id="edge10_Node000007_Node000005" class="edge">
<title>Node7&#45;&gt;Node5</title>
<g id="a_edge10_Node000007_Node000005"><a xlink:title=" ">
<path fill="none" stroke="#63b8ff" d="M209.43,-55.55C228.47,-46.26 252.54,-34.52 271.19,-25.42"/>
<polygon fill="#63b8ff" stroke="#63b8ff" points="272.65,-28.6 280.1,-21.07 269.58,-22.31 272.65,-28.6"/>
</a>
</g>
</g>
</g>
</svg>
