<?xml version="1.0" encoding="UTF-8" standalone="no"?>
<!DOCTYPE svg PUBLIC "-//W3C//DTD SVG 1.1//EN"
 "http://www.w3.org/Graphics/SVG/1.1/DTD/svg11.dtd">
<!-- Generated by graphviz version 9.0.0 (20230911.1827)
 -->
<!-- Title: C:/Users/Clean/Documents/Projekte/Apos&#45;DatabaseManager/Project/classes/frontendClasses/launcherwindow.hpp Pages: 1 -->
<svg width="417pt" height="244pt"
 viewBox="0.00 0.00 416.75 244.00" xmlns="http://www.w3.org/2000/svg" xmlns:xlink="http://www.w3.org/1999/xlink">
<g id="graph0" class="graph" transform="scale(1 1) rotate(0) translate(4 240)">
<title>C:/Users/Clean/Documents/Projekte/Apos&#45;DatabaseManager/Project/classes/frontendClasses/launcherwindow.hpp</title>
<!-- Node1 -->
<g id="Node000001" class="node">
<title>Node1</title>
<g id="a_Node000001"><a xlink:title=" ">
<polygon fill="#999999" stroke="#666666" points="266.62,-236 104.38,-236 104.38,-180 266.62,-180 266.62,-236"/>
<text text-anchor="start" x="112.38" y="-222.5" font-family="Helvetica,sans-Serif" font-size="10.00">C:/Users/Clean/Documents</text>
<text text-anchor="start" x="112.38" y="-210.5" font-family="Helvetica,sans-Serif" font-size="10.00">/Projekte/Apos&#45;DatabaseManager</text>
<text text-anchor="start" x="112.38" y="-198.5" font-family="Helvetica,sans-Serif" font-size="10.00">/Project/classes/frontendClasses</text>
<text text-anchor="middle" x="185.5" y="-186.5" font-family="Helvetica,sans-Serif" font-size="10.00">/launcherwindow.hpp</text>
</a>
</g>
</g>
<!-- Node2 -->
<g id="Node000002" class="node">
<title>Node2</title>
<g id="a_Node000002"><a xlink:title=" ">
<polygon fill="#e0e0e0" stroke="#999999" points="79,-144 0,-144 0,-124 79,-124 79,-144"/>
<text text-anchor="middle" x="39.5" y="-130.5" font-family="Helvetica,sans-Serif" font-size="10.00">QMainWindow</text>
</a>
</g>
</g>
<!-- Node1&#45;&gt;Node2 -->
<g id="edge1_Node000001_Node000002" class="edge">
<title>Node1&#45;&gt;Node2</title>
<g id="a_edge1_Node000001_Node000002"><a xlink:title=" ">
<path fill="none" stroke="#63b8ff" d="M129.89,-179.57C109.07,-169.31 86.24,-158.05 68.74,-149.42"/>
<polygon fill="#63b8ff" stroke="#63b8ff" points="70.47,-146.37 59.95,-145.08 67.37,-152.65 70.47,-146.37"/>
</a>
</g>
</g>
<!-- Node3 -->
<g id="Node000003" class="node">
<title>Node3</title>
<g id="a_Node000003"><a xlink:href="../../d5/dcc/objecthandler_8hpp.html" target="_top" xlink:title=" ">
<polygon fill="white" stroke="#666666" points="273.75,-144 97.25,-144 97.25,-124 273.75,-124 273.75,-144"/>
<text text-anchor="middle" x="185.5" y="-130.5" font-family="Helvetica,sans-Serif" font-size="10.00">../backendClasses/objecthandler.hpp</text>
</a>
</g>
</g>
<!-- Node1&#45;&gt;Node3 -->
<g id="edge2_Node000001_Node000003" class="edge">
<title>Node1&#45;&gt;Node3</title>
<g id="a_edge2_Node000001_Node000003"><a xlink:title=" ">
<path fill="none" stroke="#63b8ff" d="M185.5,-179.78C185.5,-171.82 185.5,-163.25 185.5,-155.76"/>
<polygon fill="#63b8ff" stroke="#63b8ff" points="189,-155.99 185.5,-145.99 182,-155.99 189,-155.99"/>
</a>
</g>
</g>
<!-- Node9 -->
<g id="Node000009" class="node">
<title>Node9</title>
<g id="a_Node000009"><a xlink:href="../../d7/dfa/translatablewindow_8hpp.html" target="_top" xlink:title=" ">
<polygon fill="white" stroke="#666666" points="408.75,-144 292.25,-144 292.25,-124 408.75,-124 408.75,-144"/>
<text text-anchor="middle" x="350.5" y="-130.5" font-family="Helvetica,sans-Serif" font-size="10.00">translatablewindow.hpp</text>
</a>
</g>
</g>
<!-- Node1&#45;&gt;Node9 -->
<g id="edge12_Node000001_Node000009" class="edge">
<title>Node1&#45;&gt;Node9</title>
<g id="a_edge12_Node000001_Node000009"><a xlink:title=" ">
<path fill="none" stroke="#63b8ff" d="M248.35,-179.57C272.32,-169.11 298.65,-157.63 318.57,-148.93"/>
<polygon fill="#63b8ff" stroke="#63b8ff" points="319.77,-152.23 327.54,-145.02 316.97,-145.81 319.77,-152.23"/>
</a>
</g>
</g>
<!-- Node4 -->
<g id="Node000004" class="node">
<title>Node4</title>
<g id="a_Node000004"><a xlink:title=" ">
<polygon fill="#e0e0e0" stroke="#999999" points="79.25,-82 7.75,-82 7.75,-62 79.25,-62 79.25,-82"/>
<text text-anchor="middle" x="43.5" y="-68.5" font-family="Helvetica,sans-Serif" font-size="10.00">QApplication</text>
</a>
</g>
</g>
<!-- Node3&#45;&gt;Node4 -->
<g id="edge3_Node000003_Node000004" class="edge">
<title>Node3&#45;&gt;Node4</title>
<g id="a_edge3_Node000003_Node000004"><a xlink:title=" ">
<path fill="none" stroke="#63b8ff" d="M163.31,-123.62C139.87,-113.72 102.65,-97.99 75.92,-86.7"/>
<polygon fill="#63b8ff" stroke="#63b8ff" points="77.5,-83.57 66.93,-82.9 74.78,-90.01 77.5,-83.57"/>
</a>
</g>
</g>
<!-- Node5 -->
<g id="Node000005" class="node">
<title>Node5</title>
<g id="a_Node000005"><a xlink:title=" ">
<polygon fill="#e0e0e0" stroke="#999999" points="211.12,-20 159.88,-20 159.88,0 211.12,0 211.12,-20"/>
<text text-anchor="middle" x="185.5" y="-6.5" font-family="Helvetica,sans-Serif" font-size="10.00">QDebug</text>
</a>
</g>
</g>
<!-- Node3&#45;&gt;Node5 -->
<g id="edge4_Node000003_Node000005" class="edge">
<title>Node3&#45;&gt;Node5</title>
<g id="a_edge4_Node000003_Node000005"><a xlink:title=" ">
<path fill="none" stroke="#63b8ff" d="M165.06,-123.61C151.4,-116.11 134.5,-104.16 126.5,-88 120.19,-75.25 120.19,-68.75 126.5,-56 132.69,-43.5 144.2,-33.52 155.42,-26.17"/>
<polygon fill="#63b8ff" stroke="#63b8ff" points="156.99,-29.31 163.77,-21.17 153.39,-23.31 156.99,-29.31"/>
</a>
</g>
</g>
<!-- Node6 -->
<g id="Node000006" class="node">
<title>Node6</title>
<g id="a_Node000006"><a xlink:title=" ">
<polygon fill="#e0e0e0" stroke="#999999" points="328.88,-20 288.12,-20 288.12,0 328.88,0 328.88,-20"/>
<text text-anchor="middle" x="308.5" y="-6.5" font-family="Helvetica,sans-Serif" font-size="10.00">QtSql</text>
</a>
</g>
</g>
<!-- Node3&#45;&gt;Node6 -->
<g id="edge5_Node000003_Node000006" class="edge">
<title>Node3&#45;&gt;Node6</title>
<g id="a_edge5_Node000003_Node000006"><a xlink:title=" ">
<path fill="none" stroke="#63b8ff" d="M266.29,-123.54C310.5,-116.52 358.99,-105.15 372.5,-88 381.3,-76.83 379.05,-68.62 372.5,-56 365.39,-42.3 351.98,-31.9 339.27,-24.57"/>
<polygon fill="#63b8ff" stroke="#63b8ff" points="341.17,-21.61 330.69,-20.04 337.91,-27.8 341.17,-21.61"/>
</a>
</g>
</g>
<!-- Node7 -->
<g id="Node000007" class="node">
<title>Node7</title>
<g id="a_Node000007"><a xlink:href="../../de/d60/databasehandler_8hpp.html" target="_top" xlink:title=" ">
<polygon fill="white" stroke="#666666" points="363,-88 254,-88 254,-56 363,-56 363,-88"/>
<text text-anchor="start" x="262" y="-74.5" font-family="Helvetica,sans-Serif" font-size="10.00">../databaseClasses</text>
<text text-anchor="middle" x="308.5" y="-62.5" font-family="Helvetica,sans-Serif" font-size="10.00">/databasehandler.hpp</text>
</a>
</g>
</g>
<!-- Node3&#45;&gt;Node7 -->
<g id="edge6_Node000003_Node000007" class="edge">
<title>Node3&#45;&gt;Node7</title>
<g id="a_edge6_Node000003_Node000007"><a xlink:title=" ">
<path fill="none" stroke="#63b8ff" d="M204.72,-123.62C221.25,-115.56 245.68,-103.64 266.69,-93.4"/>
<polygon fill="#63b8ff" stroke="#63b8ff" points="268.17,-96.57 275.62,-89.04 265.1,-90.28 268.17,-96.57"/>
</a>
</g>
</g>
<!-- Node8 -->
<g id="Node000008" class="node">
<title>Node8</title>
<g id="a_Node000008"><a xlink:href="../../df/d46/tablehandler_8hpp.html" target="_top" xlink:title=" ">
<polygon fill="white" stroke="#666666" points="235.5,-88 135.5,-88 135.5,-56 235.5,-56 235.5,-88"/>
<text text-anchor="start" x="143.5" y="-74.5" font-family="Helvetica,sans-Serif" font-size="10.00">../databaseClasses</text>
<text text-anchor="middle" x="185.5" y="-62.5" font-family="Helvetica,sans-Serif" font-size="10.00">/tablehandler.hpp</text>
</a>
</g>
</g>
<!-- Node3&#45;&gt;Node8 -->
<g id="edge9_Node000003_Node000008" class="edge">
<title>Node3&#45;&gt;Node8</title>
<g id="a_edge9_Node000003_Node000008"><a xlink:title=" ">
<path fill="none" stroke="#63b8ff" d="M185.5,-123.62C185.5,-117.1 185.5,-108.05 185.5,-99.4"/>
<polygon fill="#63b8ff" stroke="#63b8ff" points="189,-99.65 185.5,-89.65 182,-99.65 189,-99.65"/>
</a>
</g>
</g>
<!-- Node7&#45;&gt;Node5 -->
<g id="edge7_Node000007_Node000005" class="edge">
<title>Node7&#45;&gt;Node5</title>
<g id="a_edge7_Node000007_Node000005"><a xlink:title=" ">
<path fill="none" stroke="#63b8ff" d="M276.82,-55.55C257.78,-46.26 233.71,-34.52 215.06,-25.42"/>
<polygon fill="#63b8ff" stroke="#63b8ff" points="216.67,-22.31 206.15,-21.07 213.6,-28.6 216.67,-22.31"/>
</a>
</g>
</g>
<!-- Node7&#45;&gt;Node6 -->
<g id="edge8_Node000007_Node000006" class="edge">
<title>Node7&#45;&gt;Node6</title>
<g id="a_edge8_Node000007_Node000006"><a xlink:title=" ">
<path fill="none" stroke="#63b8ff" d="M308.5,-55.55C308.5,-48.34 308.5,-39.66 308.5,-31.88"/>
<polygon fill="#63b8ff" stroke="#63b8ff" points="312,-31.92 308.5,-21.92 305,-31.92 312,-31.92"/>
</a>
</g>
</g>
<!-- Node8&#45;&gt;Node5 -->
<g id="edge10_Node000008_Node000005" class="edge">
<title>Node8&#45;&gt;Node5</title>
<g id="a_edge10_Node000008_Node000005"><a xlink:title=" ">
<path fill="none" stroke="#63b8ff" d="M185.5,-55.55C185.5,-48.34 185.5,-39.66 185.5,-31.88"/>
<polygon fill="#63b8ff" stroke="#63b8ff" points="189,-31.92 185.5,-21.92 182,-31.92 189,-31.92"/>
</a>
</g>
</g>
<!-- Node8&#45;&gt;Node6 -->
<g id="edge11_Node000008_Node000006" class="edge">
<title>Node8&#45;&gt;Node6</title>
<g id="a_edge11_Node000008_Node000006"><a xlink:title=" ">
<path fill="none" stroke="#63b8ff" d="M217.18,-55.55C236.22,-46.26 260.29,-34.52 278.94,-25.42"/>
<polygon fill="#63b8ff" stroke="#63b8ff" points="280.4,-28.6 287.85,-21.07 277.33,-22.31 280.4,-28.6"/>
</a>
</g>
</g>
</g>
</svg>
