<?xml version="1.0" encoding="UTF-8" standalone="no"?>
<!DOCTYPE svg PUBLIC "-//W3C//DTD SVG 1.1//EN"
 "http://www.w3.org/Graphics/SVG/1.1/DTD/svg11.dtd">
<!-- Generated by graphviz version 9.0.0 (20230911.1827)
 -->
<!-- Title: C:/Users/Clean/Documents/Projekte/Apos&#45;DatabaseManager/Project/classes/frontendClasses/settingswindow.hpp Pages: 1 -->
<svg width="525pt" height="244pt"
 viewBox="0.00 0.00 525.25 244.00" xmlns="http://www.w3.org/2000/svg" xmlns:xlink="http://www.w3.org/1999/xlink">
<g id="graph0" class="graph" transform="scale(1 1) rotate(0) translate(4 240)">
<title>C:/Users/Clean/Documents/Projekte/Apos&#45;DatabaseManager/Project/classes/frontendClasses/settingswindow.hpp</title>
<!-- Node1 -->
<g id="Node000001" class="node">
<title>Node1</title>
<g id="a_Node000001"><a xlink:title=" ">
<polygon fill="#999999" stroke="#666666" points="291.25,-236 129,-236 129,-180 291.25,-180 291.25,-236"/>
<text text-anchor="start" x="137" y="-222.5" font-family="Helvetica,sans-Serif" font-size="10.00">C:/Users/Clean/Documents</text>
<text text-anchor="start" x="137" y="-210.5" font-family="Helvetica,sans-Serif" font-size="10.00">/Projekte/Apos&#45;DatabaseManager</text>
<text text-anchor="start" x="137" y="-198.5" font-family="Helvetica,sans-Serif" font-size="10.00">/Project/classes/frontendClasses</text>
<text text-anchor="middle" x="210.12" y="-186.5" font-family="Helvetica,sans-Serif" font-size="10.00">/settingswindow.hpp</text>
</a>
</g>
</g>
<!-- Node2 -->
<g id="Node000002" class="node">
<title>Node2</title>
<g id="a_Node000002"><a xlink:title=" ">
<polygon fill="#e0e0e0" stroke="#999999" points="54.25,-144 0,-144 0,-124 54.25,-124 54.25,-144"/>
<text text-anchor="middle" x="27.12" y="-130.5" font-family="Helvetica,sans-Serif" font-size="10.00">QWidget</text>
</a>
</g>
</g>
<!-- Node1&#45;&gt;Node2 -->
<g id="edge1_Node000001_Node000002" class="edge">
<title>Node1&#45;&gt;Node2</title>
<g id="a_edge1_Node000001_Node000002"><a xlink:title=" ">
<path fill="none" stroke="#63b8ff" d="M140.42,-179.57C113.46,-168.97 83.82,-157.31 61.62,-148.57"/>
<polygon fill="#63b8ff" stroke="#63b8ff" points="63.05,-145.37 52.46,-144.97 60.49,-151.89 63.05,-145.37"/>
</a>
</g>
</g>
<!-- Node3 -->
<g id="Node000003" class="node">
<title>Node3</title>
<g id="a_Node000003"><a xlink:title=" ">
<polygon fill="#e0e0e0" stroke="#999999" points="277.75,-20 226.5,-20 226.5,0 277.75,0 277.75,-20"/>
<text text-anchor="middle" x="252.12" y="-6.5" font-family="Helvetica,sans-Serif" font-size="10.00">QDebug</text>
</a>
</g>
</g>
<!-- Node1&#45;&gt;Node3 -->
<g id="edge2_Node000001_Node000003" class="edge">
<title>Node1&#45;&gt;Node3</title>
<g id="a_edge2_Node000001_Node000003"><a xlink:title=" ">
<path fill="none" stroke="#63b8ff" d="M151.82,-179.53C137.24,-170.14 122.97,-158.31 113.12,-144 90.74,-111.49 77.53,-87.65 101.12,-56 127.12,-21.12 179.09,-12.21 214.73,-10.47"/>
<polygon fill="#63b8ff" stroke="#63b8ff" points="214.73,-13.97 224.62,-10.17 214.51,-6.97 214.73,-13.97"/>
</a>
</g>
</g>
<!-- Node4 -->
<g id="Node000004" class="node">
<title>Node4</title>
<g id="a_Node000004"><a xlink:href="../../d5/dcc/objecthandler_8hpp.html" target="_top" xlink:title=" ">
<polygon fill="white" stroke="#666666" points="298.38,-144 121.88,-144 121.88,-124 298.38,-124 298.38,-144"/>
<text text-anchor="middle" x="210.12" y="-130.5" font-family="Helvetica,sans-Serif" font-size="10.00">../backendClasses/objecthandler.hpp</text>
</a>
</g>
</g>
<!-- Node1&#45;&gt;Node4 -->
<g id="edge3_Node000001_Node000004" class="edge">
<title>Node1&#45;&gt;Node4</title>
<g id="a_edge3_Node000001_Node000004"><a xlink:title=" ">
<path fill="none" stroke="#63b8ff" d="M210.12,-179.78C210.12,-171.82 210.12,-163.25 210.12,-155.76"/>
<polygon fill="#63b8ff" stroke="#63b8ff" points="213.63,-155.99 210.13,-145.99 206.63,-155.99 213.63,-155.99"/>
</a>
</g>
</g>
<!-- Node9 -->
<g id="Node000009" class="node">
<title>Node9</title>
<g id="a_Node000009"><a xlink:href="../../d7/dfa/translatablewindow_8hpp.html" target="_top" xlink:title=" ">
<polygon fill="white" stroke="#666666" points="433.38,-144 316.88,-144 316.88,-124 433.38,-124 433.38,-144"/>
<text text-anchor="middle" x="375.12" y="-130.5" font-family="Helvetica,sans-Serif" font-size="10.00">translatablewindow.hpp</text>
</a>
</g>
</g>
<!-- Node1&#45;&gt;Node9 -->
<g id="edge13_Node000001_Node000009" class="edge">
<title>Node1&#45;&gt;Node9</title>
<g id="a_edge13_Node000001_Node000009"><a xlink:title=" ">
<path fill="none" stroke="#63b8ff" d="M272.98,-179.57C296.95,-169.11 323.28,-157.63 343.2,-148.93"/>
<polygon fill="#63b8ff" stroke="#63b8ff" points="344.4,-152.23 352.16,-145.02 341.6,-145.81 344.4,-152.23"/>
</a>
</g>
</g>
<!-- Node10 -->
<g id="Node000010" class="node">
<title>Node10</title>
<g id="a_Node000010"><a xlink:title=" ">
<polygon fill="#e0e0e0" stroke="#999999" points="517.25,-144 451,-144 451,-124 517.25,-124 517.25,-144"/>
<text text-anchor="middle" x="484.12" y="-130.5" font-family="Helvetica,sans-Serif" font-size="10.00">QTranslator</text>
</a>
</g>
</g>
<!-- Node1&#45;&gt;Node10 -->
<g id="edge14_Node000001_Node000010" class="edge">
<title>Node1&#45;&gt;Node10</title>
<g id="a_edge14_Node000001_Node000010"><a xlink:title=" ">
<path fill="none" stroke="#63b8ff" d="M291.59,-185.59C340.08,-172.85 399.74,-157.17 439.69,-146.68"/>
<polygon fill="#63b8ff" stroke="#63b8ff" points="440.41,-150.11 449.19,-144.18 438.63,-143.34 440.41,-150.11"/>
</a>
</g>
</g>
<!-- Node4&#45;&gt;Node3 -->
<g id="edge5_Node000004_Node000003" class="edge">
<title>Node4&#45;&gt;Node3</title>
<g id="a_edge5_Node000004_Node000003"><a xlink:title=" ">
<path fill="none" stroke="#63b8ff" d="M211.69,-123.79C214.33,-109.13 220.27,-79.74 229.12,-56 232.38,-47.28 236.88,-38.07 241.04,-30.26"/>
<polygon fill="#63b8ff" stroke="#63b8ff" points="244.01,-32.13 245.8,-21.69 237.89,-28.74 244.01,-32.13"/>
</a>
</g>
</g>
<!-- Node5 -->
<g id="Node000005" class="node">
<title>Node5</title>
<g id="a_Node000005"><a xlink:title=" ">
<polygon fill="#e0e0e0" stroke="#999999" points="181.88,-82 110.38,-82 110.38,-62 181.88,-62 181.88,-82"/>
<text text-anchor="middle" x="146.12" y="-68.5" font-family="Helvetica,sans-Serif" font-size="10.00">QApplication</text>
</a>
</g>
</g>
<!-- Node4&#45;&gt;Node5 -->
<g id="edge4_Node000004_Node000005" class="edge">
<title>Node4&#45;&gt;Node5</title>
<g id="a_edge4_Node000004_Node000005"><a xlink:title=" ">
<path fill="none" stroke="#63b8ff" d="M200.12,-123.62C190.49,-114.59 175.69,-100.72 164.02,-89.78"/>
<polygon fill="#63b8ff" stroke="#63b8ff" points="166.64,-87.43 156.95,-83.15 161.85,-92.54 166.64,-87.43"/>
</a>
</g>
</g>
<!-- Node6 -->
<g id="Node000006" class="node">
<title>Node6</title>
<g id="a_Node000006"><a xlink:title=" ">
<polygon fill="#e0e0e0" stroke="#999999" points="436.5,-20 395.75,-20 395.75,0 436.5,0 436.5,-20"/>
<text text-anchor="middle" x="416.12" y="-6.5" font-family="Helvetica,sans-Serif" font-size="10.00">QtSql</text>
</a>
</g>
</g>
<!-- Node4&#45;&gt;Node6 -->
<g id="edge6_Node000004_Node000006" class="edge">
<title>Node4&#45;&gt;Node6</title>
<g id="a_edge6_Node000004_Node000006"><a xlink:title=" ">
<path fill="none" stroke="#63b8ff" d="M298.71,-123.63C371.2,-115.05 463.61,-101.64 475.12,-88 484.3,-77.13 481.43,-68.75 475.12,-56 468.94,-43.5 457.43,-33.52 446.21,-26.17"/>
<polygon fill="#63b8ff" stroke="#63b8ff" points="448.24,-23.31 437.86,-21.17 444.64,-29.31 448.24,-23.31"/>
</a>
</g>
</g>
<!-- Node7 -->
<g id="Node000007" class="node">
<title>Node7</title>
<g id="a_Node000007"><a xlink:href="../../de/d60/databasehandler_8hpp.html" target="_top" xlink:title=" ">
<polygon fill="white" stroke="#666666" points="347.62,-88 238.62,-88 238.62,-56 347.62,-56 347.62,-88"/>
<text text-anchor="start" x="246.62" y="-74.5" font-family="Helvetica,sans-Serif" font-size="10.00">../databaseClasses</text>
<text text-anchor="middle" x="293.12" y="-62.5" font-family="Helvetica,sans-Serif" font-size="10.00">/databasehandler.hpp</text>
</a>
</g>
</g>
<!-- Node4&#45;&gt;Node7 -->
<g id="edge7_Node000004_Node000007" class="edge">
<title>Node4&#45;&gt;Node7</title>
<g id="a_edge7_Node000004_Node000007"><a xlink:title=" ">
<path fill="none" stroke="#63b8ff" d="M223.09,-123.62C233.69,-115.97 249.09,-104.83 262.76,-94.95"/>
<polygon fill="#63b8ff" stroke="#63b8ff" points="264.58,-97.96 270.63,-89.26 260.48,-92.28 264.58,-97.96"/>
</a>
</g>
</g>
<!-- Node8 -->
<g id="Node000008" class="node">
<title>Node8</title>
<g id="a_Node000008"><a xlink:href="../../df/d46/tablehandler_8hpp.html" target="_top" xlink:title=" ">
<polygon fill="white" stroke="#666666" points="466.12,-88 366.12,-88 366.12,-56 466.12,-56 466.12,-88"/>
<text text-anchor="start" x="374.12" y="-74.5" font-family="Helvetica,sans-Serif" font-size="10.00">../databaseClasses</text>
<text text-anchor="middle" x="416.12" y="-62.5" font-family="Helvetica,sans-Serif" font-size="10.00">/tablehandler.hpp</text>
</a>
</g>
</g>
<!-- Node4&#45;&gt;Node8 -->
<g id="edge10_Node000004_Node000008" class="edge">
<title>Node4&#45;&gt;Node8</title>
<g id="a_edge10_Node000004_Node000008"><a xlink:title=" ">
<path fill="none" stroke="#63b8ff" d="M242.31,-123.62C272.39,-114.87 318.07,-101.56 355.06,-90.79"/>
<polygon fill="#63b8ff" stroke="#63b8ff" points="355.66,-94.26 364.28,-88.1 353.7,-87.54 355.66,-94.26"/>
</a>
</g>
</g>
<!-- Node7&#45;&gt;Node3 -->
<g id="edge8_Node000007_Node000003" class="edge">
<title>Node7&#45;&gt;Node3</title>
<g id="a_edge8_Node000007_Node000003"><a xlink:title=" ">
<path fill="none" stroke="#63b8ff" d="M282.57,-55.55C277.17,-47.65 270.56,-37.97 264.88,-29.66"/>
<polygon fill="#63b8ff" stroke="#63b8ff" points="267.94,-27.94 259.41,-21.66 262.16,-31.89 267.94,-27.94"/>
</a>
</g>
</g>
<!-- Node7&#45;&gt;Node6 -->
<g id="edge9_Node000007_Node000006" class="edge">
<title>Node7&#45;&gt;Node6</title>
<g id="a_edge9_Node000007_Node000006"><a xlink:title=" ">
<path fill="none" stroke="#63b8ff" d="M324.8,-55.55C343.84,-46.26 367.91,-34.52 386.56,-25.42"/>
<polygon fill="#63b8ff" stroke="#63b8ff" points="388.03,-28.6 395.48,-21.07 384.96,-22.31 388.03,-28.6"/>
</a>
</g>
</g>
<!-- Node8&#45;&gt;Node3 -->
<g id="edge11_Node000008_Node000003" class="edge">
<title>Node8&#45;&gt;Node3</title>
<g id="a_edge11_Node000008_Node000003"><a xlink:title=" ">
<path fill="none" stroke="#63b8ff" d="M373.89,-55.55C347.44,-45.87 313.69,-33.53 288.44,-24.29"/>
<polygon fill="#63b8ff" stroke="#63b8ff" points="289.86,-21.08 279.26,-20.93 287.45,-27.65 289.86,-21.08"/>
</a>
</g>
</g>
<!-- Node8&#45;&gt;Node6 -->
<g id="edge12_Node000008_Node000006" class="edge">
<title>Node8&#45;&gt;Node6</title>
<g id="a_edge12_Node000008_Node000006"><a xlink:title=" ">
<path fill="none" stroke="#63b8ff" d="M416.12,-55.55C416.12,-48.34 416.12,-39.66 416.12,-31.88"/>
<polygon fill="#63b8ff" stroke="#63b8ff" points="419.63,-31.92 416.13,-21.92 412.63,-31.92 419.63,-31.92"/>
</a>
</g>
</g>
</g>
</svg>
