<?xml version="1.0" encoding="UTF-8" standalone="no"?>
<!DOCTYPE svg PUBLIC "-//W3C//DTD SVG 1.1//EN"
 "http://www.w3.org/Graphics/SVG/1.1/DTD/svg11.dtd">
<!-- Generated by graphviz version 9.0.0 (20230911.1827)
 -->
<!-- Title: AposFrontend::DevWindow::DevWindow Pages: 1 -->
<svg width="851pt" height="756pt"
 viewBox="0.00 0.00 850.75 756.00" xmlns="http://www.w3.org/2000/svg" xmlns:xlink="http://www.w3.org/1999/xlink">
<g id="graph0" class="graph" transform="scale(1 1) rotate(0) translate(4 752)">
<title>AposFrontend::DevWindow::DevWindow</title>
<!-- Node1 -->
<g id="Node000001" class="node">
<title>Node1</title>
<g id="a_Node000001"><a xlink:title="Constructor for the DevWindow class.">
<polygon fill="#999999" stroke="#666666" points="133,-364 0,-364 0,-332 133,-332 133,-364"/>
<text text-anchor="start" x="8" y="-350.5" font-family="Helvetica,sans-Serif" font-size="10.00">AposFrontend::DevWindow</text>
<text text-anchor="middle" x="66.5" y="-338.5" font-family="Helvetica,sans-Serif" font-size="10.00">::DevWindow</text>
</a>
</g>
</g>
<!-- Node2 -->
<g id="Node000002" class="node">
<title>Node2</title>
<g id="a_Node000002"><a xlink:href="../../dc/dc2/class_apos_frontend_1_1_dev_window.html#a23ebf9d4eb49ee75ff31618f545b8f98" target="_top" xlink:title=" ">
<polygon fill="white" stroke="#666666" points="302,-364 169,-364 169,-332 302,-332 302,-364"/>
<text text-anchor="start" x="177" y="-350.5" font-family="Helvetica,sans-Serif" font-size="10.00">AposFrontend::DevWindow</text>
<text text-anchor="middle" x="235.5" y="-338.5" font-family="Helvetica,sans-Serif" font-size="10.00">::devConnectUi</text>
</a>
</g>
</g>
<!-- Node1&#45;&gt;Node2 -->
<g id="edge1_Node000001_Node000002" class="edge">
<title>Node1&#45;&gt;Node2</title>
<g id="a_edge1_Node000001_Node000002"><a xlink:title=" ">
<path fill="none" stroke="#63b8ff" d="M133.02,-348C140.97,-348 149.15,-348 157.25,-348"/>
<polygon fill="#63b8ff" stroke="#63b8ff" points="157.1,-351.5 167.1,-348 157.1,-344.5 157.1,-351.5"/>
</a>
</g>
</g>
<!-- Node3 -->
<g id="Node000003" class="node">
<title>Node3</title>
<g id="a_Node000003"><a xlink:href="../../d8/d33/group___slot-_functions.html#ga0f119ee2e0614736c00367c7adf6d90f" target="_top" xlink:title="Slot for the &#39;Add&#39; button click event.">
<polygon fill="white" stroke="#666666" points="487.88,-682 354.88,-682 354.88,-650 487.88,-650 487.88,-682"/>
<text text-anchor="start" x="362.88" y="-668.5" font-family="Helvetica,sans-Serif" font-size="10.00">AposFrontend::DevWindow</text>
<text text-anchor="middle" x="421.38" y="-656.5" font-family="Helvetica,sans-Serif" font-size="10.00">::addValuesClicked</text>
</a>
</g>
</g>
<!-- Node2&#45;&gt;Node3 -->
<g id="edge2_Node000002_Node000003" class="edge">
<title>Node2&#45;&gt;Node3</title>
<g id="a_edge2_Node000002_Node000003"><a xlink:title=" ">
<path fill="none" stroke="#63b8ff" d="M240.31,-364.41C250.6,-406.21 282.01,-518.8 338,-596 351.08,-614.03 369.74,-630.39 385.99,-642.76"/>
<polygon fill="#63b8ff" stroke="#63b8ff" points="383.88,-645.54 394.01,-648.66 388.03,-639.91 383.88,-645.54"/>
</a>
</g>
</g>
<!-- Node7 -->
<g id="Node000007" class="node">
<title>Node7</title>
<g id="a_Node000007"><a xlink:href="../../d8/d33/group___slot-_functions.html#ga9476410c44a8a05671495955dd0d1326" target="_top" xlink:title="Slot for the &#39;clearCommandAfterExecute&#39; state change event.">
<polygon fill="white" stroke="#666666" points="504.75,-587 338,-587 338,-543 504.75,-543 504.75,-587"/>
<text text-anchor="start" x="346" y="-573.5" font-family="Helvetica,sans-Serif" font-size="10.00">AposFrontend::DevWindow</text>
<text text-anchor="start" x="346" y="-561.5" font-family="Helvetica,sans-Serif" font-size="10.00">::clearCommandAfterExecuteState</text>
<text text-anchor="middle" x="421.38" y="-549.5" font-family="Helvetica,sans-Serif" font-size="10.00">Changed</text>
</a>
</g>
</g>
<!-- Node2&#45;&gt;Node7 -->
<g id="edge7_Node000002_Node000007" class="edge">
<title>Node2&#45;&gt;Node7</title>
<g id="a_edge7_Node000002_Node000007"><a xlink:title=" ">
<path fill="none" stroke="#63b8ff" d="M241.14,-364.41C252.06,-400.22 282.75,-485.97 338,-534 338.92,-534.8 339.87,-535.58 340.83,-536.35"/>
<polygon fill="#63b8ff" stroke="#63b8ff" points="338.56,-539.03 348.77,-541.84 342.54,-533.27 338.56,-539.03"/>
</a>
</g>
</g>
<!-- Node9 -->
<g id="Node000009" class="node">
<title>Node9</title>
<g id="a_Node000009"><a xlink:href="../../d8/d33/group___slot-_functions.html#gad57d8acf5aa5859e527474010d106a15" target="_top" xlink:title="Slot for the &#39;clearInputsAfterInsert&#39; state change event.">
<polygon fill="white" stroke="#666666" points="489.75,-525 353,-525 353,-481 489.75,-481 489.75,-525"/>
<text text-anchor="start" x="361" y="-511.5" font-family="Helvetica,sans-Serif" font-size="10.00">AposFrontend::DevWindow</text>
<text text-anchor="start" x="361" y="-499.5" font-family="Helvetica,sans-Serif" font-size="10.00">::clearInputsAfterInsertState</text>
<text text-anchor="middle" x="421.38" y="-487.5" font-family="Helvetica,sans-Serif" font-size="10.00">Changed</text>
</a>
</g>
</g>
<!-- Node2&#45;&gt;Node9 -->
<g id="edge11_Node000002_Node000009" class="edge">
<title>Node2&#45;&gt;Node9</title>
<g id="a_edge11_Node000002_Node000009"><a xlink:title=" ">
<path fill="none" stroke="#63b8ff" d="M249.38,-364.24C267.55,-386.49 302.47,-426.87 338,-455 346.86,-462.01 356.85,-468.7 366.73,-474.73"/>
<polygon fill="#63b8ff" stroke="#63b8ff" points="364.85,-477.68 375.24,-479.77 368.42,-471.66 364.85,-477.68"/>
</a>
</g>
</g>
<!-- Node10 -->
<g id="Node000010" class="node">
<title>Node10</title>
<g id="a_Node000010"><a xlink:href="../../d8/d33/group___slot-_functions.html#gae146dd428f1022b7a3870f48d7ae7ed8" target="_top" xlink:title="Slot for the &#39;CloseDB&#39; button click event.">
<polygon fill="white" stroke="#666666" points="487.88,-283 354.88,-283 354.88,-251 487.88,-251 487.88,-283"/>
<text text-anchor="start" x="362.88" y="-269.5" font-family="Helvetica,sans-Serif" font-size="10.00">AposFrontend::DevWindow</text>
<text text-anchor="middle" x="421.38" y="-257.5" font-family="Helvetica,sans-Serif" font-size="10.00">::closeDBClicked</text>
</a>
</g>
</g>
<!-- Node2&#45;&gt;Node10 -->
<g id="edge14_Node000002_Node000010" class="edge">
<title>Node2&#45;&gt;Node10</title>
<g id="a_edge14_Node000002_Node000010"><a xlink:title=" ">
<path fill="none" stroke="#63b8ff" d="M267.68,-331.66C287.57,-321.48 314.03,-308.39 338,-298 346.27,-294.42 355.11,-290.84 363.81,-287.45"/>
<polygon fill="#63b8ff" stroke="#63b8ff" points="364.81,-290.82 372.89,-283.97 362.3,-284.28 364.81,-290.82"/>
</a>
</g>
</g>
<!-- Node14 -->
<g id="Node000014" class="node">
<title>Node14</title>
<g id="a_Node000014"><a xlink:href="../../d8/d33/group___slot-_functions.html#gacc29aca9e2412bd437baad293a50ad60" target="_top" xlink:title="Slot for the &#39;Execute&#39; button click event.">
<polygon fill="white" stroke="#666666" points="487.88,-446 354.88,-446 354.88,-414 487.88,-414 487.88,-446"/>
<text text-anchor="start" x="362.88" y="-432.5" font-family="Helvetica,sans-Serif" font-size="10.00">AposFrontend::DevWindow</text>
<text text-anchor="middle" x="421.38" y="-420.5" font-family="Helvetica,sans-Serif" font-size="10.00">::executeClicked</text>
</a>
</g>
</g>
<!-- Node2&#45;&gt;Node14 -->
<g id="edge20_Node000002_Node000014" class="edge">
<title>Node2&#45;&gt;Node14</title>
<g id="a_edge20_Node000002_Node000014"><a xlink:title=" ">
<path fill="none" stroke="#63b8ff" d="M268.16,-364.48C288.02,-374.6 314.26,-387.57 338,-398 346.78,-401.86 356.19,-405.74 365.39,-409.41"/>
<polygon fill="#63b8ff" stroke="#63b8ff" points="364.06,-412.64 374.64,-413.04 366.62,-406.13 364.06,-412.64"/>
</a>
</g>
</g>
<!-- Node16 -->
<g id="Node000016" class="node">
<title>Node16</title>
<g id="a_Node000016"><a xlink:href="../../d8/d33/group___slot-_functions.html#ga14d5f4db38883d800bb6f1df2c25d079" target="_top" xlink:title="Slot for the &#39;InitDB&#39; button click event.">
<polygon fill="white" stroke="#666666" points="487.88,-220 354.88,-220 354.88,-188 487.88,-188 487.88,-220"/>
<text text-anchor="start" x="362.88" y="-206.5" font-family="Helvetica,sans-Serif" font-size="10.00">AposFrontend::DevWindow</text>
<text text-anchor="middle" x="421.38" y="-194.5" font-family="Helvetica,sans-Serif" font-size="10.00">::initDbClicked</text>
</a>
</g>
</g>
<!-- Node2&#45;&gt;Node16 -->
<g id="edge24_Node000002_Node000016" class="edge">
<title>Node2&#45;&gt;Node16</title>
<g id="a_edge24_Node000002_Node000016"><a xlink:title=" ">
<path fill="none" stroke="#63b8ff" d="M248.74,-331.81C266.43,-309.3 301.08,-268.34 338,-242 346.75,-235.75 356.7,-230.14 366.58,-225.26"/>
<polygon fill="#63b8ff" stroke="#63b8ff" points="367.87,-228.52 375.42,-221.09 364.89,-222.19 367.87,-228.52"/>
</a>
</g>
</g>
<!-- Node18 -->
<g id="Node000018" class="node">
<title>Node18</title>
<g id="a_Node000018"><a xlink:href="../../d8/d33/group___slot-_functions.html#gaa325eec0551d473ae853938926226e76" target="_top" xlink:title="Slot for the &#39;ReturnToLauncher&#39; button click event.">
<polygon fill="white" stroke="#666666" points="487.88,-148 354.88,-148 354.88,-116 487.88,-116 487.88,-148"/>
<text text-anchor="start" x="362.88" y="-134.5" font-family="Helvetica,sans-Serif" font-size="10.00">AposFrontend::DevWindow</text>
<text text-anchor="middle" x="421.38" y="-122.5" font-family="Helvetica,sans-Serif" font-size="10.00">::returnToLauncherClicked</text>
</a>
</g>
</g>
<!-- Node2&#45;&gt;Node18 -->
<g id="edge30_Node000002_Node000018" class="edge">
<title>Node2&#45;&gt;Node18</title>
<g id="a_edge30_Node000002_Node000018"><a xlink:title=" ">
<path fill="none" stroke="#63b8ff" d="M242.91,-331.73C256.37,-299.29 290.28,-225.66 338,-179 347.93,-169.29 360.27,-160.87 372.34,-153.95"/>
<polygon fill="#63b8ff" stroke="#63b8ff" points="373.92,-157.08 381.03,-149.22 370.58,-150.93 373.92,-157.08"/>
</a>
</g>
</g>
<!-- Node20 -->
<g id="Node000020" class="node">
<title>Node20</title>
<g id="a_Node000020"><a xlink:href="../../d8/d33/group___slot-_functions.html#ga1890e27f325371c72977a5b6485817ca" target="_top" xlink:title="Slot for the &#39;SelectTable&#39; button click event.">
<polygon fill="white" stroke="#666666" points="487.88,-389 354.88,-389 354.88,-357 487.88,-357 487.88,-389"/>
<text text-anchor="start" x="362.88" y="-375.5" font-family="Helvetica,sans-Serif" font-size="10.00">AposFrontend::DevWindow</text>
<text text-anchor="middle" x="421.38" y="-363.5" font-family="Helvetica,sans-Serif" font-size="10.00">::selectTableClicked</text>
</a>
</g>
</g>
<!-- Node2&#45;&gt;Node20 -->
<g id="edge32_Node000002_Node000020" class="edge">
<title>Node2&#45;&gt;Node20</title>
<g id="a_edge32_Node000002_Node000020"><a xlink:title=" ">
<path fill="none" stroke="#63b8ff" d="M302.36,-356.95C315.65,-358.76 329.72,-360.67 343.35,-362.53"/>
<polygon fill="#63b8ff" stroke="#63b8ff" points="342.78,-365.98 353.16,-363.86 343.73,-359.05 342.78,-365.98"/>
</a>
</g>
</g>
<!-- Node21 -->
<g id="Node000021" class="node">
<title>Node21</title>
<g id="a_Node000021"><a xlink:href="../../d8/d33/group___slot-_functions.html#ga2226eb622bf9e90c33e692a1be9cb3fc" target="_top" xlink:title="Slot for the &#39;Settings&#39; button click event.">
<polygon fill="white" stroke="#666666" points="487.88,-54 354.88,-54 354.88,-22 487.88,-22 487.88,-54"/>
<text text-anchor="start" x="362.88" y="-40.5" font-family="Helvetica,sans-Serif" font-size="10.00">AposFrontend::DevWindow</text>
<text text-anchor="middle" x="421.38" y="-28.5" font-family="Helvetica,sans-Serif" font-size="10.00">::settingsClicked</text>
</a>
</g>
</g>
<!-- Node2&#45;&gt;Node21 -->
<g id="edge35_Node000002_Node000021" class="edge">
<title>Node2&#45;&gt;Node21</title>
<g id="a_edge35_Node000002_Node000021"><a xlink:title=" ">
<path fill="none" stroke="#63b8ff" d="M240.47,-331.73C251.04,-290.84 282.85,-181.69 338,-107 351.06,-89.31 369.56,-73.28 385.72,-61.14"/>
<polygon fill="#63b8ff" stroke="#63b8ff" points="387.65,-64.06 393.68,-55.34 383.53,-58.4 387.65,-64.06"/>
</a>
</g>
</g>
<!-- Node23 -->
<g id="Node000023" class="node">
<title>Node23</title>
<g id="a_Node000023"><a xlink:href="../../d8/d33/group___slot-_functions.html#ga6b20717bf1ad767e3aa3878bb5723f44" target="_top" xlink:title="Slot for the &#39;Update&#39; button click event.">
<polygon fill="white" stroke="#666666" points="487.88,-339 354.88,-339 354.88,-307 487.88,-307 487.88,-339"/>
<text text-anchor="start" x="362.88" y="-325.5" font-family="Helvetica,sans-Serif" font-size="10.00">AposFrontend::DevWindow</text>
<text text-anchor="middle" x="421.38" y="-313.5" font-family="Helvetica,sans-Serif" font-size="10.00">::updateTableClicked</text>
</a>
</g>
</g>
<!-- Node2&#45;&gt;Node23 -->
<g id="edge37_Node000002_Node000023" class="edge">
<title>Node2&#45;&gt;Node23</title>
<g id="a_edge37_Node000002_Node000023"><a xlink:title=" ">
<path fill="none" stroke="#63b8ff" d="M302.36,-339.05C315.65,-337.24 329.72,-335.33 343.35,-333.47"/>
<polygon fill="#63b8ff" stroke="#63b8ff" points="343.73,-336.95 353.16,-332.14 342.78,-330.02 343.73,-336.95"/>
</a>
</g>
</g>
<!-- Node4 -->
<g id="Node000004" class="node">
<title>Node4</title>
<g id="a_Node000004"><a xlink:href="../../d6/de4/group___ui-_functions.html#gaa5f72842768883e8c2e29a8a54c74fe4" target="_top" xlink:title="Assigns the inputs.">
<polygon fill="white" stroke="#666666" points="673.75,-660 540.75,-660 540.75,-628 673.75,-628 673.75,-660"/>
<text text-anchor="start" x="548.75" y="-646.5" font-family="Helvetica,sans-Serif" font-size="10.00">AposFrontend::DevWindow</text>
<text text-anchor="middle" x="607.25" y="-634.5" font-family="Helvetica,sans-Serif" font-size="10.00">::assignInputs</text>
</a>
</g>
</g>
<!-- Node3&#45;&gt;Node4 -->
<g id="edge3_Node000003_Node000004" class="edge">
<title>Node3&#45;&gt;Node4</title>
<g id="a_edge3_Node000003_Node000004"><a xlink:title=" ">
<path fill="none" stroke="#63b8ff" d="M488.24,-658.12C501.52,-656.53 515.6,-654.85 529.22,-653.22"/>
<polygon fill="#63b8ff" stroke="#63b8ff" points="529.52,-656.71 539.03,-652.04 528.69,-649.75 529.52,-656.71"/>
</a>
</g>
</g>
<!-- Node5 -->
<g id="Node000005" class="node">
<title>Node5</title>
<g id="a_Node000005"><a xlink:href="../../d6/de4/group___ui-_functions.html#ga03c2171905116230d3f05e1cdebb9b06" target="_top" xlink:title="Clears the inputs.">
<polygon fill="white" stroke="#666666" points="673.75,-748 540.75,-748 540.75,-716 673.75,-716 673.75,-748"/>
<text text-anchor="start" x="548.75" y="-734.5" font-family="Helvetica,sans-Serif" font-size="10.00">AposFrontend::DevWindow</text>
<text text-anchor="middle" x="607.25" y="-722.5" font-family="Helvetica,sans-Serif" font-size="10.00">::clearInputs</text>
</a>
</g>
</g>
<!-- Node3&#45;&gt;Node5 -->
<g id="edge4_Node000003_Node000005" class="edge">
<title>Node3&#45;&gt;Node5</title>
<g id="a_edge4_Node000003_Node000005"><a xlink:title=" ">
<path fill="none" stroke="#63b8ff" d="M468.3,-682.48C493.08,-691.38 523.86,-702.43 550.05,-711.83"/>
<polygon fill="#63b8ff" stroke="#63b8ff" points="548.57,-715.02 559.17,-715.1 550.94,-708.43 548.57,-715.02"/>
</a>
</g>
</g>
<!-- Node6 -->
<g id="Node000006" class="node">
<title>Node6</title>
<g id="a_Node000006"><a xlink:href="../../dc/dc2/class_apos_frontend_1_1_dev_window.html#a6e2ecb7e3fd65aefc8ed62fc9f1519e9" target="_top" xlink:title="Logs an event with a type and a message.">
<polygon fill="white" stroke="#666666" points="842.75,-446 709.75,-446 709.75,-414 842.75,-414 842.75,-446"/>
<text text-anchor="start" x="717.75" y="-432.5" font-family="Helvetica,sans-Serif" font-size="10.00">AposFrontend::DevWindow</text>
<text text-anchor="middle" x="776.25" y="-420.5" font-family="Helvetica,sans-Serif" font-size="10.00">::logEvent</text>
</a>
</g>
</g>
<!-- Node3&#45;&gt;Node6 -->
<g id="edge6_Node000003_Node000006" class="edge">
<title>Node3&#45;&gt;Node6</title>
<g id="a_edge6_Node000003_Node000006"><a xlink:title=" ">
<path fill="none" stroke="#63b8ff" d="M474.31,-682.44C528.74,-696.31 614.42,-708.26 673.75,-669 746.32,-620.98 767.16,-509.5 773.02,-457.55"/>
<polygon fill="#63b8ff" stroke="#63b8ff" points="776.48,-458.08 774.01,-447.78 769.52,-457.38 776.48,-458.08"/>
</a>
</g>
</g>
<!-- Node5&#45;&gt;Node6 -->
<g id="edge5_Node000005_Node000006" class="edge">
<title>Node5&#45;&gt;Node6</title>
<g id="a_edge5_Node000005_Node000006"><a xlink:title=" ">
<path fill="none" stroke="#63b8ff" d="M655.99,-715.65C662.54,-711.91 668.72,-707.4 673.75,-702 740.31,-630.44 764.27,-511.24 771.98,-457.62"/>
<polygon fill="#63b8ff" stroke="#63b8ff" points="775.43,-458.22 773.3,-447.84 768.49,-457.28 775.43,-458.22"/>
</a>
</g>
</g>
<!-- Node7&#45;&gt;Node6 -->
<g id="edge10_Node000007_Node000006" class="edge">
<title>Node7&#45;&gt;Node6</title>
<g id="a_edge10_Node000007_Node000006"><a xlink:title=" ">
<path fill="none" stroke="#63b8ff" d="M488.62,-587.46C541.79,-601.36 616.73,-611.38 673.75,-581 722.93,-554.8 752.53,-493.01 766.18,-457.11"/>
<polygon fill="#63b8ff" stroke="#63b8ff" points="769.41,-458.47 769.54,-447.87 762.83,-456.07 769.41,-458.47"/>
</a>
</g>
</g>
<!-- Node8 -->
<g id="Node000008" class="node">
<title>Node8</title>
<g id="a_Node000008"><a xlink:href="../../d6/de4/group___ui-_functions.html#ga967ec97cb7b88eeb89c2ef45f68763a6" target="_top" xlink:title="Checks a checkbox.">
<polygon fill="white" stroke="#666666" points="673.75,-572 540.75,-572 540.75,-540 673.75,-540 673.75,-572"/>
<text text-anchor="start" x="548.75" y="-558.5" font-family="Helvetica,sans-Serif" font-size="10.00">AposFrontend::DevWindow</text>
<text text-anchor="middle" x="607.25" y="-546.5" font-family="Helvetica,sans-Serif" font-size="10.00">::checkCheckbox</text>
</a>
</g>
</g>
<!-- Node7&#45;&gt;Node8 -->
<g id="edge8_Node000007_Node000008" class="edge">
<title>Node7&#45;&gt;Node8</title>
<g id="a_edge8_Node000007_Node000008"><a xlink:title=" ">
<path fill="none" stroke="#63b8ff" d="M505.17,-560.95C513.11,-560.56 521.14,-560.17 529.03,-559.78"/>
<polygon fill="#63b8ff" stroke="#63b8ff" points="529.12,-563.28 538.94,-559.29 528.78,-556.29 529.12,-563.28"/>
</a>
</g>
</g>
<!-- Node8&#45;&gt;Node6 -->
<g id="edge9_Node000008_Node000006" class="edge">
<title>Node8&#45;&gt;Node6</title>
<g id="a_edge9_Node000008_Node000006"><a xlink:title=" ">
<path fill="none" stroke="#63b8ff" d="M649.55,-539.59C657.84,-535.61 666.28,-531.04 673.75,-526 704.19,-505.47 734.12,-475.65 753.5,-454.71"/>
<polygon fill="#63b8ff" stroke="#63b8ff" points="755.96,-457.2 760.11,-447.45 750.79,-452.48 755.96,-457.2"/>
</a>
</g>
</g>
<!-- Node9&#45;&gt;Node6 -->
<g id="edge13_Node000009_Node000006" class="edge">
<title>Node9&#45;&gt;Node6</title>
<g id="a_edge13_Node000009_Node000006"><a xlink:title=" ">
<path fill="none" stroke="#63b8ff" d="M490.22,-499.11C541.33,-495.04 612.77,-486.91 673.75,-471 692.94,-465.99 713.35,-458.26 730.79,-450.85"/>
<polygon fill="#63b8ff" stroke="#63b8ff" points="732.07,-454.11 739.85,-446.91 729.28,-447.69 732.07,-454.11"/>
</a>
</g>
</g>
<!-- Node9&#45;&gt;Node8 -->
<g id="edge12_Node000009_Node000008" class="edge">
<title>Node9&#45;&gt;Node8</title>
<g id="a_edge12_Node000009_Node000008"><a xlink:title=" ">
<path fill="none" stroke="#63b8ff" d="M490.06,-522.51C505.87,-527.07 522.71,-531.92 538.52,-536.48"/>
<polygon fill="#63b8ff" stroke="#63b8ff" points="537.24,-539.75 547.82,-539.16 539.18,-533.02 537.24,-539.75"/>
</a>
</g>
</g>
<!-- Node11 -->
<g id="Node000011" class="node">
<title>Node11</title>
<g id="a_Node000011"><a xlink:href="../../dd/d44/group___database-_functions.html#gaab8300a6ed941015a4c5e1d1c68335e3" target="_top" xlink:title="Closes the database.">
<polygon fill="white" stroke="#666666" points="673.75,-270 540.75,-270 540.75,-238 673.75,-238 673.75,-270"/>
<text text-anchor="start" x="548.75" y="-256.5" font-family="Helvetica,sans-Serif" font-size="10.00">AposFrontend::DevWindow</text>
<text text-anchor="middle" x="607.25" y="-244.5" font-family="Helvetica,sans-Serif" font-size="10.00">::closeDatabase</text>
</a>
</g>
</g>
<!-- Node10&#45;&gt;Node11 -->
<g id="edge15_Node000010_Node000011" class="edge">
<title>Node10&#45;&gt;Node11</title>
<g id="a_edge15_Node000010_Node000011"><a xlink:title=" ">
<path fill="none" stroke="#63b8ff" d="M488.24,-262.34C501.52,-261.4 515.6,-260.41 529.22,-259.45"/>
<polygon fill="#63b8ff" stroke="#63b8ff" points="529.3,-262.95 539.03,-258.75 528.81,-255.97 529.3,-262.95"/>
</a>
</g>
</g>
<!-- Node12 -->
<g id="Node000012" class="node">
<title>Node12</title>
<g id="a_Node000012"><a xlink:href="../../d6/de4/group___ui-_functions.html#gad74b5ca7c247820a938dbdf20f1e8f8c" target="_top" xlink:title="Enables or disables the buttons.">
<polygon fill="white" stroke="#666666" points="673.75,-220 540.75,-220 540.75,-188 673.75,-188 673.75,-220"/>
<text text-anchor="start" x="548.75" y="-206.5" font-family="Helvetica,sans-Serif" font-size="10.00">AposFrontend::DevWindow</text>
<text text-anchor="middle" x="607.25" y="-194.5" font-family="Helvetica,sans-Serif" font-size="10.00">::enableButtons</text>
</a>
</g>
</g>
<!-- Node10&#45;&gt;Node12 -->
<g id="edge17_Node000010_Node000012" class="edge">
<title>Node10&#45;&gt;Node12</title>
<g id="a_edge17_Node000010_Node000012"><a xlink:title=" ">
<path fill="none" stroke="#63b8ff" d="M470.21,-250.61C493.84,-242.51 522.58,-232.67 547.54,-224.12"/>
<polygon fill="#63b8ff" stroke="#63b8ff" points="548.58,-227.46 556.91,-220.91 546.31,-220.84 548.58,-227.46"/>
</a>
</g>
</g>
<!-- Node13 -->
<g id="Node000013" class="node">
<title>Node13</title>
<g id="a_Node000013"><a xlink:href="../../dd/d44/group___database-_functions.html#ga9f30984f5b6e7ee6061ea5107c79eb33" target="_top" xlink:title="Sets the model views.">
<polygon fill="white" stroke="#666666" points="673.75,-320 540.75,-320 540.75,-288 673.75,-288 673.75,-320"/>
<text text-anchor="start" x="548.75" y="-306.5" font-family="Helvetica,sans-Serif" font-size="10.00">AposFrontend::DevWindow</text>
<text text-anchor="middle" x="607.25" y="-294.5" font-family="Helvetica,sans-Serif" font-size="10.00">::setModelViews</text>
</a>
</g>
</g>
<!-- Node10&#45;&gt;Node13 -->
<g id="edge19_Node000010_Node000013" class="edge">
<title>Node10&#45;&gt;Node13</title>
<g id="a_edge19_Node000010_Node000013"><a xlink:title=" ">
<path fill="none" stroke="#63b8ff" d="M488.24,-280.25C501.66,-282.95 515.88,-285.82 529.63,-288.58"/>
<polygon fill="#63b8ff" stroke="#63b8ff" points="528.56,-291.94 539.05,-290.48 529.94,-285.07 528.56,-291.94"/>
</a>
</g>
</g>
<!-- Node11&#45;&gt;Node6 -->
<g id="edge16_Node000011_Node000006" class="edge">
<title>Node11&#45;&gt;Node6</title>
<g id="a_edge16_Node000011_Node000006"><a xlink:title=" ">
<path fill="none" stroke="#63b8ff" d="M660.32,-270.36C665.09,-272.87 669.65,-275.74 673.75,-279 716.62,-313.09 747.98,-370.28 763.76,-403.63"/>
<polygon fill="#63b8ff" stroke="#63b8ff" points="760.52,-404.96 767.87,-412.58 766.88,-402.04 760.52,-404.96"/>
</a>
</g>
</g>
<!-- Node12&#45;&gt;Node6 -->
<g id="edge18_Node000012_Node000006" class="edge">
<title>Node12&#45;&gt;Node6</title>
<g id="a_edge18_Node000012_Node000006"><a xlink:title=" ">
<path fill="none" stroke="#63b8ff" d="M661.73,-220.4C666.05,-222.89 670.13,-225.74 673.75,-229 727.22,-277.22 756.29,-360.1 768.39,-402.81"/>
<polygon fill="#63b8ff" stroke="#63b8ff" points="764.96,-403.53 770.96,-412.26 771.72,-401.69 764.96,-403.53"/>
</a>
</g>
</g>
<!-- Node14&#45;&gt;Node6 -->
<g id="edge23_Node000014_Node000006" class="edge">
<title>Node14&#45;&gt;Node6</title>
<g id="a_edge23_Node000014_Node000006"><a xlink:title=" ">
<path fill="none" stroke="#63b8ff" d="M488.35,-446.47C505.32,-450 523.62,-453.21 540.75,-455 599.54,-461.14 615.07,-462.12 673.75,-455 684.83,-453.66 696.44,-451.51 707.7,-449.04"/>
<polygon fill="#63b8ff" stroke="#63b8ff" points="708.37,-452.47 717.32,-446.81 706.79,-445.65 708.37,-452.47"/>
</a>
</g>
</g>
<!-- Node15 -->
<g id="Node000015" class="node">
<title>Node15</title>
<g id="a_Node000015"><a xlink:href="../../d6/de4/group___ui-_functions.html#gaea26af22c4b1427ec8aa9b9fb81aa30f" target="_top" xlink:title="Clears the command box.">
<polygon fill="white" stroke="#666666" points="673.75,-446 540.75,-446 540.75,-414 673.75,-414 673.75,-446"/>
<text text-anchor="start" x="548.75" y="-432.5" font-family="Helvetica,sans-Serif" font-size="10.00">AposFrontend::DevWindow</text>
<text text-anchor="middle" x="607.25" y="-420.5" font-family="Helvetica,sans-Serif" font-size="10.00">::clearCommandBox</text>
</a>
</g>
</g>
<!-- Node14&#45;&gt;Node15 -->
<g id="edge21_Node000014_Node000015" class="edge">
<title>Node14&#45;&gt;Node15</title>
<g id="a_edge21_Node000014_Node000015"><a xlink:title=" ">
<path fill="none" stroke="#63b8ff" d="M488.24,-430C501.52,-430 515.6,-430 529.22,-430"/>
<polygon fill="#63b8ff" stroke="#63b8ff" points="529.02,-433.5 539.02,-430 529.02,-426.5 529.02,-433.5"/>
</a>
</g>
</g>
<!-- Node15&#45;&gt;Node6 -->
<g id="edge22_Node000015_Node000006" class="edge">
<title>Node15&#45;&gt;Node6</title>
<g id="a_edge22_Node000015_Node000006"><a xlink:title=" ">
<path fill="none" stroke="#63b8ff" d="M673.77,-430C681.72,-430 689.9,-430 698,-430"/>
<polygon fill="#63b8ff" stroke="#63b8ff" points="697.85,-433.5 707.85,-430 697.85,-426.5 697.85,-433.5"/>
</a>
</g>
</g>
<!-- Node16&#45;&gt;Node6 -->
<g id="edge28_Node000016_Node000006" class="edge">
<title>Node16&#45;&gt;Node6</title>
<g id="a_edge28_Node000016_Node000006"><a xlink:title=" ">
<path fill="none" stroke="#63b8ff" d="M453.52,-187.6C469.2,-179 488.33,-167.99 504.75,-157 521.6,-145.73 521.58,-135.58 540.75,-129 596.66,-109.82 625.74,-94.52 673.75,-129 763.22,-193.25 774.87,-340.48 775.66,-402.09"/>
<polygon fill="#63b8ff" stroke="#63b8ff" points="772.16,-402.04 775.69,-412.03 779.16,-402.02 772.16,-402.04"/>
</a>
</g>
</g>
<!-- Node16&#45;&gt;Node12 -->
<g id="edge25_Node000016_Node000012" class="edge">
<title>Node16&#45;&gt;Node12</title>
<g id="a_edge25_Node000016_Node000012"><a xlink:title=" ">
<path fill="none" stroke="#63b8ff" d="M488.24,-204C501.52,-204 515.6,-204 529.22,-204"/>
<polygon fill="#63b8ff" stroke="#63b8ff" points="529.02,-207.5 539.02,-204 529.02,-200.5 529.02,-207.5"/>
</a>
</g>
</g>
<!-- Node16&#45;&gt;Node13 -->
<g id="edge29_Node000016_Node000013" class="edge">
<title>Node16&#45;&gt;Node13</title>
<g id="a_edge29_Node000016_Node000013"><a xlink:title=" ">
<path fill="none" stroke="#63b8ff" d="M465.49,-220.31C478.65,-226.21 492.79,-233.54 504.75,-242 523.48,-255.25 521.58,-266.39 540.75,-279 542.54,-280.18 544.4,-281.31 546.3,-282.41"/>
<polygon fill="#63b8ff" stroke="#63b8ff" points="544.29,-285.3 554.78,-286.81 547.51,-279.09 544.29,-285.3"/>
</a>
</g>
</g>
<!-- Node17 -->
<g id="Node000017" class="node">
<title>Node17</title>
<g id="a_Node000017"><a xlink:href="../../dd/d44/group___database-_functions.html#gaf776a9f414cca86d16ff2c25566459e0" target="_top" xlink:title="Initializes the database.">
<polygon fill="white" stroke="#666666" points="673.75,-170 540.75,-170 540.75,-138 673.75,-138 673.75,-170"/>
<text text-anchor="start" x="548.75" y="-156.5" font-family="Helvetica,sans-Serif" font-size="10.00">AposFrontend::DevWindow</text>
<text text-anchor="middle" x="607.25" y="-144.5" font-family="Helvetica,sans-Serif" font-size="10.00">::initDatabase</text>
</a>
</g>
</g>
<!-- Node16&#45;&gt;Node17 -->
<g id="edge26_Node000016_Node000017" class="edge">
<title>Node16&#45;&gt;Node17</title>
<g id="a_edge26_Node000016_Node000017"><a xlink:title=" ">
<path fill="none" stroke="#63b8ff" d="M482.84,-187.56C499.41,-183.05 517.53,-178.12 534.66,-173.47"/>
<polygon fill="#63b8ff" stroke="#63b8ff" points="535.56,-176.85 544.29,-170.85 533.72,-170.09 535.56,-176.85"/>
</a>
</g>
</g>
<!-- Node17&#45;&gt;Node6 -->
<g id="edge27_Node000017_Node000006" class="edge">
<title>Node17&#45;&gt;Node6</title>
<g id="a_edge27_Node000017_Node000006"><a xlink:title=" ">
<path fill="none" stroke="#63b8ff" d="M662.66,-170.47C666.68,-172.93 670.45,-175.76 673.75,-179 738.09,-242.08 762.98,-351.43 771.43,-402.39"/>
<polygon fill="#63b8ff" stroke="#63b8ff" points="767.97,-402.9 772.97,-412.24 774.89,-401.82 767.97,-402.9"/>
</a>
</g>
</g>
<!-- Node19 -->
<g id="Node000019" class="node">
<title>Node19</title>
<g id="a_Node000019"><a xlink:href="../../d7/d58/group___signal-_funtions.html#gaa16d604f0aa073808b1466132a301c5b" target="_top" xlink:title="Signal for returning to the launcher.">
<polygon fill="white" stroke="#666666" points="673.75,-82 540.75,-82 540.75,-50 673.75,-50 673.75,-82"/>
<text text-anchor="start" x="548.75" y="-68.5" font-family="Helvetica,sans-Serif" font-size="10.00">AposFrontend::DevWindow</text>
<text text-anchor="middle" x="607.25" y="-56.5" font-family="Helvetica,sans-Serif" font-size="10.00">::returnToLauncher</text>
</a>
</g>
</g>
<!-- Node18&#45;&gt;Node19 -->
<g id="edge31_Node000018_Node000019" class="edge">
<title>Node18&#45;&gt;Node19</title>
<g id="a_edge31_Node000018_Node000019"><a xlink:title=" ">
<path fill="none" stroke="#63b8ff" d="M468.3,-115.52C493.08,-106.62 523.86,-95.57 550.05,-86.17"/>
<polygon fill="#63b8ff" stroke="#63b8ff" points="550.94,-89.57 559.17,-82.9 548.57,-82.98 550.94,-89.57"/>
</a>
</g>
</g>
<!-- Node20&#45;&gt;Node6 -->
<g id="edge33_Node000020_Node000006" class="edge">
<title>Node20&#45;&gt;Node6</title>
<g id="a_edge33_Node000020_Node000006"><a xlink:title=" ">
<path fill="none" stroke="#63b8ff" d="M488.33,-379.3C539.22,-384.67 611.25,-393.37 673.75,-405 682.98,-406.72 692.63,-408.76 702.15,-410.93"/>
<polygon fill="#63b8ff" stroke="#63b8ff" points="701.22,-414.31 711.76,-413.18 702.82,-407.5 701.22,-414.31"/>
</a>
</g>
</g>
<!-- Node20&#45;&gt;Node13 -->
<g id="edge34_Node000020_Node000013" class="edge">
<title>Node20&#45;&gt;Node13</title>
<g id="a_edge34_Node000020_Node000013"><a xlink:title=" ">
<path fill="none" stroke="#63b8ff" d="M479.38,-356.63C487.93,-353.9 496.61,-350.99 504.75,-348 523.26,-341.2 543.26,-332.78 560.56,-325.13"/>
<polygon fill="#63b8ff" stroke="#63b8ff" points="561.87,-328.38 569.57,-321.1 559.01,-321.99 561.87,-328.38"/>
</a>
</g>
</g>
<!-- Node22 -->
<g id="Node000022" class="node">
<title>Node22</title>
<g id="a_Node000022"><a xlink:href="../../d7/d58/group___signal-_funtions.html#gab1ca9c597770ec6d63a8245b94fb10a9" target="_top" xlink:title="Signal for opening the settings.">
<polygon fill="white" stroke="#666666" points="673.75,-32 540.75,-32 540.75,0 673.75,0 673.75,-32"/>
<text text-anchor="start" x="548.75" y="-18.5" font-family="Helvetica,sans-Serif" font-size="10.00">AposFrontend::DevWindow</text>
<text text-anchor="middle" x="607.25" y="-6.5" font-family="Helvetica,sans-Serif" font-size="10.00">::openSettings</text>
</a>
</g>
</g>
<!-- Node21&#45;&gt;Node22 -->
<g id="edge36_Node000021_Node000022" class="edge">
<title>Node21&#45;&gt;Node22</title>
<g id="a_edge36_Node000021_Node000022"><a xlink:title=" ">
<path fill="none" stroke="#63b8ff" d="M488.24,-30.12C501.52,-28.53 515.6,-26.85 529.22,-25.22"/>
<polygon fill="#63b8ff" stroke="#63b8ff" points="529.52,-28.71 539.03,-24.04 528.69,-21.75 529.52,-28.71"/>
</a>
</g>
</g>
<!-- Node23&#45;&gt;Node6 -->
<g id="edge38_Node000023_Node000006" class="edge">
<title>Node23&#45;&gt;Node6</title>
<g id="a_edge38_Node000023_Node000006"><a xlink:title=" ">
<path fill="none" stroke="#63b8ff" d="M488.35,-334.05C539.73,-343.65 612.38,-359.41 673.75,-381 694.83,-388.42 717.31,-398.97 735.74,-408.38"/>
<polygon fill="#63b8ff" stroke="#63b8ff" points="733.97,-411.41 744.46,-412.92 737.2,-405.2 733.97,-411.41"/>
</a>
</g>
</g>
<!-- Node23&#45;&gt;Node13 -->
<g id="edge39_Node000023_Node000013" class="edge">
<title>Node23&#45;&gt;Node13</title>
<g id="a_edge39_Node000023_Node000013"><a xlink:title=" ">
<path fill="none" stroke="#63b8ff" d="M488.24,-316.19C501.52,-314.82 515.6,-313.37 529.22,-311.96"/>
<polygon fill="#63b8ff" stroke="#63b8ff" points="529.44,-315.46 539.03,-310.95 528.72,-308.49 529.44,-315.46"/>
</a>
</g>
</g>
</g>
</svg>
