<?xml version="1.0" encoding="UTF-8" standalone="no"?>
<!DOCTYPE svg PUBLIC "-//W3C//DTD SVG 1.1//EN"
 "http://www.w3.org/Graphics/SVG/1.1/DTD/svg11.dtd">
<!-- Generated by graphviz version 9.0.0 (20230911.1827)
 -->
<!-- Title: AposFrontend::WindowHandler::WindowHandler Pages: 1 -->
<svg width="709pt" height="290pt"
 viewBox="0.00 0.00 708.75 290.00" xmlns="http://www.w3.org/2000/svg" xmlns:xlink="http://www.w3.org/1999/xlink">
<g id="graph0" class="graph" transform="scale(1 1) rotate(0) translate(4 286)">
<title>AposFrontend::WindowHandler::WindowHandler</title>
<!-- Node1 -->
<g id="Node000001" class="node">
<title>Node1</title>
<g id="a_Node000001"><a xlink:title="Constructor for the WindowHandler class.">
<polygon fill="#999999" stroke="#666666" points="150.25,-157 0,-157 0,-125 150.25,-125 150.25,-157"/>
<text text-anchor="start" x="8" y="-143.5" font-family="Helvetica,sans-Serif" font-size="10.00">AposFrontend::WindowHandler</text>
<text text-anchor="middle" x="75.12" y="-131.5" font-family="Helvetica,sans-Serif" font-size="10.00">::WindowHandler</text>
</a>
</g>
</g>
<!-- Node2 -->
<g id="Node000002" class="node">
<title>Node2</title>
<g id="a_Node000002"><a xlink:href="../../d7/d58/group___signal-_funtions.html#gaa502afe63303465922a81ff95f482b8e" target="_top" xlink:title="Signal for applying settings.">
<polygon fill="white" stroke="#666666" points="341.38,-282 188.12,-282 188.12,-250 341.38,-250 341.38,-282"/>
<text text-anchor="start" x="196.12" y="-268.5" font-family="Helvetica,sans-Serif" font-size="10.00">AposFrontend::SettingsWindow</text>
<text text-anchor="middle" x="264.75" y="-256.5" font-family="Helvetica,sans-Serif" font-size="10.00">::appliedSettings</text>
</a>
</g>
</g>
<!-- Node1&#45;&gt;Node2 -->
<g id="edge1_Node000001_Node000002" class="edge">
<title>Node1&#45;&gt;Node2</title>
<g id="a_edge1_Node000001_Node000002"><a xlink:title=" ">
<path fill="none" stroke="#63b8ff" d="M89.81,-157.15C109.19,-179.06 146.69,-218.1 186.25,-241 188.57,-242.34 190.98,-243.63 193.44,-244.85"/>
<polygon fill="#63b8ff" stroke="#63b8ff" points="191.88,-247.99 202.43,-248.92 194.77,-241.61 191.88,-247.99"/>
</a>
</g>
</g>
<!-- Node3 -->
<g id="Node000003" class="node">
<title>Node3</title>
<g id="a_Node000003"><a xlink:href="../../d6/de4/group___ui-_functions.html#gab39e73556bb529119402e7e3cde6588e" target="_top" xlink:title="Applies settings.">
<polygon fill="white" stroke="#666666" points="339.88,-232 189.62,-232 189.62,-200 339.88,-200 339.88,-232"/>
<text text-anchor="start" x="197.62" y="-218.5" font-family="Helvetica,sans-Serif" font-size="10.00">AposFrontend::WindowHandler</text>
<text text-anchor="middle" x="264.75" y="-206.5" font-family="Helvetica,sans-Serif" font-size="10.00">::applySettings</text>
</a>
</g>
</g>
<!-- Node1&#45;&gt;Node3 -->
<g id="edge2_Node000001_Node000003" class="edge">
<title>Node1&#45;&gt;Node3</title>
<g id="a_edge2_Node000001_Node000003"><a xlink:title=" ">
<path fill="none" stroke="#63b8ff" d="M109.44,-157.33C131.07,-167.63 160.01,-180.85 186.25,-191 190.55,-192.66 195.02,-194.31 199.53,-195.92"/>
<polygon fill="#63b8ff" stroke="#63b8ff" points="198.08,-199.12 208.68,-199.08 200.37,-192.5 198.08,-199.12"/>
</a>
</g>
</g>
<!-- Node6 -->
<g id="Node000006" class="node">
<title>Node6</title>
<g id="a_Node000006"><a xlink:href="../../d7/d58/group___signal-_funtions.html#ga0d06592356794582b3ad43292227af7a" target="_top" xlink:title="Signal for opening the developer window.">
<polygon fill="white" stroke="#666666" points="343.25,-182 186.25,-182 186.25,-150 343.25,-150 343.25,-182"/>
<text text-anchor="start" x="194.25" y="-168.5" font-family="Helvetica,sans-Serif" font-size="10.00">AposFrontend::LauncherWindow</text>
<text text-anchor="middle" x="264.75" y="-156.5" font-family="Helvetica,sans-Serif" font-size="10.00">::openDevWindow</text>
</a>
</g>
</g>
<!-- Node1&#45;&gt;Node6 -->
<g id="edge5_Node000001_Node000006" class="edge">
<title>Node1&#45;&gt;Node6</title>
<g id="a_edge5_Node000001_Node000006"><a xlink:title=" ">
<path fill="none" stroke="#63b8ff" d="M150.55,-150.92C158.48,-151.97 166.6,-153.05 174.67,-154.13"/>
<polygon fill="#63b8ff" stroke="#63b8ff" points="174.15,-157.59 184.53,-155.44 175.08,-150.65 174.15,-157.59"/>
</a>
</g>
</g>
<!-- Node7 -->
<g id="Node000007" class="node">
<title>Node7</title>
<g id="a_Node000007"><a xlink:href="../../d7/d58/group___signal-_funtions.html#ga75e939cb47b5e6af99153b128c7bd5d6" target="_top" xlink:title="Signal for opening the settings.">
<polygon fill="white" stroke="#666666" points="343.25,-132 186.25,-132 186.25,-100 343.25,-100 343.25,-132"/>
<text text-anchor="start" x="194.25" y="-118.5" font-family="Helvetica,sans-Serif" font-size="10.00">AposFrontend::LauncherWindow</text>
<text text-anchor="middle" x="264.75" y="-106.5" font-family="Helvetica,sans-Serif" font-size="10.00">::openSettings</text>
</a>
</g>
</g>
<!-- Node1&#45;&gt;Node7 -->
<g id="edge6_Node000001_Node000007" class="edge">
<title>Node1&#45;&gt;Node7</title>
<g id="a_edge6_Node000001_Node000007"><a xlink:title=" ">
<path fill="none" stroke="#63b8ff" d="M150.55,-131.08C158.48,-130.03 166.6,-128.95 174.67,-127.87"/>
<polygon fill="#63b8ff" stroke="#63b8ff" points="175.08,-131.35 184.53,-126.56 174.15,-124.41 175.08,-131.35"/>
</a>
</g>
</g>
<!-- Node8 -->
<g id="Node000008" class="node">
<title>Node8</title>
<g id="a_Node000008"><a xlink:href="../../d6/de4/group___ui-_functions.html#gad71663083f50868c2efb568336b50b56" target="_top" xlink:title="Shows the developer window.">
<polygon fill="white" stroke="#666666" points="339.88,-82 189.62,-82 189.62,-50 339.88,-50 339.88,-82"/>
<text text-anchor="start" x="197.62" y="-68.5" font-family="Helvetica,sans-Serif" font-size="10.00">AposFrontend::WindowHandler</text>
<text text-anchor="middle" x="264.75" y="-56.5" font-family="Helvetica,sans-Serif" font-size="10.00">::showDevWindow</text>
</a>
</g>
</g>
<!-- Node1&#45;&gt;Node8 -->
<g id="edge7_Node000001_Node000008" class="edge">
<title>Node1&#45;&gt;Node8</title>
<g id="a_edge7_Node000001_Node000008"><a xlink:title=" ">
<path fill="none" stroke="#63b8ff" d="M109.44,-124.67C131.07,-114.37 160.01,-101.15 186.25,-91 190.55,-89.34 195.02,-87.69 199.53,-86.08"/>
<polygon fill="#63b8ff" stroke="#63b8ff" points="200.37,-89.5 208.68,-82.92 198.08,-82.88 200.37,-89.5"/>
</a>
</g>
</g>
<!-- Node12 -->
<g id="Node000012" class="node">
<title>Node12</title>
<g id="a_Node000012"><a xlink:href="../../d6/de4/group___ui-_functions.html#ga6ab1754f0158c37aabeac6fa84d31f28" target="_top" xlink:title="Shows the settings window.">
<polygon fill="white" stroke="#666666" points="529.5,-32 379.25,-32 379.25,0 529.5,0 529.5,-32"/>
<text text-anchor="start" x="387.25" y="-18.5" font-family="Helvetica,sans-Serif" font-size="10.00">AposFrontend::WindowHandler</text>
<text text-anchor="middle" x="454.38" y="-6.5" font-family="Helvetica,sans-Serif" font-size="10.00">::showSettingsWindow</text>
</a>
</g>
</g>
<!-- Node1&#45;&gt;Node12 -->
<g id="edge12_Node000001_Node000012" class="edge">
<title>Node1&#45;&gt;Node12</title>
<g id="a_edge12_Node000001_Node000012"><a xlink:title=" ">
<path fill="none" stroke="#63b8ff" d="M88.23,-124.75C106.55,-101.57 143.72,-59.75 186.25,-41 243.15,-15.91 313.35,-10.19 367.5,-10.46"/>
<polygon fill="#63b8ff" stroke="#63b8ff" points="367.25,-13.96 377.29,-10.59 367.34,-6.96 367.25,-13.96"/>
</a>
</g>
</g>
<!-- Node4 -->
<g id="Node000004" class="node">
<title>Node4</title>
<g id="a_Node000004"><a xlink:href="../../d6/de4/group___ui-_functions.html#gad12be8738b363edf8803ec140c14989c" target="_top" xlink:title="Changes languages.">
<polygon fill="white" stroke="#666666" points="529.5,-232 379.25,-232 379.25,-200 529.5,-200 529.5,-232"/>
<text text-anchor="start" x="387.25" y="-218.5" font-family="Helvetica,sans-Serif" font-size="10.00">AposFrontend::WindowHandler</text>
<text text-anchor="middle" x="454.38" y="-206.5" font-family="Helvetica,sans-Serif" font-size="10.00">::changeLanguages</text>
</a>
</g>
</g>
<!-- Node3&#45;&gt;Node4 -->
<g id="edge3_Node000003_Node000004" class="edge">
<title>Node3&#45;&gt;Node4</title>
<g id="a_edge3_Node000003_Node000004"><a xlink:title=" ">
<path fill="none" stroke="#63b8ff" d="M340.17,-216C349.17,-216 358.41,-216 367.55,-216"/>
<polygon fill="#63b8ff" stroke="#63b8ff" points="367.53,-219.5 377.53,-216 367.53,-212.5 367.53,-219.5"/>
</a>
</g>
</g>
<!-- Node5 -->
<g id="Node000005" class="node">
<title>Node5</title>
<g id="a_Node000005"><a xlink:href="../../d6/de4/group___ui-_functions.html#ga2190bba57416d43cf8ca3bb812e4aaf7" target="_top" xlink:title="Retranslates the user interface.">
<polygon fill="white" stroke="#666666" points="700.75,-232 565.5,-232 565.5,-200 700.75,-200 700.75,-232"/>
<text text-anchor="start" x="573.5" y="-218.5" font-family="Helvetica,sans-Serif" font-size="10.00">AposFrontend::Translatable</text>
<text text-anchor="middle" x="633.12" y="-206.5" font-family="Helvetica,sans-Serif" font-size="10.00">Window::retranslateUi</text>
</a>
</g>
</g>
<!-- Node4&#45;&gt;Node5 -->
<g id="edge4_Node000004_Node000005" class="edge">
<title>Node4&#45;&gt;Node5</title>
<g id="a_edge4_Node000004_Node000005"><a xlink:title=" ">
<path fill="none" stroke="#63b8ff" d="M529.82,-216C537.68,-216 545.69,-216 553.6,-216"/>
<polygon fill="#63b8ff" stroke="#63b8ff" points="553.56,-219.5 563.56,-216 553.56,-212.5 553.56,-219.5"/>
</a>
</g>
</g>
<!-- Node9 -->
<g id="Node000009" class="node">
<title>Node9</title>
<g id="a_Node000009"><a xlink:href="../../d7/d58/group___signal-_funtions.html#gab1ca9c597770ec6d63a8245b94fb10a9" target="_top" xlink:title="Signal for opening the settings.">
<polygon fill="white" stroke="#666666" points="520.88,-182 387.88,-182 387.88,-150 520.88,-150 520.88,-182"/>
<text text-anchor="start" x="395.88" y="-168.5" font-family="Helvetica,sans-Serif" font-size="10.00">AposFrontend::DevWindow</text>
<text text-anchor="middle" x="454.38" y="-156.5" font-family="Helvetica,sans-Serif" font-size="10.00">::openSettings</text>
</a>
</g>
</g>
<!-- Node8&#45;&gt;Node9 -->
<g id="edge8_Node000008_Node000009" class="edge">
<title>Node8&#45;&gt;Node9</title>
<g id="a_edge8_Node000008_Node000009"><a xlink:title=" ">
<path fill="none" stroke="#63b8ff" d="M328.79,-82.44C333.9,-84.92 338.79,-87.75 343.25,-91 365.39,-107.12 357.22,-124.73 379.25,-141 380.62,-142.01 382.02,-142.98 383.47,-143.91"/>
<polygon fill="#63b8ff" stroke="#63b8ff" points="381.7,-146.93 392.13,-148.79 385.13,-140.83 381.7,-146.93"/>
</a>
</g>
</g>
<!-- Node10 -->
<g id="Node000010" class="node">
<title>Node10</title>
<g id="a_Node000010"><a xlink:href="../../d7/d58/group___signal-_funtions.html#gaa16d604f0aa073808b1466132a301c5b" target="_top" xlink:title="Signal for returning to the launcher.">
<polygon fill="white" stroke="#666666" points="520.88,-132 387.88,-132 387.88,-100 520.88,-100 520.88,-132"/>
<text text-anchor="start" x="395.88" y="-118.5" font-family="Helvetica,sans-Serif" font-size="10.00">AposFrontend::DevWindow</text>
<text text-anchor="middle" x="454.38" y="-106.5" font-family="Helvetica,sans-Serif" font-size="10.00">::returnToLauncher</text>
</a>
</g>
</g>
<!-- Node8&#45;&gt;Node10 -->
<g id="edge9_Node000008_Node000010" class="edge">
<title>Node8&#45;&gt;Node10</title>
<g id="a_edge9_Node000008_Node000010"><a xlink:title=" ">
<path fill="none" stroke="#63b8ff" d="M327.45,-82.44C344.52,-86.99 363.2,-91.97 380.83,-96.67"/>
<polygon fill="#63b8ff" stroke="#63b8ff" points="379.62,-99.97 390.18,-99.16 381.42,-93.2 379.62,-99.97"/>
</a>
</g>
</g>
<!-- Node11 -->
<g id="Node000011" class="node">
<title>Node11</title>
<g id="a_Node000011"><a xlink:href="../../d6/de4/group___ui-_functions.html#ga0ccce4c871b37eb96d2d3df478855277" target="_top" xlink:title="Shows the launcher window.">
<polygon fill="white" stroke="#666666" points="529.5,-82 379.25,-82 379.25,-50 529.5,-50 529.5,-82"/>
<text text-anchor="start" x="387.25" y="-68.5" font-family="Helvetica,sans-Serif" font-size="10.00">AposFrontend::WindowHandler</text>
<text text-anchor="middle" x="454.38" y="-56.5" font-family="Helvetica,sans-Serif" font-size="10.00">::showLaunchWindow</text>
</a>
</g>
</g>
<!-- Node8&#45;&gt;Node11 -->
<g id="edge10_Node000008_Node000011" class="edge">
<title>Node8&#45;&gt;Node11</title>
<g id="a_edge10_Node000008_Node000011"><a xlink:title=" ">
<path fill="none" stroke="#63b8ff" d="M340.17,-66C349.17,-66 358.41,-66 367.55,-66"/>
<polygon fill="#63b8ff" stroke="#63b8ff" points="367.53,-69.5 377.53,-66 367.53,-62.5 367.53,-69.5"/>
</a>
</g>
</g>
<!-- Node8&#45;&gt;Node12 -->
<g id="edge11_Node000008_Node000012" class="edge">
<title>Node8&#45;&gt;Node12</title>
<g id="a_edge11_Node000008_Node000012"><a xlink:title=" ">
<path fill="none" stroke="#63b8ff" d="M327.45,-49.56C344.52,-45.01 363.2,-40.03 380.83,-35.33"/>
<polygon fill="#63b8ff" stroke="#63b8ff" points="381.42,-38.8 390.18,-32.84 379.62,-32.03 381.42,-38.8"/>
</a>
</g>
</g>
</g>
</svg>
