<?xml version="1.0" encoding="UTF-8" standalone="no"?>
<!DOCTYPE svg PUBLIC "-//W3C//DTD SVG 1.1//EN"
 "http://www.w3.org/Graphics/SVG/1.1/DTD/svg11.dtd">
<!-- Generated by graphviz version 9.0.0 (20230911.1827)
 -->
<!-- Title: AposFrontend::SettingsWindow::SettingsWindow Pages: 1 -->
<svg width="919pt" height="187pt"
 viewBox="0.00 0.00 919.00 187.00" xmlns="http://www.w3.org/2000/svg" xmlns:xlink="http://www.w3.org/1999/xlink">
<g id="graph0" class="graph" transform="scale(1 1) rotate(0) translate(4 183)">
<title>AposFrontend::SettingsWindow::SettingsWindow</title>
<!-- Node1 -->
<g id="Node000001" class="node">
<title>Node1</title>
<g id="a_Node000001"><a xlink:title="Constructor for the SettingsWindow class.">
<polygon fill="#999999" stroke="#666666" points="153.25,-98 0,-98 0,-66 153.25,-66 153.25,-98"/>
<text text-anchor="start" x="8" y="-84.5" font-family="Helvetica,sans-Serif" font-size="10.00">AposFrontend::SettingsWindow</text>
<text text-anchor="middle" x="76.62" y="-72.5" font-family="Helvetica,sans-Serif" font-size="10.00">::SettingsWindow</text>
</a>
</g>
</g>
<!-- Node2 -->
<g id="Node000002" class="node">
<title>Node2</title>
<g id="a_Node000002"><a xlink:href="../../d2/df6/class_apos_frontend_1_1_settings_window.html#a501fb0a911cfa4a4b24a2c58ed59428f" target="_top" xlink:title=" ">
<polygon fill="white" stroke="#666666" points="342.5,-98 189.25,-98 189.25,-66 342.5,-66 342.5,-98"/>
<text text-anchor="start" x="197.25" y="-84.5" font-family="Helvetica,sans-Serif" font-size="10.00">AposFrontend::SettingsWindow</text>
<text text-anchor="middle" x="265.88" y="-72.5" font-family="Helvetica,sans-Serif" font-size="10.00">::settingsConnectUi</text>
</a>
</g>
</g>
<!-- Node1&#45;&gt;Node2 -->
<g id="edge1_Node000001_Node000002" class="edge">
<title>Node1&#45;&gt;Node2</title>
<g id="a_edge1_Node000001_Node000002"><a xlink:title=" ">
<path fill="none" stroke="#63b8ff" d="M153.52,-82C161.44,-82 169.54,-82 177.58,-82"/>
<polygon fill="#63b8ff" stroke="#63b8ff" points="177.36,-85.5 187.36,-82 177.36,-78.5 177.36,-85.5"/>
</a>
</g>
</g>
<!-- Node3 -->
<g id="Node000003" class="node">
<title>Node3</title>
<g id="a_Node000003"><a xlink:href="../../d2/df6/class_apos_frontend_1_1_settings_window.html#aa6da7c10b8630bef5645e16d93989327" target="_top" xlink:title=" ">
<polygon fill="white" stroke="#666666" points="532.12,-120 378.88,-120 378.88,-88 532.12,-88 532.12,-120"/>
<text text-anchor="start" x="386.88" y="-106.5" font-family="Helvetica,sans-Serif" font-size="10.00">AposFrontend::SettingsWindow</text>
<text text-anchor="middle" x="455.5" y="-94.5" font-family="Helvetica,sans-Serif" font-size="10.00">::applyAndCloseClicked</text>
</a>
</g>
</g>
<!-- Node2&#45;&gt;Node3 -->
<g id="edge2_Node000002_Node000003" class="edge">
<title>Node2&#45;&gt;Node3</title>
<g id="a_edge2_Node000002_Node000003"><a xlink:title=" ">
<path fill="none" stroke="#63b8ff" d="M342.92,-90.92C350.93,-91.86 359.12,-92.82 367.24,-93.77"/>
<polygon fill="#63b8ff" stroke="#63b8ff" points="366.81,-97.24 377.15,-94.93 367.63,-90.29 366.81,-97.24"/>
</a>
</g>
</g>
<!-- Node4 -->
<g id="Node000004" class="node">
<title>Node4</title>
<g id="a_Node000004"><a xlink:href="../../d8/d33/group___slot-_functions.html#gaf8c51b81640606727dea981bd3ede5ff" target="_top" xlink:title="Slot for the &#39;Apply&#39; button click event.">
<polygon fill="white" stroke="#666666" points="721.75,-154 568.5,-154 568.5,-122 721.75,-122 721.75,-154"/>
<text text-anchor="start" x="576.5" y="-140.5" font-family="Helvetica,sans-Serif" font-size="10.00">AposFrontend::SettingsWindow</text>
<text text-anchor="middle" x="645.12" y="-128.5" font-family="Helvetica,sans-Serif" font-size="10.00">::applyClicked</text>
</a>
</g>
</g>
<!-- Node2&#45;&gt;Node4 -->
<g id="edge7_Node000002_Node000004" class="edge">
<title>Node2&#45;&gt;Node4</title>
<g id="a_edge7_Node000002_Node000004"><a xlink:title=" ">
<path fill="none" stroke="#63b8ff" d="M297.15,-98.32C319.06,-109.22 349.75,-122.69 378.5,-129 437.07,-141.86 504.63,-143.99 556.96,-142.96"/>
<polygon fill="#63b8ff" stroke="#63b8ff" points="556.8,-146.46 566.71,-142.72 556.63,-139.46 556.8,-146.46"/>
</a>
</g>
</g>
<!-- Node7 -->
<g id="Node000007" class="node">
<title>Node7</title>
<g id="a_Node000007"><a xlink:href="../../d8/d33/group___slot-_functions.html#ga561c502efb9484c99cb1d337cf1bf90a" target="_top" xlink:title="Slot for the &#39;Close&#39; button click event.">
<polygon fill="white" stroke="#666666" points="721.75,-95 568.5,-95 568.5,-63 721.75,-63 721.75,-95"/>
<text text-anchor="start" x="576.5" y="-81.5" font-family="Helvetica,sans-Serif" font-size="10.00">AposFrontend::SettingsWindow</text>
<text text-anchor="middle" x="645.12" y="-69.5" font-family="Helvetica,sans-Serif" font-size="10.00">::closeClicked</text>
</a>
</g>
</g>
<!-- Node2&#45;&gt;Node7 -->
<g id="edge8_Node000002_Node000007" class="edge">
<title>Node2&#45;&gt;Node7</title>
<g id="a_edge8_Node000002_Node000007"><a xlink:title=" ">
<path fill="none" stroke="#63b8ff" d="M342.83,-79.68C354.76,-79.4 366.97,-79.15 378.5,-79 437.98,-78.2 504.96,-78.21 556.78,-78.41"/>
<polygon fill="#63b8ff" stroke="#63b8ff" points="556.74,-81.91 566.75,-78.45 556.77,-74.91 556.74,-81.91"/>
</a>
</g>
</g>
<!-- Node8 -->
<g id="Node000008" class="node">
<title>Node8</title>
<g id="a_Node000008"><a xlink:href="../../d8/d33/group___slot-_functions.html#gac3ddae8dd71cc05c8149e6f605f6e058" target="_top" xlink:title="Slot for the &#39;Language&#39; combo box index change event.">
<polygon fill="white" stroke="#666666" points="532.5,-32 378.5,-32 378.5,0 532.5,0 532.5,-32"/>
<text text-anchor="start" x="386.5" y="-18.5" font-family="Helvetica,sans-Serif" font-size="10.00">AposFrontend::SettingsWindow</text>
<text text-anchor="middle" x="455.5" y="-6.5" font-family="Helvetica,sans-Serif" font-size="10.00">::languageCurrentIndexChanged</text>
</a>
</g>
</g>
<!-- Node2&#45;&gt;Node8 -->
<g id="edge9_Node000002_Node000008" class="edge">
<title>Node2&#45;&gt;Node8</title>
<g id="a_edge9_Node000002_Node000008"><a xlink:title=" ">
<path fill="none" stroke="#63b8ff" d="M313.74,-65.52C339.02,-56.62 370.43,-45.57 397.16,-36.17"/>
<polygon fill="#63b8ff" stroke="#63b8ff" points="398.21,-39.51 406.48,-32.89 395.89,-32.91 398.21,-39.51"/>
</a>
</g>
</g>
<!-- Node3&#45;&gt;Node4 -->
<g id="edge3_Node000003_Node000004" class="edge">
<title>Node3&#45;&gt;Node4</title>
<g id="a_edge3_Node000003_Node000004"><a xlink:title=" ">
<path fill="none" stroke="#63b8ff" d="M532.54,-117.78C540.64,-119.25 548.93,-120.75 557.14,-122.24"/>
<polygon fill="#63b8ff" stroke="#63b8ff" points="556.32,-125.65 566.79,-123.99 557.57,-118.76 556.32,-125.65"/>
</a>
</g>
</g>
<!-- Node3&#45;&gt;Node7 -->
<g id="edge6_Node000003_Node000007" class="edge">
<title>Node3&#45;&gt;Node7</title>
<g id="a_edge6_Node000003_Node000007"><a xlink:title=" ">
<path fill="none" stroke="#63b8ff" d="M532.54,-93.87C540.64,-92.79 548.93,-91.68 557.14,-90.59"/>
<polygon fill="#63b8ff" stroke="#63b8ff" points="557.33,-94.1 566.78,-89.31 556.4,-87.16 557.33,-94.1"/>
</a>
</g>
</g>
<!-- Node5 -->
<g id="Node000005" class="node">
<title>Node5</title>
<g id="a_Node000005"><a xlink:href="../../d7/d58/group___signal-_funtions.html#gaa502afe63303465922a81ff95f482b8e" target="_top" xlink:title="Signal for applying settings.">
<polygon fill="white" stroke="#666666" points="911,-179 757.75,-179 757.75,-147 911,-147 911,-179"/>
<text text-anchor="start" x="765.75" y="-165.5" font-family="Helvetica,sans-Serif" font-size="10.00">AposFrontend::SettingsWindow</text>
<text text-anchor="middle" x="834.38" y="-153.5" font-family="Helvetica,sans-Serif" font-size="10.00">::appliedSettings</text>
</a>
</g>
</g>
<!-- Node4&#45;&gt;Node5 -->
<g id="edge4_Node000004_Node000005" class="edge">
<title>Node4&#45;&gt;Node5</title>
<g id="a_edge4_Node000004_Node000005"><a xlink:title=" ">
<path fill="none" stroke="#63b8ff" d="M722.02,-148.13C729.94,-149.19 738.04,-150.27 746.08,-151.34"/>
<polygon fill="#63b8ff" stroke="#63b8ff" points="745.5,-154.8 755.87,-152.65 746.43,-147.86 745.5,-154.8"/>
</a>
</g>
</g>
<!-- Node6 -->
<g id="Node000006" class="node">
<title>Node6</title>
<g id="a_Node000006"><a xlink:href="../../de/dc6/group___initialization.html#ga49b8895cc4133ac81bd799854b3515b6" target="_top" xlink:title="Installs the application&#39;s translator.">
<polygon fill="white" stroke="#666666" points="911,-129 757.75,-129 757.75,-97 911,-97 911,-129"/>
<text text-anchor="start" x="765.75" y="-115.5" font-family="Helvetica,sans-Serif" font-size="10.00">AposFrontend::SettingsWindow</text>
<text text-anchor="middle" x="834.38" y="-103.5" font-family="Helvetica,sans-Serif" font-size="10.00">::installTranslator</text>
</a>
</g>
</g>
<!-- Node4&#45;&gt;Node6 -->
<g id="edge5_Node000004_Node000006" class="edge">
<title>Node4&#45;&gt;Node6</title>
<g id="a_edge5_Node000004_Node000006"><a xlink:title=" ">
<path fill="none" stroke="#63b8ff" d="M722.02,-127.87C729.94,-126.81 738.04,-125.73 746.08,-124.66"/>
<polygon fill="#63b8ff" stroke="#63b8ff" points="746.43,-128.14 755.87,-123.35 745.5,-121.2 746.43,-128.14"/>
</a>
</g>
</g>
</g>
</svg>
