<?xml version="1.0" encoding="UTF-8" standalone="no"?>
<!DOCTYPE svg PUBLIC "-//W3C//DTD SVG 1.1//EN"
 "http://www.w3.org/Graphics/SVG/1.1/DTD/svg11.dtd">
<!-- Generated by graphviz version 9.0.0 (20230911.1827)
 -->
<!-- Title: AposFrontend::LauncherWindow::LauncherWindow Pages: 1 -->
<svg width="744pt" height="90pt"
 viewBox="0.00 0.00 744.00 90.00" xmlns="http://www.w3.org/2000/svg" xmlns:xlink="http://www.w3.org/1999/xlink">
<g id="graph0" class="graph" transform="scale(1 1) rotate(0) translate(4 86)">
<title>AposFrontend::LauncherWindow::LauncherWindow</title>
<!-- Node1 -->
<g id="Node000001" class="node">
<title>Node1</title>
<g id="a_Node000001"><a xlink:title="Constructor for the LauncherWindow class.">
<polygon fill="#999999" stroke="#666666" points="157,-57 0,-57 0,-25 157,-25 157,-57"/>
<text text-anchor="start" x="8" y="-43.5" font-family="Helvetica,sans-Serif" font-size="10.00">AposFrontend::LauncherWindow</text>
<text text-anchor="middle" x="78.5" y="-31.5" font-family="Helvetica,sans-Serif" font-size="10.00">::LauncherWindow</text>
</a>
</g>
</g>
<!-- Node2 -->
<g id="Node000002" class="node">
<title>Node2</title>
<g id="a_Node000002"><a xlink:href="../../da/d2e/class_apos_frontend_1_1_launcher_window.html#ae1983d72ca64b6600ee8b0651fb412fc" target="_top" xlink:title=" ">
<polygon fill="white" stroke="#666666" points="350,-57 193,-57 193,-25 350,-25 350,-57"/>
<text text-anchor="start" x="201" y="-43.5" font-family="Helvetica,sans-Serif" font-size="10.00">AposFrontend::LauncherWindow</text>
<text text-anchor="middle" x="271.5" y="-31.5" font-family="Helvetica,sans-Serif" font-size="10.00">::launcherConnectUi</text>
</a>
</g>
</g>
<!-- Node1&#45;&gt;Node2 -->
<g id="edge1_Node000001_Node000002" class="edge">
<title>Node1&#45;&gt;Node2</title>
<g id="a_edge1_Node000001_Node000002"><a xlink:title=" ">
<path fill="none" stroke="#63b8ff" d="M157.46,-41C165.39,-41 173.47,-41 181.5,-41"/>
<polygon fill="#63b8ff" stroke="#63b8ff" points="181.27,-44.5 191.27,-41 181.27,-37.5 181.27,-44.5"/>
</a>
</g>
</g>
<!-- Node3 -->
<g id="Node000003" class="node">
<title>Node3</title>
<g id="a_Node000003"><a xlink:href="../../d8/d33/group___slot-_functions.html#gab825d6fc24f308db7d35b33ca73b2cdf" target="_top" xlink:title="Slot for the &#39;PushButton&#39; button click event.">
<polygon fill="white" stroke="#666666" points="543,-82 386,-82 386,-50 543,-50 543,-82"/>
<text text-anchor="start" x="394" y="-68.5" font-family="Helvetica,sans-Serif" font-size="10.00">AposFrontend::LauncherWindow</text>
<text text-anchor="middle" x="464.5" y="-56.5" font-family="Helvetica,sans-Serif" font-size="10.00">::showSettingsClicked</text>
</a>
</g>
</g>
<!-- Node2&#45;&gt;Node3 -->
<g id="edge2_Node000002_Node000003" class="edge">
<title>Node2&#45;&gt;Node3</title>
<g id="a_edge2_Node000002_Node000003"><a xlink:title=" ">
<path fill="none" stroke="#63b8ff" d="M350.46,-51.2C358.39,-52.24 366.47,-53.3 374.5,-54.35"/>
<polygon fill="#63b8ff" stroke="#63b8ff" points="373.92,-57.8 384.29,-55.63 374.82,-50.86 373.92,-57.8"/>
</a>
</g>
</g>
<!-- Node5 -->
<g id="Node000005" class="node">
<title>Node5</title>
<g id="a_Node000005"><a xlink:href="../../d8/d33/group___slot-_functions.html#gaba4f6584c940222b5f4e849005518ce9" target="_top" xlink:title="Slot for the &#39;ShowDev&#39; button click event.">
<polygon fill="white" stroke="#666666" points="543,-32 386,-32 386,0 543,0 543,-32"/>
<text text-anchor="start" x="394" y="-18.5" font-family="Helvetica,sans-Serif" font-size="10.00">AposFrontend::LauncherWindow</text>
<text text-anchor="middle" x="464.5" y="-6.5" font-family="Helvetica,sans-Serif" font-size="10.00">::showDevClicked</text>
</a>
</g>
</g>
<!-- Node2&#45;&gt;Node5 -->
<g id="edge4_Node000002_Node000005" class="edge">
<title>Node2&#45;&gt;Node5</title>
<g id="a_edge4_Node000002_Node000005"><a xlink:title=" ">
<path fill="none" stroke="#63b8ff" d="M350.46,-30.8C358.39,-29.76 366.47,-28.7 374.5,-27.65"/>
<polygon fill="#63b8ff" stroke="#63b8ff" points="374.82,-31.14 384.29,-26.37 373.92,-24.2 374.82,-31.14"/>
</a>
</g>
</g>
<!-- Node4 -->
<g id="Node000004" class="node">
<title>Node4</title>
<g id="a_Node000004"><a xlink:href="../../d7/d58/group___signal-_funtions.html#ga75e939cb47b5e6af99153b128c7bd5d6" target="_top" xlink:title="Signal for opening the settings.">
<polygon fill="white" stroke="#666666" points="736,-82 579,-82 579,-50 736,-50 736,-82"/>
<text text-anchor="start" x="587" y="-68.5" font-family="Helvetica,sans-Serif" font-size="10.00">AposFrontend::LauncherWindow</text>
<text text-anchor="middle" x="657.5" y="-56.5" font-family="Helvetica,sans-Serif" font-size="10.00">::openSettings</text>
</a>
</g>
</g>
<!-- Node3&#45;&gt;Node4 -->
<g id="edge3_Node000003_Node000004" class="edge">
<title>Node3&#45;&gt;Node4</title>
<g id="a_edge3_Node000003_Node000004"><a xlink:title=" ">
<path fill="none" stroke="#63b8ff" d="M543.46,-66C551.39,-66 559.47,-66 567.5,-66"/>
<polygon fill="#63b8ff" stroke="#63b8ff" points="567.27,-69.5 577.27,-66 567.27,-62.5 567.27,-69.5"/>
</a>
</g>
</g>
<!-- Node6 -->
<g id="Node000006" class="node">
<title>Node6</title>
<g id="a_Node000006"><a xlink:href="../../d7/d58/group___signal-_funtions.html#ga0d06592356794582b3ad43292227af7a" target="_top" xlink:title="Signal for opening the developer window.">
<polygon fill="white" stroke="#666666" points="736,-32 579,-32 579,0 736,0 736,-32"/>
<text text-anchor="start" x="587" y="-18.5" font-family="Helvetica,sans-Serif" font-size="10.00">AposFrontend::LauncherWindow</text>
<text text-anchor="middle" x="657.5" y="-6.5" font-family="Helvetica,sans-Serif" font-size="10.00">::openDevWindow</text>
</a>
</g>
</g>
<!-- Node5&#45;&gt;Node6 -->
<g id="edge5_Node000005_Node000006" class="edge">
<title>Node5&#45;&gt;Node6</title>
<g id="a_edge5_Node000005_Node000006"><a xlink:title=" ">
<path fill="none" stroke="#63b8ff" d="M543.46,-16C551.39,-16 559.47,-16 567.5,-16"/>
<polygon fill="#63b8ff" stroke="#63b8ff" points="567.27,-19.5 577.27,-16 567.27,-12.5 567.27,-19.5"/>
</a>
</g>
</g>
</g>
</svg>
