<?xml version="1.0" encoding="UTF-8" standalone="no"?>
<!DOCTYPE svg PUBLIC "-//W3C//DTD SVG 1.1//EN"
 "http://www.w3.org/Graphics/SVG/1.1/DTD/svg11.dtd">
<!-- Generated by graphviz version 9.0.0 (20230911.1827)
 -->
<!-- Title: SettingsWindow::on_inApply_clicked Pages: 1 -->
<svg width="308pt" height="66pt"
 viewBox="0.00 0.00 307.75 66.00" xmlns="http://www.w3.org/2000/svg" xmlns:xlink="http://www.w3.org/1999/xlink">
<g id="graph0" class="graph" transform="scale(1 1) rotate(0) translate(4 62)">
<title>SettingsWindow::on_inApply_clicked</title>
<!-- Node1 -->
<g id="Node000001" class="node">
<title>Node1</title>
<g id="a_Node000001"><a xlink:title=" ">
<polygon fill="#999999" stroke="#666666" points="103,-45 0,-45 0,-13 103,-13 103,-45"/>
<text text-anchor="start" x="8" y="-31.5" font-family="Helvetica,sans-Serif" font-size="10.00">SettingsWindow::on</text>
<text text-anchor="middle" x="51.5" y="-19.5" font-family="Helvetica,sans-Serif" font-size="10.00">_inApply_clicked</text>
</a>
</g>
</g>
<!-- Node2 -->
<g id="Node000002" class="node">
<title>Node2</title>
<g id="a_Node000002"><a xlink:href="../../de/d9e/class_settings_window.html#ad60370672d08fd3f5318abfbc14ecd8f" target="_top" xlink:title=" ">
<polygon fill="white" stroke="#666666" points="299,-58 139.75,-58 139.75,-38 299,-38 299,-58"/>
<text text-anchor="middle" x="219.38" y="-44.5" font-family="Helvetica,sans-Serif" font-size="10.00">SettingsWindow::appliedSettings</text>
</a>
</g>
</g>
<!-- Node1&#45;&gt;Node2 -->
<g id="edge1_Node000001_Node000002" class="edge">
<title>Node1&#45;&gt;Node2</title>
<g id="a_edge1_Node000001_Node000002"><a xlink:title=" ">
<path fill="none" stroke="#63b8ff" d="M103.17,-34.8C111.12,-35.71 119.54,-36.68 128.06,-37.65"/>
<polygon fill="#63b8ff" stroke="#63b8ff" points="127.46,-41.11 137.79,-38.77 128.25,-34.15 127.46,-41.11"/>
</a>
</g>
</g>
<!-- Node3 -->
<g id="Node000003" class="node">
<title>Node3</title>
<g id="a_Node000003"><a xlink:href="../../de/d9e/class_settings_window.html#afa9884fc05c97f706b453c1b51167e11" target="_top" xlink:title=" ">
<polygon fill="white" stroke="#666666" points="299.75,-20 139,-20 139,0 299.75,0 299.75,-20"/>
<text text-anchor="middle" x="219.38" y="-6.5" font-family="Helvetica,sans-Serif" font-size="10.00">SettingsWindow::installTranslator</text>
</a>
</g>
</g>
<!-- Node1&#45;&gt;Node3 -->
<g id="edge2_Node000001_Node000003" class="edge">
<title>Node1&#45;&gt;Node3</title>
<g id="a_edge2_Node000001_Node000003"><a xlink:title=" ">
<path fill="none" stroke="#63b8ff" d="M103.17,-23.2C110.9,-22.31 119.07,-21.37 127.35,-20.43"/>
<polygon fill="#63b8ff" stroke="#63b8ff" points="127.64,-23.92 137.18,-19.3 126.84,-16.96 127.64,-23.92"/>
</a>
</g>
</g>
</g>
</svg>
