<?xml version="1.0" encoding="UTF-8" standalone="no"?>
<!DOCTYPE svg PUBLIC "-//W3C//DTD SVG 1.1//EN"
 "http://www.w3.org/Graphics/SVG/1.1/DTD/svg11.dtd">
<!-- Generated by graphviz version 9.0.0 (20230911.1827)
 -->
<!-- Title: SettingsWindow::appliedSettings Pages: 1 -->
<svg width="360pt" height="78pt"
 viewBox="0.00 0.00 360.25 78.00" xmlns="http://www.w3.org/2000/svg" xmlns:xlink="http://www.w3.org/1999/xlink">
<g id="graph0" class="graph" transform="scale(1 1) rotate(0) translate(4 74)">
<title>SettingsWindow::appliedSettings</title>
<!-- Node1 -->
<g id="Node000001" class="node">
<title>Node1</title>
<g id="a_Node000001"><a xlink:title=" ">
<polygon fill="#999999" stroke="#666666" points="352.25,-42 193,-42 193,-22 352.25,-22 352.25,-42"/>
<text text-anchor="middle" x="272.62" y="-28.5" font-family="Helvetica,sans-Serif" font-size="10.00">SettingsWindow::appliedSettings</text>
</a>
</g>
</g>
<!-- Node2 -->
<g id="Node000002" class="node">
<title>Node2</title>
<g id="a_Node000002"><a xlink:href="../../de/d9e/class_settings_window.html#a62b9a4c1ec8a234801b2dd43fd708413" target="_top" xlink:title=" ">
<polygon fill="white" stroke="#666666" points="130,-70 27,-70 27,-38 130,-38 130,-70"/>
<text text-anchor="start" x="35" y="-56.5" font-family="Helvetica,sans-Serif" font-size="10.00">SettingsWindow::on</text>
<text text-anchor="middle" x="78.5" y="-44.5" font-family="Helvetica,sans-Serif" font-size="10.00">_inApply_clicked</text>
</a>
</g>
</g>
<!-- Node1&#45;&gt;Node2 -->
<g id="edge1_Node000001_Node000002" class="edge">
<title>Node1&#45;&gt;Node2</title>
<g id="a_edge1_Node000001_Node000002"><a xlink:title=" ">
<path fill="none" stroke="#63b8ff" d="M181.24,-42.35C163.78,-44.35 146.08,-46.38 130.43,-48.17"/>
<polygon fill="#63b8ff" stroke="#63b8ff" points="181.61,-45.83 191.14,-41.22 180.81,-38.88 181.61,-45.83"/>
</a>
</g>
</g>
<!-- Node3 -->
<g id="Node000003" class="node">
<title>Node3</title>
<g id="a_Node000003"><a xlink:href="../../d5/d61/class_window_handler.html#adf32b0851c5df8d24cc2c74775e4b94d" target="_top" xlink:title=" ">
<polygon fill="white" stroke="#666666" points="157,-20 0,-20 0,0 157,0 157,-20"/>
<text text-anchor="middle" x="78.5" y="-6.5" font-family="Helvetica,sans-Serif" font-size="10.00">WindowHandler::WindowHandler</text>
</a>
</g>
</g>
<!-- Node1&#45;&gt;Node3 -->
<g id="edge2_Node000001_Node000003" class="edge">
<title>Node1&#45;&gt;Node3</title>
<g id="a_edge2_Node000001_Node000003"><a xlink:title=" ">
<path fill="none" stroke="#63b8ff" d="M181.33,-21.66C173.28,-20.74 165.17,-19.81 157.24,-18.9"/>
<polygon fill="#63b8ff" stroke="#63b8ff" points="180.81,-25.12 191.14,-22.78 181.61,-18.17 180.81,-25.12"/>
</a>
</g>
</g>
</g>
</svg>
