<?xml version="1.0" encoding="UTF-8" standalone="no"?>
<!DOCTYPE svg PUBLIC "-//W3C//DTD SVG 1.1//EN"
 "http://www.w3.org/Graphics/SVG/1.1/DTD/svg11.dtd">
<!-- Generated by graphviz version 9.0.0 (20230911.1827)
 -->
<!-- Title: C:/Users/Clean/Documents/Projekte/Apos&#45;DatabaseManager/Project/classes/backendClasses/objecthandler.hpp Pages: 1 -->
<svg width="379pt" height="188pt"
 viewBox="0.00 0.00 378.54 188.00" xmlns="http://www.w3.org/2000/svg" xmlns:xlink="http://www.w3.org/1999/xlink">
<g id="graph0" class="graph" transform="scale(1 1) rotate(0) translate(4 184)">
<title>C:/Users/Clean/Documents/Projekte/Apos&#45;DatabaseManager/Project/classes/backendClasses/objecthandler.hpp</title>
<!-- Node1 -->
<g id="Node000001" class="node">
<title>Node1</title>
<g id="a_Node000001"><a xlink:title=" ">
<polygon fill="#999999" stroke="#666666" points="258.88,-180 96.62,-180 96.62,-124 258.88,-124 258.88,-180"/>
<text text-anchor="start" x="104.62" y="-166.5" font-family="Helvetica,sans-Serif" font-size="10.00">C:/Users/Clean/Documents</text>
<text text-anchor="start" x="104.62" y="-154.5" font-family="Helvetica,sans-Serif" font-size="10.00">/Projekte/Apos&#45;DatabaseManager</text>
<text text-anchor="start" x="104.62" y="-142.5" font-family="Helvetica,sans-Serif" font-size="10.00">/Project/classes/backendClasses</text>
<text text-anchor="middle" x="177.75" y="-130.5" font-family="Helvetica,sans-Serif" font-size="10.00">/objecthandler.hpp</text>
</a>
</g>
</g>
<!-- Node2 -->
<g id="Node000002" class="node">
<title>Node2</title>
<g id="a_Node000002"><a xlink:title=" ">
<polygon fill="#e0e0e0" stroke="#999999" points="71.5,-82 0,-82 0,-62 71.5,-62 71.5,-82"/>
<text text-anchor="middle" x="35.75" y="-68.5" font-family="Helvetica,sans-Serif" font-size="10.00">QApplication</text>
</a>
</g>
</g>
<!-- Node1&#45;&gt;Node2 -->
<g id="edge1_Node000001_Node000002" class="edge">
<title>Node1&#45;&gt;Node2</title>
<g id="a_edge1_Node000001_Node000002"><a xlink:title=" ">
<path fill="none" stroke="#63b8ff" d="M127.69,-123.5C105.93,-111.55 81.28,-98.01 62.99,-87.96"/>
<polygon fill="#63b8ff" stroke="#63b8ff" points="64.8,-84.97 54.35,-83.22 61.43,-91.1 64.8,-84.97"/>
</a>
</g>
</g>
<!-- Node3 -->
<g id="Node000003" class="node">
<title>Node3</title>
<g id="a_Node000003"><a xlink:title=" ">
<polygon fill="#e0e0e0" stroke="#999999" points="203.38,-20 152.12,-20 152.12,0 203.38,0 203.38,-20"/>
<text text-anchor="middle" x="177.75" y="-6.5" font-family="Helvetica,sans-Serif" font-size="10.00">QDebug</text>
</a>
</g>
</g>
<!-- Node1&#45;&gt;Node3 -->
<g id="edge2_Node000001_Node000003" class="edge">
<title>Node1&#45;&gt;Node3</title>
<g id="a_edge2_Node000001_Node000003"><a xlink:title=" ">
<path fill="none" stroke="#63b8ff" d="M143.61,-123.61C133.66,-113.58 124.04,-101.38 118.75,-88 113.52,-74.77 112.44,-68.75 118.75,-56 124.94,-43.5 136.45,-33.52 147.67,-26.17"/>
<polygon fill="#63b8ff" stroke="#63b8ff" points="149.24,-29.31 156.02,-21.17 145.64,-23.31 149.24,-29.31"/>
</a>
</g>
</g>
<!-- Node4 -->
<g id="Node000004" class="node">
<title>Node4</title>
<g id="a_Node000004"><a xlink:title=" ">
<polygon fill="#e0e0e0" stroke="#999999" points="321.12,-20 280.38,-20 280.38,0 321.12,0 321.12,-20"/>
<text text-anchor="middle" x="300.75" y="-6.5" font-family="Helvetica,sans-Serif" font-size="10.00">QtSql</text>
</a>
</g>
</g>
<!-- Node1&#45;&gt;Node4 -->
<g id="edge3_Node000001_Node000004" class="edge">
<title>Node1&#45;&gt;Node4</title>
<g id="a_edge3_Node000001_Node000004"><a xlink:title=" ">
<path fill="none" stroke="#63b8ff" d="M259.22,-144.91C297.82,-137.45 340.67,-121.53 364.75,-88 373.05,-76.45 371.3,-68.62 364.75,-56 357.64,-42.3 344.23,-31.9 331.52,-24.57"/>
<polygon fill="#63b8ff" stroke="#63b8ff" points="333.42,-21.61 322.94,-20.04 330.16,-27.8 333.42,-21.61"/>
</a>
</g>
</g>
<!-- Node5 -->
<g id="Node000005" class="node">
<title>Node5</title>
<g id="a_Node000005"><a xlink:href="../../de/d60/databasehandler_8hpp.html" target="_top" xlink:title=" ">
<polygon fill="white" stroke="#666666" points="355.25,-88 246.25,-88 246.25,-56 355.25,-56 355.25,-88"/>
<text text-anchor="start" x="254.25" y="-74.5" font-family="Helvetica,sans-Serif" font-size="10.00">../databaseClasses</text>
<text text-anchor="middle" x="300.75" y="-62.5" font-family="Helvetica,sans-Serif" font-size="10.00">/databasehandler.hpp</text>
</a>
</g>
</g>
<!-- Node1&#45;&gt;Node5 -->
<g id="edge4_Node000001_Node000005" class="edge">
<title>Node1&#45;&gt;Node5</title>
<g id="a_edge4_Node000001_Node000005"><a xlink:title=" ">
<path fill="none" stroke="#63b8ff" d="M221.12,-123.5C236.18,-113.95 252.83,-103.39 267,-94.4"/>
<polygon fill="#63b8ff" stroke="#63b8ff" points="268.51,-97.59 275.08,-89.28 264.76,-91.68 268.51,-97.59"/>
</a>
</g>
</g>
<!-- Node6 -->
<g id="Node000006" class="node">
<title>Node6</title>
<g id="a_Node000006"><a xlink:href="../../df/d46/tablehandler_8hpp.html" target="_top" xlink:title=" ">
<polygon fill="white" stroke="#666666" points="227.75,-88 127.75,-88 127.75,-56 227.75,-56 227.75,-88"/>
<text text-anchor="start" x="135.75" y="-74.5" font-family="Helvetica,sans-Serif" font-size="10.00">../databaseClasses</text>
<text text-anchor="middle" x="177.75" y="-62.5" font-family="Helvetica,sans-Serif" font-size="10.00">/tablehandler.hpp</text>
</a>
</g>
</g>
<!-- Node1&#45;&gt;Node6 -->
<g id="edge7_Node000001_Node000006" class="edge">
<title>Node1&#45;&gt;Node6</title>
<g id="a_edge7_Node000001_Node000006"><a xlink:title=" ">
<path fill="none" stroke="#63b8ff" d="M177.75,-123.72C177.75,-115.88 177.75,-107.34 177.75,-99.54"/>
<polygon fill="#63b8ff" stroke="#63b8ff" points="181.25,-99.62 177.75,-89.62 174.25,-99.62 181.25,-99.62"/>
</a>
</g>
</g>
<!-- Node5&#45;&gt;Node3 -->
<g id="edge5_Node000005_Node000003" class="edge">
<title>Node5&#45;&gt;Node3</title>
<g id="a_edge5_Node000005_Node000003"><a xlink:title=" ">
<path fill="none" stroke="#63b8ff" d="M269.07,-55.55C250.03,-46.26 225.96,-34.52 207.31,-25.42"/>
<polygon fill="#63b8ff" stroke="#63b8ff" points="208.92,-22.31 198.4,-21.07 205.85,-28.6 208.92,-22.31"/>
</a>
</g>
</g>
<!-- Node5&#45;&gt;Node4 -->
<g id="edge6_Node000005_Node000004" class="edge">
<title>Node5&#45;&gt;Node4</title>
<g id="a_edge6_Node000005_Node000004"><a xlink:title=" ">
<path fill="none" stroke="#63b8ff" d="M300.75,-55.55C300.75,-48.34 300.75,-39.66 300.75,-31.88"/>
<polygon fill="#63b8ff" stroke="#63b8ff" points="304.25,-31.92 300.75,-21.92 297.25,-31.92 304.25,-31.92"/>
</a>
</g>
</g>
<!-- Node6&#45;&gt;Node3 -->
<g id="edge8_Node000006_Node000003" class="edge">
<title>Node6&#45;&gt;Node3</title>
<g id="a_edge8_Node000006_Node000003"><a xlink:title=" ">
<path fill="none" stroke="#63b8ff" d="M177.75,-55.55C177.75,-48.34 177.75,-39.66 177.75,-31.88"/>
<polygon fill="#63b8ff" stroke="#63b8ff" points="181.25,-31.92 177.75,-21.92 174.25,-31.92 181.25,-31.92"/>
</a>
</g>
</g>
<!-- Node6&#45;&gt;Node4 -->
<g id="edge9_Node000006_Node000004" class="edge">
<title>Node6&#45;&gt;Node4</title>
<g id="a_edge9_Node000006_Node000004"><a xlink:title=" ">
<path fill="none" stroke="#63b8ff" d="M209.43,-55.55C228.47,-46.26 252.54,-34.52 271.19,-25.42"/>
<polygon fill="#63b8ff" stroke="#63b8ff" points="272.65,-28.6 280.1,-21.07 269.58,-22.31 272.65,-28.6"/>
</a>
</g>
</g>
</g>
</svg>
