<?xml version="1.0" encoding="UTF-8" standalone="no"?>
<!DOCTYPE svg PUBLIC "-//W3C//DTD SVG 1.1//EN"
 "http://www.w3.org/Graphics/SVG/1.1/DTD/svg11.dtd">
<!-- Generated by graphviz version 9.0.0 (20230911.1827)
 -->
<!-- Title: C:/Users/Clean/Documents/Projekte/Apos&#45;DatabaseManager/Project/classes/frontendClasses/devwindow.hpp Pages: 1 -->
<svg width="440pt" height="248pt"
 viewBox="0.00 0.00 440.25 248.00" xmlns="http://www.w3.org/2000/svg" xmlns:xlink="http://www.w3.org/1999/xlink">
<g id="graph0" class="graph" transform="scale(1 1) rotate(0) translate(4 244)">
<title>C:/Users/Clean/Documents/Projekte/Apos&#45;DatabaseManager/Project/classes/frontendClasses/devwindow.hpp</title>
<!-- Node1 -->
<g id="Node000001" class="node">
<title>Node1</title>
<g id="a_Node000001"><a xlink:title="Header file for the DevWindow class.">
<polygon fill="#999999" stroke="#666666" points="252.25,-240 90,-240 90,-184 252.25,-184 252.25,-240"/>
<text text-anchor="start" x="98" y="-226.5" font-family="Helvetica,sans-Serif" font-size="10.00">C:/Users/Clean/Documents</text>
<text text-anchor="start" x="98" y="-214.5" font-family="Helvetica,sans-Serif" font-size="10.00">/Projekte/Apos&#45;DatabaseManager</text>
<text text-anchor="start" x="98" y="-202.5" font-family="Helvetica,sans-Serif" font-size="10.00">/Project/classes/frontendClasses</text>
<text text-anchor="middle" x="171.12" y="-190.5" font-family="Helvetica,sans-Serif" font-size="10.00">/devwindow.hpp</text>
</a>
</g>
</g>
<!-- Node2 -->
<g id="Node000002" class="node">
<title>Node2</title>
<g id="a_Node000002"><a xlink:href="../../d1/d87/devwindow_8cpp.html" target="_top" xlink:title="Source file for the DevWindow class.">
<polygon fill="white" stroke="#666666" points="162.25,-148 0,-148 0,-92 162.25,-92 162.25,-148"/>
<text text-anchor="start" x="8" y="-134.5" font-family="Helvetica,sans-Serif" font-size="10.00">C:/Users/Clean/Documents</text>
<text text-anchor="start" x="8" y="-122.5" font-family="Helvetica,sans-Serif" font-size="10.00">/Projekte/Apos&#45;DatabaseManager</text>
<text text-anchor="start" x="8" y="-110.5" font-family="Helvetica,sans-Serif" font-size="10.00">/Project/classes/frontendClasses</text>
<text text-anchor="middle" x="81.12" y="-98.5" font-family="Helvetica,sans-Serif" font-size="10.00">/devwindow.cpp</text>
</a>
</g>
</g>
<!-- Node1&#45;&gt;Node2 -->
<g id="edge1_Node000001_Node000002" class="edge">
<title>Node1&#45;&gt;Node2</title>
<g id="a_edge1_Node000001_Node000002"><a xlink:title=" ">
<path fill="none" stroke="#63b8ff" d="M135.55,-175.42C126.53,-166.4 116.98,-156.86 108.45,-148.32"/>
<polygon fill="#63b8ff" stroke="#63b8ff" points="133.02,-177.84 142.56,-182.44 137.97,-172.89 133.02,-177.84"/>
</a>
</g>
</g>
<!-- Node3 -->
<g id="Node000003" class="node">
<title>Node3</title>
<g id="a_Node000003"><a xlink:href="../../da/d25/windowhandler_8hpp.html" target="_top" xlink:title="Header file for the WindowHandler class.">
<polygon fill="white" stroke="#666666" points="342.25,-148 180,-148 180,-92 342.25,-92 342.25,-148"/>
<text text-anchor="start" x="188" y="-134.5" font-family="Helvetica,sans-Serif" font-size="10.00">C:/Users/Clean/Documents</text>
<text text-anchor="start" x="188" y="-122.5" font-family="Helvetica,sans-Serif" font-size="10.00">/Projekte/Apos&#45;DatabaseManager</text>
<text text-anchor="start" x="188" y="-110.5" font-family="Helvetica,sans-Serif" font-size="10.00">/Project/classes/frontendClasses</text>
<text text-anchor="middle" x="261.12" y="-98.5" font-family="Helvetica,sans-Serif" font-size="10.00">/windowhandler.hpp</text>
</a>
</g>
</g>
<!-- Node1&#45;&gt;Node3 -->
<g id="edge2_Node000001_Node000003" class="edge">
<title>Node1&#45;&gt;Node3</title>
<g id="a_edge2_Node000001_Node000003"><a xlink:title=" ">
<path fill="none" stroke="#63b8ff" d="M206.7,-175.42C215.72,-166.4 225.27,-156.86 233.8,-148.32"/>
<polygon fill="#63b8ff" stroke="#63b8ff" points="204.28,-172.89 199.69,-182.44 209.23,-177.84 204.28,-172.89"/>
</a>
</g>
</g>
<!-- Node4 -->
<g id="Node000004" class="node">
<title>Node4</title>
<g id="a_Node000004"><a xlink:href="../../d0/d1d/windowhandler_8cpp.html" target="_top" xlink:title="Source file for the WindowHandler class.">
<polygon fill="white" stroke="#666666" points="252.25,-56 90,-56 90,0 252.25,0 252.25,-56"/>
<text text-anchor="start" x="98" y="-42.5" font-family="Helvetica,sans-Serif" font-size="10.00">C:/Users/Clean/Documents</text>
<text text-anchor="start" x="98" y="-30.5" font-family="Helvetica,sans-Serif" font-size="10.00">/Projekte/Apos&#45;DatabaseManager</text>
<text text-anchor="start" x="98" y="-18.5" font-family="Helvetica,sans-Serif" font-size="10.00">/Project/classes/frontendClasses</text>
<text text-anchor="middle" x="171.12" y="-6.5" font-family="Helvetica,sans-Serif" font-size="10.00">/windowhandler.cpp</text>
</a>
</g>
</g>
<!-- Node3&#45;&gt;Node4 -->
<g id="edge3_Node000003_Node000004" class="edge">
<title>Node3&#45;&gt;Node4</title>
<g id="a_edge3_Node000003_Node000004"><a xlink:title=" ">
<path fill="none" stroke="#63b8ff" d="M225.55,-83.42C216.53,-74.4 206.98,-64.86 198.45,-56.32"/>
<polygon fill="#63b8ff" stroke="#63b8ff" points="223.02,-85.84 232.56,-90.44 227.97,-80.89 223.02,-85.84"/>
</a>
</g>
</g>
<!-- Node5 -->
<g id="Node000005" class="node">
<title>Node5</title>
<g id="a_Node000005"><a xlink:href="../../df/d0a/main_8cpp.html" target="_top" xlink:title="Main entry point for the application.">
<polygon fill="white" stroke="#666666" points="432.25,-50 270,-50 270,-6 432.25,-6 432.25,-50"/>
<text text-anchor="start" x="278" y="-36.5" font-family="Helvetica,sans-Serif" font-size="10.00">C:/Users/Clean/Documents</text>
<text text-anchor="start" x="278" y="-24.5" font-family="Helvetica,sans-Serif" font-size="10.00">/Projekte/Apos&#45;DatabaseManager</text>
<text text-anchor="middle" x="351.12" y="-12.5" font-family="Helvetica,sans-Serif" font-size="10.00">/Project/source/main.cpp</text>
</a>
</g>
</g>
<!-- Node3&#45;&gt;Node5 -->
<g id="edge4_Node000003_Node000005" class="edge">
<title>Node3&#45;&gt;Node5</title>
<g id="a_edge4_Node000003_Node000005"><a xlink:title=" ">
<path fill="none" stroke="#63b8ff" d="M296.6,-83.52C307.83,-72.3 319.88,-60.24 329.8,-50.33"/>
<polygon fill="#63b8ff" stroke="#63b8ff" points="294.28,-80.89 289.69,-90.44 299.23,-85.84 294.28,-80.89"/>
</a>
</g>
</g>
</g>
</svg>
