<?xml version="1.0" encoding="UTF-8" standalone="no"?>
<!DOCTYPE svg PUBLIC "-//W3C//DTD SVG 1.1//EN"
 "http://www.w3.org/Graphics/SVG/1.1/DTD/svg11.dtd">
<!-- Generated by graphviz version 9.0.0 (20230911.1827)
 -->
<!-- Title: C:/Users/Clean/Documents/Projekte/Apos&#45;DatabaseManager/Project/source/main.cpp Pages: 1 -->
<svg width="921pt" height="436pt"
 viewBox="0.00 0.00 920.62 436.00" xmlns="http://www.w3.org/2000/svg" xmlns:xlink="http://www.w3.org/1999/xlink">
<g id="graph0" class="graph" transform="scale(1 1) rotate(0) translate(4 432)">
<title>C:/Users/Clean/Documents/Projekte/Apos&#45;DatabaseManager/Project/source/main.cpp</title>
<!-- Node1 -->
<g id="Node000001" class="node">
<title>Node1</title>
<g id="a_Node000001"><a xlink:title="Main entry point for the application.">
<polygon fill="#999999" stroke="#666666" points="539.12,-428 376.88,-428 376.88,-384 539.12,-384 539.12,-428"/>
<text text-anchor="start" x="384.88" y="-414.5" font-family="Helvetica,sans-Serif" font-size="10.00">C:/Users/Clean/Documents</text>
<text text-anchor="start" x="384.88" y="-402.5" font-family="Helvetica,sans-Serif" font-size="10.00">/Projekte/Apos&#45;DatabaseManager</text>
<text text-anchor="middle" x="458" y="-390.5" font-family="Helvetica,sans-Serif" font-size="10.00">/Project/source/main.cpp</text>
</a>
</g>
</g>
<!-- Node2 -->
<g id="Node000002" class="node">
<title>Node2</title>
<g id="a_Node000002"><a xlink:href="../../d3/d89/startuphandler_8hpp.html" target="_top" xlink:title="Header file for the StartupHandler class.">
<polygon fill="white" stroke="#666666" points="227.88,-280 94.12,-280 94.12,-248 227.88,-248 227.88,-280"/>
<text text-anchor="start" x="102.12" y="-266.5" font-family="Helvetica,sans-Serif" font-size="10.00">../classes/backendClasses</text>
<text text-anchor="middle" x="161" y="-254.5" font-family="Helvetica,sans-Serif" font-size="10.00">/startuphandler.hpp</text>
</a>
</g>
</g>
<!-- Node1&#45;&gt;Node2 -->
<g id="edge1_Node000001_Node000002" class="edge">
<title>Node1&#45;&gt;Node2</title>
<g id="a_edge1_Node000001_Node000002"><a xlink:title=" ">
<path fill="none" stroke="#63b8ff" d="M412.57,-383.58C355.78,-356.82 259.31,-311.34 203.79,-285.17"/>
<polygon fill="#63b8ff" stroke="#63b8ff" points="205.49,-282.1 194.95,-281 202.5,-288.43 205.49,-282.1"/>
</a>
</g>
</g>
<!-- Node3 -->
<g id="Node000003" class="node">
<title>Node3</title>
<g id="a_Node000003"><a xlink:title=" ">
<polygon fill="#e0e0e0" stroke="#999999" points="300.62,-20 249.38,-20 249.38,0 300.62,0 300.62,-20"/>
<text text-anchor="middle" x="275" y="-6.5" font-family="Helvetica,sans-Serif" font-size="10.00">QDebug</text>
</a>
</g>
</g>
<!-- Node1&#45;&gt;Node3 -->
<g id="edge37_Node000001_Node000003" class="edge">
<title>Node1&#45;&gt;Node3</title>
<g id="a_edge37_Node000001_Node000003"><a xlink:title=" ">
<path fill="none" stroke="#63b8ff" d="M376.38,-396.94C244.71,-381.66 0,-342.79 0,-265 0,-265 0,-265 0,-139 0,-35.28 162.79,-15.39 237.87,-11.73"/>
<polygon fill="#63b8ff" stroke="#63b8ff" points="237.77,-15.24 247.62,-11.34 237.48,-8.25 237.77,-15.24"/>
</a>
</g>
</g>
<!-- Node8 -->
<g id="Node000008" class="node">
<title>Node8</title>
<g id="a_Node000008"><a xlink:title=" ">
<polygon fill="#e0e0e0" stroke="#999999" points="730.75,-150 659.25,-150 659.25,-130 730.75,-130 730.75,-150"/>
<text text-anchor="middle" x="695" y="-136.5" font-family="Helvetica,sans-Serif" font-size="10.00">QApplication</text>
</a>
</g>
</g>
<!-- Node1&#45;&gt;Node8 -->
<g id="edge36_Node000001_Node000008" class="edge">
<title>Node1&#45;&gt;Node8</title>
<g id="a_edge36_Node000001_Node000008"><a xlink:title=" ">
<path fill="none" stroke="#63b8ff" d="M523.24,-383.56C575.92,-363.57 649.22,-329.37 699,-280 729.01,-250.25 748.8,-231.94 735,-192 730.65,-179.4 721.75,-167.53 713.46,-158.43"/>
<polygon fill="#63b8ff" stroke="#63b8ff" points="716.09,-156.11 706.6,-151.4 711.08,-161 716.09,-156.11"/>
</a>
</g>
</g>
<!-- Node11 -->
<g id="Node000011" class="node">
<title>Node11</title>
<g id="a_Node000011"><a xlink:href="../../da/d25/windowhandler_8hpp.html" target="_top" xlink:title="Header file for the WindowHandler class.">
<polygon fill="white" stroke="#666666" points="523.75,-348 392.25,-348 392.25,-316 523.75,-316 523.75,-348"/>
<text text-anchor="start" x="400.25" y="-334.5" font-family="Helvetica,sans-Serif" font-size="10.00">../classes/frontendClasses</text>
<text text-anchor="middle" x="458" y="-322.5" font-family="Helvetica,sans-Serif" font-size="10.00">/windowhandler.hpp</text>
</a>
</g>
</g>
<!-- Node1&#45;&gt;Node11 -->
<g id="edge17_Node000001_Node000011" class="edge">
<title>Node1&#45;&gt;Node11</title>
<g id="a_edge17_Node000001_Node000011"><a xlink:title=" ">
<path fill="none" stroke="#63b8ff" d="M458,-383.79C458,-376.18 458,-367.52 458,-359.52"/>
<polygon fill="#63b8ff" stroke="#63b8ff" points="461.5,-359.64 458,-349.64 454.5,-359.64 461.5,-359.64"/>
</a>
</g>
</g>
<!-- Node19 -->
<g id="Node000019" class="node">
<title>Node19</title>
<g id="a_Node000019"><a xlink:title=" ">
<polygon fill="#e0e0e0" stroke="#999999" points="912.62,-342 825.38,-342 825.38,-322 912.62,-322 912.62,-342"/>
<text text-anchor="middle" x="869" y="-328.5" font-family="Helvetica,sans-Serif" font-size="10.00">QScopedPointer</text>
</a>
</g>
</g>
<!-- Node1&#45;&gt;Node19 -->
<g id="edge38_Node000001_Node000019" class="edge">
<title>Node1&#45;&gt;Node19</title>
<g id="a_edge38_Node000001_Node000019"><a xlink:title=" ">
<path fill="none" stroke="#63b8ff" d="M539.36,-394.05C611.16,-383.87 718.5,-367.39 811,-348 815.06,-347.15 819.25,-346.2 823.45,-345.2"/>
<polygon fill="#63b8ff" stroke="#63b8ff" points="824.12,-348.64 833,-342.85 822.45,-341.85 824.12,-348.64"/>
</a>
</g>
</g>
<!-- Node2&#45;&gt;Node3 -->
<g id="edge2_Node000002_Node000003" class="edge">
<title>Node2&#45;&gt;Node3</title>
<g id="a_edge2_Node000002_Node000003"><a xlink:title=" ">
<path fill="none" stroke="#63b8ff" d="M102.8,-247.55C72.77,-236.18 44.74,-218.12 57,-192 95.95,-109.03 193.69,-50.95 244,-25.49"/>
<polygon fill="#63b8ff" stroke="#63b8ff" points="245.5,-28.65 252.91,-21.08 242.4,-22.37 245.5,-28.65"/>
</a>
</g>
</g>
<!-- Node4 -->
<g id="Node000004" class="node">
<title>Node4</title>
<g id="a_Node000004"><a xlink:title=" ">
<polygon fill="#e0e0e0" stroke="#999999" points="499.38,-20 458.62,-20 458.62,0 499.38,0 499.38,-20"/>
<text text-anchor="middle" x="479" y="-6.5" font-family="Helvetica,sans-Serif" font-size="10.00">QtSql</text>
</a>
</g>
</g>
<!-- Node2&#45;&gt;Node4 -->
<g id="edge3_Node000002_Node000004" class="edge">
<title>Node2&#45;&gt;Node4</title>
<g id="a_edge3_Node000002_Node000004"><a xlink:title=" ">
<path fill="none" stroke="#63b8ff" d="M158.44,-247.68C156.7,-232.64 156.08,-209.49 165,-192 208.51,-106.74 247.55,-101.07 332,-56 369.37,-36.05 416.91,-23.54 447.64,-16.91"/>
<polygon fill="#63b8ff" stroke="#63b8ff" points="447.98,-20.42 457.06,-14.97 446.56,-13.56 447.98,-20.42"/>
</a>
</g>
</g>
<!-- Node5 -->
<g id="Node000005" class="node">
<title>Node5</title>
<g id="a_Node000005"><a xlink:title=" ">
<polygon fill="#e0e0e0" stroke="#999999" points="118,-212 66,-212 66,-192 118,-192 118,-212"/>
<text text-anchor="middle" x="92" y="-198.5" font-family="Helvetica,sans-Serif" font-size="10.00">QLocale</text>
</a>
</g>
</g>
<!-- Node2&#45;&gt;Node5 -->
<g id="edge4_Node000002_Node000005" class="edge">
<title>Node2&#45;&gt;Node5</title>
<g id="a_edge4_Node000002_Node000005"><a xlink:title=" ">
<path fill="none" stroke="#63b8ff" d="M143.23,-247.55C133.45,-239.04 121.3,-228.48 111.28,-219.77"/>
<polygon fill="#63b8ff" stroke="#63b8ff" points="113.8,-217.32 103.96,-213.4 109.21,-222.6 113.8,-217.32"/>
</a>
</g>
</g>
<!-- Node6 -->
<g id="Node000006" class="node">
<title>Node6</title>
<g id="a_Node000006"><a xlink:title=" ">
<polygon fill="#e0e0e0" stroke="#999999" points="240.12,-212 173.88,-212 173.88,-192 240.12,-192 240.12,-212"/>
<text text-anchor="middle" x="207" y="-198.5" font-family="Helvetica,sans-Serif" font-size="10.00">QTranslator</text>
</a>
</g>
</g>
<!-- Node2&#45;&gt;Node6 -->
<g id="edge5_Node000002_Node000006" class="edge">
<title>Node2&#45;&gt;Node6</title>
<g id="a_edge5_Node000002_Node000006"><a xlink:title=" ">
<path fill="none" stroke="#63b8ff" d="M172.85,-247.55C178.97,-239.56 186.48,-229.76 192.9,-221.39"/>
<polygon fill="#63b8ff" stroke="#63b8ff" points="195.56,-223.67 198.87,-213.61 190,-219.42 195.56,-223.67"/>
</a>
</g>
</g>
<!-- Node7 -->
<g id="Node000007" class="node">
<title>Node7</title>
<g id="a_Node000007"><a xlink:href="../../d5/dcc/objecthandler_8hpp.html" target="_top" xlink:title="Header file for the ObjectHandler class.">
<polygon fill="white" stroke="#666666" points="460.25,-212 367.75,-212 367.75,-192 460.25,-192 460.25,-212"/>
<text text-anchor="middle" x="414" y="-198.5" font-family="Helvetica,sans-Serif" font-size="10.00">objecthandler.hpp</text>
</a>
</g>
</g>
<!-- Node2&#45;&gt;Node7 -->
<g id="edge6_Node000002_Node000007" class="edge">
<title>Node2&#45;&gt;Node7</title>
<g id="a_edge6_Node000002_Node000007"><a xlink:title=" ">
<path fill="none" stroke="#63b8ff" d="M226.15,-247.55C268.66,-237.47 323.37,-224.49 362.76,-215.15"/>
<polygon fill="#63b8ff" stroke="#63b8ff" points="363.56,-218.56 372.48,-212.85 361.95,-211.75 363.56,-218.56"/>
</a>
</g>
</g>
<!-- Node7&#45;&gt;Node3 -->
<g id="edge8_Node000007_Node000003" class="edge">
<title>Node7&#45;&gt;Node3</title>
<g id="a_edge8_Node000007_Node000003"><a xlink:title=" ">
<path fill="none" stroke="#63b8ff" d="M374.74,-191.51C354.56,-184.75 331.1,-173.64 316,-156 285.19,-120 277.45,-62.36 275.56,-31.72"/>
<polygon fill="#63b8ff" stroke="#63b8ff" points="279.07,-31.73 275.13,-21.89 272.07,-32.04 279.07,-31.73"/>
</a>
</g>
</g>
<!-- Node7&#45;&gt;Node4 -->
<g id="edge9_Node000007_Node000004" class="edge">
<title>Node7&#45;&gt;Node4</title>
<g id="a_edge9_Node000007_Node000004"><a xlink:title=" ">
<path fill="none" stroke="#63b8ff" d="M422.75,-191.51C430.54,-182.74 441.93,-169.13 450,-156 467.4,-127.71 473.95,-120.46 481,-88 485.12,-69.03 483.92,-46.81 482.12,-31.13"/>
<polygon fill="#63b8ff" stroke="#63b8ff" points="485.64,-31.08 480.83,-21.64 478.71,-32.02 485.64,-31.08"/>
</a>
</g>
</g>
<!-- Node7&#45;&gt;Node8 -->
<g id="edge7_Node000007_Node000008" class="edge">
<title>Node7&#45;&gt;Node8</title>
<g id="a_edge7_Node000007_Node000008"><a xlink:title=" ">
<path fill="none" stroke="#63b8ff" d="M458.22,-191.56C509.91,-180.52 595.11,-162.33 647.98,-151.04"/>
<polygon fill="#63b8ff" stroke="#63b8ff" points="648.54,-154.5 657.59,-148.99 647.08,-147.65 648.54,-154.5"/>
</a>
</g>
</g>
<!-- Node9 -->
<g id="Node000009" class="node">
<title>Node9</title>
<g id="a_Node000009"><a xlink:href="../../de/d60/databasehandler_8hpp.html" target="_top" xlink:title="Header file for the DatabaseHandler class.">
<polygon fill="white" stroke="#666666" points="450.5,-88 341.5,-88 341.5,-56 450.5,-56 450.5,-88"/>
<text text-anchor="start" x="349.5" y="-74.5" font-family="Helvetica,sans-Serif" font-size="10.00">../databaseClasses</text>
<text text-anchor="middle" x="396" y="-62.5" font-family="Helvetica,sans-Serif" font-size="10.00">/databasehandler.hpp</text>
</a>
</g>
</g>
<!-- Node7&#45;&gt;Node9 -->
<g id="edge10_Node000007_Node000009" class="edge">
<title>Node7&#45;&gt;Node9</title>
<g id="a_edge10_Node000007_Node000009"><a xlink:title=" ">
<path fill="none" stroke="#63b8ff" d="M419.75,-191.88C428.17,-177.35 442,-148.12 434,-124 430.8,-114.36 425,-105.06 418.87,-97.1"/>
<polygon fill="#63b8ff" stroke="#63b8ff" points="421.72,-95.05 412.63,-89.6 416.33,-99.53 421.72,-95.05"/>
</a>
</g>
</g>
<!-- Node10 -->
<g id="Node000010" class="node">
<title>Node10</title>
<g id="a_Node000010"><a xlink:href="../../df/d46/tablehandler_8hpp.html" target="_top" xlink:title="Header file for the TableHandler class.">
<polygon fill="white" stroke="#666666" points="425,-156 325,-156 325,-124 425,-124 425,-156"/>
<text text-anchor="start" x="333" y="-142.5" font-family="Helvetica,sans-Serif" font-size="10.00">../databaseClasses</text>
<text text-anchor="middle" x="375" y="-130.5" font-family="Helvetica,sans-Serif" font-size="10.00">/tablehandler.hpp</text>
</a>
</g>
</g>
<!-- Node7&#45;&gt;Node10 -->
<g id="edge13_Node000007_Node000010" class="edge">
<title>Node7&#45;&gt;Node10</title>
<g id="a_edge13_Node000007_Node000010"><a xlink:title=" ">
<path fill="none" stroke="#63b8ff" d="M407.91,-191.62C403.38,-184.65 396.97,-174.8 391.02,-165.64"/>
<polygon fill="#63b8ff" stroke="#63b8ff" points="394.05,-163.89 385.67,-157.41 388.18,-167.7 394.05,-163.89"/>
</a>
</g>
</g>
<!-- Node9&#45;&gt;Node3 -->
<g id="edge11_Node000009_Node000003" class="edge">
<title>Node9&#45;&gt;Node3</title>
<g id="a_edge11_Node000009_Node000003"><a xlink:title=" ">
<path fill="none" stroke="#63b8ff" d="M364.84,-55.55C346.11,-46.26 322.43,-34.52 304.08,-25.42"/>
<polygon fill="#63b8ff" stroke="#63b8ff" points="305.84,-22.39 295.33,-21.08 302.73,-28.66 305.84,-22.39"/>
</a>
</g>
</g>
<!-- Node9&#45;&gt;Node4 -->
<g id="edge12_Node000009_Node000004" class="edge">
<title>Node9&#45;&gt;Node4</title>
<g id="a_edge12_Node000009_Node000004"><a xlink:title=" ">
<path fill="none" stroke="#63b8ff" d="M417.37,-55.55C429.5,-46.78 444.66,-35.83 456.9,-26.97"/>
<polygon fill="#63b8ff" stroke="#63b8ff" points="458.71,-29.99 464.76,-21.29 454.6,-24.32 458.71,-29.99"/>
</a>
</g>
</g>
<!-- Node10&#45;&gt;Node3 -->
<g id="edge14_Node000010_Node000003" class="edge">
<title>Node10&#45;&gt;Node3</title>
<g id="a_edge14_Node000010_Node000003"><a xlink:title=" ">
<path fill="none" stroke="#63b8ff" d="M361.57,-123.59C352.95,-113.58 341.62,-100.17 332,-88 316.43,-68.31 299.41,-45.07 288.06,-29.31"/>
<polygon fill="#63b8ff" stroke="#63b8ff" points="291.04,-27.47 282.37,-21.38 285.35,-31.55 291.04,-27.47"/>
</a>
</g>
</g>
<!-- Node10&#45;&gt;Node4 -->
<g id="edge15_Node000010_Node000004" class="edge">
<title>Node10&#45;&gt;Node4</title>
<g id="a_edge15_Node000010_Node000004"><a xlink:title=" ">
<path fill="none" stroke="#63b8ff" d="M413.58,-123.52C429.78,-115.22 447.49,-103.47 459,-88 471.22,-71.58 475.99,-48.36 477.85,-31.72"/>
<polygon fill="#63b8ff" stroke="#63b8ff" points="481.31,-32.26 478.65,-22.01 474.34,-31.69 481.31,-32.26"/>
</a>
</g>
</g>
<!-- Node10&#45;&gt;Node9 -->
<g id="edge16_Node000010_Node000009" class="edge">
<title>Node10&#45;&gt;Node9</title>
<g id="a_edge16_Node000010_Node000009"><a xlink:title=" ">
<path fill="none" stroke="#63b8ff" d="M379.87,-123.69C382.2,-116.36 385.06,-107.38 387.72,-99.02"/>
<polygon fill="#63b8ff" stroke="#63b8ff" points="391,-100.26 390.7,-89.67 384.33,-98.13 391,-100.26"/>
</a>
</g>
</g>
<!-- Node11&#45;&gt;Node7 -->
<g id="edge35_Node000011_Node000007" class="edge">
<title>Node11&#45;&gt;Node7</title>
<g id="a_edge35_Node000011_Node000007"><a xlink:title=" ">
<path fill="none" stroke="#63b8ff" d="M455.81,-315.63C453.1,-298.67 447.73,-270.77 439,-248 435.57,-239.05 430.62,-229.7 426.04,-221.86"/>
<polygon fill="#63b8ff" stroke="#63b8ff" points="429.17,-220.27 420.97,-213.57 423.2,-223.92 429.17,-220.27"/>
</a>
</g>
</g>
<!-- Node12 -->
<g id="Node000012" class="node">
<title>Node12</title>
<g id="a_Node000012"><a xlink:title=" ">
<polygon fill="#e0e0e0" stroke="#999999" points="430,-274 378,-274 378,-254 430,-254 430,-274"/>
<text text-anchor="middle" x="404" y="-260.5" font-family="Helvetica,sans-Serif" font-size="10.00">QObject</text>
</a>
</g>
</g>
<!-- Node11&#45;&gt;Node12 -->
<g id="edge18_Node000011_Node000012" class="edge">
<title>Node11&#45;&gt;Node12</title>
<g id="a_edge18_Node000011_Node000012"><a xlink:title=" ">
<path fill="none" stroke="#63b8ff" d="M445.48,-315.69C437.54,-306 427.24,-293.41 418.89,-283.2"/>
<polygon fill="#63b8ff" stroke="#63b8ff" points="421.62,-281.01 412.58,-275.49 416.2,-285.44 421.62,-281.01"/>
</a>
</g>
</g>
<!-- Node13 -->
<g id="Node000013" class="node">
<title>Node13</title>
<g id="a_Node000013"><a xlink:href="../../d2/d3e/launcherwindow_8hpp.html" target="_top" xlink:title="Header file for the LauncherWindow class.">
<polygon fill="white" stroke="#666666" points="589.5,-274 486.5,-274 486.5,-254 589.5,-254 589.5,-274"/>
<text text-anchor="middle" x="538" y="-260.5" font-family="Helvetica,sans-Serif" font-size="10.00">launcherwindow.hpp</text>
</a>
</g>
</g>
<!-- Node11&#45;&gt;Node13 -->
<g id="edge19_Node000011_Node000013" class="edge">
<title>Node11&#45;&gt;Node13</title>
<g id="a_edge19_Node000011_Node000013"><a xlink:title=" ">
<path fill="none" stroke="#63b8ff" d="M476.55,-315.69C488.91,-305.5 505.15,-292.1 517.83,-281.64"/>
<polygon fill="#63b8ff" stroke="#63b8ff" points="520.05,-284.34 525.54,-275.28 515.6,-278.94 520.05,-284.34"/>
</a>
</g>
</g>
<!-- Node16 -->
<g id="Node000016" class="node">
<title>Node16</title>
<g id="a_Node000016"><a xlink:href="../../d5/d65/devwindow_8hpp.html" target="_top" xlink:title="Header file for the DevWindow class.">
<polygon fill="white" stroke="#666666" points="690.25,-274 609.75,-274 609.75,-254 690.25,-254 690.25,-274"/>
<text text-anchor="middle" x="650" y="-260.5" font-family="Helvetica,sans-Serif" font-size="10.00">devwindow.hpp</text>
</a>
</g>
</g>
<!-- Node11&#45;&gt;Node16 -->
<g id="edge23_Node000011_Node000016" class="edge">
<title>Node11&#45;&gt;Node16</title>
<g id="a_edge23_Node000011_Node000016"><a xlink:title=" ">
<path fill="none" stroke="#63b8ff" d="M503.02,-315.53C536.13,-304.14 580.65,-288.84 611.99,-278.07"/>
<polygon fill="#63b8ff" stroke="#63b8ff" points="612.73,-281.51 621.05,-274.95 610.45,-274.89 612.73,-281.51"/>
</a>
</g>
</g>
<!-- Node17 -->
<g id="Node000017" class="node">
<title>Node17</title>
<g id="a_Node000017"><a xlink:href="../../df/db5/settingswindow_8hpp.html" target="_top" xlink:title="Header file for the SettingsWindow class.">
<polygon fill="white" stroke="#666666" points="360.38,-274 259.62,-274 259.62,-254 360.38,-254 360.38,-274"/>
<text text-anchor="middle" x="310" y="-260.5" font-family="Helvetica,sans-Serif" font-size="10.00">settingswindow.hpp</text>
</a>
</g>
</g>
<!-- Node11&#45;&gt;Node17 -->
<g id="edge29_Node000011_Node000017" class="edge">
<title>Node11&#45;&gt;Node17</title>
<g id="a_edge29_Node000011_Node000017"><a xlink:title=" ">
<path fill="none" stroke="#63b8ff" d="M423.3,-315.53C398.55,-304.49 365.55,-289.77 341.55,-279.07"/>
<polygon fill="#63b8ff" stroke="#63b8ff" points="343.15,-275.95 332.6,-275.08 340.3,-282.35 343.15,-275.95"/>
</a>
</g>
</g>
<!-- Node13&#45;&gt;Node7 -->
<g id="edge21_Node000013_Node000007" class="edge">
<title>Node13&#45;&gt;Node7</title>
<g id="a_edge21_Node000013_Node000007"><a xlink:title=" ">
<path fill="none" stroke="#63b8ff" d="M518.62,-253.62C498.51,-243.89 466.81,-228.55 443.57,-217.31"/>
<polygon fill="#63b8ff" stroke="#63b8ff" points="445.13,-214.17 434.6,-212.97 442.08,-220.47 445.13,-214.17"/>
</a>
</g>
</g>
<!-- Node14 -->
<g id="Node000014" class="node">
<title>Node14</title>
<g id="a_Node000014"><a xlink:title=" ">
<polygon fill="#e0e0e0" stroke="#999999" points="692.5,-212 613.5,-212 613.5,-192 692.5,-192 692.5,-212"/>
<text text-anchor="middle" x="653" y="-198.5" font-family="Helvetica,sans-Serif" font-size="10.00">QMainWindow</text>
</a>
</g>
</g>
<!-- Node13&#45;&gt;Node14 -->
<g id="edge20_Node000013_Node000014" class="edge">
<title>Node13&#45;&gt;Node14</title>
<g id="a_edge20_Node000013_Node000014"><a xlink:title=" ">
<path fill="none" stroke="#63b8ff" d="M555.97,-253.62C574.45,-243.98 603.49,-228.83 624.99,-217.61"/>
<polygon fill="#63b8ff" stroke="#63b8ff" points="626.57,-220.74 633.82,-213.01 623.33,-214.53 626.57,-220.74"/>
</a>
</g>
</g>
<!-- Node15 -->
<g id="Node000015" class="node">
<title>Node15</title>
<g id="a_Node000015"><a xlink:href="../../d7/dfa/translatablewindow_8hpp.html" target="_top" xlink:title="Header file for the TranslatableWindow class.">
<polygon fill="white" stroke="#666666" points="595.25,-212 478.75,-212 478.75,-192 595.25,-192 595.25,-212"/>
<text text-anchor="middle" x="537" y="-198.5" font-family="Helvetica,sans-Serif" font-size="10.00">translatablewindow.hpp</text>
</a>
</g>
</g>
<!-- Node13&#45;&gt;Node15 -->
<g id="edge22_Node000013_Node000015" class="edge">
<title>Node13&#45;&gt;Node15</title>
<g id="a_edge22_Node000013_Node000015"><a xlink:title=" ">
<path fill="none" stroke="#63b8ff" d="M537.84,-253.62C537.71,-245.56 537.51,-233.65 537.34,-223.41"/>
<polygon fill="#63b8ff" stroke="#63b8ff" points="540.84,-223.57 537.18,-213.63 533.84,-223.68 540.84,-223.57"/>
</a>
</g>
</g>
<!-- Node16&#45;&gt;Node3 -->
<g id="edge25_Node000016_Node000003" class="edge">
<title>Node16&#45;&gt;Node3</title>
<g id="a_edge25_Node000016_Node000003"><a xlink:title=" ">
<path fill="none" stroke="#63b8ff" d="M665.45,-253.51C684.99,-240.25 714.57,-215.19 701,-192 693.21,-178.69 473.35,-61.66 459,-56 409.79,-36.58 349.78,-23.8 311.96,-16.98"/>
<polygon fill="#63b8ff" stroke="#63b8ff" points="312.92,-13.59 302.47,-15.31 311.71,-20.49 312.92,-13.59"/>
</a>
</g>
</g>
<!-- Node16&#45;&gt;Node4 -->
<g id="edge26_Node000016_Node000004" class="edge">
<title>Node16&#45;&gt;Node4</title>
<g id="a_edge26_Node000016_Node000004"><a xlink:title=" ">
<path fill="none" stroke="#63b8ff" d="M678.66,-253.65C697.99,-245.76 722.21,-232.42 735,-212 755.8,-178.8 757.91,-158.84 740,-124 696.5,-39.36 570.58,-18.12 510.98,-12.79"/>
<polygon fill="#63b8ff" stroke="#63b8ff" points="511.41,-9.31 501.17,-12.01 510.86,-16.29 511.41,-9.31"/>
</a>
</g>
</g>
<!-- Node16&#45;&gt;Node7 -->
<g id="edge27_Node000016_Node000007" class="edge">
<title>Node16&#45;&gt;Node7</title>
<g id="a_edge27_Node000016_Node000007"><a xlink:title=" ">
<path fill="none" stroke="#63b8ff" d="M617.88,-253.51C611.32,-251.64 604.45,-249.72 598,-248 553.51,-236.15 502.64,-223.8 465.68,-215.04"/>
<polygon fill="#63b8ff" stroke="#63b8ff" points="466.69,-211.68 456.16,-212.79 465.08,-218.5 466.69,-211.68"/>
</a>
</g>
</g>
<!-- Node16&#45;&gt;Node14 -->
<g id="edge24_Node000016_Node000014" class="edge">
<title>Node16&#45;&gt;Node14</title>
<g id="a_edge24_Node000016_Node000014"><a xlink:title=" ">
<path fill="none" stroke="#63b8ff" d="M650.47,-253.62C650.87,-245.56 651.47,-233.65 651.98,-223.41"/>
<polygon fill="#63b8ff" stroke="#63b8ff" points="655.46,-223.79 652.47,-213.62 648.47,-223.44 655.46,-223.79"/>
</a>
</g>
</g>
<!-- Node16&#45;&gt;Node15 -->
<g id="edge28_Node000016_Node000015" class="edge">
<title>Node16&#45;&gt;Node15</title>
<g id="a_edge28_Node000016_Node000015"><a xlink:title=" ">
<path fill="none" stroke="#63b8ff" d="M632.34,-253.62C614.18,-243.98 585.64,-228.83 564.52,-217.61"/>
<polygon fill="#63b8ff" stroke="#63b8ff" points="566.34,-214.62 555.87,-213.02 563.06,-220.8 566.34,-214.62"/>
</a>
</g>
</g>
<!-- Node17&#45;&gt;Node3 -->
<g id="edge31_Node000017_Node000003" class="edge">
<title>Node17&#45;&gt;Node3</title>
<g id="a_edge31_Node000017_Node000003"><a xlink:title=" ">
<path fill="none" stroke="#63b8ff" d="M304.61,-253.57C299.18,-243.59 291.05,-227.21 287,-212 269.95,-147.93 271.58,-68.49 273.56,-31.6"/>
<polygon fill="#63b8ff" stroke="#63b8ff" points="277.04,-32.13 274.16,-21.94 270.05,-31.7 277.04,-32.13"/>
</a>
</g>
</g>
<!-- Node17&#45;&gt;Node6 -->
<g id="edge34_Node000017_Node000006" class="edge">
<title>Node17&#45;&gt;Node6</title>
<g id="a_edge34_Node000017_Node000006"><a xlink:title=" ">
<path fill="none" stroke="#63b8ff" d="M293.91,-253.62C277.58,-244.11 252.05,-229.24 232.88,-218.08"/>
<polygon fill="#63b8ff" stroke="#63b8ff" points="234.69,-215.08 224.29,-213.07 231.17,-221.13 234.69,-215.08"/>
</a>
</g>
</g>
<!-- Node17&#45;&gt;Node7 -->
<g id="edge32_Node000017_Node000007" class="edge">
<title>Node17&#45;&gt;Node7</title>
<g id="a_edge32_Node000017_Node000007"><a xlink:title=" ">
<path fill="none" stroke="#63b8ff" d="M326.25,-253.62C342.81,-244.07 368.75,-229.11 388.14,-217.92"/>
<polygon fill="#63b8ff" stroke="#63b8ff" points="389.64,-221.09 396.55,-213.07 386.14,-215.03 389.64,-221.09"/>
</a>
</g>
</g>
<!-- Node17&#45;&gt;Node15 -->
<g id="edge33_Node000017_Node000015" class="edge">
<title>Node17&#45;&gt;Node15</title>
<g id="a_edge33_Node000017_Node000015"><a xlink:title=" ">
<path fill="none" stroke="#63b8ff" d="M345.72,-253.56C384.69,-243.26 447.23,-226.73 490.12,-215.39"/>
<polygon fill="#63b8ff" stroke="#63b8ff" points="490.88,-218.81 499.65,-212.87 489.09,-212.04 490.88,-218.81"/>
</a>
</g>
</g>
<!-- Node18 -->
<g id="Node000018" class="node">
<title>Node18</title>
<g id="a_Node000018"><a xlink:title=" ">
<polygon fill="#e0e0e0" stroke="#999999" points="350.12,-212 295.88,-212 295.88,-192 350.12,-192 350.12,-212"/>
<text text-anchor="middle" x="323" y="-198.5" font-family="Helvetica,sans-Serif" font-size="10.00">QWidget</text>
</a>
</g>
</g>
<!-- Node17&#45;&gt;Node18 -->
<g id="edge30_Node000017_Node000018" class="edge">
<title>Node17&#45;&gt;Node18</title>
<g id="a_edge30_Node000017_Node000018"><a xlink:title=" ">
<path fill="none" stroke="#63b8ff" d="M312.03,-253.62C313.8,-245.48 316.42,-233.39 318.65,-223.07"/>
<polygon fill="#63b8ff" stroke="#63b8ff" points="322.01,-224.11 320.71,-213.59 315.17,-222.62 322.01,-224.11"/>
</a>
</g>
</g>
</g>
</svg>
