<?xml version="1.0" encoding="UTF-8" standalone="no"?>
<!DOCTYPE svg PUBLIC "-//W3C//DTD SVG 1.1//EN"
 "http://www.w3.org/Graphics/SVG/1.1/DTD/svg11.dtd">
<!-- Generated by graphviz version 9.0.0 (20230911.1827)
 -->
<!-- Title: C:/Users/Clean/Documents/Projekte/Apos&#45;DatabaseManager/Project/source/main.cpp Pages: 1 -->
<svg width="842pt" height="368pt"
 viewBox="0.00 0.00 842.00 368.00" xmlns="http://www.w3.org/2000/svg" xmlns:xlink="http://www.w3.org/1999/xlink">
<g id="graph0" class="graph" transform="scale(1 1) rotate(0) translate(4 364)">
<title>C:/Users/Clean/Documents/Projekte/Apos&#45;DatabaseManager/Project/source/main.cpp</title>
<!-- Node1 -->
<g id="Node000001" class="node">
<title>Node1</title>
<g id="a_Node000001"><a xlink:title=" ">
<polygon fill="#999999" stroke="#666666" points="325.12,-360 162.88,-360 162.88,-316 325.12,-316 325.12,-360"/>
<text text-anchor="start" x="170.88" y="-346.5" font-family="Helvetica,sans-Serif" font-size="10.00">C:/Users/Clean/Documents</text>
<text text-anchor="start" x="170.88" y="-334.5" font-family="Helvetica,sans-Serif" font-size="10.00">/Projekte/Apos&#45;DatabaseManager</text>
<text text-anchor="middle" x="244" y="-322.5" font-family="Helvetica,sans-Serif" font-size="10.00">/Project/source/main.cpp</text>
</a>
</g>
</g>
<!-- Node2 -->
<g id="Node000002" class="node">
<title>Node2</title>
<g id="a_Node000002"><a xlink:href="../../d3/d89/startuphandler_8hpp.html" target="_top" xlink:title=" ">
<polygon fill="white" stroke="#666666" points="239.88,-212 106.12,-212 106.12,-180 239.88,-180 239.88,-212"/>
<text text-anchor="start" x="114.12" y="-198.5" font-family="Helvetica,sans-Serif" font-size="10.00">../classes/backendClasses</text>
<text text-anchor="middle" x="173" y="-186.5" font-family="Helvetica,sans-Serif" font-size="10.00">/startuphandler.hpp</text>
</a>
</g>
</g>
<!-- Node1&#45;&gt;Node2 -->
<g id="edge1_Node000001_Node000002" class="edge">
<title>Node1&#45;&gt;Node2</title>
<g id="a_edge1_Node000001_Node000002"><a xlink:title=" ">
<path fill="none" stroke="#63b8ff" d="M233.22,-315.74C220.53,-290.73 199.49,-249.24 185.94,-222.52"/>
<polygon fill="#63b8ff" stroke="#63b8ff" points="189.14,-221.08 181.49,-213.75 182.89,-224.25 189.14,-221.08"/>
</a>
</g>
</g>
<!-- Node3 -->
<g id="Node000003" class="node">
<title>Node3</title>
<g id="a_Node000003"><a xlink:title=" ">
<polygon fill="#e0e0e0" stroke="#999999" points="551.62,-20 500.38,-20 500.38,0 551.62,0 551.62,-20"/>
<text text-anchor="middle" x="526" y="-6.5" font-family="Helvetica,sans-Serif" font-size="10.00">QDebug</text>
</a>
</g>
</g>
<!-- Node1&#45;&gt;Node3 -->
<g id="edge37_Node000001_Node000003" class="edge">
<title>Node1&#45;&gt;Node3</title>
<g id="a_edge37_Node000001_Node000003"><a xlink:title=" ">
<path fill="none" stroke="#63b8ff" d="M325.42,-334.56C487.27,-327.5 834,-300.3 834,-197 834,-197 834,-197 834,-133 834,-75.37 645.27,-33.21 563.28,-17.61"/>
<polygon fill="#63b8ff" stroke="#63b8ff" points="563.95,-14.18 553.48,-15.78 562.67,-21.06 563.95,-14.18"/>
</a>
</g>
</g>
<!-- Node4 -->
<g id="Node000004" class="node">
<title>Node4</title>
<g id="a_Node000004"><a xlink:title=" ">
<polygon fill="#e0e0e0" stroke="#999999" points="228.38,-20 187.62,-20 187.62,0 228.38,0 228.38,-20"/>
<text text-anchor="middle" x="208" y="-6.5" font-family="Helvetica,sans-Serif" font-size="10.00">QtSql</text>
</a>
</g>
</g>
<!-- Node1&#45;&gt;Node4 -->
<g id="edge38_Node000001_Node000004" class="edge">
<title>Node1&#45;&gt;Node4</title>
<g id="a_edge38_Node000001_Node000004"><a xlink:title=" ">
<path fill="none" stroke="#63b8ff" d="M162.41,-324.71C91.48,-308.85 0,-273.55 0,-197 0,-197 0,-197 0,-133 0,-93.36 13.58,-80.17 45,-56 83.68,-26.25 140.84,-16.16 176.18,-12.75"/>
<polygon fill="#63b8ff" stroke="#63b8ff" points="176.09,-16.27 185.77,-11.95 175.51,-9.29 176.09,-16.27"/>
</a>
</g>
</g>
<!-- Node7 -->
<g id="Node000007" class="node">
<title>Node7</title>
<g id="a_Node000007"><a xlink:href="../../d5/dcc/objecthandler_8hpp.html" target="_top" xlink:title=" ">
<polygon fill="white" stroke="#666666" points="304.25,-144 211.75,-144 211.75,-124 304.25,-124 304.25,-144"/>
<text text-anchor="middle" x="258" y="-130.5" font-family="Helvetica,sans-Serif" font-size="10.00">objecthandler.hpp</text>
</a>
</g>
</g>
<!-- Node1&#45;&gt;Node7 -->
<g id="edge16_Node000001_Node000007" class="edge">
<title>Node1&#45;&gt;Node7</title>
<g id="a_edge16_Node000001_Node000007"><a xlink:title=" ">
<path fill="none" stroke="#63b8ff" d="M245.47,-315.76C248.17,-276.81 253.88,-194.41 256.56,-155.79"/>
<polygon fill="#63b8ff" stroke="#63b8ff" points="260.04,-156.23 257.24,-146.01 253.05,-155.74 260.04,-156.23"/>
</a>
</g>
</g>
<!-- Node8 -->
<g id="Node000008" class="node">
<title>Node8</title>
<g id="a_Node000008"><a xlink:title=" ">
<polygon fill="#e0e0e0" stroke="#999999" points="137.75,-82 66.25,-82 66.25,-62 137.75,-62 137.75,-82"/>
<text text-anchor="middle" x="102" y="-68.5" font-family="Helvetica,sans-Serif" font-size="10.00">QApplication</text>
</a>
</g>
</g>
<!-- Node1&#45;&gt;Node8 -->
<g id="edge36_Node000001_Node000008" class="edge">
<title>Node1&#45;&gt;Node8</title>
<g id="a_edge36_Node000001_Node000008"><a xlink:title=" ">
<path fill="none" stroke="#63b8ff" d="M203.57,-315.63C168.31,-294.53 119.41,-258.66 97,-212 78.42,-173.32 88.05,-121.36 95.67,-93.2"/>
<polygon fill="#63b8ff" stroke="#63b8ff" points="98.96,-94.41 98.4,-83.83 92.24,-92.45 98.96,-94.41"/>
</a>
</g>
</g>
<!-- Node11 -->
<g id="Node000011" class="node">
<title>Node11</title>
<g id="a_Node000011"><a xlink:href="../../da/d25/windowhandler_8hpp.html" target="_top" xlink:title=" ">
<polygon fill="white" stroke="#666666" points="528.75,-280 397.25,-280 397.25,-248 528.75,-248 528.75,-280"/>
<text text-anchor="start" x="405.25" y="-266.5" font-family="Helvetica,sans-Serif" font-size="10.00">../classes/frontendClasses</text>
<text text-anchor="middle" x="463" y="-254.5" font-family="Helvetica,sans-Serif" font-size="10.00">/windowhandler.hpp</text>
</a>
</g>
</g>
<!-- Node1&#45;&gt;Node11 -->
<g id="edge17_Node000001_Node000011" class="edge">
<title>Node1&#45;&gt;Node11</title>
<g id="a_edge17_Node000001_Node000011"><a xlink:title=" ">
<path fill="none" stroke="#63b8ff" d="M309.11,-315.59C339.66,-305.55 375.75,-293.69 405.3,-283.97"/>
<polygon fill="#63b8ff" stroke="#63b8ff" points="406.02,-287.42 414.43,-280.97 403.84,-280.77 406.02,-287.42"/>
</a>
</g>
</g>
<!-- Node2&#45;&gt;Node3 -->
<g id="edge2_Node000002_Node000003" class="edge">
<title>Node2&#45;&gt;Node3</title>
<g id="a_edge2_Node000002_Node000003"><a xlink:title=" ">
<path fill="none" stroke="#63b8ff" d="M175.65,-179.55C179.19,-163.53 186.97,-138.79 203,-124 240.5,-89.41 264.19,-105.8 312,-88 346.73,-75.07 354.26,-68.9 389,-56 422.62,-43.51 461.52,-30.91 489.25,-22.23"/>
<polygon fill="#63b8ff" stroke="#63b8ff" points="490.09,-25.64 498.6,-19.33 488.01,-18.95 490.09,-25.64"/>
</a>
</g>
</g>
<!-- Node2&#45;&gt;Node4 -->
<g id="edge3_Node000002_Node000004" class="edge">
<title>Node2&#45;&gt;Node4</title>
<g id="a_edge3_Node000002_Node000004"><a xlink:title=" ">
<path fill="none" stroke="#63b8ff" d="M143.16,-179.61C98.3,-154.45 22.25,-102.62 57,-56 84.32,-19.35 140.32,-11.37 175.91,-10.25"/>
<polygon fill="#63b8ff" stroke="#63b8ff" points="175.66,-13.76 185.61,-10.12 175.57,-6.76 175.66,-13.76"/>
</a>
</g>
</g>
<!-- Node5 -->
<g id="Node000005" class="node">
<title>Node5</title>
<g id="a_Node000005"><a xlink:title=" ">
<polygon fill="#e0e0e0" stroke="#999999" points="156,-144 104,-144 104,-124 156,-124 156,-144"/>
<text text-anchor="middle" x="130" y="-130.5" font-family="Helvetica,sans-Serif" font-size="10.00">QLocale</text>
</a>
</g>
</g>
<!-- Node2&#45;&gt;Node5 -->
<g id="edge4_Node000002_Node000005" class="edge">
<title>Node2&#45;&gt;Node5</title>
<g id="a_edge4_Node000002_Node000005"><a xlink:title=" ">
<path fill="none" stroke="#63b8ff" d="M161.93,-179.55C156.27,-171.65 149.33,-161.97 143.37,-153.66"/>
<polygon fill="#63b8ff" stroke="#63b8ff" points="146.29,-151.73 137.62,-145.64 140.6,-155.81 146.29,-151.73"/>
</a>
</g>
</g>
<!-- Node6 -->
<g id="Node000006" class="node">
<title>Node6</title>
<g id="a_Node000006"><a xlink:title=" ">
<polygon fill="#e0e0e0" stroke="#999999" points="426.12,-144 359.88,-144 359.88,-124 426.12,-124 426.12,-144"/>
<text text-anchor="middle" x="393" y="-130.5" font-family="Helvetica,sans-Serif" font-size="10.00">QTranslator</text>
</a>
</g>
</g>
<!-- Node2&#45;&gt;Node6 -->
<g id="edge5_Node000002_Node000006" class="edge">
<title>Node2&#45;&gt;Node6</title>
<g id="a_edge5_Node000002_Node000006"><a xlink:title=" ">
<path fill="none" stroke="#63b8ff" d="M229.66,-179.55C266.6,-169.47 314.14,-156.51 348.4,-147.16"/>
<polygon fill="#63b8ff" stroke="#63b8ff" points="349.28,-150.55 358.01,-144.54 347.44,-143.8 349.28,-150.55"/>
</a>
</g>
</g>
<!-- Node2&#45;&gt;Node7 -->
<g id="edge6_Node000002_Node000007" class="edge">
<title>Node2&#45;&gt;Node7</title>
<g id="a_edge6_Node000002_Node000007"><a xlink:title=" ">
<path fill="none" stroke="#63b8ff" d="M194.89,-179.55C207.31,-170.78 222.83,-159.83 235.37,-150.97"/>
<polygon fill="#63b8ff" stroke="#63b8ff" points="237.28,-153.91 243.44,-145.28 233.25,-148.19 237.28,-153.91"/>
</a>
</g>
</g>
<!-- Node7&#45;&gt;Node3 -->
<g id="edge8_Node000007_Node000003" class="edge">
<title>Node7&#45;&gt;Node3</title>
<g id="a_edge8_Node000007_Node000003"><a xlink:title=" ">
<path fill="none" stroke="#63b8ff" d="M304.74,-127.32C372.72,-118.65 492.43,-101.68 507,-88 522.27,-73.67 526.1,-49.19 526.7,-31.68"/>
<polygon fill="#63b8ff" stroke="#63b8ff" points="530.2,-31.91 526.68,-21.92 523.2,-31.92 530.2,-31.91"/>
</a>
</g>
</g>
<!-- Node7&#45;&gt;Node4 -->
<g id="edge9_Node000007_Node000004" class="edge">
<title>Node7&#45;&gt;Node4</title>
<g id="a_edge9_Node000007_Node000004"><a xlink:title=" ">
<path fill="none" stroke="#63b8ff" d="M229.95,-123.63C213.69,-116.59 194.58,-105.16 185,-88 174.62,-69.41 184.79,-45.63 194.69,-29.45"/>
<polygon fill="#63b8ff" stroke="#63b8ff" points="197.48,-31.57 200.11,-21.3 191.66,-27.69 197.48,-31.57"/>
</a>
</g>
</g>
<!-- Node7&#45;&gt;Node8 -->
<g id="edge7_Node000007_Node000008" class="edge">
<title>Node7&#45;&gt;Node8</title>
<g id="a_edge7_Node000007_Node000008"><a xlink:title=" ">
<path fill="none" stroke="#63b8ff" d="M233.62,-123.62C207.71,-113.66 166.5,-97.81 137.1,-86.5"/>
<polygon fill="#63b8ff" stroke="#63b8ff" points="138.46,-83.27 127.87,-82.95 135.95,-89.81 138.46,-83.27"/>
</a>
</g>
</g>
<!-- Node9 -->
<g id="Node000009" class="node">
<title>Node9</title>
<g id="a_Node000009"><a xlink:href="../../de/d60/databasehandler_8hpp.html" target="_top" xlink:title=" ">
<polygon fill="white" stroke="#666666" points="303.5,-88 194.5,-88 194.5,-56 303.5,-56 303.5,-88"/>
<text text-anchor="start" x="202.5" y="-74.5" font-family="Helvetica,sans-Serif" font-size="10.00">../databaseClasses</text>
<text text-anchor="middle" x="249" y="-62.5" font-family="Helvetica,sans-Serif" font-size="10.00">/databasehandler.hpp</text>
</a>
</g>
</g>
<!-- Node7&#45;&gt;Node9 -->
<g id="edge10_Node000007_Node000009" class="edge">
<title>Node7&#45;&gt;Node9</title>
<g id="a_edge10_Node000007_Node000009"><a xlink:title=" ">
<path fill="none" stroke="#63b8ff" d="M256.59,-123.62C255.61,-117.1 254.26,-108.05 252.96,-99.4"/>
<polygon fill="#63b8ff" stroke="#63b8ff" points="256.44,-99.01 251.5,-89.64 249.52,-100.05 256.44,-99.01"/>
</a>
</g>
</g>
<!-- Node10 -->
<g id="Node000010" class="node">
<title>Node10</title>
<g id="a_Node000010"><a xlink:href="../../df/d46/tablehandler_8hpp.html" target="_top" xlink:title=" ">
<polygon fill="white" stroke="#666666" points="498,-88 398,-88 398,-56 498,-56 498,-88"/>
<text text-anchor="start" x="406" y="-74.5" font-family="Helvetica,sans-Serif" font-size="10.00">../databaseClasses</text>
<text text-anchor="middle" x="448" y="-62.5" font-family="Helvetica,sans-Serif" font-size="10.00">/tablehandler.hpp</text>
</a>
</g>
</g>
<!-- Node7&#45;&gt;Node10 -->
<g id="edge13_Node000007_Node000010" class="edge">
<title>Node7&#45;&gt;Node10</title>
<g id="a_edge13_Node000007_Node000010"><a xlink:title=" ">
<path fill="none" stroke="#63b8ff" d="M287.69,-123.62C314.53,-115.15 354.85,-102.42 388.34,-91.84"/>
<polygon fill="#63b8ff" stroke="#63b8ff" points="389.02,-95.3 397.5,-88.95 386.91,-88.62 389.02,-95.3"/>
</a>
</g>
</g>
<!-- Node9&#45;&gt;Node3 -->
<g id="edge11_Node000009_Node000003" class="edge">
<title>Node9&#45;&gt;Node3</title>
<g id="a_edge11_Node000009_Node000003"><a xlink:title=" ">
<path fill="none" stroke="#63b8ff" d="M303.73,-59.15C358.64,-47.25 441.7,-29.26 489.2,-18.97"/>
<polygon fill="#63b8ff" stroke="#63b8ff" points="489.68,-22.45 498.71,-16.91 488.19,-15.61 489.68,-22.45"/>
</a>
</g>
</g>
<!-- Node9&#45;&gt;Node4 -->
<g id="edge12_Node000009_Node000004" class="edge">
<title>Node9&#45;&gt;Node4</title>
<g id="a_edge12_Node000009_Node000004"><a xlink:title=" ">
<path fill="none" stroke="#63b8ff" d="M238.44,-55.55C233.04,-47.65 226.43,-37.97 220.75,-29.66"/>
<polygon fill="#63b8ff" stroke="#63b8ff" points="223.81,-27.94 215.28,-21.66 218.03,-31.89 223.81,-27.94"/>
</a>
</g>
</g>
<!-- Node10&#45;&gt;Node3 -->
<g id="edge14_Node000010_Node000003" class="edge">
<title>Node10&#45;&gt;Node3</title>
<g id="a_edge14_Node000010_Node000003"><a xlink:title=" ">
<path fill="none" stroke="#63b8ff" d="M468.09,-55.55C479.37,-46.87 493.44,-36.04 504.89,-27.24"/>
<polygon fill="#63b8ff" stroke="#63b8ff" points="506.78,-30.2 512.57,-21.33 502.51,-24.65 506.78,-30.2"/>
</a>
</g>
</g>
<!-- Node10&#45;&gt;Node4 -->
<g id="edge15_Node000010_Node000004" class="edge">
<title>Node10&#45;&gt;Node4</title>
<g id="a_edge15_Node000010_Node000004"><a xlink:title=" ">
<path fill="none" stroke="#63b8ff" d="M397.69,-58.42C350.02,-46.51 279.91,-28.98 239.62,-18.91"/>
<polygon fill="#63b8ff" stroke="#63b8ff" points="240.63,-15.55 230.08,-16.52 238.93,-22.34 240.63,-15.55"/>
</a>
</g>
</g>
<!-- Node11&#45;&gt;Node7 -->
<g id="edge28_Node000011_Node000007" class="edge">
<title>Node11&#45;&gt;Node7</title>
<g id="a_edge28_Node000011_Node000007"><a xlink:title=" ">
<path fill="none" stroke="#63b8ff" d="M427.42,-247.65C406.9,-238.28 380.9,-225.53 359,-212 329.02,-193.47 297.1,-168.06 277.36,-151.59"/>
<polygon fill="#63b8ff" stroke="#63b8ff" points="279.76,-149.03 269.86,-145.26 275.24,-154.38 279.76,-149.03"/>
</a>
</g>
</g>
<!-- Node12 -->
<g id="Node000012" class="node">
<title>Node12</title>
<g id="a_Node000012"><a xlink:href="../../d2/d3e/launcherwindow_8hpp.html" target="_top" xlink:title=" ">
<polygon fill="white" stroke="#666666" points="569.5,-206 466.5,-206 466.5,-186 569.5,-186 569.5,-206"/>
<text text-anchor="middle" x="518" y="-192.5" font-family="Helvetica,sans-Serif" font-size="10.00">launcherwindow.hpp</text>
</a>
</g>
</g>
<!-- Node11&#45;&gt;Node12 -->
<g id="edge18_Node000011_Node000012" class="edge">
<title>Node11&#45;&gt;Node12</title>
<g id="a_edge18_Node000011_Node000012"><a xlink:title=" ">
<path fill="none" stroke="#63b8ff" d="M475.76,-247.69C483.92,-237.9 494.54,-225.15 503.1,-214.89"/>
<polygon fill="#63b8ff" stroke="#63b8ff" points="505.55,-217.4 509.27,-207.48 500.18,-212.92 505.55,-217.4"/>
</a>
</g>
</g>
<!-- Node15 -->
<g id="Node000015" class="node">
<title>Node15</title>
<g id="a_Node000015"><a xlink:href="../../d5/d65/devwindow_8hpp.html" target="_top" xlink:title=" ">
<polygon fill="white" stroke="#666666" points="448.25,-206 367.75,-206 367.75,-186 448.25,-186 448.25,-206"/>
<text text-anchor="middle" x="408" y="-192.5" font-family="Helvetica,sans-Serif" font-size="10.00">devwindow.hpp</text>
</a>
</g>
</g>
<!-- Node11&#45;&gt;Node15 -->
<g id="edge22_Node000011_Node000015" class="edge">
<title>Node11&#45;&gt;Node15</title>
<g id="a_edge22_Node000011_Node000015"><a xlink:title=" ">
<path fill="none" stroke="#63b8ff" d="M450.24,-247.69C442.08,-237.9 431.46,-225.15 422.9,-214.89"/>
<polygon fill="#63b8ff" stroke="#63b8ff" points="425.82,-212.92 416.73,-207.48 420.45,-217.4 425.82,-212.92"/>
</a>
</g>
</g>
<!-- Node16 -->
<g id="Node000016" class="node">
<title>Node16</title>
<g id="a_Node000016"><a xlink:href="../../df/db5/settingswindow_8hpp.html" target="_top" xlink:title=" ">
<polygon fill="white" stroke="#666666" points="688.38,-206 587.62,-206 587.62,-186 688.38,-186 688.38,-206"/>
<text text-anchor="middle" x="638" y="-192.5" font-family="Helvetica,sans-Serif" font-size="10.00">settingswindow.hpp</text>
</a>
</g>
</g>
<!-- Node11&#45;&gt;Node16 -->
<g id="edge29_Node000011_Node000016" class="edge">
<title>Node11&#45;&gt;Node16</title>
<g id="a_edge29_Node000011_Node000016"><a xlink:title=" ">
<path fill="none" stroke="#63b8ff" d="M504.03,-247.53C533.82,-236.29 573.73,-221.24 602.22,-210.49"/>
<polygon fill="#63b8ff" stroke="#63b8ff" points="603.38,-213.8 611.5,-206.99 600.91,-207.25 603.38,-213.8"/>
</a>
</g>
</g>
<!-- Node18 -->
<g id="Node000018" class="node">
<title>Node18</title>
<g id="a_Node000018"><a xlink:title=" ">
<polygon fill="#e0e0e0" stroke="#999999" points="758,-206 706,-206 706,-186 758,-186 758,-206"/>
<text text-anchor="middle" x="732" y="-192.5" font-family="Helvetica,sans-Serif" font-size="10.00">QObject</text>
</a>
</g>
</g>
<!-- Node11&#45;&gt;Node18 -->
<g id="edge35_Node000011_Node000018" class="edge">
<title>Node11&#45;&gt;Node18</title>
<g id="a_edge35_Node000011_Node000018"><a xlink:title=" ">
<path fill="none" stroke="#63b8ff" d="M529.19,-252.05C576.54,-243.38 641.46,-229.77 697,-212 698.38,-211.56 699.78,-211.08 701.19,-210.58"/>
<polygon fill="#63b8ff" stroke="#63b8ff" points="702.45,-213.85 710.48,-206.94 699.89,-207.33 702.45,-213.85"/>
</a>
</g>
</g>
<!-- Node12&#45;&gt;Node7 -->
<g id="edge20_Node000012_Node000007" class="edge">
<title>Node12&#45;&gt;Node7</title>
<g id="a_edge20_Node000012_Node000007"><a xlink:title=" ">
<path fill="none" stroke="#63b8ff" d="M479.95,-185.53C472.36,-183.67 464.43,-181.75 457,-180 407.95,-168.42 351.95,-155.81 311.87,-146.9"/>
<polygon fill="#63b8ff" stroke="#63b8ff" points="312.75,-143.51 302.23,-144.75 311.23,-150.34 312.75,-143.51"/>
</a>
</g>
</g>
<!-- Node13 -->
<g id="Node000013" class="node">
<title>Node13</title>
<g id="a_Node000013"><a xlink:title=" ">
<polygon fill="#e0e0e0" stroke="#999999" points="561.5,-144 482.5,-144 482.5,-124 561.5,-124 561.5,-144"/>
<text text-anchor="middle" x="522" y="-130.5" font-family="Helvetica,sans-Serif" font-size="10.00">QMainWindow</text>
</a>
</g>
</g>
<!-- Node12&#45;&gt;Node13 -->
<g id="edge19_Node000012_Node000013" class="edge">
<title>Node12&#45;&gt;Node13</title>
<g id="a_edge19_Node000012_Node000013"><a xlink:title=" ">
<path fill="none" stroke="#63b8ff" d="M518.62,-185.62C519.16,-177.56 519.96,-165.65 520.64,-155.41"/>
<polygon fill="#63b8ff" stroke="#63b8ff" points="524.12,-155.83 521.29,-145.62 517.13,-155.37 524.12,-155.83"/>
</a>
</g>
</g>
<!-- Node14 -->
<g id="Node000014" class="node">
<title>Node14</title>
<g id="a_Node000014"><a xlink:href="../../d7/dfa/translatablewindow_8hpp.html" target="_top" xlink:title=" ">
<polygon fill="white" stroke="#666666" points="696.25,-144 579.75,-144 579.75,-124 696.25,-124 696.25,-144"/>
<text text-anchor="middle" x="638" y="-130.5" font-family="Helvetica,sans-Serif" font-size="10.00">translatablewindow.hpp</text>
</a>
</g>
</g>
<!-- Node12&#45;&gt;Node14 -->
<g id="edge21_Node000012_Node000014" class="edge">
<title>Node12&#45;&gt;Node14</title>
<g id="a_edge21_Node000012_Node000014"><a xlink:title=" ">
<path fill="none" stroke="#63b8ff" d="M536.75,-185.62C556.21,-175.89 586.9,-160.55 609.39,-149.31"/>
<polygon fill="#63b8ff" stroke="#63b8ff" points="610.65,-152.59 618.03,-144.99 607.52,-146.33 610.65,-152.59"/>
</a>
</g>
</g>
<!-- Node15&#45;&gt;Node3 -->
<g id="edge24_Node000015_Node000003" class="edge">
<title>Node15&#45;&gt;Node3</title>
<g id="a_edge24_Node000015_Node000003"><a xlink:title=" ">
<path fill="none" stroke="#63b8ff" d="M415.49,-185.58C427.11,-171.3 450.59,-143.75 474,-124 496.33,-105.16 515.11,-113.7 529,-88 538.43,-70.56 535.93,-47.5 532.16,-31.18"/>
<polygon fill="#63b8ff" stroke="#63b8ff" points="535.58,-30.42 529.6,-21.67 528.82,-32.24 535.58,-30.42"/>
</a>
</g>
</g>
<!-- Node15&#45;&gt;Node4 -->
<g id="edge25_Node000015_Node000004" class="edge">
<title>Node15&#45;&gt;Node4</title>
<g id="a_edge25_Node000015_Node000004"><a xlink:title=" ">
<path fill="none" stroke="#63b8ff" d="M394.76,-185.76C382.16,-176.42 363.34,-160.96 351,-144 325.83,-109.41 342.38,-86.12 312,-56 292.13,-36.3 262.24,-24.6 239.6,-18.09"/>
<polygon fill="#63b8ff" stroke="#63b8ff" points="240.54,-14.72 229.97,-15.54 238.74,-21.49 240.54,-14.72"/>
</a>
</g>
</g>
<!-- Node15&#45;&gt;Node7 -->
<g id="edge26_Node000015_Node000007" class="edge">
<title>Node15&#45;&gt;Node7</title>
<g id="a_edge26_Node000015_Node000007"><a xlink:title=" ">
<path fill="none" stroke="#63b8ff" d="M384.56,-185.62C359.68,-175.67 320.14,-159.85 291.87,-148.55"/>
<polygon fill="#63b8ff" stroke="#63b8ff" points="293.26,-145.34 282.68,-144.87 290.66,-151.83 293.26,-145.34"/>
</a>
</g>
</g>
<!-- Node15&#45;&gt;Node13 -->
<g id="edge23_Node000015_Node000013" class="edge">
<title>Node15&#45;&gt;Node13</title>
<g id="a_edge23_Node000015_Node000013"><a xlink:title=" ">
<path fill="none" stroke="#63b8ff" d="M425.81,-185.62C444.13,-175.98 472.92,-160.83 494.24,-149.61"/>
<polygon fill="#63b8ff" stroke="#63b8ff" points="495.75,-152.77 502.97,-145.01 492.49,-146.57 495.75,-152.77"/>
</a>
</g>
</g>
<!-- Node15&#45;&gt;Node14 -->
<g id="edge27_Node000015_Node000014" class="edge">
<title>Node15&#45;&gt;Node14</title>
<g id="a_edge27_Node000015_Node000014"><a xlink:title=" ">
<path fill="none" stroke="#63b8ff" d="M438.61,-185.57C445,-183.67 451.71,-181.73 458,-180 501.35,-168.09 550.93,-155.79 587.06,-147.07"/>
<polygon fill="#63b8ff" stroke="#63b8ff" points="587.45,-150.57 596.35,-144.83 585.81,-143.77 587.45,-150.57"/>
</a>
</g>
</g>
<!-- Node16&#45;&gt;Node3 -->
<g id="edge31_Node000016_Node000003" class="edge">
<title>Node16&#45;&gt;Node3</title>
<g id="a_edge31_Node000016_Node000003"><a xlink:title=" ">
<path fill="none" stroke="#63b8ff" d="M659.03,-185.55C683.58,-173.07 719.16,-149.68 705,-124 674.87,-69.34 605.94,-37.48 562.95,-22.21"/>
<polygon fill="#63b8ff" stroke="#63b8ff" points="564.12,-18.91 553.53,-19 561.86,-25.54 564.12,-18.91"/>
</a>
</g>
</g>
<!-- Node16&#45;&gt;Node6 -->
<g id="edge34_Node000016_Node000006" class="edge">
<title>Node16&#45;&gt;Node6</title>
<g id="a_edge34_Node000016_Node000006"><a xlink:title=" ">
<path fill="none" stroke="#63b8ff" d="M601.19,-185.57C593.85,-183.71 586.18,-181.78 579,-180 530.64,-168 475.1,-154.62 437.39,-145.59"/>
<polygon fill="#63b8ff" stroke="#63b8ff" points="438.3,-142.21 427.76,-143.28 436.68,-149.01 438.3,-142.21"/>
</a>
</g>
</g>
<!-- Node16&#45;&gt;Node7 -->
<g id="edge32_Node000016_Node000007" class="edge">
<title>Node16&#45;&gt;Node7</title>
<g id="a_edge32_Node000016_Node000007"><a xlink:title=" ">
<path fill="none" stroke="#63b8ff" d="M603.51,-185.56C595.5,-183.55 586.99,-181.57 579,-180 487.58,-162.03 380.15,-148.48 315.65,-141.15"/>
<polygon fill="#63b8ff" stroke="#63b8ff" points="316.35,-137.71 306.02,-140.07 315.56,-144.66 316.35,-137.71"/>
</a>
</g>
</g>
<!-- Node16&#45;&gt;Node14 -->
<g id="edge33_Node000016_Node000014" class="edge">
<title>Node16&#45;&gt;Node14</title>
<g id="a_edge33_Node000016_Node000014"><a xlink:title=" ">
<path fill="none" stroke="#63b8ff" d="M638,-185.62C638,-177.56 638,-165.65 638,-155.41"/>
<polygon fill="#63b8ff" stroke="#63b8ff" points="641.5,-155.63 638,-145.63 634.5,-155.63 641.5,-155.63"/>
</a>
</g>
</g>
<!-- Node17 -->
<g id="Node000017" class="node">
<title>Node17</title>
<g id="a_Node000017"><a xlink:title=" ">
<polygon fill="#e0e0e0" stroke="#999999" points="806.12,-144 751.88,-144 751.88,-124 806.12,-124 806.12,-144"/>
<text text-anchor="middle" x="779" y="-130.5" font-family="Helvetica,sans-Serif" font-size="10.00">QWidget</text>
</a>
</g>
</g>
<!-- Node16&#45;&gt;Node17 -->
<g id="edge30_Node000016_Node000017" class="edge">
<title>Node16&#45;&gt;Node17</title>
<g id="a_edge30_Node000016_Node000017"><a xlink:title=" ">
<path fill="none" stroke="#63b8ff" d="M660.03,-185.62C683.31,-175.72 720.26,-159.99 746.81,-148.7"/>
<polygon fill="#63b8ff" stroke="#63b8ff" points="747.9,-152.04 755.73,-144.9 745.16,-145.6 747.9,-152.04"/>
</a>
</g>
</g>
</g>
</svg>
