<?xml version="1.0" encoding="UTF-8" standalone="no"?>
<!DOCTYPE svg PUBLIC "-//W3C//DTD SVG 1.1//EN"
 "http://www.w3.org/Graphics/SVG/1.1/DTD/svg11.dtd">
<!-- Generated by graphviz version 9.0.0 (20230911.1827)
 -->
<!-- Title: AposBackend::StartupHandler::startUp Pages: 1 -->
<svg width="522pt" height="90pt"
 viewBox="0.00 0.00 521.75 90.00" xmlns="http://www.w3.org/2000/svg" xmlns:xlink="http://www.w3.org/1999/xlink">
<g id="graph0" class="graph" transform="scale(1 1) rotate(0) translate(4 86)">
<title>AposBackend::StartupHandler::startUp</title>
<!-- Node1 -->
<g id="Node000001" class="node">
<title>Node1</title>
<g id="a_Node000001"><a xlink:title="Initializes the application&#39;s translator and ObjectHandler.">
<polygon fill="#999999" stroke="#666666" points="147.25,-57 0,-57 0,-25 147.25,-25 147.25,-57"/>
<text text-anchor="start" x="8" y="-43.5" font-family="Helvetica,sans-Serif" font-size="10.00">AposBackend::StartupHandler</text>
<text text-anchor="middle" x="73.62" y="-31.5" font-family="Helvetica,sans-Serif" font-size="10.00">::startUp</text>
</a>
</g>
</g>
<!-- Node2 -->
<g id="Node000002" class="node">
<title>Node2</title>
<g id="a_Node000002"><a xlink:href="../../de/dc6/group___initialization.html#gaeaab7554c87adccfd8bd5aab2297c8a8" target="_top" xlink:title="Initializes the application&#39;s ObjectHandler.">
<polygon fill="white" stroke="#666666" points="330.5,-82 183.25,-82 183.25,-50 330.5,-50 330.5,-82"/>
<text text-anchor="start" x="191.25" y="-68.5" font-family="Helvetica,sans-Serif" font-size="10.00">AposBackend::StartupHandler</text>
<text text-anchor="middle" x="256.88" y="-56.5" font-family="Helvetica,sans-Serif" font-size="10.00">::initObjectHandler</text>
</a>
</g>
</g>
<!-- Node1&#45;&gt;Node2 -->
<g id="edge1_Node000001_Node000002" class="edge">
<title>Node1&#45;&gt;Node2</title>
<g id="a_edge1_Node000001_Node000002"><a xlink:title=" ">
<path fill="none" stroke="#63b8ff" d="M147.56,-51.06C155.45,-52.15 163.53,-53.26 171.54,-54.37"/>
<polygon fill="#63b8ff" stroke="#63b8ff" points="170.91,-57.81 181.29,-55.71 171.86,-50.88 170.91,-57.81"/>
</a>
</g>
</g>
<!-- Node3 -->
<g id="Node000003" class="node">
<title>Node3</title>
<g id="a_Node000003"><a xlink:href="../../de/dc6/group___initialization.html#gac6e06b1a893afdf477c3efa74c2f072c" target="_top" xlink:title="Installs the application&#39;s translator.">
<polygon fill="white" stroke="#666666" points="330.5,-32 183.25,-32 183.25,0 330.5,0 330.5,-32"/>
<text text-anchor="start" x="191.25" y="-18.5" font-family="Helvetica,sans-Serif" font-size="10.00">AposBackend::StartupHandler</text>
<text text-anchor="middle" x="256.88" y="-6.5" font-family="Helvetica,sans-Serif" font-size="10.00">::installTranslator</text>
</a>
</g>
</g>
<!-- Node1&#45;&gt;Node3 -->
<g id="edge2_Node000001_Node000003" class="edge">
<title>Node1&#45;&gt;Node3</title>
<g id="a_edge2_Node000001_Node000003"><a xlink:title=" ">
<path fill="none" stroke="#63b8ff" d="M147.56,-30.94C155.45,-29.85 163.53,-28.74 171.54,-27.63"/>
<polygon fill="#63b8ff" stroke="#63b8ff" points="171.86,-31.12 181.29,-26.29 170.91,-24.19 171.86,-31.12"/>
</a>
</g>
</g>
<!-- Node4 -->
<g id="Node000004" class="node">
<title>Node4</title>
<g id="a_Node000004"><a xlink:href="../../de/dc6/group___initialization.html#gab6fdaf5f748968ddfe136d8e6562c664" target="_top" xlink:title="Initializes the application&#39;s translator.">
<polygon fill="white" stroke="#666666" points="513.75,-32 366.5,-32 366.5,0 513.75,0 513.75,-32"/>
<text text-anchor="start" x="374.5" y="-18.5" font-family="Helvetica,sans-Serif" font-size="10.00">AposBackend::StartupHandler</text>
<text text-anchor="middle" x="440.12" y="-6.5" font-family="Helvetica,sans-Serif" font-size="10.00">::initTranslator</text>
</a>
</g>
</g>
<!-- Node3&#45;&gt;Node4 -->
<g id="edge3_Node000003_Node000004" class="edge">
<title>Node3&#45;&gt;Node4</title>
<g id="a_edge3_Node000003_Node000004"><a xlink:title=" ">
<path fill="none" stroke="#63b8ff" d="M330.81,-16C338.7,-16 346.78,-16 354.79,-16"/>
<polygon fill="#63b8ff" stroke="#63b8ff" points="354.53,-19.5 364.53,-16 354.53,-12.5 354.53,-19.5"/>
</a>
</g>
</g>
</g>
</svg>
