<?xml version="1.0" encoding="UTF-8" standalone="no"?>
<!DOCTYPE svg PUBLIC "-//W3C//DTD SVG 1.1//EN"
 "http://www.w3.org/Graphics/SVG/1.1/DTD/svg11.dtd">
<!-- Generated by graphviz version 9.0.0 (20230911.1827)
 -->
<!-- Title: C:/Users/Clean/Documents/Projekte/Apos&#45;DatabaseManager/Project/classes/backendClasses/startuphandler.hpp Pages: 1 -->
<svg width="581pt" height="244pt"
 viewBox="0.00 0.00 580.64 244.00" xmlns="http://www.w3.org/2000/svg" xmlns:xlink="http://www.w3.org/1999/xlink">
<g id="graph0" class="graph" transform="scale(1 1) rotate(0) translate(4 240)">
<title>C:/Users/Clean/Documents/Projekte/Apos&#45;DatabaseManager/Project/classes/backendClasses/startuphandler.hpp</title>
<!-- Node1 -->
<g id="Node000001" class="node">
<title>Node1</title>
<g id="a_Node000001"><a xlink:title=" ">
<polygon fill="#999999" stroke="#666666" points="489.64,-236 327.39,-236 327.39,-180 489.64,-180 489.64,-236"/>
<text text-anchor="start" x="335.39" y="-222.5" font-family="Helvetica,sans-Serif" font-size="10.00">C:/Users/Clean/Documents</text>
<text text-anchor="start" x="335.39" y="-210.5" font-family="Helvetica,sans-Serif" font-size="10.00">/Projekte/Apos&#45;DatabaseManager</text>
<text text-anchor="start" x="335.39" y="-198.5" font-family="Helvetica,sans-Serif" font-size="10.00">/Project/classes/backendClasses</text>
<text text-anchor="middle" x="408.51" y="-186.5" font-family="Helvetica,sans-Serif" font-size="10.00">/startuphandler.hpp</text>
</a>
</g>
</g>
<!-- Node2 -->
<g id="Node000002" class="node">
<title>Node2</title>
<g id="a_Node000002"><a xlink:title=" ">
<polygon fill="#e0e0e0" stroke="#999999" points="64.14,-20 12.89,-20 12.89,0 64.14,0 64.14,-20"/>
<text text-anchor="middle" x="38.51" y="-6.5" font-family="Helvetica,sans-Serif" font-size="10.00">QDebug</text>
</a>
</g>
</g>
<!-- Node1&#45;&gt;Node2 -->
<g id="edge1_Node000001_Node000002" class="edge">
<title>Node1&#45;&gt;Node2</title>
<g id="a_edge1_Node000001_Node000002"><a xlink:title=" ">
<path fill="none" stroke="#63b8ff" d="M327.2,-194.62C221.01,-176.59 44.05,-139.57 5.51,-88 -8.15,-69.72 7.34,-44.91 21.37,-28.45"/>
<polygon fill="#63b8ff" stroke="#63b8ff" points="23.66,-31.13 27.81,-21.38 18.49,-26.42 23.66,-31.13"/>
</a>
</g>
</g>
<!-- Node3 -->
<g id="Node000003" class="node">
<title>Node3</title>
<g id="a_Node000003"><a xlink:title=" ">
<polygon fill="#e0e0e0" stroke="#999999" points="306.89,-20 266.14,-20 266.14,0 306.89,0 306.89,-20"/>
<text text-anchor="middle" x="286.51" y="-6.5" font-family="Helvetica,sans-Serif" font-size="10.00">QtSql</text>
</a>
</g>
</g>
<!-- Node1&#45;&gt;Node3 -->
<g id="edge2_Node000001_Node000003" class="edge">
<title>Node1&#45;&gt;Node3</title>
<g id="a_edge2_Node000001_Node000003"><a xlink:title=" ">
<path fill="none" stroke="#63b8ff" d="M407.38,-179.64C404.72,-147.01 395.98,-92.36 367.51,-56 354.9,-39.9 334.83,-28.69 317.83,-21.49"/>
<polygon fill="#63b8ff" stroke="#63b8ff" points="319.2,-18.27 308.62,-17.87 316.65,-24.78 319.2,-18.27"/>
</a>
</g>
</g>
<!-- Node4 -->
<g id="Node000004" class="node">
<title>Node4</title>
<g id="a_Node000004"><a xlink:title=" ">
<polygon fill="#e0e0e0" stroke="#999999" points="488.51,-144 436.51,-144 436.51,-124 488.51,-124 488.51,-144"/>
<text text-anchor="middle" x="462.51" y="-130.5" font-family="Helvetica,sans-Serif" font-size="10.00">QLocale</text>
</a>
</g>
</g>
<!-- Node1&#45;&gt;Node4 -->
<g id="edge3_Node000001_Node000004" class="edge">
<title>Node1&#45;&gt;Node4</title>
<g id="a_edge3_Node000001_Node000004"><a xlink:title=" ">
<path fill="none" stroke="#63b8ff" d="M428.93,-179.78C435.48,-171.04 442.58,-161.57 448.56,-153.6"/>
<polygon fill="#63b8ff" stroke="#63b8ff" points="451.3,-155.78 454.5,-145.68 445.7,-151.58 451.3,-155.78"/>
</a>
</g>
</g>
<!-- Node5 -->
<g id="Node000005" class="node">
<title>Node5</title>
<g id="a_Node000005"><a xlink:title=" ">
<polygon fill="#e0e0e0" stroke="#999999" points="572.64,-144 506.39,-144 506.39,-124 572.64,-124 572.64,-144"/>
<text text-anchor="middle" x="539.51" y="-130.5" font-family="Helvetica,sans-Serif" font-size="10.00">QTranslator</text>
</a>
</g>
</g>
<!-- Node1&#45;&gt;Node5 -->
<g id="edge4_Node000001_Node000005" class="edge">
<title>Node1&#45;&gt;Node5</title>
<g id="a_edge4_Node000001_Node000005"><a xlink:title=" ">
<path fill="none" stroke="#63b8ff" d="M458.41,-179.57C476.74,-169.5 496.8,-158.47 512.38,-149.91"/>
<polygon fill="#63b8ff" stroke="#63b8ff" points="513.98,-153.03 521.05,-145.14 510.6,-146.89 513.98,-153.03"/>
</a>
</g>
</g>
<!-- Node6 -->
<g id="Node000006" class="node">
<title>Node6</title>
<g id="a_Node000006"><a xlink:href="../../d5/dcc/objecthandler_8hpp.html" target="_top" xlink:title=" ">
<polygon fill="white" stroke="#666666" points="300.76,-144 208.26,-144 208.26,-124 300.76,-124 300.76,-144"/>
<text text-anchor="middle" x="254.51" y="-130.5" font-family="Helvetica,sans-Serif" font-size="10.00">objecthandler.hpp</text>
</a>
</g>
</g>
<!-- Node1&#45;&gt;Node6 -->
<g id="edge5_Node000001_Node000006" class="edge">
<title>Node1&#45;&gt;Node6</title>
<g id="a_edge5_Node000001_Node000006"><a xlink:title=" ">
<path fill="none" stroke="#63b8ff" d="M349.85,-179.57C327.68,-169.21 303.36,-157.84 284.83,-149.17"/>
<polygon fill="#63b8ff" stroke="#63b8ff" points="286.56,-146.12 276.02,-145.06 283.6,-152.46 286.56,-146.12"/>
</a>
</g>
</g>
<!-- Node6&#45;&gt;Node2 -->
<g id="edge7_Node000006_Node000002" class="edge">
<title>Node6&#45;&gt;Node2</title>
<g id="a_edge7_Node000006_Node000002"><a xlink:title=" ">
<path fill="none" stroke="#63b8ff" d="M207.89,-131.05C145.38,-127.35 39.46,-116.88 15.51,-88 1.72,-71.37 13.03,-46.68 24.12,-29.77"/>
<polygon fill="#63b8ff" stroke="#63b8ff" points="26.97,-31.81 29.89,-21.62 21.26,-27.76 26.97,-31.81"/>
</a>
</g>
</g>
<!-- Node6&#45;&gt;Node3 -->
<g id="edge8_Node000006_Node000003" class="edge">
<title>Node6&#45;&gt;Node3</title>
<g id="a_edge8_Node000006_Node000003"><a xlink:title=" ">
<path fill="none" stroke="#63b8ff" d="M299.67,-123.55C319.1,-117 339.97,-106.07 351.51,-88 359.16,-76.01 358.11,-68.6 351.51,-56 344.22,-42.09 330.46,-31.63 317.48,-24.3"/>
<polygon fill="#63b8ff" stroke="#63b8ff" points="319.2,-21.26 308.71,-19.79 316,-27.48 319.2,-21.26"/>
</a>
</g>
</g>
<!-- Node7 -->
<g id="Node000007" class="node">
<title>Node7</title>
<g id="a_Node000007"><a xlink:title=" ">
<polygon fill="#e0e0e0" stroke="#999999" points="342.26,-82 270.76,-82 270.76,-62 342.26,-62 342.26,-82"/>
<text text-anchor="middle" x="306.51" y="-68.5" font-family="Helvetica,sans-Serif" font-size="10.00">QApplication</text>
</a>
</g>
</g>
<!-- Node6&#45;&gt;Node7 -->
<g id="edge6_Node000006_Node000007" class="edge">
<title>Node6&#45;&gt;Node7</title>
<g id="a_edge6_Node000006_Node000007"><a xlink:title=" ">
<path fill="none" stroke="#63b8ff" d="M262.64,-123.62C270.23,-114.86 281.78,-101.53 291.13,-90.75"/>
<polygon fill="#63b8ff" stroke="#63b8ff" points="293.72,-93.11 297.62,-83.26 288.43,-88.52 293.72,-93.11"/>
</a>
</g>
</g>
<!-- Node8 -->
<g id="Node000008" class="node">
<title>Node8</title>
<g id="a_Node000008"><a xlink:href="../../de/d60/databasehandler_8hpp.html" target="_top" xlink:title=" ">
<polygon fill="white" stroke="#666666" points="134.01,-88 25.01,-88 25.01,-56 134.01,-56 134.01,-88"/>
<text text-anchor="start" x="33.01" y="-74.5" font-family="Helvetica,sans-Serif" font-size="10.00">../databaseClasses</text>
<text text-anchor="middle" x="79.51" y="-62.5" font-family="Helvetica,sans-Serif" font-size="10.00">/databasehandler.hpp</text>
</a>
</g>
</g>
<!-- Node6&#45;&gt;Node8 -->
<g id="edge9_Node000006_Node000008" class="edge">
<title>Node6&#45;&gt;Node8</title>
<g id="a_edge9_Node000006_Node000008"><a xlink:title=" ">
<path fill="none" stroke="#63b8ff" d="M227.17,-123.62C202.66,-115.22 165.95,-102.64 135.26,-92.12"/>
<polygon fill="#63b8ff" stroke="#63b8ff" points="136.72,-88.91 126.12,-88.98 134.45,-95.54 136.72,-88.91"/>
</a>
</g>
</g>
<!-- Node9 -->
<g id="Node000009" class="node">
<title>Node9</title>
<g id="a_Node000009"><a xlink:href="../../df/d46/tablehandler_8hpp.html" target="_top" xlink:title=" ">
<polygon fill="white" stroke="#666666" points="252.51,-88 152.51,-88 152.51,-56 252.51,-56 252.51,-88"/>
<text text-anchor="start" x="160.51" y="-74.5" font-family="Helvetica,sans-Serif" font-size="10.00">../databaseClasses</text>
<text text-anchor="middle" x="202.51" y="-62.5" font-family="Helvetica,sans-Serif" font-size="10.00">/tablehandler.hpp</text>
</a>
</g>
</g>
<!-- Node6&#45;&gt;Node9 -->
<g id="edge12_Node000006_Node000009" class="edge">
<title>Node6&#45;&gt;Node9</title>
<g id="a_edge12_Node000006_Node000009"><a xlink:title=" ">
<path fill="none" stroke="#63b8ff" d="M246.39,-123.62C240.15,-116.43 231.26,-106.17 223.11,-96.77"/>
<polygon fill="#63b8ff" stroke="#63b8ff" points="225.82,-94.55 216.62,-89.28 220.53,-99.13 225.82,-94.55"/>
</a>
</g>
</g>
<!-- Node8&#45;&gt;Node2 -->
<g id="edge10_Node000008_Node000002" class="edge">
<title>Node8&#45;&gt;Node2</title>
<g id="a_edge10_Node000008_Node000002"><a xlink:title=" ">
<path fill="none" stroke="#63b8ff" d="M68.95,-55.55C63.55,-47.65 56.94,-37.97 51.26,-29.66"/>
<polygon fill="#63b8ff" stroke="#63b8ff" points="54.32,-27.94 45.79,-21.66 48.54,-31.89 54.32,-27.94"/>
</a>
</g>
</g>
<!-- Node8&#45;&gt;Node3 -->
<g id="edge11_Node000008_Node000003" class="edge">
<title>Node8&#45;&gt;Node3</title>
<g id="a_edge11_Node000008_Node000003"><a xlink:title=" ">
<path fill="none" stroke="#63b8ff" d="M132.82,-55.55C171.44,-44.35 222.36,-29.59 254.78,-20.2"/>
<polygon fill="#63b8ff" stroke="#63b8ff" points="255.75,-23.56 264.38,-17.42 253.8,-16.84 255.75,-23.56"/>
</a>
</g>
</g>
<!-- Node9&#45;&gt;Node2 -->
<g id="edge13_Node000009_Node000002" class="edge">
<title>Node9&#45;&gt;Node2</title>
<g id="a_edge13_Node000009_Node000002"><a xlink:title=" ">
<path fill="none" stroke="#63b8ff" d="M160.28,-55.55C133.82,-45.87 100.08,-33.53 74.83,-24.29"/>
<polygon fill="#63b8ff" stroke="#63b8ff" points="76.24,-21.08 65.65,-20.93 73.84,-27.65 76.24,-21.08"/>
</a>
</g>
</g>
<!-- Node9&#45;&gt;Node3 -->
<g id="edge14_Node000009_Node000003" class="edge">
<title>Node9&#45;&gt;Node3</title>
<g id="a_edge14_Node000009_Node000003"><a xlink:title=" ">
<path fill="none" stroke="#63b8ff" d="M224.14,-55.55C236.42,-46.78 251.75,-35.83 264.15,-26.97"/>
<polygon fill="#63b8ff" stroke="#63b8ff" points="266,-29.95 272.11,-21.29 261.94,-24.25 266,-29.95"/>
</a>
</g>
</g>
</g>
</svg>
