<?xml version="1.0" encoding="UTF-8" standalone="no"?>
<!DOCTYPE svg PUBLIC "-//W3C//DTD SVG 1.1//EN"
 "http://www.w3.org/Graphics/SVG/1.1/DTD/svg11.dtd">
<!-- Generated by graphviz version 9.0.0 (20230911.1827)
 -->
<!-- Title: C:/Users/Clean/Documents/Projekte/Apos&#45;DatabaseManager/Project/classes/frontendClasses/devwindow.hpp Pages: 1 -->
<svg width="710pt" height="244pt"
 viewBox="0.00 0.00 709.75 244.00" xmlns="http://www.w3.org/2000/svg" xmlns:xlink="http://www.w3.org/1999/xlink">
<g id="graph0" class="graph" transform="scale(1 1) rotate(0) translate(4 240)">
<title>C:/Users/Clean/Documents/Projekte/Apos&#45;DatabaseManager/Project/classes/frontendClasses/devwindow.hpp</title>
<!-- Node1 -->
<g id="Node000001" class="node">
<title>Node1</title>
<g id="a_Node000001"><a xlink:title=" ">
<polygon fill="#999999" stroke="#666666" points="432.62,-236 270.38,-236 270.38,-180 432.62,-180 432.62,-236"/>
<text text-anchor="start" x="278.38" y="-222.5" font-family="Helvetica,sans-Serif" font-size="10.00">C:/Users/Clean/Documents</text>
<text text-anchor="start" x="278.38" y="-210.5" font-family="Helvetica,sans-Serif" font-size="10.00">/Projekte/Apos&#45;DatabaseManager</text>
<text text-anchor="start" x="278.38" y="-198.5" font-family="Helvetica,sans-Serif" font-size="10.00">/Project/classes/frontendClasses</text>
<text text-anchor="middle" x="351.5" y="-186.5" font-family="Helvetica,sans-Serif" font-size="10.00">/devwindow.hpp</text>
</a>
</g>
</g>
<!-- Node2 -->
<g id="Node000002" class="node">
<title>Node2</title>
<g id="a_Node000002"><a xlink:title=" ">
<polygon fill="#e0e0e0" stroke="#999999" points="79,-144 0,-144 0,-124 79,-124 79,-144"/>
<text text-anchor="middle" x="39.5" y="-130.5" font-family="Helvetica,sans-Serif" font-size="10.00">QMainWindow</text>
</a>
</g>
</g>
<!-- Node1&#45;&gt;Node2 -->
<g id="edge1_Node000001_Node000002" class="edge">
<title>Node1&#45;&gt;Node2</title>
<g id="a_edge1_Node000001_Node000002"><a xlink:title=" ">
<path fill="none" stroke="#63b8ff" d="M269.93,-188.18C213.1,-175.06 139.06,-157.97 90.44,-146.76"/>
<polygon fill="#63b8ff" stroke="#63b8ff" points="91.27,-143.35 80.73,-144.52 89.69,-150.17 91.27,-143.35"/>
</a>
</g>
</g>
<!-- Node3 -->
<g id="Node000003" class="node">
<title>Node3</title>
<g id="a_Node000003"><a xlink:title=" ">
<polygon fill="#e0e0e0" stroke="#999999" points="213.12,-20 161.88,-20 161.88,0 213.12,0 213.12,-20"/>
<text text-anchor="middle" x="187.5" y="-6.5" font-family="Helvetica,sans-Serif" font-size="10.00">QDebug</text>
</a>
</g>
</g>
<!-- Node1&#45;&gt;Node3 -->
<g id="edge2_Node000001_Node000003" class="edge">
<title>Node1&#45;&gt;Node3</title>
<g id="a_edge2_Node000001_Node000003"><a xlink:title=" ">
<path fill="none" stroke="#63b8ff" d="M270.08,-180.14C227.54,-161.48 179.29,-131.93 154.5,-88 143.51,-68.52 157.64,-44.65 170.67,-28.7"/>
<polygon fill="#63b8ff" stroke="#63b8ff" points="173.06,-31.28 177.02,-21.45 167.8,-26.67 173.06,-31.28"/>
</a>
</g>
</g>
<!-- Node4 -->
<g id="Node000004" class="node">
<title>Node4</title>
<g id="a_Node000004"><a xlink:title=" ">
<polygon fill="#e0e0e0" stroke="#999999" points="455.88,-20 415.12,-20 415.12,0 455.88,0 455.88,-20"/>
<text text-anchor="middle" x="435.5" y="-6.5" font-family="Helvetica,sans-Serif" font-size="10.00">QtSql</text>
</a>
</g>
</g>
<!-- Node1&#45;&gt;Node4 -->
<g id="edge3_Node000001_Node000004" class="edge">
<title>Node1&#45;&gt;Node4</title>
<g id="a_edge3_Node000001_Node000004"><a xlink:title=" ">
<path fill="none" stroke="#63b8ff" d="M416.98,-179.52C454.01,-160.02 496.75,-129.84 516.5,-88 522.57,-75.14 523.71,-68.26 516.5,-56 505.83,-37.86 484.9,-26.51 467,-19.74"/>
<polygon fill="#63b8ff" stroke="#63b8ff" points="468.38,-16.52 457.79,-16.59 466.12,-23.14 468.38,-16.52"/>
</a>
</g>
</g>
<!-- Node5 -->
<g id="Node000005" class="node">
<title>Node5</title>
<g id="a_Node000005"><a xlink:href="../../d5/dcc/objecthandler_8hpp.html" target="_top" xlink:title=" ">
<polygon fill="white" stroke="#666666" points="439.75,-144 263.25,-144 263.25,-124 439.75,-124 439.75,-144"/>
<text text-anchor="middle" x="351.5" y="-130.5" font-family="Helvetica,sans-Serif" font-size="10.00">../backendClasses/objecthandler.hpp</text>
</a>
</g>
</g>
<!-- Node1&#45;&gt;Node5 -->
<g id="edge4_Node000001_Node000005" class="edge">
<title>Node1&#45;&gt;Node5</title>
<g id="a_edge4_Node000001_Node000005"><a xlink:title=" ">
<path fill="none" stroke="#63b8ff" d="M351.5,-179.78C351.5,-171.82 351.5,-163.25 351.5,-155.76"/>
<polygon fill="#63b8ff" stroke="#63b8ff" points="355,-155.99 351.5,-145.99 348,-155.99 355,-155.99"/>
</a>
</g>
</g>
<!-- Node9 -->
<g id="Node000009" class="node">
<title>Node9</title>
<g id="a_Node000009"><a xlink:href="../../d7/dfa/translatablewindow_8hpp.html" target="_top" xlink:title=" ">
<polygon fill="white" stroke="#666666" points="701.75,-144 585.25,-144 585.25,-124 701.75,-124 701.75,-144"/>
<text text-anchor="middle" x="643.5" y="-130.5" font-family="Helvetica,sans-Serif" font-size="10.00">translatablewindow.hpp</text>
</a>
</g>
</g>
<!-- Node1&#45;&gt;Node9 -->
<g id="edge14_Node000001_Node000009" class="edge">
<title>Node1&#45;&gt;Node9</title>
<g id="a_edge14_Node000001_Node000009"><a xlink:title=" ">
<path fill="none" stroke="#63b8ff" d="M432.84,-186.94C484.69,-174.16 550.17,-158.01 594.25,-147.14"/>
<polygon fill="#63b8ff" stroke="#63b8ff" points="594.92,-150.58 603.79,-144.79 593.24,-143.79 594.92,-150.58"/>
</a>
</g>
</g>
<!-- Node5&#45;&gt;Node3 -->
<g id="edge6_Node000005_Node000003" class="edge">
<title>Node5&#45;&gt;Node3</title>
<g id="a_edge6_Node000005_Node000003"><a xlink:title=" ">
<path fill="none" stroke="#63b8ff" d="M270.71,-123.54C226.5,-116.52 178.01,-105.15 164.5,-88 151.06,-70.94 162.47,-46.15 173.48,-29.34"/>
<polygon fill="#63b8ff" stroke="#63b8ff" points="176.26,-31.47 179.18,-21.29 170.55,-27.43 176.26,-31.47"/>
</a>
</g>
</g>
<!-- Node5&#45;&gt;Node4 -->
<g id="edge7_Node000005_Node000004" class="edge">
<title>Node5&#45;&gt;Node4</title>
<g id="a_edge7_Node000005_Node000004"><a xlink:title=" ">
<path fill="none" stroke="#63b8ff" d="M439.91,-125.4C463.28,-118.88 486,-107.53 500.5,-88 508.98,-76.58 507.1,-68.6 500.5,-56 493.21,-42.09 479.45,-31.63 466.47,-24.3"/>
<polygon fill="#63b8ff" stroke="#63b8ff" points="468.19,-21.26 457.7,-19.79 464.99,-27.48 468.19,-21.26"/>
</a>
</g>
</g>
<!-- Node6 -->
<g id="Node000006" class="node">
<title>Node6</title>
<g id="a_Node000006"><a xlink:title=" ">
<polygon fill="#e0e0e0" stroke="#999999" points="491.25,-82 419.75,-82 419.75,-62 491.25,-62 491.25,-82"/>
<text text-anchor="middle" x="455.5" y="-68.5" font-family="Helvetica,sans-Serif" font-size="10.00">QApplication</text>
</a>
</g>
</g>
<!-- Node5&#45;&gt;Node6 -->
<g id="edge5_Node000005_Node000006" class="edge">
<title>Node5&#45;&gt;Node6</title>
<g id="a_edge5_Node000005_Node000006"><a xlink:title=" ">
<path fill="none" stroke="#63b8ff" d="M367.75,-123.62C384.31,-114.07 410.25,-99.11 429.64,-87.92"/>
<polygon fill="#63b8ff" stroke="#63b8ff" points="431.14,-91.09 438.05,-83.07 427.64,-85.03 431.14,-91.09"/>
</a>
</g>
</g>
<!-- Node7 -->
<g id="Node000007" class="node">
<title>Node7</title>
<g id="a_Node000007"><a xlink:href="../../de/d60/databasehandler_8hpp.html" target="_top" xlink:title=" ">
<polygon fill="white" stroke="#666666" points="283,-88 174,-88 174,-56 283,-56 283,-88"/>
<text text-anchor="start" x="182" y="-74.5" font-family="Helvetica,sans-Serif" font-size="10.00">../databaseClasses</text>
<text text-anchor="middle" x="228.5" y="-62.5" font-family="Helvetica,sans-Serif" font-size="10.00">/databasehandler.hpp</text>
</a>
</g>
</g>
<!-- Node5&#45;&gt;Node7 -->
<g id="edge8_Node000005_Node000007" class="edge">
<title>Node5&#45;&gt;Node7</title>
<g id="a_edge8_Node000005_Node000007"><a xlink:title=" ">
<path fill="none" stroke="#63b8ff" d="M332.28,-123.62C315.75,-115.56 291.32,-103.64 270.31,-93.4"/>
<polygon fill="#63b8ff" stroke="#63b8ff" points="271.9,-90.28 261.38,-89.04 268.83,-96.57 271.9,-90.28"/>
</a>
</g>
</g>
<!-- Node8 -->
<g id="Node000008" class="node">
<title>Node8</title>
<g id="a_Node000008"><a xlink:href="../../df/d46/tablehandler_8hpp.html" target="_top" xlink:title=" ">
<polygon fill="white" stroke="#666666" points="401.5,-88 301.5,-88 301.5,-56 401.5,-56 401.5,-88"/>
<text text-anchor="start" x="309.5" y="-74.5" font-family="Helvetica,sans-Serif" font-size="10.00">../databaseClasses</text>
<text text-anchor="middle" x="351.5" y="-62.5" font-family="Helvetica,sans-Serif" font-size="10.00">/tablehandler.hpp</text>
</a>
</g>
</g>
<!-- Node5&#45;&gt;Node8 -->
<g id="edge11_Node000005_Node000008" class="edge">
<title>Node5&#45;&gt;Node8</title>
<g id="a_edge11_Node000005_Node000008"><a xlink:title=" ">
<path fill="none" stroke="#63b8ff" d="M351.5,-123.62C351.5,-117.1 351.5,-108.05 351.5,-99.4"/>
<polygon fill="#63b8ff" stroke="#63b8ff" points="355,-99.65 351.5,-89.65 348,-99.65 355,-99.65"/>
</a>
</g>
</g>
<!-- Node7&#45;&gt;Node3 -->
<g id="edge9_Node000007_Node000003" class="edge">
<title>Node7&#45;&gt;Node3</title>
<g id="a_edge9_Node000007_Node000003"><a xlink:title=" ">
<path fill="none" stroke="#63b8ff" d="M217.94,-55.55C212.54,-47.65 205.93,-37.97 200.25,-29.66"/>
<polygon fill="#63b8ff" stroke="#63b8ff" points="203.31,-27.94 194.78,-21.66 197.53,-31.89 203.31,-27.94"/>
</a>
</g>
</g>
<!-- Node7&#45;&gt;Node4 -->
<g id="edge10_Node000007_Node000004" class="edge">
<title>Node7&#45;&gt;Node4</title>
<g id="a_edge10_Node000007_Node000004"><a xlink:title=" ">
<path fill="none" stroke="#63b8ff" d="M281.81,-55.55C320.43,-44.35 371.35,-29.59 403.77,-20.2"/>
<polygon fill="#63b8ff" stroke="#63b8ff" points="404.74,-23.56 413.37,-17.42 402.79,-16.84 404.74,-23.56"/>
</a>
</g>
</g>
<!-- Node8&#45;&gt;Node3 -->
<g id="edge12_Node000008_Node000003" class="edge">
<title>Node8&#45;&gt;Node3</title>
<g id="a_edge12_Node000008_Node000003"><a xlink:title=" ">
<path fill="none" stroke="#63b8ff" d="M309.27,-55.55C282.81,-45.87 249.07,-33.53 223.82,-24.29"/>
<polygon fill="#63b8ff" stroke="#63b8ff" points="225.23,-21.08 214.64,-20.93 222.83,-27.65 225.23,-21.08"/>
</a>
</g>
</g>
<!-- Node8&#45;&gt;Node4 -->
<g id="edge13_Node000008_Node000004" class="edge">
<title>Node8&#45;&gt;Node4</title>
<g id="a_edge13_Node000008_Node000004"><a xlink:title=" ">
<path fill="none" stroke="#63b8ff" d="M373.13,-55.55C385.41,-46.78 400.74,-35.83 413.14,-26.97"/>
<polygon fill="#63b8ff" stroke="#63b8ff" points="414.99,-29.95 421.1,-21.29 410.93,-24.25 414.99,-29.95"/>
</a>
</g>
</g>
</g>
</svg>
