<?xml version="1.0" encoding="UTF-8" standalone="no"?>
<!DOCTYPE svg PUBLIC "-//W3C//DTD SVG 1.1//EN"
 "http://www.w3.org/Graphics/SVG/1.1/DTD/svg11.dtd">
<!-- Generated by graphviz version 9.0.0 (20230911.1827)
 -->
<!-- Title: C:/Users/Clean/Documents/Projekte/Apos&#45;DatabaseManager/Project/classes/frontendClasses/devwindow.hpp Pages: 1 -->
<svg xmlns:xlink="http://www.w3.org/1999/xlink" width="622pt"
 height="312pt" viewBox="0.00 0.00 621.75 312.00" xmlns="http://www.w3.org/2000/svg">
<g id="graph0" class="graph" transform="scale(1 1) rotate(0) translate(4 308)">
<title>C:/Users/Clean/Documents/Projekte/Apos&#45;DatabaseManager/Project/classes/frontendClasses/devwindow.hpp</title>
<!-- Node1 -->
<g id="Node000001" class="node">
<title>Node1</title>
<g id="a_Node000001"><a xlink:title="Header file for the DevWindow class.">
<polygon fill="#999999" stroke="#666666" points="384.62,-304 222.38,-304 222.38,-248 384.62,-248 384.62,-304"/>
<text text-anchor="start" x="230.38" y="-290.5" font-family="Helvetica,sans-Serif" font-size="10.00">C:/Users/Clean/Documents</text>
<text text-anchor="start" x="230.38" y="-278.5" font-family="Helvetica,sans-Serif" font-size="10.00">/Projekte/Apos&#45;DatabaseManager</text>
<text text-anchor="start" x="230.38" y="-266.5" font-family="Helvetica,sans-Serif" font-size="10.00">/Project/classes/frontendClasses</text>
<text text-anchor="middle" x="303.5" y="-254.5" font-family="Helvetica,sans-Serif" font-size="10.00">/devwindow.hpp</text>
</a>
</g>
</g>
<!-- Node2 -->
<g id="Node000002" class="node">
<title>Node2</title>
<g id="a_Node000002"><a xlink:title=" ">
<polygon fill="#e0e0e0" stroke="#999999" points="79,-212 0,-212 0,-192 79,-192 79,-212"/>
<text text-anchor="middle" x="39.5" y="-198.5" font-family="Helvetica,sans-Serif" font-size="10.00">QMainWindow</text>
</a>
</g>
</g>
<!-- Node1&#45;&gt;Node2 -->
<g id="edge1_Node000001_Node000002" class="edge">
<title>Node1&#45;&gt;Node2</title>
<g id="a_edge1_Node000001_Node000002"><a xlink:title=" ">
<path fill="none" stroke="#63b8ff" d="M222.14,-252.81C176.91,-240.48 122.33,-225.59 84.68,-215.32"/>
<polygon fill="#63b8ff" stroke="#63b8ff" points="86.08,-212.08 75.52,-212.82 84.24,-218.83 86.08,-212.08"/>
</a>
</g>
</g>
<!-- Node3 -->
<g id="Node000003" class="node">
<title>Node3</title>
<g id="a_Node000003"><a xlink:title=" ">
<polygon fill="#e0e0e0" stroke="#999999" points="190.12,-20 138.88,-20 138.88,0 190.12,0 190.12,-20"/>
<text text-anchor="middle" x="164.5" y="-6.5" font-family="Helvetica,sans-Serif" font-size="10.00">QDebug</text>
</a>
</g>
</g>
<!-- Node1&#45;&gt;Node3 -->
<g id="edge2_Node000001_Node000003" class="edge">
<title>Node1&#45;&gt;Node3</title>
<g id="a_edge2_Node000001_Node000003"><a xlink:title=" ">
<path fill="none" stroke="#63b8ff" d="M243.99,-247.6C208.75,-227.75 167.42,-197.15 148.5,-156 129.92,-115.58 135.27,-99.51 144.5,-56 146.36,-47.23 150.05,-38.1 153.76,-30.38"/>
<polygon fill="#63b8ff" stroke="#63b8ff" points="156.81,-32.1 158.3,-21.61 150.59,-28.88 156.81,-32.1"/>
</a>
</g>
</g>
<!-- Node4 -->
<g id="Node000004" class="node">
<title>Node4</title>
<g id="a_Node000004"><a xlink:title=" ">
<polygon fill="#e0e0e0" stroke="#999999" points="365.88,-20 325.12,-20 325.12,0 365.88,0 365.88,-20"/>
<text text-anchor="middle" x="345.5" y="-6.5" font-family="Helvetica,sans-Serif" font-size="10.00">QtSql</text>
</a>
</g>
</g>
<!-- Node1&#45;&gt;Node4 -->
<g id="edge3_Node000001_Node000004" class="edge">
<title>Node1&#45;&gt;Node4</title>
<g id="a_edge3_Node000001_Node000004"><a xlink:title=" ">
<path fill="none" stroke="#63b8ff" d="M361.15,-247.69C395.28,-227.79 434.82,-197.11 450.5,-156 470.84,-102.69 408,-51.26 370.83,-26.44"/>
<polygon fill="#63b8ff" stroke="#63b8ff" points="373.12,-23.76 362.83,-21.26 369.32,-29.64 373.12,-23.76"/>
</a>
</g>
</g>
<!-- Node5 -->
<g id="Node000005" class="node">
<title>Node5</title>
<g id="a_Node000005"><a xlink:href="../../d5/dcc/objecthandler_8hpp.html" target="_top" xlink:title="Header file for the ObjectHandler class.">
<polygon fill="white" stroke="#666666" points="391.75,-212 215.25,-212 215.25,-192 391.75,-192 391.75,-212"/>
<text text-anchor="middle" x="303.5" y="-198.5" font-family="Helvetica,sans-Serif" font-size="10.00">../backendClasses/objecthandler.hpp</text>
</a>
</g>
</g>
<!-- Node1&#45;&gt;Node5 -->
<g id="edge4_Node000001_Node000005" class="edge">
<title>Node1&#45;&gt;Node5</title>
<g id="a_edge4_Node000001_Node000005"><a xlink:title=" ">
<path fill="none" stroke="#63b8ff" d="M303.5,-247.78C303.5,-239.82 303.5,-231.25 303.5,-223.76"/>
<polygon fill="#63b8ff" stroke="#63b8ff" points="307,-223.99 303.5,-213.99 300,-223.99 307,-223.99"/>
</a>
</g>
</g>
<!-- Node9 -->
<g id="Node000009" class="node">
<title>Node9</title>
<g id="a_Node000009"><a xlink:href="../../d7/dfa/translatablewindow_8hpp.html" target="_top" xlink:title="Header file for the TranslatableWindow class.">
<polygon fill="white" stroke="#666666" points="613.75,-212 497.25,-212 497.25,-192 613.75,-192 613.75,-212"/>
<text text-anchor="middle" x="555.5" y="-198.5" font-family="Helvetica,sans-Serif" font-size="10.00">translatablewindow.hpp</text>
</a>
</g>
</g>
<!-- Node1&#45;&gt;Node9 -->
<g id="edge15_Node000001_Node000009" class="edge">
<title>Node1&#45;&gt;Node9</title>
<g id="a_edge15_Node000001_Node000009"><a xlink:title=" ">
<path fill="none" stroke="#63b8ff" d="M384.97,-251.72C427.01,-239.71 476.64,-225.53 511.49,-215.57"/>
<polygon fill="#63b8ff" stroke="#63b8ff" points="512.14,-219.03 520.8,-212.91 510.22,-212.3 512.14,-219.03"/>
</a>
</g>
</g>
<!-- Node5&#45;&gt;Node3 -->
<g id="edge6_Node000005_Node000003" class="edge">
<title>Node5&#45;&gt;Node3</title>
<g id="a_edge6_Node000005_Node000003"><a xlink:title=" ">
<path fill="none" stroke="#63b8ff" d="M220.48,-191.54C199.22,-184.94 178.66,-174 165.5,-156 138.47,-119.03 149.35,-61.37 157.92,-31.1"/>
<polygon fill="#63b8ff" stroke="#63b8ff" points="161.21,-32.31 160.77,-21.73 154.51,-30.27 161.21,-32.31"/>
</a>
</g>
</g>
<!-- Node5&#45;&gt;Node4 -->
<g id="edge7_Node000005_Node000004" class="edge">
<title>Node5&#45;&gt;Node4</title>
<g id="a_edge7_Node000005_Node000004"><a xlink:title=" ">
<path fill="none" stroke="#63b8ff" d="M311.32,-191.51C326.01,-173 357.23,-130.2 368.5,-88 372.17,-74.26 371.83,-69.83 368.5,-56 366.35,-47.07 362.11,-37.92 357.86,-30.22"/>
<polygon fill="#63b8ff" stroke="#63b8ff" points="360.95,-28.57 352.81,-21.78 354.94,-32.16 360.95,-28.57"/>
</a>
</g>
</g>
<!-- Node6 -->
<g id="Node000006" class="node">
<title>Node6</title>
<g id="a_Node000006"><a xlink:title=" ">
<polygon fill="#e0e0e0" stroke="#999999" points="441.25,-150 369.75,-150 369.75,-130 441.25,-130 441.25,-150"/>
<text text-anchor="middle" x="405.5" y="-136.5" font-family="Helvetica,sans-Serif" font-size="10.00">QApplication</text>
</a>
</g>
</g>
<!-- Node5&#45;&gt;Node6 -->
<g id="edge5_Node000005_Node000006" class="edge">
<title>Node5&#45;&gt;Node6</title>
<g id="a_edge5_Node000005_Node000006"><a xlink:title=" ">
<path fill="none" stroke="#63b8ff" d="M319.44,-191.62C335.61,-182.11 360.89,-167.24 379.87,-156.08"/>
<polygon fill="#63b8ff" stroke="#63b8ff" points="381.53,-159.16 388.37,-151.08 377.98,-153.13 381.53,-159.16"/>
</a>
</g>
</g>
<!-- Node7 -->
<g id="Node000007" class="node">
<title>Node7</title>
<g id="a_Node000007"><a xlink:href="../../de/d60/databasehandler_8hpp.html" target="_top" xlink:title="Header file for the DatabaseHandler class.">
<polygon fill="white" stroke="#666666" points="359,-88 250,-88 250,-56 359,-56 359,-88"/>
<text text-anchor="start" x="258" y="-74.5" font-family="Helvetica,sans-Serif" font-size="10.00">../databaseClasses</text>
<text text-anchor="middle" x="304.5" y="-62.5" font-family="Helvetica,sans-Serif" font-size="10.00">/databasehandler.hpp</text>
</a>
</g>
</g>
<!-- Node5&#45;&gt;Node7 -->
<g id="edge8_Node000005_Node000007" class="edge">
<title>Node5&#45;&gt;Node7</title>
<g id="a_edge8_Node000005_Node000007"><a xlink:title=" ">
<path fill="none" stroke="#63b8ff" d="M303.57,-191.79C303.72,-172.73 304.07,-128.33 304.29,-99.54"/>
<polygon fill="#63b8ff" stroke="#63b8ff" points="307.79,-99.81 304.37,-89.79 300.79,-99.76 307.79,-99.81"/>
</a>
</g>
</g>
<!-- Node8 -->
<g id="Node000008" class="node">
<title>Node8</title>
<g id="a_Node000008"><a xlink:href="../../df/d46/tablehandler_8hpp.html" target="_top" xlink:title="Header file for the TableHandler class.">
<polygon fill="white" stroke="#666666" points="274.5,-156 174.5,-156 174.5,-124 274.5,-124 274.5,-156"/>
<text text-anchor="start" x="182.5" y="-142.5" font-family="Helvetica,sans-Serif" font-size="10.00">../databaseClasses</text>
<text text-anchor="middle" x="224.5" y="-130.5" font-family="Helvetica,sans-Serif" font-size="10.00">/tablehandler.hpp</text>
</a>
</g>
</g>
<!-- Node5&#45;&gt;Node8 -->
<g id="edge11_Node000005_Node000008" class="edge">
<title>Node5&#45;&gt;Node8</title>
<g id="a_edge11_Node000005_Node000008"><a xlink:title=" ">
<path fill="none" stroke="#63b8ff" d="M291.16,-191.62C281.17,-184.04 266.69,-173.05 253.78,-163.24"/>
<polygon fill="#63b8ff" stroke="#63b8ff" points="256.03,-160.55 245.95,-157.29 251.79,-166.12 256.03,-160.55"/>
</a>
</g>
</g>
<!-- Node7&#45;&gt;Node3 -->
<g id="edge9_Node000007_Node000003" class="edge">
<title>Node7&#45;&gt;Node3</title>
<g id="a_edge9_Node000007_Node000003"><a xlink:title=" ">
<path fill="none" stroke="#63b8ff" d="M268.45,-55.55C246.37,-46.09 218.35,-34.08 196.96,-24.91"/>
<polygon fill="#63b8ff" stroke="#63b8ff" points="198.41,-21.73 187.84,-21 195.66,-28.16 198.41,-21.73"/>
</a>
</g>
</g>
<!-- Node7&#45;&gt;Node4 -->
<g id="edge10_Node000007_Node000004" class="edge">
<title>Node7&#45;&gt;Node4</title>
<g id="a_edge10_Node000007_Node000004"><a xlink:title=" ">
<path fill="none" stroke="#63b8ff" d="M315.06,-55.55C320.46,-47.65 327.07,-37.97 332.75,-29.66"/>
<polygon fill="#63b8ff" stroke="#63b8ff" points="335.47,-31.89 338.22,-21.66 329.69,-27.94 335.47,-31.89"/>
</a>
</g>
</g>
<!-- Node8&#45;&gt;Node3 -->
<g id="edge12_Node000008_Node000003" class="edge">
<title>Node8&#45;&gt;Node3</title>
<g id="a_edge12_Node000008_Node000003"><a xlink:title=" ">
<path fill="none" stroke="#63b8ff" d="M217.26,-123.56C206.34,-100.27 185.66,-56.15 173.69,-30.61"/>
<polygon fill="#63b8ff" stroke="#63b8ff" points="176.93,-29.27 169.51,-21.7 170.59,-32.24 176.93,-29.27"/>
</a>
</g>
</g>
<!-- Node8&#45;&gt;Node4 -->
<g id="edge13_Node000008_Node000004" class="edge">
<title>Node8&#45;&gt;Node4</title>
<g id="a_edge13_Node000008_Node000004"><a xlink:title=" ">
<path fill="none" stroke="#63b8ff" d="M223.63,-123.76C223.41,-105.64 225.73,-75.41 241.5,-56 259.43,-33.92 290.28,-22.43 313.74,-16.61"/>
<polygon fill="#63b8ff" stroke="#63b8ff" points="314.42,-20.04 323.42,-14.45 312.89,-13.21 314.42,-20.04"/>
</a>
</g>
</g>
<!-- Node8&#45;&gt;Node7 -->
<g id="edge14_Node000008_Node000007" class="edge">
<title>Node8&#45;&gt;Node7</title>
<g id="a_edge14_Node000008_Node000007"><a xlink:title=" ">
<path fill="none" stroke="#63b8ff" d="M243.05,-123.69C253.18,-115.34 265.91,-104.84 277.15,-95.56"/>
<polygon fill="#63b8ff" stroke="#63b8ff" points="279.11,-98.48 284.6,-89.42 274.66,-93.08 279.11,-98.48"/>
</a>
</g>
</g>
</g>
</svg>
