<?xml version="1.0" encoding="UTF-8" standalone="no"?>
<!DOCTYPE svg PUBLIC "-//W3C//DTD SVG 1.1//EN"
 "http://www.w3.org/Graphics/SVG/1.1/DTD/svg11.dtd">
<!-- Generated by graphviz version 9.0.0 (20230911.1827)
 -->
<!-- Title: ObjectHandler Pages: 1 -->
<svg width="194pt" height="96pt"
 viewBox="0.00 0.00 194.12 96.00" xmlns="http://www.w3.org/2000/svg" xmlns:xlink="http://www.w3.org/1999/xlink">
<g id="graph0" class="graph" transform="scale(1 1) rotate(0) translate(4 92)">
<title>ObjectHandler</title>
<!-- Node1 -->
<g id="Node000001" class="node">
<title>Node1</title>
<g id="a_Node000001"><a xlink:title=" ">
<polygon fill="#999999" stroke="#666666" points="132.88,-20 55.38,-20 55.38,0 132.88,0 132.88,-20"/>
<text text-anchor="middle" x="94.12" y="-6.5" font-family="Helvetica,sans-Serif" font-size="10.00">ObjectHandler</text>
</a>
</g>
</g>
<!-- Node2 -->
<g id="Node000002" class="node">
<title>Node2</title>
<g id="a_Node000002"><a xlink:href="../../d5/da6/class_database_handler.html" target="_top" xlink:title=" ">
<polygon fill="white" stroke="#666666" points="90.25,-88 0,-88 0,-68 90.25,-68 90.25,-88"/>
<text text-anchor="middle" x="45.12" y="-74.5" font-family="Helvetica,sans-Serif" font-size="10.00">DatabaseHandler</text>
</a>
</g>
</g>
<!-- Node2&#45;&gt;Node1 -->
<g id="edge1_Node000001_Node000002" class="edge">
<title>Node2&#45;&gt;Node1</title>
<g id="a_edge1_Node000001_Node000002"><a xlink:title=" ">
<path fill="none" stroke="#9a32cd" stroke-dasharray="5,2" d="M58.85,-58.52C68.04,-46.13 79.77,-30.33 87.12,-20.44"/>
<polygon fill="#9a32cd" stroke="#9a32cd" points="56.2,-56.21 53.05,-66.33 61.82,-60.39 56.2,-56.21"/>
</a>
</g>
<text text-anchor="middle" x="96.38" y="-40.5" font-family="Helvetica,sans-Serif" font-size="10.00" fill="grey"> dbHandler</text>
</g>
<!-- Node3 -->
<g id="Node000003" class="node">
<title>Node3</title>
<g id="a_Node000003"><a xlink:href="../../dd/d68/class_table_handler.html" target="_top" xlink:title=" ">
<polygon fill="white" stroke="#666666" points="180.25,-88 108,-88 108,-68 180.25,-68 180.25,-88"/>
<text text-anchor="middle" x="144.12" y="-74.5" font-family="Helvetica,sans-Serif" font-size="10.00">TableHandler</text>
</a>
</g>
</g>
<!-- Node3&#45;&gt;Node1 -->
<g id="edge2_Node000001_Node000003" class="edge">
<title>Node3&#45;&gt;Node1</title>
<g id="a_edge2_Node000001_Node000003"><a xlink:title=" ">
<path fill="none" stroke="#9a32cd" stroke-dasharray="5,2" d="M134.59,-57.53C131.05,-51.06 126.76,-43.99 122.12,-38 117.17,-31.59 110.7,-25.26 105.24,-20.34"/>
<polygon fill="#9a32cd" stroke="#9a32cd" points="131.37,-58.92 139.07,-66.2 137.59,-55.71 131.37,-58.92"/>
</a>
</g>
<text text-anchor="middle" x="157.62" y="-40.5" font-family="Helvetica,sans-Serif" font-size="10.00" fill="grey"> tableHandler</text>
</g>
</g>
</svg>
