<?xml version="1.0" encoding="UTF-8" standalone="no"?>
<!DOCTYPE svg PUBLIC "-//W3C//DTD SVG 1.1//EN"
 "http://www.w3.org/Graphics/SVG/1.1/DTD/svg11.dtd">
<!-- Generated by graphviz version 9.0.0 (20230911.1827)
 -->
<!-- Title: main Pages: 1 -->
<svg xmlns:xlink="http://www.w3.org/1999/xlink" width="200pt"
 height="140pt" viewBox="0.00 0.00 199.75 140.00" xmlns="http://www.w3.org/2000/svg">
<g id="graph0" class="graph" transform="scale(1 1) rotate(0) translate(4 136)">
<title>main</title>
<!-- Node1 -->
<g id="Node000001" class="node">
<title>Node1</title>
<g id="a_Node000001"><a xlink:title="Main function.">
<polygon fill="#999999" stroke="#666666" points="37,-76 0,-76 0,-56 37,-56 37,-76"/>
<text text-anchor="middle" x="18.5" y="-62.5" font-family="Helvetica,sans-Serif" font-size="10.00">main</text>
</a>
</g>
</g>
<!-- Node2 -->
<g id="Node000002" class="node">
<title>Node2</title>
<g id="a_Node000002"><a xlink:href="../../d6/de8/namespace_app_initialization.html#aa4ace4d6b094a8873cd99a85fccd33f8" target="_top" xlink:title="Initialize the ObjectHandler object.">
<polygon fill="white" stroke="#666666" points="188.75,-132 76,-132 76,-100 188.75,-100 188.75,-132"/>
<text text-anchor="start" x="84" y="-118.5" font-family="Helvetica,sans-Serif" font-size="10.00">AppInitialization::</text>
<text text-anchor="middle" x="132.38" y="-106.5" font-family="Helvetica,sans-Serif" font-size="10.00">initializeObjectHandler</text>
</a>
</g>
</g>
<!-- Node1&#45;&gt;Node2 -->
<g id="edge1_Node000001_Node000002" class="edge">
<title>Node1&#45;&gt;Node2</title>
<g id="a_edge1_Node000001_Node000002"><a xlink:title=" ">
<path fill="none" stroke="#63b8ff" d="M37.27,-74.48C47.65,-79.39 61.02,-85.64 73,-91 75.92,-92.31 78.94,-93.64 81.98,-94.98"/>
<polygon fill="#63b8ff" stroke="#63b8ff" points="80.41,-98.11 90.97,-98.9 83.2,-91.69 80.41,-98.11"/>
</a>
</g>
</g>
<!-- Node3 -->
<g id="Node000003" class="node">
<title>Node3</title>
<g id="a_Node000003"><a xlink:href="../../d6/de8/namespace_app_initialization.html#a6151e2deab68f647b30a78db30b6a084" target="_top" xlink:title="Initialize the StartupHandler object.">
<polygon fill="white" stroke="#666666" points="190.25,-82 74.5,-82 74.5,-50 190.25,-50 190.25,-82"/>
<text text-anchor="start" x="82.5" y="-68.5" font-family="Helvetica,sans-Serif" font-size="10.00">AppInitialization::</text>
<text text-anchor="middle" x="132.38" y="-56.5" font-family="Helvetica,sans-Serif" font-size="10.00">initializeStartupHandler</text>
</a>
</g>
</g>
<!-- Node1&#45;&gt;Node3 -->
<g id="edge2_Node000001_Node000003" class="edge">
<title>Node1&#45;&gt;Node3</title>
<g id="a_edge2_Node000001_Node000003"><a xlink:title=" ">
<path fill="none" stroke="#63b8ff" d="M37.47,-66C44.68,-66 53.47,-66 62.75,-66"/>
<polygon fill="#63b8ff" stroke="#63b8ff" points="62.73,-69.5 72.73,-66 62.73,-62.5 62.73,-69.5"/>
</a>
</g>
</g>
<!-- Node4 -->
<g id="Node000004" class="node">
<title>Node4</title>
<g id="a_Node000004"><a xlink:href="../../d6/de8/namespace_app_initialization.html#a1106d2231514c4bcd3d477a20eda7e93" target="_top" xlink:title="Initialize the WindowHandler object.">
<polygon fill="white" stroke="#666666" points="191.75,-32 73,-32 73,0 191.75,0 191.75,-32"/>
<text text-anchor="start" x="81" y="-18.5" font-family="Helvetica,sans-Serif" font-size="10.00">AppInitialization::</text>
<text text-anchor="middle" x="132.38" y="-6.5" font-family="Helvetica,sans-Serif" font-size="10.00">initializeWindowHandler</text>
</a>
</g>
</g>
<!-- Node1&#45;&gt;Node4 -->
<g id="edge3_Node000001_Node000004" class="edge">
<title>Node1&#45;&gt;Node4</title>
<g id="a_edge3_Node000001_Node000004"><a xlink:title=" ">
<path fill="none" stroke="#63b8ff" d="M37.27,-57.52C47.65,-52.61 61.02,-46.36 73,-41 75.92,-39.69 78.94,-38.36 81.98,-37.02"/>
<polygon fill="#63b8ff" stroke="#63b8ff" points="83.2,-40.31 90.97,-33.1 80.41,-33.89 83.2,-40.31"/>
</a>
</g>
</g>
</g>
</svg>
