<?xml version="1.0" encoding="UTF-8" standalone="no"?>
<!DOCTYPE svg PUBLIC "-//W3C//DTD SVG 1.1//EN"
 "http://www.w3.org/Graphics/SVG/1.1/DTD/svg11.dtd">
<!-- Generated by graphviz version 9.0.0 (20230911.1827)
 -->
<!-- Title: StartupHandler Pages: 1 -->
<svg width="194pt" height="164pt"
 viewBox="0.00 0.00 194.12 164.00" xmlns="http://www.w3.org/2000/svg" xmlns:xlink="http://www.w3.org/1999/xlink">
<g id="graph0" class="graph" transform="scale(1 1) rotate(0) translate(4 160)">
<title>StartupHandler</title>
<!-- Node1 -->
<g id="Node000001" class="node">
<title>Node1</title>
<g id="a_Node000001"><a xlink:title=" ">
<polygon fill="#999999" stroke="#666666" points="134.38,-20 53.88,-20 53.88,0 134.38,0 134.38,-20"/>
<text text-anchor="middle" x="94.12" y="-6.5" font-family="Helvetica,sans-Serif" font-size="10.00">StartupHandler</text>
</a>
</g>
</g>
<!-- Node2 -->
<g id="Node000002" class="node">
<title>Node2</title>
<g id="a_Node000002"><a xlink:href="../../df/d32/class_object_handler.html" target="_top" xlink:title=" ">
<polygon fill="white" stroke="#666666" points="132.88,-88 55.38,-88 55.38,-68 132.88,-68 132.88,-88"/>
<text text-anchor="middle" x="94.12" y="-74.5" font-family="Helvetica,sans-Serif" font-size="10.00">ObjectHandler</text>
</a>
</g>
</g>
<!-- Node2&#45;&gt;Node1 -->
<g id="edge1_Node000001_Node000002" class="edge">
<title>Node2&#45;&gt;Node1</title>
<g id="a_edge1_Node000001_Node000002"><a xlink:title=" ">
<path fill="none" stroke="#9a32cd" stroke-dasharray="5,2" d="M94.12,-56.28C94.12,-44.27 94.12,-29.74 94.12,-20.44"/>
<polygon fill="#9a32cd" stroke="#9a32cd" points="90.63,-56.03 94.13,-66.03 97.63,-56.03 90.63,-56.03"/>
</a>
</g>
<text text-anchor="middle" x="125.25" y="-40.5" font-family="Helvetica,sans-Serif" font-size="10.00" fill="grey"> objectHandler</text>
</g>
<!-- Node3 -->
<g id="Node000003" class="node">
<title>Node3</title>
<g id="a_Node000003"><a xlink:href="../../d5/da6/class_database_handler.html" target="_top" xlink:title=" ">
<polygon fill="white" stroke="#666666" points="90.25,-156 0,-156 0,-136 90.25,-136 90.25,-156"/>
<text text-anchor="middle" x="45.12" y="-142.5" font-family="Helvetica,sans-Serif" font-size="10.00">DatabaseHandler</text>
</a>
</g>
</g>
<!-- Node3&#45;&gt;Node2 -->
<g id="edge2_Node000002_Node000003" class="edge">
<title>Node3&#45;&gt;Node2</title>
<g id="a_edge2_Node000002_Node000003"><a xlink:title=" ">
<path fill="none" stroke="#9a32cd" stroke-dasharray="5,2" d="M58.85,-126.52C68.04,-114.13 79.77,-98.33 87.12,-88.44"/>
<polygon fill="#9a32cd" stroke="#9a32cd" points="56.2,-124.21 53.05,-134.33 61.82,-128.39 56.2,-124.21"/>
</a>
</g>
<text text-anchor="middle" x="96.38" y="-108.5" font-family="Helvetica,sans-Serif" font-size="10.00" fill="grey"> dbHandler</text>
</g>
<!-- Node4 -->
<g id="Node000004" class="node">
<title>Node4</title>
<g id="a_Node000004"><a xlink:href="../../dd/d68/class_table_handler.html" target="_top" xlink:title=" ">
<polygon fill="white" stroke="#666666" points="180.25,-156 108,-156 108,-136 180.25,-136 180.25,-156"/>
<text text-anchor="middle" x="144.12" y="-142.5" font-family="Helvetica,sans-Serif" font-size="10.00">TableHandler</text>
</a>
</g>
</g>
<!-- Node4&#45;&gt;Node2 -->
<g id="edge3_Node000002_Node000004" class="edge">
<title>Node4&#45;&gt;Node2</title>
<g id="a_edge3_Node000002_Node000004"><a xlink:title=" ">
<path fill="none" stroke="#9a32cd" stroke-dasharray="5,2" d="M134.59,-125.53C131.05,-119.06 126.76,-111.99 122.12,-106 117.17,-99.59 110.7,-93.26 105.24,-88.34"/>
<polygon fill="#9a32cd" stroke="#9a32cd" points="131.37,-126.92 139.07,-134.2 137.59,-123.71 131.37,-126.92"/>
</a>
</g>
<text text-anchor="middle" x="157.62" y="-108.5" font-family="Helvetica,sans-Serif" font-size="10.00" fill="grey"> tableHandler</text>
</g>
</g>
</svg>
