<?xml version="1.0" encoding="UTF-8" standalone="no"?>
<!DOCTYPE svg PUBLIC "-//W3C//DTD SVG 1.1//EN"
 "http://www.w3.org/Graphics/SVG/1.1/DTD/svg11.dtd">
<!-- Generated by graphviz version 9.0.0 (20230911.1827)
 -->
<!-- Title: C:/Users/Clean/Documents/Projekte/Apos&#45;DatabaseManager/Project/classes/backendClasses/startuphandler.hpp Pages: 1 -->
<svg width="508pt" height="312pt"
 viewBox="0.00 0.00 508.29 312.00" xmlns="http://www.w3.org/2000/svg" xmlns:xlink="http://www.w3.org/1999/xlink">
<g id="graph0" class="graph" transform="scale(1 1) rotate(0) translate(4 308)">
<title>C:/Users/Clean/Documents/Projekte/Apos&#45;DatabaseManager/Project/classes/backendClasses/startuphandler.hpp</title>
<!-- Node1 -->
<g id="Node000001" class="node">
<title>Node1</title>
<g id="a_Node000001"><a xlink:title="Header file for the StartupHandler class.">
<polygon fill="#999999" stroke="#666666" points="417.29,-304 255.04,-304 255.04,-248 417.29,-248 417.29,-304"/>
<text text-anchor="start" x="263.04" y="-290.5" font-family="Helvetica,sans-Serif" font-size="10.00">C:/Users/Clean/Documents</text>
<text text-anchor="start" x="263.04" y="-278.5" font-family="Helvetica,sans-Serif" font-size="10.00">/Projekte/Apos&#45;DatabaseManager</text>
<text text-anchor="start" x="263.04" y="-266.5" font-family="Helvetica,sans-Serif" font-size="10.00">/Project/classes/backendClasses</text>
<text text-anchor="middle" x="336.16" y="-254.5" font-family="Helvetica,sans-Serif" font-size="10.00">/startuphandler.hpp</text>
</a>
</g>
</g>
<!-- Node2 -->
<g id="Node000002" class="node">
<title>Node2</title>
<g id="a_Node000002"><a xlink:title=" ">
<polygon fill="#e0e0e0" stroke="#999999" points="55.79,-20 4.54,-20 4.54,0 55.79,0 55.79,-20"/>
<text text-anchor="middle" x="30.16" y="-6.5" font-family="Helvetica,sans-Serif" font-size="10.00">QDebug</text>
</a>
</g>
</g>
<!-- Node1&#45;&gt;Node2 -->
<g id="edge1_Node000001_Node000002" class="edge">
<title>Node1&#45;&gt;Node2</title>
<g id="a_edge1_Node000001_Node000002"><a xlink:title=" ">
<path fill="none" stroke="#63b8ff" d="M254.55,-270.27C178.08,-260.96 67.87,-233.9 15.16,-156 -9.76,-119.16 2.34,-99.6 11.16,-56 12.93,-47.29 16.43,-38.17 19.96,-30.43"/>
<polygon fill="#63b8ff" stroke="#63b8ff" points="23,-32.18 24.27,-21.66 16.71,-29.09 23,-32.18"/>
</a>
</g>
</g>
<!-- Node3 -->
<g id="Node000003" class="node">
<title>Node3</title>
<g id="a_Node000003"><a xlink:title=" ">
<polygon fill="#e0e0e0" stroke="#999999" points="231.54,-20 190.79,-20 190.79,0 231.54,0 231.54,-20"/>
<text text-anchor="middle" x="211.16" y="-6.5" font-family="Helvetica,sans-Serif" font-size="10.00">QtSql</text>
</a>
</g>
</g>
<!-- Node1&#45;&gt;Node3 -->
<g id="edge2_Node000001_Node000003" class="edge">
<title>Node1&#45;&gt;Node3</title>
<g id="a_edge2_Node000001_Node000003"><a xlink:title=" ">
<path fill="none" stroke="#63b8ff" d="M337.67,-247.7C338.31,-216.34 335.99,-164.05 317.16,-124 297.97,-83.17 258.42,-47.33 233.43,-27.47"/>
<polygon fill="#63b8ff" stroke="#63b8ff" points="235.58,-24.71 225.53,-21.36 231.3,-30.25 235.58,-24.71"/>
</a>
</g>
</g>
<!-- Node4 -->
<g id="Node000004" class="node">
<title>Node4</title>
<g id="a_Node000004"><a xlink:title=" ">
<polygon fill="#e0e0e0" stroke="#999999" points="416.16,-212 364.16,-212 364.16,-192 416.16,-192 416.16,-212"/>
<text text-anchor="middle" x="390.16" y="-198.5" font-family="Helvetica,sans-Serif" font-size="10.00">QLocale</text>
</a>
</g>
</g>
<!-- Node1&#45;&gt;Node4 -->
<g id="edge3_Node000001_Node000004" class="edge">
<title>Node1&#45;&gt;Node4</title>
<g id="a_edge3_Node000001_Node000004"><a xlink:title=" ">
<path fill="none" stroke="#63b8ff" d="M356.58,-247.78C363.13,-239.04 370.23,-229.57 376.21,-221.6"/>
<polygon fill="#63b8ff" stroke="#63b8ff" points="378.95,-223.78 382.15,-213.68 373.35,-219.58 378.95,-223.78"/>
</a>
</g>
</g>
<!-- Node5 -->
<g id="Node000005" class="node">
<title>Node5</title>
<g id="a_Node000005"><a xlink:title=" ">
<polygon fill="#e0e0e0" stroke="#999999" points="500.29,-212 434.04,-212 434.04,-192 500.29,-192 500.29,-212"/>
<text text-anchor="middle" x="467.16" y="-198.5" font-family="Helvetica,sans-Serif" font-size="10.00">QTranslator</text>
</a>
</g>
</g>
<!-- Node1&#45;&gt;Node5 -->
<g id="edge4_Node000001_Node000005" class="edge">
<title>Node1&#45;&gt;Node5</title>
<g id="a_edge4_Node000001_Node000005"><a xlink:title=" ">
<path fill="none" stroke="#63b8ff" d="M386.06,-247.57C404.39,-237.5 424.45,-226.47 440.04,-217.91"/>
<polygon fill="#63b8ff" stroke="#63b8ff" points="441.63,-221.03 448.71,-213.14 438.26,-214.89 441.63,-221.03"/>
</a>
</g>
</g>
<!-- Node6 -->
<g id="Node000006" class="node">
<title>Node6</title>
<g id="a_Node000006"><a xlink:href="../../d5/dcc/objecthandler_8hpp.html" target="_top" xlink:title="Header file for the ObjectHandler class.">
<polygon fill="white" stroke="#666666" points="235.41,-212 142.91,-212 142.91,-192 235.41,-192 235.41,-212"/>
<text text-anchor="middle" x="189.16" y="-198.5" font-family="Helvetica,sans-Serif" font-size="10.00">objecthandler.hpp</text>
</a>
</g>
</g>
<!-- Node1&#45;&gt;Node6 -->
<g id="edge5_Node000001_Node000006" class="edge">
<title>Node1&#45;&gt;Node6</title>
<g id="a_edge5_Node000001_Node000006"><a xlink:title=" ">
<path fill="none" stroke="#63b8ff" d="M280.17,-247.57C259.21,-237.31 236.22,-226.05 218.6,-217.42"/>
<polygon fill="#63b8ff" stroke="#63b8ff" points="220.27,-214.34 209.75,-213.08 217.19,-220.62 220.27,-214.34"/>
</a>
</g>
</g>
<!-- Node6&#45;&gt;Node2 -->
<g id="edge7_Node000006_Node000002" class="edge">
<title>Node6&#45;&gt;Node2</title>
<g id="a_edge7_Node000006_Node000002"><a xlink:title=" ">
<path fill="none" stroke="#63b8ff" d="M142.55,-193.88C101.31,-186.52 45.64,-173.63 32.16,-156 4.34,-119.61 15.06,-61.71 23.58,-31.25"/>
<polygon fill="#63b8ff" stroke="#63b8ff" points="26.9,-32.39 26.44,-21.8 20.2,-30.36 26.9,-32.39"/>
</a>
</g>
</g>
<!-- Node6&#45;&gt;Node3 -->
<g id="edge8_Node000006_Node000003" class="edge">
<title>Node6&#45;&gt;Node3</title>
<g id="a_edge8_Node000006_Node000003"><a xlink:title=" ">
<path fill="none" stroke="#63b8ff" d="M194.29,-191.7C204.36,-172.84 226.41,-128.44 234.16,-88 236.84,-74.03 237.49,-69.83 234.16,-56 232.01,-47.07 227.78,-37.92 223.52,-30.22"/>
<polygon fill="#63b8ff" stroke="#63b8ff" points="226.61,-28.57 218.48,-21.78 220.6,-32.16 226.61,-28.57"/>
</a>
</g>
</g>
<!-- Node7 -->
<g id="Node000007" class="node">
<title>Node7</title>
<g id="a_Node000007"><a xlink:title=" ">
<polygon fill="#e0e0e0" stroke="#999999" points="307.91,-150 236.41,-150 236.41,-130 307.91,-130 307.91,-150"/>
<text text-anchor="middle" x="272.16" y="-136.5" font-family="Helvetica,sans-Serif" font-size="10.00">QApplication</text>
</a>
</g>
</g>
<!-- Node6&#45;&gt;Node7 -->
<g id="edge6_Node000006_Node000007" class="edge">
<title>Node6&#45;&gt;Node7</title>
<g id="a_edge6_Node000006_Node000007"><a xlink:title=" ">
<path fill="none" stroke="#63b8ff" d="M202.13,-191.62C214.92,-182.38 234.72,-168.07 250.01,-157.01"/>
<polygon fill="#63b8ff" stroke="#63b8ff" points="252.01,-159.89 258.06,-151.2 247.9,-154.22 252.01,-159.89"/>
</a>
</g>
</g>
<!-- Node8 -->
<g id="Node000008" class="node">
<title>Node8</title>
<g id="a_Node000008"><a xlink:href="../../de/d60/databasehandler_8hpp.html" target="_top" xlink:title="Header file for the DatabaseHandler class.">
<polygon fill="white" stroke="#666666" points="224.66,-88 115.66,-88 115.66,-56 224.66,-56 224.66,-88"/>
<text text-anchor="start" x="123.66" y="-74.5" font-family="Helvetica,sans-Serif" font-size="10.00">../databaseClasses</text>
<text text-anchor="middle" x="170.16" y="-62.5" font-family="Helvetica,sans-Serif" font-size="10.00">/databasehandler.hpp</text>
</a>
</g>
</g>
<!-- Node6&#45;&gt;Node8 -->
<g id="edge9_Node000006_Node000008" class="edge">
<title>Node6&#45;&gt;Node8</title>
<g id="a_edge9_Node000006_Node000008"><a xlink:title=" ">
<path fill="none" stroke="#63b8ff" d="M187.8,-191.79C184.97,-172.73 178.38,-128.33 174.1,-99.54"/>
<polygon fill="#63b8ff" stroke="#63b8ff" points="177.58,-99.15 172.65,-89.77 170.66,-100.18 177.58,-99.15"/>
</a>
</g>
</g>
<!-- Node9 -->
<g id="Node000009" class="node">
<title>Node9</title>
<g id="a_Node000009"><a xlink:href="../../df/d46/tablehandler_8hpp.html" target="_top" xlink:title="Header file for the TableHandler class.">
<polygon fill="white" stroke="#666666" points="141.16,-156 41.16,-156 41.16,-124 141.16,-124 141.16,-156"/>
<text text-anchor="start" x="49.16" y="-142.5" font-family="Helvetica,sans-Serif" font-size="10.00">../databaseClasses</text>
<text text-anchor="middle" x="91.16" y="-130.5" font-family="Helvetica,sans-Serif" font-size="10.00">/tablehandler.hpp</text>
</a>
</g>
</g>
<!-- Node6&#45;&gt;Node9 -->
<g id="edge12_Node000006_Node000009" class="edge">
<title>Node6&#45;&gt;Node9</title>
<g id="a_edge12_Node000006_Node000009"><a xlink:title=" ">
<path fill="none" stroke="#63b8ff" d="M173.85,-191.62C161.1,-183.82 142.45,-172.4 126.09,-162.38"/>
<polygon fill="#63b8ff" stroke="#63b8ff" points="127.92,-159.4 117.56,-157.16 124.27,-165.37 127.92,-159.4"/>
</a>
</g>
</g>
<!-- Node8&#45;&gt;Node2 -->
<g id="edge10_Node000008_Node000002" class="edge">
<title>Node8&#45;&gt;Node2</title>
<g id="a_edge10_Node000008_Node000002"><a xlink:title=" ">
<path fill="none" stroke="#63b8ff" d="M134.11,-55.55C112.03,-46.09 84.01,-34.08 62.63,-24.91"/>
<polygon fill="#63b8ff" stroke="#63b8ff" points="64.08,-21.73 53.51,-21 61.32,-28.16 64.08,-21.73"/>
</a>
</g>
</g>
<!-- Node8&#45;&gt;Node3 -->
<g id="edge11_Node000008_Node000003" class="edge">
<title>Node8&#45;&gt;Node3</title>
<g id="a_edge11_Node000008_Node000003"><a xlink:title=" ">
<path fill="none" stroke="#63b8ff" d="M180.72,-55.55C186.12,-47.65 192.73,-37.97 198.41,-29.66"/>
<polygon fill="#63b8ff" stroke="#63b8ff" points="201.13,-31.89 203.88,-21.66 195.35,-27.94 201.13,-31.89"/>
</a>
</g>
</g>
<!-- Node9&#45;&gt;Node2 -->
<g id="edge13_Node000009_Node000002" class="edge">
<title>Node9&#45;&gt;Node2</title>
<g id="a_edge13_Node000009_Node000002"><a xlink:title=" ">
<path fill="none" stroke="#63b8ff" d="M83.81,-123.56C72.7,-100.27 51.68,-56.15 39.51,-30.61"/>
<polygon fill="#63b8ff" stroke="#63b8ff" points="42.72,-29.21 35.26,-21.69 36.4,-32.23 42.72,-29.21"/>
</a>
</g>
</g>
<!-- Node9&#45;&gt;Node3 -->
<g id="edge14_Node000009_Node000003" class="edge">
<title>Node9&#45;&gt;Node3</title>
<g id="a_edge14_Node000009_Node000003"><a xlink:title=" ">
<path fill="none" stroke="#63b8ff" d="M90.08,-123.78C89.61,-105.67 91.55,-75.45 107.16,-56 124.97,-33.82 155.83,-22.34 179.33,-16.55"/>
<polygon fill="#63b8ff" stroke="#63b8ff" points="180.02,-19.98 189.03,-14.4 178.51,-13.15 180.02,-19.98"/>
</a>
</g>
</g>
<!-- Node9&#45;&gt;Node8 -->
<g id="edge15_Node000009_Node000008" class="edge">
<title>Node9&#45;&gt;Node8</title>
<g id="a_edge15_Node000009_Node000008"><a xlink:title=" ">
<path fill="none" stroke="#63b8ff" d="M109.49,-123.69C119.48,-115.34 132.05,-104.84 143.15,-95.56"/>
<polygon fill="#63b8ff" stroke="#63b8ff" points="145.07,-98.52 150.5,-89.42 140.59,-93.15 145.07,-98.52"/>
</a>
</g>
</g>
</g>
</svg>
