<?xml version="1.0" encoding="UTF-8" standalone="no"?>
<!DOCTYPE svg PUBLIC "-//W3C//DTD SVG 1.1//EN"
 "http://www.w3.org/Graphics/SVG/1.1/DTD/svg11.dtd">
<!-- Generated by graphviz version 9.0.0 (20230911.1827)
 -->
<!-- Title: AposFrontend::DevWindow::enableButtons Pages: 1 -->
<svg xmlns:xlink="http://www.w3.org/1999/xlink" width="310pt"
 height="90pt" viewBox="0.00 0.00 310.00 90.00" xmlns="http://www.w3.org/2000/svg">
<g id="graph0" class="graph" transform="scale(1 1) rotate(0) translate(4 86)">
<title>AposFrontend::DevWindow::enableButtons</title>
<!-- Node1 -->
<g id="Node000001" class="node">
<title>Node1</title>
<g id="a_Node000001"><a xlink:title="Enables or disables the buttons.">
<polygon fill="#999999" stroke="#666666" points="302,-57 169,-57 169,-25 302,-25 302,-57"/>
<text text-anchor="start" x="177" y="-43.5" font-family="Helvetica,sans-Serif" font-size="10.00">AposFrontend::DevWindow</text>
<text text-anchor="middle" x="235.5" y="-31.5" font-family="Helvetica,sans-Serif" font-size="10.00">::enableButtons</text>
</a>
</g>
</g>
<!-- Node2 -->
<g id="Node000002" class="node">
<title>Node2</title>
<g id="a_Node000002"><a xlink:href="../../d8/d33/group___slot-_functions.html#ga5dd5707ecd06a83a2f7d3c9f631583a1" target="_top" xlink:title="Slot for the &#39;CloseDB&#39; button click event.">
<polygon fill="white" stroke="#666666" points="133,-82 0,-82 0,-50 133,-50 133,-82"/>
<text text-anchor="start" x="8" y="-68.5" font-family="Helvetica,sans-Serif" font-size="10.00">AposFrontend::DevWindow</text>
<text text-anchor="middle" x="66.5" y="-56.5" font-family="Helvetica,sans-Serif" font-size="10.00">::closeDBClicked</text>
</a>
</g>
</g>
<!-- Node1&#45;&gt;Node2 -->
<g id="edge1_Node000001_Node000002" class="edge">
<title>Node1&#45;&gt;Node2</title>
<g id="a_edge1_Node000001_Node000002"><a xlink:title=" ">
<path fill="none" stroke="#63b8ff" d="M157.62,-52.51C149.52,-53.72 141.34,-54.95 133.38,-56.14"/>
<polygon fill="#63b8ff" stroke="#63b8ff" points="158.11,-55.98 167.48,-51.03 157.07,-49.05 158.11,-55.98"/>
</a>
</g>
</g>
<!-- Node3 -->
<g id="Node000003" class="node">
<title>Node3</title>
<g id="a_Node000003"><a xlink:href="../../d8/d33/group___slot-_functions.html#ga94f1bcb3a0d4ff36c4651a7d22bbc4ff" target="_top" xlink:title="Slot for the &#39;InitDB&#39; button click event.">
<polygon fill="white" stroke="#666666" points="133,-32 0,-32 0,0 133,0 133,-32"/>
<text text-anchor="start" x="8" y="-18.5" font-family="Helvetica,sans-Serif" font-size="10.00">AposFrontend::DevWindow</text>
<text text-anchor="middle" x="66.5" y="-6.5" font-family="Helvetica,sans-Serif" font-size="10.00">::initDbClicked</text>
</a>
</g>
</g>
<!-- Node1&#45;&gt;Node3 -->
<g id="edge2_Node000001_Node000003" class="edge">
<title>Node1&#45;&gt;Node3</title>
<g id="a_edge2_Node000001_Node000003"><a xlink:title=" ">
<path fill="none" stroke="#63b8ff" d="M157.62,-29.49C149.52,-28.28 141.34,-27.05 133.38,-25.86"/>
<polygon fill="#63b8ff" stroke="#63b8ff" points="157.07,-32.95 167.48,-30.97 158.11,-26.02 157.07,-32.95"/>
</a>
</g>
</g>
</g>
</svg>
