<?xml version="1.0" encoding="UTF-8" standalone="no"?>
<!DOCTYPE svg PUBLIC "-//W3C//DTD SVG 1.1//EN"
 "http://www.w3.org/Graphics/SVG/1.1/DTD/svg11.dtd">
<!-- Generated by graphviz version 9.0.0 (20230911.1827)
 -->
<!-- Title: AposFrontend::DevWindow::checkCheckbox Pages: 1 -->
<svg width="682pt" height="114pt"
 viewBox="0.00 0.00 681.75 114.00" xmlns="http://www.w3.org/2000/svg" xmlns:xlink="http://www.w3.org/1999/xlink">
<g id="graph0" class="graph" transform="scale(1 1) rotate(0) translate(4 110)">
<title>AposFrontend::DevWindow::checkCheckbox</title>
<!-- Node1 -->
<g id="Node000001" class="node">
<title>Node1</title>
<g id="a_Node000001"><a xlink:title="Checks a checkbox.">
<polygon fill="#999999" stroke="#666666" points="673.75,-69 540.75,-69 540.75,-37 673.75,-37 673.75,-69"/>
<text text-anchor="start" x="548.75" y="-55.5" font-family="Helvetica,sans-Serif" font-size="10.00">AposFrontend::DevWindow</text>
<text text-anchor="middle" x="607.25" y="-43.5" font-family="Helvetica,sans-Serif" font-size="10.00">::checkCheckbox</text>
</a>
</g>
</g>
<!-- Node2 -->
<g id="Node000002" class="node">
<title>Node2</title>
<g id="a_Node000002"><a xlink:href="../../d8/d33/group___slot-_functions.html#ga9476410c44a8a05671495955dd0d1326" target="_top" xlink:title="Slot for the &#39;clearCommandAfterExecute&#39; state change event.">
<polygon fill="white" stroke="#666666" points="504.75,-106 338,-106 338,-62 504.75,-62 504.75,-106"/>
<text text-anchor="start" x="346" y="-92.5" font-family="Helvetica,sans-Serif" font-size="10.00">AposFrontend::DevWindow</text>
<text text-anchor="start" x="346" y="-80.5" font-family="Helvetica,sans-Serif" font-size="10.00">::clearCommandAfterExecuteState</text>
<text text-anchor="middle" x="421.38" y="-68.5" font-family="Helvetica,sans-Serif" font-size="10.00">Changed</text>
</a>
</g>
</g>
<!-- Node1&#45;&gt;Node2 -->
<g id="edge1_Node000001_Node000002" class="edge">
<title>Node1&#45;&gt;Node2</title>
<g id="a_edge1_Node000001_Node000002"><a xlink:title=" ">
<path fill="none" stroke="#63b8ff" d="M529.24,-65.98C521.27,-67.33 513.14,-68.7 505.1,-70.05"/>
<polygon fill="#63b8ff" stroke="#63b8ff" points="529.61,-69.47 538.89,-64.36 528.45,-62.57 529.61,-69.47"/>
</a>
</g>
</g>
<!-- Node5 -->
<g id="Node000005" class="node">
<title>Node5</title>
<g id="a_Node000005"><a xlink:href="../../d8/d33/group___slot-_functions.html#gad57d8acf5aa5859e527474010d106a15" target="_top" xlink:title="Slot for the &#39;clearInputsAfterInsert&#39; state change event.">
<polygon fill="white" stroke="#666666" points="489.75,-44 353,-44 353,0 489.75,0 489.75,-44"/>
<text text-anchor="start" x="361" y="-30.5" font-family="Helvetica,sans-Serif" font-size="10.00">AposFrontend::DevWindow</text>
<text text-anchor="start" x="361" y="-18.5" font-family="Helvetica,sans-Serif" font-size="10.00">::clearInputsAfterInsertState</text>
<text text-anchor="middle" x="421.38" y="-6.5" font-family="Helvetica,sans-Serif" font-size="10.00">Changed</text>
</a>
</g>
</g>
<!-- Node1&#45;&gt;Node5 -->
<g id="edge4_Node000001_Node000005" class="edge">
<title>Node1&#45;&gt;Node5</title>
<g id="a_edge4_Node000001_Node000005"><a xlink:title=" ">
<path fill="none" stroke="#63b8ff" d="M529.09,-39.99C516.09,-37.8 502.68,-35.54 489.95,-33.39"/>
<polygon fill="#63b8ff" stroke="#63b8ff" points="528.45,-43.43 538.89,-41.64 529.61,-36.53 528.45,-43.43"/>
</a>
</g>
</g>
<!-- Node3 -->
<g id="Node000003" class="node">
<title>Node3</title>
<g id="a_Node000003"><a xlink:href="../../dc/dc2/class_apos_frontend_1_1_dev_window.html#a23ebf9d4eb49ee75ff31618f545b8f98" target="_top" xlink:title=" ">
<polygon fill="white" stroke="#666666" points="302,-69 169,-69 169,-37 302,-37 302,-69"/>
<text text-anchor="start" x="177" y="-55.5" font-family="Helvetica,sans-Serif" font-size="10.00">AposFrontend::DevWindow</text>
<text text-anchor="middle" x="235.5" y="-43.5" font-family="Helvetica,sans-Serif" font-size="10.00">::devConnectUi</text>
</a>
</g>
</g>
<!-- Node2&#45;&gt;Node3 -->
<g id="edge2_Node000002_Node000003" class="edge">
<title>Node2&#45;&gt;Node3</title>
<g id="a_edge2_Node000002_Node000003"><a xlink:title=" ">
<path fill="none" stroke="#63b8ff" d="M326.47,-68.17C318.3,-66.79 310.16,-65.42 302.3,-64.09"/>
<polygon fill="#63b8ff" stroke="#63b8ff" points="325.65,-71.58 336.09,-69.79 326.81,-64.68 325.65,-71.58"/>
</a>
</g>
</g>
<!-- Node4 -->
<g id="Node000004" class="node">
<title>Node4</title>
<g id="a_Node000004"><a xlink:href="../../d3/dbc/group___constructructors-_destructors.html#gafa7c4dab5fd2d00d38e0b3f3929978e7" target="_top" xlink:title="Constructor for the DevWindow class.">
<polygon fill="white" stroke="#666666" points="133,-69 0,-69 0,-37 133,-37 133,-69"/>
<text text-anchor="start" x="8" y="-55.5" font-family="Helvetica,sans-Serif" font-size="10.00">AposFrontend::DevWindow</text>
<text text-anchor="middle" x="66.5" y="-43.5" font-family="Helvetica,sans-Serif" font-size="10.00">::DevWindow</text>
</a>
</g>
</g>
<!-- Node3&#45;&gt;Node4 -->
<g id="edge3_Node000003_Node000004" class="edge">
<title>Node3&#45;&gt;Node4</title>
<g id="a_edge3_Node000003_Node000004"><a xlink:title=" ">
<path fill="none" stroke="#63b8ff" d="M157.62,-53C149.52,-53 141.34,-53 133.38,-53"/>
<polygon fill="#63b8ff" stroke="#63b8ff" points="157.46,-56.5 167.46,-53 157.46,-49.5 157.46,-56.5"/>
</a>
</g>
</g>
<!-- Node5&#45;&gt;Node3 -->
<g id="edge5_Node000005_Node000003" class="edge">
<title>Node5&#45;&gt;Node3</title>
<g id="a_edge5_Node000005_Node000003"><a xlink:title=" ">
<path fill="none" stroke="#63b8ff" d="M341.34,-35.32C328.29,-37.53 314.88,-39.79 302.2,-41.92"/>
<polygon fill="#63b8ff" stroke="#63b8ff" points="341.92,-38.78 351.2,-33.66 340.75,-31.87 341.92,-38.78"/>
</a>
</g>
</g>
</g>
</svg>
