<?xml version="1.0" encoding="UTF-8" standalone="no"?>
<!DOCTYPE svg PUBLIC "-//W3C//DTD SVG 1.1//EN"
 "http://www.w3.org/Graphics/SVG/1.1/DTD/svg11.dtd">
<!-- Generated by graphviz version 9.0.0 (20230911.1827)
 -->
<!-- Title: AposFrontend::WindowHandler::showSettingsWindow Pages: 1 -->
<svg xmlns:xlink="http://www.w3.org/1999/xlink" width="531pt"
 height="62pt" viewBox="0.00 0.00 530.75 62.00" xmlns="http://www.w3.org/2000/svg">
<g id="graph0" class="graph" transform="scale(1 1) rotate(0) translate(4 58)">
<title>AposFrontend::WindowHandler::showSettingsWindow</title>
<!-- Node1 -->
<g id="Node000001" class="node">
<title>Node1</title>
<g id="a_Node000001"><a xlink:title="Shows the settings window.">
<polygon fill="#999999" stroke="#666666" points="522.75,-32 372.5,-32 372.5,0 522.75,0 522.75,-32"/>
<text text-anchor="start" x="380.5" y="-18.5" font-family="Helvetica,sans-Serif" font-size="10.00">AposFrontend::WindowHandler</text>
<text text-anchor="middle" x="447.62" y="-6.5" font-family="Helvetica,sans-Serif" font-size="10.00">::showSettingsWindow</text>
</a>
</g>
</g>
<!-- Node2 -->
<g id="Node000002" class="node">
<title>Node2</title>
<g id="a_Node000002"><a xlink:href="../../d6/de4/group___ui-_functions.html#gad71663083f50868c2efb568336b50b56" target="_top" xlink:title="Shows the developer window.">
<polygon fill="white" stroke="#666666" points="336.5,-54 186.25,-54 186.25,-22 336.5,-22 336.5,-54"/>
<text text-anchor="start" x="194.25" y="-40.5" font-family="Helvetica,sans-Serif" font-size="10.00">AposFrontend::WindowHandler</text>
<text text-anchor="middle" x="261.38" y="-28.5" font-family="Helvetica,sans-Serif" font-size="10.00">::showDevWindow</text>
</a>
</g>
</g>
<!-- Node1&#45;&gt;Node2 -->
<g id="edge1_Node000001_Node000002" class="edge">
<title>Node1&#45;&gt;Node2</title>
<g id="a_edge1_Node000001_Node000002"><a xlink:title=" ">
<path fill="none" stroke="#63b8ff" d="M360.89,-26.24C352.83,-27.2 344.71,-28.17 336.76,-29.12"/>
<polygon fill="#63b8ff" stroke="#63b8ff" points="361.2,-29.73 370.71,-25.06 360.37,-22.77 361.2,-29.73"/>
</a>
</g>
</g>
<!-- Node3 -->
<g id="Node000003" class="node">
<title>Node3</title>
<g id="a_Node000003"><a xlink:href="../../d3/dbc/group___constructructors-_destructors.html#ga8230aa2c25b5bb8db86c34b4b50bcd56" target="_top" xlink:title="Constructor for the WindowHandler class.">
<polygon fill="white" stroke="#666666" points="150.25,-32 0,-32 0,0 150.25,0 150.25,-32"/>
<text text-anchor="start" x="8" y="-18.5" font-family="Helvetica,sans-Serif" font-size="10.00">AposFrontend::WindowHandler</text>
<text text-anchor="middle" x="75.12" y="-6.5" font-family="Helvetica,sans-Serif" font-size="10.00">::WindowHandler</text>
</a>
</g>
</g>
<!-- Node1&#45;&gt;Node3 -->
<g id="edge3_Node000001_Node000003" class="edge">
<title>Node1&#45;&gt;Node3</title>
<g id="a_edge3_Node000001_Node000003"><a xlink:title=" ">
<path fill="none" stroke="#63b8ff" d="M361.02,-13.44C352.73,-13.26 344.45,-13.11 336.5,-13 269.73,-12.09 253.02,-12.09 186.25,-13 174.68,-13.16 162.43,-13.41 150.46,-13.7"/>
<polygon fill="#63b8ff" stroke="#63b8ff" points="360.7,-16.93 370.77,-13.66 360.86,-9.94 360.7,-16.93"/>
</a>
</g>
</g>
<!-- Node2&#45;&gt;Node3 -->
<g id="edge2_Node000002_Node000003" class="edge">
<title>Node2&#45;&gt;Node3</title>
<g id="a_edge2_Node000002_Node000003"><a xlink:title=" ">
<path fill="none" stroke="#63b8ff" d="M174.64,-27.76C166.58,-26.8 158.46,-25.83 150.51,-24.88"/>
<polygon fill="#63b8ff" stroke="#63b8ff" points="174.12,-31.23 184.46,-28.94 174.95,-24.27 174.12,-31.23"/>
</a>
</g>
</g>
</g>
</svg>
