<?xml version="1.0" encoding="UTF-8" standalone="no"?>
<!DOCTYPE svg PUBLIC "-//W3C//DTD SVG 1.1//EN"
 "http://www.w3.org/Graphics/SVG/1.1/DTD/svg11.dtd">
<!-- Generated by graphviz version 9.0.0 (20230911.1827)
 -->
<!-- Title: AposFrontend::DevWindow::enableButtons Pages: 1 -->
<svg width="648pt" height="90pt"
 viewBox="0.00 0.00 648.00 90.00" xmlns="http://www.w3.org/2000/svg" xmlns:xlink="http://www.w3.org/1999/xlink">
<g id="graph0" class="graph" transform="scale(1 1) rotate(0) translate(4 86)">
<title>AposFrontend::DevWindow::enableButtons</title>
<!-- Node1 -->
<g id="Node000001" class="node">
<title>Node1</title>
<g id="a_Node000001"><a xlink:title="Enables or disables the buttons.">
<polygon fill="#999999" stroke="#666666" points="640,-57 507,-57 507,-25 640,-25 640,-57"/>
<text text-anchor="start" x="515" y="-43.5" font-family="Helvetica,sans-Serif" font-size="10.00">AposFrontend::DevWindow</text>
<text text-anchor="middle" x="573.5" y="-31.5" font-family="Helvetica,sans-Serif" font-size="10.00">::enableButtons</text>
</a>
</g>
</g>
<!-- Node2 -->
<g id="Node000002" class="node">
<title>Node2</title>
<g id="a_Node000002"><a xlink:href="../../d8/d33/group___slot-_functions.html#gae146dd428f1022b7a3870f48d7ae7ed8" target="_top" xlink:title="Slot for the &#39;CloseDB&#39; button click event.">
<polygon fill="white" stroke="#666666" points="471,-82 338,-82 338,-50 471,-50 471,-82"/>
<text text-anchor="start" x="346" y="-68.5" font-family="Helvetica,sans-Serif" font-size="10.00">AposFrontend::DevWindow</text>
<text text-anchor="middle" x="404.5" y="-56.5" font-family="Helvetica,sans-Serif" font-size="10.00">::closeDBClicked</text>
</a>
</g>
</g>
<!-- Node1&#45;&gt;Node2 -->
<g id="edge1_Node000001_Node000002" class="edge">
<title>Node1&#45;&gt;Node2</title>
<g id="a_edge1_Node000001_Node000002"><a xlink:title=" ">
<path fill="none" stroke="#63b8ff" d="M495.62,-52.51C487.52,-53.72 479.34,-54.95 471.38,-56.14"/>
<polygon fill="#63b8ff" stroke="#63b8ff" points="496.11,-55.98 505.48,-51.03 495.07,-49.05 496.11,-55.98"/>
</a>
</g>
</g>
<!-- Node5 -->
<g id="Node000005" class="node">
<title>Node5</title>
<g id="a_Node000005"><a xlink:href="../../d8/d33/group___slot-_functions.html#ga14d5f4db38883d800bb6f1df2c25d079" target="_top" xlink:title="Slot for the &#39;InitDB&#39; button click event.">
<polygon fill="white" stroke="#666666" points="471,-32 338,-32 338,0 471,0 471,-32"/>
<text text-anchor="start" x="346" y="-18.5" font-family="Helvetica,sans-Serif" font-size="10.00">AposFrontend::DevWindow</text>
<text text-anchor="middle" x="404.5" y="-6.5" font-family="Helvetica,sans-Serif" font-size="10.00">::initDbClicked</text>
</a>
</g>
</g>
<!-- Node1&#45;&gt;Node5 -->
<g id="edge4_Node000001_Node000005" class="edge">
<title>Node1&#45;&gt;Node5</title>
<g id="a_edge4_Node000001_Node000005"><a xlink:title=" ">
<path fill="none" stroke="#63b8ff" d="M495.62,-29.49C487.52,-28.28 479.34,-27.05 471.38,-25.86"/>
<polygon fill="#63b8ff" stroke="#63b8ff" points="495.07,-32.95 505.48,-30.97 496.11,-26.02 495.07,-32.95"/>
</a>
</g>
</g>
<!-- Node3 -->
<g id="Node000003" class="node">
<title>Node3</title>
<g id="a_Node000003"><a xlink:href="../../dc/dc2/class_apos_frontend_1_1_dev_window.html#a23ebf9d4eb49ee75ff31618f545b8f98" target="_top" xlink:title=" ">
<polygon fill="white" stroke="#666666" points="302,-57 169,-57 169,-25 302,-25 302,-57"/>
<text text-anchor="start" x="177" y="-43.5" font-family="Helvetica,sans-Serif" font-size="10.00">AposFrontend::DevWindow</text>
<text text-anchor="middle" x="235.5" y="-31.5" font-family="Helvetica,sans-Serif" font-size="10.00">::devConnectUi</text>
</a>
</g>
</g>
<!-- Node2&#45;&gt;Node3 -->
<g id="edge2_Node000002_Node000003" class="edge">
<title>Node2&#45;&gt;Node3</title>
<g id="a_edge2_Node000002_Node000003"><a xlink:title=" ">
<path fill="none" stroke="#63b8ff" d="M326.62,-54.49C318.52,-53.28 310.34,-52.05 302.38,-50.86"/>
<polygon fill="#63b8ff" stroke="#63b8ff" points="326.07,-57.95 336.48,-55.97 327.11,-51.02 326.07,-57.95"/>
</a>
</g>
</g>
<!-- Node4 -->
<g id="Node000004" class="node">
<title>Node4</title>
<g id="a_Node000004"><a xlink:href="../../d3/dbc/group___constructructors-_destructors.html#gafa7c4dab5fd2d00d38e0b3f3929978e7" target="_top" xlink:title="Constructor for the DevWindow class.">
<polygon fill="white" stroke="#666666" points="133,-57 0,-57 0,-25 133,-25 133,-57"/>
<text text-anchor="start" x="8" y="-43.5" font-family="Helvetica,sans-Serif" font-size="10.00">AposFrontend::DevWindow</text>
<text text-anchor="middle" x="66.5" y="-31.5" font-family="Helvetica,sans-Serif" font-size="10.00">::DevWindow</text>
</a>
</g>
</g>
<!-- Node3&#45;&gt;Node4 -->
<g id="edge3_Node000003_Node000004" class="edge">
<title>Node3&#45;&gt;Node4</title>
<g id="a_edge3_Node000003_Node000004"><a xlink:title=" ">
<path fill="none" stroke="#63b8ff" d="M157.62,-41C149.52,-41 141.34,-41 133.38,-41"/>
<polygon fill="#63b8ff" stroke="#63b8ff" points="157.46,-44.5 167.46,-41 157.46,-37.5 157.46,-44.5"/>
</a>
</g>
</g>
<!-- Node5&#45;&gt;Node3 -->
<g id="edge5_Node000005_Node000003" class="edge">
<title>Node5&#45;&gt;Node3</title>
<g id="a_edge5_Node000005_Node000003"><a xlink:title=" ">
<path fill="none" stroke="#63b8ff" d="M326.62,-27.51C318.52,-28.72 310.34,-29.95 302.38,-31.14"/>
<polygon fill="#63b8ff" stroke="#63b8ff" points="327.11,-30.98 336.48,-26.03 326.07,-24.05 327.11,-30.98"/>
</a>
</g>
</g>
</g>
</svg>
