<?xml version="1.0" encoding="UTF-8" standalone="no"?>
<!DOCTYPE svg PUBLIC "-//W3C//DTD SVG 1.1//EN"
 "http://www.w3.org/Graphics/SVG/1.1/DTD/svg11.dtd">
<!-- Generated by graphviz version 9.0.0 (20230911.1827)
 -->
<!-- Title: AposFrontend::WindowHandler::showDevWindow Pages: 1 -->
<svg width="345pt" height="190pt"
 viewBox="0.00 0.00 344.50 190.00" xmlns="http://www.w3.org/2000/svg" xmlns:xlink="http://www.w3.org/1999/xlink">
<g id="graph0" class="graph" transform="scale(1 1) rotate(0) translate(4 186)">
<title>AposFrontend::WindowHandler::showDevWindow</title>
<!-- Node1 -->
<g id="Node000001" class="node">
<title>Node1</title>
<g id="a_Node000001"><a xlink:title="Shows the developer window.">
<polygon fill="#999999" stroke="#666666" points="150.25,-107 0,-107 0,-75 150.25,-75 150.25,-107"/>
<text text-anchor="start" x="8" y="-93.5" font-family="Helvetica,sans-Serif" font-size="10.00">AposFrontend::WindowHandler</text>
<text text-anchor="middle" x="75.12" y="-81.5" font-family="Helvetica,sans-Serif" font-size="10.00">::showDevWindow</text>
</a>
</g>
</g>
<!-- Node2 -->
<g id="Node000002" class="node">
<title>Node2</title>
<g id="a_Node000002"><a xlink:href="../../d7/d58/group___signal-_funtions.html#gab1ca9c597770ec6d63a8245b94fb10a9" target="_top" xlink:title="Signal for opening the settings.">
<polygon fill="white" stroke="#666666" points="327.88,-182 194.88,-182 194.88,-150 327.88,-150 327.88,-182"/>
<text text-anchor="start" x="202.88" y="-168.5" font-family="Helvetica,sans-Serif" font-size="10.00">AposFrontend::DevWindow</text>
<text text-anchor="middle" x="261.38" y="-156.5" font-family="Helvetica,sans-Serif" font-size="10.00">::openSettings</text>
</a>
</g>
</g>
<!-- Node1&#45;&gt;Node2 -->
<g id="edge1_Node000001_Node000002" class="edge">
<title>Node1&#45;&gt;Node2</title>
<g id="a_edge1_Node000001_Node000002"><a xlink:title=" ">
<path fill="none" stroke="#63b8ff" d="M109.97,-107.44C131.56,-117.66 160.27,-130.75 186.25,-141 190.33,-142.61 194.55,-144.21 198.83,-145.78"/>
<polygon fill="#63b8ff" stroke="#63b8ff" points="197.47,-149.01 208.06,-149.08 199.83,-142.42 197.47,-149.01"/>
</a>
</g>
</g>
<!-- Node3 -->
<g id="Node000003" class="node">
<title>Node3</title>
<g id="a_Node000003"><a xlink:href="../../d7/d58/group___signal-_funtions.html#gaa16d604f0aa073808b1466132a301c5b" target="_top" xlink:title="Signal for returning to the launcher.">
<polygon fill="white" stroke="#666666" points="327.88,-132 194.88,-132 194.88,-100 327.88,-100 327.88,-132"/>
<text text-anchor="start" x="202.88" y="-118.5" font-family="Helvetica,sans-Serif" font-size="10.00">AposFrontend::DevWindow</text>
<text text-anchor="middle" x="261.38" y="-106.5" font-family="Helvetica,sans-Serif" font-size="10.00">::returnToLauncher</text>
</a>
</g>
</g>
<!-- Node1&#45;&gt;Node3 -->
<g id="edge2_Node000001_Node000003" class="edge">
<title>Node1&#45;&gt;Node3</title>
<g id="a_edge2_Node000001_Node000003"><a xlink:title=" ">
<path fill="none" stroke="#63b8ff" d="M150.54,-101.1C161.36,-102.56 172.52,-104.08 183.39,-105.55"/>
<polygon fill="#63b8ff" stroke="#63b8ff" points="182.71,-108.99 193.09,-106.87 183.65,-102.06 182.71,-108.99"/>
</a>
</g>
</g>
<!-- Node4 -->
<g id="Node000004" class="node">
<title>Node4</title>
<g id="a_Node000004"><a xlink:href="../../d6/de4/group___ui-_functions.html#ga0ccce4c871b37eb96d2d3df478855277" target="_top" xlink:title="Shows the launcher window.">
<polygon fill="white" stroke="#666666" points="336.5,-82 186.25,-82 186.25,-50 336.5,-50 336.5,-82"/>
<text text-anchor="start" x="194.25" y="-68.5" font-family="Helvetica,sans-Serif" font-size="10.00">AposFrontend::WindowHandler</text>
<text text-anchor="middle" x="261.38" y="-56.5" font-family="Helvetica,sans-Serif" font-size="10.00">::showLaunchWindow</text>
</a>
</g>
</g>
<!-- Node1&#45;&gt;Node4 -->
<g id="edge3_Node000001_Node000004" class="edge">
<title>Node1&#45;&gt;Node4</title>
<g id="a_edge3_Node000001_Node000004"><a xlink:title=" ">
<path fill="none" stroke="#63b8ff" d="M150.54,-80.9C158.48,-79.83 166.6,-78.72 174.66,-77.63"/>
<polygon fill="#63b8ff" stroke="#63b8ff" points="175.05,-81.11 184.49,-76.3 174.11,-74.17 175.05,-81.11"/>
</a>
</g>
</g>
<!-- Node5 -->
<g id="Node000005" class="node">
<title>Node5</title>
<g id="a_Node000005"><a xlink:href="../../d6/de4/group___ui-_functions.html#ga6ab1754f0158c37aabeac6fa84d31f28" target="_top" xlink:title="Shows the settings window.">
<polygon fill="white" stroke="#666666" points="336.5,-32 186.25,-32 186.25,0 336.5,0 336.5,-32"/>
<text text-anchor="start" x="194.25" y="-18.5" font-family="Helvetica,sans-Serif" font-size="10.00">AposFrontend::WindowHandler</text>
<text text-anchor="middle" x="261.38" y="-6.5" font-family="Helvetica,sans-Serif" font-size="10.00">::showSettingsWindow</text>
</a>
</g>
</g>
<!-- Node1&#45;&gt;Node5 -->
<g id="edge4_Node000001_Node000005" class="edge">
<title>Node1&#45;&gt;Node5</title>
<g id="a_edge4_Node000001_Node000005"><a xlink:title=" ">
<path fill="none" stroke="#63b8ff" d="M109.97,-74.56C131.56,-64.34 160.27,-51.25 186.25,-41 190.33,-39.39 194.55,-37.79 198.83,-36.22"/>
<polygon fill="#63b8ff" stroke="#63b8ff" points="199.83,-39.58 208.06,-32.92 197.47,-32.99 199.83,-39.58"/>
</a>
</g>
</g>
</g>
</svg>
