<?xml version="1.0" encoding="UTF-8" standalone="no"?>
<!DOCTYPE svg PUBLIC "-//W3C//DTD SVG 1.1//EN"
 "http://www.w3.org/Graphics/SVG/1.1/DTD/svg11.dtd">
<!-- Generated by graphviz version 9.0.0 (20230911.1827)
 -->
<!-- Title: AposFrontend::WindowHandler::applySettings Pages: 1 -->
<svg xmlns:xlink="http://www.w3.org/1999/xlink" width="516pt"
 height="40pt" viewBox="0.00 0.00 515.75 40.00" xmlns="http://www.w3.org/2000/svg">
<g id="graph0" class="graph" transform="scale(1 1) rotate(0) translate(4 36)">
<title>AposFrontend::WindowHandler::applySettings</title>
<!-- Node1 -->
<g id="Node000001" class="node">
<title>Node1</title>
<g id="a_Node000001"><a xlink:title="Applies settings.">
<polygon fill="#999999" stroke="#666666" points="150.25,-32 0,-32 0,0 150.25,0 150.25,-32"/>
<text text-anchor="start" x="8" y="-18.5" font-family="Helvetica,sans-Serif" font-size="10.00">AposFrontend::WindowHandler</text>
<text text-anchor="middle" x="75.12" y="-6.5" font-family="Helvetica,sans-Serif" font-size="10.00">::applySettings</text>
</a>
</g>
</g>
<!-- Node2 -->
<g id="Node000002" class="node">
<title>Node2</title>
<g id="a_Node000002"><a xlink:href="../../d6/de4/group___ui-_functions.html#gad12be8738b363edf8803ec140c14989c" target="_top" xlink:title="Changes languages.">
<polygon fill="white" stroke="#666666" points="336.5,-32 186.25,-32 186.25,0 336.5,0 336.5,-32"/>
<text text-anchor="start" x="194.25" y="-18.5" font-family="Helvetica,sans-Serif" font-size="10.00">AposFrontend::WindowHandler</text>
<text text-anchor="middle" x="261.38" y="-6.5" font-family="Helvetica,sans-Serif" font-size="10.00">::changeLanguages</text>
</a>
</g>
</g>
<!-- Node1&#45;&gt;Node2 -->
<g id="edge1_Node000001_Node000002" class="edge">
<title>Node1&#45;&gt;Node2</title>
<g id="a_edge1_Node000001_Node000002"><a xlink:title=" ">
<path fill="none" stroke="#63b8ff" d="M150.54,-16C158.48,-16 166.6,-16 174.66,-16"/>
<polygon fill="#63b8ff" stroke="#63b8ff" points="174.47,-19.5 184.47,-16 174.47,-12.5 174.47,-19.5"/>
</a>
</g>
</g>
<!-- Node3 -->
<g id="Node000003" class="node">
<title>Node3</title>
<g id="a_Node000003"><a xlink:href="../../d6/de4/group___ui-_functions.html#ga2190bba57416d43cf8ca3bb812e4aaf7" target="_top" xlink:title="Retranslates the user interface.">
<polygon fill="white" stroke="#666666" points="507.75,-32 372.5,-32 372.5,0 507.75,0 507.75,-32"/>
<text text-anchor="start" x="380.5" y="-18.5" font-family="Helvetica,sans-Serif" font-size="10.00">AposFrontend::Translatable</text>
<text text-anchor="middle" x="440.12" y="-6.5" font-family="Helvetica,sans-Serif" font-size="10.00">Window::retranslateUi</text>
</a>
</g>
</g>
<!-- Node2&#45;&gt;Node3 -->
<g id="edge2_Node000002_Node000003" class="edge">
<title>Node2&#45;&gt;Node3</title>
<g id="a_edge2_Node000002_Node000003"><a xlink:title=" ">
<path fill="none" stroke="#63b8ff" d="M336.82,-16C344.68,-16 352.69,-16 360.6,-16"/>
<polygon fill="#63b8ff" stroke="#63b8ff" points="360.56,-19.5 370.56,-16 360.56,-12.5 360.56,-19.5"/>
</a>
</g>
</g>
</g>
</svg>
