<?xml version="1.0" encoding="UTF-8" standalone="no"?>
<!DOCTYPE svg PUBLIC "-//W3C//DTD SVG 1.1//EN"
 "http://www.w3.org/Graphics/SVG/1.1/DTD/svg11.dtd">
<!-- Generated by graphviz version 9.0.0 (20230911.1827)
 -->
<!-- Title: C:/Users/Clean/Documents/Projekte/Apos&#45;DatabaseManager/Project/classes/frontendClasses/windowhandler.hpp Pages: 1 -->
<svg xmlns:xlink="http://www.w3.org/1999/xlink" width="684pt"
 height="368pt" viewBox="0.00 0.00 683.86 368.00" xmlns="http://www.w3.org/2000/svg">
<g id="graph0" class="graph" transform="scale(1 1) rotate(0) translate(4 364)">
<title>C:/Users/Clean/Documents/Projekte/Apos&#45;DatabaseManager/Project/classes/frontendClasses/windowhandler.hpp</title>
<!-- Node1 -->
<g id="Node000001" class="node">
<title>Node1</title>
<g id="a_Node000001"><a xlink:title="Header file for the WindowHandler class.">
<polygon fill="#999999" stroke="#666666" points="311.86,-360 149.61,-360 149.61,-304 311.86,-304 311.86,-360"/>
<text text-anchor="start" x="157.61" y="-346.5" font-family="Helvetica,sans-Serif" font-size="10.00">C:/Users/Clean/Documents</text>
<text text-anchor="start" x="157.61" y="-334.5" font-family="Helvetica,sans-Serif" font-size="10.00">/Projekte/Apos&#45;DatabaseManager</text>
<text text-anchor="start" x="157.61" y="-322.5" font-family="Helvetica,sans-Serif" font-size="10.00">/Project/classes/frontendClasses</text>
<text text-anchor="middle" x="230.74" y="-310.5" font-family="Helvetica,sans-Serif" font-size="10.00">/windowhandler.hpp</text>
</a>
</g>
</g>
<!-- Node2 -->
<g id="Node000002" class="node">
<title>Node2</title>
<g id="a_Node000002"><a xlink:title=" ">
<polygon fill="#e0e0e0" stroke="#999999" points="62.74,-268 10.74,-268 10.74,-248 62.74,-248 62.74,-268"/>
<text text-anchor="middle" x="36.74" y="-254.5" font-family="Helvetica,sans-Serif" font-size="10.00">QObject</text>
</a>
</g>
</g>
<!-- Node1&#45;&gt;Node2 -->
<g id="edge1_Node000001_Node000002" class="edge">
<title>Node1&#45;&gt;Node2</title>
<g id="a_edge1_Node000001_Node000002"><a xlink:title=" ">
<path fill="none" stroke="#63b8ff" d="M156.84,-303.57C128,-292.87 96.26,-281.09 72.66,-272.33"/>
<polygon fill="#63b8ff" stroke="#63b8ff" points="74.12,-269.14 63.52,-268.94 71.68,-275.7 74.12,-269.14"/>
</a>
</g>
</g>
<!-- Node3 -->
<g id="Node000003" class="node">
<title>Node3</title>
<g id="a_Node000003"><a xlink:href="../../d2/d3e/launcherwindow_8hpp.html" target="_top" xlink:title="Header file for the LauncherWindow class.">
<polygon fill="white" stroke="#666666" points="282.24,-268 179.24,-268 179.24,-248 282.24,-248 282.24,-268"/>
<text text-anchor="middle" x="230.74" y="-254.5" font-family="Helvetica,sans-Serif" font-size="10.00">launcherwindow.hpp</text>
</a>
</g>
</g>
<!-- Node1&#45;&gt;Node3 -->
<g id="edge2_Node000001_Node000003" class="edge">
<title>Node1&#45;&gt;Node3</title>
<g id="a_edge2_Node000001_Node000003"><a xlink:title=" ">
<path fill="none" stroke="#63b8ff" d="M230.74,-303.78C230.74,-295.82 230.74,-287.25 230.74,-279.76"/>
<polygon fill="#63b8ff" stroke="#63b8ff" points="234.24,-279.99 230.74,-269.99 227.24,-279.99 234.24,-279.99"/>
</a>
</g>
</g>
<!-- Node5 -->
<g id="Node000005" class="node">
<title>Node5</title>
<g id="a_Node000005"><a xlink:href="../../d5/dcc/objecthandler_8hpp.html" target="_top" xlink:title="Header file for the ObjectHandler class.">
<polygon fill="white" stroke="#666666" points="481.99,-212 305.49,-212 305.49,-192 481.99,-192 481.99,-212"/>
<text text-anchor="middle" x="393.74" y="-198.5" font-family="Helvetica,sans-Serif" font-size="10.00">../backendClasses/objecthandler.hpp</text>
</a>
</g>
</g>
<!-- Node1&#45;&gt;Node5 -->
<g id="edge28_Node000001_Node000005" class="edge">
<title>Node1&#45;&gt;Node5</title>
<g id="a_edge28_Node000001_Node000005"><a xlink:title=" ">
<path fill="none" stroke="#63b8ff" d="M265.7,-303.54C298.36,-277.89 346.01,-240.48 373.02,-219.26"/>
<polygon fill="#63b8ff" stroke="#63b8ff" points="375.08,-222.1 380.79,-213.17 370.76,-216.59 375.08,-222.1"/>
</a>
</g>
</g>
<!-- Node12 -->
<g id="Node000012" class="node">
<title>Node12</title>
<g id="a_Node000012"><a xlink:href="../../d5/d65/devwindow_8hpp.html" target="_top" xlink:title="Header file for the DevWindow class.">
<polygon fill="white" stroke="#666666" points="160.99,-268 80.49,-268 80.49,-248 160.99,-248 160.99,-268"/>
<text text-anchor="middle" x="120.74" y="-254.5" font-family="Helvetica,sans-Serif" font-size="10.00">devwindow.hpp</text>
</a>
</g>
</g>
<!-- Node1&#45;&gt;Node12 -->
<g id="edge16_Node000001_Node000012" class="edge">
<title>Node1&#45;&gt;Node12</title>
<g id="a_edge16_Node000001_Node000012"><a xlink:title=" ">
<path fill="none" stroke="#63b8ff" d="M188.84,-303.57C173.89,-293.79 157.57,-283.11 144.66,-274.66"/>
<polygon fill="#63b8ff" stroke="#63b8ff" points="146.67,-271.79 136.39,-269.24 142.84,-277.65 146.67,-271.79"/>
</a>
</g>
</g>
<!-- Node13 -->
<g id="Node000013" class="node">
<title>Node13</title>
<g id="a_Node000013"><a xlink:href="../../df/db5/settingswindow_8hpp.html" target="_top" xlink:title="Header file for the SettingsWindow class.">
<polygon fill="white" stroke="#666666" points="484.11,-268 383.36,-268 383.36,-248 484.11,-248 484.11,-268"/>
<text text-anchor="middle" x="433.74" y="-254.5" font-family="Helvetica,sans-Serif" font-size="10.00">settingswindow.hpp</text>
</a>
</g>
</g>
<!-- Node1&#45;&gt;Node13 -->
<g id="edge22_Node000001_Node000013" class="edge">
<title>Node1&#45;&gt;Node13</title>
<g id="a_edge22_Node000001_Node000013"><a xlink:title=" ">
<path fill="none" stroke="#63b8ff" d="M308.06,-303.57C338.38,-292.82 371.75,-280.99 396.48,-272.21"/>
<polygon fill="#63b8ff" stroke="#63b8ff" points="397.51,-275.56 405.76,-268.92 395.17,-268.97 397.51,-275.56"/>
</a>
</g>
</g>
<!-- Node4 -->
<g id="Node000004" class="node">
<title>Node4</title>
<g id="a_Node000004"><a xlink:title=" ">
<polygon fill="#e0e0e0" stroke="#999999" points="152.24,-212 73.24,-212 73.24,-192 152.24,-192 152.24,-212"/>
<text text-anchor="middle" x="112.74" y="-198.5" font-family="Helvetica,sans-Serif" font-size="10.00">QMainWindow</text>
</a>
</g>
</g>
<!-- Node3&#45;&gt;Node4 -->
<g id="edge3_Node000003_Node000004" class="edge">
<title>Node3&#45;&gt;Node4</title>
<g id="a_edge3_Node000003_Node000004"><a xlink:title=" ">
<path fill="none" stroke="#63b8ff" d="M210.18,-247.59C191.85,-239.21 164.75,-226.8 143.78,-217.21"/>
<polygon fill="#63b8ff" stroke="#63b8ff" points="145.38,-214.09 134.83,-213.11 142.46,-220.45 145.38,-214.09"/>
</a>
</g>
</g>
<!-- Node3&#45;&gt;Node5 -->
<g id="edge4_Node000003_Node000005" class="edge">
<title>Node3&#45;&gt;Node5</title>
<g id="a_edge4_Node000003_Node000005"><a xlink:title=" ">
<path fill="none" stroke="#63b8ff" d="M259.13,-247.59C285.5,-238.86 325,-225.77 354.4,-216.03"/>
<polygon fill="#63b8ff" stroke="#63b8ff" points="355.29,-219.42 363.69,-212.96 353.09,-212.78 355.29,-219.42"/>
</a>
</g>
</g>
<!-- Node11 -->
<g id="Node000011" class="node">
<title>Node11</title>
<g id="a_Node000011"><a xlink:href="../../d7/dfa/translatablewindow_8hpp.html" target="_top" xlink:title="Header file for the TranslatableWindow class.">
<polygon fill="white" stroke="#666666" points="286.99,-212 170.49,-212 170.49,-192 286.99,-192 286.99,-212"/>
<text text-anchor="middle" x="228.74" y="-198.5" font-family="Helvetica,sans-Serif" font-size="10.00">translatablewindow.hpp</text>
</a>
</g>
</g>
<!-- Node3&#45;&gt;Node11 -->
<g id="edge15_Node000003_Node000011" class="edge">
<title>Node3&#45;&gt;Node11</title>
<g id="a_edge15_Node000003_Node000011"><a xlink:title=" ">
<path fill="none" stroke="#63b8ff" d="M230.39,-247.59C230.14,-241.01 229.81,-231.96 229.5,-223.73"/>
<polygon fill="#63b8ff" stroke="#63b8ff" points="233,-223.67 229.14,-213.81 226.01,-223.93 233,-223.67"/>
</a>
</g>
</g>
<!-- Node6 -->
<g id="Node000006" class="node">
<title>Node6</title>
<g id="a_Node000006"><a xlink:title=" ">
<polygon fill="#e0e0e0" stroke="#999999" points="253.49,-150 181.99,-150 181.99,-130 253.49,-130 253.49,-150"/>
<text text-anchor="middle" x="217.74" y="-136.5" font-family="Helvetica,sans-Serif" font-size="10.00">QApplication</text>
</a>
</g>
</g>
<!-- Node5&#45;&gt;Node6 -->
<g id="edge5_Node000005_Node000006" class="edge">
<title>Node5&#45;&gt;Node6</title>
<g id="a_edge5_Node000005_Node000006"><a xlink:title=" ">
<path fill="none" stroke="#63b8ff" d="M366.24,-191.62C336.62,-181.53 289.27,-165.39 256.02,-154.05"/>
<polygon fill="#63b8ff" stroke="#63b8ff" points="257.36,-150.81 246.77,-150.9 255.1,-157.44 257.36,-150.81"/>
</a>
</g>
</g>
<!-- Node7 -->
<g id="Node000007" class="node">
<title>Node7</title>
<g id="a_Node000007"><a xlink:title=" ">
<polygon fill="#e0e0e0" stroke="#999999" points="511.36,-20 460.11,-20 460.11,0 511.36,0 511.36,-20"/>
<text text-anchor="middle" x="485.74" y="-6.5" font-family="Helvetica,sans-Serif" font-size="10.00">QDebug</text>
</a>
</g>
</g>
<!-- Node5&#45;&gt;Node7 -->
<g id="edge6_Node000005_Node000007" class="edge">
<title>Node5&#45;&gt;Node7</title>
<g id="a_edge6_Node000005_Node000007"><a xlink:title=" ">
<path fill="none" stroke="#63b8ff" d="M432.93,-191.52C451.63,-184.84 472.36,-173.82 483.74,-156 508.16,-117.75 499.18,-61.48 491.73,-31.53"/>
<polygon fill="#63b8ff" stroke="#63b8ff" points="495.11,-30.63 489.13,-21.89 488.36,-32.46 495.11,-30.63"/>
</a>
</g>
</g>
<!-- Node8 -->
<g id="Node000008" class="node">
<title>Node8</title>
<g id="a_Node000008"><a xlink:title=" ">
<polygon fill="#e0e0e0" stroke="#999999" points="321.11,-20 280.36,-20 280.36,0 321.11,0 321.11,-20"/>
<text text-anchor="middle" x="300.74" y="-6.5" font-family="Helvetica,sans-Serif" font-size="10.00">QtSql</text>
</a>
</g>
</g>
<!-- Node5&#45;&gt;Node8 -->
<g id="edge7_Node000005_Node000008" class="edge">
<title>Node5&#45;&gt;Node8</title>
<g id="a_edge7_Node000005_Node000008"><a xlink:title=" ">
<path fill="none" stroke="#63b8ff" d="M384.83,-191.64C368.01,-173.37 331.75,-130.95 314.74,-88 307.47,-69.66 303.94,-47.36 302.25,-31.48"/>
<polygon fill="#63b8ff" stroke="#63b8ff" points="305.77,-31.49 301.39,-21.84 298.79,-32.11 305.77,-31.49"/>
</a>
</g>
</g>
<!-- Node9 -->
<g id="Node000009" class="node">
<title>Node9</title>
<g id="a_Node000009"><a xlink:href="../../de/d60/databasehandler_8hpp.html" target="_top" xlink:title="Header file for the DatabaseHandler class.">
<polygon fill="white" stroke="#666666" points="457.24,-88 348.24,-88 348.24,-56 457.24,-56 457.24,-88"/>
<text text-anchor="start" x="356.24" y="-74.5" font-family="Helvetica,sans-Serif" font-size="10.00">../databaseClasses</text>
<text text-anchor="middle" x="402.74" y="-62.5" font-family="Helvetica,sans-Serif" font-size="10.00">/databasehandler.hpp</text>
</a>
</g>
</g>
<!-- Node5&#45;&gt;Node9 -->
<g id="edge8_Node000005_Node000009" class="edge">
<title>Node5&#45;&gt;Node9</title>
<g id="a_edge8_Node000005_Node000009"><a xlink:title=" ">
<path fill="none" stroke="#63b8ff" d="M385.8,-191.75C378.97,-183.14 369.63,-169.62 365.74,-156 361.83,-142.32 361.35,-137.53 365.74,-124 368.89,-114.28 374.67,-104.86 380.74,-96.82"/>
<polygon fill="#63b8ff" stroke="#63b8ff" points="383.31,-99.21 386.9,-89.25 377.88,-94.79 383.31,-99.21"/>
</a>
</g>
</g>
<!-- Node10 -->
<g id="Node000010" class="node">
<title>Node10</title>
<g id="a_Node000010"><a xlink:href="../../df/d46/tablehandler_8hpp.html" target="_top" xlink:title="Header file for the TableHandler class.">
<polygon fill="white" stroke="#666666" points="474.74,-156 374.74,-156 374.74,-124 474.74,-124 474.74,-156"/>
<text text-anchor="start" x="382.74" y="-142.5" font-family="Helvetica,sans-Serif" font-size="10.00">../databaseClasses</text>
<text text-anchor="middle" x="424.74" y="-130.5" font-family="Helvetica,sans-Serif" font-size="10.00">/tablehandler.hpp</text>
</a>
</g>
</g>
<!-- Node5&#45;&gt;Node10 -->
<g id="edge11_Node000005_Node000010" class="edge">
<title>Node5&#45;&gt;Node10</title>
<g id="a_edge11_Node000005_Node000010"><a xlink:title=" ">
<path fill="none" stroke="#63b8ff" d="M398.58,-191.62C402.1,-184.8 407.05,-175.22 411.7,-166.23"/>
<polygon fill="#63b8ff" stroke="#63b8ff" points="414.74,-167.98 416.22,-157.49 408.52,-164.76 414.74,-167.98"/>
</a>
</g>
</g>
<!-- Node9&#45;&gt;Node7 -->
<g id="edge9_Node000009_Node000007" class="edge">
<title>Node9&#45;&gt;Node7</title>
<g id="a_edge9_Node000009_Node000007"><a xlink:title=" ">
<path fill="none" stroke="#63b8ff" d="M424.11,-55.55C436.24,-46.78 451.39,-35.83 463.64,-26.97"/>
<polygon fill="#63b8ff" stroke="#63b8ff" points="465.44,-29.99 471.5,-21.29 461.34,-24.32 465.44,-29.99"/>
</a>
</g>
</g>
<!-- Node9&#45;&gt;Node8 -->
<g id="edge10_Node000009_Node000008" class="edge">
<title>Node9&#45;&gt;Node8</title>
<g id="a_edge10_Node000009_Node000008"><a xlink:title=" ">
<path fill="none" stroke="#63b8ff" d="M376.47,-55.55C361.12,-46.52 341.83,-35.17 326.56,-26.19"/>
<polygon fill="#63b8ff" stroke="#63b8ff" points="328.43,-23.23 318.03,-21.18 324.88,-29.26 328.43,-23.23"/>
</a>
</g>
</g>
<!-- Node10&#45;&gt;Node7 -->
<g id="edge12_Node000010_Node000007" class="edge">
<title>Node10&#45;&gt;Node7</title>
<g id="a_edge12_Node000010_Node000007"><a xlink:title=" ">
<path fill="none" stroke="#63b8ff" d="M440.38,-123.78C449.32,-114.27 460.04,-101.33 466.74,-88 475.71,-70.14 480.61,-47.77 483.18,-31.75"/>
<polygon fill="#63b8ff" stroke="#63b8ff" points="486.63,-32.36 484.56,-21.97 479.7,-31.39 486.63,-32.36"/>
</a>
</g>
</g>
<!-- Node10&#45;&gt;Node8 -->
<g id="edge13_Node000010_Node000008" class="edge">
<title>Node10&#45;&gt;Node8</title>
<g id="a_edge13_Node000010_Node000008"><a xlink:title=" ">
<path fill="none" stroke="#63b8ff" d="M388.84,-123.62C372.01,-115.04 352.65,-103.03 338.74,-88 323.41,-71.45 312.93,-47.57 306.92,-30.81"/>
<polygon fill="#63b8ff" stroke="#63b8ff" points="310.3,-29.87 303.8,-21.5 303.66,-32.09 310.3,-29.87"/>
</a>
</g>
</g>
<!-- Node10&#45;&gt;Node9 -->
<g id="edge14_Node000010_Node000009" class="edge">
<title>Node10&#45;&gt;Node9</title>
<g id="a_edge14_Node000010_Node000009"><a xlink:title=" ">
<path fill="none" stroke="#63b8ff" d="M419.63,-123.69C417.19,-116.36 414.2,-107.38 411.41,-99.02"/>
<polygon fill="#63b8ff" stroke="#63b8ff" points="414.77,-98.04 408.29,-89.66 408.13,-100.25 414.77,-98.04"/>
</a>
</g>
</g>
<!-- Node12&#45;&gt;Node4 -->
<g id="edge17_Node000012_Node000004" class="edge">
<title>Node12&#45;&gt;Node4</title>
<g id="a_edge17_Node000012_Node000004"><a xlink:title=" ">
<path fill="none" stroke="#63b8ff" d="M119.34,-247.59C118.36,-240.93 116.99,-231.75 115.76,-223.44"/>
<polygon fill="#63b8ff" stroke="#63b8ff" points="119.26,-223.17 114.34,-213.8 112.34,-224.2 119.26,-223.17"/>
</a>
</g>
</g>
<!-- Node12&#45;&gt;Node5 -->
<g id="edge20_Node000012_Node000005" class="edge">
<title>Node12&#45;&gt;Node5</title>
<g id="a_edge20_Node000012_Node000005"><a xlink:title=" ">
<path fill="none" stroke="#63b8ff" d="M161.31,-248.97C207.25,-239.89 282.51,-225 334.9,-214.64"/>
<polygon fill="#63b8ff" stroke="#63b8ff" points="335.42,-218.1 344.55,-212.73 334.07,-211.24 335.42,-218.1"/>
</a>
</g>
</g>
<!-- Node12&#45;&gt;Node7 -->
<g id="edge18_Node000012_Node000007" class="edge">
<title>Node12&#45;&gt;Node7</title>
<g id="a_edge18_Node000012_Node000007"><a xlink:title=" ">
<path fill="none" stroke="#63b8ff" d="M101.94,-247.68C80.9,-235.91 51.29,-214.44 63.74,-192 142.12,-50.71 360.91,-19.69 448.65,-12.9"/>
<polygon fill="#63b8ff" stroke="#63b8ff" points="448.65,-16.41 458.38,-12.21 448.16,-9.42 448.65,-16.41"/>
</a>
</g>
</g>
<!-- Node12&#45;&gt;Node8 -->
<g id="edge19_Node000012_Node000008" class="edge">
<title>Node12&#45;&gt;Node8</title>
<g id="a_edge19_Node000012_Node000008"><a xlink:title=" ">
<path fill="none" stroke="#63b8ff" d="M81.32,-247.66C62.56,-241.02 41.85,-229.98 30.74,-212 -5.71,-153.02 -14.08,-108.9 30.74,-56 60.95,-20.33 204.21,-12.91 268.9,-11.38"/>
<polygon fill="#63b8ff" stroke="#63b8ff" points="268.58,-14.89 278.51,-11.19 268.44,-7.89 268.58,-14.89"/>
</a>
</g>
</g>
<!-- Node12&#45;&gt;Node11 -->
<g id="edge21_Node000012_Node000011" class="edge">
<title>Node12&#45;&gt;Node11</title>
<g id="a_edge21_Node000012_Node000011"><a xlink:title=" ">
<path fill="none" stroke="#63b8ff" d="M139.55,-247.59C156.09,-239.32 180.45,-227.14 199.53,-217.6"/>
<polygon fill="#63b8ff" stroke="#63b8ff" points="201.04,-220.76 208.42,-213.16 197.91,-214.5 201.04,-220.76"/>
</a>
</g>
</g>
<!-- Node13&#45;&gt;Node5 -->
<g id="edge25_Node000013_Node000005" class="edge">
<title>Node13&#45;&gt;Node5</title>
<g id="a_edge25_Node000013_Node000005"><a xlink:title=" ">
<path fill="none" stroke="#63b8ff" d="M426.77,-247.59C421.43,-240.39 413.91,-230.23 407.39,-221.43"/>
<polygon fill="#63b8ff" stroke="#63b8ff" points="410.29,-219.47 401.52,-213.51 404.66,-223.63 410.29,-219.47"/>
</a>
</g>
</g>
<!-- Node13&#45;&gt;Node7 -->
<g id="edge24_Node000013_Node000007" class="edge">
<title>Node13&#45;&gt;Node7</title>
<g id="a_edge24_Node000013_Node000007"><a xlink:title=" ">
<path fill="none" stroke="#63b8ff" d="M484.4,-255.16C515.9,-251.07 554.2,-240.11 574.74,-212 619.34,-150.95 541.6,-64.01 504.17,-27.82"/>
<polygon fill="#63b8ff" stroke="#63b8ff" points="506.8,-25.49 497.13,-21.17 502,-30.58 506.8,-25.49"/>
</a>
</g>
</g>
<!-- Node13&#45;&gt;Node11 -->
<g id="edge26_Node000013_Node000011" class="edge">
<title>Node13&#45;&gt;Node11</title>
<g id="a_edge26_Node000013_Node000011"><a xlink:title=" ">
<path fill="none" stroke="#63b8ff" d="M398.03,-247.59C364.14,-238.67 312.99,-225.19 275.79,-215.39"/>
<polygon fill="#63b8ff" stroke="#63b8ff" points="276.75,-212.03 266.19,-212.87 274.97,-218.8 276.75,-212.03"/>
</a>
</g>
</g>
<!-- Node14 -->
<g id="Node000014" class="node">
<title>Node14</title>
<g id="a_Node000014"><a xlink:title=" ">
<polygon fill="#e0e0e0" stroke="#999999" points="675.86,-212 621.61,-212 621.61,-192 675.86,-192 675.86,-212"/>
<text text-anchor="middle" x="648.74" y="-198.5" font-family="Helvetica,sans-Serif" font-size="10.00">QWidget</text>
</a>
</g>
</g>
<!-- Node13&#45;&gt;Node14 -->
<g id="edge23_Node000013_Node000014" class="edge">
<title>Node13&#45;&gt;Node14</title>
<g id="a_edge23_Node000013_Node000014"><a xlink:title=" ">
<path fill="none" stroke="#63b8ff" d="M471.19,-247.59C510.17,-237.8 570.92,-222.54 610.27,-212.66"/>
<polygon fill="#63b8ff" stroke="#63b8ff" points="610.95,-216.1 619.79,-210.27 609.24,-209.31 610.95,-216.1"/>
</a>
</g>
</g>
<!-- Node15 -->
<g id="Node000015" class="node">
<title>Node15</title>
<g id="a_Node000015"><a xlink:title=" ">
<polygon fill="#e0e0e0" stroke="#999999" points="565.86,-212 499.61,-212 499.61,-192 565.86,-192 565.86,-212"/>
<text text-anchor="middle" x="532.74" y="-198.5" font-family="Helvetica,sans-Serif" font-size="10.00">QTranslator</text>
</a>
</g>
</g>
<!-- Node13&#45;&gt;Node15 -->
<g id="edge27_Node000013_Node000015" class="edge">
<title>Node13&#45;&gt;Node15</title>
<g id="a_edge27_Node000013_Node000015"><a xlink:title=" ">
<path fill="none" stroke="#63b8ff" d="M450.98,-247.59C466.08,-239.36 488.26,-227.26 505.72,-217.74"/>
<polygon fill="#63b8ff" stroke="#63b8ff" points="506.93,-221.07 514.03,-213.2 503.57,-214.92 506.93,-221.07"/>
</a>
</g>
</g>
</g>
</svg>
