<?xml version="1.0" encoding="UTF-8" standalone="no"?>
<!DOCTYPE svg PUBLIC "-//W3C//DTD SVG 1.1//EN"
 "http://www.w3.org/Graphics/SVG/1.1/DTD/svg11.dtd">
<!-- Generated by graphviz version 9.0.0 (20230911.1827)
 -->
<!-- Title: C:/Users/Clean/Documents/Projekte/Apos&#45;DatabaseManager/Project/classes/frontendClasses/windowhandler.hpp Pages: 1 -->
<svg width="671pt" height="300pt"
 viewBox="0.00 0.00 670.83 300.00" xmlns="http://www.w3.org/2000/svg" xmlns:xlink="http://www.w3.org/1999/xlink">
<g id="graph0" class="graph" transform="scale(1 1) rotate(0) translate(4 296)">
<title>C:/Users/Clean/Documents/Projekte/Apos&#45;DatabaseManager/Project/classes/frontendClasses/windowhandler.hpp</title>
<!-- Node1 -->
<g id="Node000001" class="node">
<title>Node1</title>
<g id="a_Node000001"><a xlink:title=" ">
<polygon fill="#999999" stroke="#666666" points="422.83,-292 260.58,-292 260.58,-236 422.83,-236 422.83,-292"/>
<text text-anchor="start" x="268.58" y="-278.5" font-family="Helvetica,sans-Serif" font-size="10.00">C:/Users/Clean/Documents</text>
<text text-anchor="start" x="268.58" y="-266.5" font-family="Helvetica,sans-Serif" font-size="10.00">/Projekte/Apos&#45;DatabaseManager</text>
<text text-anchor="start" x="268.58" y="-254.5" font-family="Helvetica,sans-Serif" font-size="10.00">/Project/classes/frontendClasses</text>
<text text-anchor="middle" x="341.71" y="-242.5" font-family="Helvetica,sans-Serif" font-size="10.00">/windowhandler.hpp</text>
</a>
</g>
</g>
<!-- Node2 -->
<g id="Node000002" class="node">
<title>Node2</title>
<g id="a_Node000002"><a xlink:href="../../d2/d3e/launcherwindow_8hpp.html" target="_top" xlink:title=" ">
<polygon fill="white" stroke="#666666" points="310.21,-200 207.21,-200 207.21,-180 310.21,-180 310.21,-200"/>
<text text-anchor="middle" x="258.71" y="-186.5" font-family="Helvetica,sans-Serif" font-size="10.00">launcherwindow.hpp</text>
</a>
</g>
</g>
<!-- Node1&#45;&gt;Node2 -->
<g id="edge1_Node000001_Node000002" class="edge">
<title>Node1&#45;&gt;Node2</title>
<g id="a_edge1_Node000001_Node000002"><a xlink:title=" ">
<path fill="none" stroke="#63b8ff" d="M310.33,-235.78C299.48,-226.36 287.64,-216.1 278.04,-207.77"/>
<polygon fill="#63b8ff" stroke="#63b8ff" points="280.62,-205.37 270.77,-201.46 276.03,-210.66 280.62,-205.37"/>
</a>
</g>
</g>
<!-- Node4 -->
<g id="Node000004" class="node">
<title>Node4</title>
<g id="a_Node000004"><a xlink:href="../../d5/dcc/objecthandler_8hpp.html" target="_top" xlink:title=" ">
<polygon fill="white" stroke="#666666" points="468.96,-144 292.46,-144 292.46,-124 468.96,-124 468.96,-144"/>
<text text-anchor="middle" x="380.71" y="-130.5" font-family="Helvetica,sans-Serif" font-size="10.00">../backendClasses/objecthandler.hpp</text>
</a>
</g>
</g>
<!-- Node1&#45;&gt;Node4 -->
<g id="edge20_Node000001_Node000004" class="edge">
<title>Node1&#45;&gt;Node4</title>
<g id="a_edge20_Node000001_Node000004"><a xlink:title=" ">
<path fill="none" stroke="#63b8ff" d="M346.57,-235.72C349.83,-219.35 354.64,-198.23 360.71,-180 363.54,-171.5 367.41,-162.42 370.99,-154.65"/>
<polygon fill="#63b8ff" stroke="#63b8ff" points="374.06,-156.34 375.22,-145.81 367.74,-153.32 374.06,-156.34"/>
</a>
</g>
</g>
<!-- Node11 -->
<g id="Node000011" class="node">
<title>Node11</title>
<g id="a_Node000011"><a xlink:href="../../d5/d65/devwindow_8hpp.html" target="_top" xlink:title=" ">
<polygon fill="white" stroke="#666666" points="182.96,-200 102.46,-200 102.46,-180 182.96,-180 182.96,-200"/>
<text text-anchor="middle" x="142.71" y="-186.5" font-family="Helvetica,sans-Serif" font-size="10.00">devwindow.hpp</text>
</a>
</g>
</g>
<!-- Node1&#45;&gt;Node11 -->
<g id="edge14_Node000001_Node000011" class="edge">
<title>Node1&#45;&gt;Node11</title>
<g id="a_edge14_Node000001_Node000011"><a xlink:title=" ">
<path fill="none" stroke="#63b8ff" d="M265.91,-235.57C236.19,-224.82 203.48,-212.99 179.23,-204.21"/>
<polygon fill="#63b8ff" stroke="#63b8ff" points="180.75,-201.04 170.16,-200.93 178.37,-207.62 180.75,-201.04"/>
</a>
</g>
</g>
<!-- Node12 -->
<g id="Node000012" class="node">
<title>Node12</title>
<g id="a_Node000012"><a xlink:href="../../df/db5/settingswindow_8hpp.html" target="_top" xlink:title=" ">
<polygon fill="white" stroke="#666666" points="470.08,-200 369.33,-200 369.33,-180 470.08,-180 470.08,-200"/>
<text text-anchor="middle" x="419.71" y="-186.5" font-family="Helvetica,sans-Serif" font-size="10.00">settingswindow.hpp</text>
</a>
</g>
</g>
<!-- Node1&#45;&gt;Node12 -->
<g id="edge21_Node000001_Node000012" class="edge">
<title>Node1&#45;&gt;Node12</title>
<g id="a_edge21_Node000001_Node000012"><a xlink:title=" ">
<path fill="none" stroke="#63b8ff" d="M371.2,-235.78C381.29,-226.46 392.29,-216.31 401.26,-208.03"/>
<polygon fill="#63b8ff" stroke="#63b8ff" points="403.36,-210.85 408.34,-201.5 398.61,-205.71 403.36,-210.85"/>
</a>
</g>
</g>
<!-- Node15 -->
<g id="Node000015" class="node">
<title>Node15</title>
<g id="a_Node000015"><a xlink:title=" ">
<polygon fill="#e0e0e0" stroke="#999999" points="539.71,-200 487.71,-200 487.71,-180 539.71,-180 539.71,-200"/>
<text text-anchor="middle" x="513.71" y="-186.5" font-family="Helvetica,sans-Serif" font-size="10.00">QObject</text>
</a>
</g>
</g>
<!-- Node1&#45;&gt;Node15 -->
<g id="edge27_Node000001_Node000015" class="edge">
<title>Node1&#45;&gt;Node15</title>
<g id="a_edge27_Node000001_Node000015"><a xlink:title=" ">
<path fill="none" stroke="#63b8ff" d="M407.23,-235.57C432.33,-225.06 459.91,-213.52 480.71,-204.81"/>
<polygon fill="#63b8ff" stroke="#63b8ff" points="481.95,-208.09 489.82,-201 479.25,-201.63 481.95,-208.09"/>
</a>
</g>
</g>
<!-- Node3 -->
<g id="Node000003" class="node">
<title>Node3</title>
<g id="a_Node000003"><a xlink:title=" ">
<polygon fill="#e0e0e0" stroke="#999999" points="139.21,-144 60.21,-144 60.21,-124 139.21,-124 139.21,-144"/>
<text text-anchor="middle" x="99.71" y="-130.5" font-family="Helvetica,sans-Serif" font-size="10.00">QMainWindow</text>
</a>
</g>
</g>
<!-- Node2&#45;&gt;Node3 -->
<g id="edge2_Node000002_Node000003" class="edge">
<title>Node2&#45;&gt;Node3</title>
<g id="a_edge2_Node000002_Node000003"><a xlink:title=" ">
<path fill="none" stroke="#63b8ff" d="M231.01,-179.59C205.41,-170.9 167.1,-157.89 138.46,-148.16"/>
<polygon fill="#63b8ff" stroke="#63b8ff" points="139.65,-144.87 129.05,-144.97 137.4,-151.5 139.65,-144.87"/>
</a>
</g>
</g>
<!-- Node2&#45;&gt;Node4 -->
<g id="edge3_Node000002_Node000004" class="edge">
<title>Node2&#45;&gt;Node4</title>
<g id="a_edge3_Node000002_Node000004"><a xlink:title=" ">
<path fill="none" stroke="#63b8ff" d="M279.96,-179.59C299,-171.17 327.19,-158.69 348.91,-149.07"/>
<polygon fill="#63b8ff" stroke="#63b8ff" points="350.18,-152.34 357.91,-145.09 347.35,-145.94 350.18,-152.34"/>
</a>
</g>
</g>
<!-- Node10 -->
<g id="Node000010" class="node">
<title>Node10</title>
<g id="a_Node000010"><a xlink:href="../../d7/dfa/translatablewindow_8hpp.html" target="_top" xlink:title=" ">
<polygon fill="white" stroke="#666666" points="273.96,-144 157.46,-144 157.46,-124 273.96,-124 273.96,-144"/>
<text text-anchor="middle" x="215.71" y="-130.5" font-family="Helvetica,sans-Serif" font-size="10.00">translatablewindow.hpp</text>
</a>
</g>
</g>
<!-- Node2&#45;&gt;Node10 -->
<g id="edge13_Node000002_Node000010" class="edge">
<title>Node2&#45;&gt;Node10</title>
<g id="a_edge13_Node000002_Node000010"><a xlink:title=" ">
<path fill="none" stroke="#63b8ff" d="M251.22,-179.59C245.42,-172.32 237.22,-162.02 230.16,-153.15"/>
<polygon fill="#63b8ff" stroke="#63b8ff" points="233.02,-151.12 224.06,-145.48 227.55,-155.49 233.02,-151.12"/>
</a>
</g>
</g>
<!-- Node5 -->
<g id="Node000005" class="node">
<title>Node5</title>
<g id="a_Node000005"><a xlink:title=" ">
<polygon fill="#e0e0e0" stroke="#999999" points="146.46,-82 74.96,-82 74.96,-62 146.46,-62 146.46,-82"/>
<text text-anchor="middle" x="110.71" y="-68.5" font-family="Helvetica,sans-Serif" font-size="10.00">QApplication</text>
</a>
</g>
</g>
<!-- Node4&#45;&gt;Node5 -->
<g id="edge4_Node000004_Node000005" class="edge">
<title>Node4&#45;&gt;Node5</title>
<g id="a_edge4_Node000004_Node000005"><a xlink:title=" ">
<path fill="none" stroke="#63b8ff" d="M327.51,-123.5C282.76,-115.18 217.23,-102.23 160.71,-88 157.76,-87.26 154.73,-86.45 151.68,-85.61"/>
<polygon fill="#63b8ff" stroke="#63b8ff" points="152.76,-82.28 142.19,-82.9 150.84,-89.01 152.76,-82.28"/>
</a>
</g>
</g>
<!-- Node6 -->
<g id="Node000006" class="node">
<title>Node6</title>
<g id="a_Node000006"><a xlink:title=" ">
<polygon fill="#e0e0e0" stroke="#999999" points="406.33,-20 355.08,-20 355.08,0 406.33,0 406.33,-20"/>
<text text-anchor="middle" x="380.71" y="-6.5" font-family="Helvetica,sans-Serif" font-size="10.00">QDebug</text>
</a>
</g>
</g>
<!-- Node4&#45;&gt;Node6 -->
<g id="edge5_Node000004_Node000006" class="edge">
<title>Node4&#45;&gt;Node6</title>
<g id="a_edge5_Node000004_Node000006"><a xlink:title=" ">
<path fill="none" stroke="#63b8ff" d="M401.15,-123.61C414.81,-116.11 431.71,-104.16 439.71,-88 446.02,-75.25 446.02,-68.75 439.71,-56 433.52,-43.5 422.01,-33.52 410.79,-26.17"/>
<polygon fill="#63b8ff" stroke="#63b8ff" points="412.82,-23.31 402.44,-21.17 409.22,-29.31 412.82,-23.31"/>
</a>
</g>
</g>
<!-- Node7 -->
<g id="Node000007" class="node">
<title>Node7</title>
<g id="a_Node000007"><a xlink:title=" ">
<polygon fill="#e0e0e0" stroke="#999999" points="237.08,-20 196.33,-20 196.33,0 237.08,0 237.08,-20"/>
<text text-anchor="middle" x="216.71" y="-6.5" font-family="Helvetica,sans-Serif" font-size="10.00">QtSql</text>
</a>
</g>
</g>
<!-- Node4&#45;&gt;Node7 -->
<g id="edge6_Node000004_Node000007" class="edge">
<title>Node4&#45;&gt;Node7</title>
<g id="a_edge6_Node000004_Node000007"><a xlink:title=" ">
<path fill="none" stroke="#63b8ff" d="M299.92,-123.54C255.71,-116.52 207.22,-105.15 193.71,-88 180.27,-70.94 191.68,-46.15 202.69,-29.34"/>
<polygon fill="#63b8ff" stroke="#63b8ff" points="205.47,-31.47 208.39,-21.29 199.76,-27.43 205.47,-31.47"/>
</a>
</g>
</g>
<!-- Node8 -->
<g id="Node000008" class="node">
<title>Node8</title>
<g id="a_Node000008"><a xlink:href="../../de/d60/databasehandler_8hpp.html" target="_top" xlink:title=" ">
<polygon fill="white" stroke="#666666" points="312.21,-88 203.21,-88 203.21,-56 312.21,-56 312.21,-88"/>
<text text-anchor="start" x="211.21" y="-74.5" font-family="Helvetica,sans-Serif" font-size="10.00">../databaseClasses</text>
<text text-anchor="middle" x="257.71" y="-62.5" font-family="Helvetica,sans-Serif" font-size="10.00">/databasehandler.hpp</text>
</a>
</g>
</g>
<!-- Node4&#45;&gt;Node8 -->
<g id="edge7_Node000004_Node000008" class="edge">
<title>Node4&#45;&gt;Node8</title>
<g id="a_edge7_Node000004_Node000008"><a xlink:title=" ">
<path fill="none" stroke="#63b8ff" d="M361.49,-123.62C344.96,-115.56 320.53,-103.64 299.52,-93.4"/>
<polygon fill="#63b8ff" stroke="#63b8ff" points="301.11,-90.28 290.59,-89.04 298.04,-96.57 301.11,-90.28"/>
</a>
</g>
</g>
<!-- Node9 -->
<g id="Node000009" class="node">
<title>Node9</title>
<g id="a_Node000009"><a xlink:href="../../df/d46/tablehandler_8hpp.html" target="_top" xlink:title=" ">
<polygon fill="white" stroke="#666666" points="430.71,-88 330.71,-88 330.71,-56 430.71,-56 430.71,-88"/>
<text text-anchor="start" x="338.71" y="-74.5" font-family="Helvetica,sans-Serif" font-size="10.00">../databaseClasses</text>
<text text-anchor="middle" x="380.71" y="-62.5" font-family="Helvetica,sans-Serif" font-size="10.00">/tablehandler.hpp</text>
</a>
</g>
</g>
<!-- Node4&#45;&gt;Node9 -->
<g id="edge10_Node000004_Node000009" class="edge">
<title>Node4&#45;&gt;Node9</title>
<g id="a_edge10_Node000004_Node000009"><a xlink:title=" ">
<path fill="none" stroke="#63b8ff" d="M380.71,-123.62C380.71,-117.1 380.71,-108.05 380.71,-99.4"/>
<polygon fill="#63b8ff" stroke="#63b8ff" points="384.21,-99.65 380.71,-89.65 377.21,-99.65 384.21,-99.65"/>
</a>
</g>
</g>
<!-- Node8&#45;&gt;Node6 -->
<g id="edge8_Node000008_Node000006" class="edge">
<title>Node8&#45;&gt;Node6</title>
<g id="a_edge8_Node000008_Node000006"><a xlink:title=" ">
<path fill="none" stroke="#63b8ff" d="M289.39,-55.55C308.43,-46.26 332.5,-34.52 351.15,-25.42"/>
<polygon fill="#63b8ff" stroke="#63b8ff" points="352.61,-28.6 360.06,-21.07 349.54,-22.31 352.61,-28.6"/>
</a>
</g>
</g>
<!-- Node8&#45;&gt;Node7 -->
<g id="edge9_Node000008_Node000007" class="edge">
<title>Node8&#45;&gt;Node7</title>
<g id="a_edge9_Node000008_Node000007"><a xlink:title=" ">
<path fill="none" stroke="#63b8ff" d="M247.15,-55.55C241.75,-47.65 235.14,-37.97 229.46,-29.66"/>
<polygon fill="#63b8ff" stroke="#63b8ff" points="232.52,-27.94 223.99,-21.66 226.74,-31.89 232.52,-27.94"/>
</a>
</g>
</g>
<!-- Node9&#45;&gt;Node6 -->
<g id="edge11_Node000009_Node000006" class="edge">
<title>Node9&#45;&gt;Node6</title>
<g id="a_edge11_Node000009_Node000006"><a xlink:title=" ">
<path fill="none" stroke="#63b8ff" d="M380.71,-55.55C380.71,-48.34 380.71,-39.66 380.71,-31.88"/>
<polygon fill="#63b8ff" stroke="#63b8ff" points="384.21,-31.92 380.71,-21.92 377.21,-31.92 384.21,-31.92"/>
</a>
</g>
</g>
<!-- Node9&#45;&gt;Node7 -->
<g id="edge12_Node000009_Node000007" class="edge">
<title>Node9&#45;&gt;Node7</title>
<g id="a_edge12_Node000009_Node000007"><a xlink:title=" ">
<path fill="none" stroke="#63b8ff" d="M338.48,-55.55C310.2,-45.2 273.61,-31.82 247.94,-22.43"/>
<polygon fill="#63b8ff" stroke="#63b8ff" points="249.35,-19.21 238.75,-19.06 246.94,-25.79 249.35,-19.21"/>
</a>
</g>
</g>
<!-- Node11&#45;&gt;Node3 -->
<g id="edge15_Node000011_Node000003" class="edge">
<title>Node11&#45;&gt;Node3</title>
<g id="a_edge15_Node000011_Node000003"><a xlink:title=" ">
<path fill="none" stroke="#63b8ff" d="M135.22,-179.59C129.42,-172.32 121.22,-162.02 114.16,-153.15"/>
<polygon fill="#63b8ff" stroke="#63b8ff" points="117.02,-151.12 108.06,-145.48 111.55,-155.49 117.02,-151.12"/>
</a>
</g>
</g>
<!-- Node11&#45;&gt;Node4 -->
<g id="edge18_Node000011_Node000004" class="edge">
<title>Node11&#45;&gt;Node4</title>
<g id="a_edge18_Node000011_Node000004"><a xlink:title=" ">
<path fill="none" stroke="#63b8ff" d="M183.35,-179.78C223.29,-170.72 284.42,-156.85 328.06,-146.95"/>
<polygon fill="#63b8ff" stroke="#63b8ff" points="328.58,-150.42 337.56,-144.79 327.03,-143.59 328.58,-150.42"/>
</a>
</g>
</g>
<!-- Node11&#45;&gt;Node6 -->
<g id="edge16_Node000011_Node000006" class="edge">
<title>Node11&#45;&gt;Node6</title>
<g id="a_edge16_Node000011_Node000006"><a xlink:title=" ">
<path fill="none" stroke="#63b8ff" d="M101.97,-179.72C82.93,-173.12 62.01,-162.1 50.71,-144 36.91,-121.88 39.57,-80.25 65.71,-56 85.82,-37.35 264.23,-20.56 343.28,-13.96"/>
<polygon fill="#63b8ff" stroke="#63b8ff" points="343.45,-17.46 353.13,-13.15 342.88,-10.49 343.45,-17.46"/>
</a>
</g>
</g>
<!-- Node11&#45;&gt;Node7 -->
<g id="edge17_Node000011_Node000007" class="edge">
<title>Node11&#45;&gt;Node7</title>
<g id="a_edge17_Node000011_Node000007"><a xlink:title=" ">
<path fill="none" stroke="#63b8ff" d="M102.23,-186.21C73.46,-181.86 36.68,-170.98 17.71,-144 -4.78,-112 -6.71,-86.55 17.71,-56 38.28,-30.25 134.09,-18.16 184.89,-13.48"/>
<polygon fill="#63b8ff" stroke="#63b8ff" points="185.01,-16.98 194.67,-12.62 184.4,-10 185.01,-16.98"/>
</a>
</g>
</g>
<!-- Node11&#45;&gt;Node10 -->
<g id="edge19_Node000011_Node000010" class="edge">
<title>Node11&#45;&gt;Node10</title>
<g id="a_edge19_Node000011_Node000010"><a xlink:title=" ">
<path fill="none" stroke="#63b8ff" d="M155.43,-179.59C166.1,-171.7 181.59,-160.24 194.19,-150.92"/>
<polygon fill="#63b8ff" stroke="#63b8ff" points="195.97,-153.96 201.92,-145.2 191.8,-148.33 195.97,-153.96"/>
</a>
</g>
</g>
<!-- Node12&#45;&gt;Node4 -->
<g id="edge24_Node000012_Node000004" class="edge">
<title>Node12&#45;&gt;Node4</title>
<g id="a_edge24_Node000012_Node000004"><a xlink:title=" ">
<path fill="none" stroke="#63b8ff" d="M412.92,-179.59C407.72,-172.39 400.38,-162.23 394.02,-153.43"/>
<polygon fill="#63b8ff" stroke="#63b8ff" points="397,-151.58 388.31,-145.53 391.33,-155.68 397,-151.58"/>
</a>
</g>
</g>
<!-- Node12&#45;&gt;Node6 -->
<g id="edge23_Node000012_Node000006" class="edge">
<title>Node12&#45;&gt;Node6</title>
<g id="a_edge23_Node000012_Node000006"><a xlink:title=" ">
<path fill="none" stroke="#63b8ff" d="M439.81,-179.52C453.25,-171.98 469.86,-160.02 477.71,-144 481.62,-136.02 479.09,-132.78 477.71,-124 472.76,-92.62 475.48,-80.87 455.71,-56 445.22,-42.8 429.72,-32.58 415.52,-25.25"/>
<polygon fill="#63b8ff" stroke="#63b8ff" points="417.4,-22.27 406.88,-21.07 414.36,-28.57 417.4,-22.27"/>
</a>
</g>
</g>
<!-- Node12&#45;&gt;Node10 -->
<g id="edge25_Node000012_Node000010" class="edge">
<title>Node12&#45;&gt;Node10</title>
<g id="a_edge25_Node000012_Node000010"><a xlink:title=" ">
<path fill="none" stroke="#63b8ff" d="M384.18,-179.59C350.45,-170.67 299.55,-157.19 262.53,-147.39"/>
<polygon fill="#63b8ff" stroke="#63b8ff" points="263.55,-144.04 252.98,-144.87 261.76,-150.81 263.55,-144.04"/>
</a>
</g>
</g>
<!-- Node13 -->
<g id="Node000013" class="node">
<title>Node13</title>
<g id="a_Node000013"><a xlink:title=" ">
<polygon fill="#e0e0e0" stroke="#999999" points="662.83,-144 608.58,-144 608.58,-124 662.83,-124 662.83,-144"/>
<text text-anchor="middle" x="635.71" y="-130.5" font-family="Helvetica,sans-Serif" font-size="10.00">QWidget</text>
</a>
</g>
</g>
<!-- Node12&#45;&gt;Node13 -->
<g id="edge22_Node000012_Node000013" class="edge">
<title>Node12&#45;&gt;Node13</title>
<g id="a_edge22_Node000012_Node000013"><a xlink:title=" ">
<path fill="none" stroke="#63b8ff" d="M457.33,-179.59C496.5,-169.8 557.53,-154.54 597.07,-144.66"/>
<polygon fill="#63b8ff" stroke="#63b8ff" points="597.79,-148.09 606.64,-142.27 596.09,-141.3 597.79,-148.09"/>
</a>
</g>
</g>
<!-- Node14 -->
<g id="Node000014" class="node">
<title>Node14</title>
<g id="a_Node000014"><a xlink:title=" ">
<polygon fill="#e0e0e0" stroke="#999999" points="590.83,-144 524.58,-144 524.58,-124 590.83,-124 590.83,-144"/>
<text text-anchor="middle" x="557.71" y="-130.5" font-family="Helvetica,sans-Serif" font-size="10.00">QTranslator</text>
</a>
</g>
</g>
<!-- Node12&#45;&gt;Node14 -->
<g id="edge26_Node000012_Node000014" class="edge">
<title>Node12&#45;&gt;Node14</title>
<g id="a_edge26_Node000012_Node000014"><a xlink:title=" ">
<path fill="none" stroke="#63b8ff" d="M443.75,-179.59C465.68,-171.01 498.34,-158.23 523.08,-148.55"/>
<polygon fill="#63b8ff" stroke="#63b8ff" points="524.04,-151.93 532.08,-145.03 521.49,-145.42 524.04,-151.93"/>
</a>
</g>
</g>
</g>
</svg>
