<?xml version="1.0" encoding="UTF-8" standalone="no"?>
<!DOCTYPE svg PUBLIC "-//W3C//DTD SVG 1.1//EN"
 "http://www.w3.org/Graphics/SVG/1.1/DTD/svg11.dtd">
<!-- Generated by graphviz version 9.0.0 (20230911.1827)
 -->
<!-- Title: AposFrontend::DevWindow::openSettings Pages: 1 -->
<svg width="683pt" height="90pt"
 viewBox="0.00 0.00 682.50 90.00" xmlns="http://www.w3.org/2000/svg" xmlns:xlink="http://www.w3.org/1999/xlink">
<g id="graph0" class="graph" transform="scale(1 1) rotate(0) translate(4 86)">
<title>AposFrontend::DevWindow::openSettings</title>
<!-- Node1 -->
<g id="Node000001" class="node">
<title>Node1</title>
<g id="a_Node000001"><a xlink:title="Signal for opening the settings.">
<polygon fill="#999999" stroke="#666666" points="674.5,-57 541.5,-57 541.5,-25 674.5,-25 674.5,-57"/>
<text text-anchor="start" x="549.5" y="-43.5" font-family="Helvetica,sans-Serif" font-size="10.00">AposFrontend::DevWindow</text>
<text text-anchor="middle" x="608" y="-31.5" font-family="Helvetica,sans-Serif" font-size="10.00">::openSettings</text>
</a>
</g>
</g>
<!-- Node2 -->
<g id="Node000002" class="node">
<title>Node2</title>
<g id="a_Node000002"><a xlink:href="../../d8/d33/group___slot-_functions.html#ga2226eb622bf9e90c33e692a1be9cb3fc" target="_top" xlink:title="Slot for the &#39;Settings&#39; button click event.">
<polygon fill="white" stroke="#666666" points="496.88,-82 363.88,-82 363.88,-50 496.88,-50 496.88,-82"/>
<text text-anchor="start" x="371.88" y="-68.5" font-family="Helvetica,sans-Serif" font-size="10.00">AposFrontend::DevWindow</text>
<text text-anchor="middle" x="430.38" y="-56.5" font-family="Helvetica,sans-Serif" font-size="10.00">::settingsClicked</text>
</a>
</g>
</g>
<!-- Node1&#45;&gt;Node2 -->
<g id="edge1_Node000001_Node000002" class="edge">
<title>Node1&#45;&gt;Node2</title>
<g id="a_edge1_Node000001_Node000002"><a xlink:title=" ">
<path fill="none" stroke="#63b8ff" d="M529.9,-51.97C519.05,-53.52 507.97,-55.1 497.35,-56.61"/>
<polygon fill="#63b8ff" stroke="#63b8ff" points="530.2,-55.47 539.61,-50.59 529.21,-48.54 530.2,-55.47"/>
</a>
</g>
</g>
<!-- Node5 -->
<g id="Node000005" class="node">
<title>Node5</title>
<g id="a_Node000005"><a xlink:href="../../d6/de4/group___ui-_functions.html#gad71663083f50868c2efb568336b50b56" target="_top" xlink:title="Shows the developer window.">
<polygon fill="white" stroke="#666666" points="505.5,-32 355.25,-32 355.25,0 505.5,0 505.5,-32"/>
<text text-anchor="start" x="363.25" y="-18.5" font-family="Helvetica,sans-Serif" font-size="10.00">AposFrontend::WindowHandler</text>
<text text-anchor="middle" x="430.38" y="-6.5" font-family="Helvetica,sans-Serif" font-size="10.00">::showDevWindow</text>
</a>
</g>
</g>
<!-- Node1&#45;&gt;Node5 -->
<g id="edge4_Node000001_Node000005" class="edge">
<title>Node1&#45;&gt;Node5</title>
<g id="a_edge4_Node000001_Node000005"><a xlink:title=" ">
<path fill="none" stroke="#63b8ff" d="M529.93,-30.03C521.95,-28.89 513.85,-27.74 505.9,-26.61"/>
<polygon fill="#63b8ff" stroke="#63b8ff" points="529.21,-33.46 539.61,-31.41 530.2,-26.53 529.21,-33.46"/>
</a>
</g>
</g>
<!-- Node3 -->
<g id="Node000003" class="node">
<title>Node3</title>
<g id="a_Node000003"><a xlink:href="../../dc/dc2/class_apos_frontend_1_1_dev_window.html#a23ebf9d4eb49ee75ff31618f545b8f98" target="_top" xlink:title=" ">
<polygon fill="white" stroke="#666666" points="310.62,-82 177.62,-82 177.62,-50 310.62,-50 310.62,-82"/>
<text text-anchor="start" x="185.62" y="-68.5" font-family="Helvetica,sans-Serif" font-size="10.00">AposFrontend::DevWindow</text>
<text text-anchor="middle" x="244.12" y="-56.5" font-family="Helvetica,sans-Serif" font-size="10.00">::devConnectUi</text>
</a>
</g>
</g>
<!-- Node2&#45;&gt;Node3 -->
<g id="edge2_Node000002_Node000003" class="edge">
<title>Node2&#45;&gt;Node3</title>
<g id="a_edge2_Node000002_Node000003"><a xlink:title=" ">
<path fill="none" stroke="#63b8ff" d="M352.04,-66C338.38,-66 324.28,-66 310.97,-66"/>
<polygon fill="#63b8ff" stroke="#63b8ff" points="351.86,-69.5 361.86,-66 351.86,-62.5 351.86,-69.5"/>
</a>
</g>
</g>
<!-- Node4 -->
<g id="Node000004" class="node">
<title>Node4</title>
<g id="a_Node000004"><a xlink:href="../../d3/dbc/group___constructructors-_destructors.html#gafa7c4dab5fd2d00d38e0b3f3929978e7" target="_top" xlink:title="Constructor for the DevWindow class.">
<polygon fill="white" stroke="#666666" points="133,-82 0,-82 0,-50 133,-50 133,-82"/>
<text text-anchor="start" x="8" y="-68.5" font-family="Helvetica,sans-Serif" font-size="10.00">AposFrontend::DevWindow</text>
<text text-anchor="middle" x="66.5" y="-56.5" font-family="Helvetica,sans-Serif" font-size="10.00">::DevWindow</text>
</a>
</g>
</g>
<!-- Node3&#45;&gt;Node4 -->
<g id="edge3_Node000003_Node000004" class="edge">
<title>Node3&#45;&gt;Node4</title>
<g id="a_edge3_Node000003_Node000004"><a xlink:title=" ">
<path fill="none" stroke="#63b8ff" d="M166.03,-66C155.17,-66 144.09,-66 133.47,-66"/>
<polygon fill="#63b8ff" stroke="#63b8ff" points="165.72,-69.5 175.72,-66 165.72,-62.5 165.72,-69.5"/>
</a>
</g>
</g>
<!-- Node6 -->
<g id="Node000006" class="node">
<title>Node6</title>
<g id="a_Node000006"><a xlink:href="../../d3/dbc/group___constructructors-_destructors.html#ga8230aa2c25b5bb8db86c34b4b50bcd56" target="_top" xlink:title="Constructor for the WindowHandler class.">
<polygon fill="white" stroke="#666666" points="319.25,-32 169,-32 169,0 319.25,0 319.25,-32"/>
<text text-anchor="start" x="177" y="-18.5" font-family="Helvetica,sans-Serif" font-size="10.00">AposFrontend::WindowHandler</text>
<text text-anchor="middle" x="244.12" y="-6.5" font-family="Helvetica,sans-Serif" font-size="10.00">::WindowHandler</text>
</a>
</g>
</g>
<!-- Node5&#45;&gt;Node6 -->
<g id="edge5_Node000005_Node000006" class="edge">
<title>Node5&#45;&gt;Node6</title>
<g id="a_edge5_Node000005_Node000006"><a xlink:title=" ">
<path fill="none" stroke="#63b8ff" d="M343.64,-16C335.58,-16 327.46,-16 319.51,-16"/>
<polygon fill="#63b8ff" stroke="#63b8ff" points="343.45,-19.5 353.45,-16 343.45,-12.5 343.45,-19.5"/>
</a>
</g>
</g>
</g>
</svg>
