<?xml version="1.0" encoding="UTF-8" standalone="no"?>
<!DOCTYPE svg PUBLIC "-//W3C//DTD SVG 1.1//EN"
 "http://www.w3.org/Graphics/SVG/1.1/DTD/svg11.dtd">
<!-- Generated by graphviz version 9.0.0 (20230911.1827)
 -->
<!-- Title: AposFrontend::SettingsWindow::appliedSettings Pages: 1 -->
<svg width="918pt" height="112pt"
 viewBox="0.00 0.00 918.25 112.00" xmlns="http://www.w3.org/2000/svg" xmlns:xlink="http://www.w3.org/1999/xlink">
<g id="graph0" class="graph" transform="scale(1 1) rotate(0) translate(4 108)">
<title>AposFrontend::SettingsWindow::appliedSettings</title>
<!-- Node1 -->
<g id="Node000001" class="node">
<title>Node1</title>
<g id="a_Node000001"><a xlink:title="Signal for applying settings.">
<polygon fill="#999999" stroke="#666666" points="910.25,-57 757,-57 757,-25 910.25,-25 910.25,-57"/>
<text text-anchor="start" x="765" y="-43.5" font-family="Helvetica,sans-Serif" font-size="10.00">AposFrontend::SettingsWindow</text>
<text text-anchor="middle" x="833.62" y="-31.5" font-family="Helvetica,sans-Serif" font-size="10.00">::appliedSettings</text>
</a>
</g>
</g>
<!-- Node2 -->
<g id="Node000002" class="node">
<title>Node2</title>
<g id="a_Node000002"><a xlink:href="../../d8/d33/group___slot-_functions.html#gaf8c51b81640606727dea981bd3ede5ff" target="_top" xlink:title="Slot for the &#39;Apply&#39; button click event.">
<polygon fill="white" stroke="#666666" points="721,-82 567.75,-82 567.75,-50 721,-50 721,-82"/>
<text text-anchor="start" x="575.75" y="-68.5" font-family="Helvetica,sans-Serif" font-size="10.00">AposFrontend::SettingsWindow</text>
<text text-anchor="middle" x="644.38" y="-56.5" font-family="Helvetica,sans-Serif" font-size="10.00">::applyClicked</text>
</a>
</g>
</g>
<!-- Node1&#45;&gt;Node2 -->
<g id="edge1_Node000001_Node000002" class="edge">
<title>Node1&#45;&gt;Node2</title>
<g id="a_edge1_Node000001_Node000002"><a xlink:title=" ">
<path fill="none" stroke="#63b8ff" d="M745.44,-52.64C737.4,-53.71 729.3,-54.79 721.37,-55.85"/>
<polygon fill="#63b8ff" stroke="#63b8ff" points="745.78,-56.13 755.23,-51.33 744.86,-49.19 745.78,-56.13"/>
</a>
</g>
</g>
<!-- Node6 -->
<g id="Node000006" class="node">
<title>Node6</title>
<g id="a_Node000006"><a xlink:href="../../d3/dbc/group___constructructors-_destructors.html#ga8230aa2c25b5bb8db86c34b4b50bcd56" target="_top" xlink:title="Constructor for the WindowHandler class.">
<polygon fill="white" stroke="#666666" points="719.5,-32 569.25,-32 569.25,0 719.5,0 719.5,-32"/>
<text text-anchor="start" x="577.25" y="-18.5" font-family="Helvetica,sans-Serif" font-size="10.00">AposFrontend::WindowHandler</text>
<text text-anchor="middle" x="644.38" y="-6.5" font-family="Helvetica,sans-Serif" font-size="10.00">::WindowHandler</text>
</a>
</g>
</g>
<!-- Node1&#45;&gt;Node6 -->
<g id="edge6_Node000001_Node000006" class="edge">
<title>Node1&#45;&gt;Node6</title>
<g id="a_edge6_Node000001_Node000006"><a xlink:title=" ">
<path fill="none" stroke="#63b8ff" d="M745.52,-29.37C736.94,-28.23 728.29,-27.07 719.86,-25.94"/>
<polygon fill="#63b8ff" stroke="#63b8ff" points="744.86,-32.81 755.23,-30.67 745.78,-25.87 744.86,-32.81"/>
</a>
</g>
</g>
<!-- Node3 -->
<g id="Node000003" class="node">
<title>Node3</title>
<g id="a_Node000003"><a xlink:href="../../d2/df6/class_apos_frontend_1_1_settings_window.html#aa6da7c10b8630bef5645e16d93989327" target="_top" xlink:title=" ">
<polygon fill="white" stroke="#666666" points="531.75,-104 378.5,-104 378.5,-72 531.75,-72 531.75,-104"/>
<text text-anchor="start" x="386.5" y="-90.5" font-family="Helvetica,sans-Serif" font-size="10.00">AposFrontend::SettingsWindow</text>
<text text-anchor="middle" x="455.12" y="-78.5" font-family="Helvetica,sans-Serif" font-size="10.00">::applyAndCloseClicked</text>
</a>
</g>
</g>
<!-- Node2&#45;&gt;Node3 -->
<g id="edge2_Node000002_Node000003" class="edge">
<title>Node2&#45;&gt;Node3</title>
<g id="a_edge2_Node000002_Node000003"><a xlink:title=" ">
<path fill="none" stroke="#63b8ff" d="M556.19,-76.24C548.15,-77.19 540.05,-78.14 532.12,-79.07"/>
<polygon fill="#63b8ff" stroke="#63b8ff" points="556.46,-79.74 565.98,-75.09 555.64,-72.78 556.46,-79.74"/>
</a>
</g>
</g>
<!-- Node4 -->
<g id="Node000004" class="node">
<title>Node4</title>
<g id="a_Node000004"><a xlink:href="../../d2/df6/class_apos_frontend_1_1_settings_window.html#a501fb0a911cfa4a4b24a2c58ed59428f" target="_top" xlink:title=" ">
<polygon fill="white" stroke="#666666" points="342.5,-82 189.25,-82 189.25,-50 342.5,-50 342.5,-82"/>
<text text-anchor="start" x="197.25" y="-68.5" font-family="Helvetica,sans-Serif" font-size="10.00">AposFrontend::SettingsWindow</text>
<text text-anchor="middle" x="265.88" y="-56.5" font-family="Helvetica,sans-Serif" font-size="10.00">::settingsConnectUi</text>
</a>
</g>
</g>
<!-- Node2&#45;&gt;Node4 -->
<g id="edge5_Node000002_Node000004" class="edge">
<title>Node2&#45;&gt;Node4</title>
<g id="a_edge5_Node000002_Node000004"><a xlink:title=" ">
<path fill="none" stroke="#63b8ff" d="M556.18,-63.43C547.93,-63.26 539.68,-63.11 531.75,-63 463.65,-62.08 446.6,-62.08 378.5,-63 366.97,-63.15 354.76,-63.4 342.83,-63.68"/>
<polygon fill="#63b8ff" stroke="#63b8ff" points="555.83,-66.92 565.91,-63.65 555.99,-59.93 555.83,-66.92"/>
</a>
</g>
</g>
<!-- Node3&#45;&gt;Node4 -->
<g id="edge3_Node000003_Node000004" class="edge">
<title>Node3&#45;&gt;Node4</title>
<g id="a_edge3_Node000003_Node000004"><a xlink:title=" ">
<path fill="none" stroke="#63b8ff" d="M366.94,-77.76C358.9,-76.81 350.8,-75.86 342.87,-74.93"/>
<polygon fill="#63b8ff" stroke="#63b8ff" points="366.39,-81.22 376.73,-78.91 367.21,-74.26 366.39,-81.22"/>
</a>
</g>
</g>
<!-- Node5 -->
<g id="Node000005" class="node">
<title>Node5</title>
<g id="a_Node000005"><a xlink:href="../../d3/dbc/group___constructructors-_destructors.html#ga4d0c5f6c403b96a7ce7f2c31dc7864eb" target="_top" xlink:title="Constructor for the SettingsWindow class.">
<polygon fill="white" stroke="#666666" points="153.25,-82 0,-82 0,-50 153.25,-50 153.25,-82"/>
<text text-anchor="start" x="8" y="-68.5" font-family="Helvetica,sans-Serif" font-size="10.00">AposFrontend::SettingsWindow</text>
<text text-anchor="middle" x="76.62" y="-56.5" font-family="Helvetica,sans-Serif" font-size="10.00">::SettingsWindow</text>
</a>
</g>
</g>
<!-- Node4&#45;&gt;Node5 -->
<g id="edge4_Node000004_Node000005" class="edge">
<title>Node4&#45;&gt;Node5</title>
<g id="a_edge4_Node000004_Node000005"><a xlink:title=" ">
<path fill="none" stroke="#63b8ff" d="M177.69,-66C169.65,-66 161.55,-66 153.62,-66"/>
<polygon fill="#63b8ff" stroke="#63b8ff" points="177.47,-69.5 187.47,-66 177.47,-62.5 177.47,-69.5"/>
</a>
</g>
</g>
</g>
</svg>
