<?xml version="1.0" encoding="UTF-8" standalone="no"?>
<!DOCTYPE svg PUBLIC "-//W3C//DTD SVG 1.1//EN"
 "http://www.w3.org/Graphics/SVG/1.1/DTD/svg11.dtd">
<!-- Generated by graphviz version 9.0.0 (20230911.1827)
 -->
<!-- Title: AposFrontend::SettingsWindow::appliedSettings Pages: 1 -->
<svg xmlns:xlink="http://www.w3.org/1999/xlink" width="351pt"
 height="90pt" viewBox="0.00 0.00 350.50 90.00" xmlns="http://www.w3.org/2000/svg">
<g id="graph0" class="graph" transform="scale(1 1) rotate(0) translate(4 86)">
<title>AposFrontend::SettingsWindow::appliedSettings</title>
<!-- Node1 -->
<g id="Node000001" class="node">
<title>Node1</title>
<g id="a_Node000001"><a xlink:title="Signal for applying settings.">
<polygon fill="#999999" stroke="#666666" points="342.5,-57 189.25,-57 189.25,-25 342.5,-25 342.5,-57"/>
<text text-anchor="start" x="197.25" y="-43.5" font-family="Helvetica,sans-Serif" font-size="10.00">AposFrontend::SettingsWindow</text>
<text text-anchor="middle" x="265.88" y="-31.5" font-family="Helvetica,sans-Serif" font-size="10.00">::appliedSettings</text>
</a>
</g>
</g>
<!-- Node2 -->
<g id="Node000002" class="node">
<title>Node2</title>
<g id="a_Node000002"><a xlink:href="../../d8/d33/group___slot-_functions.html#gaf25a0a0d2cf2f2f20fec4ca3b4a36c88" target="_top" xlink:title="Slot for the &#39;Apply&#39; button click event.">
<polygon fill="white" stroke="#666666" points="153.25,-82 0,-82 0,-50 153.25,-50 153.25,-82"/>
<text text-anchor="start" x="8" y="-68.5" font-family="Helvetica,sans-Serif" font-size="10.00">AposFrontend::SettingsWindow</text>
<text text-anchor="middle" x="76.62" y="-56.5" font-family="Helvetica,sans-Serif" font-size="10.00">::applyClicked</text>
</a>
</g>
</g>
<!-- Node1&#45;&gt;Node2 -->
<g id="edge1_Node000001_Node000002" class="edge">
<title>Node1&#45;&gt;Node2</title>
<g id="a_edge1_Node000001_Node000002"><a xlink:title=" ">
<path fill="none" stroke="#63b8ff" d="M177.69,-52.64C169.65,-53.71 161.55,-54.79 153.62,-55.85"/>
<polygon fill="#63b8ff" stroke="#63b8ff" points="178.03,-56.13 187.48,-51.33 177.11,-49.19 178.03,-56.13"/>
</a>
</g>
</g>
<!-- Node3 -->
<g id="Node000003" class="node">
<title>Node3</title>
<g id="a_Node000003"><a xlink:href="../../d3/dbc/group___constructructors-_destructors.html#ga8230aa2c25b5bb8db86c34b4b50bcd56" target="_top" xlink:title="Constructor for the WindowHandler class.">
<polygon fill="white" stroke="#666666" points="151.75,-32 1.5,-32 1.5,0 151.75,0 151.75,-32"/>
<text text-anchor="start" x="9.5" y="-18.5" font-family="Helvetica,sans-Serif" font-size="10.00">AposFrontend::WindowHandler</text>
<text text-anchor="middle" x="76.62" y="-6.5" font-family="Helvetica,sans-Serif" font-size="10.00">::WindowHandler</text>
</a>
</g>
</g>
<!-- Node1&#45;&gt;Node3 -->
<g id="edge2_Node000001_Node000003" class="edge">
<title>Node1&#45;&gt;Node3</title>
<g id="a_edge2_Node000001_Node000003"><a xlink:title=" ">
<path fill="none" stroke="#63b8ff" d="M177.77,-29.37C169.19,-28.23 160.54,-27.07 152.11,-25.94"/>
<polygon fill="#63b8ff" stroke="#63b8ff" points="177.11,-32.81 187.48,-30.67 178.03,-25.87 177.11,-32.81"/>
</a>
</g>
</g>
</g>
</svg>
