<?xml version="1.0" encoding="UTF-8" standalone="no"?>
<!DOCTYPE svg PUBLIC "-//W3C//DTD SVG 1.1//EN"
 "http://www.w3.org/Graphics/SVG/1.1/DTD/svg11.dtd">
<!-- Generated by graphviz version 9.0.0 (20230911.1827)
 -->
<!-- Title: AposFrontend::DevWindow::openSettings Pages: 1 -->
<svg xmlns:xlink="http://www.w3.org/1999/xlink" width="514pt"
 height="90pt" viewBox="0.00 0.00 513.50 90.00" xmlns="http://www.w3.org/2000/svg">
<g id="graph0" class="graph" transform="scale(1 1) rotate(0) translate(4 86)">
<title>AposFrontend::DevWindow::openSettings</title>
<!-- Node1 -->
<g id="Node000001" class="node">
<title>Node1</title>
<g id="a_Node000001"><a xlink:title="Signal for opening the settings.">
<polygon fill="#999999" stroke="#666666" points="505.5,-57 372.5,-57 372.5,-25 505.5,-25 505.5,-57"/>
<text text-anchor="start" x="380.5" y="-43.5" font-family="Helvetica,sans-Serif" font-size="10.00">AposFrontend::DevWindow</text>
<text text-anchor="middle" x="439" y="-31.5" font-family="Helvetica,sans-Serif" font-size="10.00">::openSettings</text>
</a>
</g>
</g>
<!-- Node2 -->
<g id="Node000002" class="node">
<title>Node2</title>
<g id="a_Node000002"><a xlink:href="../../d8/d33/group___slot-_functions.html#ga42bcd7a5ac4909f201e9f1268ec2b64c" target="_top" xlink:title="Slot for the &#39;Settings&#39; button click event.">
<polygon fill="white" stroke="#666666" points="327.88,-82 194.88,-82 194.88,-50 327.88,-50 327.88,-82"/>
<text text-anchor="start" x="202.88" y="-68.5" font-family="Helvetica,sans-Serif" font-size="10.00">AposFrontend::DevWindow</text>
<text text-anchor="middle" x="261.38" y="-56.5" font-family="Helvetica,sans-Serif" font-size="10.00">::settingsClicked</text>
</a>
</g>
</g>
<!-- Node1&#45;&gt;Node2 -->
<g id="edge1_Node000001_Node000002" class="edge">
<title>Node1&#45;&gt;Node2</title>
<g id="a_edge1_Node000001_Node000002"><a xlink:title=" ">
<path fill="none" stroke="#63b8ff" d="M360.9,-51.97C350.05,-53.52 338.97,-55.1 328.35,-56.61"/>
<polygon fill="#63b8ff" stroke="#63b8ff" points="361.2,-55.47 370.61,-50.59 360.21,-48.54 361.2,-55.47"/>
</a>
</g>
</g>
<!-- Node3 -->
<g id="Node000003" class="node">
<title>Node3</title>
<g id="a_Node000003"><a xlink:href="../../d6/de4/group___ui-_functions.html#gad71663083f50868c2efb568336b50b56" target="_top" xlink:title="Shows the developer window.">
<polygon fill="white" stroke="#666666" points="336.5,-32 186.25,-32 186.25,0 336.5,0 336.5,-32"/>
<text text-anchor="start" x="194.25" y="-18.5" font-family="Helvetica,sans-Serif" font-size="10.00">AposFrontend::WindowHandler</text>
<text text-anchor="middle" x="261.38" y="-6.5" font-family="Helvetica,sans-Serif" font-size="10.00">::showDevWindow</text>
</a>
</g>
</g>
<!-- Node1&#45;&gt;Node3 -->
<g id="edge2_Node000001_Node000003" class="edge">
<title>Node1&#45;&gt;Node3</title>
<g id="a_edge2_Node000001_Node000003"><a xlink:title=" ">
<path fill="none" stroke="#63b8ff" d="M360.93,-30.03C352.95,-28.89 344.85,-27.74 336.9,-26.61"/>
<polygon fill="#63b8ff" stroke="#63b8ff" points="360.21,-33.46 370.61,-31.41 361.2,-26.53 360.21,-33.46"/>
</a>
</g>
</g>
<!-- Node4 -->
<g id="Node000004" class="node">
<title>Node4</title>
<g id="a_Node000004"><a xlink:href="../../d3/dbc/group___constructructors-_destructors.html#ga8230aa2c25b5bb8db86c34b4b50bcd56" target="_top" xlink:title="Constructor for the WindowHandler class.">
<polygon fill="white" stroke="#666666" points="150.25,-32 0,-32 0,0 150.25,0 150.25,-32"/>
<text text-anchor="start" x="8" y="-18.5" font-family="Helvetica,sans-Serif" font-size="10.00">AposFrontend::WindowHandler</text>
<text text-anchor="middle" x="75.12" y="-6.5" font-family="Helvetica,sans-Serif" font-size="10.00">::WindowHandler</text>
</a>
</g>
</g>
<!-- Node3&#45;&gt;Node4 -->
<g id="edge3_Node000003_Node000004" class="edge">
<title>Node3&#45;&gt;Node4</title>
<g id="a_edge3_Node000003_Node000004"><a xlink:title=" ">
<path fill="none" stroke="#63b8ff" d="M174.64,-16C166.58,-16 158.46,-16 150.51,-16"/>
<polygon fill="#63b8ff" stroke="#63b8ff" points="174.45,-19.5 184.45,-16 174.45,-12.5 174.45,-19.5"/>
</a>
</g>
</g>
</g>
</svg>
