<?xml version="1.0" encoding="UTF-8" standalone="no"?>
<!DOCTYPE svg PUBLIC "-//W3C//DTD SVG 1.1//EN"
 "http://www.w3.org/Graphics/SVG/1.1/DTD/svg11.dtd">
<!-- Generated by graphviz version 9.0.0 (20230911.1827)
 -->
<!-- Title: AposFrontend::LauncherWindow::openSettings Pages: 1 -->
<svg xmlns:xlink="http://www.w3.org/1999/xlink" width="358pt"
 height="90pt" viewBox="0.00 0.00 358.00 90.00" xmlns="http://www.w3.org/2000/svg">
<g id="graph0" class="graph" transform="scale(1 1) rotate(0) translate(4 86)">
<title>AposFrontend::LauncherWindow::openSettings</title>
<!-- Node1 -->
<g id="Node000001" class="node">
<title>Node1</title>
<g id="a_Node000001"><a xlink:title="Signal for opening the settings.">
<polygon fill="#999999" stroke="#666666" points="350,-57 193,-57 193,-25 350,-25 350,-57"/>
<text text-anchor="start" x="201" y="-43.5" font-family="Helvetica,sans-Serif" font-size="10.00">AposFrontend::LauncherWindow</text>
<text text-anchor="middle" x="271.5" y="-31.5" font-family="Helvetica,sans-Serif" font-size="10.00">::openSettings</text>
</a>
</g>
</g>
<!-- Node2 -->
<g id="Node000002" class="node">
<title>Node2</title>
<g id="a_Node000002"><a xlink:href="../../d8/d33/group___slot-_functions.html#ga7a52cc1168adc3df616915e4ec59e112" target="_top" xlink:title="Slot for the &#39;PushButton&#39; button click event.">
<polygon fill="white" stroke="#666666" points="157,-82 0,-82 0,-50 157,-50 157,-82"/>
<text text-anchor="start" x="8" y="-68.5" font-family="Helvetica,sans-Serif" font-size="10.00">AposFrontend::LauncherWindow</text>
<text text-anchor="middle" x="78.5" y="-56.5" font-family="Helvetica,sans-Serif" font-size="10.00">::on_pushButton_clicked</text>
</a>
</g>
</g>
<!-- Node1&#45;&gt;Node2 -->
<g id="edge1_Node000001_Node000002" class="edge">
<title>Node1&#45;&gt;Node2</title>
<g id="a_edge1_Node000001_Node000002"><a xlink:title=" ">
<path fill="none" stroke="#63b8ff" d="M181.25,-52.68C173.22,-53.73 165.13,-54.79 157.21,-55.83"/>
<polygon fill="#63b8ff" stroke="#63b8ff" points="181.58,-56.17 191.04,-51.4 180.67,-49.23 181.58,-56.17"/>
</a>
</g>
</g>
<!-- Node3 -->
<g id="Node000003" class="node">
<title>Node3</title>
<g id="a_Node000003"><a xlink:href="../../d3/dbc/group___constructructors-_destructors.html#ga8230aa2c25b5bb8db86c34b4b50bcd56" target="_top" xlink:title="Constructor for the WindowHandler class.">
<polygon fill="white" stroke="#666666" points="153.62,-32 3.38,-32 3.38,0 153.62,0 153.62,-32"/>
<text text-anchor="start" x="11.38" y="-18.5" font-family="Helvetica,sans-Serif" font-size="10.00">AposFrontend::WindowHandler</text>
<text text-anchor="middle" x="78.5" y="-6.5" font-family="Helvetica,sans-Serif" font-size="10.00">::WindowHandler</text>
</a>
</g>
</g>
<!-- Node1&#45;&gt;Node3 -->
<g id="edge2_Node000001_Node000003" class="edge">
<title>Node1&#45;&gt;Node3</title>
<g id="a_edge2_Node000001_Node000003"><a xlink:title=" ">
<path fill="none" stroke="#63b8ff" d="M181.36,-29.33C172.14,-28.13 162.85,-26.91 153.82,-25.73"/>
<polygon fill="#63b8ff" stroke="#63b8ff" points="180.67,-32.77 191.04,-30.6 181.58,-25.83 180.67,-32.77"/>
</a>
</g>
</g>
</g>
</svg>
