<?xml version="1.0" encoding="UTF-8" standalone="no"?>
<!DOCTYPE svg PUBLIC "-//W3C//DTD SVG 1.1//EN"
 "http://www.w3.org/Graphics/SVG/1.1/DTD/svg11.dtd">
<!-- Generated by graphviz version 9.0.0 (20230911.1827)
 -->
<!-- Title: AposFrontend::LauncherWindow::openSettings Pages: 1 -->
<svg width="744pt" height="90pt"
 viewBox="0.00 0.00 744.00 90.00" xmlns="http://www.w3.org/2000/svg" xmlns:xlink="http://www.w3.org/1999/xlink">
<g id="graph0" class="graph" transform="scale(1 1) rotate(0) translate(4 86)">
<title>AposFrontend::LauncherWindow::openSettings</title>
<!-- Node1 -->
<g id="Node000001" class="node">
<title>Node1</title>
<g id="a_Node000001"><a xlink:title="Signal for opening the settings.">
<polygon fill="#999999" stroke="#666666" points="736,-57 579,-57 579,-25 736,-25 736,-57"/>
<text text-anchor="start" x="587" y="-43.5" font-family="Helvetica,sans-Serif" font-size="10.00">AposFrontend::LauncherWindow</text>
<text text-anchor="middle" x="657.5" y="-31.5" font-family="Helvetica,sans-Serif" font-size="10.00">::openSettings</text>
</a>
</g>
</g>
<!-- Node2 -->
<g id="Node000002" class="node">
<title>Node2</title>
<g id="a_Node000002"><a xlink:href="../../d8/d33/group___slot-_functions.html#gab825d6fc24f308db7d35b33ca73b2cdf" target="_top" xlink:title="Slot for the &#39;PushButton&#39; button click event.">
<polygon fill="white" stroke="#666666" points="543,-82 386,-82 386,-50 543,-50 543,-82"/>
<text text-anchor="start" x="394" y="-68.5" font-family="Helvetica,sans-Serif" font-size="10.00">AposFrontend::LauncherWindow</text>
<text text-anchor="middle" x="464.5" y="-56.5" font-family="Helvetica,sans-Serif" font-size="10.00">::pushButtonClicked</text>
</a>
</g>
</g>
<!-- Node1&#45;&gt;Node2 -->
<g id="edge1_Node000001_Node000002" class="edge">
<title>Node1&#45;&gt;Node2</title>
<g id="a_edge1_Node000001_Node000002"><a xlink:title=" ">
<path fill="none" stroke="#63b8ff" d="M567.25,-52.68C559.22,-53.73 551.13,-54.79 543.21,-55.83"/>
<polygon fill="#63b8ff" stroke="#63b8ff" points="567.58,-56.17 577.04,-51.4 566.67,-49.23 567.58,-56.17"/>
</a>
</g>
</g>
<!-- Node5 -->
<g id="Node000005" class="node">
<title>Node5</title>
<g id="a_Node000005"><a xlink:href="../../d3/dbc/group___constructructors-_destructors.html#ga8230aa2c25b5bb8db86c34b4b50bcd56" target="_top" xlink:title="Constructor for the WindowHandler class.">
<polygon fill="white" stroke="#666666" points="539.62,-32 389.38,-32 389.38,0 539.62,0 539.62,-32"/>
<text text-anchor="start" x="397.38" y="-18.5" font-family="Helvetica,sans-Serif" font-size="10.00">AposFrontend::WindowHandler</text>
<text text-anchor="middle" x="464.5" y="-6.5" font-family="Helvetica,sans-Serif" font-size="10.00">::WindowHandler</text>
</a>
</g>
</g>
<!-- Node1&#45;&gt;Node5 -->
<g id="edge4_Node000001_Node000005" class="edge">
<title>Node1&#45;&gt;Node5</title>
<g id="a_edge4_Node000001_Node000005"><a xlink:title=" ">
<path fill="none" stroke="#63b8ff" d="M567.36,-29.33C558.14,-28.13 548.85,-26.91 539.82,-25.73"/>
<polygon fill="#63b8ff" stroke="#63b8ff" points="566.67,-32.77 577.04,-30.6 567.58,-25.83 566.67,-32.77"/>
</a>
</g>
</g>
<!-- Node3 -->
<g id="Node000003" class="node">
<title>Node3</title>
<g id="a_Node000003"><a xlink:href="../../da/d2e/class_apos_frontend_1_1_launcher_window.html#ae1983d72ca64b6600ee8b0651fb412fc" target="_top" xlink:title=" ">
<polygon fill="white" stroke="#666666" points="350,-82 193,-82 193,-50 350,-50 350,-82"/>
<text text-anchor="start" x="201" y="-68.5" font-family="Helvetica,sans-Serif" font-size="10.00">AposFrontend::LauncherWindow</text>
<text text-anchor="middle" x="271.5" y="-56.5" font-family="Helvetica,sans-Serif" font-size="10.00">::launcherConnectUi</text>
</a>
</g>
</g>
<!-- Node2&#45;&gt;Node3 -->
<g id="edge2_Node000002_Node000003" class="edge">
<title>Node2&#45;&gt;Node3</title>
<g id="a_edge2_Node000002_Node000003"><a xlink:title=" ">
<path fill="none" stroke="#63b8ff" d="M374.25,-66C366.22,-66 358.13,-66 350.21,-66"/>
<polygon fill="#63b8ff" stroke="#63b8ff" points="374.02,-69.5 384.02,-66 374.02,-62.5 374.02,-69.5"/>
</a>
</g>
</g>
<!-- Node4 -->
<g id="Node000004" class="node">
<title>Node4</title>
<g id="a_Node000004"><a xlink:href="../../d3/dbc/group___constructructors-_destructors.html#ga5800462baf6f3c3834f506ad8575d4ad" target="_top" xlink:title="Constructor for the LauncherWindow class.">
<polygon fill="white" stroke="#666666" points="157,-82 0,-82 0,-50 157,-50 157,-82"/>
<text text-anchor="start" x="8" y="-68.5" font-family="Helvetica,sans-Serif" font-size="10.00">AposFrontend::LauncherWindow</text>
<text text-anchor="middle" x="78.5" y="-56.5" font-family="Helvetica,sans-Serif" font-size="10.00">::LauncherWindow</text>
</a>
</g>
</g>
<!-- Node3&#45;&gt;Node4 -->
<g id="edge3_Node000003_Node000004" class="edge">
<title>Node3&#45;&gt;Node4</title>
<g id="a_edge3_Node000003_Node000004"><a xlink:title=" ">
<path fill="none" stroke="#63b8ff" d="M181.25,-66C173.22,-66 165.13,-66 157.21,-66"/>
<polygon fill="#63b8ff" stroke="#63b8ff" points="181.02,-69.5 191.02,-66 181.02,-62.5 181.02,-69.5"/>
</a>
</g>
</g>
</g>
</svg>
