<?xml version="1.0" encoding="UTF-8" standalone="no"?>
<!DOCTYPE svg PUBLIC "-//W3C//DTD SVG 1.1//EN"
 "http://www.w3.org/Graphics/SVG/1.1/DTD/svg11.dtd">
<!-- Generated by graphviz version 9.0.0 (20230911.1827)
 -->
<!-- Title: C:/Users/Clean/Documents/Projekte/Apos&#45;DatabaseManager/Project/classes/frontendClasses/windowhandler.cpp Pages: 1 -->
<svg width="670pt" height="356pt"
 viewBox="0.00 0.00 670.14 356.00" xmlns="http://www.w3.org/2000/svg" xmlns:xlink="http://www.w3.org/1999/xlink">
<g id="graph0" class="graph" transform="scale(1 1) rotate(0) translate(4 352)">
<title>C:/Users/Clean/Documents/Projekte/Apos&#45;DatabaseManager/Project/classes/frontendClasses/windowhandler.cpp</title>
<!-- Node1 -->
<g id="Node000001" class="node">
<title>Node1</title>
<g id="a_Node000001"><a xlink:title=" ">
<polygon fill="#999999" stroke="#666666" points="408.14,-348 245.89,-348 245.89,-292 408.14,-292 408.14,-348"/>
<text text-anchor="start" x="253.89" y="-334.5" font-family="Helvetica,sans-Serif" font-size="10.00">C:/Users/Clean/Documents</text>
<text text-anchor="start" x="253.89" y="-322.5" font-family="Helvetica,sans-Serif" font-size="10.00">/Projekte/Apos&#45;DatabaseManager</text>
<text text-anchor="start" x="253.89" y="-310.5" font-family="Helvetica,sans-Serif" font-size="10.00">/Project/classes/frontendClasses</text>
<text text-anchor="middle" x="327.01" y="-298.5" font-family="Helvetica,sans-Serif" font-size="10.00">/windowhandler.cpp</text>
</a>
</g>
</g>
<!-- Node2 -->
<g id="Node000002" class="node">
<title>Node2</title>
<g id="a_Node000002"><a xlink:href="../../da/d25/windowhandler_8hpp.html" target="_top" xlink:title=" ">
<polygon fill="white" stroke="#666666" points="337.89,-256 240.14,-256 240.14,-236 337.89,-236 337.89,-256"/>
<text text-anchor="middle" x="289.01" y="-242.5" font-family="Helvetica,sans-Serif" font-size="10.00">windowhandler.hpp</text>
</a>
</g>
</g>
<!-- Node1&#45;&gt;Node2 -->
<g id="edge1_Node000001_Node000002" class="edge">
<title>Node1&#45;&gt;Node2</title>
<g id="a_edge1_Node000001_Node000002"><a xlink:title=" ">
<path fill="none" stroke="#63b8ff" d="M312.65,-291.78C308.19,-283.34 303.37,-274.2 299.25,-266.4"/>
<polygon fill="#63b8ff" stroke="#63b8ff" points="302.48,-265.02 294.72,-257.81 296.29,-268.29 302.48,-265.02"/>
</a>
</g>
</g>
<!-- Node11 -->
<g id="Node000011" class="node">
<title>Node11</title>
<g id="a_Node000011"><a xlink:href="../../d7/dfa/translatablewindow_8hpp.html" target="_top" xlink:title=" ">
<polygon fill="white" stroke="#666666" points="468.26,-144 351.76,-144 351.76,-124 468.26,-124 468.26,-144"/>
<text text-anchor="middle" x="410.01" y="-130.5" font-family="Helvetica,sans-Serif" font-size="10.00">translatablewindow.hpp</text>
</a>
</g>
</g>
<!-- Node1&#45;&gt;Node11 -->
<g id="edge29_Node000001_Node000011" class="edge">
<title>Node1&#45;&gt;Node11</title>
<g id="a_edge29_Node000001_Node000011"><a xlink:title=" ">
<path fill="none" stroke="#63b8ff" d="M339.26,-291.85C356.2,-254.29 386.38,-187.4 401.24,-154.44"/>
<polygon fill="#63b8ff" stroke="#63b8ff" points="404.27,-156.24 405.19,-145.69 397.89,-153.36 404.27,-156.24"/>
</a>
</g>
</g>
<!-- Node3 -->
<g id="Node000003" class="node">
<title>Node3</title>
<g id="a_Node000003"><a xlink:href="../../d2/d3e/launcherwindow_8hpp.html" target="_top" xlink:title=" ">
<polygon fill="white" stroke="#666666" points="296.51,-200 193.51,-200 193.51,-180 296.51,-180 296.51,-200"/>
<text text-anchor="middle" x="245.01" y="-186.5" font-family="Helvetica,sans-Serif" font-size="10.00">launcherwindow.hpp</text>
</a>
</g>
</g>
<!-- Node2&#45;&gt;Node3 -->
<g id="edge2_Node000002_Node000003" class="edge">
<title>Node2&#45;&gt;Node3</title>
<g id="a_edge2_Node000002_Node000003"><a xlink:title=" ">
<path fill="none" stroke="#63b8ff" d="M281.35,-235.59C275.42,-228.32 267.03,-218.02 259.8,-209.15"/>
<polygon fill="#63b8ff" stroke="#63b8ff" points="262.58,-207.01 253.55,-201.47 257.15,-211.43 262.58,-207.01"/>
</a>
</g>
</g>
<!-- Node5 -->
<g id="Node000005" class="node">
<title>Node5</title>
<g id="a_Node000005"><a xlink:href="../../d5/dcc/objecthandler_8hpp.html" target="_top" xlink:title=" ">
<polygon fill="white" stroke="#666666" points="333.26,-144 156.76,-144 156.76,-124 333.26,-124 333.26,-144"/>
<text text-anchor="middle" x="245.01" y="-130.5" font-family="Helvetica,sans-Serif" font-size="10.00">../backendClasses/objecthandler.hpp</text>
</a>
</g>
</g>
<!-- Node2&#45;&gt;Node5 -->
<g id="edge21_Node000002_Node000005" class="edge">
<title>Node2&#45;&gt;Node5</title>
<g id="a_edge21_Node000002_Node000005"><a xlink:title=" ">
<path fill="none" stroke="#63b8ff" d="M295.39,-235.74C303.5,-222.72 315.37,-198.53 306.01,-180 299.64,-167.37 287.86,-157.41 276.34,-150.11"/>
<polygon fill="#63b8ff" stroke="#63b8ff" points="278.14,-147.11 267.73,-145.13 274.64,-153.17 278.14,-147.11"/>
</a>
</g>
</g>
<!-- Node12 -->
<g id="Node000012" class="node">
<title>Node12</title>
<g id="a_Node000012"><a xlink:href="../../d5/d65/devwindow_8hpp.html" target="_top" xlink:title=" ">
<polygon fill="white" stroke="#666666" points="175.26,-200 94.76,-200 94.76,-180 175.26,-180 175.26,-200"/>
<text text-anchor="middle" x="135.01" y="-186.5" font-family="Helvetica,sans-Serif" font-size="10.00">devwindow.hpp</text>
</a>
</g>
</g>
<!-- Node2&#45;&gt;Node12 -->
<g id="edge15_Node000002_Node000012" class="edge">
<title>Node2&#45;&gt;Node12</title>
<g id="a_edge15_Node000002_Node000012"><a xlink:title=" ">
<path fill="none" stroke="#63b8ff" d="M262.19,-235.59C237.39,-226.9 200.29,-213.89 172.55,-204.16"/>
<polygon fill="#63b8ff" stroke="#63b8ff" points="174.07,-200.99 163.48,-200.98 171.75,-207.59 174.07,-200.99"/>
</a>
</g>
</g>
<!-- Node13 -->
<g id="Node000013" class="node">
<title>Node13</title>
<g id="a_Node000013"><a xlink:href="../../df/db5/settingswindow_8hpp.html" target="_top" xlink:title=" ">
<polygon fill="white" stroke="#666666" points="530.39,-200 429.64,-200 429.64,-180 530.39,-180 530.39,-200"/>
<text text-anchor="middle" x="480.01" y="-186.5" font-family="Helvetica,sans-Serif" font-size="10.00">settingswindow.hpp</text>
</a>
</g>
</g>
<!-- Node2&#45;&gt;Node13 -->
<g id="edge22_Node000002_Node000013" class="edge">
<title>Node2&#45;&gt;Node13</title>
<g id="a_edge22_Node000002_Node000013"><a xlink:title=" ">
<path fill="none" stroke="#63b8ff" d="M322.28,-235.59C353.72,-226.71 401.1,-213.31 435.73,-203.52"/>
<polygon fill="#63b8ff" stroke="#63b8ff" points="436.36,-206.98 445.03,-200.89 434.45,-200.24 436.36,-206.98"/>
</a>
</g>
</g>
<!-- Node16 -->
<g id="Node000016" class="node">
<title>Node16</title>
<g id="a_Node000016"><a xlink:title=" ">
<polygon fill="#e0e0e0" stroke="#999999" points="77.01,-200 25.01,-200 25.01,-180 77.01,-180 77.01,-200"/>
<text text-anchor="middle" x="51.01" y="-186.5" font-family="Helvetica,sans-Serif" font-size="10.00">QObject</text>
</a>
</g>
</g>
<!-- Node2&#45;&gt;Node16 -->
<g id="edge28_Node000002_Node000016" class="edge">
<title>Node2&#45;&gt;Node16</title>
<g id="a_edge28_Node000002_Node000016"><a xlink:title=" ">
<path fill="none" stroke="#63b8ff" d="M244.16,-235.51C205.38,-227.2 147.53,-214.57 88.41,-200.52"/>
<polygon fill="#63b8ff" stroke="#63b8ff" points="89.37,-197.15 78.84,-198.23 87.75,-203.96 89.37,-197.15"/>
</a>
</g>
</g>
<!-- Node4 -->
<g id="Node000004" class="node">
<title>Node4</title>
<g id="a_Node000004"><a xlink:title=" ">
<polygon fill="#e0e0e0" stroke="#999999" points="138.51,-144 59.51,-144 59.51,-124 138.51,-124 138.51,-144"/>
<text text-anchor="middle" x="99.01" y="-130.5" font-family="Helvetica,sans-Serif" font-size="10.00">QMainWindow</text>
</a>
</g>
</g>
<!-- Node3&#45;&gt;Node4 -->
<g id="edge3_Node000003_Node000004" class="edge">
<title>Node3&#45;&gt;Node4</title>
<g id="a_edge3_Node000003_Node000004"><a xlink:title=" ">
<path fill="none" stroke="#63b8ff" d="M219.58,-179.59C196.28,-170.97 161.52,-158.12 135.3,-148.42"/>
<polygon fill="#63b8ff" stroke="#63b8ff" points="136.66,-145.19 126.06,-145 134.23,-151.76 136.66,-145.19"/>
</a>
</g>
</g>
<!-- Node3&#45;&gt;Node5 -->
<g id="edge4_Node000003_Node000005" class="edge">
<title>Node3&#45;&gt;Node5</title>
<g id="a_edge4_Node000003_Node000005"><a xlink:title=" ">
<path fill="none" stroke="#63b8ff" d="M245.01,-179.59C245.01,-173.01 245.01,-163.96 245.01,-155.73"/>
<polygon fill="#63b8ff" stroke="#63b8ff" points="248.51,-155.81 245.01,-145.81 241.51,-155.81 248.51,-155.81"/>
</a>
</g>
</g>
<!-- Node3&#45;&gt;Node11 -->
<g id="edge14_Node000003_Node000011" class="edge">
<title>Node3&#45;&gt;Node11</title>
<g id="a_edge14_Node000003_Node000011"><a xlink:title=" ">
<path fill="none" stroke="#63b8ff" d="M273.75,-179.59C300.44,-170.86 340.43,-157.77 370.19,-148.03"/>
<polygon fill="#63b8ff" stroke="#63b8ff" points="371.19,-151.39 379.61,-144.95 369.02,-144.73 371.19,-151.39"/>
</a>
</g>
</g>
<!-- Node6 -->
<g id="Node000006" class="node">
<title>Node6</title>
<g id="a_Node000006"><a xlink:title=" ">
<polygon fill="#e0e0e0" stroke="#999999" points="172.76,-82 101.26,-82 101.26,-62 172.76,-62 172.76,-82"/>
<text text-anchor="middle" x="137.01" y="-68.5" font-family="Helvetica,sans-Serif" font-size="10.00">QApplication</text>
</a>
</g>
</g>
<!-- Node5&#45;&gt;Node6 -->
<g id="edge5_Node000005_Node000006" class="edge">
<title>Node5&#45;&gt;Node6</title>
<g id="a_edge5_Node000005_Node000006"><a xlink:title=" ">
<path fill="none" stroke="#63b8ff" d="M228.14,-123.62C210.86,-114.03 183.75,-98.97 163.59,-87.77"/>
<polygon fill="#63b8ff" stroke="#63b8ff" points="165.53,-84.84 155.09,-83.04 162.13,-90.96 165.53,-84.84"/>
</a>
</g>
</g>
<!-- Node7 -->
<g id="Node000007" class="node">
<title>Node7</title>
<g id="a_Node000007"><a xlink:title=" ">
<polygon fill="#e0e0e0" stroke="#999999" points="389.64,-20 338.39,-20 338.39,0 389.64,0 389.64,-20"/>
<text text-anchor="middle" x="364.01" y="-6.5" font-family="Helvetica,sans-Serif" font-size="10.00">QDebug</text>
</a>
</g>
</g>
<!-- Node5&#45;&gt;Node7 -->
<g id="edge6_Node000005_Node000007" class="edge">
<title>Node5&#45;&gt;Node7</title>
<g id="a_edge6_Node000005_Node000007"><a xlink:title=" ">
<path fill="none" stroke="#63b8ff" d="M322.85,-123.52C366.45,-116.43 414.69,-104.99 428.01,-88 436.79,-76.81 434.57,-68.62 428.01,-56 421.31,-43.1 409.03,-33.12 397,-25.87"/>
<polygon fill="#63b8ff" stroke="#63b8ff" points="398.86,-22.9 388.41,-21.15 395.49,-29.04 398.86,-22.9"/>
</a>
</g>
</g>
<!-- Node8 -->
<g id="Node000008" class="node">
<title>Node8</title>
<g id="a_Node000008"><a xlink:title=" ">
<polygon fill="#e0e0e0" stroke="#999999" points="177.39,-20 136.64,-20 136.64,0 177.39,0 177.39,-20"/>
<text text-anchor="middle" x="157.01" y="-6.5" font-family="Helvetica,sans-Serif" font-size="10.00">QtSql</text>
</a>
</g>
</g>
<!-- Node5&#45;&gt;Node8 -->
<g id="edge7_Node000005_Node000008" class="edge">
<title>Node5&#45;&gt;Node8</title>
<g id="a_edge7_Node000005_Node000008"><a xlink:title=" ">
<path fill="none" stroke="#63b8ff" d="M188.02,-123.54C149.58,-115.86 103.79,-103.74 92.01,-88 83.49,-76.61 85.41,-68.6 92.01,-56 99.3,-42.09 113.06,-31.63 126.05,-24.3"/>
<polygon fill="#63b8ff" stroke="#63b8ff" points="127.52,-27.48 134.81,-19.79 124.32,-21.26 127.52,-27.48"/>
</a>
</g>
</g>
<!-- Node9 -->
<g id="Node000009" class="node">
<title>Node9</title>
<g id="a_Node000009"><a xlink:href="../../de/d60/databasehandler_8hpp.html" target="_top" xlink:title=" ">
<polygon fill="white" stroke="#666666" points="418.51,-88 309.51,-88 309.51,-56 418.51,-56 418.51,-88"/>
<text text-anchor="start" x="317.51" y="-74.5" font-family="Helvetica,sans-Serif" font-size="10.00">../databaseClasses</text>
<text text-anchor="middle" x="364.01" y="-62.5" font-family="Helvetica,sans-Serif" font-size="10.00">/databasehandler.hpp</text>
</a>
</g>
</g>
<!-- Node5&#45;&gt;Node9 -->
<g id="edge8_Node000005_Node000009" class="edge">
<title>Node5&#45;&gt;Node9</title>
<g id="a_edge8_Node000005_Node000009"><a xlink:title=" ">
<path fill="none" stroke="#63b8ff" d="M263.61,-123.62C279.53,-115.6 303.02,-103.75 323.28,-93.54"/>
<polygon fill="#63b8ff" stroke="#63b8ff" points="324.82,-96.68 332.17,-89.05 321.67,-90.43 324.82,-96.68"/>
</a>
</g>
</g>
<!-- Node10 -->
<g id="Node000010" class="node">
<title>Node10</title>
<g id="a_Node000010"><a xlink:href="../../df/d46/tablehandler_8hpp.html" target="_top" xlink:title=" ">
<polygon fill="white" stroke="#666666" points="291.01,-88 191.01,-88 191.01,-56 291.01,-56 291.01,-88"/>
<text text-anchor="start" x="199.01" y="-74.5" font-family="Helvetica,sans-Serif" font-size="10.00">../databaseClasses</text>
<text text-anchor="middle" x="241.01" y="-62.5" font-family="Helvetica,sans-Serif" font-size="10.00">/tablehandler.hpp</text>
</a>
</g>
</g>
<!-- Node5&#45;&gt;Node10 -->
<g id="edge11_Node000005_Node000010" class="edge">
<title>Node5&#45;&gt;Node10</title>
<g id="a_edge11_Node000005_Node000010"><a xlink:title=" ">
<path fill="none" stroke="#63b8ff" d="M244.39,-123.62C243.95,-117.1 243.35,-108.05 242.77,-99.4"/>
<polygon fill="#63b8ff" stroke="#63b8ff" points="246.28,-99.4 242.12,-89.65 239.3,-99.86 246.28,-99.4"/>
</a>
</g>
</g>
<!-- Node9&#45;&gt;Node7 -->
<g id="edge9_Node000009_Node000007" class="edge">
<title>Node9&#45;&gt;Node7</title>
<g id="a_edge9_Node000009_Node000007"><a xlink:title=" ">
<path fill="none" stroke="#63b8ff" d="M364.01,-55.55C364.01,-48.34 364.01,-39.66 364.01,-31.88"/>
<polygon fill="#63b8ff" stroke="#63b8ff" points="367.51,-31.92 364.01,-21.92 360.51,-31.92 367.51,-31.92"/>
</a>
</g>
</g>
<!-- Node9&#45;&gt;Node8 -->
<g id="edge10_Node000009_Node000008" class="edge">
<title>Node9&#45;&gt;Node8</title>
<g id="a_edge10_Node000009_Node000008"><a xlink:title=" ">
<path fill="none" stroke="#63b8ff" d="M310.71,-55.55C272.08,-44.35 221.16,-29.59 188.74,-20.2"/>
<polygon fill="#63b8ff" stroke="#63b8ff" points="189.73,-16.84 179.15,-17.42 187.78,-23.56 189.73,-16.84"/>
</a>
</g>
</g>
<!-- Node10&#45;&gt;Node7 -->
<g id="edge12_Node000010_Node000007" class="edge">
<title>Node10&#45;&gt;Node7</title>
<g id="a_edge12_Node000010_Node000007"><a xlink:title=" ">
<path fill="none" stroke="#63b8ff" d="M272.69,-55.55C291.73,-46.26 315.8,-34.52 334.45,-25.42"/>
<polygon fill="#63b8ff" stroke="#63b8ff" points="335.91,-28.6 343.37,-21.07 332.84,-22.31 335.91,-28.6"/>
</a>
</g>
</g>
<!-- Node10&#45;&gt;Node8 -->
<g id="edge13_Node000010_Node000008" class="edge">
<title>Node10&#45;&gt;Node8</title>
<g id="a_edge13_Node000010_Node000008"><a xlink:title=" ">
<path fill="none" stroke="#63b8ff" d="M219.38,-55.55C207.11,-46.78 191.77,-35.83 179.38,-26.97"/>
<polygon fill="#63b8ff" stroke="#63b8ff" points="181.59,-24.25 171.42,-21.29 177.52,-29.95 181.59,-24.25"/>
</a>
</g>
</g>
<!-- Node12&#45;&gt;Node4 -->
<g id="edge16_Node000012_Node000004" class="edge">
<title>Node12&#45;&gt;Node4</title>
<g id="a_edge16_Node000012_Node000004"><a xlink:title=" ">
<path fill="none" stroke="#63b8ff" d="M128.74,-179.59C123.99,-172.47 117.31,-162.45 111.49,-153.72"/>
<polygon fill="#63b8ff" stroke="#63b8ff" points="114.51,-151.94 106.05,-145.56 108.69,-155.82 114.51,-151.94"/>
</a>
</g>
</g>
<!-- Node12&#45;&gt;Node5 -->
<g id="edge19_Node000012_Node000005" class="edge">
<title>Node12&#45;&gt;Node5</title>
<g id="a_edge19_Node000012_Node000005"><a xlink:title=" ">
<path fill="none" stroke="#63b8ff" d="M154.17,-179.59C171.11,-171.28 196.06,-159.03 215.54,-149.47"/>
<polygon fill="#63b8ff" stroke="#63b8ff" points="216.91,-152.7 224.34,-145.15 213.83,-146.41 216.91,-152.7"/>
</a>
</g>
</g>
<!-- Node12&#45;&gt;Node7 -->
<g id="edge17_Node000012_Node000007" class="edge">
<title>Node12&#45;&gt;Node7</title>
<g id="a_edge17_Node000012_Node000007"><a xlink:title=" ">
<path fill="none" stroke="#63b8ff" d="M99.88,-179.65C81.91,-172.89 61.64,-161.74 51.01,-144 30.86,-110.34 71.26,-70.08 92.01,-56 129.67,-30.45 261.47,-18.03 326.77,-13.33"/>
<polygon fill="#63b8ff" stroke="#63b8ff" points="326.91,-16.83 336.64,-12.64 326.42,-9.84 326.91,-16.83"/>
</a>
</g>
</g>
<!-- Node12&#45;&gt;Node8 -->
<g id="edge18_Node000012_Node000008" class="edge">
<title>Node12&#45;&gt;Node8</title>
<g id="a_edge18_Node000012_Node000008"><a xlink:title=" ">
<path fill="none" stroke="#63b8ff" d="M97.09,-179.55C66.29,-171.01 26.47,-157.72 17.01,-144 -5.17,-111.79 -6.03,-87.61 17.01,-56 41.59,-22.28 91.85,-13.28 124.98,-11.17"/>
<polygon fill="#63b8ff" stroke="#63b8ff" points="124.98,-14.67 134.82,-10.74 124.67,-7.68 124.98,-14.67"/>
</a>
</g>
</g>
<!-- Node12&#45;&gt;Node11 -->
<g id="edge20_Node000012_Node000011" class="edge">
<title>Node12&#45;&gt;Node11</title>
<g id="a_edge20_Node000012_Node000011"><a xlink:title=" ">
<path fill="none" stroke="#63b8ff" d="M175.59,-181.03C221.8,-171.96 297.73,-157.05 350.61,-146.66"/>
<polygon fill="#63b8ff" stroke="#63b8ff" points="351.23,-150.11 360.37,-144.75 349.88,-143.24 351.23,-150.11"/>
</a>
</g>
</g>
<!-- Node13&#45;&gt;Node5 -->
<g id="edge25_Node000013_Node000005" class="edge">
<title>Node13&#45;&gt;Node5</title>
<g id="a_edge25_Node000013_Node000005"><a xlink:title=" ">
<path fill="none" stroke="#63b8ff" d="M438.81,-179.53C399.42,-170.48 339.87,-156.8 297.18,-146.99"/>
<polygon fill="#63b8ff" stroke="#63b8ff" points="298.17,-143.62 287.64,-144.8 296.61,-150.45 298.17,-143.62"/>
</a>
</g>
</g>
<!-- Node13&#45;&gt;Node7 -->
<g id="edge24_Node000013_Node000007" class="edge">
<title>Node13&#45;&gt;Node7</title>
<g id="a_edge24_Node000013_Node000007"><a xlink:title=" ">
<path fill="none" stroke="#63b8ff" d="M480.75,-179.57C481.49,-166.77 481.91,-143.27 477.01,-124 468.74,-91.44 467.04,-80.46 444.01,-56 431.68,-42.89 414.66,-32.59 399.48,-25.17"/>
<polygon fill="#63b8ff" stroke="#63b8ff" points="401.28,-22.15 390.73,-21.13 398.34,-28.5 401.28,-22.15"/>
</a>
</g>
</g>
<!-- Node13&#45;&gt;Node11 -->
<g id="edge26_Node000013_Node000011" class="edge">
<title>Node13&#45;&gt;Node11</title>
<g id="a_edge26_Node000013_Node000011"><a xlink:title=" ">
<path fill="none" stroke="#63b8ff" d="M467.82,-179.59C457.68,-171.77 443.02,-160.46 431,-151.19"/>
<polygon fill="#63b8ff" stroke="#63b8ff" points="433.32,-148.56 423.27,-145.22 429.05,-154.1 433.32,-148.56"/>
</a>
</g>
</g>
<!-- Node14 -->
<g id="Node000014" class="node">
<title>Node14</title>
<g id="a_Node000014"><a xlink:title=" ">
<polygon fill="#e0e0e0" stroke="#999999" points="578.14,-144 523.89,-144 523.89,-124 578.14,-124 578.14,-144"/>
<text text-anchor="middle" x="551.01" y="-130.5" font-family="Helvetica,sans-Serif" font-size="10.00">QWidget</text>
</a>
</g>
</g>
<!-- Node13&#45;&gt;Node14 -->
<g id="edge23_Node000013_Node000014" class="edge">
<title>Node13&#45;&gt;Node14</title>
<g id="a_edge23_Node000013_Node000014"><a xlink:title=" ">
<path fill="none" stroke="#63b8ff" d="M492.38,-179.59C502.66,-171.77 517.53,-160.46 529.72,-151.19"/>
<polygon fill="#63b8ff" stroke="#63b8ff" points="531.74,-154.05 537.58,-145.21 527.5,-148.48 531.74,-154.05"/>
</a>
</g>
</g>
<!-- Node15 -->
<g id="Node000015" class="node">
<title>Node15</title>
<g id="a_Node000015"><a xlink:title=" ">
<polygon fill="#e0e0e0" stroke="#999999" points="662.14,-144 595.89,-144 595.89,-124 662.14,-124 662.14,-144"/>
<text text-anchor="middle" x="629.01" y="-130.5" font-family="Helvetica,sans-Serif" font-size="10.00">QTranslator</text>
</a>
</g>
</g>
<!-- Node13&#45;&gt;Node15 -->
<g id="edge27_Node000013_Node000015" class="edge">
<title>Node13&#45;&gt;Node15</title>
<g id="a_edge27_Node000013_Node000015"><a xlink:title=" ">
<path fill="none" stroke="#63b8ff" d="M505.97,-179.59C529.86,-170.94 565.54,-158 592.34,-148.29"/>
<polygon fill="#63b8ff" stroke="#63b8ff" points="593.22,-151.69 601.43,-145 590.84,-145.11 593.22,-151.69"/>
</a>
</g>
</g>
</g>
</svg>
