<?xml version="1.0" encoding="UTF-8" standalone="no"?>
<!DOCTYPE svg PUBLIC "-//W3C//DTD SVG 1.1//EN"
 "http://www.w3.org/Graphics/SVG/1.1/DTD/svg11.dtd">
<!-- Generated by graphviz version 9.0.0 (20230911.1827)
 -->
<!-- Title: C:/Users/Clean/Documents/Projekte/Apos&#45;DatabaseManager/Project/classes/frontendClasses/windowhandler.cpp Pages: 1 -->
<svg width="767pt" height="424pt"
 viewBox="0.00 0.00 766.78 424.00" xmlns="http://www.w3.org/2000/svg" xmlns:xlink="http://www.w3.org/1999/xlink">
<g id="graph0" class="graph" transform="scale(1 1) rotate(0) translate(4 420)">
<title>C:/Users/Clean/Documents/Projekte/Apos&#45;DatabaseManager/Project/classes/frontendClasses/windowhandler.cpp</title>
<!-- Node1 -->
<g id="Node000001" class="node">
<title>Node1</title>
<g id="a_Node000001"><a xlink:title="Source file for the WindowHandler class.">
<polygon fill="#999999" stroke="#666666" points="593.78,-416 431.53,-416 431.53,-360 593.78,-360 593.78,-416"/>
<text text-anchor="start" x="439.53" y="-402.5" font-family="Helvetica,sans-Serif" font-size="10.00">C:/Users/Clean/Documents</text>
<text text-anchor="start" x="439.53" y="-390.5" font-family="Helvetica,sans-Serif" font-size="10.00">/Projekte/Apos&#45;DatabaseManager</text>
<text text-anchor="start" x="439.53" y="-378.5" font-family="Helvetica,sans-Serif" font-size="10.00">/Project/classes/frontendClasses</text>
<text text-anchor="middle" x="512.65" y="-366.5" font-family="Helvetica,sans-Serif" font-size="10.00">/windowhandler.cpp</text>
</a>
</g>
</g>
<!-- Node2 -->
<g id="Node000002" class="node">
<title>Node2</title>
<g id="a_Node000002"><a xlink:href="../../da/d25/windowhandler_8hpp.html" target="_top" xlink:title="Header file for the WindowHandler class.">
<polygon fill="white" stroke="#666666" points="426.53,-324 328.78,-324 328.78,-304 426.53,-304 426.53,-324"/>
<text text-anchor="middle" x="377.65" y="-310.5" font-family="Helvetica,sans-Serif" font-size="10.00">windowhandler.hpp</text>
</a>
</g>
</g>
<!-- Node1&#45;&gt;Node2 -->
<g id="edge1_Node000001_Node000002" class="edge">
<title>Node1&#45;&gt;Node2</title>
<g id="a_edge1_Node000001_Node000002"><a xlink:title=" ">
<path fill="none" stroke="#63b8ff" d="M461.23,-359.57C442.16,-349.4 421.27,-338.26 405.15,-329.66"/>
<polygon fill="#63b8ff" stroke="#63b8ff" points="407.11,-326.75 396.64,-325.13 403.82,-332.92 407.11,-326.75"/>
</a>
</g>
</g>
<!-- Node12 -->
<g id="Node000012" class="node">
<title>Node12</title>
<g id="a_Node000012"><a xlink:href="../../d7/dfa/translatablewindow_8hpp.html" target="_top" xlink:title="Header file for the TranslatableWindow class.">
<polygon fill="white" stroke="#666666" points="564.9,-212 448.4,-212 448.4,-192 564.9,-192 564.9,-212"/>
<text text-anchor="middle" x="506.65" y="-198.5" font-family="Helvetica,sans-Serif" font-size="10.00">translatablewindow.hpp</text>
</a>
</g>
</g>
<!-- Node1&#45;&gt;Node12 -->
<g id="edge31_Node000001_Node000012" class="edge">
<title>Node1&#45;&gt;Node12</title>
<g id="a_edge31_Node000001_Node000012"><a xlink:title=" ">
<path fill="none" stroke="#63b8ff" d="M511.77,-359.85C510.56,-322.78 508.42,-257.15 507.33,-223.76"/>
<polygon fill="#63b8ff" stroke="#63b8ff" points="510.83,-223.7 507.01,-213.82 503.83,-223.93 510.83,-223.7"/>
</a>
</g>
</g>
<!-- Node17 -->
<g id="Node000017" class="node">
<title>Node17</title>
<g id="a_Node000017"><a xlink:title=" ">
<polygon fill="#e0e0e0" stroke="#999999" points="580.28,-324 541.03,-324 541.03,-304 580.28,-304 580.28,-324"/>
<text text-anchor="middle" x="560.65" y="-310.5" font-family="Helvetica,sans-Serif" font-size="10.00">utility</text>
</a>
</g>
</g>
<!-- Node1&#45;&gt;Node17 -->
<g id="edge30_Node000001_Node000017" class="edge">
<title>Node1&#45;&gt;Node17</title>
<g id="a_edge30_Node000001_Node000017"><a xlink:title=" ">
<path fill="none" stroke="#63b8ff" d="M530.8,-359.78C536.56,-351.14 542.8,-341.78 548.08,-333.87"/>
<polygon fill="#63b8ff" stroke="#63b8ff" points="550.86,-335.99 553.5,-325.73 545.04,-332.11 550.86,-335.99"/>
</a>
</g>
</g>
<!-- Node3 -->
<g id="Node000003" class="node">
<title>Node3</title>
<g id="a_Node000003"><a xlink:title=" ">
<polygon fill="#e0e0e0" stroke="#999999" points="264.65,-268 212.65,-268 212.65,-248 264.65,-248 264.65,-268"/>
<text text-anchor="middle" x="238.65" y="-254.5" font-family="Helvetica,sans-Serif" font-size="10.00">QObject</text>
</a>
</g>
</g>
<!-- Node2&#45;&gt;Node3 -->
<g id="edge2_Node000002_Node000003" class="edge">
<title>Node2&#45;&gt;Node3</title>
<g id="a_edge2_Node000002_Node000003"><a xlink:title=" ">
<path fill="none" stroke="#63b8ff" d="M353.44,-303.59C331.35,-295.01 298.46,-282.23 273.53,-272.55"/>
<polygon fill="#63b8ff" stroke="#63b8ff" points="275.05,-269.39 264.47,-269.03 272.52,-275.91 275.05,-269.39"/>
</a>
</g>
</g>
<!-- Node4 -->
<g id="Node000004" class="node">
<title>Node4</title>
<g id="a_Node000004"><a xlink:href="../../d2/d3e/launcherwindow_8hpp.html" target="_top" xlink:title="Header file for the LauncherWindow class.">
<polygon fill="white" stroke="#666666" points="484.15,-268 381.15,-268 381.15,-248 484.15,-248 484.15,-268"/>
<text text-anchor="middle" x="432.65" y="-254.5" font-family="Helvetica,sans-Serif" font-size="10.00">launcherwindow.hpp</text>
</a>
</g>
</g>
<!-- Node2&#45;&gt;Node4 -->
<g id="edge3_Node000002_Node000004" class="edge">
<title>Node2&#45;&gt;Node4</title>
<g id="a_edge3_Node000002_Node000004"><a xlink:title=" ">
<path fill="none" stroke="#63b8ff" d="M387.23,-303.59C394.88,-296.08 405.81,-285.35 415.03,-276.3"/>
<polygon fill="#63b8ff" stroke="#63b8ff" points="417.42,-278.86 422.1,-269.36 412.52,-273.87 417.42,-278.86"/>
</a>
</g>
</g>
<!-- Node6 -->
<g id="Node000006" class="node">
<title>Node6</title>
<g id="a_Node000006"><a xlink:href="../../d5/dcc/objecthandler_8hpp.html" target="_top" xlink:title="Header file for the ObjectHandler class.">
<polygon fill="white" stroke="#666666" points="294.9,-212 118.4,-212 118.4,-192 294.9,-192 294.9,-212"/>
<text text-anchor="middle" x="206.65" y="-198.5" font-family="Helvetica,sans-Serif" font-size="10.00">../backendClasses/objecthandler.hpp</text>
</a>
</g>
</g>
<!-- Node2&#45;&gt;Node6 -->
<g id="edge29_Node000002_Node000006" class="edge">
<title>Node2&#45;&gt;Node6</title>
<g id="a_edge29_Node000002_Node000006"><a xlink:title=" ">
<path fill="none" stroke="#63b8ff" d="M328.61,-307.03C282.68,-300.3 218.89,-287.68 203.65,-268 193.92,-255.43 195.8,-237.03 199.46,-223.01"/>
<polygon fill="#63b8ff" stroke="#63b8ff" points="202.78,-224.11 202.44,-213.52 196.1,-222.02 202.78,-224.11"/>
</a>
</g>
</g>
<!-- Node13 -->
<g id="Node000013" class="node">
<title>Node13</title>
<g id="a_Node000013"><a xlink:href="../../d5/d65/devwindow_8hpp.html" target="_top" xlink:title="Header file for the DevWindow class.">
<polygon fill="white" stroke="#666666" points="362.9,-268 282.4,-268 282.4,-248 362.9,-248 362.9,-268"/>
<text text-anchor="middle" x="322.65" y="-254.5" font-family="Helvetica,sans-Serif" font-size="10.00">devwindow.hpp</text>
</a>
</g>
</g>
<!-- Node2&#45;&gt;Node13 -->
<g id="edge17_Node000002_Node000013" class="edge">
<title>Node2&#45;&gt;Node13</title>
<g id="a_edge17_Node000002_Node000013"><a xlink:title=" ">
<path fill="none" stroke="#63b8ff" d="M368.07,-303.59C360.42,-296.08 349.5,-285.35 340.28,-276.3"/>
<polygon fill="#63b8ff" stroke="#63b8ff" points="342.79,-273.87 333.2,-269.36 337.89,-278.86 342.79,-273.87"/>
</a>
</g>
</g>
<!-- Node14 -->
<g id="Node000014" class="node">
<title>Node14</title>
<g id="a_Node000014"><a xlink:href="../../df/db5/settingswindow_8hpp.html" target="_top" xlink:title="Header file for the SettingsWindow class.">
<polygon fill="white" stroke="#666666" points="642.03,-268 541.28,-268 541.28,-248 642.03,-248 642.03,-268"/>
<text text-anchor="middle" x="591.65" y="-254.5" font-family="Helvetica,sans-Serif" font-size="10.00">settingswindow.hpp</text>
</a>
</g>
</g>
<!-- Node2&#45;&gt;Node14 -->
<g id="edge23_Node000002_Node000014" class="edge">
<title>Node2&#45;&gt;Node14</title>
<g id="a_edge23_Node000002_Node000014"><a xlink:title=" ">
<path fill="none" stroke="#63b8ff" d="M414.93,-303.59C450.46,-294.63 504.16,-281.08 543.04,-271.27"/>
<polygon fill="#63b8ff" stroke="#63b8ff" points="543.78,-274.69 552.62,-268.85 542.07,-267.9 543.78,-274.69"/>
</a>
</g>
</g>
<!-- Node5 -->
<g id="Node000005" class="node">
<title>Node5</title>
<g id="a_Node000005"><a xlink:title=" ">
<polygon fill="#e0e0e0" stroke="#999999" points="430.15,-212 351.15,-212 351.15,-192 430.15,-192 430.15,-212"/>
<text text-anchor="middle" x="390.65" y="-198.5" font-family="Helvetica,sans-Serif" font-size="10.00">QMainWindow</text>
</a>
</g>
</g>
<!-- Node4&#45;&gt;Node5 -->
<g id="edge4_Node000004_Node000005" class="edge">
<title>Node4&#45;&gt;Node5</title>
<g id="a_edge4_Node000004_Node000005"><a xlink:title=" ">
<path fill="none" stroke="#63b8ff" d="M425.34,-247.59C419.68,-240.32 411.67,-230.02 404.77,-221.15"/>
<polygon fill="#63b8ff" stroke="#63b8ff" points="407.72,-219.24 398.81,-213.49 402.19,-223.54 407.72,-219.24"/>
</a>
</g>
</g>
<!-- Node4&#45;&gt;Node6 -->
<g id="edge5_Node000004_Node000006" class="edge">
<title>Node4&#45;&gt;Node6</title>
<g id="a_edge5_Node000004_Node000006"><a xlink:title=" ">
<path fill="none" stroke="#63b8ff" d="M393.03,-247.53C355.31,-238.52 298.36,-224.91 257.35,-215.11"/>
<polygon fill="#63b8ff" stroke="#63b8ff" points="258.24,-211.73 247.7,-212.81 256.62,-218.54 258.24,-211.73"/>
</a>
</g>
</g>
<!-- Node4&#45;&gt;Node12 -->
<g id="edge16_Node000004_Node000012" class="edge">
<title>Node4&#45;&gt;Node12</title>
<g id="a_edge16_Node000004_Node000012"><a xlink:title=" ">
<path fill="none" stroke="#63b8ff" d="M445.54,-247.59C456.37,-239.7 472.07,-228.24 484.84,-218.92"/>
<polygon fill="#63b8ff" stroke="#63b8ff" points="486.67,-221.91 492.69,-213.19 482.55,-216.26 486.67,-221.91"/>
</a>
</g>
</g>
<!-- Node7 -->
<g id="Node000007" class="node">
<title>Node7</title>
<g id="a_Node000007"><a xlink:title=" ">
<polygon fill="#e0e0e0" stroke="#999999" points="100.4,-150 28.9,-150 28.9,-130 100.4,-130 100.4,-150"/>
<text text-anchor="middle" x="64.65" y="-136.5" font-family="Helvetica,sans-Serif" font-size="10.00">QApplication</text>
</a>
</g>
</g>
<!-- Node6&#45;&gt;Node7 -->
<g id="edge6_Node000006_Node000007" class="edge">
<title>Node6&#45;&gt;Node7</title>
<g id="a_edge6_Node000006_Node000007"><a xlink:title=" ">
<path fill="none" stroke="#63b8ff" d="M184.47,-191.62C161.02,-181.72 123.81,-165.99 97.07,-154.7"/>
<polygon fill="#63b8ff" stroke="#63b8ff" points="98.65,-151.57 88.08,-150.9 95.93,-158.01 98.65,-151.57"/>
</a>
</g>
</g>
<!-- Node8 -->
<g id="Node000008" class="node">
<title>Node8</title>
<g id="a_Node000008"><a xlink:title=" ">
<polygon fill="#e0e0e0" stroke="#999999" points="310.28,-20 259.03,-20 259.03,0 310.28,0 310.28,-20"/>
<text text-anchor="middle" x="284.65" y="-6.5" font-family="Helvetica,sans-Serif" font-size="10.00">QDebug</text>
</a>
</g>
</g>
<!-- Node6&#45;&gt;Node8 -->
<g id="edge7_Node000006_Node000008" class="edge">
<title>Node6&#45;&gt;Node8</title>
<g id="a_edge7_Node000006_Node000008"><a xlink:title=" ">
<path fill="none" stroke="#63b8ff" d="M225.88,-191.6C239.34,-183.95 256.49,-171.83 265.65,-156 288.48,-116.57 288.64,-61.17 286.7,-31.57"/>
<polygon fill="#63b8ff" stroke="#63b8ff" points="290.2,-31.44 285.89,-21.76 283.22,-32.02 290.2,-31.44"/>
</a>
</g>
</g>
<!-- Node9 -->
<g id="Node000009" class="node">
<title>Node9</title>
<g id="a_Node000009"><a xlink:title=" ">
<polygon fill="#e0e0e0" stroke="#999999" points="83.03,-20 42.28,-20 42.28,0 83.03,0 83.03,-20"/>
<text text-anchor="middle" x="62.65" y="-6.5" font-family="Helvetica,sans-Serif" font-size="10.00">QtSql</text>
</a>
</g>
</g>
<!-- Node6&#45;&gt;Node9 -->
<g id="edge8_Node000006_Node000009" class="edge">
<title>Node6&#45;&gt;Node9</title>
<g id="a_edge8_Node000006_Node000009"><a xlink:title=" ">
<path fill="none" stroke="#63b8ff" d="M125.87,-191.54C81.65,-184.52 33.16,-173.15 19.65,-156 -10.57,-117.64 25.81,-58.49 47.98,-29"/>
<polygon fill="#63b8ff" stroke="#63b8ff" points="50.51,-31.44 53.9,-21.4 44.99,-27.14 50.51,-31.44"/>
</a>
</g>
</g>
<!-- Node10 -->
<g id="Node000010" class="node">
<title>Node10</title>
<g id="a_Node000010"><a xlink:href="../../de/d60/databasehandler_8hpp.html" target="_top" xlink:title="Header file for the DatabaseHandler class.">
<polygon fill="white" stroke="#666666" points="178.15,-88 69.15,-88 69.15,-56 178.15,-56 178.15,-88"/>
<text text-anchor="start" x="77.15" y="-74.5" font-family="Helvetica,sans-Serif" font-size="10.00">../databaseClasses</text>
<text text-anchor="middle" x="123.65" y="-62.5" font-family="Helvetica,sans-Serif" font-size="10.00">/databasehandler.hpp</text>
</a>
</g>
</g>
<!-- Node6&#45;&gt;Node10 -->
<g id="edge9_Node000006_Node000010" class="edge">
<title>Node6&#45;&gt;Node10</title>
<g id="a_edge9_Node000006_Node000010"><a xlink:title=" ">
<path fill="none" stroke="#63b8ff" d="M188.95,-191.65C175.73,-183.8 158.21,-171.41 147.65,-156 136.14,-139.19 130.09,-116.85 126.94,-99.58"/>
<polygon fill="#63b8ff" stroke="#63b8ff" points="130.42,-99.14 125.4,-89.8 123.5,-100.23 130.42,-99.14"/>
</a>
</g>
</g>
<!-- Node11 -->
<g id="Node000011" class="node">
<title>Node11</title>
<g id="a_Node000011"><a xlink:href="../../df/d46/tablehandler_8hpp.html" target="_top" xlink:title="Header file for the TableHandler class.">
<polygon fill="white" stroke="#666666" points="256.65,-156 156.65,-156 156.65,-124 256.65,-124 256.65,-156"/>
<text text-anchor="start" x="164.65" y="-142.5" font-family="Helvetica,sans-Serif" font-size="10.00">../databaseClasses</text>
<text text-anchor="middle" x="206.65" y="-130.5" font-family="Helvetica,sans-Serif" font-size="10.00">/tablehandler.hpp</text>
</a>
</g>
</g>
<!-- Node6&#45;&gt;Node11 -->
<g id="edge12_Node000006_Node000011" class="edge">
<title>Node6&#45;&gt;Node11</title>
<g id="a_edge12_Node000006_Node000011"><a xlink:title=" ">
<path fill="none" stroke="#63b8ff" d="M206.65,-191.62C206.65,-185.1 206.65,-176.05 206.65,-167.4"/>
<polygon fill="#63b8ff" stroke="#63b8ff" points="210.15,-167.65 206.65,-157.65 203.15,-167.65 210.15,-167.65"/>
</a>
</g>
</g>
<!-- Node10&#45;&gt;Node8 -->
<g id="edge10_Node000010_Node000008" class="edge">
<title>Node10&#45;&gt;Node8</title>
<g id="a_edge10_Node000010_Node000008"><a xlink:title=" ">
<path fill="none" stroke="#63b8ff" d="M165.11,-55.55C190.97,-45.91 223.91,-33.64 248.67,-24.41"/>
<polygon fill="#63b8ff" stroke="#63b8ff" points="249.84,-27.71 257.99,-20.94 247.4,-21.15 249.84,-27.71"/>
</a>
</g>
</g>
<!-- Node10&#45;&gt;Node9 -->
<g id="edge11_Node000010_Node000009" class="edge">
<title>Node10&#45;&gt;Node9</title>
<g id="a_edge11_Node000010_Node000009"><a xlink:title=" ">
<path fill="none" stroke="#63b8ff" d="M107.94,-55.55C99.47,-47.22 88.99,-36.91 80.25,-28.3"/>
<polygon fill="#63b8ff" stroke="#63b8ff" points="82.88,-25.99 73.3,-21.47 77.97,-30.98 82.88,-25.99"/>
</a>
</g>
</g>
<!-- Node11&#45;&gt;Node8 -->
<g id="edge13_Node000011_Node000008" class="edge">
<title>Node11&#45;&gt;Node8</title>
<g id="a_edge13_Node000011_Node000008"><a xlink:title=" ">
<path fill="none" stroke="#63b8ff" d="M216.06,-123.56C230.39,-100.06 257.63,-55.35 273.12,-29.92"/>
<polygon fill="#63b8ff" stroke="#63b8ff" points="275.97,-31.98 278.18,-21.62 269.99,-28.34 275.97,-31.98"/>
</a>
</g>
</g>
<!-- Node11&#45;&gt;Node9 -->
<g id="edge14_Node000011_Node000009" class="edge">
<title>Node11&#45;&gt;Node9</title>
<g id="a_edge14_Node000011_Node000009"><a xlink:title=" ">
<path fill="none" stroke="#63b8ff" d="M207.08,-123.55C206.76,-105.22 203.45,-74.78 186.65,-56 163.01,-29.56 122.59,-18.64 94.35,-14.14"/>
<polygon fill="#63b8ff" stroke="#63b8ff" points="94.96,-10.69 84.57,-12.79 94,-17.63 94.96,-10.69"/>
</a>
</g>
</g>
<!-- Node11&#45;&gt;Node10 -->
<g id="edge15_Node000011_Node000010" class="edge">
<title>Node11&#45;&gt;Node10</title>
<g id="a_edge15_Node000011_Node000010"><a xlink:title=" ">
<path fill="none" stroke="#63b8ff" d="M187.4,-123.69C176.9,-115.34 163.69,-104.84 152.03,-95.56"/>
<polygon fill="#63b8ff" stroke="#63b8ff" points="154.28,-92.88 144.27,-89.4 149.92,-98.36 154.28,-92.88"/>
</a>
</g>
</g>
<!-- Node13&#45;&gt;Node5 -->
<g id="edge18_Node000013_Node000005" class="edge">
<title>Node13&#45;&gt;Node5</title>
<g id="a_edge18_Node000013_Node000005"><a xlink:title=" ">
<path fill="none" stroke="#63b8ff" d="M334.5,-247.59C344.35,-239.77 358.59,-228.46 370.26,-219.19"/>
<polygon fill="#63b8ff" stroke="#63b8ff" points="372.1,-222.2 377.76,-213.24 367.75,-216.72 372.1,-222.2"/>
</a>
</g>
</g>
<!-- Node13&#45;&gt;Node6 -->
<g id="edge21_Node000013_Node000006" class="edge">
<title>Node13&#45;&gt;Node6</title>
<g id="a_edge21_Node000013_Node000006"><a xlink:title=" ">
<path fill="none" stroke="#63b8ff" d="M302.45,-247.59C284.43,-239.21 257.79,-226.8 237.17,-217.21"/>
<polygon fill="#63b8ff" stroke="#63b8ff" points="238.93,-214.17 228.39,-213.12 235.98,-220.51 238.93,-214.17"/>
</a>
</g>
</g>
<!-- Node13&#45;&gt;Node8 -->
<g id="edge19_Node000013_Node000008" class="edge">
<title>Node13&#45;&gt;Node8</title>
<g id="a_edge19_Node000013_Node000008"><a xlink:title=" ">
<path fill="none" stroke="#63b8ff" d="M322.4,-247.66C321.46,-218.78 317.28,-128.54 300.65,-56 298.73,-47.63 295.75,-38.66 292.87,-30.95"/>
<polygon fill="#63b8ff" stroke="#63b8ff" points="296.22,-29.9 289.3,-21.87 289.7,-32.46 296.22,-29.9"/>
</a>
</g>
</g>
<!-- Node13&#45;&gt;Node9 -->
<g id="edge20_Node000013_Node000009" class="edge">
<title>Node13&#45;&gt;Node9</title>
<g id="a_edge20_Node000013_Node000009"><a xlink:title=" ">
<path fill="none" stroke="#63b8ff" d="M282.18,-249.09C225,-237.81 125.68,-217.83 109.65,-212 59.95,-193.91 31.86,-201.35 4.65,-156 -4.71,-140.4 2.44,-73.9 11.65,-56 17.63,-44.38 27.97,-34.4 37.78,-26.81"/>
<polygon fill="#63b8ff" stroke="#63b8ff" points="39.55,-29.85 45.64,-21.18 35.47,-24.16 39.55,-29.85"/>
</a>
</g>
</g>
<!-- Node13&#45;&gt;Node12 -->
<g id="edge22_Node000013_Node000012" class="edge">
<title>Node13&#45;&gt;Node12</title>
<g id="a_edge22_Node000013_Node000012"><a xlink:title=" ">
<path fill="none" stroke="#63b8ff" d="M354.7,-247.59C384.86,-238.74 430.24,-225.43 463.56,-215.65"/>
<polygon fill="#63b8ff" stroke="#63b8ff" points="464.29,-219.08 472.9,-212.91 462.32,-212.36 464.29,-219.08"/>
</a>
</g>
</g>
<!-- Node14&#45;&gt;Node6 -->
<g id="edge26_Node000014_Node000006" class="edge">
<title>Node14&#45;&gt;Node6</title>
<g id="a_edge26_Node000014_Node000006"><a xlink:title=" ">
<path fill="none" stroke="#63b8ff" d="M540.93,-249.88C475.73,-240.74 361.85,-224.77 285.36,-214.04"/>
<polygon fill="#63b8ff" stroke="#63b8ff" points="286.24,-210.63 275.85,-212.71 285.27,-217.56 286.24,-210.63"/>
</a>
</g>
</g>
<!-- Node14&#45;&gt;Node8 -->
<g id="edge25_Node000014_Node000008" class="edge">
<title>Node14&#45;&gt;Node8</title>
<g id="a_edge25_Node000014_Node000008"><a xlink:title=" ">
<path fill="none" stroke="#63b8ff" d="M591.17,-247.68C590.03,-234.17 586.25,-208.9 573.65,-192 507.19,-102.86 382.7,-47.1 321.1,-23.71"/>
<polygon fill="#63b8ff" stroke="#63b8ff" points="322.37,-20.45 311.77,-20.25 319.93,-27.01 322.37,-20.45"/>
</a>
</g>
</g>
<!-- Node14&#45;&gt;Node12 -->
<g id="edge27_Node000014_Node000012" class="edge">
<title>Node14&#45;&gt;Node12</title>
<g id="a_edge27_Node000014_Node000012"><a xlink:title=" ">
<path fill="none" stroke="#63b8ff" d="M576.85,-247.59C564.25,-239.59 545.9,-227.93 531.12,-218.54"/>
<polygon fill="#63b8ff" stroke="#63b8ff" points="533.17,-215.7 522.85,-213.29 529.42,-221.61 533.17,-215.7"/>
</a>
</g>
</g>
<!-- Node15 -->
<g id="Node000015" class="node">
<title>Node15</title>
<g id="a_Node000015"><a xlink:title=" ">
<polygon fill="#e0e0e0" stroke="#999999" points="674.78,-212 620.53,-212 620.53,-192 674.78,-192 674.78,-212"/>
<text text-anchor="middle" x="647.65" y="-198.5" font-family="Helvetica,sans-Serif" font-size="10.00">QWidget</text>
</a>
</g>
</g>
<!-- Node14&#45;&gt;Node15 -->
<g id="edge24_Node000014_Node000015" class="edge">
<title>Node14&#45;&gt;Node15</title>
<g id="a_edge24_Node000014_Node000015"><a xlink:title=" ">
<path fill="none" stroke="#63b8ff" d="M601.41,-247.59C609.28,-240.01 620.55,-229.13 630,-220.02"/>
<polygon fill="#63b8ff" stroke="#63b8ff" points="632.15,-222.81 636.92,-213.35 627.29,-217.77 632.15,-222.81"/>
</a>
</g>
</g>
<!-- Node16 -->
<g id="Node000016" class="node">
<title>Node16</title>
<g id="a_Node000016"><a xlink:title=" ">
<polygon fill="#e0e0e0" stroke="#999999" points="758.78,-212 692.53,-212 692.53,-192 758.78,-192 758.78,-212"/>
<text text-anchor="middle" x="725.65" y="-198.5" font-family="Helvetica,sans-Serif" font-size="10.00">QTranslator</text>
</a>
</g>
</g>
<!-- Node14&#45;&gt;Node16 -->
<g id="edge28_Node000014_Node000016" class="edge">
<title>Node14&#45;&gt;Node16</title>
<g id="a_edge28_Node000014_Node000016"><a xlink:title=" ">
<path fill="none" stroke="#63b8ff" d="M614.99,-247.59C636.19,-239.05 667.72,-226.35 691.7,-216.68"/>
<polygon fill="#63b8ff" stroke="#63b8ff" points="692.76,-220.03 700.73,-213.05 690.14,-213.54 692.76,-220.03"/>
</a>
</g>
</g>
</g>
</svg>
