<?xml version="1.0" encoding="UTF-8" standalone="no"?>
<!DOCTYPE svg PUBLIC "-//W3C//DTD SVG 1.1//EN"
 "http://www.w3.org/Graphics/SVG/1.1/DTD/svg11.dtd">
<!-- Generated by graphviz version 9.0.0 (20230911.1827)
 -->
<!-- Title: AposFrontend::TranslatableWindow Pages: 1 -->
<svg xmlns:xlink="http://www.w3.org/1999/xlink" width="487pt"
 height="96pt" viewBox="0.00 0.00 487.12 96.00" xmlns="http://www.w3.org/2000/svg">
<g id="graph0" class="graph" transform="scale(1 1) rotate(0) translate(4 92)">
<title>AposFrontend::TranslatableWindow</title>
<!-- Node1 -->
<g id="Node000001" class="node">
<title>Node1</title>
<g id="a_Node000001"><a xlink:title="An abstract base class that provides a function for retranslating the user interface.">
<polygon fill="#999999" stroke="#666666" points="297.12,-88 161.88,-88 161.88,-56 297.12,-56 297.12,-88"/>
<text text-anchor="start" x="169.88" y="-74.5" font-family="Helvetica,sans-Serif" font-size="10.00">AposFrontend::Translatable</text>
<text text-anchor="middle" x="229.5" y="-62.5" font-family="Helvetica,sans-Serif" font-size="10.00">Window</text>
</a>
</g>
</g>
<!-- Node2 -->
<g id="Node000002" class="node">
<title>Node2</title>
<g id="a_Node000002"><a xlink:href="../../dc/dc2/class_apos_frontend_1_1_dev_window.html" target="_top" xlink:title="Provides the user interface for the developer window.">
<polygon fill="white" stroke="#666666" points="133,-20 0,-20 0,0 133,0 133,-20"/>
<text text-anchor="middle" x="66.5" y="-6.5" font-family="Helvetica,sans-Serif" font-size="10.00">AposFrontend::DevWindow</text>
</a>
</g>
</g>
<!-- Node1&#45;&gt;Node2 -->
<g id="edge1_Node000001_Node000002" class="edge">
<title>Node1&#45;&gt;Node2</title>
<g id="a_edge1_Node000001_Node000002"><a xlink:title=" ">
<path fill="none" stroke="#63b8ff" d="M176.93,-51.65C148.52,-41.19 114.72,-28.75 92.06,-20.41"/>
<polygon fill="#63b8ff" stroke="#63b8ff" points="175.51,-54.86 186.1,-55.03 177.93,-48.29 175.51,-54.86"/>
</a>
</g>
</g>
<!-- Node3 -->
<g id="Node000003" class="node">
<title>Node3</title>
<g id="a_Node000003"><a xlink:href="../../da/d2e/class_apos_frontend_1_1_launcher_window.html" target="_top" xlink:title="Provides the user interface for the launcher window.">
<polygon fill="white" stroke="#666666" points="308,-20 151,-20 151,0 308,0 308,-20"/>
<text text-anchor="middle" x="229.5" y="-6.5" font-family="Helvetica,sans-Serif" font-size="10.00">AposFrontend::LauncherWindow</text>
</a>
</g>
</g>
<!-- Node1&#45;&gt;Node3 -->
<g id="edge2_Node000001_Node000003" class="edge">
<title>Node1&#45;&gt;Node3</title>
<g id="a_edge2_Node000001_Node000003"><a xlink:title=" ">
<path fill="none" stroke="#63b8ff" d="M229.5,-44.08C229.5,-35.6 229.5,-26.8 229.5,-20.41"/>
<polygon fill="#63b8ff" stroke="#63b8ff" points="226,-44.03 229.5,-54.03 233,-44.03 226,-44.03"/>
</a>
</g>
</g>
<!-- Node4 -->
<g id="Node000004" class="node">
<title>Node4</title>
<g id="a_Node000004"><a xlink:href="../../d2/df6/class_apos_frontend_1_1_settings_window.html" target="_top" xlink:title="Provides the user interface for the settings window.">
<polygon fill="white" stroke="#666666" points="479.12,-20 325.88,-20 325.88,0 479.12,0 479.12,-20"/>
<text text-anchor="middle" x="402.5" y="-6.5" font-family="Helvetica,sans-Serif" font-size="10.00">AposFrontend::SettingsWindow</text>
</a>
</g>
</g>
<!-- Node1&#45;&gt;Node4 -->
<g id="edge3_Node000001_Node000004" class="edge">
<title>Node1&#45;&gt;Node4</title>
<g id="a_edge3_Node000001_Node000004"><a xlink:title=" ">
<path fill="none" stroke="#63b8ff" d="M284.86,-51.8C315,-41.35 350.96,-28.88 375.12,-20.5"/>
<polygon fill="#63b8ff" stroke="#63b8ff" points="283.78,-48.47 275.48,-55.05 286.08,-55.08 283.78,-48.47"/>
</a>
</g>
</g>
</g>
</svg>
