<?xml version="1.0" encoding="UTF-8" standalone="no"?>
<!DOCTYPE svg PUBLIC "-//W3C//DTD SVG 1.1//EN"
 "http://www.w3.org/Graphics/SVG/1.1/DTD/svg11.dtd">
<!-- Generated by graphviz version 9.0.0 (20230911.1827)
 -->
<!-- Title: C:/Users/Clean/Documents/Projekte/Apos&#45;DatabaseManager/Project/classes/frontendClasses/launcherwindow.cpp Pages: 1 -->
<svg width="425pt" height="368pt"
 viewBox="0.00 0.00 425.12 368.00" xmlns="http://www.w3.org/2000/svg" xmlns:xlink="http://www.w3.org/1999/xlink">
<g id="graph0" class="graph" transform="scale(1 1) rotate(0) translate(4 364)">
<title>C:/Users/Clean/Documents/Projekte/Apos&#45;DatabaseManager/Project/classes/frontendClasses/launcherwindow.cpp</title>
<!-- Node1 -->
<g id="Node000001" class="node">
<title>Node1</title>
<g id="a_Node000001"><a xlink:title="Source file for the LauncherWindow class.">
<polygon fill="#999999" stroke="#666666" points="355.62,-360 193.38,-360 193.38,-304 355.62,-304 355.62,-360"/>
<text text-anchor="start" x="201.38" y="-346.5" font-family="Helvetica,sans-Serif" font-size="10.00">C:/Users/Clean/Documents</text>
<text text-anchor="start" x="201.38" y="-334.5" font-family="Helvetica,sans-Serif" font-size="10.00">/Projekte/Apos&#45;DatabaseManager</text>
<text text-anchor="start" x="201.38" y="-322.5" font-family="Helvetica,sans-Serif" font-size="10.00">/Project/classes/frontendClasses</text>
<text text-anchor="middle" x="274.5" y="-310.5" font-family="Helvetica,sans-Serif" font-size="10.00">/launcherwindow.cpp</text>
</a>
</g>
</g>
<!-- Node2 -->
<g id="Node000002" class="node">
<title>Node2</title>
<g id="a_Node000002"><a xlink:href="../../d2/d3e/launcherwindow_8hpp.html" target="_top" xlink:title="Header file for the LauncherWindow class.">
<polygon fill="white" stroke="#666666" points="237,-268 134,-268 134,-248 237,-248 237,-268"/>
<text text-anchor="middle" x="185.5" y="-254.5" font-family="Helvetica,sans-Serif" font-size="10.00">launcherwindow.hpp</text>
</a>
</g>
</g>
<!-- Node1&#45;&gt;Node2 -->
<g id="edge1_Node000001_Node000002" class="edge">
<title>Node1&#45;&gt;Node2</title>
<g id="a_edge1_Node000001_Node000002"><a xlink:title=" ">
<path fill="none" stroke="#63b8ff" d="M240.6,-303.57C228.86,-294.08 216.09,-283.74 205.79,-275.42"/>
<polygon fill="#63b8ff" stroke="#63b8ff" points="208.29,-272.94 198.31,-269.37 203.89,-278.38 208.29,-272.94"/>
</a>
</g>
</g>
<!-- Node11 -->
<g id="Node000011" class="node">
<title>Node11</title>
<g id="a_Node000011"><a xlink:title=" ">
<polygon fill="#e0e0e0" stroke="#999999" points="294.12,-268 254.88,-268 254.88,-248 294.12,-248 294.12,-268"/>
<text text-anchor="middle" x="274.5" y="-254.5" font-family="Helvetica,sans-Serif" font-size="10.00">utility</text>
</a>
</g>
</g>
<!-- Node1&#45;&gt;Node11 -->
<g id="edge15_Node000001_Node000011" class="edge">
<title>Node1&#45;&gt;Node11</title>
<g id="a_edge15_Node000001_Node000011"><a xlink:title=" ">
<path fill="none" stroke="#63b8ff" d="M274.5,-303.78C274.5,-295.82 274.5,-287.25 274.5,-279.76"/>
<polygon fill="#63b8ff" stroke="#63b8ff" points="278,-279.99 274.5,-269.99 271,-279.99 278,-279.99"/>
</a>
</g>
</g>
<!-- Node12 -->
<g id="Node000012" class="node">
<title>Node12</title>
<g id="a_Node000012"><a xlink:title=" ">
<polygon fill="#e0e0e0" stroke="#999999" points="417.12,-268 311.88,-268 311.88,-248 417.12,-248 417.12,-268"/>
<text text-anchor="middle" x="364.5" y="-254.5" font-family="Helvetica,sans-Serif" font-size="10.00">ui_launcherwindow.h</text>
</a>
</g>
</g>
<!-- Node1&#45;&gt;Node12 -->
<g id="edge16_Node000001_Node000012" class="edge">
<title>Node1&#45;&gt;Node12</title>
<g id="a_edge16_Node000001_Node000012"><a xlink:title=" ">
<path fill="none" stroke="#63b8ff" d="M308.78,-303.57C320.65,-294.08 333.57,-283.74 343.98,-275.42"/>
<polygon fill="#63b8ff" stroke="#63b8ff" points="345.93,-278.34 351.55,-269.36 341.55,-272.87 345.93,-278.34"/>
</a>
</g>
</g>
<!-- Node3 -->
<g id="Node000003" class="node">
<title>Node3</title>
<g id="a_Node000003"><a xlink:title=" ">
<polygon fill="#e0e0e0" stroke="#999999" points="79,-212 0,-212 0,-192 79,-192 79,-212"/>
<text text-anchor="middle" x="39.5" y="-198.5" font-family="Helvetica,sans-Serif" font-size="10.00">QMainWindow</text>
</a>
</g>
</g>
<!-- Node2&#45;&gt;Node3 -->
<g id="edge2_Node000002_Node000003" class="edge">
<title>Node2&#45;&gt;Node3</title>
<g id="a_edge2_Node000002_Node000003"><a xlink:title=" ">
<path fill="none" stroke="#63b8ff" d="M160.07,-247.59C136.76,-238.97 102,-226.12 75.78,-216.42"/>
<polygon fill="#63b8ff" stroke="#63b8ff" points="77.14,-213.19 66.55,-213 74.71,-219.76 77.14,-213.19"/>
</a>
</g>
</g>
<!-- Node4 -->
<g id="Node000004" class="node">
<title>Node4</title>
<g id="a_Node000004"><a xlink:href="../../d5/dcc/objecthandler_8hpp.html" target="_top" xlink:title="Header file for the ObjectHandler class.">
<polygon fill="white" stroke="#666666" points="273.75,-212 97.25,-212 97.25,-192 273.75,-192 273.75,-212"/>
<text text-anchor="middle" x="185.5" y="-198.5" font-family="Helvetica,sans-Serif" font-size="10.00">../backendClasses/objecthandler.hpp</text>
</a>
</g>
</g>
<!-- Node2&#45;&gt;Node4 -->
<g id="edge3_Node000002_Node000004" class="edge">
<title>Node2&#45;&gt;Node4</title>
<g id="a_edge3_Node000002_Node000004"><a xlink:title=" ">
<path fill="none" stroke="#63b8ff" d="M185.5,-247.59C185.5,-241.01 185.5,-231.96 185.5,-223.73"/>
<polygon fill="#63b8ff" stroke="#63b8ff" points="189,-223.81 185.5,-213.81 182,-223.81 189,-223.81"/>
</a>
</g>
</g>
<!-- Node10 -->
<g id="Node000010" class="node">
<title>Node10</title>
<g id="a_Node000010"><a xlink:href="../../d7/dfa/translatablewindow_8hpp.html" target="_top" xlink:title="Header file for the TranslatableWindow class.">
<polygon fill="white" stroke="#666666" points="408.75,-212 292.25,-212 292.25,-192 408.75,-192 408.75,-212"/>
<text text-anchor="middle" x="350.5" y="-198.5" font-family="Helvetica,sans-Serif" font-size="10.00">translatablewindow.hpp</text>
</a>
</g>
</g>
<!-- Node2&#45;&gt;Node10 -->
<g id="edge14_Node000002_Node000010" class="edge">
<title>Node2&#45;&gt;Node10</title>
<g id="a_edge14_Node000002_Node000010"><a xlink:title=" ">
<path fill="none" stroke="#63b8ff" d="M214.24,-247.59C240.93,-238.86 280.92,-225.77 310.68,-216.03"/>
<polygon fill="#63b8ff" stroke="#63b8ff" points="311.68,-219.39 320.1,-212.95 309.5,-212.73 311.68,-219.39"/>
</a>
</g>
</g>
<!-- Node5 -->
<g id="Node000005" class="node">
<title>Node5</title>
<g id="a_Node000005"><a xlink:title=" ">
<polygon fill="#e0e0e0" stroke="#999999" points="74.25,-150 2.75,-150 2.75,-130 74.25,-130 74.25,-150"/>
<text text-anchor="middle" x="38.5" y="-136.5" font-family="Helvetica,sans-Serif" font-size="10.00">QApplication</text>
</a>
</g>
</g>
<!-- Node4&#45;&gt;Node5 -->
<g id="edge4_Node000004_Node000005" class="edge">
<title>Node4&#45;&gt;Node5</title>
<g id="a_edge4_Node000004_Node000005"><a xlink:title=" ">
<path fill="none" stroke="#63b8ff" d="M162.53,-191.62C138.15,-181.67 99.39,-165.85 71.69,-154.55"/>
<polygon fill="#63b8ff" stroke="#63b8ff" points="73.29,-151.42 62.71,-150.88 70.64,-157.9 73.29,-151.42"/>
</a>
</g>
</g>
<!-- Node6 -->
<g id="Node000006" class="node">
<title>Node6</title>
<g id="a_Node000006"><a xlink:title=" ">
<polygon fill="#e0e0e0" stroke="#999999" points="211.12,-20 159.88,-20 159.88,0 211.12,0 211.12,-20"/>
<text text-anchor="middle" x="185.5" y="-6.5" font-family="Helvetica,sans-Serif" font-size="10.00">QDebug</text>
</a>
</g>
</g>
<!-- Node4&#45;&gt;Node6 -->
<g id="edge5_Node000004_Node000006" class="edge">
<title>Node4&#45;&gt;Node6</title>
<g id="a_edge5_Node000004_Node000006"><a xlink:title=" ">
<path fill="none" stroke="#63b8ff" d="M178.13,-191.75C163.99,-173.32 133.46,-130.17 122.5,-88 118.92,-74.24 115.99,-68.65 122.5,-56 129.13,-43.11 141.35,-33.1 153.28,-25.83"/>
<polygon fill="#63b8ff" stroke="#63b8ff" points="154.74,-29.02 161.77,-21.09 151.33,-22.9 154.74,-29.02"/>
</a>
</g>
</g>
<!-- Node7 -->
<g id="Node000007" class="node">
<title>Node7</title>
<g id="a_Node000007"><a xlink:title=" ">
<polygon fill="#e0e0e0" stroke="#999999" points="326.88,-20 286.12,-20 286.12,0 326.88,0 326.88,-20"/>
<text text-anchor="middle" x="306.5" y="-6.5" font-family="Helvetica,sans-Serif" font-size="10.00">QtSql</text>
</a>
</g>
</g>
<!-- Node4&#45;&gt;Node7 -->
<g id="edge6_Node000004_Node000007" class="edge">
<title>Node4&#45;&gt;Node7</title>
<g id="a_edge6_Node000004_Node000007"><a xlink:title=" ">
<path fill="none" stroke="#63b8ff" d="M268.6,-191.6C289.87,-185 310.4,-174.05 323.5,-156 350.83,-118.35 330.23,-60.15 316.38,-30.22"/>
<polygon fill="#63b8ff" stroke="#63b8ff" points="319.71,-29.05 312.18,-21.6 313.41,-32.12 319.71,-29.05"/>
</a>
</g>
</g>
<!-- Node8 -->
<g id="Node000008" class="node">
<title>Node8</title>
<g id="a_Node000008"><a xlink:href="../../de/d60/databasehandler_8hpp.html" target="_top" xlink:title="Header file for the DatabaseHandler class.">
<polygon fill="white" stroke="#666666" points="240,-88 131,-88 131,-56 240,-56 240,-88"/>
<text text-anchor="start" x="139" y="-74.5" font-family="Helvetica,sans-Serif" font-size="10.00">../databaseClasses</text>
<text text-anchor="middle" x="185.5" y="-62.5" font-family="Helvetica,sans-Serif" font-size="10.00">/databasehandler.hpp</text>
</a>
</g>
</g>
<!-- Node4&#45;&gt;Node8 -->
<g id="edge7_Node000004_Node000008" class="edge">
<title>Node4&#45;&gt;Node8</title>
<g id="a_edge7_Node000004_Node000008"><a xlink:title=" ">
<path fill="none" stroke="#63b8ff" d="M185.5,-191.79C185.5,-172.73 185.5,-128.33 185.5,-99.54"/>
<polygon fill="#63b8ff" stroke="#63b8ff" points="189,-99.79 185.5,-89.79 182,-99.79 189,-99.79"/>
</a>
</g>
</g>
<!-- Node9 -->
<g id="Node000009" class="node">
<title>Node9</title>
<g id="a_Node000009"><a xlink:href="../../df/d46/tablehandler_8hpp.html" target="_top" xlink:title="Header file for the TableHandler class.">
<polygon fill="white" stroke="#666666" points="314.5,-156 214.5,-156 214.5,-124 314.5,-124 314.5,-156"/>
<text text-anchor="start" x="222.5" y="-142.5" font-family="Helvetica,sans-Serif" font-size="10.00">../databaseClasses</text>
<text text-anchor="middle" x="264.5" y="-130.5" font-family="Helvetica,sans-Serif" font-size="10.00">/tablehandler.hpp</text>
</a>
</g>
</g>
<!-- Node4&#45;&gt;Node9 -->
<g id="edge10_Node000004_Node000009" class="edge">
<title>Node4&#45;&gt;Node9</title>
<g id="a_edge10_Node000004_Node000009"><a xlink:title=" ">
<path fill="none" stroke="#63b8ff" d="M197.84,-191.62C207.83,-184.04 222.31,-173.05 235.22,-163.24"/>
<polygon fill="#63b8ff" stroke="#63b8ff" points="237.21,-166.12 243.05,-157.29 232.97,-160.55 237.21,-166.12"/>
</a>
</g>
</g>
<!-- Node8&#45;&gt;Node6 -->
<g id="edge8_Node000008_Node000006" class="edge">
<title>Node8&#45;&gt;Node6</title>
<g id="a_edge8_Node000008_Node000006"><a xlink:title=" ">
<path fill="none" stroke="#63b8ff" d="M185.5,-55.55C185.5,-48.34 185.5,-39.66 185.5,-31.88"/>
<polygon fill="#63b8ff" stroke="#63b8ff" points="189,-31.92 185.5,-21.92 182,-31.92 189,-31.92"/>
</a>
</g>
</g>
<!-- Node8&#45;&gt;Node7 -->
<g id="edge9_Node000008_Node000007" class="edge">
<title>Node8&#45;&gt;Node7</title>
<g id="a_edge9_Node000008_Node000007"><a xlink:title=" ">
<path fill="none" stroke="#63b8ff" d="M216.66,-55.55C235.39,-46.26 259.07,-34.52 277.42,-25.42"/>
<polygon fill="#63b8ff" stroke="#63b8ff" points="278.77,-28.66 286.17,-21.08 275.66,-22.39 278.77,-28.66"/>
</a>
</g>
</g>
<!-- Node9&#45;&gt;Node6 -->
<g id="edge11_Node000009_Node000006" class="edge">
<title>Node9&#45;&gt;Node6</title>
<g id="a_edge11_Node000009_Node000006"><a xlink:title=" ">
<path fill="none" stroke="#63b8ff" d="M265.1,-123.67C265.06,-106 262.74,-76.73 249.5,-56 241.5,-43.48 228.66,-33.44 216.57,-26.05"/>
<polygon fill="#63b8ff" stroke="#63b8ff" points="218.45,-23.1 208.03,-21.22 215,-29.19 218.45,-23.1"/>
</a>
</g>
</g>
<!-- Node9&#45;&gt;Node7 -->
<g id="edge12_Node000009_Node000007" class="edge">
<title>Node9&#45;&gt;Node7</title>
<g id="a_edge12_Node000009_Node000007"><a xlink:title=" ">
<path fill="none" stroke="#63b8ff" d="M270,-123.88C273.65,-113.75 278.47,-100.12 282.5,-88 288.91,-68.71 295.77,-46.53 300.5,-30.95"/>
<polygon fill="#63b8ff" stroke="#63b8ff" points="303.82,-32.08 303.36,-21.49 297.12,-30.05 303.82,-32.08"/>
</a>
</g>
</g>
<!-- Node9&#45;&gt;Node8 -->
<g id="edge13_Node000009_Node000008" class="edge">
<title>Node9&#45;&gt;Node8</title>
<g id="a_edge13_Node000009_Node000008"><a xlink:title=" ">
<path fill="none" stroke="#63b8ff" d="M246.18,-123.69C236.18,-115.34 223.61,-104.84 212.51,-95.56"/>
<polygon fill="#63b8ff" stroke="#63b8ff" points="215.08,-93.15 205.16,-89.42 210.59,-98.52 215.08,-93.15"/>
</a>
</g>
</g>
</g>
</svg>
