<?xml version="1.0" encoding="UTF-8" standalone="no"?>
<!DOCTYPE svg PUBLIC "-//W3C//DTD SVG 1.1//EN"
 "http://www.w3.org/Graphics/SVG/1.1/DTD/svg11.dtd">
<!-- Generated by graphviz version 9.0.0 (20230911.1827)
 -->
<!-- Title: WindowHandler::showLaunchWindow Pages: 1 -->
<svg width="543pt" height="66pt"
 viewBox="0.00 0.00 542.75 66.00" xmlns="http://www.w3.org/2000/svg" xmlns:xlink="http://www.w3.org/1999/xlink">
<g id="graph0" class="graph" transform="scale(1 1) rotate(0) translate(4 62)">
<title>WindowHandler::showLaunchWindow</title>
<!-- Node1 -->
<g id="Node000001" class="node">
<title>Node1</title>
<g id="a_Node000001"><a xlink:title=" ">
<polygon fill="#999999" stroke="#666666" points="534.75,-45 391.25,-45 391.25,-13 534.75,-13 534.75,-45"/>
<text text-anchor="start" x="399.25" y="-31.5" font-family="Helvetica,sans-Serif" font-size="10.00">WindowHandler::showLaunch</text>
<text text-anchor="middle" x="463" y="-19.5" font-family="Helvetica,sans-Serif" font-size="10.00">Window</text>
</a>
</g>
</g>
<!-- Node2 -->
<g id="Node000002" class="node">
<title>Node2</title>
<g id="a_Node000002"><a xlink:href="../../df/d0a/main_8cpp.html#a0ddf1224851353fc92bfbff6f499fa97" target="_top" xlink:title=" ">
<polygon fill="white" stroke="#666666" points="292.62,-58 255.62,-58 255.62,-38 292.62,-38 292.62,-58"/>
<text text-anchor="middle" x="274.12" y="-44.5" font-family="Helvetica,sans-Serif" font-size="10.00">main</text>
</a>
</g>
</g>
<!-- Node1&#45;&gt;Node2 -->
<g id="edge1_Node000001_Node000002" class="edge">
<title>Node1&#45;&gt;Node2</title>
<g id="a_edge1_Node000001_Node000002"><a xlink:title=" ">
<path fill="none" stroke="#63b8ff" d="M379.46,-37.39C347.09,-40.68 312.94,-44.16 292.86,-46.2"/>
<polygon fill="#63b8ff" stroke="#63b8ff" points="379.72,-40.88 389.31,-36.39 379.01,-33.92 379.72,-40.88"/>
</a>
</g>
</g>
<!-- Node3 -->
<g id="Node000003" class="node">
<title>Node3</title>
<g id="a_Node000003"><a xlink:href="../../d5/d61/class_window_handler.html#a8fdd3abd4b8019264d3ec25ee873759d" target="_top" xlink:title=" ">
<polygon fill="white" stroke="#666666" points="355.25,-20 193,-20 193,0 355.25,0 355.25,-20"/>
<text text-anchor="middle" x="274.12" y="-6.5" font-family="Helvetica,sans-Serif" font-size="10.00">WindowHandler::showDevWindow</text>
</a>
</g>
</g>
<!-- Node1&#45;&gt;Node3 -->
<g id="edge2_Node000001_Node000003" class="edge">
<title>Node1&#45;&gt;Node3</title>
<g id="a_edge2_Node000001_Node000003"><a xlink:title=" ">
<path fill="none" stroke="#63b8ff" d="M379.59,-20.62C371.58,-19.81 363.47,-18.98 355.48,-18.17"/>
<polygon fill="#63b8ff" stroke="#63b8ff" points="379.01,-24.08 389.31,-21.61 379.72,-17.12 379.01,-24.08"/>
</a>
</g>
</g>
<!-- Node4 -->
<g id="Node000004" class="node">
<title>Node4</title>
<g id="a_Node000004"><a xlink:href="../../d5/d61/class_window_handler.html#adf32b0851c5df8d24cc2c74775e4b94d" target="_top" xlink:title=" ">
<polygon fill="white" stroke="#666666" points="157,-20 0,-20 0,0 157,0 157,-20"/>
<text text-anchor="middle" x="78.5" y="-6.5" font-family="Helvetica,sans-Serif" font-size="10.00">WindowHandler::WindowHandler</text>
</a>
</g>
</g>
<!-- Node3&#45;&gt;Node4 -->
<g id="edge3_Node000003_Node000004" class="edge">
<title>Node3&#45;&gt;Node4</title>
<g id="a_edge3_Node000003_Node000004"><a xlink:title=" ">
<path fill="none" stroke="#63b8ff" d="M181.33,-10C173.26,-10 165.14,-10 157.19,-10"/>
<polygon fill="#63b8ff" stroke="#63b8ff" points="181.18,-13.5 191.18,-10 181.18,-6.5 181.18,-13.5"/>
</a>
</g>
</g>
</g>
</svg>
