<?xml version="1.0" encoding="UTF-8" standalone="no"?>
<!DOCTYPE svg PUBLIC "-//W3C//DTD SVG 1.1//EN"
 "http://www.w3.org/Graphics/SVG/1.1/DTD/svg11.dtd">
<!-- Generated by graphviz version 9.0.0 (20230911.1827)
 -->
<!-- Title: WindowHandler::showSettingsWindow Pages: 1 -->
<svg width="547pt" height="53pt"
 viewBox="0.00 0.00 547.25 53.00" xmlns="http://www.w3.org/2000/svg" xmlns:xlink="http://www.w3.org/1999/xlink">
<g id="graph0" class="graph" transform="scale(1 1) rotate(0) translate(4 49)">
<title>WindowHandler::showSettingsWindow</title>
<!-- Node1 -->
<g id="Node000001" class="node">
<title>Node1</title>
<g id="a_Node000001"><a xlink:title=" ">
<polygon fill="#999999" stroke="#666666" points="539.25,-32 391.25,-32 391.25,0 539.25,0 539.25,-32"/>
<text text-anchor="start" x="399.25" y="-18.5" font-family="Helvetica,sans-Serif" font-size="10.00">WindowHandler::showSettings</text>
<text text-anchor="middle" x="465.25" y="-6.5" font-family="Helvetica,sans-Serif" font-size="10.00">Window</text>
</a>
</g>
</g>
<!-- Node2 -->
<g id="Node000002" class="node">
<title>Node2</title>
<g id="a_Node000002"><a xlink:href="../../d5/d61/class_window_handler.html#a8fdd3abd4b8019264d3ec25ee873759d" target="_top" xlink:title=" ">
<polygon fill="white" stroke="#666666" points="355.25,-45 193,-45 193,-25 355.25,-25 355.25,-45"/>
<text text-anchor="middle" x="274.12" y="-31.5" font-family="Helvetica,sans-Serif" font-size="10.00">WindowHandler::showDevWindow</text>
</a>
</g>
</g>
<!-- Node1&#45;&gt;Node2 -->
<g id="edge1_Node000001_Node000002" class="edge">
<title>Node1&#45;&gt;Node2</title>
<g id="a_edge1_Node000001_Node000002"><a xlink:title=" ">
<path fill="none" stroke="#63b8ff" d="M379.67,-24.5C371.7,-25.3 363.63,-26.11 355.69,-26.91"/>
<polygon fill="#63b8ff" stroke="#63b8ff" points="379.75,-28.01 389.35,-23.52 379.05,-21.04 379.75,-28.01"/>
</a>
</g>
</g>
<!-- Node3 -->
<g id="Node000003" class="node">
<title>Node3</title>
<g id="a_Node000003"><a xlink:href="../../d5/d61/class_window_handler.html#adf32b0851c5df8d24cc2c74775e4b94d" target="_top" xlink:title=" ">
<polygon fill="white" stroke="#666666" points="157,-26 0,-26 0,-6 157,-6 157,-26"/>
<text text-anchor="middle" x="78.5" y="-12.5" font-family="Helvetica,sans-Serif" font-size="10.00">WindowHandler::WindowHandler</text>
</a>
</g>
</g>
<!-- Node1&#45;&gt;Node3 -->
<g id="edge3_Node000001_Node000003" class="edge">
<title>Node1&#45;&gt;Node3</title>
<g id="a_edge3_Node000001_Node000003"><a xlink:title=" ">
<path fill="none" stroke="#63b8ff" d="M379.74,-16C313.47,-16 221.98,-16 157.46,-16"/>
<polygon fill="#63b8ff" stroke="#63b8ff" points="379.46,-19.5 389.46,-16 379.46,-12.5 379.46,-19.5"/>
</a>
</g>
</g>
<!-- Node2&#45;&gt;Node3 -->
<g id="edge2_Node000002_Node000003" class="edge">
<title>Node2&#45;&gt;Node3</title>
<g id="a_edge2_Node000002_Node000003"><a xlink:title=" ">
<path fill="none" stroke="#63b8ff" d="M181.33,-25.99C173.26,-25.2 165.14,-24.4 157.19,-23.62"/>
<polygon fill="#63b8ff" stroke="#63b8ff" points="180.89,-29.47 191.19,-26.96 181.58,-22.5 180.89,-29.47"/>
</a>
</g>
</g>
</g>
</svg>
