<?xml version="1.0" encoding="UTF-8" standalone="no"?>
<!DOCTYPE svg PUBLIC "-//W3C//DTD SVG 1.1//EN"
 "http://www.w3.org/Graphics/SVG/1.1/DTD/svg11.dtd">
<!-- Generated by graphviz version 9.0.0 (20230911.1827)
 -->
<!-- Title: WindowHandler::WindowHandler Pages: 1 -->
<svg width="712pt" height="239pt"
 viewBox="0.00 0.00 711.75 239.00" xmlns="http://www.w3.org/2000/svg" xmlns:xlink="http://www.w3.org/1999/xlink">
<g id="graph0" class="graph" transform="scale(1 1) rotate(0) translate(4 235)">
<title>WindowHandler::WindowHandler</title>
<!-- Node1 -->
<g id="Node000001" class="node">
<title>Node1</title>
<g id="a_Node000001"><a xlink:title=" ">
<polygon fill="#999999" stroke="#666666" points="157,-136 0,-136 0,-116 157,-116 157,-136"/>
<text text-anchor="middle" x="78.5" y="-122.5" font-family="Helvetica,sans-Serif" font-size="10.00">WindowHandler::WindowHandler</text>
</a>
</g>
</g>
<!-- Node2 -->
<g id="Node000002" class="node">
<title>Node2</title>
<g id="a_Node000002"><a xlink:href="../../de/d9e/class_settings_window.html#ad60370672d08fd3f5318abfbc14ecd8f" target="_top" xlink:title=" ">
<polygon fill="white" stroke="#666666" points="356.38,-231 197.12,-231 197.12,-211 356.38,-211 356.38,-231"/>
<text text-anchor="middle" x="276.75" y="-217.5" font-family="Helvetica,sans-Serif" font-size="10.00">SettingsWindow::appliedSettings</text>
</a>
</g>
</g>
<!-- Node1&#45;&gt;Node2 -->
<g id="edge1_Node000001_Node000002" class="edge">
<title>Node1&#45;&gt;Node2</title>
<g id="a_edge1_Node000001_Node000002"><a xlink:title=" ">
<path fill="none" stroke="#63b8ff" d="M91.56,-136.28C111.39,-152.66 152.73,-184.6 193,-202 197.54,-203.96 202.31,-205.73 207.17,-207.33"/>
<polygon fill="#63b8ff" stroke="#63b8ff" points="205.87,-210.6 216.45,-210.13 207.89,-203.9 205.87,-210.6"/>
</a>
</g>
</g>
<!-- Node3 -->
<g id="Node000003" class="node">
<title>Node3</title>
<g id="a_Node000003"><a xlink:href="../../d5/d61/class_window_handler.html#a52436f8ef1145f13f153e49ab8a194ed" target="_top" xlink:title=" ">
<polygon fill="white" stroke="#666666" points="351.12,-193 202.38,-193 202.38,-173 351.12,-173 351.12,-193"/>
<text text-anchor="middle" x="276.75" y="-179.5" font-family="Helvetica,sans-Serif" font-size="10.00">WindowHandler::applySettings</text>
</a>
</g>
</g>
<!-- Node1&#45;&gt;Node3 -->
<g id="edge2_Node000001_Node000003" class="edge">
<title>Node1&#45;&gt;Node3</title>
<g id="a_edge2_Node000001_Node000003"><a xlink:title=" ">
<path fill="none" stroke="#63b8ff" d="M108.18,-136.47C130.99,-144.58 163.8,-155.78 193,-164 200.25,-166.04 207.89,-168.02 215.49,-169.89"/>
<polygon fill="#63b8ff" stroke="#63b8ff" points="214.53,-173.26 225.07,-172.18 216.16,-166.45 214.53,-173.26"/>
</a>
</g>
</g>
<!-- Node6 -->
<g id="Node000006" class="node">
<title>Node6</title>
<g id="a_Node000006"><a xlink:href="../../dd/d74/class_launcher_window.html#a4fd279164e186aeaf10dfada448c7efb" target="_top" xlink:title=" ">
<polygon fill="white" stroke="#666666" points="360.5,-155 193,-155 193,-135 360.5,-135 360.5,-155"/>
<text text-anchor="middle" x="276.75" y="-141.5" font-family="Helvetica,sans-Serif" font-size="10.00">LauncherWindow::openDevWindow</text>
</a>
</g>
</g>
<!-- Node1&#45;&gt;Node6 -->
<g id="edge5_Node000001_Node000006" class="edge">
<title>Node1&#45;&gt;Node6</title>
<g id="a_edge5_Node000001_Node000006"><a xlink:title=" ">
<path fill="none" stroke="#63b8ff" d="M157.35,-133.54C165.2,-134.3 173.24,-135.08 181.24,-135.85"/>
<polygon fill="#63b8ff" stroke="#63b8ff" points="180.72,-139.32 191.01,-136.8 181.39,-132.35 180.72,-139.32"/>
</a>
</g>
</g>
<!-- Node7 -->
<g id="Node000007" class="node">
<title>Node7</title>
<g id="a_Node000007"><a xlink:href="../../dd/d74/class_launcher_window.html#a16f5a8a4cf28e14a0c98ebeb6c60d1e1" target="_top" xlink:title=" ">
<polygon fill="white" stroke="#666666" points="353.38,-117 200.12,-117 200.12,-97 353.38,-97 353.38,-117"/>
<text text-anchor="middle" x="276.75" y="-103.5" font-family="Helvetica,sans-Serif" font-size="10.00">LauncherWindow::openSettings</text>
</a>
</g>
</g>
<!-- Node1&#45;&gt;Node7 -->
<g id="edge6_Node000001_Node000007" class="edge">
<title>Node1&#45;&gt;Node7</title>
<g id="a_edge6_Node000001_Node000007"><a xlink:title=" ">
<path fill="none" stroke="#63b8ff" d="M157.35,-118.46C167.64,-117.47 178.25,-116.44 188.68,-115.43"/>
<polygon fill="#63b8ff" stroke="#63b8ff" points="188.8,-118.93 198.41,-114.49 188.12,-111.97 188.8,-118.93"/>
</a>
</g>
</g>
<!-- Node8 -->
<g id="Node000008" class="node">
<title>Node8</title>
<g id="a_Node000008"><a xlink:href="../../d5/d61/class_window_handler.html#a8fdd3abd4b8019264d3ec25ee873759d" target="_top" xlink:title=" ">
<polygon fill="white" stroke="#666666" points="357.88,-79 195.62,-79 195.62,-59 357.88,-59 357.88,-79"/>
<text text-anchor="middle" x="276.75" y="-65.5" font-family="Helvetica,sans-Serif" font-size="10.00">WindowHandler::showDevWindow</text>
</a>
</g>
</g>
<!-- Node1&#45;&gt;Node8 -->
<g id="edge7_Node000001_Node000008" class="edge">
<title>Node1&#45;&gt;Node8</title>
<g id="a_edge7_Node000001_Node000008"><a xlink:title=" ">
<path fill="none" stroke="#63b8ff" d="M108.18,-115.53C130.99,-107.42 163.8,-96.22 193,-88 200.25,-85.96 207.89,-83.98 215.49,-82.11"/>
<polygon fill="#63b8ff" stroke="#63b8ff" points="216.16,-85.55 225.07,-79.82 214.53,-78.74 216.16,-85.55"/>
</a>
</g>
</g>
<!-- Node12 -->
<g id="Node000012" class="node">
<title>Node12</title>
<g id="a_Node000012"><a xlink:href="../../d5/d61/class_window_handler.html#a1c119c52aff2591e273bd3b06a7b9270" target="_top" xlink:title=" ">
<polygon fill="white" stroke="#666666" points="554.62,-32 406.62,-32 406.62,0 554.62,0 554.62,-32"/>
<text text-anchor="start" x="414.62" y="-18.5" font-family="Helvetica,sans-Serif" font-size="10.00">WindowHandler::showSettings</text>
<text text-anchor="middle" x="480.62" y="-6.5" font-family="Helvetica,sans-Serif" font-size="10.00">Window</text>
</a>
</g>
</g>
<!-- Node1&#45;&gt;Node12 -->
<g id="edge12_Node000001_Node000012" class="edge">
<title>Node1&#45;&gt;Node12</title>
<g id="a_edge12_Node000001_Node000012"><a xlink:title=" ">
<path fill="none" stroke="#63b8ff" d="M90.73,-115.76C110.02,-98.84 151.4,-65.37 193,-50 258,-25.98 336.4,-17.99 394.77,-15.72"/>
<polygon fill="#63b8ff" stroke="#63b8ff" points="394.78,-19.22 404.66,-15.39 394.54,-12.22 394.78,-19.22"/>
</a>
</g>
</g>
<!-- Node4 -->
<g id="Node000004" class="node">
<title>Node4</title>
<g id="a_Node000004"><a xlink:href="../../d5/d61/class_window_handler.html#ab585fdb0adaf982cb5f8212bf31b423e" target="_top" xlink:title=" ">
<polygon fill="white" stroke="#666666" points="564.75,-196 396.5,-196 396.5,-176 564.75,-176 564.75,-196"/>
<text text-anchor="middle" x="480.62" y="-182.5" font-family="Helvetica,sans-Serif" font-size="10.00">WindowHandler::changeLanguages</text>
</a>
</g>
</g>
<!-- Node3&#45;&gt;Node4 -->
<g id="edge3_Node000003_Node000004" class="edge">
<title>Node3&#45;&gt;Node4</title>
<g id="a_edge3_Node000003_Node000004"><a xlink:title=" ">
<path fill="none" stroke="#63b8ff" d="M351.49,-184.1C362.39,-184.26 373.74,-184.43 384.99,-184.59"/>
<polygon fill="#63b8ff" stroke="#63b8ff" points="384.62,-188.09 394.67,-184.74 384.72,-181.09 384.62,-188.09"/>
</a>
</g>
</g>
<!-- Node5 -->
<g id="Node000005" class="node">
<title>Node5</title>
<g id="a_Node000005"><a xlink:href="../../d5/dbe/class_translatable_window.html#a009edc93a44472b8eb27070b3f9258c2" target="_top" xlink:title=" ">
<polygon fill="white" stroke="#666666" points="703.75,-202 600.75,-202 600.75,-170 703.75,-170 703.75,-202"/>
<text text-anchor="start" x="608.75" y="-188.5" font-family="Helvetica,sans-Serif" font-size="10.00">TranslatableWindow</text>
<text text-anchor="middle" x="652.25" y="-176.5" font-family="Helvetica,sans-Serif" font-size="10.00">::retranslateUi</text>
</a>
</g>
</g>
<!-- Node4&#45;&gt;Node5 -->
<g id="edge4_Node000004_Node000005" class="edge">
<title>Node4&#45;&gt;Node5</title>
<g id="a_edge4_Node000004_Node000005"><a xlink:title=" ">
<path fill="none" stroke="#63b8ff" d="M564.95,-186C573.05,-186 581.18,-186 589.02,-186"/>
<polygon fill="#63b8ff" stroke="#63b8ff" points="588.77,-189.5 598.77,-186 588.77,-182.5 588.77,-189.5"/>
</a>
</g>
</g>
<!-- Node9 -->
<g id="Node000009" class="node">
<title>Node9</title>
<g id="a_Node000009"><a xlink:href="../../d6/d5d/class_dev_window.html#aa64f163f03e0190606cd9692d2beec28" target="_top" xlink:title=" ">
<polygon fill="white" stroke="#666666" points="545.25,-158 416,-158 416,-138 545.25,-138 545.25,-158"/>
<text text-anchor="middle" x="480.62" y="-144.5" font-family="Helvetica,sans-Serif" font-size="10.00">DevWindow::openSettings</text>
</a>
</g>
</g>
<!-- Node8&#45;&gt;Node9 -->
<g id="edge8_Node000008_Node000009" class="edge">
<title>Node8&#45;&gt;Node9</title>
<g id="a_edge8_Node000008_Node000009"><a xlink:title=" ">
<path fill="none" stroke="#63b8ff" d="M341.69,-79.37C348.28,-81.69 354.68,-84.53 360.5,-88 381.32,-100.43 375.67,-116.58 396.5,-129 399.3,-130.67 402.24,-132.19 405.26,-133.58"/>
<polygon fill="#63b8ff" stroke="#63b8ff" points="403.84,-136.78 414.42,-137.25 406.44,-130.28 403.84,-136.78"/>
</a>
</g>
</g>
<!-- Node10 -->
<g id="Node000010" class="node">
<title>Node10</title>
<g id="a_Node000010"><a xlink:href="../../d6/d5d/class_dev_window.html#a879985fff5798387b606f6c209322f95" target="_top" xlink:title=" ">
<polygon fill="white" stroke="#666666" points="554.25,-120 407,-120 407,-100 554.25,-100 554.25,-120"/>
<text text-anchor="middle" x="480.62" y="-106.5" font-family="Helvetica,sans-Serif" font-size="10.00">DevWindow::returnToLauncher</text>
</a>
</g>
</g>
<!-- Node8&#45;&gt;Node10 -->
<g id="edge9_Node000008_Node000010" class="edge">
<title>Node8&#45;&gt;Node10</title>
<g id="a_edge9_Node000008_Node000010"><a xlink:title=" ">
<path fill="none" stroke="#63b8ff" d="M329.21,-79.45C356.03,-84.9 389.03,-91.6 417.28,-97.34"/>
<polygon fill="#63b8ff" stroke="#63b8ff" points="416.28,-100.71 426.77,-99.27 417.67,-93.85 416.28,-100.71"/>
</a>
</g>
</g>
<!-- Node11 -->
<g id="Node000011" class="node">
<title>Node11</title>
<g id="a_Node000011"><a xlink:href="../../d5/d61/class_window_handler.html#a7991c67765fc79b3049e249a7ee97434" target="_top" xlink:title=" ">
<polygon fill="white" stroke="#666666" points="552.38,-82 408.88,-82 408.88,-50 552.38,-50 552.38,-82"/>
<text text-anchor="start" x="416.88" y="-68.5" font-family="Helvetica,sans-Serif" font-size="10.00">WindowHandler::showLaunch</text>
<text text-anchor="middle" x="480.62" y="-56.5" font-family="Helvetica,sans-Serif" font-size="10.00">Window</text>
</a>
</g>
</g>
<!-- Node8&#45;&gt;Node11 -->
<g id="edge10_Node000008_Node000011" class="edge">
<title>Node8&#45;&gt;Node11</title>
<g id="a_edge10_Node000008_Node000011"><a xlink:title=" ">
<path fill="none" stroke="#63b8ff" d="M358.12,-67.81C371.04,-67.61 384.44,-67.41 397.41,-67.22"/>
<polygon fill="#63b8ff" stroke="#63b8ff" points="397.21,-70.73 407.16,-67.08 397.11,-63.73 397.21,-70.73"/>
</a>
</g>
</g>
<!-- Node8&#45;&gt;Node12 -->
<g id="edge11_Node000008_Node000012" class="edge">
<title>Node8&#45;&gt;Node12</title>
<g id="a_edge11_Node000008_Node000012"><a xlink:title=" ">
<path fill="none" stroke="#63b8ff" d="M317.63,-58.53C342.91,-51.89 376.37,-43.11 406.32,-35.25"/>
<polygon fill="#63b8ff" stroke="#63b8ff" points="406.92,-38.71 415.71,-32.78 405.14,-31.94 406.92,-38.71"/>
</a>
</g>
</g>
</g>
</svg>
