<?xml version="1.0" encoding="UTF-8" standalone="no"?>
<!DOCTYPE svg PUBLIC "-//W3C//DTD SVG 1.1//EN"
 "http://www.w3.org/Graphics/SVG/1.1/DTD/svg11.dtd">
<!-- Generated by graphviz version 9.0.0 (20230911.1827)
 -->
<!-- Title: Graphical Class Hierarchy Pages: 1 -->
<svg xmlns:xlink="http://www.w3.org/1999/xlink" width="336pt"
 height="116pt" viewBox="0.00 0.00 336.25 116.00" xmlns="http://www.w3.org/2000/svg">
<g id="graph0" class="graph" transform="scale(1 1) rotate(0) translate(4 112)">
<title>Graphical Class Hierarchy</title>
<!-- Node0 -->
<g id="Node000000" class="node">
<title>Node0</title>
<g id="a_Node000000"><a xlink:href="da/dfc/class_apos_frontend_1_1_translatable_window.html" target="_top" xlink:title="An abstract base class that provides a function for retranslating the user interface.">
<polygon fill="white" stroke="#666666" points="135.25,-70 0,-70 0,-38 135.25,-38 135.25,-70"/>
<text text-anchor="start" x="8" y="-56.5" font-family="Helvetica,sans-Serif" font-size="10.00">AposFrontend::Translatable</text>
<text text-anchor="middle" x="67.62" y="-44.5" font-family="Helvetica,sans-Serif" font-size="10.00">Window</text>
</a>
</g>
</g>
<!-- Node1 -->
<g id="Node000001" class="node">
<title>Node1</title>
<g id="a_Node000001"><a xlink:href="dc/dc2/class_apos_frontend_1_1_dev_window.html" target="_top" xlink:title="Provides the user interface for the developer window.">
<polygon fill="white" stroke="#666666" points="316.25,-67 183.25,-67 183.25,-47 316.25,-47 316.25,-67"/>
<text text-anchor="middle" x="249.75" y="-53.5" font-family="Helvetica,sans-Serif" font-size="10.00">AposFrontend::DevWindow</text>
</a>
</g>
</g>
<!-- Node0&#45;&gt;Node1 -->
<g id="edge1_Node000000_Node000001" class="edge">
<title>Node0&#45;&gt;Node1</title>
<g id="a_edge1_Node000000_Node000001"><a xlink:title=" ">
<path fill="none" stroke="#63b8ff" d="M147.03,-55.31C158.97,-55.5 171.18,-55.71 182.82,-55.9"/>
<polygon fill="#63b8ff" stroke="#63b8ff" points="147.27,-51.81 137.21,-55.14 147.15,-58.81 147.27,-51.81"/>
</a>
</g>
</g>
<!-- Node3 -->
<g id="Node000003" class="node">
<title>Node3</title>
<g id="a_Node000003"><a xlink:href="da/d2e/class_apos_frontend_1_1_launcher_window.html" target="_top" xlink:title="Provides the user interface for the launcher window.">
<polygon fill="white" stroke="#666666" points="328.25,-106 171.25,-106 171.25,-86 328.25,-86 328.25,-106"/>
<text text-anchor="middle" x="249.75" y="-92.5" font-family="Helvetica,sans-Serif" font-size="10.00">AposFrontend::LauncherWindow</text>
</a>
</g>
</g>
<!-- Node0&#45;&gt;Node3 -->
<g id="edge2_Node000000_Node000003" class="edge">
<title>Node0&#45;&gt;Node3</title>
<g id="a_edge2_Node000000_Node000003"><a xlink:title=" ">
<path fill="none" stroke="#63b8ff" d="M146.74,-72.21C166.24,-76.76 186.49,-81.48 203.77,-85.51"/>
<polygon fill="#63b8ff" stroke="#63b8ff" points="147.7,-68.85 137.17,-69.98 146.11,-75.66 147.7,-68.85"/>
</a>
</g>
</g>
<!-- Node4 -->
<g id="Node000004" class="node">
<title>Node4</title>
<g id="a_Node000004"><a xlink:href="d2/df6/class_apos_frontend_1_1_settings_window.html" target="_top" xlink:title="Provides the user interface for the settings window.">
<polygon fill="white" stroke="#666666" points="326.38,-26 173.12,-26 173.12,-6 326.38,-6 326.38,-26"/>
<text text-anchor="middle" x="249.75" y="-12.5" font-family="Helvetica,sans-Serif" font-size="10.00">AposFrontend::SettingsWindow</text>
</a>
</g>
</g>
<!-- Node0&#45;&gt;Node4 -->
<g id="edge3_Node000000_Node000004" class="edge">
<title>Node0&#45;&gt;Node4</title>
<g id="a_edge3_Node000000_Node000004"><a xlink:title=" ">
<path fill="none" stroke="#63b8ff" d="M146.91,-37.48C164.62,-33.75 182.94,-29.88 199.08,-26.48"/>
<polygon fill="#63b8ff" stroke="#63b8ff" points="146.24,-34.05 137.18,-39.54 147.68,-40.9 146.24,-34.05"/>
</a>
</g>
</g>
<!-- Node2 -->
<g id="Node000002" class="node">
<title>Node2</title>
<g id="a_Node000002"><a xlink:title=" ">
<polygon fill="#e0e0e0" stroke="#999999" points="107.12,-108 28.12,-108 28.12,-88 107.12,-88 107.12,-108"/>
<text text-anchor="middle" x="67.62" y="-94.5" font-family="Helvetica,sans-Serif" font-size="10.00">QMainWindow</text>
</a>
</g>
</g>
<!-- Node2&#45;&gt;Node1 -->
<g id="edge4_Node000002_Node000001" class="edge">
<title>Node2&#45;&gt;Node1</title>
<g id="a_edge4_Node000002_Node000001"><a xlink:title=" ">
<path fill="none" stroke="#63b8ff" d="M118.2,-86.71C144.65,-80.7 176.97,-73.34 202.84,-67.45"/>
<polygon fill="#63b8ff" stroke="#63b8ff" points="117.72,-83.24 108.74,-88.87 119.27,-90.06 117.72,-83.24"/>
</a>
</g>
</g>
<!-- Node2&#45;&gt;Node3 -->
<g id="edge5_Node000002_Node000003" class="edge">
<title>Node2&#45;&gt;Node3</title>
<g id="a_edge5_Node000002_Node000003"><a xlink:title=" ">
<path fill="none" stroke="#63b8ff" d="M118.63,-97.44C134.82,-97.26 153.18,-97.06 170.9,-96.86"/>
<polygon fill="#63b8ff" stroke="#63b8ff" points="118.74,-93.94 108.78,-97.55 118.82,-100.94 118.74,-93.94"/>
</a>
</g>
</g>
<!-- Node5 -->
<g id="Node000005" class="node">
<title>Node5</title>
<g id="a_Node000005"><a xlink:title=" ">
<polygon fill="#e0e0e0" stroke="#999999" points="94.75,-20 40.5,-20 40.5,0 94.75,0 94.75,-20"/>
<text text-anchor="middle" x="67.62" y="-6.5" font-family="Helvetica,sans-Serif" font-size="10.00">QWidget</text>
</a>
</g>
</g>
<!-- Node5&#45;&gt;Node4 -->
<g id="edge6_Node000005_Node000004" class="edge">
<title>Node5&#45;&gt;Node4</title>
<g id="a_edge6_Node000005_Node000004"><a xlink:title=" ">
<path fill="none" stroke="#63b8ff" d="M106.54,-11.26C125.85,-11.91 150.03,-12.71 172.96,-13.48"/>
<polygon fill="#63b8ff" stroke="#63b8ff" points="106.83,-7.77 96.72,-10.94 106.59,-14.77 106.83,-7.77"/>
</a>
</g>
</g>
</g>
</svg>
