<?xml version="1.0" encoding="UTF-8" standalone="no"?>
<!DOCTYPE svg PUBLIC "-//W3C//DTD SVG 1.1//EN"
 "http://www.w3.org/Graphics/SVG/1.1/DTD/svg11.dtd">
<!-- Generated by graphviz version 9.0.0 (20230911.1827)
 -->
<!-- Title: Graphical Class Hierarchy Pages: 1 -->
<svg width="237pt" height="104pt"
 viewBox="0.00 0.00 237.25 104.00" xmlns="http://www.w3.org/2000/svg" xmlns:xlink="http://www.w3.org/1999/xlink">
<g id="graph0" class="graph" transform="scale(1 1) rotate(0) translate(4 100)">
<title>Graphical Class Hierarchy</title>
<!-- Node0 -->
<g id="Node000000" class="node">
<title>Node0</title>
<g id="a_Node000000"><a xlink:title=" ">
<polygon fill="#e0e0e0" stroke="#999999" points="91,-96 12,-96 12,-76 91,-76 91,-96"/>
<text text-anchor="middle" x="51.5" y="-82.5" font-family="Helvetica,sans-Serif" font-size="10.00">QMainWindow</text>
</a>
</g>
</g>
<!-- Node1 -->
<g id="Node000001" class="node">
<title>Node1</title>
<g id="a_Node000001"><a xlink:href="d6/d5d/class_dev_window.html" target="_top" xlink:title=" ">
<polygon fill="white" stroke="#666666" points="217.25,-58 151,-58 151,-38 217.25,-38 217.25,-58"/>
<text text-anchor="middle" x="184.12" y="-44.5" font-family="Helvetica,sans-Serif" font-size="10.00">DevWindow</text>
</a>
</g>
</g>
<!-- Node0&#45;&gt;Node1 -->
<g id="edge1_Node000000_Node000001" class="edge">
<title>Node0&#45;&gt;Node1</title>
<g id="a_edge1_Node000000_Node000001"><a xlink:title=" ">
<path fill="none" stroke="#63b8ff" d="M99.41,-72.35C116.44,-67.4 135.28,-61.92 150.77,-57.41"/>
<polygon fill="#63b8ff" stroke="#63b8ff" points="98.62,-68.94 89.99,-75.09 100.57,-75.66 98.62,-68.94"/>
</a>
</g>
</g>
<!-- Node3 -->
<g id="Node000003" class="node">
<title>Node3</title>
<g id="a_Node000003"><a xlink:href="dd/d74/class_launcher_window.html" target="_top" xlink:title=" ">
<polygon fill="white" stroke="#666666" points="229.25,-96 139,-96 139,-76 229.25,-76 229.25,-96"/>
<text text-anchor="middle" x="184.12" y="-82.5" font-family="Helvetica,sans-Serif" font-size="10.00">LauncherWindow</text>
</a>
</g>
</g>
<!-- Node0&#45;&gt;Node3 -->
<g id="edge2_Node000000_Node000003" class="edge">
<title>Node0&#45;&gt;Node3</title>
<g id="a_edge2_Node000000_Node000003"><a xlink:title=" ">
<path fill="none" stroke="#63b8ff" d="M102.49,-86C114.41,-86 127.05,-86 138.7,-86"/>
<polygon fill="#63b8ff" stroke="#63b8ff" points="102.85,-82.5 92.85,-86 102.85,-89.5 102.85,-82.5"/>
</a>
</g>
</g>
<!-- Node5 -->
<g id="Node000005" class="node">
<title>Node5</title>
<g id="a_Node000005"><a xlink:title=" ">
<polygon fill="#e0e0e0" stroke="#999999" points="78.62,-20 24.38,-20 24.38,0 78.62,0 78.62,-20"/>
<text text-anchor="middle" x="51.5" y="-6.5" font-family="Helvetica,sans-Serif" font-size="10.00">QWidget</text>
</a>
</g>
</g>
<!-- Node4 -->
<g id="Node000004" class="node">
<title>Node4</title>
<g id="a_Node000004"><a xlink:href="de/d9e/class_settings_window.html" target="_top" xlink:title=" ">
<polygon fill="white" stroke="#666666" points="227.38,-20 140.88,-20 140.88,0 227.38,0 227.38,-20"/>
<text text-anchor="middle" x="184.12" y="-6.5" font-family="Helvetica,sans-Serif" font-size="10.00">SettingsWindow</text>
</a>
</g>
</g>
<!-- Node5&#45;&gt;Node4 -->
<g id="edge3_Node000005_Node000004" class="edge">
<title>Node5&#45;&gt;Node4</title>
<g id="a_edge3_Node000005_Node000004"><a xlink:title=" ">
<path fill="none" stroke="#63b8ff" d="M90.36,-10C106.07,-10 124.36,-10 140.53,-10"/>
<polygon fill="#63b8ff" stroke="#63b8ff" points="90.45,-6.5 80.45,-10 90.45,-13.5 90.45,-6.5"/>
</a>
</g>
</g>
<!-- Node2 -->
<g id="Node000002" class="node">
<title>Node2</title>
<g id="a_Node000002"><a xlink:href="d5/dbe/class_translatable_window.html" target="_top" xlink:title=" ">
<polygon fill="white" stroke="#666666" points="103,-58 0,-58 0,-38 103,-38 103,-58"/>
<text text-anchor="middle" x="51.5" y="-44.5" font-family="Helvetica,sans-Serif" font-size="10.00">TranslatableWindow</text>
</a>
</g>
</g>
<!-- Node2&#45;&gt;Node1 -->
<g id="edge4_Node000002_Node000001" class="edge">
<title>Node2&#45;&gt;Node1</title>
<g id="a_edge4_Node000002_Node000001"><a xlink:title=" ">
<path fill="none" stroke="#63b8ff" d="M114.71,-48C127.14,-48 139.73,-48 150.66,-48"/>
<polygon fill="#63b8ff" stroke="#63b8ff" points="114.89,-44.5 104.89,-48 114.89,-51.5 114.89,-44.5"/>
</a>
</g>
</g>
<!-- Node2&#45;&gt;Node3 -->
<g id="edge5_Node000002_Node000003" class="edge">
<title>Node2&#45;&gt;Node3</title>
<g id="a_edge5_Node000002_Node000003"><a xlink:title=" ">
<path fill="none" stroke="#63b8ff" d="M99.17,-61.58C114.98,-66.18 132.37,-71.23 147.2,-75.55"/>
<polygon fill="#63b8ff" stroke="#63b8ff" points="100.57,-58.34 89.99,-58.91 98.62,-65.06 100.57,-58.34"/>
</a>
</g>
</g>
<!-- Node2&#45;&gt;Node4 -->
<g id="edge6_Node000002_Node000004" class="edge">
<title>Node2&#45;&gt;Node4</title>
<g id="a_edge6_Node000002_Node000004"><a xlink:title=" ">
<path fill="none" stroke="#63b8ff" d="M99.17,-34.42C114.98,-29.82 132.37,-24.77 147.2,-20.45"/>
<polygon fill="#63b8ff" stroke="#63b8ff" points="98.62,-30.94 89.99,-37.09 100.57,-37.66 98.62,-30.94"/>
</a>
</g>
</g>
</g>
</svg>
