<?xml version="1.0" encoding="UTF-8" standalone="no"?>
<!DOCTYPE svg PUBLIC "-//W3C//DTD SVG 1.1//EN"
 "http://www.w3.org/Graphics/SVG/1.1/DTD/svg11.dtd">
<!-- Generated by graphviz version 9.0.0 (20230911.1827)
 -->
<!-- Title: AposFrontend::LauncherWindow::launcherConnectUi Pages: 1 -->
<svg width="551pt" height="90pt"
 viewBox="0.00 0.00 551.00 90.00" xmlns="http://www.w3.org/2000/svg" xmlns:xlink="http://www.w3.org/1999/xlink">
<g id="graph0" class="graph" transform="scale(1 1) rotate(0) translate(4 86)">
<title>AposFrontend::LauncherWindow::launcherConnectUi</title>
<!-- Node1 -->
<g id="Node000001" class="node">
<title>Node1</title>
<g id="a_Node000001"><a xlink:title=" ">
<polygon fill="#999999" stroke="#666666" points="157,-57 0,-57 0,-25 157,-25 157,-57"/>
<text text-anchor="start" x="8" y="-43.5" font-family="Helvetica,sans-Serif" font-size="10.00">AposFrontend::LauncherWindow</text>
<text text-anchor="middle" x="78.5" y="-31.5" font-family="Helvetica,sans-Serif" font-size="10.00">::launcherConnectUi</text>
</a>
</g>
</g>
<!-- Node2 -->
<g id="Node000002" class="node">
<title>Node2</title>
<g id="a_Node000002"><a xlink:href="../../d8/d33/group___slot-_functions.html#gab825d6fc24f308db7d35b33ca73b2cdf" target="_top" xlink:title="Slot for the &#39;PushButton&#39; button click event.">
<polygon fill="white" stroke="#666666" points="350,-82 193,-82 193,-50 350,-50 350,-82"/>
<text text-anchor="start" x="201" y="-68.5" font-family="Helvetica,sans-Serif" font-size="10.00">AposFrontend::LauncherWindow</text>
<text text-anchor="middle" x="271.5" y="-56.5" font-family="Helvetica,sans-Serif" font-size="10.00">::showSettingsClicked</text>
</a>
</g>
</g>
<!-- Node1&#45;&gt;Node2 -->
<g id="edge1_Node000001_Node000002" class="edge">
<title>Node1&#45;&gt;Node2</title>
<g id="a_edge1_Node000001_Node000002"><a xlink:title=" ">
<path fill="none" stroke="#63b8ff" d="M157.46,-51.2C165.39,-52.24 173.47,-53.3 181.5,-54.35"/>
<polygon fill="#63b8ff" stroke="#63b8ff" points="180.92,-57.8 191.29,-55.63 181.82,-50.86 180.92,-57.8"/>
</a>
</g>
</g>
<!-- Node4 -->
<g id="Node000004" class="node">
<title>Node4</title>
<g id="a_Node000004"><a xlink:href="../../d8/d33/group___slot-_functions.html#gaba4f6584c940222b5f4e849005518ce9" target="_top" xlink:title="Slot for the &#39;ShowDev&#39; button click event.">
<polygon fill="white" stroke="#666666" points="350,-32 193,-32 193,0 350,0 350,-32"/>
<text text-anchor="start" x="201" y="-18.5" font-family="Helvetica,sans-Serif" font-size="10.00">AposFrontend::LauncherWindow</text>
<text text-anchor="middle" x="271.5" y="-6.5" font-family="Helvetica,sans-Serif" font-size="10.00">::showDevClicked</text>
</a>
</g>
</g>
<!-- Node1&#45;&gt;Node4 -->
<g id="edge3_Node000001_Node000004" class="edge">
<title>Node1&#45;&gt;Node4</title>
<g id="a_edge3_Node000001_Node000004"><a xlink:title=" ">
<path fill="none" stroke="#63b8ff" d="M157.46,-30.8C165.39,-29.76 173.47,-28.7 181.5,-27.65"/>
<polygon fill="#63b8ff" stroke="#63b8ff" points="181.82,-31.14 191.29,-26.37 180.92,-24.2 181.82,-31.14"/>
</a>
</g>
</g>
<!-- Node3 -->
<g id="Node000003" class="node">
<title>Node3</title>
<g id="a_Node000003"><a xlink:href="../../d7/d58/group___signal-_funtions.html#ga75e939cb47b5e6af99153b128c7bd5d6" target="_top" xlink:title="Signal for opening the settings.">
<polygon fill="white" stroke="#666666" points="543,-82 386,-82 386,-50 543,-50 543,-82"/>
<text text-anchor="start" x="394" y="-68.5" font-family="Helvetica,sans-Serif" font-size="10.00">AposFrontend::LauncherWindow</text>
<text text-anchor="middle" x="464.5" y="-56.5" font-family="Helvetica,sans-Serif" font-size="10.00">::openSettings</text>
</a>
</g>
</g>
<!-- Node2&#45;&gt;Node3 -->
<g id="edge2_Node000002_Node000003" class="edge">
<title>Node2&#45;&gt;Node3</title>
<g id="a_edge2_Node000002_Node000003"><a xlink:title=" ">
<path fill="none" stroke="#63b8ff" d="M350.46,-66C358.39,-66 366.47,-66 374.5,-66"/>
<polygon fill="#63b8ff" stroke="#63b8ff" points="374.27,-69.5 384.27,-66 374.27,-62.5 374.27,-69.5"/>
</a>
</g>
</g>
<!-- Node5 -->
<g id="Node000005" class="node">
<title>Node5</title>
<g id="a_Node000005"><a xlink:href="../../d7/d58/group___signal-_funtions.html#ga0d06592356794582b3ad43292227af7a" target="_top" xlink:title="Signal for opening the developer window.">
<polygon fill="white" stroke="#666666" points="543,-32 386,-32 386,0 543,0 543,-32"/>
<text text-anchor="start" x="394" y="-18.5" font-family="Helvetica,sans-Serif" font-size="10.00">AposFrontend::LauncherWindow</text>
<text text-anchor="middle" x="464.5" y="-6.5" font-family="Helvetica,sans-Serif" font-size="10.00">::openDevWindow</text>
</a>
</g>
</g>
<!-- Node4&#45;&gt;Node5 -->
<g id="edge4_Node000004_Node000005" class="edge">
<title>Node4&#45;&gt;Node5</title>
<g id="a_edge4_Node000004_Node000005"><a xlink:title=" ">
<path fill="none" stroke="#63b8ff" d="M350.46,-16C358.39,-16 366.47,-16 374.5,-16"/>
<polygon fill="#63b8ff" stroke="#63b8ff" points="374.27,-19.5 384.27,-16 374.27,-12.5 374.27,-19.5"/>
</a>
</g>
</g>
</g>
</svg>
