<?xml version="1.0" encoding="UTF-8" standalone="no"?>
<!DOCTYPE svg PUBLIC "-//W3C//DTD SVG 1.1//EN"
 "http://www.w3.org/Graphics/SVG/1.1/DTD/svg11.dtd">
<!-- Generated by graphviz version 9.0.0 (20230911.1827)
 -->
<!-- Title: main Pages: 1 -->
<svg width="403pt" height="128pt"
 viewBox="0.00 0.00 402.50 128.00" xmlns="http://www.w3.org/2000/svg" xmlns:xlink="http://www.w3.org/1999/xlink">
<g id="graph0" class="graph" transform="scale(1 1) rotate(0) translate(4 124)">
<title>main</title>
<!-- Node1 -->
<g id="Node000001" class="node">
<title>Node1</title>
<g id="a_Node000001"><a xlink:title=" ">
<polygon fill="#999999" stroke="#666666" points="37,-70 0,-70 0,-50 37,-50 37,-70"/>
<text text-anchor="middle" x="18.5" y="-56.5" font-family="Helvetica,sans-Serif" font-size="10.00">main</text>
</a>
</g>
</g>
<!-- Node2 -->
<g id="Node000002" class="node">
<title>Node2</title>
<g id="a_Node000002"><a xlink:href="../../d5/d61/class_window_handler.html#a7991c67765fc79b3049e249a7ee97434" target="_top" xlink:title=" ">
<polygon fill="white" stroke="#666666" points="216.5,-120 73,-120 73,-88 216.5,-88 216.5,-120"/>
<text text-anchor="start" x="81" y="-106.5" font-family="Helvetica,sans-Serif" font-size="10.00">WindowHandler::showLaunch</text>
<text text-anchor="middle" x="144.75" y="-94.5" font-family="Helvetica,sans-Serif" font-size="10.00">Window</text>
</a>
</g>
</g>
<!-- Node1&#45;&gt;Node2 -->
<g id="edge1_Node000001_Node000002" class="edge">
<title>Node1&#45;&gt;Node2</title>
<g id="a_edge1_Node000001_Node000002"><a xlink:title=" ">
<path fill="none" stroke="#63b8ff" d="M37.33,-66.34C47.73,-70.04 61.11,-74.79 73,-79 77.42,-80.57 82,-82.19 86.6,-83.81"/>
<polygon fill="#63b8ff" stroke="#63b8ff" points="85.29,-87.07 95.89,-87.1 87.63,-80.47 85.29,-87.07"/>
</a>
</g>
</g>
<!-- Node3 -->
<g id="Node000003" class="node">
<title>Node3</title>
<g id="a_Node000003"><a xlink:href="../../df/d1b/class_startup_handler.html#a59d6a1be3ce159dd5565ef73a18f9f0b" target="_top" xlink:title=" ">
<polygon fill="white" stroke="#666666" points="203.75,-70 85.75,-70 85.75,-50 203.75,-50 203.75,-70"/>
<text text-anchor="middle" x="144.75" y="-56.5" font-family="Helvetica,sans-Serif" font-size="10.00">StartupHandler::startUp</text>
</a>
</g>
</g>
<!-- Node1&#45;&gt;Node3 -->
<g id="edge2_Node000001_Node000003" class="edge">
<title>Node1&#45;&gt;Node3</title>
<g id="a_edge2_Node000001_Node000003"><a xlink:title=" ">
<path fill="none" stroke="#63b8ff" d="M37.3,-60C47.21,-60 60.26,-60 73.81,-60"/>
<polygon fill="#63b8ff" stroke="#63b8ff" points="73.74,-63.5 83.74,-60 73.74,-56.5 73.74,-63.5"/>
</a>
</g>
</g>
<!-- Node6 -->
<g id="Node000006" class="node">
<title>Node6</title>
<g id="a_Node000006"><a xlink:href="../../df/d1b/class_startup_handler.html#a58cf31ef13e44af607a1c755a946b828" target="_top" xlink:title=" ">
<polygon fill="white" stroke="#666666" points="206.75,-32 82.75,-32 82.75,0 206.75,0 206.75,-32"/>
<text text-anchor="start" x="90.75" y="-18.5" font-family="Helvetica,sans-Serif" font-size="10.00">StartupHandler::~Startup</text>
<text text-anchor="middle" x="144.75" y="-6.5" font-family="Helvetica,sans-Serif" font-size="10.00">Handler</text>
</a>
</g>
</g>
<!-- Node1&#45;&gt;Node6 -->
<g id="edge5_Node000001_Node000006" class="edge">
<title>Node1&#45;&gt;Node6</title>
<g id="a_edge5_Node000001_Node000006"><a xlink:title=" ">
<path fill="none" stroke="#63b8ff" d="M37.33,-53.66C47.73,-49.96 61.11,-45.21 73,-41 77.42,-39.43 82,-37.81 86.6,-36.19"/>
<polygon fill="#63b8ff" stroke="#63b8ff" points="87.63,-39.53 95.89,-32.9 85.29,-32.93 87.63,-39.53"/>
</a>
</g>
</g>
<!-- Node4 -->
<g id="Node000004" class="node">
<title>Node4</title>
<g id="a_Node000004"><a xlink:href="../../df/d1b/class_startup_handler.html#a45aefa30358b6ca46e4c36cd012ba6be" target="_top" xlink:title=" ">
<polygon fill="white" stroke="#666666" points="387.38,-98 259.62,-98 259.62,-66 387.38,-66 387.38,-98"/>
<text text-anchor="start" x="267.62" y="-84.5" font-family="Helvetica,sans-Serif" font-size="10.00">StartupHandler::initObject</text>
<text text-anchor="middle" x="323.5" y="-72.5" font-family="Helvetica,sans-Serif" font-size="10.00">Handler</text>
</a>
</g>
</g>
<!-- Node3&#45;&gt;Node4 -->
<g id="edge3_Node000003_Node000004" class="edge">
<title>Node3&#45;&gt;Node4</title>
<g id="a_edge3_Node000003_Node000004"><a xlink:title=" ">
<path fill="none" stroke="#63b8ff" d="M204.11,-67.26C218.22,-69.02 233.48,-70.92 248.2,-72.75"/>
<polygon fill="#63b8ff" stroke="#63b8ff" points="247.47,-76.19 257.83,-73.95 248.34,-69.24 247.47,-76.19"/>
</a>
</g>
</g>
<!-- Node5 -->
<g id="Node000005" class="node">
<title>Node5</title>
<g id="a_Node000005"><a xlink:href="../../df/d1b/class_startup_handler.html#a57a55def03eb37544d8373663d08c053" target="_top" xlink:title=" ">
<polygon fill="white" stroke="#666666" points="394.5,-48 252.5,-48 252.5,-28 394.5,-28 394.5,-48"/>
<text text-anchor="middle" x="323.5" y="-34.5" font-family="Helvetica,sans-Serif" font-size="10.00">StartupHandler::initTranslator</text>
</a>
</g>
</g>
<!-- Node3&#45;&gt;Node5 -->
<g id="edge4_Node000003_Node000005" class="edge">
<title>Node3&#45;&gt;Node5</title>
<g id="a_edge4_Node000003_Node000005"><a xlink:title=" ">
<path fill="none" stroke="#63b8ff" d="M204.11,-52.74C215.89,-51.27 228.48,-49.7 240.89,-48.16"/>
<polygon fill="#63b8ff" stroke="#63b8ff" points="241.21,-51.65 250.7,-46.94 240.34,-44.7 241.21,-51.65"/>
</a>
</g>
</g>
</g>
</svg>
