<?xml version="1.0" encoding="UTF-8" standalone="no"?>
<!DOCTYPE svg PUBLIC "-//W3C//DTD SVG 1.1//EN"
 "http://www.w3.org/Graphics/SVG/1.1/DTD/svg11.dtd">
<!-- Generated by graphviz version 9.0.0 (20230911.1827)
 -->
<!-- Title: WindowHandler Pages: 1 -->
<svg width="488pt" height="232pt"
 viewBox="0.00 0.00 488.12 232.00" xmlns="http://www.w3.org/2000/svg" xmlns:xlink="http://www.w3.org/1999/xlink">
<g id="graph0" class="graph" transform="scale(1 1) rotate(0) translate(4 228)">
<title>WindowHandler</title>
<!-- Node1 -->
<g id="Node000001" class="node">
<title>Node1</title>
<g id="a_Node000001"><a xlink:title=" ">
<polygon fill="#999999" stroke="#666666" points="253.75,-20 170.25,-20 170.25,0 253.75,0 253.75,-20"/>
<text text-anchor="middle" x="212" y="-6.5" font-family="Helvetica,sans-Serif" font-size="10.00">WindowHandler</text>
</a>
</g>
</g>
<!-- Node2 -->
<g id="Node000002" class="node">
<title>Node2</title>
<g id="a_Node000002"><a xlink:title=" ">
<polygon fill="white" stroke="#666666" points="52,-88 0,-88 0,-68 52,-68 52,-88"/>
<text text-anchor="middle" x="26" y="-74.5" font-family="Helvetica,sans-Serif" font-size="10.00">QObject</text>
</a>
</g>
</g>
<!-- Node2&#45;&gt;Node1 -->
<g id="edge1_Node000001_Node000002" class="edge">
<title>Node2&#45;&gt;Node1</title>
<g id="a_edge1_Node000001_Node000002"><a xlink:title=" ">
<path fill="none" stroke="#63b8ff" d="M58.02,-63.11C76.54,-55.29 100.4,-45.61 122,-38 140.31,-31.55 161.04,-25.26 177.99,-20.38"/>
<polygon fill="#63b8ff" stroke="#63b8ff" points="56.73,-59.85 48.9,-66.99 59.47,-66.29 56.73,-59.85"/>
</a>
</g>
</g>
<!-- Node3 -->
<g id="Node000003" class="node">
<title>Node3</title>
<g id="a_Node000003"><a xlink:href="../../dd/d74/class_launcher_window.html" target="_top" xlink:title=" ">
<polygon fill="white" stroke="#666666" points="160.12,-88 69.88,-88 69.88,-68 160.12,-68 160.12,-88"/>
<text text-anchor="middle" x="115" y="-74.5" font-family="Helvetica,sans-Serif" font-size="10.00">LauncherWindow</text>
</a>
</g>
</g>
<!-- Node3&#45;&gt;Node1 -->
<g id="edge2_Node000001_Node000003" class="edge">
<title>Node3&#45;&gt;Node1</title>
<g id="a_edge2_Node000001_Node000003"><a xlink:title=" ">
<path fill="none" stroke="#9a32cd" stroke-dasharray="5,2" d="M121.05,-57.01C123.95,-50.21 128.07,-43.06 133.75,-38 143.84,-29.02 157.07,-22.99 169.77,-18.96"/>
<polygon fill="#9a32cd" stroke="#9a32cd" points="117.81,-55.68 117.75,-66.27 124.4,-58.03 117.81,-55.68"/>
</a>
</g>
<text text-anchor="middle" x="171.12" y="-40.5" font-family="Helvetica,sans-Serif" font-size="10.00" fill="grey"> launcherWindow</text>
</g>
<!-- Node4 -->
<g id="Node000004" class="node">
<title>Node4</title>
<g id="a_Node000004"><a xlink:title=" ">
<polygon fill="white" stroke="#666666" points="87.5,-156 8.5,-156 8.5,-136 87.5,-136 87.5,-156"/>
<text text-anchor="middle" x="48" y="-142.5" font-family="Helvetica,sans-Serif" font-size="10.00">QMainWindow</text>
</a>
</g>
</g>
<!-- Node4&#45;&gt;Node3 -->
<g id="edge3_Node000003_Node000004" class="edge">
<title>Node4&#45;&gt;Node3</title>
<g id="a_edge3_Node000003_Node000004"><a xlink:title=" ">
<path fill="none" stroke="#63b8ff" d="M65.65,-127.61C78.38,-115.07 95.08,-98.63 105.42,-88.44"/>
<polygon fill="#63b8ff" stroke="#63b8ff" points="63.35,-124.97 58.68,-134.48 68.26,-129.96 63.35,-124.97"/>
</a>
</g>
</g>
<!-- Node9 -->
<g id="Node000009" class="node">
<title>Node9</title>
<g id="a_Node000009"><a xlink:href="../../d6/d5d/class_dev_window.html" target="_top" xlink:title=" ">
<polygon fill="white" stroke="#666666" points="245.12,-88 178.88,-88 178.88,-68 245.12,-68 245.12,-88"/>
<text text-anchor="middle" x="212" y="-74.5" font-family="Helvetica,sans-Serif" font-size="10.00">DevWindow</text>
</a>
</g>
</g>
<!-- Node4&#45;&gt;Node9 -->
<g id="edge9_Node000009_Node000004" class="edge">
<title>Node4&#45;&gt;Node9</title>
<g id="a_edge9_Node000009_Node000004"><a xlink:title=" ">
<path fill="none" stroke="#63b8ff" d="M76.7,-130.49C92.52,-122.76 112.62,-113.35 131,-106 147.24,-99.5 165.72,-93.26 180.92,-88.42"/>
<polygon fill="#63b8ff" stroke="#63b8ff" points="75.28,-127.29 67.87,-134.86 78.38,-133.57 75.28,-127.29"/>
</a>
</g>
</g>
<!-- Node5 -->
<g id="Node000005" class="node">
<title>Node5</title>
<g id="a_Node000005"><a xlink:href="../../d5/dbe/class_translatable_window.html" target="_top" xlink:title=" ">
<polygon fill="white" stroke="#666666" points="208.5,-156 105.5,-156 105.5,-136 208.5,-136 208.5,-156"/>
<text text-anchor="middle" x="157" y="-142.5" font-family="Helvetica,sans-Serif" font-size="10.00">TranslatableWindow</text>
</a>
</g>
</g>
<!-- Node5&#45;&gt;Node3 -->
<g id="edge4_Node000003_Node000005" class="edge">
<title>Node5&#45;&gt;Node3</title>
<g id="a_edge4_Node000003_Node000005"><a xlink:title=" ">
<path fill="none" stroke="#63b8ff" d="M119.45,-129.48C115.3,-126.28 111.62,-122.49 109,-118 103.67,-108.89 106.93,-96.63 110.36,-88.3"/>
<polygon fill="#63b8ff" stroke="#63b8ff" points="117.51,-132.39 127.83,-134.76 121.24,-126.47 117.51,-132.39"/>
</a>
</g>
</g>
<!-- Node5&#45;&gt;Node9 -->
<g id="edge10_Node000009_Node000005" class="edge">
<title>Node5&#45;&gt;Node9</title>
<g id="a_edge10_Node000009_Node000005"><a xlink:title=" ">
<path fill="none" stroke="#63b8ff" d="M139.47,-127.03C134.92,-120.2 132.43,-112.51 137,-106 142.13,-98.7 161.14,-91.9 178.73,-86.95"/>
<polygon fill="#63b8ff" stroke="#63b8ff" points="136.49,-128.91 145.53,-134.43 141.91,-124.48 136.49,-128.91"/>
</a>
</g>
</g>
<!-- Node10 -->
<g id="Node000010" class="node">
<title>Node10</title>
<g id="a_Node000010"><a xlink:href="../../de/d9e/class_settings_window.html" target="_top" xlink:title=" ">
<polygon fill="white" stroke="#666666" points="391.25,-88 304.75,-88 304.75,-68 391.25,-68 391.25,-88"/>
<text text-anchor="middle" x="348" y="-74.5" font-family="Helvetica,sans-Serif" font-size="10.00">SettingsWindow</text>
</a>
</g>
</g>
<!-- Node5&#45;&gt;Node10 -->
<g id="edge14_Node000010_Node000005" class="edge">
<title>Node5&#45;&gt;Node10</title>
<g id="a_edge14_Node000010_Node000005"><a xlink:title=" ">
<path fill="none" stroke="#63b8ff" d="M189.05,-131.05C214.29,-120.07 245.48,-106.53 247,-106 266.54,-99.2 288.71,-93.1 307.28,-88.43"/>
<polygon fill="#63b8ff" stroke="#63b8ff" points="187.86,-127.75 180.09,-134.95 190.65,-134.17 187.86,-127.75"/>
</a>
</g>
</g>
<!-- Node6 -->
<g id="Node000006" class="node">
<title>Node6</title>
<g id="a_Node000006"><a xlink:href="../../df/d32/class_object_handler.html" target="_top" xlink:title=" ">
<polygon fill="white" stroke="#666666" points="346.75,-156 269.25,-156 269.25,-136 346.75,-136 346.75,-156"/>
<text text-anchor="middle" x="308" y="-142.5" font-family="Helvetica,sans-Serif" font-size="10.00">ObjectHandler</text>
</a>
</g>
</g>
<!-- Node6&#45;&gt;Node1 -->
<g id="edge16_Node000001_Node000006" class="edge">
<title>Node6&#45;&gt;Node1</title>
<g id="a_edge16_Node000001_Node000006"><a xlink:title=" ">
<path fill="none" stroke="#9a32cd" stroke-dasharray="5,2" d="M358.43,-142.33C374.96,-138.76 391.71,-131.66 402,-118 406.91,-111.48 412.62,-95.71 400,-68 392.06,-50.55 386.1,-46.68 369,-38 332.99,-19.73 286.99,-13.51 254.11,-11.55"/>
<polygon fill="#9a32cd" stroke="#9a32cd" points="357.85,-138.88 348.59,-144.02 359.04,-145.78 357.85,-138.88"/>
</a>
</g>
<text text-anchor="middle" x="438.12" y="-74.5" font-family="Helvetica,sans-Serif" font-size="10.00" fill="grey"> objectHandler</text>
</g>
<!-- Node6&#45;&gt;Node3 -->
<g id="edge5_Node000003_Node000006" class="edge">
<title>Node6&#45;&gt;Node3</title>
<g id="a_edge5_Node000003_Node000006"><a xlink:title=" ">
<path fill="none" stroke="#9a32cd" stroke-dasharray="5,2" d="M257.79,-138.04C234.2,-133.82 206,-127.4 181.75,-118 161.98,-110.34 141.18,-97.28 128.16,-88.4"/>
<polygon fill="#9a32cd" stroke="#9a32cd" points="257.02,-141.46 267.47,-139.68 258.19,-134.56 257.02,-141.46"/>
</a>
</g>
<text text-anchor="middle" x="213.12" y="-108.5" font-family="Helvetica,sans-Serif" font-size="10.00" fill="grey"> objectHandler</text>
</g>
<!-- Node6&#45;&gt;Node9 -->
<g id="edge11_Node000009_Node000006" class="edge">
<title>Node6&#45;&gt;Node9</title>
<g id="a_edge11_Node000009_Node000006"><a xlink:title=" ">
<path fill="none" stroke="#9a32cd" stroke-dasharray="5,2" d="M281.84,-130.1C275.5,-126.3 268.81,-122.11 262.75,-118 248.78,-108.51 233.51,-96.54 223.4,-88.38"/>
<polygon fill="#9a32cd" stroke="#9a32cd" points="279.68,-132.89 290.07,-134.94 283.22,-126.85 279.68,-132.89"/>
</a>
</g>
<text text-anchor="middle" x="294.12" y="-108.5" font-family="Helvetica,sans-Serif" font-size="10.00" fill="grey"> objectHandler</text>
</g>
<!-- Node6&#45;&gt;Node10 -->
<g id="edge15_Node000010_Node000006" class="edge">
<title>Node6&#45;&gt;Node10</title>
<g id="a_edge15_Node000010_Node000006"><a xlink:title=" ">
<path fill="none" stroke="#9a32cd" stroke-dasharray="5,2" d="M322.97,-126.79C325.1,-123.92 327.17,-120.93 329,-118 335.05,-108.28 340.62,-96.36 344.14,-88.27"/>
<polygon fill="#9a32cd" stroke="#9a32cd" points="320.22,-124.63 316.82,-134.66 325.74,-128.94 320.22,-124.63"/>
</a>
</g>
<text text-anchor="middle" x="367.12" y="-108.5" font-family="Helvetica,sans-Serif" font-size="10.00" fill="grey"> objectHandler</text>
</g>
<!-- Node7 -->
<g id="Node000007" class="node">
<title>Node7</title>
<g id="a_Node000007"><a xlink:href="../../d5/da6/class_database_handler.html" target="_top" xlink:title=" ">
<polygon fill="white" stroke="#666666" points="304.12,-224 213.88,-224 213.88,-204 304.12,-204 304.12,-224"/>
<text text-anchor="middle" x="259" y="-210.5" font-family="Helvetica,sans-Serif" font-size="10.00">DatabaseHandler</text>
</a>
</g>
</g>
<!-- Node7&#45;&gt;Node6 -->
<g id="edge6_Node000006_Node000007" class="edge">
<title>Node7&#45;&gt;Node6</title>
<g id="a_edge6_Node000006_Node000007"><a xlink:title=" ">
<path fill="none" stroke="#9a32cd" stroke-dasharray="5,2" d="M272.72,-194.52C281.92,-182.13 293.65,-166.33 300.99,-156.44"/>
<polygon fill="#9a32cd" stroke="#9a32cd" points="270.07,-192.21 266.92,-202.33 275.69,-196.39 270.07,-192.21"/>
</a>
</g>
<text text-anchor="middle" x="311.25" y="-176.5" font-family="Helvetica,sans-Serif" font-size="10.00" fill="grey"> dbHandler</text>
</g>
<!-- Node8 -->
<g id="Node000008" class="node">
<title>Node8</title>
<g id="a_Node000008"><a xlink:href="../../dd/d68/class_table_handler.html" target="_top" xlink:title=" ">
<polygon fill="white" stroke="#666666" points="394.12,-224 321.88,-224 321.88,-204 394.12,-204 394.12,-224"/>
<text text-anchor="middle" x="358" y="-210.5" font-family="Helvetica,sans-Serif" font-size="10.00">TableHandler</text>
</a>
</g>
</g>
<!-- Node8&#45;&gt;Node6 -->
<g id="edge7_Node000006_Node000008" class="edge">
<title>Node8&#45;&gt;Node6</title>
<g id="a_edge7_Node000006_Node000008"><a xlink:title=" ">
<path fill="none" stroke="#9a32cd" stroke-dasharray="5,2" d="M348.46,-193.53C344.92,-187.06 340.63,-179.99 336,-174 331.04,-167.59 324.58,-161.26 319.11,-156.34"/>
<polygon fill="#9a32cd" stroke="#9a32cd" points="345.24,-194.92 352.94,-202.2 351.46,-191.71 345.24,-194.92"/>
</a>
</g>
<text text-anchor="middle" x="372.5" y="-176.5" font-family="Helvetica,sans-Serif" font-size="10.00" fill="grey"> tableHandler</text>
</g>
<!-- Node9&#45;&gt;Node1 -->
<g id="edge8_Node000001_Node000009" class="edge">
<title>Node9&#45;&gt;Node1</title>
<g id="a_edge8_Node000001_Node000009"><a xlink:title=" ">
<path fill="none" stroke="#9a32cd" stroke-dasharray="5,2" d="M212,-56.28C212,-44.27 212,-29.74 212,-20.44"/>
<polygon fill="#9a32cd" stroke="#9a32cd" points="208.5,-56.03 212,-66.03 215.5,-56.03 208.5,-56.03"/>
</a>
</g>
<text text-anchor="middle" x="237.88" y="-40.5" font-family="Helvetica,sans-Serif" font-size="10.00" fill="grey"> devWindow</text>
</g>
<!-- Node10&#45;&gt;Node1 -->
<g id="edge12_Node000001_Node000010" class="edge">
<title>Node10&#45;&gt;Node1</title>
<g id="a_edge12_Node000001_Node000010"><a xlink:title=" ">
<path fill="none" stroke="#9a32cd" stroke-dasharray="5,2" d="M318.34,-62.5C303.27,-55.15 284.67,-46.08 268,-38 255.96,-32.16 242.44,-25.64 231.71,-20.48"/>
<polygon fill="#9a32cd" stroke="#9a32cd" points="316.73,-65.61 327.25,-66.86 319.8,-59.32 316.73,-65.61"/>
</a>
</g>
<text text-anchor="middle" x="329" y="-40.5" font-family="Helvetica,sans-Serif" font-size="10.00" fill="grey"> settingsWindow</text>
</g>
<!-- Node11 -->
<g id="Node000011" class="node">
<title>Node11</title>
<g id="a_Node000011"><a xlink:title=" ">
<polygon fill="white" stroke="#666666" points="480.12,-156 425.88,-156 425.88,-136 480.12,-136 480.12,-156"/>
<text text-anchor="middle" x="453" y="-142.5" font-family="Helvetica,sans-Serif" font-size="10.00">QWidget</text>
</a>
</g>
</g>
<!-- Node11&#45;&gt;Node10 -->
<g id="edge13_Node000010_Node000011" class="edge">
<title>Node11&#45;&gt;Node10</title>
<g id="a_edge13_Node000010_Node000011"><a xlink:title=" ">
<path fill="none" stroke="#63b8ff" d="M433.35,-128.58C424.13,-121.24 412.81,-112.75 402,-106 391.6,-99.5 379.43,-93.31 369.27,-88.49"/>
<polygon fill="#63b8ff" stroke="#63b8ff" points="430.95,-131.14 440.92,-134.74 435.37,-125.71 430.95,-131.14"/>
</a>
</g>
</g>
</g>
</svg>
