<?xml version="1.0" encoding="UTF-8" standalone="no"?>
<!DOCTYPE svg PUBLIC "-//W3C//DTD SVG 1.1//EN"
 "http://www.w3.org/Graphics/SVG/1.1/DTD/svg11.dtd">
<!-- Generated by graphviz version 9.0.0 (20230911.1827)
 -->
<!-- Title: C:/Users/Clean/Documents/Projekte/Apos&#45;DatabaseManager/Project/classes/frontendClasses/devwindow.cpp Pages: 1 -->
<svg width="710pt" height="300pt"
 viewBox="0.00 0.00 709.75 300.00" xmlns="http://www.w3.org/2000/svg" xmlns:xlink="http://www.w3.org/1999/xlink">
<g id="graph0" class="graph" transform="scale(1 1) rotate(0) translate(4 296)">
<title>C:/Users/Clean/Documents/Projekte/Apos&#45;DatabaseManager/Project/classes/frontendClasses/devwindow.cpp</title>
<!-- Node1 -->
<g id="Node000001" class="node">
<title>Node1</title>
<g id="a_Node000001"><a xlink:title=" ">
<polygon fill="#999999" stroke="#666666" points="482.62,-292 320.38,-292 320.38,-236 482.62,-236 482.62,-292"/>
<text text-anchor="start" x="328.38" y="-278.5" font-family="Helvetica,sans-Serif" font-size="10.00">C:/Users/Clean/Documents</text>
<text text-anchor="start" x="328.38" y="-266.5" font-family="Helvetica,sans-Serif" font-size="10.00">/Projekte/Apos&#45;DatabaseManager</text>
<text text-anchor="start" x="328.38" y="-254.5" font-family="Helvetica,sans-Serif" font-size="10.00">/Project/classes/frontendClasses</text>
<text text-anchor="middle" x="401.5" y="-242.5" font-family="Helvetica,sans-Serif" font-size="10.00">/devwindow.cpp</text>
</a>
</g>
</g>
<!-- Node2 -->
<g id="Node000002" class="node">
<title>Node2</title>
<g id="a_Node000002"><a xlink:href="../../d5/d65/devwindow_8hpp.html" target="_top" xlink:title=" ">
<polygon fill="white" stroke="#666666" points="391.75,-200 311.25,-200 311.25,-180 391.75,-180 391.75,-200"/>
<text text-anchor="middle" x="351.5" y="-186.5" font-family="Helvetica,sans-Serif" font-size="10.00">devwindow.hpp</text>
</a>
</g>
</g>
<!-- Node1&#45;&gt;Node2 -->
<g id="edge1_Node000001_Node000002" class="edge">
<title>Node1&#45;&gt;Node2</title>
<g id="a_edge1_Node000001_Node000002"><a xlink:title=" ">
<path fill="none" stroke="#63b8ff" d="M382.6,-235.78C376.6,-227.14 370.1,-217.78 364.6,-209.87"/>
<polygon fill="#63b8ff" stroke="#63b8ff" points="367.52,-207.93 358.94,-201.72 361.77,-211.93 367.52,-207.93"/>
</a>
</g>
</g>
<!-- Node11 -->
<g id="Node000011" class="node">
<title>Node11</title>
<g id="a_Node000011"><a xlink:title=" ">
<polygon fill="#e0e0e0" stroke="#999999" points="492.88,-200 410.12,-200 410.12,-180 492.88,-180 492.88,-200"/>
<text text-anchor="middle" x="451.5" y="-186.5" font-family="Helvetica,sans-Serif" font-size="10.00">ui_devwindow.h</text>
</a>
</g>
</g>
<!-- Node1&#45;&gt;Node11 -->
<g id="edge16_Node000001_Node000011" class="edge">
<title>Node1&#45;&gt;Node11</title>
<g id="a_edge16_Node000001_Node000011"><a xlink:title=" ">
<path fill="none" stroke="#63b8ff" d="M420.4,-235.78C426.4,-227.14 432.9,-217.78 438.4,-209.87"/>
<polygon fill="#63b8ff" stroke="#63b8ff" points="441.23,-211.93 444.06,-201.72 435.48,-207.93 441.23,-211.93"/>
</a>
</g>
</g>
<!-- Node3 -->
<g id="Node000003" class="node">
<title>Node3</title>
<g id="a_Node000003"><a xlink:title=" ">
<polygon fill="#e0e0e0" stroke="#999999" points="79,-144 0,-144 0,-124 79,-124 79,-144"/>
<text text-anchor="middle" x="39.5" y="-130.5" font-family="Helvetica,sans-Serif" font-size="10.00">QMainWindow</text>
</a>
</g>
</g>
<!-- Node2&#45;&gt;Node3 -->
<g id="edge2_Node000002_Node000003" class="edge">
<title>Node2&#45;&gt;Node3</title>
<g id="a_edge2_Node000002_Node000003"><a xlink:title=" ">
<path fill="none" stroke="#63b8ff" d="M311.03,-182C254.53,-172.22 152.03,-154.48 90.41,-143.81"/>
<polygon fill="#63b8ff" stroke="#63b8ff" points="91.35,-140.42 80.9,-142.16 90.15,-147.32 91.35,-140.42"/>
</a>
</g>
</g>
<!-- Node4 -->
<g id="Node000004" class="node">
<title>Node4</title>
<g id="a_Node000004"><a xlink:title=" ">
<polygon fill="#e0e0e0" stroke="#999999" points="213.12,-20 161.88,-20 161.88,0 213.12,0 213.12,-20"/>
<text text-anchor="middle" x="187.5" y="-6.5" font-family="Helvetica,sans-Serif" font-size="10.00">QDebug</text>
</a>
</g>
</g>
<!-- Node2&#45;&gt;Node4 -->
<g id="edge3_Node000002_Node000004" class="edge">
<title>Node2&#45;&gt;Node4</title>
<g id="a_edge3_Node000002_Node000004"><a xlink:title=" ">
<path fill="none" stroke="#63b8ff" d="M310.93,-181.55C263.57,-170.41 187.54,-144.37 154.5,-88 143.19,-68.7 157.38,-44.8 170.52,-28.79"/>
<polygon fill="#63b8ff" stroke="#63b8ff" points="172.95,-31.32 176.93,-21.5 167.69,-26.7 172.95,-31.32"/>
</a>
</g>
</g>
<!-- Node5 -->
<g id="Node000005" class="node">
<title>Node5</title>
<g id="a_Node000005"><a xlink:title=" ">
<polygon fill="#e0e0e0" stroke="#999999" points="455.88,-20 415.12,-20 415.12,0 455.88,0 455.88,-20"/>
<text text-anchor="middle" x="435.5" y="-6.5" font-family="Helvetica,sans-Serif" font-size="10.00">QtSql</text>
</a>
</g>
</g>
<!-- Node2&#45;&gt;Node5 -->
<g id="edge4_Node000002_Node000005" class="edge">
<title>Node2&#45;&gt;Node5</title>
<g id="a_edge4_Node000002_Node000005"><a xlink:title=" ">
<path fill="none" stroke="#63b8ff" d="M387.69,-179.61C428.51,-166.74 492.35,-139.18 516.5,-88 522.57,-75.14 523.71,-68.26 516.5,-56 505.83,-37.86 484.9,-26.51 467,-19.74"/>
<polygon fill="#63b8ff" stroke="#63b8ff" points="468.38,-16.52 457.79,-16.59 466.12,-23.14 468.38,-16.52"/>
</a>
</g>
</g>
<!-- Node6 -->
<g id="Node000006" class="node">
<title>Node6</title>
<g id="a_Node000006"><a xlink:href="../../d5/dcc/objecthandler_8hpp.html" target="_top" xlink:title=" ">
<polygon fill="white" stroke="#666666" points="439.75,-144 263.25,-144 263.25,-124 439.75,-124 439.75,-144"/>
<text text-anchor="middle" x="351.5" y="-130.5" font-family="Helvetica,sans-Serif" font-size="10.00">../backendClasses/objecthandler.hpp</text>
</a>
</g>
</g>
<!-- Node2&#45;&gt;Node6 -->
<g id="edge5_Node000002_Node000006" class="edge">
<title>Node2&#45;&gt;Node6</title>
<g id="a_edge5_Node000002_Node000006"><a xlink:title=" ">
<path fill="none" stroke="#63b8ff" d="M351.5,-179.59C351.5,-173.01 351.5,-163.96 351.5,-155.73"/>
<polygon fill="#63b8ff" stroke="#63b8ff" points="355,-155.81 351.5,-145.81 348,-155.81 355,-155.81"/>
</a>
</g>
</g>
<!-- Node10 -->
<g id="Node000010" class="node">
<title>Node10</title>
<g id="a_Node000010"><a xlink:href="../../d7/dfa/translatablewindow_8hpp.html" target="_top" xlink:title=" ">
<polygon fill="white" stroke="#666666" points="701.75,-144 585.25,-144 585.25,-124 701.75,-124 701.75,-144"/>
<text text-anchor="middle" x="643.5" y="-130.5" font-family="Helvetica,sans-Serif" font-size="10.00">translatablewindow.hpp</text>
</a>
</g>
</g>
<!-- Node2&#45;&gt;Node10 -->
<g id="edge15_Node000002_Node000010" class="edge">
<title>Node2&#45;&gt;Node10</title>
<g id="a_edge15_Node000002_Node000010"><a xlink:title=" ">
<path fill="none" stroke="#63b8ff" d="M392.1,-181.49C441.1,-172.43 524,-157.1 581.13,-146.53"/>
<polygon fill="#63b8ff" stroke="#63b8ff" points="581.51,-150.02 590.71,-144.76 580.24,-143.14 581.51,-150.02"/>
</a>
</g>
</g>
<!-- Node6&#45;&gt;Node4 -->
<g id="edge7_Node000006_Node000004" class="edge">
<title>Node6&#45;&gt;Node4</title>
<g id="a_edge7_Node000006_Node000004"><a xlink:title=" ">
<path fill="none" stroke="#63b8ff" d="M270.71,-123.54C226.5,-116.52 178.01,-105.15 164.5,-88 151.06,-70.94 162.47,-46.15 173.48,-29.34"/>
<polygon fill="#63b8ff" stroke="#63b8ff" points="176.26,-31.47 179.18,-21.29 170.55,-27.43 176.26,-31.47"/>
</a>
</g>
</g>
<!-- Node6&#45;&gt;Node5 -->
<g id="edge8_Node000006_Node000005" class="edge">
<title>Node6&#45;&gt;Node5</title>
<g id="a_edge8_Node000006_Node000005"><a xlink:title=" ">
<path fill="none" stroke="#63b8ff" d="M439.91,-125.4C463.28,-118.88 486,-107.53 500.5,-88 508.98,-76.58 507.1,-68.6 500.5,-56 493.21,-42.09 479.45,-31.63 466.47,-24.3"/>
<polygon fill="#63b8ff" stroke="#63b8ff" points="468.19,-21.26 457.7,-19.79 464.99,-27.48 468.19,-21.26"/>
</a>
</g>
</g>
<!-- Node7 -->
<g id="Node000007" class="node">
<title>Node7</title>
<g id="a_Node000007"><a xlink:title=" ">
<polygon fill="#e0e0e0" stroke="#999999" points="491.25,-82 419.75,-82 419.75,-62 491.25,-62 491.25,-82"/>
<text text-anchor="middle" x="455.5" y="-68.5" font-family="Helvetica,sans-Serif" font-size="10.00">QApplication</text>
</a>
</g>
</g>
<!-- Node6&#45;&gt;Node7 -->
<g id="edge6_Node000006_Node000007" class="edge">
<title>Node6&#45;&gt;Node7</title>
<g id="a_edge6_Node000006_Node000007"><a xlink:title=" ">
<path fill="none" stroke="#63b8ff" d="M367.75,-123.62C384.31,-114.07 410.25,-99.11 429.64,-87.92"/>
<polygon fill="#63b8ff" stroke="#63b8ff" points="431.14,-91.09 438.05,-83.07 427.64,-85.03 431.14,-91.09"/>
</a>
</g>
</g>
<!-- Node8 -->
<g id="Node000008" class="node">
<title>Node8</title>
<g id="a_Node000008"><a xlink:href="../../de/d60/databasehandler_8hpp.html" target="_top" xlink:title=" ">
<polygon fill="white" stroke="#666666" points="283,-88 174,-88 174,-56 283,-56 283,-88"/>
<text text-anchor="start" x="182" y="-74.5" font-family="Helvetica,sans-Serif" font-size="10.00">../databaseClasses</text>
<text text-anchor="middle" x="228.5" y="-62.5" font-family="Helvetica,sans-Serif" font-size="10.00">/databasehandler.hpp</text>
</a>
</g>
</g>
<!-- Node6&#45;&gt;Node8 -->
<g id="edge9_Node000006_Node000008" class="edge">
<title>Node6&#45;&gt;Node8</title>
<g id="a_edge9_Node000006_Node000008"><a xlink:title=" ">
<path fill="none" stroke="#63b8ff" d="M332.28,-123.62C315.75,-115.56 291.32,-103.64 270.31,-93.4"/>
<polygon fill="#63b8ff" stroke="#63b8ff" points="271.9,-90.28 261.38,-89.04 268.83,-96.57 271.9,-90.28"/>
</a>
</g>
</g>
<!-- Node9 -->
<g id="Node000009" class="node">
<title>Node9</title>
<g id="a_Node000009"><a xlink:href="../../df/d46/tablehandler_8hpp.html" target="_top" xlink:title=" ">
<polygon fill="white" stroke="#666666" points="401.5,-88 301.5,-88 301.5,-56 401.5,-56 401.5,-88"/>
<text text-anchor="start" x="309.5" y="-74.5" font-family="Helvetica,sans-Serif" font-size="10.00">../databaseClasses</text>
<text text-anchor="middle" x="351.5" y="-62.5" font-family="Helvetica,sans-Serif" font-size="10.00">/tablehandler.hpp</text>
</a>
</g>
</g>
<!-- Node6&#45;&gt;Node9 -->
<g id="edge12_Node000006_Node000009" class="edge">
<title>Node6&#45;&gt;Node9</title>
<g id="a_edge12_Node000006_Node000009"><a xlink:title=" ">
<path fill="none" stroke="#63b8ff" d="M351.5,-123.62C351.5,-117.1 351.5,-108.05 351.5,-99.4"/>
<polygon fill="#63b8ff" stroke="#63b8ff" points="355,-99.65 351.5,-89.65 348,-99.65 355,-99.65"/>
</a>
</g>
</g>
<!-- Node8&#45;&gt;Node4 -->
<g id="edge10_Node000008_Node000004" class="edge">
<title>Node8&#45;&gt;Node4</title>
<g id="a_edge10_Node000008_Node000004"><a xlink:title=" ">
<path fill="none" stroke="#63b8ff" d="M217.94,-55.55C212.54,-47.65 205.93,-37.97 200.25,-29.66"/>
<polygon fill="#63b8ff" stroke="#63b8ff" points="203.31,-27.94 194.78,-21.66 197.53,-31.89 203.31,-27.94"/>
</a>
</g>
</g>
<!-- Node8&#45;&gt;Node5 -->
<g id="edge11_Node000008_Node000005" class="edge">
<title>Node8&#45;&gt;Node5</title>
<g id="a_edge11_Node000008_Node000005"><a xlink:title=" ">
<path fill="none" stroke="#63b8ff" d="M281.81,-55.55C320.43,-44.35 371.35,-29.59 403.77,-20.2"/>
<polygon fill="#63b8ff" stroke="#63b8ff" points="404.74,-23.56 413.37,-17.42 402.79,-16.84 404.74,-23.56"/>
</a>
</g>
</g>
<!-- Node9&#45;&gt;Node4 -->
<g id="edge13_Node000009_Node000004" class="edge">
<title>Node9&#45;&gt;Node4</title>
<g id="a_edge13_Node000009_Node000004"><a xlink:title=" ">
<path fill="none" stroke="#63b8ff" d="M309.27,-55.55C282.81,-45.87 249.07,-33.53 223.82,-24.29"/>
<polygon fill="#63b8ff" stroke="#63b8ff" points="225.23,-21.08 214.64,-20.93 222.83,-27.65 225.23,-21.08"/>
</a>
</g>
</g>
<!-- Node9&#45;&gt;Node5 -->
<g id="edge14_Node000009_Node000005" class="edge">
<title>Node9&#45;&gt;Node5</title>
<g id="a_edge14_Node000009_Node000005"><a xlink:title=" ">
<path fill="none" stroke="#63b8ff" d="M373.13,-55.55C385.41,-46.78 400.74,-35.83 413.14,-26.97"/>
<polygon fill="#63b8ff" stroke="#63b8ff" points="414.99,-29.95 421.1,-21.29 410.93,-24.25 414.99,-29.95"/>
</a>
</g>
</g>
</g>
</svg>
