<?xml version="1.0" encoding="UTF-8" standalone="no"?>
<!DOCTYPE svg PUBLIC "-//W3C//DTD SVG 1.1//EN"
 "http://www.w3.org/Graphics/SVG/1.1/DTD/svg11.dtd">
<!-- Generated by graphviz version 9.0.0 (20230911.1827)
 -->
<!-- Title: TranslatableWindow Pages: 1 -->
<svg width="286pt" height="84pt"
 viewBox="0.00 0.00 286.38 84.00" xmlns="http://www.w3.org/2000/svg" xmlns:xlink="http://www.w3.org/1999/xlink">
<g id="graph0" class="graph" transform="scale(1 1) rotate(0) translate(4 80)">
<title>TranslatableWindow</title>
<!-- Node1 -->
<g id="Node000001" class="node">
<title>Node1</title>
<g id="a_Node000001"><a xlink:title=" ">
<polygon fill="#999999" stroke="#666666" points="180.62,-76 77.62,-76 77.62,-56 180.62,-56 180.62,-76"/>
<text text-anchor="middle" x="129.12" y="-62.5" font-family="Helvetica,sans-Serif" font-size="10.00">TranslatableWindow</text>
</a>
</g>
</g>
<!-- Node2 -->
<g id="Node000002" class="node">
<title>Node2</title>
<g id="a_Node000002"><a xlink:href="../../d6/d5d/class_dev_window.html" target="_top" xlink:title=" ">
<polygon fill="white" stroke="#666666" points="66.25,-20 0,-20 0,0 66.25,0 66.25,-20"/>
<text text-anchor="middle" x="33.12" y="-6.5" font-family="Helvetica,sans-Serif" font-size="10.00">DevWindow</text>
</a>
</g>
</g>
<!-- Node1&#45;&gt;Node2 -->
<g id="edge1_Node000001_Node000002" class="edge">
<title>Node1&#45;&gt;Node2</title>
<g id="a_edge1_Node000001_Node000002"><a xlink:title=" ">
<path fill="none" stroke="#63b8ff" d="M102.6,-50.08C85.78,-40.62 64.52,-28.66 49.98,-20.48"/>
<polygon fill="#63b8ff" stroke="#63b8ff" points="100.65,-53 111.08,-54.85 104.08,-46.9 100.65,-53"/>
</a>
</g>
</g>
<!-- Node3 -->
<g id="Node000003" class="node">
<title>Node3</title>
<g id="a_Node000003"><a xlink:href="../../dd/d74/class_launcher_window.html" target="_top" xlink:title=" ">
<polygon fill="white" stroke="#666666" points="174.25,-20 84,-20 84,0 174.25,0 174.25,-20"/>
<text text-anchor="middle" x="129.12" y="-6.5" font-family="Helvetica,sans-Serif" font-size="10.00">LauncherWindow</text>
</a>
</g>
</g>
<!-- Node1&#45;&gt;Node3 -->
<g id="edge2_Node000001_Node000003" class="edge">
<title>Node1&#45;&gt;Node3</title>
<g id="a_edge2_Node000001_Node000003"><a xlink:title=" ">
<path fill="none" stroke="#63b8ff" d="M129.12,-44.13C129.12,-35.9 129.12,-26.85 129.12,-20.3"/>
<polygon fill="#63b8ff" stroke="#63b8ff" points="125.63,-44.08 129.13,-54.08 132.63,-44.08 125.63,-44.08"/>
</a>
</g>
</g>
<!-- Node4 -->
<g id="Node000004" class="node">
<title>Node4</title>
<g id="a_Node000004"><a xlink:href="../../de/d9e/class_settings_window.html" target="_top" xlink:title=" ">
<polygon fill="white" stroke="#666666" points="278.38,-20 191.88,-20 191.88,0 278.38,0 278.38,-20"/>
<text text-anchor="middle" x="235.12" y="-6.5" font-family="Helvetica,sans-Serif" font-size="10.00">SettingsWindow</text>
</a>
</g>
</g>
<!-- Node1&#45;&gt;Node4 -->
<g id="edge3_Node000001_Node000004" class="edge">
<title>Node1&#45;&gt;Node4</title>
<g id="a_edge3_Node000001_Node000004"><a xlink:title=" ">
<path fill="none" stroke="#63b8ff" d="M157.63,-50.48C176.32,-40.96 200.23,-28.78 216.52,-20.48"/>
<polygon fill="#63b8ff" stroke="#63b8ff" points="156.26,-47.25 148.94,-54.91 159.44,-53.49 156.26,-47.25"/>
</a>
</g>
</g>
</g>
</svg>
