<?xml version="1.0" encoding="UTF-8" standalone="no"?>
<!DOCTYPE svg PUBLIC "-//W3C//DTD SVG 1.1//EN"
 "http://www.w3.org/Graphics/SVG/1.1/DTD/svg11.dtd">
<!-- Generated by graphviz version 9.0.0 (20230911.1827)
 -->
<!-- Title: DatabaseHandler::getSqlError Pages: 1 -->
<svg width="490pt" height="84pt"
 viewBox="0.00 0.00 490.25 84.00" xmlns="http://www.w3.org/2000/svg" xmlns:xlink="http://www.w3.org/1999/xlink">
<g id="graph0" class="graph" transform="scale(1 1) rotate(0) translate(4 80)">
<title>DatabaseHandler::getSqlError</title>
<!-- Node1 -->
<g id="Node000001" class="node">
<title>Node1</title>
<g id="a_Node000001"><a xlink:title=" ">
<polygon fill="#999999" stroke="#666666" points="482.25,-48 337.25,-48 337.25,-28 482.25,-28 482.25,-48"/>
<text text-anchor="middle" x="409.75" y="-34.5" font-family="Helvetica,sans-Serif" font-size="10.00">DatabaseHandler::getSqlError</text>
</a>
</g>
</g>
<!-- Node2 -->
<g id="Node000002" class="node">
<title>Node2</title>
<g id="a_Node000002"><a xlink:href="../../d6/d5d/class_dev_window.html#a2aa91ebfb3fac512e407c89b9ffff1ec" target="_top" xlink:title=" ">
<polygon fill="white" stroke="#666666" points="295.62,-70 169.38,-70 169.38,-50 295.62,-50 295.62,-70"/>
<text text-anchor="middle" x="232.5" y="-56.5" font-family="Helvetica,sans-Serif" font-size="10.00">DevWindow::initDatabase</text>
</a>
</g>
</g>
<!-- Node1&#45;&gt;Node2 -->
<g id="edge1_Node000001_Node000002" class="edge">
<title>Node1&#45;&gt;Node2</title>
<g id="a_edge1_Node000001_Node000002"><a xlink:title=" ">
<path fill="none" stroke="#63b8ff" d="M325.71,-48.42C315.68,-49.68 305.58,-50.95 295.92,-52.16"/>
<polygon fill="#63b8ff" stroke="#63b8ff" points="325.98,-51.92 335.46,-47.2 325.1,-44.97 325.98,-51.92"/>
</a>
</g>
</g>
<!-- Node4 -->
<g id="Node000004" class="node">
<title>Node4</title>
<g id="a_Node000004"><a xlink:href="../../d6/d5d/class_dev_window.html#ac5cf1fa72fa3b7eb8044a0e099add694" target="_top" xlink:title=" ">
<polygon fill="white" stroke="#666666" points="301.25,-32 163.75,-32 163.75,0 301.25,0 301.25,-32"/>
<text text-anchor="start" x="171.75" y="-18.5" font-family="Helvetica,sans-Serif" font-size="10.00">DevWindow::on_btnExecute</text>
<text text-anchor="middle" x="232.5" y="-6.5" font-family="Helvetica,sans-Serif" font-size="10.00">_clicked</text>
</a>
</g>
</g>
<!-- Node1&#45;&gt;Node4 -->
<g id="edge3_Node000001_Node000004" class="edge">
<title>Node1&#45;&gt;Node4</title>
<g id="a_edge3_Node000001_Node000004"><a xlink:title=" ">
<path fill="none" stroke="#63b8ff" d="M325.61,-27.56C317.53,-26.55 309.41,-25.53 301.5,-24.54"/>
<polygon fill="#63b8ff" stroke="#63b8ff" points="325.1,-31.03 335.46,-28.8 325.98,-24.08 325.1,-31.03"/>
</a>
</g>
</g>
<!-- Node3 -->
<g id="Node000003" class="node">
<title>Node3</title>
<g id="a_Node000003"><a xlink:href="../../d6/d5d/class_dev_window.html#a9bfb7fe4688b2a94807581db270502ff" target="_top" xlink:title=" ">
<polygon fill="white" stroke="#666666" points="127.75,-76 0,-76 0,-44 127.75,-44 127.75,-76"/>
<text text-anchor="start" x="8" y="-62.5" font-family="Helvetica,sans-Serif" font-size="10.00">DevWindow::on_btnInitDB</text>
<text text-anchor="middle" x="63.88" y="-50.5" font-family="Helvetica,sans-Serif" font-size="10.00">_clicked</text>
</a>
</g>
</g>
<!-- Node2&#45;&gt;Node3 -->
<g id="edge2_Node000002_Node000003" class="edge">
<title>Node2&#45;&gt;Node3</title>
<g id="a_edge2_Node000002_Node000003"><a xlink:title=" ">
<path fill="none" stroke="#63b8ff" d="M157.54,-60C147.69,-60 137.66,-60 128.02,-60"/>
<polygon fill="#63b8ff" stroke="#63b8ff" points="157.47,-63.5 167.47,-60 157.47,-56.5 157.47,-63.5"/>
</a>
</g>
</g>
</g>
</svg>
