<?xml version="1.0" encoding="UTF-8" standalone="no"?>
<!DOCTYPE svg PUBLIC "-//W3C//DTD SVG 1.1//EN"
 "http://www.w3.org/Graphics/SVG/1.1/DTD/svg11.dtd">
<!-- Generated by graphviz version 9.0.0 (20230911.1827)
 -->
<!-- Title: DatabaseHandler::closeDatabase Pages: 1 -->
<svg width="517pt" height="40pt"
 viewBox="0.00 0.00 517.25 40.00" xmlns="http://www.w3.org/2000/svg" xmlns:xlink="http://www.w3.org/1999/xlink">
<g id="graph0" class="graph" transform="scale(1 1) rotate(0) translate(4 36)">
<title>DatabaseHandler::closeDatabase</title>
<!-- Node1 -->
<g id="Node000001" class="node">
<title>Node1</title>
<g id="a_Node000001"><a xlink:title=" ">
<polygon fill="#999999" stroke="#666666" points="509.25,-26 348.5,-26 348.5,-6 509.25,-6 509.25,-26"/>
<text text-anchor="middle" x="428.88" y="-12.5" font-family="Helvetica,sans-Serif" font-size="10.00">DatabaseHandler::closeDatabase</text>
</a>
</g>
</g>
<!-- Node2 -->
<g id="Node000002" class="node">
<title>Node2</title>
<g id="a_Node000002"><a xlink:href="../../d6/d5d/class_dev_window.html#a7da394c44e1c71d58f2f9a3b1e22d85f" target="_top" xlink:title=" ">
<polygon fill="white" stroke="#666666" points="312.5,-26 175.75,-26 175.75,-6 312.5,-6 312.5,-26"/>
<text text-anchor="middle" x="244.12" y="-12.5" font-family="Helvetica,sans-Serif" font-size="10.00">DevWindow::closeDatabase</text>
</a>
</g>
</g>
<!-- Node1&#45;&gt;Node2 -->
<g id="edge1_Node000001_Node000002" class="edge">
<title>Node1&#45;&gt;Node2</title>
<g id="a_edge1_Node000001_Node000002"><a xlink:title=" ">
<path fill="none" stroke="#63b8ff" d="M336.83,-16C328.72,-16 320.62,-16 312.77,-16"/>
<polygon fill="#63b8ff" stroke="#63b8ff" points="336.74,-19.5 346.74,-16 336.74,-12.5 336.74,-19.5"/>
</a>
</g>
</g>
<!-- Node3 -->
<g id="Node000003" class="node">
<title>Node3</title>
<g id="a_Node000003"><a xlink:href="../../d6/d5d/class_dev_window.html#a5af0e44d3c6fff78f8a62cf26380f595" target="_top" xlink:title=" ">
<polygon fill="white" stroke="#666666" points="139.75,-32 0,-32 0,0 139.75,0 139.75,-32"/>
<text text-anchor="start" x="8" y="-18.5" font-family="Helvetica,sans-Serif" font-size="10.00">DevWindow::on_btnCloseDB</text>
<text text-anchor="middle" x="69.88" y="-6.5" font-family="Helvetica,sans-Serif" font-size="10.00">_clicked</text>
</a>
</g>
</g>
<!-- Node2&#45;&gt;Node3 -->
<g id="edge2_Node000002_Node000003" class="edge">
<title>Node2&#45;&gt;Node3</title>
<g id="a_edge2_Node000002_Node000003"><a xlink:title=" ">
<path fill="none" stroke="#63b8ff" d="M164.29,-16C156.26,-16 148.16,-16 140.25,-16"/>
<polygon fill="#63b8ff" stroke="#63b8ff" points="164.03,-19.5 174.03,-16 164.03,-12.5 164.03,-19.5"/>
</a>
</g>
</g>
</g>
</svg>
